<?xml version="1.0" encoding="utf-8" standalone="no"?>
<!DOCTYPE svg PUBLIC "-//W3C//DTD SVG 1.1//EN"
  "http://www.w3.org/Graphics/SVG/1.1/DTD/svg11.dtd">
<svg xmlns:xlink="http://www.w3.org/1999/xlink" width="144pt" height="129.6pt" viewBox="0 0 144 129.6" xmlns="http://www.w3.org/2000/svg" version="1.1">
 <metadata>
  <rdf:RDF xmlns:dc="http://purl.org/dc/elements/1.1/" xmlns:cc="http://creativecommons.org/ns#" xmlns:rdf="http://www.w3.org/1999/02/22-rdf-syntax-ns#">
   <cc:Work>
    <dc:type rdf:resource="http://purl.org/dc/dcmitype/StillImage"/>
    <dc:date>2022-12-16T13:15:50.878491</dc:date>
    <dc:format>image/svg+xml</dc:format>
    <dc:creator>
     <cc:Agent>
      <dc:title>Matplotlib v3.5.1, https://matplotlib.org/</dc:title>
     </cc:Agent>
    </dc:creator>
   </cc:Work>
  </rdf:RDF>
 </metadata>
 <defs>
  <style type="text/css">*{stroke-linejoin: round; stroke-linecap: butt}</style>
 </defs>
 <g id="figure_1">
  <g id="patch_1">
   <path d="M 0 129.6 
L 144 129.6 
L 144 0 
L 0 0 
z
" style="fill: #ffffff"/>
  </g>
  <g id="axes_1">
   <g id="patch_2">
    <path d="M 45.912492 92.67875 
L 128.79 92.67875 
L 128.79 16.32375 
L 45.912492 16.32375 
z
" style="fill: #ffffff"/>
   </g>
   <g id="matplotlib.axis_1">
    <g id="xtick_1">
     <g id="line2d_1">
      <defs>
       <path id="md155c3ba7c" d="M 0 0 
L 0 4 
" style="stroke: #262626; stroke-width: 0.8"/>
      </defs>
      <g>
       <use xlink:href="#md155c3ba7c" x="45.912492" y="92.67875" style="fill: #262626; stroke: #262626; stroke-width: 0.8"/>
      </g>
     </g>
     <g id="text_1">
      <!-- 0 -->
      <g style="fill: #262626" transform="translate(43.688117 104.405)scale(0.08 -0.08)">
       <defs>
        <path id="ArialMT-30" d="M 266 2259 
Q 266 3072 433 3567 
Q 600 4063 929 4331 
Q 1259 4600 1759 4600 
Q 2128 4600 2406 4451 
Q 2684 4303 2865 4023 
Q 3047 3744 3150 3342 
Q 3253 2941 3253 2259 
Q 3253 1453 3087 958 
Q 2922 463 2592 192 
Q 2263 -78 1759 -78 
Q 1097 -78 719 397 
Q 266 969 266 2259 
z
M 844 2259 
Q 844 1131 1108 757 
Q 1372 384 1759 384 
Q 2147 384 2411 759 
Q 2675 1134 2675 2259 
Q 2675 3391 2411 3762 
Q 2147 4134 1753 4134 
Q 1366 4134 1134 3806 
Q 844 3388 844 2259 
z
" transform="scale(0.015625)"/>
       </defs>
       <use xlink:href="#ArialMT-30"/>
      </g>
     </g>
    </g>
    <g id="xtick_2">
     <g id="line2d_2">
      <g>
       <use xlink:href="#md155c3ba7c" x="87.351246" y="92.67875" style="fill: #262626; stroke: #262626; stroke-width: 0.8"/>
      </g>
     </g>
     <g id="text_2">
      <!-- 30 -->
      <g style="fill: #262626" transform="translate(82.902496 104.405)scale(0.08 -0.08)">
       <defs>
        <path id="ArialMT-33" d="M 269 1209 
L 831 1284 
Q 928 806 1161 595 
Q 1394 384 1728 384 
Q 2125 384 2398 659 
Q 2672 934 2672 1341 
Q 2672 1728 2419 1979 
Q 2166 2231 1775 2231 
Q 1616 2231 1378 2169 
L 1441 2663 
Q 1497 2656 1531 2656 
Q 1891 2656 2178 2843 
Q 2466 3031 2466 3422 
Q 2466 3731 2256 3934 
Q 2047 4138 1716 4138 
Q 1388 4138 1169 3931 
Q 950 3725 888 3313 
L 325 3413 
Q 428 3978 793 4289 
Q 1159 4600 1703 4600 
Q 2078 4600 2393 4439 
Q 2709 4278 2876 4000 
Q 3044 3722 3044 3409 
Q 3044 3113 2884 2869 
Q 2725 2625 2413 2481 
Q 2819 2388 3044 2092 
Q 3269 1797 3269 1353 
Q 3269 753 2831 336 
Q 2394 -81 1725 -81 
Q 1122 -81 723 278 
Q 325 638 269 1209 
z
" transform="scale(0.015625)"/>
       </defs>
       <use xlink:href="#ArialMT-33"/>
       <use xlink:href="#ArialMT-30" x="55.615234"/>
      </g>
     </g>
    </g>
    <g id="xtick_3">
     <g id="line2d_3">
      <g>
       <use xlink:href="#md155c3ba7c" x="128.79" y="92.67875" style="fill: #262626; stroke: #262626; stroke-width: 0.8"/>
      </g>
     </g>
     <g id="text_3">
      <!-- 60 -->
      <g style="fill: #262626" transform="translate(124.34125 104.405)scale(0.08 -0.08)">
       <defs>
        <path id="ArialMT-36" d="M 3184 3459 
L 2625 3416 
Q 2550 3747 2413 3897 
Q 2184 4138 1850 4138 
Q 1581 4138 1378 3988 
Q 1113 3794 959 3422 
Q 806 3050 800 2363 
Q 1003 2672 1297 2822 
Q 1591 2972 1913 2972 
Q 2475 2972 2870 2558 
Q 3266 2144 3266 1488 
Q 3266 1056 3080 686 
Q 2894 316 2569 119 
Q 2244 -78 1831 -78 
Q 1128 -78 684 439 
Q 241 956 241 2144 
Q 241 3472 731 4075 
Q 1159 4600 1884 4600 
Q 2425 4600 2770 4297 
Q 3116 3994 3184 3459 
z
M 888 1484 
Q 888 1194 1011 928 
Q 1134 663 1356 523 
Q 1578 384 1822 384 
Q 2178 384 2434 671 
Q 2691 959 2691 1453 
Q 2691 1928 2437 2201 
Q 2184 2475 1800 2475 
Q 1419 2475 1153 2201 
Q 888 1928 888 1484 
z
" transform="scale(0.015625)"/>
       </defs>
       <use xlink:href="#ArialMT-36"/>
       <use xlink:href="#ArialMT-30" x="55.615234"/>
      </g>
     </g>
    </g>
    <g id="text_4">
     <!-- time (d) -->
     <g style="fill: #262626" transform="translate(72.101168 116.546719)scale(0.09 -0.09)">
      <defs>
       <path id="ArialMT-74" d="M 1650 503 
L 1731 6 
Q 1494 -44 1306 -44 
Q 1000 -44 831 53 
Q 663 150 594 308 
Q 525 466 525 972 
L 525 2881 
L 113 2881 
L 113 3319 
L 525 3319 
L 525 4141 
L 1084 4478 
L 1084 3319 
L 1650 3319 
L 1650 2881 
L 1084 2881 
L 1084 941 
Q 1084 700 1114 631 
Q 1144 563 1211 522 
Q 1278 481 1403 481 
Q 1497 481 1650 503 
z
" transform="scale(0.015625)"/>
       <path id="ArialMT-69" d="M 425 3934 
L 425 4581 
L 988 4581 
L 988 3934 
L 425 3934 
z
M 425 0 
L 425 3319 
L 988 3319 
L 988 0 
L 425 0 
z
" transform="scale(0.015625)"/>
       <path id="ArialMT-6d" d="M 422 0 
L 422 3319 
L 925 3319 
L 925 2853 
Q 1081 3097 1340 3245 
Q 1600 3394 1931 3394 
Q 2300 3394 2536 3241 
Q 2772 3088 2869 2813 
Q 3263 3394 3894 3394 
Q 4388 3394 4653 3120 
Q 4919 2847 4919 2278 
L 4919 0 
L 4359 0 
L 4359 2091 
Q 4359 2428 4304 2576 
Q 4250 2725 4106 2815 
Q 3963 2906 3769 2906 
Q 3419 2906 3187 2673 
Q 2956 2441 2956 1928 
L 2956 0 
L 2394 0 
L 2394 2156 
Q 2394 2531 2256 2718 
Q 2119 2906 1806 2906 
Q 1569 2906 1367 2781 
Q 1166 2656 1075 2415 
Q 984 2175 984 1722 
L 984 0 
L 422 0 
z
" transform="scale(0.015625)"/>
       <path id="ArialMT-65" d="M 2694 1069 
L 3275 997 
Q 3138 488 2766 206 
Q 2394 -75 1816 -75 
Q 1088 -75 661 373 
Q 234 822 234 1631 
Q 234 2469 665 2931 
Q 1097 3394 1784 3394 
Q 2450 3394 2872 2941 
Q 3294 2488 3294 1666 
Q 3294 1616 3291 1516 
L 816 1516 
Q 847 969 1125 678 
Q 1403 388 1819 388 
Q 2128 388 2347 550 
Q 2566 713 2694 1069 
z
M 847 1978 
L 2700 1978 
Q 2663 2397 2488 2606 
Q 2219 2931 1791 2931 
Q 1403 2931 1139 2672 
Q 875 2413 847 1978 
z
" transform="scale(0.015625)"/>
       <path id="ArialMT-20" transform="scale(0.015625)"/>
       <path id="ArialMT-28" d="M 1497 -1347 
Q 1031 -759 709 28 
Q 388 816 388 1659 
Q 388 2403 628 3084 
Q 909 3875 1497 4659 
L 1900 4659 
Q 1522 4009 1400 3731 
Q 1209 3300 1100 2831 
Q 966 2247 966 1656 
Q 966 153 1900 -1347 
L 1497 -1347 
z
" transform="scale(0.015625)"/>
       <path id="ArialMT-64" d="M 2575 0 
L 2575 419 
Q 2259 -75 1647 -75 
Q 1250 -75 917 144 
Q 584 363 401 755 
Q 219 1147 219 1656 
Q 219 2153 384 2558 
Q 550 2963 881 3178 
Q 1213 3394 1622 3394 
Q 1922 3394 2156 3267 
Q 2391 3141 2538 2938 
L 2538 4581 
L 3097 4581 
L 3097 0 
L 2575 0 
z
M 797 1656 
Q 797 1019 1065 703 
Q 1334 388 1700 388 
Q 2069 388 2326 689 
Q 2584 991 2584 1609 
Q 2584 2291 2321 2609 
Q 2059 2928 1675 2928 
Q 1300 2928 1048 2622 
Q 797 2316 797 1656 
z
" transform="scale(0.015625)"/>
       <path id="ArialMT-29" d="M 791 -1347 
L 388 -1347 
Q 1322 153 1322 1656 
Q 1322 2244 1188 2822 
Q 1081 3291 891 3722 
Q 769 4003 388 4659 
L 791 4659 
Q 1378 3875 1659 3084 
Q 1900 2403 1900 1659 
Q 1900 816 1576 28 
Q 1253 -759 791 -1347 
z
" transform="scale(0.015625)"/>
      </defs>
      <use xlink:href="#ArialMT-74"/>
      <use xlink:href="#ArialMT-69" x="27.783203"/>
      <use xlink:href="#ArialMT-6d" x="50"/>
      <use xlink:href="#ArialMT-65" x="133.300781"/>
      <use xlink:href="#ArialMT-20" x="188.916016"/>
      <use xlink:href="#ArialMT-28" x="216.699219"/>
      <use xlink:href="#ArialMT-64" x="250"/>
      <use xlink:href="#ArialMT-29" x="305.615234"/>
     </g>
    </g>
   </g>
   <g id="matplotlib.axis_2">
    <g id="ytick_1">
     <g id="line2d_4">
      <defs>
       <path id="mb1acbc07b5" d="M 0 0 
L -4 0 
" style="stroke: #262626; stroke-width: 0.8"/>
      </defs>
      <g>
       <use xlink:href="#mb1acbc07b5" x="45.912492" y="92.67875" style="fill: #262626; stroke: #262626; stroke-width: 0.8"/>
      </g>
     </g>
     <g id="text_5">
      <!-- $\mathdefault{10^{0}}$ -->
      <g style="fill: #262626" transform="translate(27.352492 96.80375)scale(0.08 -0.08)">
       <defs>
        <path id="ArialMT-31" d="M 2384 0 
L 1822 0 
L 1822 3584 
Q 1619 3391 1289 3197 
Q 959 3003 697 2906 
L 697 3450 
Q 1169 3672 1522 3987 
Q 1875 4303 2022 4600 
L 2384 4600 
L 2384 0 
z
" transform="scale(0.015625)"/>
       </defs>
       <use xlink:href="#ArialMT-31" transform="translate(0 0.99375)"/>
       <use xlink:href="#ArialMT-30" transform="translate(55.615234 0.99375)"/>
       <use xlink:href="#ArialMT-30" transform="translate(112.972813 70.6875)scale(0.7)"/>
      </g>
     </g>
    </g>
    <g id="ytick_2">
     <g id="line2d_5">
      <g>
       <use xlink:href="#mb1acbc07b5" x="45.912492" y="69.77225" style="fill: #262626; stroke: #262626; stroke-width: 0.8"/>
      </g>
     </g>
     <g id="text_6">
      <!-- $\mathdefault{10^{6}}$ -->
      <g style="fill: #262626" transform="translate(27.352492 73.89725)scale(0.08 -0.08)">
       <use xlink:href="#ArialMT-31" transform="translate(0 0.99375)"/>
       <use xlink:href="#ArialMT-30" transform="translate(55.615234 0.99375)"/>
       <use xlink:href="#ArialMT-36" transform="translate(112.972813 70.6875)scale(0.7)"/>
      </g>
     </g>
    </g>
    <g id="ytick_3">
     <g id="line2d_6">
      <g>
       <use xlink:href="#mb1acbc07b5" x="45.912492" y="46.86575" style="fill: #262626; stroke: #262626; stroke-width: 0.8"/>
      </g>
     </g>
     <g id="text_7">
      <!-- $\mathdefault{10^{12}}$ -->
      <g style="fill: #262626" transform="translate(24.232492 50.99075)scale(0.08 -0.08)">
       <defs>
        <path id="ArialMT-32" d="M 3222 541 
L 3222 0 
L 194 0 
Q 188 203 259 391 
Q 375 700 629 1000 
Q 884 1300 1366 1694 
Q 2113 2306 2375 2664 
Q 2638 3022 2638 3341 
Q 2638 3675 2398 3904 
Q 2159 4134 1775 4134 
Q 1369 4134 1125 3890 
Q 881 3647 878 3216 
L 300 3275 
Q 359 3922 746 4261 
Q 1134 4600 1788 4600 
Q 2447 4600 2831 4234 
Q 3216 3869 3216 3328 
Q 3216 3053 3103 2787 
Q 2991 2522 2730 2228 
Q 2469 1934 1863 1422 
Q 1356 997 1212 845 
Q 1069 694 975 541 
L 3222 541 
z
" transform="scale(0.015625)"/>
       </defs>
       <use xlink:href="#ArialMT-31" transform="translate(0 0.99375)"/>
       <use xlink:href="#ArialMT-30" transform="translate(55.615234 0.99375)"/>
       <use xlink:href="#ArialMT-31" transform="translate(112.972813 70.6875)scale(0.7)"/>
       <use xlink:href="#ArialMT-32" transform="translate(151.903477 70.6875)scale(0.7)"/>
      </g>
     </g>
    </g>
    <g id="ytick_4">
     <g id="line2d_7">
      <g>
       <use xlink:href="#mb1acbc07b5" x="45.912492" y="23.95925" style="fill: #262626; stroke: #262626; stroke-width: 0.8"/>
      </g>
     </g>
     <g id="text_8">
      <!-- $\mathdefault{10^{18}}$ -->
      <g style="fill: #262626" transform="translate(24.232492 28.08425)scale(0.08 -0.08)">
       <defs>
        <path id="ArialMT-38" d="M 1131 2484 
Q 781 2613 612 2850 
Q 444 3088 444 3419 
Q 444 3919 803 4259 
Q 1163 4600 1759 4600 
Q 2359 4600 2725 4251 
Q 3091 3903 3091 3403 
Q 3091 3084 2923 2848 
Q 2756 2613 2416 2484 
Q 2838 2347 3058 2040 
Q 3278 1734 3278 1309 
Q 3278 722 2862 322 
Q 2447 -78 1769 -78 
Q 1091 -78 675 323 
Q 259 725 259 1325 
Q 259 1772 486 2073 
Q 713 2375 1131 2484 
z
M 1019 3438 
Q 1019 3113 1228 2906 
Q 1438 2700 1772 2700 
Q 2097 2700 2305 2904 
Q 2513 3109 2513 3406 
Q 2513 3716 2298 3927 
Q 2084 4138 1766 4138 
Q 1444 4138 1231 3931 
Q 1019 3725 1019 3438 
z
M 838 1322 
Q 838 1081 952 856 
Q 1066 631 1291 507 
Q 1516 384 1775 384 
Q 2178 384 2440 643 
Q 2703 903 2703 1303 
Q 2703 1709 2433 1975 
Q 2163 2241 1756 2241 
Q 1359 2241 1098 1978 
Q 838 1716 838 1322 
z
" transform="scale(0.015625)"/>
       </defs>
       <use xlink:href="#ArialMT-31" transform="translate(0 0.99375)"/>
       <use xlink:href="#ArialMT-30" transform="translate(55.615234 0.99375)"/>
       <use xlink:href="#ArialMT-31" transform="translate(112.972813 70.6875)scale(0.7)"/>
       <use xlink:href="#ArialMT-38" transform="translate(151.903477 70.6875)scale(0.7)"/>
      </g>
     </g>
    </g>
    <g id="text_9">
     <!-- cells -->
     <g style="fill: #262626" transform="translate(18.443742 63.503359)rotate(-90)scale(0.09 -0.09)">
      <defs>
       <path id="ArialMT-63" d="M 2588 1216 
L 3141 1144 
Q 3050 572 2676 248 
Q 2303 -75 1759 -75 
Q 1078 -75 664 370 
Q 250 816 250 1647 
Q 250 2184 428 2587 
Q 606 2991 970 3192 
Q 1334 3394 1763 3394 
Q 2303 3394 2647 3120 
Q 2991 2847 3088 2344 
L 2541 2259 
Q 2463 2594 2264 2762 
Q 2066 2931 1784 2931 
Q 1359 2931 1093 2626 
Q 828 2322 828 1663 
Q 828 994 1084 691 
Q 1341 388 1753 388 
Q 2084 388 2306 591 
Q 2528 794 2588 1216 
z
" transform="scale(0.015625)"/>
       <path id="ArialMT-6c" d="M 409 0 
L 409 4581 
L 972 4581 
L 972 0 
L 409 0 
z
" transform="scale(0.015625)"/>
       <path id="ArialMT-73" d="M 197 991 
L 753 1078 
Q 800 744 1014 566 
Q 1228 388 1613 388 
Q 2000 388 2187 545 
Q 2375 703 2375 916 
Q 2375 1106 2209 1216 
Q 2094 1291 1634 1406 
Q 1016 1563 777 1677 
Q 538 1791 414 1992 
Q 291 2194 291 2438 
Q 291 2659 392 2848 
Q 494 3038 669 3163 
Q 800 3259 1026 3326 
Q 1253 3394 1513 3394 
Q 1903 3394 2198 3281 
Q 2494 3169 2634 2976 
Q 2775 2784 2828 2463 
L 2278 2388 
Q 2241 2644 2061 2787 
Q 1881 2931 1553 2931 
Q 1166 2931 1000 2803 
Q 834 2675 834 2503 
Q 834 2394 903 2306 
Q 972 2216 1119 2156 
Q 1203 2125 1616 2013 
Q 2213 1853 2448 1751 
Q 2684 1650 2818 1456 
Q 2953 1263 2953 975 
Q 2953 694 2789 445 
Q 2625 197 2315 61 
Q 2006 -75 1616 -75 
Q 969 -75 630 194 
Q 291 463 197 991 
z
" transform="scale(0.015625)"/>
      </defs>
      <use xlink:href="#ArialMT-63"/>
      <use xlink:href="#ArialMT-65" x="50"/>
      <use xlink:href="#ArialMT-6c" x="105.615234"/>
      <use xlink:href="#ArialMT-6c" x="127.832031"/>
      <use xlink:href="#ArialMT-73" x="150.048828"/>
     </g>
    </g>
   </g>
   <g id="PolyCollection_1">
    <path d="M 45.912492 3910.42875 
L 45.912492 3910.42875 
L 46.050622 101.803724 
L 46.188751 97.477597 
L 46.32688 95.05378 
L 46.465009 93.392579 
L 46.603138 92.130538 
L 46.741267 91.113166 
L 46.879397 90.264148 
L 47.017526 89.538722 
L 47.155655 88.907105 
L 47.293784 88.348143 
L 47.431913 87.846277 
L 47.570043 87.389776 
L 47.708172 86.96962 
L 47.846301 86.578759 
L 47.98443 86.211605 
L 48.122559 85.863682 
L 48.260688 85.531371 
L 48.398818 85.211732 
L 48.536947 84.902364 
L 48.675076 84.601305 
L 48.813205 84.306949 
L 48.951334 84.017984 
L 49.089463 83.733339 
L 49.227593 83.452144 
L 49.365722 83.173694 
L 49.503851 82.897418 
L 49.64198 82.62286 
L 49.780109 82.349653 
L 49.918239 82.077507 
L 50.056368 81.806193 
L 50.194497 81.535529 
L 50.332626 81.265377 
L 50.470755 80.995628 
L 50.608884 80.726201 
L 50.747014 80.457038 
L 50.885143 80.188098 
L 51.023272 79.919359 
L 51.161401 79.650812 
L 51.29953 79.382472 
L 51.43766 79.114377 
L 51.575789 78.846604 
L 51.713918 78.579301 
L 51.852047 78.312759 
L 51.990176 78.047597 
L 52.128305 77.785317 
L 52.266435 77.530273 
L 52.404564 77.297907 
L 52.542693 77.141686 
L 52.680822 77.116902 
L 52.818951 77.149434 
L 52.957081 77.188732 
L 53.09521 77.228478 
L 53.233339 77.268256 
L 53.371468 77.308038 
L 53.509597 77.347822 
L 53.647726 77.387606 
L 53.785856 77.427392 
L 53.923985 77.467178 
L 54.062114 77.506965 
L 54.200243 77.546753 
L 54.338372 77.586541 
L 54.476501 77.62633 
L 54.614631 77.66612 
L 54.75276 77.705909 
L 54.890889 77.745699 
L 55.029018 77.78549 
L 55.167147 77.82528 
L 55.305277 77.865071 
L 55.443406 77.904862 
L 55.581535 77.944654 
L 55.719664 77.984445 
L 55.857793 78.024237 
L 55.995922 78.064029 
L 56.134052 78.103821 
L 56.272181 78.143613 
L 56.41031 78.183405 
L 56.548439 78.223197 
L 56.686568 78.262989 
L 56.824698 78.302781 
L 56.962827 78.342574 
L 57.100956 78.382366 
L 57.239085 78.422158 
L 57.377214 78.461951 
L 57.515343 78.501743 
L 57.653473 78.541536 
L 57.791602 78.581328 
L 57.929731 78.621121 
L 58.06786 78.660913 
L 58.205989 78.700706 
L 58.344119 78.740498 
L 58.482248 78.780291 
L 58.620377 78.820084 
L 58.758506 78.859876 
L 58.896635 78.899669 
L 59.034764 78.939461 
L 59.172894 78.979254 
L 59.311023 79.019047 
L 59.449152 79.058839 
L 59.587281 79.098632 
L 59.72541 79.138425 
L 59.863539 79.178217 
L 60.001669 79.21801 
L 60.139798 79.257803 
L 60.277927 79.297595 
L 60.416056 79.337388 
L 60.554185 79.377181 
L 60.692315 79.416973 
L 60.830444 79.456766 
L 60.968573 79.496559 
L 61.106702 79.536351 
L 61.244831 79.576144 
L 61.38296 79.615937 
L 61.52109 79.655729 
L 61.659219 79.695522 
L 61.797348 79.735315 
L 61.935477 79.775107 
L 62.073606 79.8149 
L 62.211736 79.854693 
L 62.349865 79.894485 
L 62.487994 79.934278 
L 62.626123 79.97407 
L 62.764252 80.013863 
L 62.902381 80.053656 
L 63.040511 80.093448 
L 63.17864 80.133241 
L 63.316769 80.173034 
L 63.454898 80.212826 
L 63.593027 80.252619 
L 63.731157 80.292412 
L 63.869286 80.332204 
L 64.007415 80.371997 
L 64.145544 80.41179 
L 64.283673 80.451582 
L 64.421802 80.491375 
L 64.559932 80.531168 
L 64.698061 80.57096 
L 64.83619 80.610753 
L 64.974319 80.650546 
L 65.112448 80.690338 
L 65.250577 80.730131 
L 65.388707 80.769924 
L 65.526836 80.809716 
L 65.664965 80.849509 
L 65.803094 80.889302 
L 65.941223 80.929094 
L 66.079353 80.968887 
L 66.217482 81.00868 
L 66.355611 81.048472 
L 66.49374 81.088265 
L 66.631869 81.128058 
L 66.769998 81.16785 
L 66.908128 81.207643 
L 67.046257 81.247436 
L 67.184386 81.287228 
L 67.322515 81.327021 
L 67.460644 81.366814 
L 67.598774 81.406606 
L 67.736903 81.446399 
L 67.875032 81.486192 
L 68.013161 81.525984 
L 68.15129 81.559209 
L 68.289419 81.514746 
L 68.427549 81.371737 
L 68.565678 81.174408 
L 68.703807 80.950541 
L 68.841936 80.712832 
L 68.980065 80.467329 
L 69.118194 80.217198 
L 69.256324 79.964271 
L 69.394453 79.709735 
L 69.532582 79.454471 
L 69.670711 79.199261 
L 69.80884 78.944961 
L 69.94697 78.692723 
L 70.085099 78.444386 
L 70.223228 78.203293 
L 70.361357 77.97612 
L 70.499486 77.776613 
L 70.637615 77.629285 
L 70.775745 77.557242 
L 70.913874 77.550128 
L 71.052003 77.574727 
L 71.190132 77.609922 
L 71.328261 77.648229 
L 71.466391 77.687481 
L 71.60452 77.727052 
L 71.742649 77.766744 
L 71.880778 77.806489 
L 72.018907 77.846257 
L 72.157036 77.886036 
L 72.295166 77.925822 
L 72.433295 77.965611 
L 72.571424 78.005401 
L 72.709553 78.045193 
L 72.847682 78.084985 
L 72.985812 78.124777 
L 73.123941 78.16457 
L 73.26207 78.204362 
L 73.400199 78.244155 
L 73.538328 78.283948 
L 73.676457 78.32374 
L 73.814587 78.363533 
L 73.952716 78.403325 
L 74.090845 78.443118 
L 74.228974 78.482911 
L 74.367103 78.522703 
L 74.505232 78.562496 
L 74.643362 78.602289 
L 74.781491 78.642081 
L 74.91962 78.681874 
L 75.057749 78.721667 
L 75.195878 78.761459 
L 75.334008 78.801252 
L 75.472137 78.841045 
L 75.610266 78.880837 
L 75.748395 78.924609 
L 75.886524 78.778224 
L 76.024653 78.515166 
L 76.162783 78.247375 
L 76.300912 77.97874 
L 76.439041 77.709831 
L 76.57717 77.440804 
L 76.715299 77.171719 
L 76.853429 76.902605 
L 76.991558 76.633477 
L 77.129687 76.364348 
L 77.267816 76.095231 
L 77.405945 75.826148 
L 77.544074 75.557146 
L 77.682204 75.288373 
L 77.820333 75.02057 
L 77.958462 74.76311 
L 78.096591 74.650584 
L 78.23472 74.674398 
L 78.37285 74.708908 
L 78.510979 74.746107 
L 78.649108 74.784579 
L 78.787237 74.82369 
L 78.925366 74.863126 
L 79.063495 74.90273 
L 79.201625 74.942422 
L 79.339754 74.982161 
L 79.477883 75.021925 
L 79.616012 75.061702 
L 79.754141 75.101486 
L 79.89227 75.141274 
L 80.0304 75.181064 
L 80.168529 75.220855 
L 80.306658 75.260647 
L 80.444787 75.30044 
L 80.582916 75.340232 
L 80.721046 75.380024 
L 80.859175 75.419817 
L 80.997304 75.45961 
L 81.135433 75.499402 
L 81.273562 75.539195 
L 81.411691 75.578988 
L 81.549821 75.61878 
L 81.68795 75.658573 
L 81.826079 75.437676 
L 81.964208 75.168443 
L 82.102337 74.89919 
L 82.240467 74.629935 
L 82.378596 74.360679 
L 82.516725 74.091422 
L 82.654854 73.79524 
L 82.792983 73.525983 
L 82.931112 73.256725 
L 83.069242 72.987468 
L 83.207371 72.718211 
L 83.3455 72.422028 
L 83.483629 72.152771 
L 83.621758 71.883514 
L 83.759888 71.614256 
L 83.898017 71.344999 
L 84.036146 71.075742 
L 84.174275 70.806485 
L 84.312404 70.537227 
L 84.450533 70.26797 
L 84.588663 69.998713 
L 84.726792 69.729456 
L 84.864921 69.460198 
L 85.00305 69.190941 
L 85.141179 68.921684 
L 85.279308 68.652426 
L 85.417438 68.383169 
L 85.555567 68.113912 
L 85.693696 67.844655 
L 85.831825 67.729629 
L 85.969954 67.761988 
L 86.108084 67.79806 
L 86.246213 67.835962 
L 86.384342 67.87478 
L 86.522471 67.914065 
L 86.6606 67.953591 
L 86.798729 67.993242 
L 86.936859 68.032959 
L 87.074988 68.072711 
L 87.213117 68.112481 
L 87.351246 68.152262 
L 87.489375 68.192049 
L 87.627505 68.231838 
L 87.765634 68.271628 
L 87.903763 68.31142 
L 88.041892 68.351212 
L 88.180021 68.391005 
L 88.31815 68.430797 
L 88.45628 68.47059 
L 88.594409 68.510382 
L 88.732538 68.550175 
L 88.870667 68.589968 
L 89.008796 68.62976 
L 89.146926 68.669553 
L 89.285055 68.709346 
L 89.423184 68.749138 
L 89.561313 68.788931 
L 89.699442 68.828724 
L 89.837571 68.868516 
L 89.975701 68.908309 
L 90.11383 68.948102 
L 90.251959 68.987894 
L 90.390088 69.027687 
L 90.528217 69.06748 
L 90.666346 69.107272 
L 90.804476 69.147065 
L 90.942605 69.186858 
L 91.080734 69.22665 
L 91.218863 69.266443 
L 91.356992 69.306236 
L 91.495122 69.346028 
L 91.633251 69.385821 
L 91.77138 69.425614 
L 91.909509 69.465406 
L 92.047638 69.505199 
L 92.185767 69.544992 
L 92.323897 69.584784 
L 92.462026 69.624577 
L 92.600155 69.66437 
L 92.738284 69.704162 
L 92.876413 69.743955 
L 93.014543 69.783748 
L 93.152672 69.82354 
L 93.290801 69.863333 
L 93.42893 69.903126 
L 93.567059 69.942918 
L 93.705188 69.982711 
L 93.843318 70.022504 
L 93.981447 70.062296 
L 94.119576 70.102089 
L 94.257705 70.141882 
L 94.395834 70.181674 
L 94.533964 70.221467 
L 94.672093 70.26126 
L 94.810222 70.301052 
L 94.948351 70.340845 
L 95.08648 70.380638 
L 95.224609 70.42043 
L 95.362739 70.460223 
L 95.500868 70.500015 
L 95.638997 70.539808 
L 95.777126 70.579601 
L 95.915255 70.619393 
L 96.053384 70.659186 
L 96.191514 70.698979 
L 96.329643 70.738771 
L 96.467772 70.778564 
L 96.605901 70.818357 
L 96.74403 70.858149 
L 96.88216 70.897942 
L 97.020289 70.937735 
L 97.158418 70.977527 
L 97.296547 71.01732 
L 97.434676 71.057113 
L 97.572805 71.096905 
L 97.710935 71.136698 
L 97.849064 71.176491 
L 97.987193 71.216283 
L 98.125322 71.256076 
L 98.263451 71.295869 
L 98.401581 71.335661 
L 98.53971 71.375454 
L 98.677839 71.415247 
L 98.815968 71.455039 
L 98.954097 71.494832 
L 99.092226 71.534625 
L 99.230356 71.574417 
L 99.368485 71.61421 
L 99.506614 71.654003 
L 99.644743 71.693795 
L 99.782872 71.733588 
L 99.921002 71.773381 
L 100.059131 71.813173 
L 100.19726 71.852966 
L 100.335389 71.892759 
L 100.473518 71.932551 
L 100.611647 71.972344 
L 100.749777 72.012137 
L 100.887906 72.051929 
L 101.026035 72.091722 
L 101.164164 72.131515 
L 101.302293 72.171307 
L 101.440422 72.2111 
L 101.578552 72.250893 
L 101.716681 72.290685 
L 101.85481 72.330478 
L 101.992939 72.370271 
L 102.131068 72.410063 
L 102.269198 72.390537 
L 102.407327 72.121282 
L 102.545456 71.852024 
L 102.683585 71.582767 
L 102.821714 71.31351 
L 102.959843 71.044253 
L 103.097973 70.774996 
L 103.236102 70.505738 
L 103.374231 70.236481 
L 103.51236 69.967224 
L 103.650489 69.697967 
L 103.788619 69.428709 
L 103.926748 69.159452 
L 104.064877 68.890195 
L 104.203006 68.620938 
L 104.341135 68.400547 
L 104.479264 68.409646 
L 104.617394 68.434408 
L 104.755523 68.466786 
L 104.893652 68.502867 
L 105.031781 68.233799 
L 105.16991 67.964542 
L 105.30804 67.695285 
L 105.446169 67.426028 
L 105.584298 67.15677 
L 105.722427 66.887513 
L 105.860556 66.618256 
L 105.998685 66.348999 
L 106.136815 66.079741 
L 106.274944 65.810484 
L 106.413073 65.541227 
L 106.551202 65.27197 
L 106.689331 65.002712 
L 106.82746 64.733455 
L 106.96559 64.464198 
L 107.103719 64.437055 
L 107.241848 64.28237 
L 107.379977 64.013113 
L 107.518106 63.743855 
L 107.656236 63.474598 
L 107.794365 63.205341 
L 107.932494 62.936084 
L 108.070623 62.666826 
L 108.208752 62.397569 
L 108.346881 62.128312 
L 108.485011 61.859055 
L 108.62314 61.589797 
L 108.761269 61.32054 
L 108.899398 61.051283 
L 109.037527 60.782026 
L 109.175657 60.512768 
L 109.313786 60.341832 
L 109.451915 60.355373 
L 109.590044 60.382299 
L 109.728173 60.415723 
L 109.866302 60.452317 
L 110.004432 60.490479 
L 110.142561 60.529429 
L 110.28069 60.568781 
L 110.418819 60.608342 
L 110.556948 60.648011 
L 110.695077 60.687738 
L 110.833207 60.727495 
L 110.971336 60.767269 
L 111.109465 60.807051 
L 111.247594 60.846838 
L 111.385723 60.886628 
L 111.523853 60.926419 
L 111.661982 60.96621 
L 111.800111 61.006003 
L 111.93824 61.045795 
L 112.076369 61.085588 
L 112.214498 61.12538 
L 112.352628 61.165173 
L 112.490757 61.204965 
L 112.628886 60.935711 
L 112.767015 60.666454 
L 112.905144 60.397196 
L 113.043274 60.127939 
L 113.181403 59.858682 
L 113.319532 59.589425 
L 113.457661 59.320167 
L 113.59579 59.05091 
L 113.733919 58.781653 
L 113.872049 58.512396 
L 114.010178 58.243138 
L 114.148307 57.973881 
L 114.286436 57.704624 
L 114.424565 57.435367 
L 114.562695 57.181346 
L 114.700824 57.185904 
L 114.838953 57.208425 
L 114.977082 57.239713 
L 115.115211 57.275261 
L 115.25334 57.312902 
L 115.39147 57.351589 
L 115.529599 57.390806 
L 115.667728 57.430297 
L 115.805857 57.469929 
L 115.943986 57.509637 
L 116.082115 57.549383 
L 116.220245 57.589152 
L 116.358374 57.628931 
L 116.496503 57.668716 
L 116.634632 57.708505 
L 116.772761 57.748296 
L 116.910891 57.788087 
L 117.04902 57.827879 
L 117.187149 57.867671 
L 117.325278 57.907464 
L 117.463407 57.947257 
L 117.601536 57.987049 
L 117.739666 58.026842 
L 117.877795 58.066634 
L 118.015924 58.106427 
L 118.154053 58.14622 
L 118.292182 58.186012 
L 118.430312 58.225805 
L 118.568441 58.265598 
L 118.70657 58.30539 
L 118.844699 58.345183 
L 118.982828 58.384976 
L 119.120957 58.424768 
L 119.259087 58.464561 
L 119.397216 58.504354 
L 119.535345 58.544146 
L 119.673474 58.583939 
L 119.811603 58.623732 
L 119.949733 58.663524 
L 120.087862 58.703317 
L 120.225991 58.74311 
L 120.36412 58.782902 
L 120.502249 58.822695 
L 120.640378 58.862488 
L 120.778508 58.90228 
L 120.916637 58.942073 
L 121.054766 58.981866 
L 121.192895 59.021658 
L 121.331024 59.061451 
L 121.469153 59.101244 
L 121.607283 59.141036 
L 121.745412 59.180829 
L 121.883541 59.220622 
L 122.02167 59.260414 
L 122.159799 59.300207 
L 122.297929 59.34 
L 122.436058 59.379792 
L 122.574187 59.419585 
L 122.712316 59.459378 
L 122.850445 59.49917 
L 122.988574 59.538963 
L 123.126704 59.578756 
L 123.264833 59.618548 
L 123.402962 59.658341 
L 123.541091 59.636325 
L 123.67922 59.367068 
L 123.81735 59.09781 
L 123.955479 58.828553 
L 124.093608 58.559296 
L 124.231737 58.290039 
L 124.369866 58.020781 
L 124.507995 57.751524 
L 124.646125 57.482267 
L 124.784254 57.21301 
L 124.922383 56.943752 
L 125.060512 56.674495 
L 125.198641 56.405238 
L 125.336771 56.135981 
L 125.4749 55.866723 
L 125.613029 55.597466 
L 125.751158 55.328209 
L 125.889287 55.058952 
L 126.027416 54.789694 
L 126.165546 54.520437 
L 126.303675 54.25118 
L 126.441804 53.981923 
L 126.579933 53.712665 
L 126.718062 53.443408 
L 126.856191 53.174151 
L 126.994321 52.904893 
L 127.13245 52.635636 
L 127.270579 52.366379 
L 127.408708 52.097122 
L 127.546837 51.827864 
L 127.684967 51.558607 
L 127.823096 51.28935 
L 127.961225 51.020093 
L 128.099354 50.750835 
L 128.237483 50.481578 
L 128.375612 50.212321 
L 128.513742 49.943064 
L 128.651871 49.809469 
L 128.651871 100.112797 
L 128.651871 100.112797 
L 128.513742 100.075529 
L 128.375612 100.038261 
L 128.237483 100.000994 
L 128.099354 99.963726 
L 127.961225 99.926458 
L 127.823096 99.889191 
L 127.684967 99.851923 
L 127.546837 99.814655 
L 127.408708 99.777388 
L 127.270579 99.74012 
L 127.13245 99.702853 
L 126.994321 99.665585 
L 126.856191 99.628317 
L 126.718062 99.59105 
L 126.579933 99.553782 
L 126.441804 99.516515 
L 126.303675 99.479247 
L 126.165546 99.44198 
L 126.027416 99.404712 
L 125.889287 99.367445 
L 125.751158 99.330177 
L 125.613029 99.29291 
L 125.4749 99.255642 
L 125.336771 99.218375 
L 125.198641 99.181108 
L 125.060512 99.14384 
L 124.922383 99.106573 
L 124.784254 99.069306 
L 124.646125 99.032038 
L 124.507995 98.994771 
L 124.369866 98.957504 
L 124.231737 98.920237 
L 124.093608 98.882969 
L 123.955479 98.845702 
L 123.81735 98.808435 
L 123.67922 98.771167 
L 123.541091 98.7339 
L 123.402962 98.696633 
L 123.264833 98.659366 
L 123.126704 98.622099 
L 122.988574 98.584832 
L 122.850445 98.547564 
L 122.712316 98.510297 
L 122.574187 98.47303 
L 122.436058 98.435763 
L 122.297929 98.398496 
L 122.159799 98.361229 
L 122.02167 98.323962 
L 121.883541 98.286695 
L 121.745412 98.249428 
L 121.607283 98.212161 
L 121.469153 98.174895 
L 121.331024 98.137628 
L 121.192895 98.100361 
L 121.054766 98.063094 
L 120.916637 98.025827 
L 120.778508 97.98856 
L 120.640378 97.951293 
L 120.502249 97.914027 
L 120.36412 97.87676 
L 120.225991 97.839493 
L 120.087862 97.802226 
L 119.949733 97.76496 
L 119.811603 97.727693 
L 119.673474 97.690426 
L 119.535345 97.65316 
L 119.397216 97.615893 
L 119.259087 97.578627 
L 119.120957 97.54136 
L 118.982828 97.504094 
L 118.844699 97.466827 
L 118.70657 97.429561 
L 118.568441 97.392295 
L 118.430312 97.355028 
L 118.292182 97.317762 
L 118.154053 97.280496 
L 118.015924 97.24323 
L 117.877795 97.205963 
L 117.739666 97.168697 
L 117.601536 97.131432 
L 117.463407 97.094166 
L 117.325278 97.0569 
L 117.187149 97.019634 
L 117.04902 96.982368 
L 116.910891 96.945102 
L 116.772761 96.907836 
L 116.634632 96.87057 
L 116.496503 96.833304 
L 116.358374 96.796039 
L 116.220245 96.758773 
L 116.082115 96.721507 
L 115.943986 96.684242 
L 115.805857 96.646976 
L 115.667728 96.609711 
L 115.529599 96.572446 
L 115.39147 96.53518 
L 115.25334 96.497915 
L 115.115211 96.46065 
L 114.977082 96.423385 
L 114.838953 96.38612 
L 114.700824 96.348855 
L 114.562695 96.31159 
L 114.424565 96.274325 
L 114.286436 96.23706 
L 114.148307 96.199796 
L 114.010178 96.162531 
L 113.872049 96.125266 
L 113.733919 96.088002 
L 113.59579 96.050738 
L 113.457661 96.013473 
L 113.319532 95.976209 
L 113.181403 95.938945 
L 113.043274 95.901681 
L 112.905144 95.864417 
L 112.767015 95.827153 
L 112.628886 95.78989 
L 112.490757 95.752626 
L 112.352628 95.715362 
L 112.214498 95.678099 
L 112.076369 95.640836 
L 111.93824 95.603572 
L 111.800111 95.566309 
L 111.661982 95.529046 
L 111.523853 95.491783 
L 111.385723 95.454521 
L 111.247594 95.417258 
L 111.109465 95.379995 
L 110.971336 95.342733 
L 110.833207 95.305471 
L 110.695077 95.268208 
L 110.556948 95.230946 
L 110.418819 95.193685 
L 110.28069 95.156423 
L 110.142561 95.119161 
L 110.004432 95.0819 
L 109.866302 95.044638 
L 109.728173 95.007377 
L 109.590044 94.970116 
L 109.451915 94.932855 
L 109.313786 94.895595 
L 109.175657 94.858334 
L 109.037527 94.821074 
L 108.899398 94.783814 
L 108.761269 94.746554 
L 108.62314 94.709294 
L 108.485011 94.672034 
L 108.346881 94.634775 
L 108.208752 94.597515 
L 108.070623 94.560256 
L 107.932494 94.522998 
L 107.794365 94.485739 
L 107.656236 94.44848 
L 107.518106 94.411222 
L 107.379977 94.373964 
L 107.241848 94.336707 
L 107.103719 94.299449 
L 106.96559 94.262192 
L 106.82746 94.224935 
L 106.689331 94.187678 
L 106.551202 94.150421 
L 106.413073 94.113165 
L 106.274944 94.075909 
L 106.136815 94.038653 
L 105.998685 94.001398 
L 105.860556 93.964143 
L 105.722427 93.926888 
L 105.584298 93.889633 
L 105.446169 93.852379 
L 105.30804 93.815125 
L 105.16991 93.777872 
L 105.031781 93.740618 
L 104.893652 93.703365 
L 104.755523 93.666113 
L 104.617394 93.62886 
L 104.479264 93.591608 
L 104.341135 93.554357 
L 104.203006 93.517106 
L 104.064877 93.479855 
L 103.926748 93.442605 
L 103.788619 93.405355 
L 103.650489 93.368105 
L 103.51236 93.330856 
L 103.374231 93.293607 
L 103.236102 93.256359 
L 103.097973 93.219111 
L 102.959843 93.181864 
L 102.821714 93.144617 
L 102.683585 93.10737 
L 102.545456 93.070124 
L 102.407327 93.032879 
L 102.269198 92.995634 
L 102.131068 92.958389 
L 101.992939 92.921146 
L 101.85481 92.883902 
L 101.716681 92.84666 
L 101.578552 92.809417 
L 101.440422 92.772176 
L 101.302293 92.734935 
L 101.164164 92.697695 
L 101.026035 92.660455 
L 100.887906 92.623216 
L 100.749777 92.585977 
L 100.611647 92.54874 
L 100.473518 92.511503 
L 100.335389 92.474266 
L 100.19726 92.437031 
L 100.059131 92.399796 
L 99.921002 92.362562 
L 99.782872 92.325328 
L 99.644743 92.288096 
L 99.506614 92.250864 
L 99.368485 92.213633 
L 99.230356 92.176403 
L 99.092226 92.139174 
L 98.954097 92.101946 
L 98.815968 92.064718 
L 98.677839 92.027492 
L 98.53971 91.990266 
L 98.401581 91.953042 
L 98.263451 91.915818 
L 98.125322 91.878596 
L 97.987193 91.841374 
L 97.849064 91.804154 
L 97.710935 91.766934 
L 97.572805 91.729716 
L 97.434676 91.692499 
L 97.296547 91.655283 
L 97.158418 91.618068 
L 97.020289 91.580854 
L 96.88216 91.543642 
L 96.74403 91.50643 
L 96.605901 91.46922 
L 96.467772 91.432012 
L 96.329643 91.394804 
L 96.191514 91.357598 
L 96.053384 91.320392 
L 95.915255 91.283189 
L 95.777126 91.245986 
L 95.638997 91.208784 
L 95.500868 91.171583 
L 95.362739 91.134384 
L 95.224609 91.097185 
L 95.08648 91.059987 
L 94.948351 91.022789 
L 94.810222 90.985591 
L 94.672093 90.948393 
L 94.533964 90.911194 
L 94.395834 90.873995 
L 94.257705 90.836793 
L 94.119576 90.799588 
L 93.981447 90.762379 
L 93.843318 90.725164 
L 93.705188 90.687941 
L 93.567059 90.650709 
L 93.42893 90.613464 
L 93.290801 90.576203 
L 93.152672 90.538921 
L 93.014543 90.501613 
L 92.876413 90.464271 
L 92.738284 90.426888 
L 92.600155 90.389453 
L 92.462026 90.351953 
L 92.323897 90.314375 
L 92.185767 90.276699 
L 92.047638 90.238906 
L 91.909509 90.200972 
L 91.77138 90.16287 
L 91.633251 90.124572 
L 91.495122 90.086052 
L 91.356992 90.043523 
L 91.218863 90.004861 
L 91.080734 89.9662 
L 90.942605 89.92754 
L 90.804476 89.888882 
L 90.666346 89.850226 
L 90.528217 89.811571 
L 90.390088 89.772917 
L 90.251959 89.734265 
L 90.11383 89.695615 
L 89.975701 89.656967 
L 89.837571 89.61832 
L 89.699442 89.579675 
L 89.561313 89.541031 
L 89.423184 89.502389 
L 89.285055 89.463749 
L 89.146926 89.42511 
L 89.008796 89.386473 
L 88.870667 89.347837 
L 88.732538 89.309202 
L 88.594409 89.270568 
L 88.45628 89.231935 
L 88.31815 89.193301 
L 88.180021 89.154668 
L 88.041892 89.116034 
L 87.903763 89.077398 
L 87.765634 89.03876 
L 87.627505 89.000118 
L 87.489375 88.96147 
L 87.351246 88.922816 
L 87.213117 88.884151 
L 87.074988 88.845474 
L 86.936859 88.80678 
L 86.798729 88.768066 
L 86.6606 88.729325 
L 86.522471 88.690551 
L 86.384342 88.651735 
L 86.246213 88.612869 
L 86.108084 88.573942 
L 85.969954 88.534941 
L 85.831825 88.495854 
L 85.693696 88.456668 
L 85.555567 88.41737 
L 85.417438 88.377953 
L 85.279308 88.338417 
L 85.141179 88.29877 
L 85.00305 88.259037 
L 84.864921 88.219256 
L 84.726792 88.179464 
L 84.588663 88.139671 
L 84.450533 88.099878 
L 84.312404 88.060086 
L 84.174275 88.020293 
L 84.036146 87.9805 
L 83.898017 87.940708 
L 83.759888 87.900915 
L 83.621758 87.861122 
L 83.483629 87.82133 
L 83.3455 87.781537 
L 83.207371 87.741744 
L 83.069242 87.701952 
L 82.931112 87.662159 
L 82.792983 87.622366 
L 82.654854 87.582574 
L 82.516725 87.542781 
L 82.378596 87.502988 
L 82.240467 87.463196 
L 82.102337 87.423403 
L 81.964208 87.38361 
L 81.826079 87.343818 
L 81.68795 87.304025 
L 81.549821 87.264232 
L 81.411691 87.22444 
L 81.273562 87.184647 
L 81.135433 87.144854 
L 80.997304 87.105062 
L 80.859175 87.065269 
L 80.721046 87.025476 
L 80.582916 86.985684 
L 80.444787 86.945891 
L 80.306658 86.906098 
L 80.168529 86.866306 
L 80.0304 86.826513 
L 79.89227 86.78672 
L 79.754141 86.746928 
L 79.616012 86.707135 
L 79.477883 86.667342 
L 79.339754 86.62755 
L 79.201625 86.587757 
L 79.063495 86.547964 
L 78.925366 86.508172 
L 78.787237 86.468379 
L 78.649108 86.428586 
L 78.510979 86.388794 
L 78.37285 86.349001 
L 78.23472 86.309208 
L 78.096591 86.269416 
L 77.958462 86.229623 
L 77.820333 86.18983 
L 77.682204 86.150038 
L 77.544074 86.110245 
L 77.405945 86.070452 
L 77.267816 86.03066 
L 77.129687 85.990867 
L 76.991558 85.951074 
L 76.853429 85.911282 
L 76.715299 85.871489 
L 76.57717 85.831696 
L 76.439041 85.791904 
L 76.300912 85.752111 
L 76.162783 85.712318 
L 76.024653 85.672526 
L 75.886524 85.632733 
L 75.748395 85.59294 
L 75.610266 85.553148 
L 75.472137 85.513355 
L 75.334008 85.473562 
L 75.195878 85.43377 
L 75.057749 85.393977 
L 74.91962 85.354184 
L 74.781491 85.314392 
L 74.643362 85.274599 
L 74.505232 85.234806 
L 74.367103 85.195014 
L 74.228974 85.155221 
L 74.090845 85.115428 
L 73.952716 85.075636 
L 73.814587 85.035843 
L 73.676457 84.99605 
L 73.538328 84.956258 
L 73.400199 84.916465 
L 73.26207 84.876672 
L 73.123941 84.83688 
L 72.985812 84.797087 
L 72.847682 84.757294 
L 72.709553 84.717502 
L 72.571424 84.677709 
L 72.433295 84.637916 
L 72.295166 84.598124 
L 72.157036 84.558331 
L 72.018907 84.518538 
L 71.880778 84.478746 
L 71.742649 84.438953 
L 71.60452 84.39916 
L 71.466391 84.359368 
L 71.328261 84.319575 
L 71.190132 84.279782 
L 71.052003 84.23999 
L 70.913874 84.200197 
L 70.775745 84.160404 
L 70.637615 84.120612 
L 70.499486 84.080819 
L 70.361357 84.041026 
L 70.223228 84.001234 
L 70.085099 83.961441 
L 69.94697 83.921648 
L 69.80884 83.881856 
L 69.670711 83.842063 
L 69.532582 83.80227 
L 69.394453 83.762478 
L 69.256324 83.722685 
L 69.118194 83.682892 
L 68.980065 83.6431 
L 68.841936 83.603307 
L 68.703807 83.563514 
L 68.565678 83.523722 
L 68.427549 83.483929 
L 68.289419 83.444136 
L 68.15129 83.404344 
L 68.013161 83.364551 
L 67.875032 83.324758 
L 67.736903 83.284966 
L 67.598774 83.245173 
L 67.460644 83.20538 
L 67.322515 83.165588 
L 67.184386 83.125795 
L 67.046257 83.086002 
L 66.908128 83.04621 
L 66.769998 83.006417 
L 66.631869 82.966624 
L 66.49374 82.926832 
L 66.355611 82.887039 
L 66.217482 82.847246 
L 66.079353 82.807454 
L 65.941223 82.767661 
L 65.803094 82.727868 
L 65.664965 82.688076 
L 65.526836 82.648283 
L 65.388707 82.60849 
L 65.250577 82.568698 
L 65.112448 82.528905 
L 64.974319 82.489112 
L 64.83619 82.44932 
L 64.698061 82.409527 
L 64.559932 82.369734 
L 64.421802 82.329942 
L 64.283673 82.290149 
L 64.145544 82.250356 
L 64.007415 82.210564 
L 63.869286 82.170771 
L 63.731157 82.130978 
L 63.593027 82.091186 
L 63.454898 82.051393 
L 63.316769 82.0116 
L 63.17864 81.971808 
L 63.040511 81.932015 
L 62.902381 81.892222 
L 62.764252 81.85243 
L 62.626123 81.812637 
L 62.487994 81.772844 
L 62.349865 81.733052 
L 62.211736 81.693259 
L 62.073606 81.653466 
L 61.935477 81.613674 
L 61.797348 81.573881 
L 61.659219 81.534088 
L 61.52109 81.494296 
L 61.38296 81.454503 
L 61.244831 81.41471 
L 61.106702 81.374918 
L 60.968573 81.335125 
L 60.830444 81.295332 
L 60.692315 81.25554 
L 60.554185 81.215747 
L 60.416056 81.175954 
L 60.277927 81.136162 
L 60.139798 81.096369 
L 60.001669 81.056576 
L 59.863539 81.016784 
L 59.72541 80.976991 
L 59.587281 80.937198 
L 59.449152 80.897406 
L 59.311023 80.857613 
L 59.172894 80.817821 
L 59.034764 80.778028 
L 58.896635 80.738235 
L 58.758506 80.698443 
L 58.620377 80.65865 
L 58.482248 80.618857 
L 58.344119 80.579065 
L 58.205989 80.539272 
L 58.06786 80.49948 
L 57.929731 80.459687 
L 57.791602 80.419895 
L 57.653473 80.380102 
L 57.515343 80.34031 
L 57.377214 80.300517 
L 57.239085 80.260725 
L 57.100956 80.220932 
L 56.962827 80.18114 
L 56.824698 80.141348 
L 56.686568 80.101555 
L 56.548439 80.061763 
L 56.41031 80.021971 
L 56.272181 79.982179 
L 56.134052 79.942387 
L 55.995922 79.902595 
L 55.857793 79.862804 
L 55.719664 79.823012 
L 55.581535 79.783221 
L 55.443406 79.743431 
L 55.305277 79.703642 
L 55.167147 79.663855 
L 55.029018 79.624073 
L 54.890889 79.584299 
L 54.75276 79.544544 
L 54.614631 79.504828 
L 54.476501 79.465195 
L 54.338372 79.425743 
L 54.200243 79.386686 
L 54.062114 79.348483 
L 53.923985 79.312115 
L 53.785856 79.279588 
L 53.647726 79.254766 
L 53.509597 79.244311 
L 53.371468 79.257799 
L 53.233339 79.305402 
L 53.09521 79.393294 
L 52.957081 79.520624 
L 52.818951 79.681081 
L 52.680822 79.866695 
L 52.542693 80.070448 
L 52.404564 80.287056 
L 52.266435 80.5128 
L 52.128305 80.745119 
L 51.990176 80.98225 
L 51.852047 81.222964 
L 51.713918 81.466387 
L 51.575789 81.711891 
L 51.43766 81.959012 
L 51.29953 82.207407 
L 51.161401 82.456817 
L 51.023272 82.707048 
L 50.885143 82.957955 
L 50.747014 83.209435 
L 50.608884 83.461421 
L 50.470755 83.713877 
L 50.332626 83.966802 
L 50.194497 84.220228 
L 50.056368 84.474225 
L 49.918239 84.728906 
L 49.780109 84.984435 
L 49.64198 85.241033 
L 49.503851 85.498995 
L 49.365722 85.758696 
L 49.227593 86.020613 
L 49.089463 86.285337 
L 48.951334 86.553599 
L 48.813205 86.826285 
L 48.675076 87.104469 
L 48.536947 87.389432 
L 48.398818 87.682693 
L 48.260688 87.986035 
L 48.122559 88.30153 
L 47.98443 88.631561 
L 47.846301 88.978833 
L 47.708172 89.346416 
L 47.570043 89.737844 
L 47.431913 90.157477 
L 47.293784 90.611424 
L 47.155655 91.109397 
L 47.017526 91.66752 
L 46.879397 92.311392 
L 46.741267 93.079044 
L 46.603138 94.026103 
L 46.465009 95.240096 
L 46.32688 96.879968 
L 46.188751 99.29938 
L 46.050622 103.625247 
L 45.912492 3910.42875 
z
" clip-path="url(#p08c964a743)" style="fill: #8172b3; fill-opacity: 0.7"/>
   </g>
   <g id="PolyCollection_2">
    <path d="M 45.912492 3910.42875 
L 45.912492 3910.42875 
L 46.050622 101.703801 
L 46.188751 97.350061 
L 46.32688 94.888458 
L 46.465009 93.194324 
L 46.603138 91.915874 
L 46.741267 90.896651 
L 46.879397 90.053242 
L 47.017526 89.335832 
L 47.155655 88.71224 
L 47.293784 88.160438 
L 47.431913 87.664678 
L 47.570043 87.213303 
L 47.708172 86.797454 
L 47.846301 86.410255 
L 47.98443 86.046278 
L 48.122559 85.701189 
L 48.260688 85.371493 
L 48.398818 85.054359 
L 48.536947 84.747482 
L 48.675076 84.448983 
L 48.813205 84.157337 
L 48.951334 83.871303 
L 49.089463 83.58988 
L 49.227593 83.312267 
L 49.365722 83.037824 
L 49.503851 82.76605 
L 49.64198 82.49656 
L 49.780109 82.229062 
L 49.918239 81.963344 
L 50.056368 81.69926 
L 50.194497 81.436721 
L 50.332626 81.175686 
L 50.470755 80.916152 
L 50.608884 80.658156 
L 50.747014 80.401761 
L 50.885143 80.147061 
L 51.023272 79.894175 
L 51.161401 79.643247 
L 51.29953 79.394442 
L 51.43766 79.147947 
L 51.575789 78.90397 
L 51.713918 78.661988 
L 51.852047 78.42211 
L 51.990176 78.185293 
L 52.128305 77.951797 
L 52.266435 77.721897 
L 52.404564 77.495879 
L 52.542693 77.274039 
L 52.680822 77.056678 
L 52.818951 76.844101 
L 52.957081 76.636611 
L 53.09521 76.434502 
L 53.233339 76.238054 
L 53.371468 76.04753 
L 53.509597 75.863161 
L 53.647726 75.685144 
L 53.785856 75.513632 
L 53.923985 75.348723 
L 54.062114 75.190455 
L 54.200243 75.038796 
L 54.338372 74.893633 
L 54.476501 74.754771 
L 54.614631 74.621923 
L 54.75276 74.494706 
L 54.890889 74.372639 
L 55.029018 74.255143 
L 55.167147 74.13257 
L 55.305277 74.012105 
L 55.443406 73.892836 
L 55.581535 73.773796 
L 55.719664 73.653981 
L 55.857793 73.53238 
L 55.995922 73.408004 
L 56.134052 73.27992 
L 56.272181 73.147281 
L 56.41031 73.009361 
L 56.548439 72.86558 
L 56.686568 72.71553 
L 56.824698 72.558979 
L 56.962827 72.395887 
L 57.100956 72.226388 
L 57.239085 72.050784 
L 57.377214 71.869521 
L 57.515343 71.683161 
L 57.653473 71.492358 
L 57.791602 71.297827 
L 57.929731 71.100318 
L 58.06786 70.900594 
L 58.205989 70.69941 
L 58.344119 70.497494 
L 58.482248 70.295539 
L 58.620377 70.094189 
L 58.758506 69.894031 
L 58.896635 69.695592 
L 59.034764 69.499328 
L 59.172894 69.305627 
L 59.311023 69.114797 
L 59.449152 68.927073 
L 59.587281 68.742607 
L 59.72541 68.561474 
L 59.863539 68.383666 
L 60.001669 68.209104 
L 60.139798 68.037635 
L 60.277927 67.869044 
L 60.416056 67.703065 
L 60.554185 67.539397 
L 60.692315 67.377712 
L 60.830444 67.217685 
L 60.968573 67.059005 
L 61.106702 66.901397 
L 61.244831 66.744644 
L 61.38296 66.5886 
L 61.52109 66.433204 
L 61.659219 66.278486 
L 61.797348 66.124578 
L 61.935477 65.971704 
L 62.073606 65.820178 
L 62.211736 65.670392 
L 62.349865 65.522802 
L 62.487994 65.377913 
L 62.626123 65.236258 
L 62.764252 65.098386 
L 62.902381 64.964837 
L 63.040511 64.836135 
L 63.17864 64.712764 
L 63.316769 64.595167 
L 63.454898 64.483728 
L 63.593027 64.37877 
L 63.731157 64.280548 
L 63.869286 64.189247 
L 64.007415 64.104983 
L 64.145544 64.027804 
L 64.283673 63.957693 
L 64.421802 63.894576 
L 64.559932 63.838321 
L 64.698061 63.788751 
L 64.83619 63.745649 
L 64.974319 63.708763 
L 65.112448 63.677818 
L 65.250577 63.652516 
L 65.388707 63.632548 
L 65.526836 63.617598 
L 65.664965 63.607347 
L 65.803094 63.601478 
L 65.941223 63.599682 
L 66.079353 63.601655 
L 66.217482 63.607108 
L 66.355611 63.615762 
L 66.49374 63.627355 
L 66.631869 63.641639 
L 66.769998 63.65838 
L 66.908128 63.677362 
L 67.046257 63.698383 
L 67.184386 63.721257 
L 67.322515 63.745811 
L 67.460644 63.771888 
L 67.598774 63.799342 
L 67.736903 63.828041 
L 67.875032 63.857864 
L 68.013161 63.8887 
L 68.15129 63.920451 
L 68.289419 63.953025 
L 68.427549 63.98634 
L 68.565678 64.020321 
L 68.703807 64.054901 
L 68.841936 64.09002 
L 68.980065 64.125623 
L 69.118194 64.16166 
L 69.256324 64.198087 
L 69.394453 64.234863 
L 69.532582 64.271954 
L 69.670711 64.309326 
L 69.80884 64.34695 
L 69.94697 64.3848 
L 70.085099 64.422854 
L 70.223228 64.461089 
L 70.361357 64.499486 
L 70.499486 64.53803 
L 70.637615 64.576705 
L 70.775745 64.615496 
L 70.913874 64.654392 
L 71.052003 64.693383 
L 71.190132 64.732457 
L 71.328261 64.771607 
L 71.466391 64.810823 
L 71.60452 64.850093 
L 71.742649 64.889416 
L 71.880778 64.928786 
L 72.018907 64.968196 
L 72.157036 65.007643 
L 72.295166 65.047122 
L 72.433295 65.086628 
L 72.571424 65.126158 
L 72.709553 65.165707 
L 72.847682 65.205271 
L 72.985812 65.244849 
L 73.123941 65.284434 
L 73.26207 65.324025 
L 73.400199 65.363616 
L 73.538328 65.403204 
L 73.676457 65.442785 
L 73.814587 65.482352 
L 73.952716 65.5219 
L 74.090845 65.561423 
L 74.228974 65.600913 
L 74.367103 65.640362 
L 74.505232 65.679758 
L 74.643362 65.719091 
L 74.781491 65.758345 
L 74.91962 65.797503 
L 75.057749 65.836547 
L 75.195878 65.875452 
L 75.334008 65.914191 
L 75.472137 65.952732 
L 75.610266 65.991034 
L 75.748395 66.029054 
L 75.886524 66.066739 
L 76.024653 66.104025 
L 76.162783 66.14084 
L 76.300912 66.177102 
L 76.439041 66.212712 
L 76.57717 66.24756 
L 76.715299 66.281518 
L 76.853429 66.314442 
L 76.991558 66.346172 
L 77.129687 66.376527 
L 77.267816 66.405311 
L 77.405945 66.432309 
L 77.544074 66.457294 
L 77.682204 66.480026 
L 77.820333 66.500262 
L 77.958462 66.517757 
L 78.096591 66.532278 
L 78.23472 66.54361 
L 78.37285 66.551571 
L 78.510979 66.556021 
L 78.649108 66.556873 
L 78.787237 66.554109 
L 78.925366 66.547783 
L 79.063495 66.538031 
L 79.201625 66.525072 
L 79.339754 66.509205 
L 79.477883 66.490803 
L 79.616012 66.470303 
L 79.754141 66.448192 
L 79.89227 66.424988 
L 80.0304 66.401226 
L 80.168529 66.377437 
L 80.306658 66.354134 
L 80.444787 66.331798 
L 80.582916 66.310863 
L 80.721046 66.291712 
L 80.859175 66.274669 
L 80.997304 66.259997 
L 81.135433 66.2479 
L 81.273562 66.238522 
L 81.411691 66.231955 
L 81.549821 66.228241 
L 81.68795 66.22738 
L 81.826079 66.229335 
L 81.964208 66.234039 
L 82.102337 66.241402 
L 82.240467 66.251312 
L 82.378596 66.263648 
L 82.516725 66.278276 
L 82.654854 66.295059 
L 82.792983 66.313856 
L 82.931112 66.334527 
L 83.069242 66.356937 
L 83.207371 66.38095 
L 83.3455 66.406441 
L 83.483629 66.433287 
L 83.621758 66.461373 
L 83.759888 66.490591 
L 83.898017 66.520842 
L 84.036146 66.552031 
L 84.174275 66.584073 
L 84.312404 66.616887 
L 84.450533 66.6504 
L 84.588663 66.684546 
L 84.726792 66.719264 
L 84.864921 66.754497 
L 85.00305 66.790194 
L 85.141179 66.826311 
L 85.279308 66.862805 
L 85.417438 66.899637 
L 85.555567 66.936775 
L 85.693696 66.974187 
L 85.831825 67.011846 
L 85.969954 67.053524 
L 86.108084 67.091618 
L 86.246213 67.129888 
L 86.384342 67.168316 
L 86.522471 67.206885 
L 86.6606 67.24558 
L 86.798729 67.284389 
L 86.936859 67.323298 
L 87.074988 67.362298 
L 87.213117 67.401377 
L 87.351246 67.440529 
L 87.489375 67.479744 
L 87.627505 67.519015 
L 87.765634 67.558335 
L 87.903763 67.597698 
L 88.041892 67.637099 
L 88.180021 67.676531 
L 88.31815 67.715991 
L 88.45628 67.755471 
L 88.594409 67.794969 
L 88.732538 67.834478 
L 88.870667 67.873994 
L 89.008796 67.913511 
L 89.146926 67.953024 
L 89.285055 67.992527 
L 89.423184 68.032012 
L 89.561313 68.071472 
L 89.699442 68.110899 
L 89.837571 68.150282 
L 89.975701 68.189611 
L 90.11383 68.228873 
L 90.251959 68.268051 
L 90.390088 68.307129 
L 90.528217 68.346086 
L 90.666346 68.384881 
L 90.804476 68.423461 
L 90.942605 68.461807 
L 91.080734 68.49987 
L 91.218863 68.537591 
L 91.356992 68.574901 
L 91.495122 68.611717 
L 91.633251 68.647938 
L 91.77138 68.683448 
L 91.909509 68.718104 
L 92.047638 68.751738 
L 92.185767 68.784152 
L 92.323897 68.815111 
L 92.462026 68.844337 
L 92.600155 68.871508 
L 92.738284 68.896243 
L 92.876413 68.918104 
L 93.014543 68.936587 
L 93.152672 68.951114 
L 93.290801 68.961037 
L 93.42893 68.965631 
L 93.567059 68.964099 
L 93.705188 68.955582 
L 93.843318 68.939174 
L 93.981447 68.91394 
L 94.119576 68.87895 
L 94.257705 68.833311 
L 94.395834 68.77621 
L 94.533964 68.706959 
L 94.672093 68.625036 
L 94.810222 68.53012 
L 94.948351 68.422121 
L 95.08648 68.301192 
L 95.224609 68.167723 
L 95.362739 68.022329 
L 95.500868 67.865817 
L 95.638997 67.699149 
L 95.777126 67.5234 
L 95.915255 67.339717 
L 96.053384 67.14928 
L 96.191514 66.953271 
L 96.329643 66.752847 
L 96.467772 66.549123 
L 96.605901 66.343162 
L 96.74403 66.135968 
L 96.88216 65.928484 
L 97.020289 65.721594 
L 97.158418 65.516125 
L 97.296547 65.31285 
L 97.434676 65.112495 
L 97.572805 64.915741 
L 97.710935 64.723223 
L 97.849064 64.53554 
L 97.987193 64.353246 
L 98.125322 64.176858 
L 98.263451 64.006849 
L 98.401581 63.84365 
L 98.53971 63.687643 
L 98.677839 63.539162 
L 98.815968 63.398491 
L 98.954097 63.265855 
L 99.092226 63.141424 
L 99.230356 63.025311 
L 99.368485 62.917568 
L 99.506614 62.818189 
L 99.644743 62.727113 
L 99.782872 62.644225 
L 99.921002 62.569359 
L 100.059131 62.502305 
L 100.19726 62.442815 
L 100.335389 62.390604 
L 100.473518 62.345362 
L 100.611647 62.306758 
L 100.749777 62.274444 
L 100.887906 62.248063 
L 101.026035 62.227255 
L 101.164164 62.21166 
L 101.302293 62.200922 
L 101.440422 62.194693 
L 101.578552 62.192638 
L 101.716681 62.194434 
L 101.85481 62.199771 
L 101.992939 62.20836 
L 102.131068 62.219924 
L 102.269198 62.234207 
L 102.407327 62.250968 
L 102.545456 62.269985 
L 102.683585 62.291051 
L 102.821714 62.313976 
L 102.959843 62.338586 
L 103.097973 62.364719 
L 103.236102 62.39223 
L 103.374231 62.420985 
L 103.51236 62.450862 
L 103.650489 62.48175 
L 103.788619 62.513549 
L 103.926748 62.546169 
L 104.064877 62.579526 
L 104.203006 62.613547 
L 104.341135 62.648164 
L 104.479264 62.683316 
L 104.617394 62.71895 
L 104.755523 62.755015 
L 104.893652 62.791467 
L 105.031781 62.828267 
L 105.16991 62.865378 
L 105.30804 62.902769 
L 105.446169 62.940411 
L 105.584298 62.978277 
L 105.722427 63.016344 
L 105.860556 63.054592 
L 105.998685 63.093001 
L 106.136815 63.131556 
L 106.274944 63.170239 
L 106.413073 63.209039 
L 106.551202 63.247943 
L 106.689331 63.28694 
L 106.82746 63.32602 
L 106.96559 63.365175 
L 107.103719 63.404397 
L 107.241848 63.443679 
L 107.379977 63.483015 
L 107.518106 63.522398 
L 107.656236 63.561824 
L 107.794365 63.601289 
L 107.932494 63.640788 
L 108.070623 63.680318 
L 108.208752 63.719876 
L 108.346881 63.759458 
L 108.485011 63.799062 
L 108.62314 63.838686 
L 108.761269 63.878328 
L 108.899398 63.917986 
L 109.037527 63.957658 
L 109.175657 63.997342 
L 109.313786 64.037038 
L 109.451915 64.076744 
L 109.590044 64.116459 
L 109.728173 64.156183 
L 109.866302 64.195913 
L 110.004432 64.23565 
L 110.142561 64.275393 
L 110.28069 64.315141 
L 110.418819 64.354894 
L 110.556948 64.394651 
L 110.695077 64.434412 
L 110.833207 64.474176 
L 110.971336 64.513943 
L 111.109465 64.553713 
L 111.247594 64.593485 
L 111.385723 64.63326 
L 111.523853 64.673036 
L 111.661982 64.712814 
L 111.800111 64.752593 
L 111.93824 64.792374 
L 112.076369 64.832156 
L 112.214498 64.87194 
L 112.352628 64.911724 
L 112.490757 64.951509 
L 112.628886 64.991295 
L 112.767015 65.031082 
L 112.905144 65.070869 
L 113.043274 65.110657 
L 113.181403 65.150445 
L 113.319532 65.190234 
L 113.457661 65.230023 
L 113.59579 65.269813 
L 113.733919 65.309603 
L 113.872049 65.349393 
L 114.010178 65.389183 
L 114.148307 65.428974 
L 114.286436 65.468765 
L 114.424565 65.508556 
L 114.562695 65.548347 
L 114.700824 65.588138 
L 114.838953 65.62793 
L 114.977082 65.667722 
L 115.115211 65.707513 
L 115.25334 65.747305 
L 115.39147 65.787097 
L 115.529599 65.826889 
L 115.667728 65.805106 
L 115.805857 65.536951 
L 115.943986 65.268706 
L 116.082115 65.000396 
L 116.220245 64.732045 
L 116.358374 64.463673 
L 116.496503 64.195301 
L 116.634632 63.926945 
L 116.772761 63.658622 
L 116.910891 63.390348 
L 117.04902 63.12214 
L 117.187149 62.854013 
L 117.325278 62.585984 
L 117.463407 62.31807 
L 117.601536 62.05029 
L 117.739666 61.782662 
L 117.877795 61.515209 
L 118.015924 61.247952 
L 118.154053 60.980917 
L 118.292182 60.714132 
L 118.430312 60.447627 
L 118.568441 60.181435 
L 118.70657 59.915593 
L 118.844699 59.650144 
L 118.982828 59.385131 
L 119.120957 59.120606 
L 119.259087 58.856625 
L 119.397216 58.593249 
L 119.535345 58.330547 
L 119.673474 58.068595 
L 119.811603 57.807477 
L 119.949733 57.547286 
L 120.087862 57.288123 
L 120.225991 57.030101 
L 120.36412 56.773344 
L 120.502249 56.517988 
L 120.640378 56.264182 
L 120.778508 56.012089 
L 120.916637 55.761887 
L 121.054766 55.513767 
L 121.192895 55.267941 
L 121.331024 55.024635 
L 121.469153 54.784091 
L 121.607283 54.546571 
L 121.745412 54.312355 
L 121.883541 54.081737 
L 122.02167 53.855031 
L 122.159799 53.632562 
L 122.297929 53.414673 
L 122.436058 53.201715 
L 122.574187 52.994048 
L 122.712316 52.792037 
L 122.850445 52.596048 
L 122.988574 52.406442 
L 123.126704 52.223571 
L 123.264833 52.047773 
L 123.402962 51.879365 
L 123.541091 51.718637 
L 123.67922 51.565846 
L 123.81735 51.421212 
L 123.955479 51.284912 
L 124.093608 51.157076 
L 124.231737 51.037783 
L 124.369866 50.927062 
L 124.507995 50.824888 
L 124.646125 50.731185 
L 124.784254 50.645825 
L 124.922383 50.561358 
L 125.060512 50.492902 
L 125.198641 50.432116 
L 125.336771 50.378709 
L 125.4749 50.332364 
L 125.613029 50.292741 
L 125.751158 50.259488 
L 125.889287 50.232244 
L 126.027416 50.210643 
L 126.165546 50.19432 
L 126.303675 50.182916 
L 126.441804 50.176078 
L 126.579933 50.173466 
L 126.718062 50.174754 
L 126.856191 50.17963 
L 126.994321 50.187798 
L 127.13245 50.198981 
L 127.270579 50.212919 
L 127.408708 50.229367 
L 127.546837 50.2481 
L 127.684967 50.26891 
L 127.823096 50.291604 
L 127.961225 50.316004 
L 128.099354 50.34195 
L 128.237483 50.369291 
L 128.375612 50.397892 
L 128.513742 50.427631 
L 128.651871 50.458395 
L 128.651871 78.795277 
L 128.651871 78.795277 
L 128.513742 78.755503 
L 128.375612 78.715732 
L 128.237483 78.675963 
L 128.099354 78.636197 
L 127.961225 78.596433 
L 127.823096 78.556674 
L 127.684967 78.516918 
L 127.546837 78.477167 
L 127.408708 78.43742 
L 127.270579 78.397679 
L 127.13245 78.357944 
L 126.994321 78.318215 
L 126.856191 78.278495 
L 126.718062 78.238782 
L 126.579933 78.199079 
L 126.441804 78.159387 
L 126.303675 78.119706 
L 126.165546 78.080039 
L 126.027416 78.040386 
L 125.889287 78.000749 
L 125.751158 77.961131 
L 125.613029 77.921534 
L 125.4749 77.881959 
L 125.336771 77.84241 
L 125.198641 77.802889 
L 125.060512 77.7634 
L 124.922383 77.723947 
L 124.784254 77.684534 
L 124.646125 77.645165 
L 124.507995 77.605846 
L 124.369866 77.566582 
L 124.231737 77.52738 
L 124.093608 77.488247 
L 123.955479 77.449192 
L 123.81735 77.410223 
L 123.67922 77.37135 
L 123.541091 77.332585 
L 123.402962 77.29394 
L 123.264833 77.255429 
L 123.126704 77.217068 
L 122.988574 77.178874 
L 122.850445 77.140866 
L 122.712316 77.103066 
L 122.574187 77.065498 
L 122.436058 77.028189 
L 122.297929 76.991168 
L 122.159799 76.954469 
L 122.02167 76.918129 
L 121.883541 76.882187 
L 121.745412 76.846691 
L 121.607283 76.81169 
L 121.469153 76.77724 
L 121.331024 76.743403 
L 121.192895 76.710248 
L 121.054766 76.67785 
L 120.916637 76.646294 
L 120.778508 76.615671 
L 120.640378 76.586083 
L 120.502249 76.557643 
L 120.36412 76.530472 
L 120.225991 76.504705 
L 120.087862 76.480489 
L 119.949733 76.457984 
L 119.811603 76.437363 
L 119.673474 76.418815 
L 119.535345 76.402542 
L 119.397216 76.388765 
L 119.259087 76.377717 
L 119.120957 76.369648 
L 118.982828 76.364824 
L 118.844699 76.363525 
L 118.70657 76.366045 
L 118.568441 76.37269 
L 118.430312 76.383778 
L 118.292182 76.399635 
L 118.154053 76.420593 
L 118.015924 76.446986 
L 117.877795 76.479149 
L 117.739666 76.517411 
L 117.601536 76.562094 
L 117.463407 76.613504 
L 117.325278 76.671933 
L 117.187149 76.737649 
L 117.04902 76.810893 
L 116.910891 76.891875 
L 116.772761 76.980772 
L 116.634632 77.077722 
L 116.496503 77.182822 
L 116.358374 77.296128 
L 116.220245 77.417651 
L 116.082115 77.547358 
L 115.943986 77.685171 
L 115.805857 77.830972 
L 115.667728 77.984602 
L 115.529599 78.145863 
L 115.39147 78.314524 
L 115.25334 78.490325 
L 115.115211 78.67298 
L 114.977082 78.862182 
L 114.838953 79.057609 
L 114.700824 79.258926 
L 114.562695 79.465794 
L 114.424565 79.677869 
L 114.286436 79.89481 
L 114.148307 80.116277 
L 114.010178 80.341942 
L 113.872049 80.571484 
L 113.733919 80.804591 
L 113.59579 81.040967 
L 113.457661 81.280327 
L 113.319532 81.5224 
L 113.181403 81.766927 
L 113.043274 82.013664 
L 112.905144 82.262375 
L 112.767015 82.512837 
L 112.628886 82.764835 
L 112.490757 83.018161 
L 112.352628 83.272613 
L 112.214498 83.52799 
L 112.076369 83.78409 
L 111.93824 84.040708 
L 111.800111 84.297634 
L 111.661982 84.554642 
L 111.523853 84.811495 
L 111.385723 85.067931 
L 111.247594 85.323664 
L 111.109465 85.578375 
L 110.971336 85.831703 
L 110.833207 86.083243 
L 110.695077 86.332534 
L 110.556948 86.579055 
L 110.418819 86.822214 
L 110.28069 87.061347 
L 110.142561 87.29571 
L 110.004432 87.524481 
L 109.866302 87.746761 
L 109.728173 87.961587 
L 109.590044 88.167944 
L 109.451915 88.364791 
L 109.313786 88.551094 
L 109.175657 88.725863 
L 109.037527 88.888198 
L 108.899398 89.037333 
L 108.761269 89.172683 
L 108.62314 89.293879 
L 108.485011 89.400789 
L 108.346881 89.493529 
L 108.208752 89.572454 
L 108.070623 89.612237 
L 107.932494 89.63508 
L 107.794365 89.649152 
L 107.656236 89.655449 
L 107.518106 89.639975 
L 107.379977 89.600183 
L 107.241848 89.56039 
L 107.103719 89.520597 
L 106.96559 89.480805 
L 106.82746 89.441012 
L 106.689331 89.401219 
L 106.551202 89.361427 
L 106.413073 89.321634 
L 106.274944 89.281841 
L 106.136815 89.242049 
L 105.998685 89.202256 
L 105.860556 89.162463 
L 105.722427 89.122671 
L 105.584298 89.082878 
L 105.446169 89.043085 
L 105.30804 89.003293 
L 105.16991 88.9635 
L 105.031781 88.923707 
L 104.893652 88.883915 
L 104.755523 88.844122 
L 104.617394 88.804329 
L 104.479264 88.764537 
L 104.341135 88.724744 
L 104.203006 88.684951 
L 104.064877 88.645159 
L 103.926748 88.605366 
L 103.788619 88.565573 
L 103.650489 88.525781 
L 103.51236 88.485988 
L 103.374231 88.446195 
L 103.236102 88.406403 
L 103.097973 88.36661 
L 102.959843 88.326817 
L 102.821714 88.287025 
L 102.683585 88.247232 
L 102.545456 88.207439 
L 102.407327 88.167647 
L 102.269198 88.127854 
L 102.131068 88.088061 
L 101.992939 88.048269 
L 101.85481 88.008476 
L 101.716681 87.968683 
L 101.578552 87.928891 
L 101.440422 87.889098 
L 101.302293 87.849305 
L 101.164164 87.809513 
L 101.026035 87.76972 
L 100.887906 87.729927 
L 100.749777 87.690135 
L 100.611647 87.650342 
L 100.473518 87.610549 
L 100.335389 87.570757 
L 100.19726 87.530964 
L 100.059131 87.491171 
L 99.921002 87.451379 
L 99.782872 87.411586 
L 99.644743 87.371793 
L 99.506614 87.332001 
L 99.368485 87.292208 
L 99.230356 87.252415 
L 99.092226 87.212623 
L 98.954097 87.17283 
L 98.815968 87.133037 
L 98.677839 87.093245 
L 98.53971 87.053452 
L 98.401581 87.013659 
L 98.263451 86.973867 
L 98.125322 86.934074 
L 97.987193 86.894281 
L 97.849064 86.854489 
L 97.710935 86.814696 
L 97.572805 86.774903 
L 97.434676 86.735111 
L 97.296547 86.695318 
L 97.158418 86.655525 
L 97.020289 86.615733 
L 96.88216 86.57594 
L 96.74403 86.536147 
L 96.605901 86.496355 
L 96.467772 86.456562 
L 96.329643 86.416769 
L 96.191514 86.376977 
L 96.053384 86.337184 
L 95.915255 86.297391 
L 95.777126 86.257599 
L 95.638997 86.217806 
L 95.500868 86.178013 
L 95.362739 86.138221 
L 95.224609 86.098428 
L 95.08648 86.058635 
L 94.948351 86.018843 
L 94.810222 85.97905 
L 94.672093 85.939257 
L 94.533964 85.899465 
L 94.395834 85.859672 
L 94.257705 85.819879 
L 94.119576 85.780087 
L 93.981447 85.740294 
L 93.843318 85.700501 
L 93.705188 85.660709 
L 93.567059 85.620916 
L 93.42893 85.581123 
L 93.290801 85.541331 
L 93.152672 85.501538 
L 93.014543 85.461745 
L 92.876413 85.421953 
L 92.738284 85.38216 
L 92.600155 85.342367 
L 92.462026 85.302575 
L 92.323897 85.262782 
L 92.185767 85.222989 
L 92.047638 85.183197 
L 91.909509 85.143404 
L 91.77138 85.103611 
L 91.633251 85.063819 
L 91.495122 85.024026 
L 91.356992 84.984233 
L 91.218863 84.944441 
L 91.080734 84.904648 
L 90.942605 84.864855 
L 90.804476 84.825063 
L 90.666346 84.78527 
L 90.528217 84.745477 
L 90.390088 84.705685 
L 90.251959 84.665892 
L 90.11383 84.626099 
L 89.975701 84.586307 
L 89.837571 84.546514 
L 89.699442 84.506721 
L 89.561313 84.466929 
L 89.423184 84.427136 
L 89.285055 84.387343 
L 89.146926 84.347551 
L 89.008796 84.307758 
L 88.870667 84.267965 
L 88.732538 84.228173 
L 88.594409 84.18838 
L 88.45628 84.148587 
L 88.31815 84.108795 
L 88.180021 84.069002 
L 88.041892 84.029209 
L 87.903763 83.989417 
L 87.765634 83.949624 
L 87.627505 83.909831 
L 87.489375 83.870039 
L 87.351246 83.830246 
L 87.213117 83.790453 
L 87.074988 83.750661 
L 86.936859 83.710868 
L 86.798729 83.671075 
L 86.6606 83.631283 
L 86.522471 83.59149 
L 86.384342 83.551697 
L 86.246213 83.511905 
L 86.108084 83.472112 
L 85.969954 83.432319 
L 85.831825 83.392527 
L 85.693696 83.352734 
L 85.555567 83.312941 
L 85.417438 83.273149 
L 85.279308 83.233356 
L 85.141179 83.193563 
L 85.00305 83.153771 
L 84.864921 83.113978 
L 84.726792 83.074185 
L 84.588663 83.034393 
L 84.450533 82.9946 
L 84.312404 82.954807 
L 84.174275 82.915015 
L 84.036146 82.875222 
L 83.898017 82.835429 
L 83.759888 82.795637 
L 83.621758 82.755844 
L 83.483629 82.716051 
L 83.3455 82.676259 
L 83.207371 82.636466 
L 83.069242 82.596673 
L 82.931112 82.556881 
L 82.792983 82.517088 
L 82.654854 82.477295 
L 82.516725 82.437503 
L 82.378596 82.39771 
L 82.240467 82.357917 
L 82.102337 82.318125 
L 81.964208 82.278332 
L 81.826079 82.238539 
L 81.68795 82.198747 
L 81.549821 82.158954 
L 81.411691 82.119161 
L 81.273562 82.079369 
L 81.135433 82.039576 
L 80.997304 81.999783 
L 80.859175 81.959991 
L 80.721046 81.920198 
L 80.582916 81.880405 
L 80.444787 81.840613 
L 80.306658 81.80082 
L 80.168529 81.761027 
L 80.0304 81.721235 
L 79.89227 81.681442 
L 79.754141 81.641649 
L 79.616012 81.601857 
L 79.477883 81.562064 
L 79.339754 81.522271 
L 79.201625 81.482479 
L 79.063495 81.442686 
L 78.925366 81.402893 
L 78.787237 81.363101 
L 78.649108 81.323308 
L 78.510979 81.283515 
L 78.37285 81.243723 
L 78.23472 81.20393 
L 78.096591 81.164137 
L 77.958462 81.124345 
L 77.820333 81.084552 
L 77.682204 81.044759 
L 77.544074 81.004967 
L 77.405945 80.965174 
L 77.267816 80.925381 
L 77.129687 80.885589 
L 76.991558 80.845796 
L 76.853429 80.806003 
L 76.715299 80.766211 
L 76.57717 80.726418 
L 76.439041 80.686625 
L 76.300912 80.646833 
L 76.162783 80.60704 
L 76.024653 80.567247 
L 75.886524 80.527455 
L 75.748395 80.487662 
L 75.610266 80.447869 
L 75.472137 80.408077 
L 75.334008 80.368284 
L 75.195878 80.328491 
L 75.057749 80.288699 
L 74.91962 80.248906 
L 74.781491 80.209113 
L 74.643362 80.169321 
L 74.505232 80.129528 
L 74.367103 80.089736 
L 74.228974 80.049943 
L 74.090845 80.01015 
L 73.952716 79.970358 
L 73.814587 79.930565 
L 73.676457 79.890773 
L 73.538328 79.85098 
L 73.400199 79.811187 
L 73.26207 79.771395 
L 73.123941 79.731602 
L 72.985812 79.69181 
L 72.847682 79.652017 
L 72.709553 79.612225 
L 72.571424 79.572432 
L 72.433295 79.53264 
L 72.295166 79.492847 
L 72.157036 79.453055 
L 72.018907 79.413262 
L 71.880778 79.37347 
L 71.742649 79.333677 
L 71.60452 79.293885 
L 71.466391 79.254093 
L 71.328261 79.2143 
L 71.190132 79.174508 
L 71.052003 79.134716 
L 70.913874 79.094924 
L 70.775745 79.055132 
L 70.637615 79.01534 
L 70.499486 78.975548 
L 70.361357 78.935756 
L 70.223228 78.895964 
L 70.085099 78.856173 
L 69.94697 78.816381 
L 69.80884 78.77659 
L 69.670711 78.736799 
L 69.532582 78.697008 
L 69.394453 78.657217 
L 69.256324 78.617427 
L 69.118194 78.577636 
L 68.980065 78.537846 
L 68.841936 78.498056 
L 68.703807 78.458267 
L 68.565678 78.418478 
L 68.427549 78.378689 
L 68.289419 78.338901 
L 68.15129 78.299114 
L 68.013161 78.259327 
L 67.875032 78.21954 
L 67.736903 78.179755 
L 67.598774 78.13997 
L 67.460644 78.100186 
L 67.322515 78.060403 
L 67.184386 78.020622 
L 67.046257 77.980841 
L 66.908128 77.941062 
L 66.769998 77.901285 
L 66.631869 77.86151 
L 66.49374 77.821736 
L 66.355611 77.781965 
L 66.217482 77.742196 
L 66.079353 77.70243 
L 65.941223 77.662668 
L 65.803094 77.622908 
L 65.664965 77.583153 
L 65.526836 77.543402 
L 65.388707 77.503656 
L 65.250577 77.463916 
L 65.112448 77.424181 
L 64.974319 77.384454 
L 64.83619 77.344734 
L 64.698061 77.305022 
L 64.559932 77.26532 
L 64.421802 77.225629 
L 64.283673 77.18595 
L 64.145544 77.146284 
L 64.007415 77.106633 
L 63.869286 77.066998 
L 63.731157 77.027382 
L 63.593027 76.987787 
L 63.454898 76.948215 
L 63.316769 76.908669 
L 63.17864 76.869152 
L 63.040511 76.829667 
L 62.902381 76.790218 
L 62.764252 76.750809 
L 62.626123 76.711445 
L 62.487994 76.672132 
L 62.349865 76.632875 
L 62.211736 76.593681 
L 62.073606 76.554556 
L 61.935477 76.51551 
L 61.797348 76.476552 
L 61.659219 76.437691 
L 61.52109 76.398939 
L 61.38296 76.360309 
L 61.244831 76.321814 
L 61.106702 76.283472 
L 60.968573 76.245298 
L 60.830444 76.207314 
L 60.692315 76.16954 
L 60.554185 76.132002 
L 60.416056 76.094727 
L 60.277927 76.057744 
L 60.139798 76.021088 
L 60.001669 75.984795 
L 59.863539 75.948909 
L 59.72541 75.913474 
L 59.587281 75.878543 
L 59.449152 75.844173 
L 59.311023 75.810427 
L 59.172894 75.777375 
L 59.034764 75.745096 
L 58.896635 75.713674 
L 58.758506 75.683206 
L 58.620377 75.653795 
L 58.482248 75.625557 
L 58.344119 75.59862 
L 58.205989 75.573121 
L 58.06786 75.549215 
L 57.929731 75.527067 
L 57.791602 75.506859 
L 57.653473 75.488788 
L 57.515343 75.473068 
L 57.377214 75.459931 
L 57.239085 75.449624 
L 57.100956 75.442413 
L 56.962827 75.438582 
L 56.824698 75.43843 
L 56.686568 75.442275 
L 56.548439 75.450447 
L 56.41031 75.463289 
L 56.272181 75.481158 
L 56.134052 75.504413 
L 55.995922 75.533421 
L 55.857793 75.568547 
L 55.719664 75.610151 
L 55.581535 75.65858 
L 55.443406 75.714169 
L 55.305277 75.777226 
L 55.167147 75.848035 
L 55.029018 75.926843 
L 54.890889 76.013859 
L 54.75276 76.109249 
L 54.614631 76.213128 
L 54.476501 76.325563 
L 54.338372 76.446569 
L 54.200243 76.576107 
L 54.062114 76.714087 
L 53.923985 76.860369 
L 53.785856 77.014768 
L 53.647726 77.177056 
L 53.509597 77.346969 
L 53.371468 77.524211 
L 53.233339 77.708461 
L 53.09521 77.899378 
L 52.957081 78.096608 
L 52.818951 78.299789 
L 52.680822 78.508557 
L 52.542693 78.722546 
L 52.404564 78.941401 
L 52.266435 79.164773 
L 52.128305 79.392325 
L 51.990176 79.623736 
L 51.852047 79.858701 
L 51.713918 80.096932 
L 51.575789 80.33816 
L 51.43766 80.582136 
L 51.29953 80.828632 
L 51.161401 81.077437 
L 51.023272 81.328365 
L 50.885143 81.581251 
L 50.747014 81.83595 
L 50.608884 82.092345 
L 50.470755 82.350342 
L 50.332626 82.609875 
L 50.194497 82.870911 
L 50.056368 83.13345 
L 49.918239 83.397533 
L 49.780109 83.663252 
L 49.64198 83.93075 
L 49.503851 84.20024 
L 49.365722 84.472013 
L 49.227593 84.746456 
L 49.089463 85.02407 
L 48.951334 85.305492 
L 48.813205 85.591527 
L 48.675076 85.883173 
L 48.536947 86.181671 
L 48.398818 86.488549 
L 48.260688 86.805683 
L 48.122559 87.135378 
L 47.98443 87.480468 
L 47.846301 87.844444 
L 47.708172 88.231644 
L 47.570043 88.647493 
L 47.431913 89.098868 
L 47.293784 89.594628 
L 47.155655 90.146429 
L 47.017526 90.770022 
L 46.879397 91.487432 
L 46.741267 92.330841 
L 46.603138 93.350064 
L 46.465009 94.628513 
L 46.32688 96.322647 
L 46.188751 98.78425 
L 46.050622 103.137984 
L 45.912492 3910.42875 
z
" clip-path="url(#p08c964a743)" style="fill: #ccb974; fill-opacity: 0.7"/>
   </g>
   <g id="PolyCollection_3">
    <path d="M 45.912492 3910.42875 
L 45.912492 3910.42875 
L 46.050622 101.898495 
L 46.188751 97.572436 
L 46.32688 95.149606 
L 46.465009 93.491776 
L 46.603138 92.234222 
L 46.741267 91.220177 
L 46.879397 90.372897 
L 47.017526 89.648195 
L 47.155655 89.016849 
L 47.293784 88.458046 
L 47.431913 87.956397 
L 47.570043 87.500257 
L 47.708172 87.08065 
L 47.846301 86.690548 
L 47.98443 86.324382 
L 48.122559 85.977661 
L 48.260688 85.646706 
L 48.398818 85.328653 
L 48.536947 85.021135 
L 48.675076 84.722222 
L 48.813205 84.430339 
L 48.951334 84.144207 
L 49.089463 83.862792 
L 49.227593 83.585261 
L 49.365722 83.310955 
L 49.503851 83.039351 
L 49.64198 82.770047 
L 49.780109 82.502738 
L 49.918239 82.2372 
L 50.056368 81.973279 
L 50.194497 81.710877 
L 50.332626 81.449945 
L 50.470755 81.190477 
L 50.608884 80.932501 
L 50.747014 80.676079 
L 50.885143 80.421303 
L 51.023272 80.168289 
L 51.161401 79.917183 
L 51.29953 79.668154 
L 51.43766 79.421403 
L 51.575789 79.177159 
L 51.713918 78.935693 
L 51.852047 78.697329 
L 51.990176 78.462478 
L 52.128305 78.231713 
L 52.266435 78.005958 
L 52.404564 77.787043 
L 52.542693 77.579578 
L 52.680822 77.397934 
L 52.818951 77.283461 
L 52.957081 77.269547 
L 53.09521 77.301708 
L 53.233339 77.340802 
L 53.371468 77.380523 
L 53.509597 77.4203 
L 53.647726 77.460083 
L 53.785856 77.499869 
L 53.923985 77.539655 
L 54.062114 77.579442 
L 54.200243 77.61923 
L 54.338372 77.659018 
L 54.476501 77.698807 
L 54.614631 77.738597 
L 54.75276 77.778386 
L 54.890889 77.818176 
L 55.029018 77.857967 
L 55.167147 77.897758 
L 55.305277 77.937549 
L 55.443406 77.97734 
L 55.581535 78.017131 
L 55.719664 78.056923 
L 55.857793 78.096714 
L 55.995922 78.136506 
L 56.134052 78.176298 
L 56.272181 78.21609 
L 56.41031 78.255882 
L 56.548439 78.295674 
L 56.686568 78.335466 
L 56.824698 78.375259 
L 56.962827 78.415051 
L 57.100956 78.454843 
L 57.239085 78.494636 
L 57.377214 78.534428 
L 57.515343 78.574221 
L 57.653473 78.614013 
L 57.791602 78.653806 
L 57.929731 78.693598 
L 58.06786 78.733391 
L 58.205989 78.773183 
L 58.344119 78.809117 
L 58.482248 78.816218 
L 58.620377 78.819116 
L 58.758506 78.819294 
L 58.896635 78.816099 
L 59.034764 78.80871 
L 59.172894 78.79622 
L 59.311023 78.777655 
L 59.449152 78.751988 
L 59.587281 78.718158 
L 59.72541 78.675101 
L 59.863539 78.621781 
L 60.001669 78.557234 
L 60.139798 78.480609 
L 60.277927 78.391214 
L 60.416056 78.288553 
L 60.554185 78.172357 
L 60.692315 78.042599 
L 60.830444 77.899494 
L 60.968573 77.743487 
L 61.106702 77.571697 
L 61.244831 77.386446 
L 61.38296 77.191115 
L 61.52109 76.986717 
L 61.659219 76.774273 
L 61.797348 76.554792 
L 61.935477 76.32924 
L 62.073606 76.098527 
L 62.211736 75.863496 
L 62.349865 75.624919 
L 62.487994 75.3835 
L 62.626123 75.139875 
L 62.764252 74.894619 
L 62.902381 74.648253 
L 63.040511 74.401255 
L 63.17864 74.154067 
L 63.316769 73.907145 
L 63.454898 73.662755 
L 63.593027 73.607134 
L 63.731157 73.645137 
L 63.869286 73.684039 
L 64.007415 73.723372 
L 64.145544 73.762925 
L 64.283673 73.802592 
L 64.421802 73.842318 
L 64.559932 73.882076 
L 64.698061 73.92185 
L 64.83619 73.961633 
L 64.974319 74.00142 
L 65.112448 74.04121 
L 65.250577 74.081001 
L 65.388707 74.120793 
L 65.526836 74.160585 
L 65.664965 74.200377 
L 65.803094 74.24017 
L 65.941223 74.279963 
L 66.079353 74.319755 
L 66.217482 74.359548 
L 66.355611 74.39934 
L 66.49374 74.439133 
L 66.631869 74.478926 
L 66.769998 74.518718 
L 66.908128 74.558511 
L 67.046257 74.598304 
L 67.184386 74.638096 
L 67.322515 74.677889 
L 67.460644 74.717682 
L 67.598774 74.757474 
L 67.736903 74.797267 
L 67.875032 74.83706 
L 68.013161 74.876852 
L 68.15129 74.649592 
L 68.289419 74.386942 
L 68.427549 74.123735 
L 68.565678 73.860076 
L 68.703807 73.596052 
L 68.841936 73.305227 
L 68.980065 73.040541 
L 69.118194 72.775678 
L 69.256324 72.510671 
L 69.394453 72.245543 
L 69.532582 71.980318 
L 69.670711 71.715013 
L 69.80884 71.449648 
L 69.94697 71.18424 
L 70.085099 70.918809 
L 70.223228 70.653378 
L 70.361357 70.38797 
L 70.499486 70.122615 
L 70.637615 69.857345 
L 70.775745 69.592195 
L 70.913874 69.327206 
L 71.052003 69.062424 
L 71.190132 68.797897 
L 71.328261 68.53368 
L 71.466391 68.269833 
L 71.60452 68.00642 
L 71.742649 67.743511 
L 71.880778 67.481183 
L 72.018907 67.21952 
L 72.157036 66.958611 
L 72.295166 66.698554 
L 72.433295 66.439458 
L 72.571424 66.181438 
L 72.709553 65.924621 
L 72.847682 65.669147 
L 72.985812 65.488605 
L 73.123941 65.528016 
L 73.26207 65.567608 
L 73.400199 65.607295 
L 73.538328 65.647032 
L 73.676457 65.686795 
L 73.814587 65.726571 
L 73.952716 65.766356 
L 74.090845 65.806144 
L 74.228974 65.845934 
L 74.367103 65.885725 
L 74.505232 65.925517 
L 74.643362 65.965309 
L 74.781491 66.005102 
L 74.91962 66.044895 
L 75.057749 66.088666 
L 75.195878 66.128459 
L 75.334008 66.168252 
L 75.472137 66.208044 
L 75.610266 66.247837 
L 75.748395 66.28763 
L 75.886524 66.327422 
L 76.024653 66.367215 
L 76.162783 66.407008 
L 76.300912 66.4468 
L 76.439041 66.486593 
L 76.57717 66.526386 
L 76.715299 66.566178 
L 76.853429 66.605971 
L 76.991558 66.645764 
L 77.129687 66.685556 
L 77.267816 66.725349 
L 77.405945 66.765142 
L 77.544074 66.804934 
L 77.682204 66.844727 
L 77.820333 66.88452 
L 77.958462 66.924312 
L 78.096591 66.964105 
L 78.23472 67.003898 
L 78.37285 67.04369 
L 78.510979 67.083483 
L 78.649108 67.123276 
L 78.787237 67.163068 
L 78.925366 67.202861 
L 79.063495 67.242654 
L 79.201625 67.282446 
L 79.339754 67.322239 
L 79.477883 67.362032 
L 79.616012 67.401824 
L 79.754141 67.441617 
L 79.89227 67.48141 
L 80.0304 67.521202 
L 80.168529 67.560995 
L 80.306658 67.600788 
L 80.444787 67.64058 
L 80.582916 67.680373 
L 80.721046 67.720166 
L 80.859175 67.759958 
L 80.997304 67.799751 
L 81.135433 67.839544 
L 81.273562 67.879336 
L 81.411691 67.919129 
L 81.549821 67.958922 
L 81.68795 67.998714 
L 81.826079 68.038507 
L 81.964208 68.0783 
L 82.102337 68.118092 
L 82.240467 68.157885 
L 82.378596 68.197678 
L 82.516725 68.23747 
L 82.654854 68.277263 
L 82.792983 68.317056 
L 82.931112 68.356848 
L 83.069242 68.396641 
L 83.207371 68.436434 
L 83.3455 68.476226 
L 83.483629 68.516019 
L 83.621758 68.555812 
L 83.759888 68.595604 
L 83.898017 68.635397 
L 84.036146 68.67519 
L 84.174275 68.714982 
L 84.312404 68.754775 
L 84.450533 68.794568 
L 84.588663 68.83436 
L 84.726792 68.874153 
L 84.864921 68.913946 
L 85.00305 68.953738 
L 85.141179 68.993531 
L 85.279308 69.033324 
L 85.417438 69.073116 
L 85.555567 69.112909 
L 85.693696 69.152702 
L 85.831825 69.192494 
L 85.969954 69.232287 
L 86.108084 69.27208 
L 86.246213 69.311872 
L 86.384342 69.351665 
L 86.522471 69.391458 
L 86.6606 69.43125 
L 86.798729 69.471043 
L 86.936859 69.510836 
L 87.074988 69.550628 
L 87.213117 69.590421 
L 87.351246 69.630214 
L 87.489375 69.670006 
L 87.627505 69.709799 
L 87.765634 69.749592 
L 87.903763 69.789384 
L 88.041892 69.829177 
L 88.180021 69.86897 
L 88.31815 69.908762 
L 88.45628 69.948555 
L 88.594409 69.988348 
L 88.732538 70.02814 
L 88.870667 70.067933 
L 89.008796 70.107726 
L 89.146926 70.147518 
L 89.285055 70.187311 
L 89.423184 70.227104 
L 89.561313 70.266896 
L 89.699442 70.306689 
L 89.837571 70.346481 
L 89.975701 70.386274 
L 90.11383 70.426067 
L 90.251959 70.465859 
L 90.390088 70.505652 
L 90.528217 70.545445 
L 90.666346 70.585237 
L 90.804476 70.62503 
L 90.942605 70.664823 
L 91.080734 70.704615 
L 91.218863 70.744408 
L 91.356992 70.784201 
L 91.495122 70.823993 
L 91.633251 70.863786 
L 91.77138 70.903579 
L 91.909509 70.943371 
L 92.047638 70.983164 
L 92.185767 71.022957 
L 92.323897 71.062749 
L 92.462026 71.102542 
L 92.600155 71.142335 
L 92.738284 71.182127 
L 92.876413 71.22192 
L 93.014543 71.261713 
L 93.152672 71.301505 
L 93.290801 71.341298 
L 93.42893 71.381091 
L 93.567059 71.420883 
L 93.705188 71.460676 
L 93.843318 71.500469 
L 93.981447 71.540261 
L 94.119576 71.580054 
L 94.257705 71.619847 
L 94.395834 71.659639 
L 94.533964 71.699432 
L 94.672093 71.739225 
L 94.810222 71.779017 
L 94.948351 71.81881 
L 95.08648 71.858603 
L 95.224609 71.898395 
L 95.362739 71.938188 
L 95.500868 71.977981 
L 95.638997 72.017773 
L 95.777126 72.057566 
L 95.915255 72.097359 
L 96.053384 72.137151 
L 96.191514 72.176944 
L 96.329643 72.216737 
L 96.467772 72.256529 
L 96.605901 72.296322 
L 96.74403 72.336115 
L 96.88216 72.375907 
L 97.020289 72.4157 
L 97.158418 72.455493 
L 97.296547 72.495285 
L 97.434676 72.535078 
L 97.572805 72.574871 
L 97.710935 72.614663 
L 97.849064 72.654456 
L 97.987193 72.694249 
L 98.125322 72.734041 
L 98.263451 72.773834 
L 98.401581 72.813627 
L 98.53971 72.853419 
L 98.677839 72.893212 
L 98.815968 72.933005 
L 98.954097 72.972797 
L 99.092226 73.01259 
L 99.230356 73.052383 
L 99.368485 73.092175 
L 99.506614 73.131968 
L 99.644743 73.171761 
L 99.782872 73.211553 
L 99.921002 73.251346 
L 100.059131 73.291139 
L 100.19726 73.330931 
L 100.335389 73.370724 
L 100.473518 73.410517 
L 100.611647 73.450309 
L 100.749777 73.490102 
L 100.887906 73.529895 
L 101.026035 73.569687 
L 101.164164 73.60948 
L 101.302293 73.649273 
L 101.440422 73.689065 
L 101.578552 73.728858 
L 101.716681 73.77263 
L 101.85481 73.812423 
L 101.992939 73.852215 
L 102.131068 73.892008 
L 102.269198 73.931801 
L 102.407327 73.971593 
L 102.545456 74.011386 
L 102.683585 74.051179 
L 102.821714 74.090971 
L 102.959843 74.130764 
L 103.097973 74.170557 
L 103.236102 74.210349 
L 103.374231 74.250142 
L 103.51236 74.289935 
L 103.650489 74.329727 
L 103.788619 74.36952 
L 103.926748 74.409313 
L 104.064877 74.449105 
L 104.203006 74.488898 
L 104.341135 74.528691 
L 104.479264 74.568483 
L 104.617394 74.608276 
L 104.755523 74.648069 
L 104.893652 74.687861 
L 105.031781 74.727654 
L 105.16991 74.767447 
L 105.30804 74.807239 
L 105.446169 74.847032 
L 105.584298 74.886825 
L 105.722427 74.926617 
L 105.860556 74.96641 
L 105.998685 75.006203 
L 106.136815 75.045995 
L 106.274944 75.085788 
L 106.413073 75.125581 
L 106.551202 75.165373 
L 106.689331 75.205166 
L 106.82746 75.244959 
L 106.96559 75.284751 
L 107.103719 75.324544 
L 107.241848 75.364337 
L 107.379977 75.404129 
L 107.518106 75.443922 
L 107.656236 75.483715 
L 107.794365 75.523507 
L 107.932494 75.5633 
L 108.070623 75.603093 
L 108.208752 75.642885 
L 108.346881 75.682678 
L 108.485011 75.722471 
L 108.62314 75.762263 
L 108.761269 75.802056 
L 108.899398 75.841849 
L 109.037527 75.881641 
L 109.175657 75.921434 
L 109.313786 75.961226 
L 109.451915 76.001019 
L 109.590044 76.040812 
L 109.728173 76.080605 
L 109.866302 76.120397 
L 110.004432 76.16019 
L 110.142561 76.199983 
L 110.28069 76.239775 
L 110.418819 76.279568 
L 110.556948 76.319361 
L 110.695077 76.359153 
L 110.833207 76.398946 
L 110.971336 76.438739 
L 111.109465 76.478531 
L 111.247594 76.518324 
L 111.385723 76.558117 
L 111.523853 76.597909 
L 111.661982 76.637702 
L 111.800111 76.677495 
L 111.93824 76.717287 
L 112.076369 76.75708 
L 112.214498 76.796873 
L 112.352628 76.836665 
L 112.490757 76.876458 
L 112.628886 76.916251 
L 112.767015 76.956043 
L 112.905144 76.995836 
L 113.043274 77.035629 
L 113.181403 77.075421 
L 113.319532 77.115214 
L 113.457661 77.155007 
L 113.59579 77.194799 
L 113.733919 77.234592 
L 113.872049 77.274385 
L 114.010178 77.314177 
L 114.148307 77.35397 
L 114.286436 77.393763 
L 114.424565 77.433555 
L 114.562695 77.473348 
L 114.700824 77.513141 
L 114.838953 77.552933 
L 114.977082 77.592726 
L 115.115211 77.632519 
L 115.25334 77.672311 
L 115.39147 77.712104 
L 115.529599 77.751896 
L 115.667728 77.791689 
L 115.805857 77.831482 
L 115.943986 77.871274 
L 116.082115 77.911067 
L 116.220245 77.95086 
L 116.358374 77.990652 
L 116.496503 78.030445 
L 116.634632 78.070238 
L 116.772761 78.11003 
L 116.910891 78.149823 
L 117.04902 78.189616 
L 117.187149 78.229408 
L 117.325278 78.269201 
L 117.463407 78.308994 
L 117.601536 78.348786 
L 117.739666 78.388579 
L 117.877795 78.428372 
L 118.015924 78.468164 
L 118.154053 78.507957 
L 118.292182 78.54775 
L 118.430312 78.587542 
L 118.568441 78.627335 
L 118.70657 78.667128 
L 118.844699 78.70692 
L 118.982828 78.746713 
L 119.120957 78.786506 
L 119.259087 78.826298 
L 119.397216 78.866091 
L 119.535345 78.905884 
L 119.673474 78.945676 
L 119.811603 78.985469 
L 119.949733 79.025262 
L 120.087862 79.065054 
L 120.225991 79.104847 
L 120.36412 79.14464 
L 120.502249 79.184432 
L 120.640378 79.224225 
L 120.778508 79.264018 
L 120.916637 79.30381 
L 121.054766 79.343603 
L 121.192895 79.383396 
L 121.331024 79.423188 
L 121.469153 79.462981 
L 121.607283 79.502774 
L 121.745412 79.542566 
L 121.883541 79.582359 
L 122.02167 79.622152 
L 122.159799 79.661944 
L 122.297929 79.701737 
L 122.436058 79.74153 
L 122.574187 79.781322 
L 122.712316 79.821115 
L 122.850445 79.860908 
L 122.988574 79.9007 
L 123.126704 79.940493 
L 123.264833 79.980286 
L 123.402962 80.020078 
L 123.541091 80.059871 
L 123.67922 80.099664 
L 123.81735 80.139456 
L 123.955479 80.179249 
L 124.093608 80.219042 
L 124.231737 80.258834 
L 124.369866 80.298627 
L 124.507995 80.33842 
L 124.646125 80.378212 
L 124.784254 80.418005 
L 124.922383 80.457798 
L 125.060512 80.49759 
L 125.198641 80.537383 
L 125.336771 80.577176 
L 125.4749 80.616968 
L 125.613029 80.656761 
L 125.751158 80.696554 
L 125.889287 80.736346 
L 126.027416 80.776139 
L 126.165546 80.815932 
L 126.303675 80.855724 
L 126.441804 80.895517 
L 126.579933 80.93531 
L 126.718062 80.975102 
L 126.856191 81.014895 
L 126.994321 81.054688 
L 127.13245 81.09448 
L 127.270579 81.134273 
L 127.408708 81.174066 
L 127.546837 81.213858 
L 127.684967 81.253651 
L 127.823096 81.293444 
L 127.961225 81.333236 
L 128.099354 81.373029 
L 128.237483 81.412822 
L 128.375612 81.452614 
L 128.513742 81.492407 
L 128.651871 81.5322 
L 128.651871 101.131924 
L 128.651871 101.131924 
L 128.513742 101.092131 
L 128.375612 101.052339 
L 128.237483 101.012547 
L 128.099354 100.972754 
L 127.961225 100.932962 
L 127.823096 100.893169 
L 127.684967 100.853377 
L 127.546837 100.813586 
L 127.408708 100.773797 
L 127.270579 100.734009 
L 127.13245 100.694221 
L 126.994321 100.654433 
L 126.856191 100.614644 
L 126.718062 100.574854 
L 126.579933 100.535064 
L 126.441804 100.495272 
L 126.303675 100.45548 
L 126.165546 100.415686 
L 126.027416 100.375893 
L 125.889287 100.336099 
L 125.751158 100.296305 
L 125.613029 100.256511 
L 125.4749 100.216717 
L 125.336771 100.176924 
L 125.198641 100.13713 
L 125.060512 100.097338 
L 124.922383 100.057545 
L 124.784254 100.017752 
L 124.646125 99.977958 
L 124.507995 99.938165 
L 124.369866 99.898373 
L 124.231737 99.85858 
L 124.093608 99.818787 
L 123.955479 99.778994 
L 123.81735 99.739201 
L 123.67922 99.699408 
L 123.541091 99.659616 
L 123.402962 99.619823 
L 123.264833 99.58003 
L 123.126704 99.540237 
L 122.988574 99.500444 
L 122.850445 99.460651 
L 122.712316 99.420857 
L 122.574187 99.381063 
L 122.436058 99.341269 
L 122.297929 99.301476 
L 122.159799 99.261683 
L 122.02167 99.221889 
L 121.883541 99.182096 
L 121.745412 99.142303 
L 121.607283 99.10251 
L 121.469153 99.062718 
L 121.331024 99.022926 
L 121.192895 98.983133 
L 121.054766 98.943341 
L 120.916637 98.903549 
L 120.778508 98.863757 
L 120.640378 98.823965 
L 120.502249 98.784173 
L 120.36412 98.74438 
L 120.225991 98.704588 
L 120.087862 98.664796 
L 119.949733 98.625003 
L 119.811603 98.585211 
L 119.673474 98.545418 
L 119.535345 98.505625 
L 119.397216 98.465833 
L 119.259087 98.42604 
L 119.120957 98.386247 
L 118.982828 98.346455 
L 118.844699 98.306662 
L 118.70657 98.266869 
L 118.568441 98.227077 
L 118.430312 98.187284 
L 118.292182 98.147491 
L 118.154053 98.107699 
L 118.015924 98.067906 
L 117.877795 98.028113 
L 117.739666 97.988321 
L 117.601536 97.948528 
L 117.463407 97.908735 
L 117.325278 97.868943 
L 117.187149 97.82915 
L 117.04902 97.789357 
L 116.910891 97.749565 
L 116.772761 97.709772 
L 116.634632 97.669979 
L 116.496503 97.630187 
L 116.358374 97.590394 
L 116.220245 97.550601 
L 116.082115 97.510809 
L 115.943986 97.471016 
L 115.805857 97.431223 
L 115.667728 97.391431 
L 115.529599 97.351638 
L 115.39147 97.311845 
L 115.25334 97.272053 
L 115.115211 97.23226 
L 114.977082 97.192467 
L 114.838953 97.152675 
L 114.700824 97.112882 
L 114.562695 97.073089 
L 114.424565 97.033297 
L 114.286436 96.993504 
L 114.148307 96.953711 
L 114.010178 96.913919 
L 113.872049 96.874126 
L 113.733919 96.834333 
L 113.59579 96.794541 
L 113.457661 96.754748 
L 113.319532 96.714955 
L 113.181403 96.675163 
L 113.043274 96.63537 
L 112.905144 96.595577 
L 112.767015 96.555785 
L 112.628886 96.515992 
L 112.490757 96.476199 
L 112.352628 96.436407 
L 112.214498 96.396614 
L 112.076369 96.356821 
L 111.93824 96.317029 
L 111.800111 96.277236 
L 111.661982 96.237443 
L 111.523853 96.197651 
L 111.385723 96.157858 
L 111.247594 96.118065 
L 111.109465 96.078273 
L 110.971336 96.03848 
L 110.833207 95.998688 
L 110.695077 95.958895 
L 110.556948 95.919102 
L 110.418819 95.87931 
L 110.28069 95.839517 
L 110.142561 95.799725 
L 110.004432 95.759932 
L 109.866302 95.720139 
L 109.728173 95.680347 
L 109.590044 95.640554 
L 109.451915 95.600762 
L 109.313786 95.560969 
L 109.175657 95.521177 
L 109.037527 95.481384 
L 108.899398 95.441592 
L 108.761269 95.401799 
L 108.62314 95.362007 
L 108.485011 95.322214 
L 108.346881 95.282422 
L 108.208752 95.24263 
L 108.070623 95.202837 
L 107.932494 95.163045 
L 107.794365 95.123253 
L 107.656236 95.083461 
L 107.518106 95.043669 
L 107.379977 95.003877 
L 107.241848 94.964085 
L 107.103719 94.924293 
L 106.96559 94.884501 
L 106.82746 94.84471 
L 106.689331 94.804918 
L 106.551202 94.765127 
L 106.413073 94.725336 
L 106.274944 94.685545 
L 106.136815 94.645754 
L 105.998685 94.605963 
L 105.860556 94.566173 
L 105.722427 94.526382 
L 105.584298 94.486593 
L 105.446169 94.446803 
L 105.30804 94.407014 
L 105.16991 94.367225 
L 105.031781 94.327437 
L 104.893652 94.287649 
L 104.755523 94.247862 
L 104.617394 94.208075 
L 104.479264 94.168289 
L 104.341135 94.128504 
L 104.203006 94.088719 
L 104.064877 94.048936 
L 103.926748 94.009154 
L 103.788619 93.969372 
L 103.650489 93.929592 
L 103.51236 93.889814 
L 103.374231 93.850037 
L 103.236102 93.810262 
L 103.097973 93.770488 
L 102.959843 93.730717 
L 102.821714 93.690948 
L 102.683585 93.651181 
L 102.545456 93.611418 
L 102.407327 93.571657 
L 102.269198 93.531899 
L 102.131068 93.492145 
L 101.992939 93.452394 
L 101.85481 93.412648 
L 101.716681 93.372906 
L 101.578552 93.333169 
L 101.440422 93.293436 
L 101.302293 93.253709 
L 101.164164 93.213987 
L 101.026035 93.174271 
L 100.887906 93.134562 
L 100.749777 93.094858 
L 100.611647 93.055161 
L 100.473518 93.015471 
L 100.335389 92.975787 
L 100.19726 92.93611 
L 100.059131 92.896441 
L 99.921002 92.856778 
L 99.782872 92.817122 
L 99.644743 92.777474 
L 99.506614 92.737832 
L 99.368485 92.698197 
L 99.230356 92.658568 
L 99.092226 92.618946 
L 98.954097 92.57933 
L 98.815968 92.53972 
L 98.677839 92.500115 
L 98.53971 92.460516 
L 98.401581 92.420922 
L 98.263451 92.381333 
L 98.125322 92.341749 
L 97.987193 92.302169 
L 97.849064 92.262594 
L 97.710935 92.223022 
L 97.572805 92.183454 
L 97.434676 92.14389 
L 97.296547 92.10433 
L 97.158418 92.064773 
L 97.020289 92.025219 
L 96.88216 91.985669 
L 96.74403 91.946121 
L 96.605901 91.906577 
L 96.467772 91.867036 
L 96.329643 91.827499 
L 96.191514 91.787964 
L 96.053384 91.748433 
L 95.915255 91.708906 
L 95.777126 91.669382 
L 95.638997 91.629862 
L 95.500868 91.590346 
L 95.362739 91.550834 
L 95.224609 91.511326 
L 95.08648 91.471823 
L 94.948351 91.432325 
L 94.810222 91.392832 
L 94.672093 91.353343 
L 94.533964 91.31386 
L 94.395834 91.274383 
L 94.257705 91.234912 
L 94.119576 91.195446 
L 93.981447 91.155985 
L 93.843318 91.116531 
L 93.705188 91.077082 
L 93.567059 91.037639 
L 93.42893 90.9982 
L 93.290801 90.958766 
L 93.152672 90.919335 
L 93.014543 90.879907 
L 92.876413 90.840481 
L 92.738284 90.801054 
L 92.600155 90.761625 
L 92.462026 90.722192 
L 92.323897 90.682752 
L 92.185767 90.643302 
L 92.047638 90.603837 
L 91.909509 90.564353 
L 91.77138 90.524845 
L 91.633251 90.485308 
L 91.495122 90.445736 
L 91.356992 90.402074 
L 91.218863 90.362374 
L 91.080734 90.322675 
L 90.942605 90.282978 
L 90.804476 90.243282 
L 90.666346 90.203587 
L 90.528217 90.163894 
L 90.390088 90.124202 
L 90.251959 90.084511 
L 90.11383 90.04482 
L 89.975701 90.005131 
L 89.837571 89.965442 
L 89.699442 89.925754 
L 89.561313 89.886067 
L 89.423184 89.84638 
L 89.285055 89.806694 
L 89.146926 89.767008 
L 89.008796 89.727323 
L 88.870667 89.687638 
L 88.732538 89.647953 
L 88.594409 89.608269 
L 88.45628 89.568585 
L 88.31815 89.528901 
L 88.180021 89.489218 
L 88.041892 89.449534 
L 87.903763 89.40985 
L 87.765634 89.370167 
L 87.627505 89.330482 
L 87.489375 89.290798 
L 87.351246 89.251112 
L 87.213117 89.211426 
L 87.074988 89.171739 
L 86.936859 89.13205 
L 86.798729 89.092359 
L 86.6606 89.052665 
L 86.522471 89.012969 
L 86.384342 88.973268 
L 86.246213 88.933563 
L 86.108084 88.893852 
L 85.969954 88.854134 
L 85.831825 88.814408 
L 85.693696 88.774672 
L 85.555567 88.734926 
L 85.417438 88.695169 
L 85.279308 88.6554 
L 85.141179 88.615621 
L 85.00305 88.575834 
L 84.864921 88.536043 
L 84.726792 88.49625 
L 84.588663 88.456457 
L 84.450533 88.416665 
L 84.312404 88.376872 
L 84.174275 88.337079 
L 84.036146 88.297287 
L 83.898017 88.257494 
L 83.759888 88.217701 
L 83.621758 88.177909 
L 83.483629 88.138116 
L 83.3455 88.098323 
L 83.207371 88.058531 
L 83.069242 88.018738 
L 82.931112 87.978945 
L 82.792983 87.939153 
L 82.654854 87.89936 
L 82.516725 87.859567 
L 82.378596 87.819775 
L 82.240467 87.779982 
L 82.102337 87.740189 
L 81.964208 87.700397 
L 81.826079 87.660604 
L 81.68795 87.620811 
L 81.549821 87.581019 
L 81.411691 87.541226 
L 81.273562 87.501433 
L 81.135433 87.461641 
L 80.997304 87.421848 
L 80.859175 87.382055 
L 80.721046 87.342263 
L 80.582916 87.30247 
L 80.444787 87.262677 
L 80.306658 87.222885 
L 80.168529 87.183092 
L 80.0304 87.143299 
L 79.89227 87.103507 
L 79.754141 87.063714 
L 79.616012 87.023921 
L 79.477883 86.984129 
L 79.339754 86.944336 
L 79.201625 86.904543 
L 79.063495 86.864751 
L 78.925366 86.824958 
L 78.787237 86.785165 
L 78.649108 86.745373 
L 78.510979 86.70558 
L 78.37285 86.665787 
L 78.23472 86.625995 
L 78.096591 86.586202 
L 77.958462 86.546409 
L 77.820333 86.506617 
L 77.682204 86.466824 
L 77.544074 86.427031 
L 77.405945 86.387239 
L 77.267816 86.347446 
L 77.129687 86.307653 
L 76.991558 86.267861 
L 76.853429 86.228068 
L 76.715299 86.188275 
L 76.57717 86.148483 
L 76.439041 86.10869 
L 76.300912 86.068897 
L 76.162783 86.029105 
L 76.024653 85.989312 
L 75.886524 85.949519 
L 75.748395 85.909727 
L 75.610266 85.869934 
L 75.472137 85.830141 
L 75.334008 85.790349 
L 75.195878 85.750556 
L 75.057749 85.710763 
L 74.91962 85.670971 
L 74.781491 85.631178 
L 74.643362 85.591385 
L 74.505232 85.551593 
L 74.367103 85.5118 
L 74.228974 85.472007 
L 74.090845 85.432215 
L 73.952716 85.392422 
L 73.814587 85.352629 
L 73.676457 85.312837 
L 73.538328 85.273044 
L 73.400199 85.233251 
L 73.26207 85.193459 
L 73.123941 85.153666 
L 72.985812 85.113873 
L 72.847682 85.074081 
L 72.709553 85.034288 
L 72.571424 84.994495 
L 72.433295 84.954703 
L 72.295166 84.91491 
L 72.157036 84.875117 
L 72.018907 84.835325 
L 71.880778 84.795532 
L 71.742649 84.755739 
L 71.60452 84.715947 
L 71.466391 84.676154 
L 71.328261 84.636361 
L 71.190132 84.596569 
L 71.052003 84.556776 
L 70.913874 84.516983 
L 70.775745 84.477191 
L 70.637615 84.437398 
L 70.499486 84.397605 
L 70.361357 84.357813 
L 70.223228 84.31802 
L 70.085099 84.278227 
L 69.94697 84.238435 
L 69.80884 84.198642 
L 69.670711 84.158849 
L 69.532582 84.119057 
L 69.394453 84.079264 
L 69.256324 84.039471 
L 69.118194 83.999679 
L 68.980065 83.959886 
L 68.841936 83.920093 
L 68.703807 83.880301 
L 68.565678 83.840508 
L 68.427549 83.800715 
L 68.289419 83.760923 
L 68.15129 83.72113 
L 68.013161 83.681337 
L 67.875032 83.641545 
L 67.736903 83.601752 
L 67.598774 83.561959 
L 67.460644 83.522167 
L 67.322515 83.482374 
L 67.184386 83.442581 
L 67.046257 83.402789 
L 66.908128 83.362996 
L 66.769998 83.323203 
L 66.631869 83.283411 
L 66.49374 83.243618 
L 66.355611 83.203825 
L 66.217482 83.164033 
L 66.079353 83.12424 
L 65.941223 83.084447 
L 65.803094 83.044655 
L 65.664965 83.004862 
L 65.526836 82.965069 
L 65.388707 82.925277 
L 65.250577 82.885484 
L 65.112448 82.845691 
L 64.974319 82.805899 
L 64.83619 82.766106 
L 64.698061 82.726313 
L 64.559932 82.686521 
L 64.421802 82.646728 
L 64.283673 82.606935 
L 64.145544 82.567143 
L 64.007415 82.52735 
L 63.869286 82.487557 
L 63.731157 82.447765 
L 63.593027 82.407972 
L 63.454898 82.368179 
L 63.316769 82.328387 
L 63.17864 82.288594 
L 63.040511 82.248801 
L 62.902381 82.209009 
L 62.764252 82.169216 
L 62.626123 82.129423 
L 62.487994 82.089631 
L 62.349865 82.049838 
L 62.211736 82.010045 
L 62.073606 81.970253 
L 61.935477 81.93046 
L 61.797348 81.890667 
L 61.659219 81.850875 
L 61.52109 81.811082 
L 61.38296 81.771289 
L 61.244831 81.731497 
L 61.106702 81.691704 
L 60.968573 81.651911 
L 60.830444 81.612119 
L 60.692315 81.572326 
L 60.554185 81.532533 
L 60.416056 81.492741 
L 60.277927 81.452948 
L 60.139798 81.413155 
L 60.001669 81.373363 
L 59.863539 81.33357 
L 59.72541 81.293777 
L 59.587281 81.253985 
L 59.449152 81.214192 
L 59.311023 81.1744 
L 59.172894 81.134607 
L 59.034764 81.094814 
L 58.896635 81.055022 
L 58.758506 81.015229 
L 58.620377 80.975437 
L 58.482248 80.935644 
L 58.344119 80.895851 
L 58.205989 80.856059 
L 58.06786 80.816266 
L 57.929731 80.776474 
L 57.791602 80.736681 
L 57.653473 80.696889 
L 57.515343 80.657096 
L 57.377214 80.617304 
L 57.239085 80.577511 
L 57.100956 80.537719 
L 56.962827 80.497927 
L 56.824698 80.458135 
L 56.686568 80.418343 
L 56.548439 80.378551 
L 56.41031 80.338759 
L 56.272181 80.298967 
L 56.134052 80.259176 
L 55.995922 80.219386 
L 55.857793 80.179597 
L 55.719664 80.13981 
L 55.581535 80.100028 
L 55.443406 80.060253 
L 55.305277 80.020492 
L 55.167147 79.980759 
L 55.029018 79.941077 
L 54.890889 79.901492 
L 54.75276 79.862092 
L 54.614631 79.823046 
L 54.476501 79.784668 
L 54.338372 79.74754 
L 54.200243 79.712704 
L 54.062114 79.681953 
L 53.923985 79.658169 
L 53.785856 79.645538 
L 53.647726 79.6493 
L 53.509597 79.674721 
L 53.371468 79.725551 
L 53.233339 79.802916 
L 53.09521 79.905396 
L 52.957081 80.030025 
L 52.818951 80.173382 
L 52.680822 80.332279 
L 52.542693 80.504027 
L 52.404564 80.686462 
L 52.266435 80.87787 
L 52.128305 81.076889 
L 51.990176 81.282427 
L 51.852047 81.493596 
L 51.713918 81.709663 
L 51.575789 81.930015 
L 51.43766 82.154133 
L 51.29953 82.381572 
L 51.161401 82.611953 
L 51.023272 82.844949 
L 50.885143 83.08028 
L 50.747014 83.317712 
L 50.608884 83.557048 
L 50.470755 83.798132 
L 50.332626 84.040849 
L 50.194497 84.285126 
L 50.056368 84.530937 
L 49.918239 84.778304 
L 49.780109 85.02731 
L 49.64198 85.278104 
L 49.503851 85.530909 
L 49.365722 85.786043 
L 49.227593 86.043923 
L 49.089463 86.305091 
L 48.951334 86.570229 
L 48.813205 86.840184 
L 48.675076 87.115987 
L 48.536947 87.398886 
L 48.398818 87.690366 
L 48.260688 87.99218 
L 48.122559 88.306373 
L 47.98443 88.635301 
L 47.846301 88.981648 
L 47.708172 89.348463 
L 47.570043 89.739265 
L 47.431913 90.158402 
L 47.293784 90.611973 
L 47.155655 91.109685 
L 47.017526 91.667648 
L 46.879397 92.311439 
L 46.741267 93.079057 
L 46.603138 94.026105 
L 46.465009 95.240096 
L 46.32688 96.879968 
L 46.188751 99.29938 
L 46.050622 103.625247 
L 45.912492 3910.42875 
z
" clip-path="url(#p08c964a743)" style="fill: #8c8c8c; fill-opacity: 0.7"/>
   </g>
   <g id="patch_3">
    <path d="M 45.912492 92.67875 
L 45.912492 16.32375 
" style="fill: none; stroke: #262626; stroke-linejoin: miter; stroke-linecap: square"/>
   </g>
   <g id="patch_4">
    <path d="M 128.79 92.67875 
L 128.79 16.32375 
" style="fill: none; stroke: #262626; stroke-linejoin: miter; stroke-linecap: square"/>
   </g>
   <g id="patch_5">
    <path d="M 45.912492 92.67875 
L 128.79 92.67875 
" style="fill: none; stroke: #262626; stroke-linejoin: miter; stroke-linecap: square"/>
   </g>
   <g id="patch_6">
    <path d="M 45.912492 16.32375 
L 128.79 16.32375 
" style="fill: none; stroke: #262626; stroke-linejoin: miter; stroke-linecap: square"/>
   </g>
  </g>
 </g>
 <defs>
  <clipPath id="p08c964a743">
   <rect x="45.912492" y="16.32375" width="82.877508" height="76.355"/>
  </clipPath>
 </defs>
</svg>
