<?xml version="1.0" encoding="utf-8" standalone="no"?>
<!DOCTYPE svg PUBLIC "-//W3C//DTD SVG 1.1//EN"
  "http://www.w3.org/Graphics/SVG/1.1/DTD/svg11.dtd">
<svg xmlns:xlink="http://www.w3.org/1999/xlink" width="144pt" height="129.6pt" viewBox="0 0 144 129.6" xmlns="http://www.w3.org/2000/svg" version="1.1">
 <metadata>
  <rdf:RDF xmlns:dc="http://purl.org/dc/elements/1.1/" xmlns:cc="http://creativecommons.org/ns#" xmlns:rdf="http://www.w3.org/1999/02/22-rdf-syntax-ns#">
   <cc:Work>
    <dc:type rdf:resource="http://purl.org/dc/dcmitype/StillImage"/>
    <dc:date>2022-11-02T11:50:30.784551</dc:date>
    <dc:format>image/svg+xml</dc:format>
    <dc:creator>
     <cc:Agent>
      <dc:title>Matplotlib v3.5.1, https://matplotlib.org/</dc:title>
     </cc:Agent>
    </dc:creator>
   </cc:Work>
  </rdf:RDF>
 </metadata>
 <defs>
  <style type="text/css">*{stroke-linejoin: round; stroke-linecap: butt}</style>
 </defs>
 <g id="figure_1">
  <g id="patch_1">
   <path d="M 0 129.6 
L 144 129.6 
L 144 0 
L 0 0 
z
" style="fill: #ffffff"/>
  </g>
  <g id="axes_1">
   <g id="patch_2">
    <path d="M 45.912492 92.67875 
L 128.79 92.67875 
L 128.79 16.32375 
L 45.912492 16.32375 
z
" style="fill: #ffffff"/>
   </g>
   <g id="matplotlib.axis_1">
    <g id="xtick_1">
     <g id="line2d_1">
      <defs>
       <path id="m18d9c83d80" d="M 0 0 
L 0 4 
" style="stroke: #262626; stroke-width: 0.8"/>
      </defs>
      <g>
       <use xlink:href="#m18d9c83d80" x="45.912492" y="92.67875" style="fill: #262626; stroke: #262626; stroke-width: 0.8"/>
      </g>
     </g>
     <g id="text_1">
      <!-- 0 -->
      <g style="fill: #262626" transform="translate(43.688117 104.405)scale(0.08 -0.08)">
       <defs>
        <path id="ArialMT-30" d="M 266 2259 
Q 266 3072 433 3567 
Q 600 4063 929 4331 
Q 1259 4600 1759 4600 
Q 2128 4600 2406 4451 
Q 2684 4303 2865 4023 
Q 3047 3744 3150 3342 
Q 3253 2941 3253 2259 
Q 3253 1453 3087 958 
Q 2922 463 2592 192 
Q 2263 -78 1759 -78 
Q 1097 -78 719 397 
Q 266 969 266 2259 
z
M 844 2259 
Q 844 1131 1108 757 
Q 1372 384 1759 384 
Q 2147 384 2411 759 
Q 2675 1134 2675 2259 
Q 2675 3391 2411 3762 
Q 2147 4134 1753 4134 
Q 1366 4134 1134 3806 
Q 844 3388 844 2259 
z
" transform="scale(0.015625)"/>
       </defs>
       <use xlink:href="#ArialMT-30"/>
      </g>
     </g>
    </g>
    <g id="xtick_2">
     <g id="line2d_2">
      <g>
       <use xlink:href="#m18d9c83d80" x="87.351246" y="92.67875" style="fill: #262626; stroke: #262626; stroke-width: 0.8"/>
      </g>
     </g>
     <g id="text_2">
      <!-- 30 -->
      <g style="fill: #262626" transform="translate(82.902496 104.405)scale(0.08 -0.08)">
       <defs>
        <path id="ArialMT-33" d="M 269 1209 
L 831 1284 
Q 928 806 1161 595 
Q 1394 384 1728 384 
Q 2125 384 2398 659 
Q 2672 934 2672 1341 
Q 2672 1728 2419 1979 
Q 2166 2231 1775 2231 
Q 1616 2231 1378 2169 
L 1441 2663 
Q 1497 2656 1531 2656 
Q 1891 2656 2178 2843 
Q 2466 3031 2466 3422 
Q 2466 3731 2256 3934 
Q 2047 4138 1716 4138 
Q 1388 4138 1169 3931 
Q 950 3725 888 3313 
L 325 3413 
Q 428 3978 793 4289 
Q 1159 4600 1703 4600 
Q 2078 4600 2393 4439 
Q 2709 4278 2876 4000 
Q 3044 3722 3044 3409 
Q 3044 3113 2884 2869 
Q 2725 2625 2413 2481 
Q 2819 2388 3044 2092 
Q 3269 1797 3269 1353 
Q 3269 753 2831 336 
Q 2394 -81 1725 -81 
Q 1122 -81 723 278 
Q 325 638 269 1209 
z
" transform="scale(0.015625)"/>
       </defs>
       <use xlink:href="#ArialMT-33"/>
       <use xlink:href="#ArialMT-30" x="55.615234"/>
      </g>
     </g>
    </g>
    <g id="xtick_3">
     <g id="line2d_3">
      <g>
       <use xlink:href="#m18d9c83d80" x="128.79" y="92.67875" style="fill: #262626; stroke: #262626; stroke-width: 0.8"/>
      </g>
     </g>
     <g id="text_3">
      <!-- 60 -->
      <g style="fill: #262626" transform="translate(124.34125 104.405)scale(0.08 -0.08)">
       <defs>
        <path id="ArialMT-36" d="M 3184 3459 
L 2625 3416 
Q 2550 3747 2413 3897 
Q 2184 4138 1850 4138 
Q 1581 4138 1378 3988 
Q 1113 3794 959 3422 
Q 806 3050 800 2363 
Q 1003 2672 1297 2822 
Q 1591 2972 1913 2972 
Q 2475 2972 2870 2558 
Q 3266 2144 3266 1488 
Q 3266 1056 3080 686 
Q 2894 316 2569 119 
Q 2244 -78 1831 -78 
Q 1128 -78 684 439 
Q 241 956 241 2144 
Q 241 3472 731 4075 
Q 1159 4600 1884 4600 
Q 2425 4600 2770 4297 
Q 3116 3994 3184 3459 
z
M 888 1484 
Q 888 1194 1011 928 
Q 1134 663 1356 523 
Q 1578 384 1822 384 
Q 2178 384 2434 671 
Q 2691 959 2691 1453 
Q 2691 1928 2437 2201 
Q 2184 2475 1800 2475 
Q 1419 2475 1153 2201 
Q 888 1928 888 1484 
z
" transform="scale(0.015625)"/>
       </defs>
       <use xlink:href="#ArialMT-36"/>
       <use xlink:href="#ArialMT-30" x="55.615234"/>
      </g>
     </g>
    </g>
    <g id="text_4">
     <!-- time (d) -->
     <g style="fill: #262626" transform="translate(72.101168 116.546719)scale(0.09 -0.09)">
      <defs>
       <path id="ArialMT-74" d="M 1650 503 
L 1731 6 
Q 1494 -44 1306 -44 
Q 1000 -44 831 53 
Q 663 150 594 308 
Q 525 466 525 972 
L 525 2881 
L 113 2881 
L 113 3319 
L 525 3319 
L 525 4141 
L 1084 4478 
L 1084 3319 
L 1650 3319 
L 1650 2881 
L 1084 2881 
L 1084 941 
Q 1084 700 1114 631 
Q 1144 563 1211 522 
Q 1278 481 1403 481 
Q 1497 481 1650 503 
z
" transform="scale(0.015625)"/>
       <path id="ArialMT-69" d="M 425 3934 
L 425 4581 
L 988 4581 
L 988 3934 
L 425 3934 
z
M 425 0 
L 425 3319 
L 988 3319 
L 988 0 
L 425 0 
z
" transform="scale(0.015625)"/>
       <path id="ArialMT-6d" d="M 422 0 
L 422 3319 
L 925 3319 
L 925 2853 
Q 1081 3097 1340 3245 
Q 1600 3394 1931 3394 
Q 2300 3394 2536 3241 
Q 2772 3088 2869 2813 
Q 3263 3394 3894 3394 
Q 4388 3394 4653 3120 
Q 4919 2847 4919 2278 
L 4919 0 
L 4359 0 
L 4359 2091 
Q 4359 2428 4304 2576 
Q 4250 2725 4106 2815 
Q 3963 2906 3769 2906 
Q 3419 2906 3187 2673 
Q 2956 2441 2956 1928 
L 2956 0 
L 2394 0 
L 2394 2156 
Q 2394 2531 2256 2718 
Q 2119 2906 1806 2906 
Q 1569 2906 1367 2781 
Q 1166 2656 1075 2415 
Q 984 2175 984 1722 
L 984 0 
L 422 0 
z
" transform="scale(0.015625)"/>
       <path id="ArialMT-65" d="M 2694 1069 
L 3275 997 
Q 3138 488 2766 206 
Q 2394 -75 1816 -75 
Q 1088 -75 661 373 
Q 234 822 234 1631 
Q 234 2469 665 2931 
Q 1097 3394 1784 3394 
Q 2450 3394 2872 2941 
Q 3294 2488 3294 1666 
Q 3294 1616 3291 1516 
L 816 1516 
Q 847 969 1125 678 
Q 1403 388 1819 388 
Q 2128 388 2347 550 
Q 2566 713 2694 1069 
z
M 847 1978 
L 2700 1978 
Q 2663 2397 2488 2606 
Q 2219 2931 1791 2931 
Q 1403 2931 1139 2672 
Q 875 2413 847 1978 
z
" transform="scale(0.015625)"/>
       <path id="ArialMT-20" transform="scale(0.015625)"/>
       <path id="ArialMT-28" d="M 1497 -1347 
Q 1031 -759 709 28 
Q 388 816 388 1659 
Q 388 2403 628 3084 
Q 909 3875 1497 4659 
L 1900 4659 
Q 1522 4009 1400 3731 
Q 1209 3300 1100 2831 
Q 966 2247 966 1656 
Q 966 153 1900 -1347 
L 1497 -1347 
z
" transform="scale(0.015625)"/>
       <path id="ArialMT-64" d="M 2575 0 
L 2575 419 
Q 2259 -75 1647 -75 
Q 1250 -75 917 144 
Q 584 363 401 755 
Q 219 1147 219 1656 
Q 219 2153 384 2558 
Q 550 2963 881 3178 
Q 1213 3394 1622 3394 
Q 1922 3394 2156 3267 
Q 2391 3141 2538 2938 
L 2538 4581 
L 3097 4581 
L 3097 0 
L 2575 0 
z
M 797 1656 
Q 797 1019 1065 703 
Q 1334 388 1700 388 
Q 2069 388 2326 689 
Q 2584 991 2584 1609 
Q 2584 2291 2321 2609 
Q 2059 2928 1675 2928 
Q 1300 2928 1048 2622 
Q 797 2316 797 1656 
z
" transform="scale(0.015625)"/>
       <path id="ArialMT-29" d="M 791 -1347 
L 388 -1347 
Q 1322 153 1322 1656 
Q 1322 2244 1188 2822 
Q 1081 3291 891 3722 
Q 769 4003 388 4659 
L 791 4659 
Q 1378 3875 1659 3084 
Q 1900 2403 1900 1659 
Q 1900 816 1576 28 
Q 1253 -759 791 -1347 
z
" transform="scale(0.015625)"/>
      </defs>
      <use xlink:href="#ArialMT-74"/>
      <use xlink:href="#ArialMT-69" x="27.783203"/>
      <use xlink:href="#ArialMT-6d" x="50"/>
      <use xlink:href="#ArialMT-65" x="133.300781"/>
      <use xlink:href="#ArialMT-20" x="188.916016"/>
      <use xlink:href="#ArialMT-28" x="216.699219"/>
      <use xlink:href="#ArialMT-64" x="250"/>
      <use xlink:href="#ArialMT-29" x="305.615234"/>
     </g>
    </g>
   </g>
   <g id="matplotlib.axis_2">
    <g id="ytick_1">
     <g id="line2d_4">
      <defs>
       <path id="m34c28461a2" d="M 0 0 
L -4 0 
" style="stroke: #262626; stroke-width: 0.8"/>
      </defs>
      <g>
       <use xlink:href="#m34c28461a2" x="45.912492" y="92.67875" style="fill: #262626; stroke: #262626; stroke-width: 0.8"/>
      </g>
     </g>
     <g id="text_5">
      <!-- $\mathdefault{10^{0}}$ -->
      <g style="fill: #262626" transform="translate(27.352492 96.80375)scale(0.08 -0.08)">
       <defs>
        <path id="ArialMT-31" d="M 2384 0 
L 1822 0 
L 1822 3584 
Q 1619 3391 1289 3197 
Q 959 3003 697 2906 
L 697 3450 
Q 1169 3672 1522 3987 
Q 1875 4303 2022 4600 
L 2384 4600 
L 2384 0 
z
" transform="scale(0.015625)"/>
       </defs>
       <use xlink:href="#ArialMT-31" transform="translate(0 0.99375)"/>
       <use xlink:href="#ArialMT-30" transform="translate(55.615234 0.99375)"/>
       <use xlink:href="#ArialMT-30" transform="translate(112.972813 70.6875)scale(0.7)"/>
      </g>
     </g>
    </g>
    <g id="ytick_2">
     <g id="line2d_5">
      <g>
       <use xlink:href="#m34c28461a2" x="45.912492" y="69.77225" style="fill: #262626; stroke: #262626; stroke-width: 0.8"/>
      </g>
     </g>
     <g id="text_6">
      <!-- $\mathdefault{10^{6}}$ -->
      <g style="fill: #262626" transform="translate(27.352492 73.89725)scale(0.08 -0.08)">
       <use xlink:href="#ArialMT-31" transform="translate(0 0.99375)"/>
       <use xlink:href="#ArialMT-30" transform="translate(55.615234 0.99375)"/>
       <use xlink:href="#ArialMT-36" transform="translate(112.972813 70.6875)scale(0.7)"/>
      </g>
     </g>
    </g>
    <g id="ytick_3">
     <g id="line2d_6">
      <g>
       <use xlink:href="#m34c28461a2" x="45.912492" y="46.86575" style="fill: #262626; stroke: #262626; stroke-width: 0.8"/>
      </g>
     </g>
     <g id="text_7">
      <!-- $\mathdefault{10^{12}}$ -->
      <g style="fill: #262626" transform="translate(24.232492 50.99075)scale(0.08 -0.08)">
       <defs>
        <path id="ArialMT-32" d="M 3222 541 
L 3222 0 
L 194 0 
Q 188 203 259 391 
Q 375 700 629 1000 
Q 884 1300 1366 1694 
Q 2113 2306 2375 2664 
Q 2638 3022 2638 3341 
Q 2638 3675 2398 3904 
Q 2159 4134 1775 4134 
Q 1369 4134 1125 3890 
Q 881 3647 878 3216 
L 300 3275 
Q 359 3922 746 4261 
Q 1134 4600 1788 4600 
Q 2447 4600 2831 4234 
Q 3216 3869 3216 3328 
Q 3216 3053 3103 2787 
Q 2991 2522 2730 2228 
Q 2469 1934 1863 1422 
Q 1356 997 1212 845 
Q 1069 694 975 541 
L 3222 541 
z
" transform="scale(0.015625)"/>
       </defs>
       <use xlink:href="#ArialMT-31" transform="translate(0 0.99375)"/>
       <use xlink:href="#ArialMT-30" transform="translate(55.615234 0.99375)"/>
       <use xlink:href="#ArialMT-31" transform="translate(112.972813 70.6875)scale(0.7)"/>
       <use xlink:href="#ArialMT-32" transform="translate(151.903477 70.6875)scale(0.7)"/>
      </g>
     </g>
    </g>
    <g id="ytick_4">
     <g id="line2d_7">
      <g>
       <use xlink:href="#m34c28461a2" x="45.912492" y="23.95925" style="fill: #262626; stroke: #262626; stroke-width: 0.8"/>
      </g>
     </g>
     <g id="text_8">
      <!-- $\mathdefault{10^{18}}$ -->
      <g style="fill: #262626" transform="translate(24.232492 28.08425)scale(0.08 -0.08)">
       <defs>
        <path id="ArialMT-38" d="M 1131 2484 
Q 781 2613 612 2850 
Q 444 3088 444 3419 
Q 444 3919 803 4259 
Q 1163 4600 1759 4600 
Q 2359 4600 2725 4251 
Q 3091 3903 3091 3403 
Q 3091 3084 2923 2848 
Q 2756 2613 2416 2484 
Q 2838 2347 3058 2040 
Q 3278 1734 3278 1309 
Q 3278 722 2862 322 
Q 2447 -78 1769 -78 
Q 1091 -78 675 323 
Q 259 725 259 1325 
Q 259 1772 486 2073 
Q 713 2375 1131 2484 
z
M 1019 3438 
Q 1019 3113 1228 2906 
Q 1438 2700 1772 2700 
Q 2097 2700 2305 2904 
Q 2513 3109 2513 3406 
Q 2513 3716 2298 3927 
Q 2084 4138 1766 4138 
Q 1444 4138 1231 3931 
Q 1019 3725 1019 3438 
z
M 838 1322 
Q 838 1081 952 856 
Q 1066 631 1291 507 
Q 1516 384 1775 384 
Q 2178 384 2440 643 
Q 2703 903 2703 1303 
Q 2703 1709 2433 1975 
Q 2163 2241 1756 2241 
Q 1359 2241 1098 1978 
Q 838 1716 838 1322 
z
" transform="scale(0.015625)"/>
       </defs>
       <use xlink:href="#ArialMT-31" transform="translate(0 0.99375)"/>
       <use xlink:href="#ArialMT-30" transform="translate(55.615234 0.99375)"/>
       <use xlink:href="#ArialMT-31" transform="translate(112.972813 70.6875)scale(0.7)"/>
       <use xlink:href="#ArialMT-38" transform="translate(151.903477 70.6875)scale(0.7)"/>
      </g>
     </g>
    </g>
    <g id="text_9">
     <!-- cells -->
     <g style="fill: #262626" transform="translate(18.443742 63.503359)rotate(-90)scale(0.09 -0.09)">
      <defs>
       <path id="ArialMT-63" d="M 2588 1216 
L 3141 1144 
Q 3050 572 2676 248 
Q 2303 -75 1759 -75 
Q 1078 -75 664 370 
Q 250 816 250 1647 
Q 250 2184 428 2587 
Q 606 2991 970 3192 
Q 1334 3394 1763 3394 
Q 2303 3394 2647 3120 
Q 2991 2847 3088 2344 
L 2541 2259 
Q 2463 2594 2264 2762 
Q 2066 2931 1784 2931 
Q 1359 2931 1093 2626 
Q 828 2322 828 1663 
Q 828 994 1084 691 
Q 1341 388 1753 388 
Q 2084 388 2306 591 
Q 2528 794 2588 1216 
z
" transform="scale(0.015625)"/>
       <path id="ArialMT-6c" d="M 409 0 
L 409 4581 
L 972 4581 
L 972 0 
L 409 0 
z
" transform="scale(0.015625)"/>
       <path id="ArialMT-73" d="M 197 991 
L 753 1078 
Q 800 744 1014 566 
Q 1228 388 1613 388 
Q 2000 388 2187 545 
Q 2375 703 2375 916 
Q 2375 1106 2209 1216 
Q 2094 1291 1634 1406 
Q 1016 1563 777 1677 
Q 538 1791 414 1992 
Q 291 2194 291 2438 
Q 291 2659 392 2848 
Q 494 3038 669 3163 
Q 800 3259 1026 3326 
Q 1253 3394 1513 3394 
Q 1903 3394 2198 3281 
Q 2494 3169 2634 2976 
Q 2775 2784 2828 2463 
L 2278 2388 
Q 2241 2644 2061 2787 
Q 1881 2931 1553 2931 
Q 1166 2931 1000 2803 
Q 834 2675 834 2503 
Q 834 2394 903 2306 
Q 972 2216 1119 2156 
Q 1203 2125 1616 2013 
Q 2213 1853 2448 1751 
Q 2684 1650 2818 1456 
Q 2953 1263 2953 975 
Q 2953 694 2789 445 
Q 2625 197 2315 61 
Q 2006 -75 1616 -75 
Q 969 -75 630 194 
Q 291 463 197 991 
z
" transform="scale(0.015625)"/>
      </defs>
      <use xlink:href="#ArialMT-63"/>
      <use xlink:href="#ArialMT-65" x="50"/>
      <use xlink:href="#ArialMT-6c" x="105.615234"/>
      <use xlink:href="#ArialMT-6c" x="127.832031"/>
      <use xlink:href="#ArialMT-73" x="150.048828"/>
     </g>
    </g>
   </g>
   <g id="PolyCollection_1">
    <path d="M 45.912492 3910.42875 
L 45.912492 3910.42875 
L 46.050622 102.105829 
L 46.188751 97.768758 
L 46.32688 95.309802 
L 46.465009 93.611528 
L 46.603138 92.328396 
L 46.741267 91.305334 
L 46.879397 90.45895 
L 47.017526 89.739214 
L 47.155655 89.113739 
L 47.293784 88.560341 
L 47.431913 88.063155 
L 47.570043 87.610438 
L 47.708172 87.193265 
L 47.846301 86.804703 
L 47.98443 86.439281 
L 48.122559 86.092623 
L 48.260688 85.761196 
L 48.398818 85.442132 
L 48.536947 85.13309 
L 48.675076 84.832155 
L 48.813205 84.537761 
L 48.951334 84.248629 
L 49.089463 83.963715 
L 49.227593 83.682169 
L 49.365722 83.403303 
L 49.503851 83.126559 
L 49.64198 82.851492 
L 49.780109 82.577743 
L 49.918239 82.305025 
L 50.056368 82.033112 
L 50.194497 81.761826 
L 50.332626 81.491025 
L 50.470755 81.220598 
L 50.608884 80.95046 
L 50.747014 80.680544 
L 50.885143 80.410797 
L 51.023272 80.14118 
L 51.161401 79.871662 
L 51.29953 79.60222 
L 51.43766 79.332837 
L 51.575789 79.063499 
L 51.713918 78.794196 
L 51.852047 78.524921 
L 51.990176 78.255671 
L 52.128305 77.986443 
L 52.266435 77.717237 
L 52.404564 77.448057 
L 52.542693 77.178912 
L 52.680822 76.909824 
L 52.818951 76.640843 
L 52.957081 76.372116 
L 53.09521 76.104227 
L 53.233339 75.841443 
L 53.371468 75.657244 
L 53.509597 75.680125 
L 53.647726 75.719887 
L 53.785856 75.759677 
L 53.923985 75.799468 
L 54.062114 75.839259 
L 54.200243 75.87905 
L 54.338372 75.918841 
L 54.476501 75.958633 
L 54.614631 75.998424 
L 54.75276 76.013032 
L 54.890889 75.743838 
L 55.029018 75.474581 
L 55.167147 75.205324 
L 55.305277 74.936066 
L 55.443406 74.666809 
L 55.581535 74.397552 
L 55.719664 74.128294 
L 55.857793 73.859037 
L 55.995922 73.58978 
L 56.134052 73.320522 
L 56.272181 73.051265 
L 56.41031 72.782008 
L 56.548439 72.512751 
L 56.686568 72.243493 
L 56.824698 71.974236 
L 56.962827 71.704979 
L 57.100956 71.435722 
L 57.239085 71.166464 
L 57.377214 70.897207 
L 57.515343 70.62795 
L 57.653473 70.358693 
L 57.791602 70.089435 
L 57.929731 69.820178 
L 58.06786 69.550921 
L 58.205989 69.457643 
L 58.344119 69.494777 
L 58.482248 69.533209 
L 58.620377 69.572296 
L 58.758506 69.61172 
L 58.896635 69.593616 
L 59.034764 69.324359 
L 59.172894 69.055101 
L 59.311023 68.785844 
L 59.449152 68.516587 
L 59.587281 68.24733 
L 59.72541 67.978072 
L 59.863539 67.708815 
L 60.001669 67.439558 
L 60.139798 67.170301 
L 60.277927 66.901043 
L 60.416056 66.631786 
L 60.554185 66.362529 
L 60.692315 66.093272 
L 60.830444 65.824014 
L 60.968573 65.554757 
L 61.106702 65.2855 
L 61.244831 65.016243 
L 61.38296 64.746985 
L 61.52109 64.477728 
L 61.659219 64.208471 
L 61.797348 63.939214 
L 61.935477 63.669956 
L 62.073606 63.400699 
L 62.211736 63.131442 
L 62.349865 63.0933 
L 62.487994 63.130626 
L 62.626123 63.169155 
L 62.764252 63.208291 
L 62.902381 63.24774 
L 63.040511 63.287351 
L 63.17864 63.327046 
L 63.316769 63.366787 
L 63.454898 63.406552 
L 63.593027 63.291814 
L 63.731157 63.022556 
L 63.869286 62.753299 
L 64.007415 62.484042 
L 64.145544 62.214785 
L 64.283673 61.945527 
L 64.421802 61.67627 
L 64.559932 61.407013 
L 64.698061 61.137756 
L 64.83619 60.868498 
L 64.974319 60.599241 
L 65.112448 60.329984 
L 65.250577 60.060727 
L 65.388707 59.791469 
L 65.526836 59.522212 
L 65.664965 59.252955 
L 65.803094 58.983698 
L 65.941223 58.71444 
L 66.079353 58.445183 
L 66.217482 58.175926 
L 66.355611 57.906669 
L 66.49374 57.637411 
L 66.631869 57.368154 
L 66.769998 57.098897 
L 66.908128 56.845745 
L 67.046257 56.881552 
L 67.184386 56.919321 
L 67.322515 56.958073 
L 67.460644 56.997324 
L 67.598774 57.036831 
L 67.736903 57.076473 
L 67.875032 57.116185 
L 68.013161 57.155935 
L 68.15129 57.195704 
L 68.289419 57.235484 
L 68.427549 57.27527 
L 68.565678 57.315059 
L 68.703807 57.35485 
L 68.841936 57.394641 
L 68.980065 57.434433 
L 69.118194 57.474226 
L 69.256324 57.514018 
L 69.394453 57.553811 
L 69.532582 57.593603 
L 69.670711 57.633396 
L 69.80884 57.673189 
L 69.94697 57.712981 
L 70.085099 57.752774 
L 70.223228 57.792566 
L 70.361357 57.832359 
L 70.499486 57.872152 
L 70.637615 57.911944 
L 70.775745 57.951737 
L 70.913874 57.99153 
L 71.052003 58.031322 
L 71.190132 58.04419 
L 71.328261 57.774932 
L 71.466391 57.505675 
L 71.60452 57.236418 
L 71.742649 56.96716 
L 71.880778 56.697903 
L 72.018907 56.428646 
L 72.157036 56.159389 
L 72.295166 55.890131 
L 72.433295 55.620874 
L 72.571424 55.351617 
L 72.709553 55.08236 
L 72.847682 54.813102 
L 72.985812 54.543845 
L 73.123941 54.274588 
L 73.26207 54.005331 
L 73.400199 53.736073 
L 73.538328 53.466816 
L 73.676457 53.197559 
L 73.814587 52.928302 
L 73.952716 52.659044 
L 74.090845 52.389787 
L 74.228974 52.12053 
L 74.367103 51.851273 
L 74.505232 51.582015 
L 74.643362 51.51414 
L 74.781491 51.551295 
L 74.91962 51.589737 
L 75.057749 51.628829 
L 75.195878 51.668255 
L 75.334008 51.707854 
L 75.472137 51.747544 
L 75.610266 51.787281 
L 75.748395 51.827044 
L 75.886524 51.866821 
L 76.024653 51.906605 
L 76.162783 51.946393 
L 76.300912 51.986183 
L 76.439041 52.025974 
L 76.57717 52.065766 
L 76.715299 52.105558 
L 76.853429 52.145351 
L 76.991558 52.185143 
L 77.129687 52.224936 
L 77.267816 52.264728 
L 77.405945 52.304521 
L 77.544074 52.344314 
L 77.682204 52.384106 
L 77.820333 52.423899 
L 77.958462 52.463692 
L 78.096591 52.503484 
L 78.23472 52.543277 
L 78.37285 52.58307 
L 78.510979 52.622862 
L 78.649108 52.662655 
L 78.787237 52.702448 
L 78.925366 52.74224 
L 79.063495 52.782033 
L 79.201625 52.54766 
L 79.339754 52.278403 
L 79.477883 52.009145 
L 79.616012 51.739888 
L 79.754141 51.470631 
L 79.89227 51.201374 
L 80.0304 50.932116 
L 80.168529 50.662859 
L 80.306658 50.393602 
L 80.444787 50.124345 
L 80.582916 49.855087 
L 80.721046 49.58583 
L 80.859175 49.316573 
L 80.997304 49.047316 
L 81.135433 48.778058 
L 81.273562 48.481875 
L 81.411691 48.212618 
L 81.549821 47.943361 
L 81.68795 47.674104 
L 81.826079 47.404846 
L 81.964208 47.135589 
L 82.102337 46.866332 
L 82.240467 46.597075 
L 82.378596 46.327817 
L 82.516725 46.05856 
L 82.654854 45.789303 
L 82.792983 45.520046 
L 82.931112 45.250788 
L 83.069242 44.981531 
L 83.207371 44.712274 
L 83.3455 44.443017 
L 83.483629 44.173759 
L 83.621758 43.904502 
L 83.759888 43.635245 
L 83.898017 43.365988 
L 84.036146 43.09673 
L 84.174275 42.827473 
L 84.312404 42.558216 
L 84.450533 42.288959 
L 84.588663 42.019701 
L 84.726792 41.750444 
L 84.864921 41.481187 
L 85.00305 41.21193 
L 85.141179 40.942672 
L 85.279308 40.673415 
L 85.417438 40.404158 
L 85.555567 40.134901 
L 85.693696 39.865643 
L 85.831825 39.596386 
L 85.969954 39.327129 
L 86.108084 39.057872 
L 86.246213 38.788614 
L 86.384342 38.519357 
L 86.522471 38.2501 
L 86.6606 37.980843 
L 86.798729 37.711585 
L 86.936859 37.442328 
L 87.074988 37.173071 
L 87.213117 36.903814 
L 87.351246 36.634556 
L 87.489375 36.365299 
L 87.627505 36.096042 
L 87.765634 35.826785 
L 87.903763 35.557527 
L 88.041892 35.28827 
L 88.180021 35.019013 
L 88.31815 34.749756 
L 88.45628 34.480498 
L 88.594409 34.211241 
L 88.732538 33.941984 
L 88.870667 33.672727 
L 89.008796 33.403469 
L 89.146926 33.134212 
L 89.285055 32.864955 
L 89.423184 32.595698 
L 89.561313 32.32644 
L 89.699442 32.057183 
L 89.837571 31.787926 
L 89.975701 31.518669 
L 90.11383 31.249411 
L 90.251959 30.980154 
L 90.390088 30.710897 
L 90.528217 30.44164 
L 90.666346 30.172382 
L 90.804476 29.903125 
L 90.942605 29.633868 
L 91.080734 29.364611 
L 91.218863 29.095353 
L 91.356992 28.826096 
L 91.495122 28.556839 
L 91.633251 28.287582 
L 91.77138 28.018324 
L 91.909509 27.749067 
L 92.047638 27.47981 
L 92.185767 27.210553 
L 92.323897 26.941295 
L 92.462026 26.672038 
L 92.600155 26.402781 
L 92.738284 26.133524 
L 92.876413 25.864266 
L 93.014543 25.595009 
L 93.152672 25.325752 
L 93.290801 25.056495 
L 93.42893 24.787237 
L 93.567059 24.51798 
L 93.705188 24.248723 
L 93.843318 23.979466 
L 93.981447 23.710208 
L 94.119576 23.440951 
L 94.257705 23.171694 
L 94.395834 22.902437 
L 94.533964 22.633179 
L 94.672093 22.363922 
L 94.810222 22.094665 
L 94.948351 21.825408 
L 95.08648 21.55615 
L 95.224609 21.286893 
L 95.362739 21.017636 
L 95.500868 20.748379 
L 95.638997 20.479121 
L 95.777126 20.209864 
L 95.915255 19.940607 
L 96.053384 19.67135 
L 96.191514 19.402092 
L 96.329643 19.132835 
L 96.467772 18.863578 
L 96.605901 18.594321 
L 96.74403 18.325063 
L 96.88216 18.055806 
L 97.020289 17.786549 
L 97.158418 17.517292 
L 97.296547 17.248034 
L 97.434676 16.978777 
L 97.572805 16.70952 
L 97.710935 16.440263 
L 97.849064 16.171005 
L 97.987193 15.901748 
L 98.125322 15.632491 
L 98.263451 15.363234 
L 98.401581 15.093976 
L 98.53971 14.824719 
L 98.677839 14.555462 
L 98.815968 14.286205 
L 98.954097 14.016947 
L 99.092226 13.74769 
L 99.230356 13.478433 
L 99.368485 13.209176 
L 99.506614 12.939918 
L 99.644743 12.670661 
L 99.782872 12.401404 
L 99.921002 12.132147 
L 100.059131 11.862889 
L 100.19726 11.593632 
L 100.335389 11.324375 
L 100.473518 11.055118 
L 100.611647 10.78586 
L 100.749777 10.516603 
L 100.887906 10.247346 
L 101.026035 9.978089 
L 101.164164 9.708831 
L 101.302293 9.439574 
L 101.440422 9.170317 
L 101.578552 8.90106 
L 101.716681 8.631802 
L 101.85481 8.362545 
L 101.992939 8.093288 
L 102.131068 7.824031 
L 102.269198 7.554773 
L 102.407327 7.285516 
L 102.545456 7.016259 
L 102.683585 6.747002 
L 102.821714 6.477744 
L 102.959843 6.208487 
L 103.097973 5.93923 
L 103.236102 5.669973 
L 103.374231 5.400715 
L 103.51236 5.131458 
L 103.650489 4.862201 
L 103.788619 4.592944 
L 103.926748 4.323686 
L 104.064877 4.054429 
L 104.203006 3.785172 
L 104.341135 3.515915 
L 104.479264 3.246657 
L 104.617394 2.9774 
L 104.755523 2.708143 
L 104.893652 2.438886 
L 105.031781 2.169628 
L 105.16991 1.900371 
L 105.30804 1.631114 
L 105.446169 1.361857 
L 105.584298 1.092599 
L 105.722427 0.823342 
L 105.860556 0.554085 
L 105.998685 0.284828 
L 106.136815 0.01557 
L 106.274944 -0.253687 
L 106.413073 -0.522944 
L 106.551202 -0.792201 
L 106.689331 -1.061459 
L 106.82746 -1.330716 
L 106.96559 -1.599973 
L 107.103719 -1.86923 
L 107.241848 -2.138488 
L 107.379977 -2.407745 
L 107.518106 -2.677002 
L 107.656236 -2.946259 
L 107.794365 -3.215517 
L 107.932494 -3.484774 
L 108.070623 -3.754031 
L 108.208752 -4.023288 
L 108.346881 -4.292546 
L 108.485011 -4.561803 
L 108.62314 -4.83106 
L 108.761269 -5.100317 
L 108.899398 -5.369575 
L 109.037527 -5.638832 
L 109.175657 -5.908089 
L 109.313786 -6.177346 
L 109.451915 -6.446604 
L 109.590044 -6.715861 
L 109.728173 -6.985118 
L 109.866302 -7.254375 
L 110.004432 -7.523633 
L 110.142561 -7.79289 
L 110.28069 -8.062147 
L 110.418819 -8.331404 
L 110.556948 -8.600662 
L 110.695077 -8.869919 
L 110.833207 -9.139176 
L 110.971336 -9.408433 
L 111.109465 -9.677691 
L 111.247594 -9.946948 
L 111.385723 -10.216205 
L 111.523853 -10.485462 
L 111.661982 -10.75472 
L 111.800111 -11.023977 
L 111.93824 -11.293234 
L 112.076369 -11.562491 
L 112.214498 -11.831749 
L 112.352628 -12.101006 
L 112.490757 -12.370263 
L 112.628886 -12.63952 
L 112.767015 -12.908778 
L 112.905144 -13.178035 
L 113.043274 -13.447292 
L 113.181403 -13.716549 
L 113.319532 -13.985807 
L 113.457661 -14.255064 
L 113.59579 -14.524321 
L 113.733919 -14.793578 
L 113.872049 -15.062836 
L 114.010178 -15.332093 
L 114.148307 -15.60135 
L 114.286436 -15.870607 
L 114.424565 -16.139865 
L 114.562695 -16.409122 
L 114.700824 -16.678379 
L 114.838953 -16.947636 
L 114.977082 -17.216894 
L 115.115211 -17.486151 
L 115.25334 -17.755408 
L 115.39147 -18.024665 
L 115.529599 -18.293923 
L 115.667728 -18.56318 
L 115.805857 -18.832437 
L 115.943986 -19.101694 
L 116.082115 -19.370952 
L 116.220245 -19.640209 
L 116.358374 -19.909466 
L 116.496503 -20.178723 
L 116.634632 -20.44798 
L 116.772761 -20.717238 
L 116.910891 -20.986495 
L 117.04902 -21.255752 
L 117.187149 -21.525009 
L 117.325278 -21.794267 
L 117.463407 -22.063524 
L 117.601536 -22.332781 
L 117.739666 -22.602038 
L 117.877795 -22.871296 
L 118.015924 -23.140553 
L 118.154053 -23.40981 
L 118.292182 -23.679068 
L 118.430312 -23.948325 
L 118.568441 -24.217582 
L 118.70657 -24.486839 
L 118.844699 -24.756097 
L 118.982828 -25.025354 
L 119.120957 -25.294611 
L 119.259087 -25.563868 
L 119.397216 -25.833125 
L 119.535345 -26.102383 
L 119.673474 -26.37164 
L 119.811603 -26.640897 
L 119.949733 -26.910154 
L 120.087862 -27.179412 
L 120.225991 -27.448669 
L 120.36412 -27.717926 
L 120.502249 -27.987184 
L 120.640378 -28.256441 
L 120.778508 -28.525698 
L 120.916637 -28.794955 
L 121.054766 -29.064213 
L 121.192895 -29.33347 
L 121.331024 -29.602727 
L 121.469153 -29.871984 
L 121.607283 -30.141242 
L 121.745412 -30.410499 
L 121.883541 -30.679756 
L 122.02167 -30.949013 
L 122.159799 -31.218271 
L 122.297929 -31.487528 
L 122.436058 -31.756785 
L 122.574187 -32.026042 
L 122.712316 -32.2953 
L 122.850445 -32.564557 
L 122.988574 -32.833814 
L 123.126704 -33.103071 
L 123.264833 -33.372329 
L 123.402962 -33.641586 
L 123.541091 -33.910843 
L 123.67922 -34.1801 
L 123.81735 -34.449358 
L 123.955479 -34.718615 
L 124.093608 -34.987872 
L 124.231737 -35.257129 
L 124.369866 -35.526387 
L 124.507995 -35.795644 
L 124.646125 -36.064901 
L 124.784254 -36.334158 
L 124.922383 -36.603416 
L 125.060512 -36.872673 
L 125.198641 -37.14193 
L 125.336771 -37.411187 
L 125.4749 -37.680445 
L 125.613029 -37.949702 
L 125.751158 -38.218959 
L 125.889287 -38.488216 
L 126.027416 -38.757474 
L 126.165546 -39.026731 
L 126.303675 -39.295988 
L 126.441804 -39.565245 
L 126.579933 -39.834503 
L 126.718062 -40.10376 
L 126.856191 -40.373017 
L 126.994321 -40.642274 
L 127.13245 -40.911532 
L 127.270579 -41.180789 
L 127.408708 -41.450046 
L 127.546837 -41.719303 
L 127.684967 -41.988561 
L 127.823096 -42.257818 
L 127.961225 -42.527075 
L 128.099354 -42.796332 
L 128.237483 -43.065589 
L 128.375612 -43.334847 
L 128.513742 -43.604104 
L 128.651871 -43.873361 
L 128.651871 89.206089 
L 128.651871 89.206089 
L 128.513742 89.166297 
L 128.375612 89.126504 
L 128.237483 89.086711 
L 128.099354 89.046919 
L 127.961225 89.007126 
L 127.823096 88.967333 
L 127.684967 88.927541 
L 127.546837 88.887748 
L 127.408708 88.847955 
L 127.270579 88.808163 
L 127.13245 88.76837 
L 126.994321 88.728577 
L 126.856191 88.688785 
L 126.718062 88.648992 
L 126.579933 88.609199 
L 126.441804 88.569407 
L 126.303675 88.529614 
L 126.165546 88.489821 
L 126.027416 88.450029 
L 125.889287 88.410236 
L 125.751158 88.370443 
L 125.613029 88.330651 
L 125.4749 88.290858 
L 125.336771 88.251065 
L 125.198641 88.211273 
L 125.060512 88.17148 
L 124.922383 88.131687 
L 124.784254 88.091895 
L 124.646125 88.052102 
L 124.507995 88.012309 
L 124.369866 87.972517 
L 124.231737 87.932724 
L 124.093608 87.892931 
L 123.955479 87.853139 
L 123.81735 87.813346 
L 123.67922 87.773553 
L 123.541091 87.733761 
L 123.402962 87.693968 
L 123.264833 87.654175 
L 123.126704 87.614383 
L 122.988574 87.57459 
L 122.850445 87.534797 
L 122.712316 87.495005 
L 122.574187 87.455212 
L 122.436058 87.41542 
L 122.297929 87.375627 
L 122.159799 87.335834 
L 122.02167 87.296042 
L 121.883541 87.256249 
L 121.745412 87.216456 
L 121.607283 87.176664 
L 121.469153 87.136871 
L 121.331024 87.097078 
L 121.192895 87.057286 
L 121.054766 87.017493 
L 120.916637 86.9777 
L 120.778508 86.937908 
L 120.640378 86.898115 
L 120.502249 86.858322 
L 120.36412 86.81853 
L 120.225991 86.778737 
L 120.087862 86.738944 
L 119.949733 86.699152 
L 119.811603 86.659359 
L 119.673474 86.619566 
L 119.535345 86.579774 
L 119.397216 86.539981 
L 119.259087 86.500188 
L 119.120957 86.460396 
L 118.982828 86.420603 
L 118.844699 86.38081 
L 118.70657 86.341018 
L 118.568441 86.301225 
L 118.430312 86.261432 
L 118.292182 86.22164 
L 118.154053 86.181847 
L 118.015924 86.142054 
L 117.877795 86.102262 
L 117.739666 86.062469 
L 117.601536 86.022676 
L 117.463407 85.982884 
L 117.325278 85.943091 
L 117.187149 85.903298 
L 117.04902 85.863506 
L 116.910891 85.823713 
L 116.772761 85.78392 
L 116.634632 85.744128 
L 116.496503 85.704335 
L 116.358374 85.664542 
L 116.220245 85.62475 
L 116.082115 85.584957 
L 115.943986 85.545164 
L 115.805857 85.505372 
L 115.667728 85.465579 
L 115.529599 85.425786 
L 115.39147 85.385994 
L 115.25334 85.346201 
L 115.115211 85.306408 
L 114.977082 85.266616 
L 114.838953 85.226823 
L 114.700824 85.18703 
L 114.562695 85.147238 
L 114.424565 85.107445 
L 114.286436 85.067652 
L 114.148307 85.02786 
L 114.010178 84.988067 
L 113.872049 84.948274 
L 113.733919 84.908482 
L 113.59579 84.868689 
L 113.457661 84.828896 
L 113.319532 84.789104 
L 113.181403 84.749311 
L 113.043274 84.709518 
L 112.905144 84.669726 
L 112.767015 84.629933 
L 112.628886 84.59014 
L 112.490757 84.550348 
L 112.352628 84.510555 
L 112.214498 84.470762 
L 112.076369 84.43097 
L 111.93824 84.391177 
L 111.800111 84.351385 
L 111.661982 84.311592 
L 111.523853 84.271799 
L 111.385723 84.232007 
L 111.247594 84.192214 
L 111.109465 84.152421 
L 110.971336 84.112629 
L 110.833207 84.072836 
L 110.695077 84.033043 
L 110.556948 83.993251 
L 110.418819 83.953458 
L 110.28069 83.913665 
L 110.142561 83.873873 
L 110.004432 83.83408 
L 109.866302 83.794287 
L 109.728173 83.754495 
L 109.590044 83.714702 
L 109.451915 83.674909 
L 109.313786 83.635117 
L 109.175657 83.595324 
L 109.037527 83.555531 
L 108.899398 83.515739 
L 108.761269 83.475946 
L 108.62314 83.436153 
L 108.485011 83.396361 
L 108.346881 83.356568 
L 108.208752 83.316775 
L 108.070623 83.276983 
L 107.932494 83.23719 
L 107.794365 83.197397 
L 107.656236 83.157605 
L 107.518106 83.117812 
L 107.379977 83.078019 
L 107.241848 83.038227 
L 107.103719 82.998434 
L 106.96559 82.958641 
L 106.82746 82.918849 
L 106.689331 82.879056 
L 106.551202 82.839263 
L 106.413073 82.799471 
L 106.274944 82.759678 
L 106.136815 82.719885 
L 105.998685 82.680093 
L 105.860556 82.6403 
L 105.722427 82.600507 
L 105.584298 82.560715 
L 105.446169 82.520922 
L 105.30804 82.481129 
L 105.16991 82.441337 
L 105.031781 82.401544 
L 104.893652 82.361751 
L 104.755523 82.321959 
L 104.617394 82.282166 
L 104.479264 82.242373 
L 104.341135 82.202581 
L 104.203006 82.162788 
L 104.064877 82.122995 
L 103.926748 82.083203 
L 103.788619 82.04341 
L 103.650489 82.003617 
L 103.51236 81.963825 
L 103.374231 81.924032 
L 103.236102 81.884239 
L 103.097973 81.844447 
L 102.959843 81.804654 
L 102.821714 81.764861 
L 102.683585 81.725069 
L 102.545456 81.685276 
L 102.407327 81.645483 
L 102.269198 81.605691 
L 102.131068 81.565898 
L 101.992939 81.526105 
L 101.85481 81.486313 
L 101.716681 81.44652 
L 101.578552 81.406728 
L 101.440422 81.366935 
L 101.302293 81.327142 
L 101.164164 81.28735 
L 101.026035 81.247557 
L 100.887906 81.207764 
L 100.749777 81.167972 
L 100.611647 81.128179 
L 100.473518 81.088386 
L 100.335389 81.048594 
L 100.19726 81.008801 
L 100.059131 80.969008 
L 99.921002 80.929216 
L 99.782872 80.889423 
L 99.644743 80.84963 
L 99.506614 80.809838 
L 99.368485 80.770045 
L 99.230356 80.730252 
L 99.092226 80.69046 
L 98.954097 80.650667 
L 98.815968 80.610874 
L 98.677839 80.571082 
L 98.53971 80.531289 
L 98.401581 80.491496 
L 98.263451 80.451704 
L 98.125322 80.411911 
L 97.987193 80.372118 
L 97.849064 80.332326 
L 97.710935 80.292533 
L 97.572805 80.25274 
L 97.434676 80.212948 
L 97.296547 80.173155 
L 97.158418 80.133362 
L 97.020289 80.09357 
L 96.88216 80.053777 
L 96.74403 80.013984 
L 96.605901 79.974192 
L 96.467772 79.934399 
L 96.329643 79.894606 
L 96.191514 79.854814 
L 96.053384 79.815021 
L 95.915255 79.775228 
L 95.777126 79.735436 
L 95.638997 79.695643 
L 95.500868 79.65585 
L 95.362739 79.616058 
L 95.224609 79.576265 
L 95.08648 79.536472 
L 94.948351 79.49668 
L 94.810222 79.456887 
L 94.672093 79.417094 
L 94.533964 79.377302 
L 94.395834 79.337509 
L 94.257705 79.297716 
L 94.119576 79.257924 
L 93.981447 79.218131 
L 93.843318 79.178338 
L 93.705188 79.138546 
L 93.567059 79.098753 
L 93.42893 79.05896 
L 93.290801 79.019168 
L 93.152672 78.979375 
L 93.014543 78.939582 
L 92.876413 78.89979 
L 92.738284 78.859997 
L 92.600155 78.820204 
L 92.462026 78.780412 
L 92.323897 78.740619 
L 92.185767 78.700826 
L 92.047638 78.661034 
L 91.909509 78.621241 
L 91.77138 78.581448 
L 91.633251 78.541656 
L 91.495122 78.501863 
L 91.356992 78.46207 
L 91.218863 78.422278 
L 91.080734 78.382485 
L 90.942605 78.342692 
L 90.804476 78.3029 
L 90.666346 78.263107 
L 90.528217 78.223314 
L 90.390088 78.183522 
L 90.251959 78.143729 
L 90.11383 78.103936 
L 89.975701 78.064144 
L 89.837571 78.024351 
L 89.699442 77.984558 
L 89.561313 77.944766 
L 89.423184 77.904973 
L 89.285055 77.86518 
L 89.146926 77.825388 
L 89.008796 77.785595 
L 88.870667 77.745802 
L 88.732538 77.70601 
L 88.594409 77.666217 
L 88.45628 77.626424 
L 88.31815 77.586632 
L 88.180021 77.546839 
L 88.041892 77.507047 
L 87.903763 77.467254 
L 87.765634 77.427461 
L 87.627505 77.387669 
L 87.489375 77.347876 
L 87.351246 77.308083 
L 87.213117 77.268291 
L 87.074988 77.228498 
L 86.936859 77.188705 
L 86.798729 77.148913 
L 86.6606 77.10912 
L 86.522471 77.069327 
L 86.384342 77.029535 
L 86.246213 76.989742 
L 86.108084 76.949949 
L 85.969954 76.910157 
L 85.831825 76.870364 
L 85.693696 76.830571 
L 85.555567 76.790779 
L 85.417438 76.750986 
L 85.279308 76.711193 
L 85.141179 76.671401 
L 85.00305 76.631608 
L 84.864921 76.591815 
L 84.726792 76.552023 
L 84.588663 76.51223 
L 84.450533 76.472437 
L 84.312404 76.432645 
L 84.174275 76.392852 
L 84.036146 76.353059 
L 83.898017 76.313267 
L 83.759888 76.273474 
L 83.621758 76.233681 
L 83.483629 76.193889 
L 83.3455 76.154096 
L 83.207371 76.114303 
L 83.069242 76.074511 
L 82.931112 76.034718 
L 82.792983 75.994925 
L 82.654854 75.955133 
L 82.516725 75.91534 
L 82.378596 75.875547 
L 82.240467 75.835755 
L 82.102337 75.795962 
L 81.964208 75.756169 
L 81.826079 75.716377 
L 81.68795 75.676584 
L 81.549821 75.636791 
L 81.411691 75.596999 
L 81.273562 75.557206 
L 81.135433 75.517413 
L 80.997304 75.477621 
L 80.859175 75.437828 
L 80.721046 75.398035 
L 80.582916 75.358243 
L 80.444787 75.31845 
L 80.306658 75.278657 
L 80.168529 75.238865 
L 80.0304 75.199072 
L 79.89227 75.159279 
L 79.754141 75.119487 
L 79.616012 75.079694 
L 79.477883 75.039901 
L 79.339754 75.000109 
L 79.201625 74.960316 
L 79.063495 74.920523 
L 78.925366 74.880731 
L 78.787237 74.840938 
L 78.649108 74.801145 
L 78.510979 74.761353 
L 78.37285 74.72156 
L 78.23472 74.681767 
L 78.096591 74.641975 
L 77.958462 74.602182 
L 77.820333 74.562389 
L 77.682204 74.522597 
L 77.544074 74.482804 
L 77.405945 74.443011 
L 77.267816 74.403219 
L 77.129687 74.363426 
L 76.991558 74.323633 
L 76.853429 74.283841 
L 76.715299 74.244048 
L 76.57717 74.204255 
L 76.439041 74.164463 
L 76.300912 74.12467 
L 76.162783 74.084878 
L 76.024653 74.045085 
L 75.886524 74.005292 
L 75.748395 73.965499 
L 75.610266 73.925707 
L 75.472137 73.885914 
L 75.334008 73.846121 
L 75.195878 73.806329 
L 75.057749 73.766536 
L 74.91962 73.726743 
L 74.781491 73.686951 
L 74.643362 73.647158 
L 74.505232 73.607365 
L 74.367103 73.567573 
L 74.228974 73.52778 
L 74.090845 73.487987 
L 73.952716 73.448195 
L 73.814587 73.408402 
L 73.676457 73.36861 
L 73.538328 73.328817 
L 73.400199 73.289024 
L 73.26207 73.249232 
L 73.123941 73.209439 
L 72.985812 73.169646 
L 72.847682 73.129854 
L 72.709553 73.090061 
L 72.571424 73.050268 
L 72.433295 73.010476 
L 72.295166 72.970683 
L 72.157036 72.93089 
L 72.018907 72.891098 
L 71.880778 72.851305 
L 71.742649 72.811512 
L 71.60452 72.77172 
L 71.466391 72.731927 
L 71.328261 72.692134 
L 71.190132 72.652342 
L 71.052003 72.612549 
L 70.913874 72.572756 
L 70.775745 72.532964 
L 70.637615 72.493171 
L 70.499486 72.453378 
L 70.361357 72.413586 
L 70.223228 72.373793 
L 70.085099 72.334 
L 69.94697 72.294208 
L 69.80884 72.254415 
L 69.670711 72.214622 
L 69.532582 72.17483 
L 69.394453 72.135037 
L 69.256324 72.095244 
L 69.118194 72.055452 
L 68.980065 72.015659 
L 68.841936 71.975866 
L 68.703807 71.936074 
L 68.565678 71.896281 
L 68.427549 71.856488 
L 68.289419 71.816696 
L 68.15129 71.776903 
L 68.013161 71.73711 
L 67.875032 71.697318 
L 67.736903 71.657525 
L 67.598774 71.617732 
L 67.460644 71.57794 
L 67.322515 71.538147 
L 67.184386 71.498354 
L 67.046257 71.458562 
L 66.908128 71.418769 
L 66.769998 71.378976 
L 66.631869 71.339184 
L 66.49374 71.299391 
L 66.355611 71.259598 
L 66.217482 71.219806 
L 66.079353 71.180013 
L 65.941223 71.14022 
L 65.803094 71.100428 
L 65.664965 71.060635 
L 65.526836 71.020842 
L 65.388707 70.98105 
L 65.250577 70.941257 
L 65.112448 70.901464 
L 64.974319 70.861672 
L 64.83619 70.821879 
L 64.698061 70.782086 
L 64.559932 70.742294 
L 64.421802 70.702501 
L 64.283673 70.662708 
L 64.145544 70.622916 
L 64.007415 70.583123 
L 63.869286 70.54333 
L 63.731157 70.503538 
L 63.593027 70.463745 
L 63.454898 70.423952 
L 63.316769 70.38416 
L 63.17864 70.344367 
L 63.040511 70.304574 
L 62.902381 70.264782 
L 62.764252 70.224989 
L 62.626123 70.185196 
L 62.487994 70.145404 
L 62.349865 70.105611 
L 62.211736 70.065818 
L 62.073606 70.026026 
L 61.935477 69.986233 
L 61.797348 69.946441 
L 61.659219 69.906649 
L 61.52109 69.866857 
L 61.38296 69.827066 
L 61.244831 69.787276 
L 61.106702 69.747488 
L 60.968573 69.707704 
L 60.830444 69.667928 
L 60.692315 69.628166 
L 60.554185 69.588431 
L 60.416056 69.548746 
L 60.277927 69.509155 
L 60.139798 69.469745 
L 60.001669 69.430682 
L 59.863539 69.392299 
L 59.72541 69.508388 
L 59.587281 69.777645 
L 59.449152 70.046902 
L 59.311023 70.316159 
L 59.172894 70.585416 
L 59.034764 70.854674 
L 58.896635 71.123931 
L 58.758506 71.393188 
L 58.620377 71.662445 
L 58.482248 71.931703 
L 58.344119 72.20096 
L 58.205989 72.470217 
L 58.06786 72.739474 
L 57.929731 73.008732 
L 57.791602 73.277989 
L 57.653473 73.547246 
L 57.515343 73.816503 
L 57.377214 74.085761 
L 57.239085 74.355018 
L 57.100956 74.624275 
L 56.962827 74.893532 
L 56.824698 75.16279 
L 56.686568 75.432047 
L 56.548439 75.701304 
L 56.41031 75.970561 
L 56.272181 76.239819 
L 56.134052 76.509076 
L 55.995922 76.77833 
L 55.857793 76.91803 
L 55.719664 76.878237 
L 55.581535 76.838445 
L 55.443406 76.798653 
L 55.305277 76.75886 
L 55.167147 76.719068 
L 55.029018 76.679276 
L 54.890889 76.639484 
L 54.75276 76.599692 
L 54.614631 76.5599 
L 54.476501 76.520108 
L 54.338372 76.480317 
L 54.200243 76.440525 
L 54.062114 76.400734 
L 53.923985 76.360944 
L 53.785856 76.321162 
L 53.647726 76.28199 
L 53.509597 76.278522 
L 53.371468 76.455537 
L 53.233339 76.710203 
L 53.09521 76.975507 
L 52.957081 77.24309 
L 52.818951 77.51143 
L 52.680822 77.7801 
L 52.542693 78.04894 
L 52.404564 78.317882 
L 52.266435 78.586889 
L 52.128305 78.855943 
L 51.990176 79.125036 
L 51.852047 79.394161 
L 51.713918 79.66332 
L 51.575789 79.932513 
L 51.43766 80.201746 
L 51.29953 80.471028 
L 51.161401 80.740371 
L 51.023272 81.009792 
L 50.885143 81.279315 
L 50.747014 81.548968 
L 50.608884 81.818793 
L 50.470755 82.08884 
L 50.332626 82.359177 
L 50.194497 82.629892 
L 50.056368 82.901093 
L 49.918239 83.172925 
L 49.780109 83.445567 
L 49.64198 83.719247 
L 49.503851 83.994254 
L 49.365722 84.27095 
L 49.227593 84.549784 
L 49.089463 84.831318 
L 48.951334 85.116247 
L 48.813205 85.405428 
L 48.675076 85.699913 
L 48.536947 86.000994 
L 48.398818 86.310251 
L 48.260688 86.629615 
L 48.122559 86.961448 
L 47.98443 87.308646 
L 47.846301 87.674774 
L 47.708172 88.064245 
L 47.570043 88.482578 
L 47.431913 88.936772 
L 47.293784 89.435858 
L 47.155655 89.991679 
L 47.017526 90.620187 
L 46.879397 91.343565 
L 46.741267 92.193885 
L 46.603138 93.219937 
L 46.465009 94.501646 
L 46.32688 96.187838 
L 46.188751 98.625189 
L 46.050622 102.95297 
L 45.912492 3910.42875 
z
" clip-path="url(#p6e1e2cd7b5)" style="fill: #8172b3; fill-opacity: 0.7"/>
   </g>
   <g id="PolyCollection_2">
    <path d="M 45.912492 3910.42875 
L 45.912492 3910.42875 
L 46.050622 102.942704 
L 46.188751 98.588964 
L 46.32688 96.12736 
L 46.465009 94.433226 
L 46.603138 93.154776 
L 46.741267 92.135553 
L 46.879397 91.292144 
L 47.017526 90.574735 
L 47.155655 89.951142 
L 47.293784 89.399341 
L 47.431913 88.90358 
L 47.570043 88.452205 
L 47.708172 88.036356 
L 47.846301 87.649157 
L 47.98443 87.28518 
L 48.122559 86.940091 
L 48.260688 86.610396 
L 48.398818 86.293262 
L 48.536947 85.986384 
L 48.675076 85.687886 
L 48.813205 85.396239 
L 48.951334 85.110205 
L 49.089463 84.828782 
L 49.227593 84.551169 
L 49.365722 84.276726 
L 49.503851 84.004953 
L 49.64198 83.735463 
L 49.780109 83.467964 
L 49.918239 83.202246 
L 50.056368 82.938162 
L 50.194497 82.675623 
L 50.332626 82.414588 
L 50.470755 82.155055 
L 50.608884 81.897058 
L 50.747014 81.640663 
L 50.885143 81.385963 
L 51.023272 81.133078 
L 51.161401 80.882149 
L 51.29953 80.633344 
L 51.43766 80.386849 
L 51.575789 80.142873 
L 51.713918 79.901644 
L 51.852047 79.663413 
L 51.990176 79.428448 
L 52.128305 79.197037 
L 52.266435 78.969485 
L 52.404564 78.746114 
L 52.542693 78.527259 
L 52.680822 78.313269 
L 52.818951 78.104502 
L 52.957081 77.901321 
L 53.09521 77.70409 
L 53.233339 77.513173 
L 53.371468 77.328923 
L 53.509597 77.151681 
L 53.647726 76.981768 
L 53.785856 76.81948 
L 53.923985 76.665081 
L 54.062114 76.518799 
L 54.200243 76.380819 
L 54.338372 76.251281 
L 54.476501 76.130276 
L 54.614631 76.01784 
L 54.75276 75.913961 
L 54.890889 75.818572 
L 55.029018 75.731556 
L 55.167147 75.652748 
L 55.305277 75.581939 
L 55.443406 75.518881 
L 55.581535 75.463293 
L 55.719664 75.414863 
L 55.857793 75.37326 
L 55.995922 75.338134 
L 56.134052 75.309125 
L 56.272181 75.28587 
L 56.41031 75.268002 
L 56.548439 75.255159 
L 56.686568 75.246987 
L 56.824698 75.243143 
L 56.962827 75.243294 
L 57.100956 75.247126 
L 57.239085 75.254336 
L 57.377214 75.264643 
L 57.515343 75.277781 
L 57.653473 75.2935 
L 57.791602 75.311571 
L 57.929731 75.331779 
L 58.06786 75.353927 
L 58.205989 75.377834 
L 58.344119 75.403332 
L 58.482248 75.43027 
L 58.620377 75.458507 
L 58.758506 75.487918 
L 58.896635 75.518387 
L 59.034764 75.549808 
L 59.172894 75.582088 
L 59.311023 75.61514 
L 59.449152 75.648886 
L 59.587281 75.683256 
L 59.72541 75.718187 
L 59.863539 75.753621 
L 60.001669 75.789508 
L 60.139798 75.8258 
L 60.277927 75.862456 
L 60.416056 75.899439 
L 60.554185 75.936715 
L 60.692315 75.974253 
L 60.830444 76.012026 
L 60.968573 76.050011 
L 61.106702 76.088184 
L 61.244831 76.126527 
L 61.38296 76.165021 
L 61.52109 76.203651 
L 61.659219 76.242403 
L 61.797348 76.281264 
L 61.935477 76.320223 
L 62.073606 76.359269 
L 62.211736 76.398393 
L 62.349865 76.437588 
L 62.487994 76.476845 
L 62.626123 76.516158 
L 62.764252 76.555522 
L 62.902381 76.59493 
L 63.040511 76.634379 
L 63.17864 76.673864 
L 63.316769 76.713381 
L 63.454898 76.752928 
L 63.593027 76.7925 
L 63.731157 76.832095 
L 63.869286 76.871711 
L 64.007415 76.911345 
L 64.145544 76.950997 
L 64.283673 76.990663 
L 64.421802 77.030342 
L 64.559932 77.070033 
L 64.698061 77.109735 
L 64.83619 77.149446 
L 64.974319 77.189166 
L 65.112448 77.228894 
L 65.250577 77.268628 
L 65.388707 77.308369 
L 65.526836 77.348115 
L 65.664965 77.387866 
L 65.803094 77.427621 
L 65.941223 77.46738 
L 66.079353 77.507143 
L 66.217482 77.546909 
L 66.355611 77.586678 
L 66.49374 77.626449 
L 66.631869 77.666222 
L 66.769998 77.705998 
L 66.908128 77.745775 
L 67.046257 77.785554 
L 67.184386 77.825334 
L 67.322515 77.865116 
L 67.460644 77.904899 
L 67.598774 77.944683 
L 67.736903 77.984467 
L 67.875032 78.024253 
L 68.013161 78.064039 
L 68.15129 78.103826 
L 68.289419 78.143614 
L 68.427549 78.183402 
L 68.565678 78.223191 
L 68.703807 78.26298 
L 68.841936 78.302769 
L 68.980065 78.342559 
L 69.118194 78.382349 
L 69.256324 78.422139 
L 69.394453 78.46193 
L 69.532582 78.501721 
L 69.670711 78.541512 
L 69.80884 78.581303 
L 69.94697 78.621094 
L 70.085099 78.660886 
L 70.223228 78.700677 
L 70.361357 78.740469 
L 70.499486 78.780261 
L 70.637615 78.820053 
L 70.775745 78.859845 
L 70.913874 78.899637 
L 71.052003 78.939429 
L 71.190132 78.979221 
L 71.328261 79.019013 
L 71.466391 79.058805 
L 71.60452 79.098598 
L 71.742649 79.13839 
L 71.880778 79.178182 
L 72.018907 79.217975 
L 72.157036 79.257767 
L 72.295166 79.29756 
L 72.433295 79.337352 
L 72.571424 79.377145 
L 72.709553 79.416937 
L 72.847682 79.45673 
L 72.985812 79.496522 
L 73.123941 79.536315 
L 73.26207 79.576107 
L 73.400199 79.6159 
L 73.538328 79.655693 
L 73.676457 79.695485 
L 73.814587 79.735278 
L 73.952716 79.77507 
L 74.090845 79.814863 
L 74.228974 79.854656 
L 74.367103 79.894448 
L 74.505232 79.934241 
L 74.643362 79.974033 
L 74.781491 80.013826 
L 74.91962 80.053619 
L 75.057749 80.093411 
L 75.195878 80.133204 
L 75.334008 80.172997 
L 75.472137 80.212789 
L 75.610266 80.252582 
L 75.748395 80.292375 
L 75.886524 80.332167 
L 76.024653 80.37196 
L 76.162783 80.411753 
L 76.300912 80.451545 
L 76.439041 80.491338 
L 76.57717 80.531131 
L 76.715299 80.570923 
L 76.853429 80.610716 
L 76.991558 80.650509 
L 77.129687 80.668667 
L 77.267816 80.667363 
L 77.405945 80.65897 
L 77.544074 80.642528 
L 77.682204 80.617031 
L 77.820333 80.581462 
L 77.958462 80.534826 
L 78.096591 80.476192 
L 78.23472 80.404737 
L 78.37285 80.319799 
L 78.510979 80.220906 
L 78.649108 80.10782 
L 78.787237 79.980542 
L 78.925366 79.839322 
L 79.063495 79.684639 
L 79.201625 79.517171 
L 79.339754 79.337757 
L 79.477883 79.147352 
L 79.616012 78.946978 
L 79.754141 78.737686 
L 79.89227 78.520519 
L 80.0304 78.296482 
L 80.168529 78.066524 
L 80.306658 77.831523 
L 80.444787 77.592283 
L 80.582916 77.34953 
L 80.721046 77.103917 
L 80.859175 76.856027 
L 80.997304 76.606378 
L 81.135433 76.355435 
L 81.273562 76.103615 
L 81.411691 75.851294 
L 81.549821 75.598816 
L 81.68795 75.346497 
L 81.826079 75.094636 
L 81.964208 74.843514 
L 82.102337 74.593406 
L 82.240467 74.344578 
L 82.378596 74.097298 
L 82.516725 73.851835 
L 82.654854 73.608463 
L 82.792983 73.367464 
L 82.931112 73.129129 
L 83.069242 72.893759 
L 83.207371 72.661668 
L 83.3455 72.433181 
L 83.483629 72.208638 
L 83.621758 71.988386 
L 83.759888 71.772785 
L 83.898017 71.562201 
L 84.036146 71.357006 
L 84.174275 71.157575 
L 84.312404 70.964277 
L 84.450533 70.777476 
L 84.588663 70.597525 
L 84.726792 70.424757 
L 84.864921 70.259482 
L 85.00305 70.101979 
L 85.141179 69.952495 
L 85.279308 69.811234 
L 85.417438 69.678357 
L 85.555567 69.553975 
L 85.693696 69.438147 
L 85.831825 69.330883 
L 85.969954 69.232137 
L 86.108084 69.141813 
L 86.246213 69.059765 
L 86.384342 68.985803 
L 86.522471 68.919693 
L 86.6606 68.861166 
L 86.798729 68.809924 
L 86.936859 68.765642 
L 87.074988 68.727977 
L 87.213117 68.696573 
L 87.351246 68.671068 
L 87.489375 68.651095 
L 87.627505 68.63629 
L 87.765634 68.626297 
L 87.903763 68.620766 
L 88.041892 68.619362 
L 88.180021 68.621762 
L 88.31815 68.627659 
L 88.45628 68.636763 
L 88.594409 68.648802 
L 88.732538 68.663519 
L 88.870667 68.680678 
L 89.008796 68.700057 
L 89.146926 68.721454 
L 89.285055 68.744679 
L 89.423184 68.769561 
L 89.561313 68.795941 
L 89.699442 68.823675 
L 89.837571 68.852632 
L 89.975701 68.882692 
L 90.11383 68.913744 
L 90.251959 68.945692 
L 90.390088 68.978446 
L 90.528217 69.011923 
L 90.666346 69.046052 
L 90.804476 69.080766 
L 90.942605 69.116006 
L 91.080734 69.151718 
L 91.218863 69.187854 
L 91.356992 69.224369 
L 91.495122 69.261226 
L 91.633251 69.298389 
L 91.77138 69.335825 
L 91.909509 69.373508 
L 92.047638 69.411411 
L 92.185767 69.449511 
L 92.323897 69.487788 
L 92.462026 69.526224 
L 92.600155 69.564802 
L 92.738284 69.603507 
L 92.876413 69.642326 
L 93.014543 69.681247 
L 93.152672 69.720259 
L 93.290801 69.759353 
L 93.42893 69.79852 
L 93.567059 69.837753 
L 93.705188 69.877045 
L 93.843318 69.916389 
L 93.981447 69.95578 
L 94.119576 69.995214 
L 94.257705 70.034685 
L 94.395834 70.07419 
L 94.533964 70.113725 
L 94.672093 70.153287 
L 94.810222 70.192873 
L 94.948351 70.232481 
L 95.08648 70.272108 
L 95.224609 70.311753 
L 95.362739 70.351413 
L 95.500868 70.391087 
L 95.638997 70.430774 
L 95.777126 70.470472 
L 95.915255 70.51018 
L 96.053384 70.549896 
L 96.191514 70.589621 
L 96.329643 70.629353 
L 96.467772 70.669091 
L 96.605901 70.708835 
L 96.74403 70.748584 
L 96.88216 70.788337 
L 97.020289 70.828095 
L 97.158418 70.867856 
L 97.296547 70.907621 
L 97.434676 70.947389 
L 97.572805 70.987159 
L 97.710935 71.026931 
L 97.849064 71.066706 
L 97.987193 71.106483 
L 98.125322 71.146261 
L 98.263451 71.186041 
L 98.401581 71.225822 
L 98.53971 71.265604 
L 98.677839 71.305388 
L 98.815968 71.345172 
L 98.954097 71.384957 
L 99.092226 71.424744 
L 99.230356 71.46453 
L 99.368485 71.504318 
L 99.506614 71.544106 
L 99.644743 71.583894 
L 99.782872 71.623683 
L 99.921002 71.663472 
L 100.059131 71.703262 
L 100.19726 71.743052 
L 100.335389 71.782842 
L 100.473518 71.822632 
L 100.611647 71.862423 
L 100.749777 71.902214 
L 100.887906 71.942005 
L 101.026035 71.981796 
L 101.164164 72.021588 
L 101.302293 72.061379 
L 101.440422 72.101171 
L 101.578552 72.140963 
L 101.716681 72.180755 
L 101.85481 72.220547 
L 101.992939 72.260339 
L 102.131068 72.300131 
L 102.269198 72.339923 
L 102.407327 72.379715 
L 102.545456 72.419507 
L 102.683585 72.4593 
L 102.821714 72.499092 
L 102.959843 72.538884 
L 103.097973 72.578677 
L 103.236102 72.618469 
L 103.374231 72.658262 
L 103.51236 72.698054 
L 103.650489 72.737846 
L 103.788619 72.777639 
L 103.926748 72.817432 
L 104.064877 72.857224 
L 104.203006 72.897017 
L 104.341135 72.936809 
L 104.479264 72.976602 
L 104.617394 73.016394 
L 104.755523 73.056187 
L 104.893652 73.095979 
L 105.031781 73.135772 
L 105.16991 73.175565 
L 105.30804 73.215357 
L 105.446169 73.25515 
L 105.584298 73.294943 
L 105.722427 73.334735 
L 105.860556 73.374528 
L 105.998685 73.41432 
L 106.136815 73.454113 
L 106.274944 73.493906 
L 106.413073 73.533698 
L 106.551202 73.573491 
L 106.689331 73.613284 
L 106.82746 73.653076 
L 106.96559 73.692869 
L 107.103719 73.732662 
L 107.241848 73.772454 
L 107.379977 73.812245 
L 107.518106 73.852034 
L 107.656236 73.891822 
L 107.794365 73.931609 
L 107.932494 73.971396 
L 108.070623 74.011181 
L 108.208752 74.050964 
L 108.346881 74.090746 
L 108.485011 74.130525 
L 108.62314 74.170302 
L 108.761269 74.210076 
L 108.899398 74.249845 
L 109.037527 74.28961 
L 109.175657 74.329369 
L 109.313786 74.369122 
L 109.451915 74.408866 
L 109.590044 74.4486 
L 109.728173 74.488323 
L 109.866302 74.528031 
L 110.004432 74.567723 
L 110.142561 74.607394 
L 110.28069 74.647041 
L 110.418819 74.686658 
L 110.556948 74.72624 
L 110.695077 74.76578 
L 110.833207 74.80527 
L 110.971336 74.844699 
L 111.109465 74.884057 
L 111.247594 74.923329 
L 111.385723 74.9625 
L 111.523853 75.001548 
L 111.661982 75.040453 
L 111.800111 75.079187 
L 111.93824 75.117719 
L 112.076369 75.156012 
L 112.214498 75.194024 
L 112.352628 75.231706 
L 112.490757 75.269001 
L 112.628886 75.305844 
L 112.767015 75.342162 
L 112.905144 75.377872 
L 113.043274 75.412881 
L 113.181403 75.447086 
L 113.319532 75.480375 
L 113.457661 75.512626 
L 113.59579 75.543709 
L 113.733919 75.573491 
L 113.872049 75.601832 
L 114.010178 75.628596 
L 114.148307 75.653651 
L 114.286436 75.676874 
L 114.424565 75.698163 
L 114.562695 75.717434 
L 114.700824 75.734637 
L 114.838953 75.749755 
L 114.977082 75.762813 
L 115.115211 75.77388 
L 115.25334 75.783071 
L 115.39147 75.790548 
L 115.529599 75.796514 
L 115.667728 75.801212 
L 115.805857 75.804914 
L 115.943986 75.807914 
L 116.082115 75.810519 
L 116.220245 75.813038 
L 116.358374 75.815771 
L 116.496503 75.819003 
L 116.634632 75.822996 
L 116.772761 75.827981 
L 116.910891 75.834157 
L 117.04902 75.841688 
L 117.187149 75.850704 
L 117.325278 75.861298 
L 117.463407 75.873531 
L 117.601536 75.887435 
L 117.739666 75.903018 
L 117.877795 75.92026 
L 118.015924 75.939129 
L 118.154053 75.959571 
L 118.292182 75.981526 
L 118.430312 76.004923 
L 118.568441 76.029682 
L 118.70657 76.055725 
L 118.844699 76.082969 
L 118.982828 76.111331 
L 119.120957 76.140729 
L 119.259087 76.171086 
L 119.397216 76.202325 
L 119.535345 76.234373 
L 119.673474 76.267162 
L 119.811603 76.300629 
L 119.949733 76.334713 
L 120.087862 76.369358 
L 120.225991 76.404512 
L 120.36412 76.440129 
L 120.502249 76.476164 
L 120.640378 76.512578 
L 120.778508 76.549333 
L 120.916637 76.586397 
L 121.054766 76.623739 
L 121.192895 76.661332 
L 121.331024 76.69915 
L 121.469153 76.737171 
L 121.607283 76.775375 
L 121.745412 76.813743 
L 121.883541 76.852258 
L 122.02167 76.890906 
L 122.159799 76.929672 
L 122.297929 76.968545 
L 122.436058 77.007514 
L 122.574187 77.046568 
L 122.712316 77.0857 
L 122.850445 77.1249 
L 122.988574 77.164162 
L 123.126704 77.20348 
L 123.264833 77.242847 
L 123.402962 77.282259 
L 123.541091 77.321711 
L 123.67922 77.361198 
L 123.81735 77.400717 
L 123.955479 77.440265 
L 124.093608 77.479839 
L 124.231737 77.519435 
L 124.369866 77.559053 
L 124.507995 77.598688 
L 124.646125 77.63834 
L 124.784254 77.678007 
L 124.922383 77.717687 
L 125.060512 77.757379 
L 125.198641 77.797081 
L 125.336771 77.836793 
L 125.4749 77.876513 
L 125.613029 77.916241 
L 125.751158 77.955976 
L 125.889287 77.995717 
L 126.027416 78.035463 
L 126.165546 78.075214 
L 126.303675 78.11497 
L 126.441804 78.154729 
L 126.579933 78.194492 
L 126.718062 78.234258 
L 126.856191 78.274027 
L 126.994321 78.313798 
L 127.13245 78.353572 
L 127.270579 78.393347 
L 127.408708 78.433124 
L 127.546837 78.472903 
L 127.684967 78.512684 
L 127.823096 78.552466 
L 127.961225 78.592248 
L 128.099354 78.632032 
L 128.237483 78.671817 
L 128.375612 78.711603 
L 128.513742 78.751389 
L 128.651871 78.791176 
L 128.651871 41.856542 
L 128.651871 41.856542 
L 128.513742 41.819529 
L 128.375612 41.782839 
L 128.237483 41.746509 
L 128.099354 41.71058 
L 127.961225 41.675098 
L 127.823096 41.640115 
L 127.684967 41.605687 
L 127.546837 41.571876 
L 127.408708 41.538752 
L 127.270579 41.506392 
L 127.13245 41.474881 
L 126.994321 41.444313 
L 126.856191 41.414792 
L 126.718062 41.386432 
L 126.579933 41.359359 
L 126.441804 41.333711 
L 126.303675 41.309638 
L 126.165546 41.287307 
L 126.027416 41.266897 
L 125.889287 41.248603 
L 125.751158 41.232639 
L 125.613029 41.219233 
L 125.4749 41.208631 
L 125.336771 41.201099 
L 125.198641 41.196917 
L 125.060512 41.196383 
L 124.922383 41.199814 
L 124.784254 41.207538 
L 124.646125 41.219898 
L 124.507995 41.237247 
L 124.369866 41.259948 
L 124.231737 41.288364 
L 124.093608 41.322862 
L 123.955479 41.363802 
L 123.81735 41.411534 
L 123.67922 41.466392 
L 123.541091 41.528689 
L 123.402962 41.598711 
L 123.264833 41.676709 
L 123.126704 41.762896 
L 122.988574 41.857441 
L 122.850445 41.960467 
L 122.712316 42.072045 
L 122.574187 42.192194 
L 122.436058 42.320881 
L 122.297929 42.458021 
L 122.159799 42.60348 
L 122.02167 42.757075 
L 121.883541 42.918583 
L 121.745412 43.087744 
L 121.607283 43.264264 
L 121.469153 43.447823 
L 121.331024 43.638084 
L 121.192895 43.834692 
L 121.054766 44.037285 
L 120.916637 44.245498 
L 120.778508 44.458965 
L 120.640378 44.677328 
L 120.502249 44.900235 
L 120.36412 45.127348 
L 120.225991 45.358339 
L 120.087862 45.5929 
L 119.949733 45.830734 
L 119.811603 46.071566 
L 119.673474 46.315136 
L 119.535345 46.561202 
L 119.397216 46.809539 
L 119.259087 47.05994 
L 119.120957 47.312213 
L 118.982828 47.566182 
L 118.844699 47.821686 
L 118.70657 48.078577 
L 118.568441 48.33672 
L 118.430312 48.595993 
L 118.292182 48.856285 
L 118.154053 49.117494 
L 118.015924 49.379529 
L 117.877795 49.642306 
L 117.739666 49.905752 
L 117.601536 50.169798 
L 117.463407 50.434383 
L 117.325278 50.699452 
L 117.187149 50.964956 
L 117.04902 51.257459 
L 116.910891 51.523736 
L 116.772761 51.790323 
L 116.634632 52.057188 
L 116.496503 52.324303 
L 116.358374 52.591641 
L 116.220245 52.85918 
L 116.082115 53.126898 
L 115.943986 53.394777 
L 115.805857 53.6628 
L 115.667728 53.930952 
L 115.529599 54.199219 
L 115.39147 54.46759 
L 115.25334 54.736053 
L 115.115211 55.004598 
L 114.977082 55.273218 
L 114.838953 55.541903 
L 114.700824 55.810648 
L 114.562695 56.079445 
L 114.424565 56.348288 
L 114.286436 56.617174 
L 114.148307 56.886096 
L 114.010178 56.846303 
L 113.872049 56.80651 
L 113.733919 56.766718 
L 113.59579 56.726925 
L 113.457661 56.687132 
L 113.319532 56.64734 
L 113.181403 56.607547 
L 113.043274 56.567754 
L 112.905144 56.527962 
L 112.767015 56.488169 
L 112.628886 56.448376 
L 112.490757 56.408584 
L 112.352628 56.368791 
L 112.214498 56.328998 
L 112.076369 56.289206 
L 111.93824 56.249413 
L 111.800111 56.209621 
L 111.661982 56.169828 
L 111.523853 56.130035 
L 111.385723 56.090243 
L 111.247594 56.05045 
L 111.109465 56.010657 
L 110.971336 55.970865 
L 110.833207 55.931072 
L 110.695077 55.891279 
L 110.556948 55.851487 
L 110.418819 55.811694 
L 110.28069 55.771902 
L 110.142561 55.732109 
L 110.004432 55.692316 
L 109.866302 55.652524 
L 109.728173 55.612731 
L 109.590044 55.572939 
L 109.451915 55.533146 
L 109.313786 55.493354 
L 109.175657 55.453561 
L 109.037527 55.413769 
L 108.899398 55.373976 
L 108.761269 55.334184 
L 108.62314 55.294391 
L 108.485011 55.254599 
L 108.346881 55.214806 
L 108.208752 55.175014 
L 108.070623 55.135222 
L 107.932494 55.09543 
L 107.794365 55.055637 
L 107.656236 55.015845 
L 107.518106 54.976053 
L 107.379977 54.936261 
L 107.241848 54.896469 
L 107.103719 54.856677 
L 106.96559 54.816885 
L 106.82746 54.777094 
L 106.689331 54.737302 
L 106.551202 54.697511 
L 106.413073 54.657719 
L 106.274944 54.617928 
L 106.136815 54.578137 
L 105.998685 54.538346 
L 105.860556 54.498556 
L 105.722427 54.458765 
L 105.584298 54.418975 
L 105.446169 54.379185 
L 105.30804 54.339396 
L 105.16991 54.299607 
L 105.031781 54.259818 
L 104.893652 54.220029 
L 104.755523 54.180242 
L 104.617394 54.140454 
L 104.479264 54.100668 
L 104.341135 54.060882 
L 104.203006 54.021096 
L 104.064877 53.981312 
L 103.926748 53.941528 
L 103.788619 53.901745 
L 103.650489 53.861964 
L 103.51236 53.822183 
L 103.374231 53.782404 
L 103.236102 53.742627 
L 103.097973 53.702851 
L 102.959843 53.663076 
L 102.821714 53.623304 
L 102.683585 53.583535 
L 102.545456 53.543767 
L 102.407327 53.504003 
L 102.269198 53.464241 
L 102.131068 53.424484 
L 101.992939 53.38473 
L 101.85481 53.34498 
L 101.716681 53.305235 
L 101.578552 53.265496 
L 101.440422 53.225763 
L 101.302293 53.186037 
L 101.164164 53.146318 
L 101.026035 53.106609 
L 100.887906 53.066908 
L 100.749777 53.027219 
L 100.611647 52.987541 
L 100.473518 52.947877 
L 100.335389 52.908227 
L 100.19726 52.868595 
L 100.059131 52.828981 
L 99.921002 52.789388 
L 99.782872 52.749819 
L 99.644743 52.710275 
L 99.506614 52.670761 
L 99.368485 52.63128 
L 99.230356 52.591835 
L 99.092226 52.552431 
L 98.954097 52.513072 
L 98.815968 52.473764 
L 98.677839 52.434513 
L 98.53971 52.395325 
L 98.401581 52.356208 
L 98.263451 52.317171 
L 98.125322 52.278221 
L 97.987193 52.239371 
L 97.849064 52.20063 
L 97.710935 52.162013 
L 97.572805 52.123533 
L 97.434676 52.085207 
L 97.296547 52.047051 
L 97.158418 52.009087 
L 97.020289 51.971336 
L 96.88216 51.933823 
L 96.74403 51.896575 
L 96.605901 51.859623 
L 96.467772 51.823002 
L 96.329643 51.786748 
L 96.191514 51.750904 
L 96.053384 51.715518 
L 95.915255 51.68064 
L 95.777126 51.646329 
L 95.638997 51.612649 
L 95.500868 51.579671 
L 95.362739 51.547473 
L 95.224609 51.516142 
L 95.08648 51.485775 
L 94.948351 51.456476 
L 94.810222 51.428362 
L 94.672093 51.401562 
L 94.533964 51.376216 
L 94.395834 51.352477 
L 94.257705 51.330514 
L 94.119576 51.308626 
L 93.981447 51.291007 
L 93.843318 51.275785 
L 93.705188 51.263193 
L 93.567059 51.253483 
L 93.42893 51.246924 
L 93.290801 51.243804 
L 93.152672 51.244426 
L 93.014543 51.249108 
L 92.876413 51.258186 
L 92.738284 51.272004 
L 92.600155 51.29092 
L 92.462026 51.315296 
L 92.323897 51.345498 
L 92.185767 51.38189 
L 92.047638 51.424829 
L 91.909509 51.474663 
L 91.77138 51.53172 
L 91.633251 51.596305 
L 91.495122 51.668692 
L 91.356992 51.749124 
L 91.218863 51.837801 
L 91.080734 51.934877 
L 90.942605 52.040459 
L 90.804476 52.154605 
L 90.666346 52.277317 
L 90.528217 52.408545 
L 90.390088 52.548191 
L 90.251959 52.696104 
L 90.11383 52.85209 
L 89.975701 53.015913 
L 89.837571 53.187301 
L 89.699442 53.365954 
L 89.561313 53.551543 
L 89.423184 53.743726 
L 89.285055 53.942144 
L 89.146926 54.146434 
L 89.008796 54.356229 
L 88.870667 54.571164 
L 88.732538 54.79088 
L 88.594409 55.015029 
L 88.45628 55.243273 
L 88.31815 55.475289 
L 88.180021 55.710768 
L 88.041892 55.949419 
L 87.903763 56.190965 
L 87.765634 56.435148 
L 87.627505 56.681727 
L 87.489375 56.930474 
L 87.351246 57.181181 
L 87.213117 57.43365 
L 87.074988 57.6877 
L 86.936859 57.943159 
L 86.798729 58.199868 
L 86.6606 58.457676 
L 86.522471 58.716441 
L 86.384342 58.976028 
L 86.246213 59.236304 
L 86.108084 59.497139 
L 85.969954 59.758405 
L 85.831825 60.019971 
L 85.693696 60.281702 
L 85.555567 60.543454 
L 85.417438 60.805075 
L 85.279308 61.066397 
L 85.141179 61.327233 
L 85.00305 61.587375 
L 84.864921 61.846586 
L 84.726792 62.104596 
L 84.588663 62.361094 
L 84.450533 62.615722 
L 84.312404 62.868069 
L 84.174275 63.117661 
L 84.036146 63.363959 
L 83.898017 63.606346 
L 83.759888 63.844128 
L 83.621758 64.076529 
L 83.483629 64.302694 
L 83.3455 64.521695 
L 83.207371 64.732547 
L 83.069242 64.934224 
L 82.931112 65.125692 
L 82.792983 65.305944 
L 82.654854 65.474043 
L 82.516725 65.629168 
L 82.378596 65.770661 
L 82.240467 65.867668 
L 82.102337 65.848609 
L 81.964208 65.831367 
L 81.826079 65.81603 
L 81.68795 65.802675 
L 81.549821 65.791365 
L 81.411691 65.782143 
L 81.273562 65.775027 
L 81.135433 65.770009 
L 80.997304 65.767044 
L 80.859175 65.766053 
L 80.721046 65.766915 
L 80.582916 65.769464 
L 80.444787 65.77349 
L 80.306658 65.77874 
L 80.168529 65.784917 
L 80.0304 65.79169 
L 79.89227 65.798697 
L 79.754141 65.805556 
L 79.616012 65.811877 
L 79.477883 65.817273 
L 79.339754 65.821373 
L 79.201625 65.823834 
L 79.063495 65.824354 
L 78.925366 65.822681 
L 78.787237 65.818615 
L 78.649108 65.812018 
L 78.510979 65.802811 
L 78.37285 65.790969 
L 78.23472 65.77652 
L 78.096591 65.759538 
L 77.958462 65.740132 
L 77.820333 65.71844 
L 77.682204 65.694619 
L 77.544074 65.668841 
L 77.405945 65.64128 
L 77.267816 65.612112 
L 77.129687 65.581508 
L 76.991558 65.54963 
L 76.853429 65.516632 
L 76.715299 65.482654 
L 76.57717 65.447823 
L 76.439041 65.412255 
L 76.300912 65.376052 
L 76.162783 65.339305 
L 76.024653 65.302094 
L 75.886524 65.264489 
L 75.748395 65.22655 
L 75.610266 65.188329 
L 75.472137 65.149872 
L 75.334008 65.111217 
L 75.195878 65.072398 
L 75.057749 65.033443 
L 74.91962 64.994376 
L 74.781491 64.955219 
L 74.643362 64.91599 
L 74.505232 64.876704 
L 74.367103 64.837374 
L 74.228974 64.798014 
L 74.090845 64.758632 
L 73.952716 64.719239 
L 73.814587 64.679844 
L 73.676457 64.640453 
L 73.538328 64.601076 
L 73.400199 64.561718 
L 73.26207 64.522387 
L 73.123941 64.483091 
L 72.985812 64.443836 
L 72.847682 64.404631 
L 72.709553 64.365483 
L 72.571424 64.326401 
L 72.433295 64.287395 
L 72.295166 64.248474 
L 72.157036 64.209649 
L 72.018907 64.170933 
L 71.880778 64.13234 
L 71.742649 64.093883 
L 71.60452 64.05558 
L 71.466391 64.017449 
L 71.328261 63.97951 
L 71.190132 63.941786 
L 71.052003 63.904297 
L 70.913874 63.867077 
L 70.775745 63.830156 
L 70.637615 63.793569 
L 70.499486 63.757354 
L 70.361357 63.721553 
L 70.223228 63.686214 
L 70.085099 63.65139 
L 69.94697 63.617138 
L 69.80884 63.583524 
L 69.670711 63.550619 
L 69.532582 63.518502 
L 69.394453 63.487262 
L 69.256324 63.456994 
L 69.118194 63.427807 
L 68.980065 63.399816 
L 68.841936 63.373153 
L 68.703807 63.347957 
L 68.565678 63.324386 
L 68.427549 63.302607 
L 68.289419 63.282806 
L 68.15129 63.265183 
L 68.013161 63.249956 
L 67.875032 63.237359 
L 67.736903 63.227643 
L 67.598774 63.221078 
L 67.460644 63.21795 
L 67.322515 63.218562 
L 67.184386 63.223235 
L 67.046257 63.232302 
L 66.908128 63.246108 
L 66.769998 63.26501 
L 66.631869 63.28937 
L 66.49374 63.319553 
L 66.355611 63.355924 
L 66.217482 63.398841 
L 66.079353 63.448648 
L 65.941223 63.505674 
L 65.803094 63.570223 
L 65.664965 63.64257 
L 65.526836 63.722956 
L 65.388707 63.811579 
L 65.250577 63.908593 
L 65.112448 64.014104 
L 64.974319 64.128167 
L 64.83619 64.250783 
L 64.698061 64.3819 
L 64.559932 64.521415 
L 64.421802 64.669176 
L 64.283673 64.824984 
L 64.145544 64.988598 
L 64.007415 65.159741 
L 63.869286 65.338104 
L 63.731157 65.523353 
L 63.593027 65.715133 
L 63.454898 65.913075 
L 63.316769 66.116801 
L 63.17864 66.325927 
L 63.040511 66.540067 
L 62.902381 66.75884 
L 62.764252 66.981865 
L 62.626123 67.208772 
L 62.487994 67.439193 
L 62.349865 67.672771 
L 62.211736 67.909152 
L 62.073606 68.14799 
L 61.935477 68.38894 
L 61.797348 68.631657 
L 61.659219 68.875794 
L 61.52109 69.120994 
L 61.38296 69.36689 
L 61.244831 69.613098 
L 61.106702 69.859206 
L 60.968573 70.104777 
L 60.830444 70.349334 
L 60.692315 70.592356 
L 60.554185 70.833271 
L 60.416056 71.071453 
L 60.277927 71.30621 
L 60.139798 71.536789 
L 60.001669 71.762373 
L 59.863539 71.982086 
L 59.72541 72.195007 
L 59.587281 72.40018 
L 59.449152 72.596648 
L 59.311023 72.783474 
L 59.172894 72.959789 
L 59.034764 73.124823 
L 58.896635 73.277957 
L 58.758506 73.418755 
L 58.620377 73.546995 
L 58.482248 73.662696 
L 58.344119 73.766114 
L 58.205989 73.857739 
L 58.06786 73.93827 
L 57.929731 74.008583 
L 57.791602 74.069691 
L 57.653473 74.122702 
L 57.515343 74.168782 
L 57.377214 74.209116 
L 57.239085 74.244883 
L 57.100956 74.277232 
L 56.962827 74.307267 
L 56.824698 74.336037 
L 56.686568 74.364536 
L 56.548439 74.393692 
L 56.41031 74.421039 
L 56.272181 74.438907 
L 56.134052 74.462162 
L 55.995922 74.491171 
L 55.857793 74.526297 
L 55.719664 74.5679 
L 55.581535 74.61633 
L 55.443406 74.671918 
L 55.305277 74.734976 
L 55.167147 74.805784 
L 55.029018 74.884593 
L 54.890889 74.971609 
L 54.75276 75.066998 
L 54.614631 75.170877 
L 54.476501 75.283313 
L 54.338372 75.404318 
L 54.200243 75.533856 
L 54.062114 75.671836 
L 53.923985 75.818118 
L 53.785856 75.972517 
L 53.647726 76.134805 
L 53.509597 76.304718 
L 53.371468 76.48196 
L 53.233339 76.66621 
L 53.09521 76.857127 
L 52.957081 77.054358 
L 52.818951 77.257539 
L 52.680822 77.466306 
L 52.542693 77.680296 
L 52.404564 77.89915 
L 52.266435 78.122522 
L 52.128305 78.350074 
L 51.990176 78.581485 
L 51.852047 78.81645 
L 51.713918 79.054681 
L 51.575789 79.295909 
L 51.43766 79.539886 
L 51.29953 79.786381 
L 51.161401 80.035186 
L 51.023272 80.286115 
L 50.885143 80.539 
L 50.747014 80.7937 
L 50.608884 81.050095 
L 50.470755 81.308091 
L 50.332626 81.567625 
L 50.194497 81.82866 
L 50.056368 82.091199 
L 49.918239 82.355283 
L 49.780109 82.621001 
L 49.64198 82.888499 
L 49.503851 83.15799 
L 49.365722 83.429763 
L 49.227593 83.704206 
L 49.089463 83.981819 
L 48.951334 84.263242 
L 48.813205 84.549276 
L 48.675076 84.840922 
L 48.536947 85.139421 
L 48.398818 85.446299 
L 48.260688 85.763433 
L 48.122559 86.093128 
L 47.98443 86.438217 
L 47.846301 86.802194 
L 47.708172 87.189393 
L 47.570043 87.605242 
L 47.431913 88.056617 
L 47.293784 88.552377 
L 47.155655 89.104179 
L 47.017526 89.727772 
L 46.879397 90.445181 
L 46.741267 91.28859 
L 46.603138 92.307813 
L 46.465009 93.586263 
L 46.32688 95.280397 
L 46.188751 97.742001 
L 46.050622 102.095749 
L 45.912492 3910.42875 
z
" clip-path="url(#p6e1e2cd7b5)" style="fill: #ccb974; fill-opacity: 0.7"/>
   </g>
   <g id="PolyCollection_3">
    <path d="M 45.912492 3910.42875 
L 45.912492 3910.42875 
L 46.050622 102.47594 
L 46.188751 98.144199 
L 46.32688 95.693343 
L 46.465009 93.997408 
L 46.603138 92.713515 
L 46.741267 91.68901 
L 46.879397 90.841334 
L 47.017526 90.120652 
L 47.155655 89.494584 
L 47.293784 88.940911 
L 47.431913 88.443732 
L 47.570043 87.991277 
L 47.708172 87.574605 
L 47.846301 87.186779 
L 47.98443 86.822327 
L 48.122559 86.47688 
L 48.260688 86.146919 
L 48.398818 85.829592 
L 48.536947 85.522579 
L 48.675076 85.22399 
L 48.813205 84.93229 
L 48.951334 84.64623 
L 49.089463 84.364804 
L 49.227593 84.087204 
L 49.365722 83.812788 
L 49.503851 83.541053 
L 49.64198 83.271609 
L 49.780109 83.004162 
L 49.918239 82.7385 
L 50.056368 82.474477 
L 50.194497 82.212001 
L 50.332626 81.95103 
L 50.470755 81.691563 
L 50.608884 81.433634 
L 50.747014 81.177308 
L 50.885143 80.922679 
L 51.023272 80.669865 
L 51.161401 80.41901 
L 51.29953 80.170279 
L 51.43766 79.923862 
L 51.575789 79.679966 
L 51.713918 79.438822 
L 51.852047 79.200681 
L 51.990176 78.965812 
L 52.128305 78.734506 
L 52.266435 78.50707 
L 52.404564 78.283832 
L 52.542693 78.065133 
L 52.680822 77.851334 
L 52.818951 77.64281 
L 52.957081 77.439961 
L 53.09521 77.243224 
L 53.233339 77.053134 
L 53.371468 76.870547 
L 53.509597 76.697763 
L 53.647726 76.546573 
L 53.785856 76.480274 
L 53.923985 76.509224 
L 54.062114 76.548819 
L 54.200243 76.588607 
L 54.338372 76.628398 
L 54.476501 76.668189 
L 54.614631 76.707981 
L 54.75276 76.747772 
L 54.890889 76.787564 
L 55.029018 76.827356 
L 55.167147 76.867148 
L 55.305277 76.90694 
L 55.443406 76.946732 
L 55.581535 76.986524 
L 55.719664 77.026316 
L 55.857793 77.066108 
L 55.995922 77.105901 
L 56.134052 77.145693 
L 56.272181 77.185486 
L 56.41031 77.225278 
L 56.548439 77.26507 
L 56.686568 77.304863 
L 56.824698 77.344655 
L 56.962827 77.384448 
L 57.100956 77.424241 
L 57.239085 77.464033 
L 57.377214 77.503826 
L 57.515343 77.543618 
L 57.653473 77.583411 
L 57.791602 77.623204 
L 57.929731 77.662996 
L 58.06786 77.702789 
L 58.205989 77.742581 
L 58.344119 77.782374 
L 58.482248 77.822167 
L 58.620377 77.861959 
L 58.758506 77.901752 
L 58.896635 77.941545 
L 59.034764 77.981337 
L 59.172894 78.02113 
L 59.311023 78.060923 
L 59.449152 78.100715 
L 59.587281 78.140508 
L 59.72541 78.156588 
L 59.863539 78.160787 
L 60.001669 78.159851 
L 60.139798 78.152892 
L 60.277927 78.138952 
L 60.416056 78.117025 
L 60.554185 78.086075 
L 60.692315 78.045064 
L 60.830444 77.992993 
L 60.968573 77.928942 
L 61.106702 77.852116 
L 61.244831 77.76189 
L 61.38296 77.657846 
L 61.52109 77.5398 
L 61.659219 77.407813 
L 61.797348 77.262191 
L 61.935477 77.10346 
L 62.073606 76.932335 
L 62.211736 76.749683 
L 62.349865 76.55647 
L 62.487994 76.353723 
L 62.626123 76.142486 
L 62.764252 75.92379 
L 62.902381 75.698622 
L 63.040511 75.467913 
L 63.17864 75.232523 
L 63.316769 74.993237 
L 63.454898 74.750768 
L 63.593027 74.505757 
L 63.731157 74.258778 
L 63.869286 74.010347 
L 64.007415 73.760931 
L 64.145544 73.51095 
L 64.283673 73.235778 
L 64.421802 72.985273 
L 64.559932 72.735393 
L 64.698061 72.486442 
L 64.83619 72.238711 
L 64.974319 71.99249 
L 65.112448 71.748068 
L 65.250577 71.505734 
L 65.388707 71.265786 
L 65.526836 71.028528 
L 65.664965 70.794275 
L 65.803094 70.69188 
L 65.941223 70.730261 
L 66.079353 70.769335 
L 66.217482 70.808759 
L 66.355611 70.848361 
L 66.49374 70.888054 
L 66.631869 70.927795 
L 66.769998 70.96756 
L 66.908128 71.007338 
L 67.046257 71.047124 
L 67.184386 71.086912 
L 67.322515 71.126703 
L 67.460644 71.166494 
L 67.598774 71.206287 
L 67.736903 71.246079 
L 67.875032 71.285871 
L 68.013161 71.325664 
L 68.15129 71.365457 
L 68.289419 71.405249 
L 68.427549 71.445042 
L 68.565678 71.484835 
L 68.703807 71.524627 
L 68.841936 71.56442 
L 68.980065 71.604213 
L 69.118194 71.644005 
L 69.256324 71.683798 
L 69.394453 71.723591 
L 69.532582 71.763383 
L 69.670711 71.803176 
L 69.80884 71.842969 
L 69.94697 71.882761 
L 70.085099 71.922554 
L 70.223228 71.962347 
L 70.361357 72.002139 
L 70.499486 72.041932 
L 70.637615 72.081725 
L 70.775745 72.121517 
L 70.913874 72.16131 
L 71.052003 72.201103 
L 71.190132 72.240895 
L 71.328261 72.280688 
L 71.466391 72.320481 
L 71.60452 72.360273 
L 71.742649 72.400066 
L 71.880778 72.439859 
L 72.018907 72.479651 
L 72.157036 72.519444 
L 72.295166 72.559237 
L 72.433295 72.599029 
L 72.571424 72.638822 
L 72.709553 72.678615 
L 72.847682 72.718407 
L 72.985812 72.7582 
L 73.123941 72.797993 
L 73.26207 72.837785 
L 73.400199 72.877578 
L 73.538328 72.917371 
L 73.676457 72.957163 
L 73.814587 72.996956 
L 73.952716 72.72946 
L 74.090845 72.461744 
L 74.228974 72.193901 
L 74.367103 71.92596 
L 74.505232 71.657946 
L 74.643362 71.389884 
L 74.781491 71.121795 
L 74.91962 70.8537 
L 75.057749 70.58562 
L 75.195878 70.317574 
L 75.334008 70.049582 
L 75.472137 69.781662 
L 75.610266 69.513836 
L 75.748395 69.246122 
L 75.886524 68.978543 
L 76.024653 68.711121 
L 76.162783 68.443881 
L 76.300912 68.176849 
L 76.439041 67.910053 
L 76.57717 67.643524 
L 76.715299 67.377296 
L 76.853429 67.111406 
L 76.991558 66.845895 
L 77.129687 66.580808 
L 77.267816 66.316196 
L 77.405945 66.052114 
L 77.544074 65.788622 
L 77.682204 65.525788 
L 77.820333 65.263687 
L 77.958462 65.002401 
L 78.096591 64.742021 
L 78.23472 64.482648 
L 78.37285 64.224392 
L 78.510979 63.967374 
L 78.649108 63.711729 
L 78.787237 63.457603 
L 78.925366 63.205155 
L 79.063495 62.954561 
L 79.201625 62.70601 
L 79.339754 62.459709 
L 79.477883 62.21588 
L 79.616012 61.974764 
L 79.754141 61.736619 
L 79.89227 61.674488 
L 80.0304 61.714208 
L 80.168529 61.753962 
L 80.306658 61.793735 
L 80.444787 61.833517 
L 80.582916 61.873304 
L 80.721046 61.913093 
L 80.859175 61.952884 
L 80.997304 61.992676 
L 81.135433 62.032468 
L 81.273562 62.072261 
L 81.411691 62.112053 
L 81.549821 62.151846 
L 81.68795 62.191639 
L 81.826079 62.231431 
L 81.964208 62.271224 
L 82.102337 62.311017 
L 82.240467 62.350809 
L 82.378596 62.390602 
L 82.516725 62.430395 
L 82.654854 62.470187 
L 82.792983 62.50998 
L 82.931112 62.549773 
L 83.069242 62.589565 
L 83.207371 62.629358 
L 83.3455 62.669151 
L 83.483629 62.708943 
L 83.621758 62.748736 
L 83.759888 62.788529 
L 83.898017 62.828321 
L 84.036146 62.872093 
L 84.174275 62.911886 
L 84.312404 62.951679 
L 84.450533 62.991471 
L 84.588663 63.031264 
L 84.726792 63.071057 
L 84.864921 63.110849 
L 85.00305 63.150642 
L 85.141179 63.190435 
L 85.279308 63.230227 
L 85.417438 63.27002 
L 85.555567 63.309813 
L 85.693696 63.349605 
L 85.831825 63.389398 
L 85.969954 63.429191 
L 86.108084 63.468983 
L 86.246213 63.508776 
L 86.384342 63.548569 
L 86.522471 63.588361 
L 86.6606 63.628154 
L 86.798729 63.667947 
L 86.936859 63.707739 
L 87.074988 63.747532 
L 87.213117 63.787325 
L 87.351246 63.827117 
L 87.489375 63.86691 
L 87.627505 63.906703 
L 87.765634 63.946495 
L 87.903763 63.986288 
L 88.041892 64.026081 
L 88.180021 64.065873 
L 88.31815 64.105666 
L 88.45628 64.145459 
L 88.594409 64.185251 
L 88.732538 64.225044 
L 88.870667 64.264837 
L 89.008796 64.304629 
L 89.146926 64.344422 
L 89.285055 64.384215 
L 89.423184 64.424007 
L 89.561313 64.4638 
L 89.699442 64.503593 
L 89.837571 64.543385 
L 89.975701 64.583178 
L 90.11383 64.622971 
L 90.251959 64.662763 
L 90.390088 64.702556 
L 90.528217 64.742349 
L 90.666346 64.782141 
L 90.804476 64.821934 
L 90.942605 64.861727 
L 91.080734 64.901519 
L 91.218863 64.941312 
L 91.356992 64.981105 
L 91.495122 65.020897 
L 91.633251 65.06069 
L 91.77138 65.100482 
L 91.909509 65.140275 
L 92.047638 65.180068 
L 92.185767 65.21986 
L 92.323897 65.259653 
L 92.462026 65.299446 
L 92.600155 65.339238 
L 92.738284 65.379031 
L 92.876413 65.418824 
L 93.014543 65.458616 
L 93.152672 65.498409 
L 93.290801 65.538202 
L 93.42893 65.577994 
L 93.567059 65.617787 
L 93.705188 65.65758 
L 93.843318 65.697372 
L 93.981447 65.737165 
L 94.119576 65.776958 
L 94.257705 65.81675 
L 94.395834 65.856543 
L 94.533964 65.896336 
L 94.672093 65.936128 
L 94.810222 65.975921 
L 94.948351 66.015714 
L 95.08648 66.055506 
L 95.224609 66.095299 
L 95.362739 66.135092 
L 95.500868 66.174884 
L 95.638997 66.214677 
L 95.777126 66.25447 
L 95.915255 66.294262 
L 96.053384 66.334055 
L 96.191514 66.373848 
L 96.329643 66.41364 
L 96.467772 66.453433 
L 96.605901 66.493226 
L 96.74403 66.533018 
L 96.88216 66.572811 
L 97.020289 66.612604 
L 97.158418 66.652396 
L 97.296547 66.692189 
L 97.434676 66.731982 
L 97.572805 66.771774 
L 97.710935 66.811567 
L 97.849064 66.85136 
L 97.987193 66.891152 
L 98.125322 66.930945 
L 98.263451 66.970738 
L 98.401581 67.01053 
L 98.53971 67.050323 
L 98.677839 67.090116 
L 98.815968 67.129908 
L 98.954097 67.169701 
L 99.092226 67.209494 
L 99.230356 67.249286 
L 99.368485 67.289079 
L 99.506614 67.328872 
L 99.644743 67.368664 
L 99.782872 67.408457 
L 99.921002 67.44825 
L 100.059131 67.488042 
L 100.19726 67.373472 
L 100.335389 67.10456 
L 100.473518 66.835689 
L 100.611647 66.566863 
L 100.749777 66.298088 
L 100.887906 66.029368 
L 101.026035 65.760712 
L 101.164164 65.492126 
L 101.302293 65.223619 
L 101.440422 64.955199 
L 101.578552 64.686877 
L 101.716681 64.418665 
L 101.85481 64.150575 
L 101.992939 63.882621 
L 102.131068 63.61482 
L 102.269198 63.347188 
L 102.407327 63.079747 
L 102.545456 62.812517 
L 102.683585 62.545523 
L 102.821714 62.278793 
L 102.959843 62.012356 
L 103.097973 61.746248 
L 103.236102 61.480505 
L 103.374231 61.215169 
L 103.51236 60.950287 
L 103.650489 60.685911 
L 103.788619 60.422097 
L 103.926748 60.15891 
L 104.064877 59.89642 
L 104.203006 59.634706 
L 104.341135 59.373852 
L 104.479264 59.113955 
L 104.617394 58.85512 
L 104.755523 58.597462 
L 104.893652 58.341109 
L 105.031781 58.086201 
L 105.16991 57.83289 
L 105.30804 57.581344 
L 105.446169 57.331744 
L 105.584298 57.08429 
L 105.722427 56.839194 
L 105.860556 56.59669 
L 105.998685 56.357025 
L 106.136815 56.156566 
L 106.274944 56.196259 
L 106.413073 56.235999 
L 106.551202 56.275764 
L 106.689331 56.315542 
L 106.82746 56.355326 
L 106.96559 56.395115 
L 107.103719 56.434905 
L 107.241848 56.474697 
L 107.379977 56.514489 
L 107.518106 56.554281 
L 107.656236 56.594074 
L 107.794365 56.633866 
L 107.932494 56.673659 
L 108.070623 56.713452 
L 108.208752 56.753244 
L 108.346881 56.793037 
L 108.485011 56.832829 
L 108.62314 56.872622 
L 108.761269 56.912415 
L 108.899398 56.952207 
L 109.037527 56.992 
L 109.175657 57.031793 
L 109.313786 57.071585 
L 109.451915 57.111378 
L 109.590044 57.151171 
L 109.728173 57.190963 
L 109.866302 57.230756 
L 110.004432 57.270549 
L 110.142561 57.310341 
L 110.28069 57.350134 
L 110.418819 57.389927 
L 110.556948 57.429719 
L 110.695077 57.469512 
L 110.833207 57.509305 
L 110.971336 57.549097 
L 111.109465 57.58889 
L 111.247594 57.628683 
L 111.385723 57.668475 
L 111.523853 57.708268 
L 111.661982 57.748061 
L 111.800111 57.787853 
L 111.93824 57.827646 
L 112.076369 57.867439 
L 112.214498 57.907231 
L 112.352628 57.947024 
L 112.490757 57.986817 
L 112.628886 58.026609 
L 112.767015 58.066402 
L 112.905144 58.106195 
L 113.043274 58.145987 
L 113.181403 58.18578 
L 113.319532 58.225573 
L 113.457661 58.265365 
L 113.59579 58.305158 
L 113.733919 58.344951 
L 113.872049 58.384743 
L 114.010178 58.424536 
L 114.148307 58.464329 
L 114.286436 58.504121 
L 114.424565 58.543914 
L 114.562695 58.583707 
L 114.700824 58.623499 
L 114.838953 58.663292 
L 114.977082 58.703085 
L 115.115211 58.742877 
L 115.25334 58.78267 
L 115.39147 58.822463 
L 115.529599 58.862255 
L 115.667728 58.902048 
L 115.805857 58.941841 
L 115.943986 58.981633 
L 116.082115 59.021426 
L 116.220245 59.061219 
L 116.358374 59.101011 
L 116.496503 59.140804 
L 116.634632 59.180597 
L 116.772761 59.220389 
L 116.910891 59.260182 
L 117.04902 59.299975 
L 117.187149 59.339767 
L 117.325278 59.37956 
L 117.463407 59.419353 
L 117.601536 59.459145 
L 117.739666 59.498938 
L 117.877795 59.538731 
L 118.015924 59.578523 
L 118.154053 59.618316 
L 118.292182 59.658109 
L 118.430312 59.697901 
L 118.568441 59.737694 
L 118.70657 59.777487 
L 118.844699 59.817279 
L 118.982828 59.857072 
L 119.120957 59.896865 
L 119.259087 59.936657 
L 119.397216 59.97645 
L 119.535345 60.016243 
L 119.673474 60.056035 
L 119.811603 60.095828 
L 119.949733 60.135621 
L 120.087862 60.175413 
L 120.225991 60.215206 
L 120.36412 60.254999 
L 120.502249 60.294791 
L 120.640378 60.334584 
L 120.778508 60.374377 
L 120.916637 60.414169 
L 121.054766 60.453962 
L 121.192895 60.493755 
L 121.331024 60.533547 
L 121.469153 60.57334 
L 121.607283 60.613133 
L 121.745412 60.652925 
L 121.883541 60.692718 
L 122.02167 60.732511 
L 122.159799 60.772303 
L 122.297929 60.812096 
L 122.436058 60.851889 
L 122.574187 60.891681 
L 122.712316 60.931474 
L 122.850445 60.971267 
L 122.988574 61.011059 
L 123.126704 61.050852 
L 123.264833 61.090645 
L 123.402962 61.130437 
L 123.541091 61.17023 
L 123.67922 61.210023 
L 123.81735 61.249815 
L 123.955479 61.289608 
L 124.093608 61.329401 
L 124.231737 61.369193 
L 124.369866 61.408986 
L 124.507995 61.448779 
L 124.646125 61.488571 
L 124.784254 61.528364 
L 124.922383 61.568157 
L 125.060512 61.607949 
L 125.198641 61.647742 
L 125.336771 61.687535 
L 125.4749 61.727327 
L 125.613029 61.76712 
L 125.751158 61.806913 
L 125.889287 61.846705 
L 126.027416 61.886498 
L 126.165546 61.926291 
L 126.303675 61.966083 
L 126.441804 62.005876 
L 126.579933 62.045669 
L 126.718062 62.085461 
L 126.856191 62.125254 
L 126.994321 62.165047 
L 127.13245 62.204839 
L 127.270579 62.244632 
L 127.408708 62.284425 
L 127.546837 62.324217 
L 127.684967 62.36401 
L 127.823096 62.403803 
L 127.961225 62.443595 
L 128.099354 62.483388 
L 128.237483 62.523181 
L 128.375612 62.562973 
L 128.513742 62.602766 
L 128.651871 62.642559 
L 128.651871 90.582211 
L 128.651871 90.582211 
L 128.513742 90.542418 
L 128.375612 90.502625 
L 128.237483 90.462833 
L 128.099354 90.42304 
L 127.961225 90.383247 
L 127.823096 90.343455 
L 127.684967 90.303662 
L 127.546837 90.263869 
L 127.408708 90.224077 
L 127.270579 90.184284 
L 127.13245 90.144491 
L 126.994321 90.104699 
L 126.856191 90.064906 
L 126.718062 90.025113 
L 126.579933 89.985321 
L 126.441804 89.945528 
L 126.303675 89.905735 
L 126.165546 89.865943 
L 126.027416 89.82615 
L 125.889287 89.786357 
L 125.751158 89.746565 
L 125.613029 89.706772 
L 125.4749 89.666979 
L 125.336771 89.627187 
L 125.198641 89.587394 
L 125.060512 89.547601 
L 124.922383 89.507809 
L 124.784254 89.468016 
L 124.646125 89.428223 
L 124.507995 89.388431 
L 124.369866 89.348638 
L 124.231737 89.308845 
L 124.093608 89.269053 
L 123.955479 89.22926 
L 123.81735 89.189467 
L 123.67922 89.149675 
L 123.541091 89.109882 
L 123.402962 89.070089 
L 123.264833 89.030297 
L 123.126704 88.990504 
L 122.988574 88.950711 
L 122.850445 88.910919 
L 122.712316 88.871126 
L 122.574187 88.831333 
L 122.436058 88.791541 
L 122.297929 88.751748 
L 122.159799 88.711955 
L 122.02167 88.672163 
L 121.883541 88.63237 
L 121.745412 88.592577 
L 121.607283 88.552785 
L 121.469153 88.512992 
L 121.331024 88.473199 
L 121.192895 88.433407 
L 121.054766 88.393614 
L 120.916637 88.353821 
L 120.778508 88.314029 
L 120.640378 88.274236 
L 120.502249 88.234443 
L 120.36412 88.194651 
L 120.225991 88.154858 
L 120.087862 88.115065 
L 119.949733 88.075273 
L 119.811603 88.03548 
L 119.673474 87.995687 
L 119.535345 87.955895 
L 119.397216 87.916102 
L 119.259087 87.876309 
L 119.120957 87.836517 
L 118.982828 87.796724 
L 118.844699 87.756931 
L 118.70657 87.717139 
L 118.568441 87.677346 
L 118.430312 87.637553 
L 118.292182 87.597761 
L 118.154053 87.557968 
L 118.015924 87.518175 
L 117.877795 87.478383 
L 117.739666 87.43859 
L 117.601536 87.398797 
L 117.463407 87.359005 
L 117.325278 87.319212 
L 117.187149 87.279419 
L 117.04902 87.239627 
L 116.910891 87.199834 
L 116.772761 87.160041 
L 116.634632 87.120249 
L 116.496503 87.080456 
L 116.358374 87.040663 
L 116.220245 87.000871 
L 116.082115 86.961078 
L 115.943986 86.921285 
L 115.805857 86.881493 
L 115.667728 86.8417 
L 115.529599 86.801907 
L 115.39147 86.762115 
L 115.25334 86.722322 
L 115.115211 86.682529 
L 114.977082 86.642737 
L 114.838953 86.602944 
L 114.700824 86.563151 
L 114.562695 86.523359 
L 114.424565 86.483566 
L 114.286436 86.443774 
L 114.148307 86.403981 
L 114.010178 86.364188 
L 113.872049 86.324396 
L 113.733919 86.284603 
L 113.59579 86.24481 
L 113.457661 86.205018 
L 113.319532 86.165225 
L 113.181403 86.125432 
L 113.043274 86.08564 
L 112.905144 86.045847 
L 112.767015 86.006054 
L 112.628886 85.966262 
L 112.490757 85.926469 
L 112.352628 85.886676 
L 112.214498 85.846884 
L 112.076369 85.807091 
L 111.93824 85.767299 
L 111.800111 85.727506 
L 111.661982 85.687713 
L 111.523853 85.647921 
L 111.385723 85.608128 
L 111.247594 85.568335 
L 111.109465 85.528543 
L 110.971336 85.48875 
L 110.833207 85.448957 
L 110.695077 85.409165 
L 110.556948 85.369372 
L 110.418819 85.32958 
L 110.28069 85.289787 
L 110.142561 85.249994 
L 110.004432 85.210202 
L 109.866302 85.170409 
L 109.728173 85.130616 
L 109.590044 85.090824 
L 109.451915 85.051031 
L 109.313786 85.011239 
L 109.175657 84.971446 
L 109.037527 84.931653 
L 108.899398 84.891861 
L 108.761269 84.852068 
L 108.62314 84.812275 
L 108.485011 84.772483 
L 108.346881 84.73269 
L 108.208752 84.692898 
L 108.070623 84.653105 
L 107.932494 84.613312 
L 107.794365 84.57352 
L 107.656236 84.533727 
L 107.518106 84.493934 
L 107.379977 84.454142 
L 107.241848 84.414349 
L 107.103719 84.374556 
L 106.96559 84.334764 
L 106.82746 84.294971 
L 106.689331 84.255178 
L 106.551202 84.215386 
L 106.413073 84.175593 
L 106.274944 84.1358 
L 106.136815 84.096008 
L 105.998685 84.056215 
L 105.860556 84.016422 
L 105.722427 83.97663 
L 105.584298 83.936837 
L 105.446169 83.897045 
L 105.30804 83.857252 
L 105.16991 83.817459 
L 105.031781 83.777667 
L 104.893652 83.737874 
L 104.755523 83.698081 
L 104.617394 83.658289 
L 104.479264 83.618496 
L 104.341135 83.578703 
L 104.203006 83.538911 
L 104.064877 83.499118 
L 103.926748 83.459325 
L 103.788619 83.419533 
L 103.650489 83.37974 
L 103.51236 83.339948 
L 103.374231 83.300155 
L 103.236102 83.260362 
L 103.097973 83.22057 
L 102.959843 83.180777 
L 102.821714 83.140985 
L 102.683585 83.101192 
L 102.545456 83.061399 
L 102.407327 83.021607 
L 102.269198 82.981814 
L 102.131068 82.942022 
L 101.992939 82.902229 
L 101.85481 82.862437 
L 101.716681 82.822644 
L 101.578552 82.782852 
L 101.440422 82.743059 
L 101.302293 82.703267 
L 101.164164 82.663474 
L 101.026035 82.623682 
L 100.887906 82.583889 
L 100.749777 82.544096 
L 100.611647 82.504304 
L 100.473518 82.464511 
L 100.335389 82.424718 
L 100.19726 82.384926 
L 100.059131 82.345133 
L 99.921002 82.30534 
L 99.782872 82.265548 
L 99.644743 82.225755 
L 99.506614 82.185962 
L 99.368485 82.14617 
L 99.230356 82.106377 
L 99.092226 82.066584 
L 98.954097 82.026792 
L 98.815968 81.986999 
L 98.677839 81.947206 
L 98.53971 81.907414 
L 98.401581 81.867621 
L 98.263451 81.827828 
L 98.125322 81.788036 
L 97.987193 81.748243 
L 97.849064 81.70845 
L 97.710935 81.668658 
L 97.572805 81.628865 
L 97.434676 81.589072 
L 97.296547 81.54928 
L 97.158418 81.509487 
L 97.020289 81.469694 
L 96.88216 81.429902 
L 96.74403 81.390109 
L 96.605901 81.350317 
L 96.467772 81.310524 
L 96.329643 81.270732 
L 96.191514 81.23094 
L 96.053384 81.191147 
L 95.915255 81.151356 
L 95.777126 81.111564 
L 95.638997 81.071773 
L 95.500868 81.031983 
L 95.362739 80.992194 
L 95.224609 80.952408 
L 95.08648 80.912624 
L 94.948351 80.872845 
L 94.810222 80.833073 
L 94.672093 80.793313 
L 94.533964 80.753571 
L 94.395834 80.713856 
L 94.257705 80.674184 
L 94.119576 80.63458 
L 93.981447 80.595083 
L 93.843318 80.555752 
L 93.705188 80.516684 
L 93.567059 80.478025 
L 93.42893 80.440007 
L 93.290801 80.402981 
L 93.152672 80.36748 
L 93.014543 80.334293 
L 92.876413 80.304556 
L 92.738284 80.279848 
L 92.600155 80.26224 
L 92.462026 80.254277 
L 92.323897 80.258791 
L 92.185767 80.278572 
L 92.047638 80.315915 
L 91.909509 80.372232 
L 91.77138 80.447868 
L 91.633251 80.542178 
L 91.495122 80.653794 
L 91.356992 80.780946 
L 91.218863 80.921734 
L 91.080734 81.074309 
L 90.942605 81.236969 
L 90.804476 81.408193 
L 90.666346 81.58664 
L 90.528217 81.771132 
L 90.390088 81.960628 
L 90.251959 82.154198 
L 90.11383 82.351 
L 89.975701 82.55026 
L 89.837571 82.751251 
L 89.699442 82.953277 
L 89.561313 83.155662 
L 89.423184 83.357736 
L 89.285055 83.558825 
L 89.146926 83.758245 
L 89.008796 83.955292 
L 88.870667 84.149241 
L 88.732538 84.339343 
L 88.594409 84.524826 
L 88.45628 84.704901 
L 88.31815 84.878771 
L 88.180021 85.045638 
L 88.041892 85.204726 
L 87.903763 85.355297 
L 87.765634 85.49667 
L 87.627505 85.62825 
L 87.489375 85.749542 
L 87.351246 85.860177 
L 87.213117 85.959922 
L 87.074988 86.048689 
L 86.936859 86.126536 
L 86.798729 86.193658 
L 86.6606 86.250376 
L 86.522471 86.297111 
L 86.384342 86.334368 
L 86.246213 86.362696 
L 86.108084 86.382671 
L 85.969954 86.394857 
L 85.831825 86.39978 
L 85.693696 86.39789 
L 85.555567 86.389535 
L 85.417438 86.374917 
L 85.279308 86.35409 
L 85.141179 86.327036 
L 85.00305 86.294022 
L 84.864921 86.256361 
L 84.726792 86.216724 
L 84.588663 86.176932 
L 84.450533 86.137139 
L 84.312404 86.097346 
L 84.174275 86.057554 
L 84.036146 86.017761 
L 83.898017 85.977968 
L 83.759888 85.938176 
L 83.621758 85.898383 
L 83.483629 85.85859 
L 83.3455 85.818798 
L 83.207371 85.779005 
L 83.069242 85.739212 
L 82.931112 85.69942 
L 82.792983 85.659627 
L 82.654854 85.619834 
L 82.516725 85.580042 
L 82.378596 85.540249 
L 82.240467 85.500456 
L 82.102337 85.460664 
L 81.964208 85.420871 
L 81.826079 85.381078 
L 81.68795 85.341286 
L 81.549821 85.301493 
L 81.411691 85.2617 
L 81.273562 85.221908 
L 81.135433 85.182115 
L 80.997304 85.142322 
L 80.859175 85.10253 
L 80.721046 85.062737 
L 80.582916 85.022944 
L 80.444787 84.983152 
L 80.306658 84.943359 
L 80.168529 84.903566 
L 80.0304 84.863774 
L 79.89227 84.823981 
L 79.754141 84.784188 
L 79.616012 84.744396 
L 79.477883 84.704603 
L 79.339754 84.66481 
L 79.201625 84.625018 
L 79.063495 84.585225 
L 78.925366 84.545432 
L 78.787237 84.50564 
L 78.649108 84.465847 
L 78.510979 84.426054 
L 78.37285 84.386262 
L 78.23472 84.346469 
L 78.096591 84.306676 
L 77.958462 84.266884 
L 77.820333 84.227091 
L 77.682204 84.187298 
L 77.544074 84.147506 
L 77.405945 84.107713 
L 77.267816 84.06792 
L 77.129687 84.028128 
L 76.991558 83.988335 
L 76.853429 83.948542 
L 76.715299 83.90875 
L 76.57717 83.868957 
L 76.439041 83.829164 
L 76.300912 83.789372 
L 76.162783 83.749579 
L 76.024653 83.709786 
L 75.886524 83.669994 
L 75.748395 83.630201 
L 75.610266 83.590408 
L 75.472137 83.550616 
L 75.334008 83.510823 
L 75.195878 83.47103 
L 75.057749 83.431238 
L 74.91962 83.391445 
L 74.781491 83.351652 
L 74.643362 83.31186 
L 74.505232 83.272067 
L 74.367103 83.232274 
L 74.228974 83.192482 
L 74.090845 83.152689 
L 73.952716 83.112896 
L 73.814587 83.073104 
L 73.676457 83.033311 
L 73.538328 82.993518 
L 73.400199 82.953726 
L 73.26207 82.913933 
L 73.123941 82.87414 
L 72.985812 82.834348 
L 72.847682 82.794555 
L 72.709553 82.754762 
L 72.571424 82.71497 
L 72.433295 82.675177 
L 72.295166 82.635384 
L 72.157036 82.595592 
L 72.018907 82.555799 
L 71.880778 82.516006 
L 71.742649 82.476214 
L 71.60452 82.436421 
L 71.466391 82.396628 
L 71.328261 82.356836 
L 71.190132 82.317043 
L 71.052003 82.27725 
L 70.913874 82.237458 
L 70.775745 82.197665 
L 70.637615 82.157872 
L 70.499486 82.11808 
L 70.361357 82.078287 
L 70.223228 82.038494 
L 70.085099 81.998702 
L 69.94697 81.958909 
L 69.80884 81.919116 
L 69.670711 81.879324 
L 69.532582 81.839531 
L 69.394453 81.799738 
L 69.256324 81.759946 
L 69.118194 81.720153 
L 68.980065 81.68036 
L 68.841936 81.640568 
L 68.703807 81.600775 
L 68.565678 81.560982 
L 68.427549 81.52119 
L 68.289419 81.481397 
L 68.15129 81.441604 
L 68.013161 81.401812 
L 67.875032 81.362019 
L 67.736903 81.322226 
L 67.598774 81.282434 
L 67.460644 81.242641 
L 67.322515 81.202848 
L 67.184386 81.163056 
L 67.046257 81.123263 
L 66.908128 81.08347 
L 66.769998 81.043678 
L 66.631869 81.003885 
L 66.49374 80.964092 
L 66.355611 80.9243 
L 66.217482 80.884507 
L 66.079353 80.844714 
L 65.941223 80.804922 
L 65.803094 80.765129 
L 65.664965 80.725336 
L 65.526836 80.685544 
L 65.388707 80.645751 
L 65.250577 80.605958 
L 65.112448 80.566166 
L 64.974319 80.526373 
L 64.83619 80.48658 
L 64.698061 80.446788 
L 64.559932 80.406995 
L 64.421802 80.367202 
L 64.283673 80.32741 
L 64.145544 80.287617 
L 64.007415 80.247824 
L 63.869286 80.208032 
L 63.731157 80.168239 
L 63.593027 80.128446 
L 63.454898 80.088654 
L 63.316769 80.048861 
L 63.17864 80.009068 
L 63.040511 79.969276 
L 62.902381 79.929483 
L 62.764252 79.88969 
L 62.626123 79.849898 
L 62.487994 79.810105 
L 62.349865 79.770312 
L 62.211736 79.73052 
L 62.073606 79.690727 
L 61.935477 79.650934 
L 61.797348 79.611142 
L 61.659219 79.571349 
L 61.52109 79.531556 
L 61.38296 79.491764 
L 61.244831 79.451971 
L 61.106702 79.412178 
L 60.968573 79.372386 
L 60.830444 79.332593 
L 60.692315 79.2928 
L 60.554185 79.253008 
L 60.416056 79.213215 
L 60.277927 79.173422 
L 60.139798 79.13363 
L 60.001669 79.093837 
L 59.863539 79.054044 
L 59.72541 79.014252 
L 59.587281 78.974459 
L 59.449152 78.934666 
L 59.311023 78.894874 
L 59.172894 78.855081 
L 59.034764 78.815288 
L 58.896635 78.775496 
L 58.758506 78.735703 
L 58.620377 78.69591 
L 58.482248 78.656118 
L 58.344119 78.616325 
L 58.205989 78.576532 
L 58.06786 78.53674 
L 57.929731 78.496947 
L 57.791602 78.457155 
L 57.653473 78.417362 
L 57.515343 78.377569 
L 57.377214 78.337777 
L 57.239085 78.297984 
L 57.100956 78.258192 
L 56.962827 78.218399 
L 56.824698 78.178607 
L 56.686568 78.138814 
L 56.548439 78.099021 
L 56.41031 78.059229 
L 56.272181 78.019437 
L 56.134052 77.979644 
L 55.995922 77.939852 
L 55.857793 77.900059 
L 55.719664 77.860267 
L 55.581535 77.820475 
L 55.443406 77.780683 
L 55.305277 77.740891 
L 55.167147 77.701099 
L 55.029018 77.661307 
L 54.890889 77.621515 
L 54.75276 77.581723 
L 54.614631 77.541932 
L 54.476501 77.502141 
L 54.338372 77.462359 
L 54.200243 77.422685 
L 54.062114 77.384388 
L 53.923985 77.359267 
L 53.785856 77.391757 
L 53.647726 77.50136 
L 53.509597 77.6517 
L 53.371468 77.820447 
L 53.233339 78.000259 
L 53.09521 78.188496 
L 52.957081 78.383922 
L 52.818951 78.585787 
L 52.680822 78.793532 
L 52.542693 79.00669 
L 52.404564 79.224841 
L 52.266435 79.4476 
L 52.128305 79.674604 
L 51.990176 79.905516 
L 51.852047 80.140018 
L 51.713918 80.377815 
L 51.575789 80.61863 
L 51.43766 80.862209 
L 51.29953 81.10832 
L 51.161401 81.356752 
L 51.023272 81.607314 
L 50.885143 81.859839 
L 50.747014 82.114184 
L 50.608884 82.370229 
L 50.470755 82.627879 
L 50.332626 82.88707 
L 50.194497 83.147768 
L 50.056368 83.409977 
L 49.918239 83.673739 
L 49.780109 83.939148 
L 49.64198 84.206352 
L 49.503851 84.475569 
L 49.365722 84.747098 
L 49.227593 85.021335 
L 49.089463 85.29879 
L 48.951334 85.580118 
L 48.813205 85.866138 
L 48.675076 86.157873 
L 48.536947 86.456589 
L 48.398818 86.763848 
L 48.260688 87.081567 
L 48.122559 87.412103 
L 47.98443 87.758353 
L 47.846301 88.123888 
L 47.708172 88.513145 
L 47.570043 88.93167 
L 47.431913 89.38649 
L 47.293784 89.886632 
L 47.155655 90.443911 
L 47.017526 91.074143 
L 46.879397 91.799089 
L 46.741267 92.649753 
L 46.603138 93.672673 
L 46.465009 94.944689 
L 46.32688 96.615672 
L 46.188751 99.043225 
L 46.050622 103.369663 
L 45.912492 3910.42875 
z
" clip-path="url(#p6e1e2cd7b5)" style="fill: #8c8c8c; fill-opacity: 0.7"/>
   </g>
   <g id="patch_3">
    <path d="M 45.912492 92.67875 
L 45.912492 16.32375 
" style="fill: none; stroke: #262626; stroke-linejoin: miter; stroke-linecap: square"/>
   </g>
   <g id="patch_4">
    <path d="M 128.79 92.67875 
L 128.79 16.32375 
" style="fill: none; stroke: #262626; stroke-linejoin: miter; stroke-linecap: square"/>
   </g>
   <g id="patch_5">
    <path d="M 45.912492 92.67875 
L 128.79 92.67875 
" style="fill: none; stroke: #262626; stroke-linejoin: miter; stroke-linecap: square"/>
   </g>
   <g id="patch_6">
    <path d="M 45.912492 16.32375 
L 128.79 16.32375 
" style="fill: none; stroke: #262626; stroke-linejoin: miter; stroke-linecap: square"/>
   </g>
  </g>
 </g>
 <defs>
  <clipPath id="p6e1e2cd7b5">
   <rect x="45.912492" y="16.32375" width="82.877508" height="76.355"/>
  </clipPath>
 </defs>
</svg>
