<?xml version="1.0" encoding="utf-8" standalone="no"?>
<!DOCTYPE svg PUBLIC "-//W3C//DTD SVG 1.1//EN"
  "http://www.w3.org/Graphics/SVG/1.1/DTD/svg11.dtd">
<svg xmlns:xlink="http://www.w3.org/1999/xlink" width="114.074226pt" height="115.20875pt" viewBox="0 0 114.074226 115.20875" xmlns="http://www.w3.org/2000/svg" version="1.1">
 <metadata>
  <rdf:RDF xmlns:dc="http://purl.org/dc/elements/1.1/" xmlns:cc="http://creativecommons.org/ns#" xmlns:rdf="http://www.w3.org/1999/02/22-rdf-syntax-ns#">
   <cc:Work>
    <dc:type rdf:resource="http://purl.org/dc/dcmitype/StillImage"/>
    <dc:date>2022-11-02T11:55:14.852875</dc:date>
    <dc:format>image/svg+xml</dc:format>
    <dc:creator>
     <cc:Agent>
      <dc:title>Matplotlib v3.5.1, https://matplotlib.org/</dc:title>
     </cc:Agent>
    </dc:creator>
   </cc:Work>
  </rdf:RDF>
 </metadata>
 <defs>
  <style type="text/css">*{stroke-linejoin: round; stroke-linecap: butt}</style>
 </defs>
 <g id="figure_1">
  <g id="patch_1">
   <path d="M 0 115.20875 
L 114.074226 115.20875 
L 114.074226 0 
L 0 0 
z
" style="fill: #ffffff"/>
  </g>
  <g id="axes_1">
   <g id="patch_2">
    <path d="M 41.242969 80.67 
L 106.874226 80.67 
L 106.874226 7.2 
L 41.242969 7.2 
z
" style="fill: #ffffff"/>
   </g>
   <g id="matplotlib.axis_1">
    <g id="xtick_1">
     <g id="line2d_1">
      <defs>
       <path id="md5c776cba0" d="M 0 0 
L 0 4 
" style="stroke: #262626; stroke-width: 0.8"/>
      </defs>
      <g>
       <use xlink:href="#md5c776cba0" x="52.181512" y="80.67" style="fill: #262626; stroke: #262626; stroke-width: 0.8"/>
      </g>
     </g>
     <g id="text_1">
      <!-- IL2 -->
      <g style="fill: #262626" transform="translate(54.249637 97.79)rotate(-90)scale(0.08 -0.08)">
       <defs>
        <path id="ArialMT-49" d="M 597 0 
L 597 4581 
L 1203 4581 
L 1203 0 
L 597 0 
z
" transform="scale(0.015625)"/>
        <path id="ArialMT-4c" d="M 469 0 
L 469 4581 
L 1075 4581 
L 1075 541 
L 3331 541 
L 3331 0 
L 469 0 
z
" transform="scale(0.015625)"/>
        <path id="ArialMT-32" d="M 3222 541 
L 3222 0 
L 194 0 
Q 188 203 259 391 
Q 375 700 629 1000 
Q 884 1300 1366 1694 
Q 2113 2306 2375 2664 
Q 2638 3022 2638 3341 
Q 2638 3675 2398 3904 
Q 2159 4134 1775 4134 
Q 1369 4134 1125 3890 
Q 881 3647 878 3216 
L 300 3275 
Q 359 3922 746 4261 
Q 1134 4600 1788 4600 
Q 2447 4600 2831 4234 
Q 3216 3869 3216 3328 
Q 3216 3053 3103 2787 
Q 2991 2522 2730 2228 
Q 2469 1934 1863 1422 
Q 1356 997 1212 845 
Q 1069 694 975 541 
L 3222 541 
z
" transform="scale(0.015625)"/>
       </defs>
       <use xlink:href="#ArialMT-49"/>
       <use xlink:href="#ArialMT-4c" x="27.783203"/>
       <use xlink:href="#ArialMT-32" x="83.398438"/>
      </g>
     </g>
    </g>
    <g id="xtick_2">
     <g id="line2d_2">
      <g>
       <use xlink:href="#md5c776cba0" x="74.058598" y="80.67" style="fill: #262626; stroke: #262626; stroke-width: 0.8"/>
      </g>
     </g>
     <g id="text_2">
      <!-- Timer -->
      <g style="fill: #262626" transform="translate(76.126723 106.81)rotate(-90)scale(0.08 -0.08)">
       <defs>
        <path id="ArialMT-54" d="M 1659 0 
L 1659 4041 
L 150 4041 
L 150 4581 
L 3781 4581 
L 3781 4041 
L 2266 4041 
L 2266 0 
L 1659 0 
z
" transform="scale(0.015625)"/>
        <path id="ArialMT-69" d="M 425 3934 
L 425 4581 
L 988 4581 
L 988 3934 
L 425 3934 
z
M 425 0 
L 425 3319 
L 988 3319 
L 988 0 
L 425 0 
z
" transform="scale(0.015625)"/>
        <path id="ArialMT-6d" d="M 422 0 
L 422 3319 
L 925 3319 
L 925 2853 
Q 1081 3097 1340 3245 
Q 1600 3394 1931 3394 
Q 2300 3394 2536 3241 
Q 2772 3088 2869 2813 
Q 3263 3394 3894 3394 
Q 4388 3394 4653 3120 
Q 4919 2847 4919 2278 
L 4919 0 
L 4359 0 
L 4359 2091 
Q 4359 2428 4304 2576 
Q 4250 2725 4106 2815 
Q 3963 2906 3769 2906 
Q 3419 2906 3187 2673 
Q 2956 2441 2956 1928 
L 2956 0 
L 2394 0 
L 2394 2156 
Q 2394 2531 2256 2718 
Q 2119 2906 1806 2906 
Q 1569 2906 1367 2781 
Q 1166 2656 1075 2415 
Q 984 2175 984 1722 
L 984 0 
L 422 0 
z
" transform="scale(0.015625)"/>
        <path id="ArialMT-65" d="M 2694 1069 
L 3275 997 
Q 3138 488 2766 206 
Q 2394 -75 1816 -75 
Q 1088 -75 661 373 
Q 234 822 234 1631 
Q 234 2469 665 2931 
Q 1097 3394 1784 3394 
Q 2450 3394 2872 2941 
Q 3294 2488 3294 1666 
Q 3294 1616 3291 1516 
L 816 1516 
Q 847 969 1125 678 
Q 1403 388 1819 388 
Q 2128 388 2347 550 
Q 2566 713 2694 1069 
z
M 847 1978 
L 2700 1978 
Q 2663 2397 2488 2606 
Q 2219 2931 1791 2931 
Q 1403 2931 1139 2672 
Q 875 2413 847 1978 
z
" transform="scale(0.015625)"/>
        <path id="ArialMT-72" d="M 416 0 
L 416 3319 
L 922 3319 
L 922 2816 
Q 1116 3169 1280 3281 
Q 1444 3394 1641 3394 
Q 1925 3394 2219 3213 
L 2025 2691 
Q 1819 2813 1613 2813 
Q 1428 2813 1281 2702 
Q 1134 2591 1072 2394 
Q 978 2094 978 1738 
L 978 0 
L 416 0 
z
" transform="scale(0.015625)"/>
       </defs>
       <use xlink:href="#ArialMT-54"/>
       <use xlink:href="#ArialMT-69" x="57.333984"/>
       <use xlink:href="#ArialMT-6d" x="79.550781"/>
       <use xlink:href="#ArialMT-65" x="162.851562"/>
       <use xlink:href="#ArialMT-72" x="218.466797"/>
      </g>
     </g>
    </g>
    <g id="xtick_3">
     <g id="line2d_3">
      <g>
       <use xlink:href="#md5c776cba0" x="95.935683" y="80.67" style="fill: #262626; stroke: #262626; stroke-width: 0.8"/>
      </g>
     </g>
     <g id="text_3">
      <!-- Mixed -->
      <g style="fill: #262626" transform="translate(98.003808 108.00875)rotate(-90)scale(0.08 -0.08)">
       <defs>
        <path id="ArialMT-4d" d="M 475 0 
L 475 4581 
L 1388 4581 
L 2472 1338 
Q 2622 884 2691 659 
Q 2769 909 2934 1394 
L 4031 4581 
L 4847 4581 
L 4847 0 
L 4263 0 
L 4263 3834 
L 2931 0 
L 2384 0 
L 1059 3900 
L 1059 0 
L 475 0 
z
" transform="scale(0.015625)"/>
        <path id="ArialMT-78" d="M 47 0 
L 1259 1725 
L 138 3319 
L 841 3319 
L 1350 2541 
Q 1494 2319 1581 2169 
Q 1719 2375 1834 2534 
L 2394 3319 
L 3066 3319 
L 1919 1756 
L 3153 0 
L 2463 0 
L 1781 1031 
L 1600 1309 
L 728 0 
L 47 0 
z
" transform="scale(0.015625)"/>
        <path id="ArialMT-64" d="M 2575 0 
L 2575 419 
Q 2259 -75 1647 -75 
Q 1250 -75 917 144 
Q 584 363 401 755 
Q 219 1147 219 1656 
Q 219 2153 384 2558 
Q 550 2963 881 3178 
Q 1213 3394 1622 3394 
Q 1922 3394 2156 3267 
Q 2391 3141 2538 2938 
L 2538 4581 
L 3097 4581 
L 3097 0 
L 2575 0 
z
M 797 1656 
Q 797 1019 1065 703 
Q 1334 388 1700 388 
Q 2069 388 2326 689 
Q 2584 991 2584 1609 
Q 2584 2291 2321 2609 
Q 2059 2928 1675 2928 
Q 1300 2928 1048 2622 
Q 797 2316 797 1656 
z
" transform="scale(0.015625)"/>
       </defs>
       <use xlink:href="#ArialMT-4d"/>
       <use xlink:href="#ArialMT-69" x="83.300781"/>
       <use xlink:href="#ArialMT-78" x="105.517578"/>
       <use xlink:href="#ArialMT-65" x="155.517578"/>
       <use xlink:href="#ArialMT-64" x="211.132812"/>
      </g>
     </g>
    </g>
   </g>
   <g id="matplotlib.axis_2">
    <g id="ytick_1">
     <g id="line2d_4">
      <defs>
       <path id="m9ca4eddf19" d="M 0 0 
L -4 0 
" style="stroke: #262626; stroke-width: 0.8"/>
      </defs>
      <g>
       <use xlink:href="#m9ca4eddf19" x="41.242969" y="63.214098" style="fill: #262626; stroke: #262626; stroke-width: 0.8"/>
      </g>
     </g>
     <g id="text_4">
      <!-- $\mathdefault{10^{8}}$ -->
      <g style="fill: #262626" transform="translate(22.682969 67.339098)scale(0.08 -0.08)">
       <defs>
        <path id="ArialMT-31" d="M 2384 0 
L 1822 0 
L 1822 3584 
Q 1619 3391 1289 3197 
Q 959 3003 697 2906 
L 697 3450 
Q 1169 3672 1522 3987 
Q 1875 4303 2022 4600 
L 2384 4600 
L 2384 0 
z
" transform="scale(0.015625)"/>
        <path id="ArialMT-30" d="M 266 2259 
Q 266 3072 433 3567 
Q 600 4063 929 4331 
Q 1259 4600 1759 4600 
Q 2128 4600 2406 4451 
Q 2684 4303 2865 4023 
Q 3047 3744 3150 3342 
Q 3253 2941 3253 2259 
Q 3253 1453 3087 958 
Q 2922 463 2592 192 
Q 2263 -78 1759 -78 
Q 1097 -78 719 397 
Q 266 969 266 2259 
z
M 844 2259 
Q 844 1131 1108 757 
Q 1372 384 1759 384 
Q 2147 384 2411 759 
Q 2675 1134 2675 2259 
Q 2675 3391 2411 3762 
Q 2147 4134 1753 4134 
Q 1366 4134 1134 3806 
Q 844 3388 844 2259 
z
" transform="scale(0.015625)"/>
        <path id="ArialMT-38" d="M 1131 2484 
Q 781 2613 612 2850 
Q 444 3088 444 3419 
Q 444 3919 803 4259 
Q 1163 4600 1759 4600 
Q 2359 4600 2725 4251 
Q 3091 3903 3091 3403 
Q 3091 3084 2923 2848 
Q 2756 2613 2416 2484 
Q 2838 2347 3058 2040 
Q 3278 1734 3278 1309 
Q 3278 722 2862 322 
Q 2447 -78 1769 -78 
Q 1091 -78 675 323 
Q 259 725 259 1325 
Q 259 1772 486 2073 
Q 713 2375 1131 2484 
z
M 1019 3438 
Q 1019 3113 1228 2906 
Q 1438 2700 1772 2700 
Q 2097 2700 2305 2904 
Q 2513 3109 2513 3406 
Q 2513 3716 2298 3927 
Q 2084 4138 1766 4138 
Q 1444 4138 1231 3931 
Q 1019 3725 1019 3438 
z
M 838 1322 
Q 838 1081 952 856 
Q 1066 631 1291 507 
Q 1516 384 1775 384 
Q 2178 384 2440 643 
Q 2703 903 2703 1303 
Q 2703 1709 2433 1975 
Q 2163 2241 1756 2241 
Q 1359 2241 1098 1978 
Q 838 1716 838 1322 
z
" transform="scale(0.015625)"/>
       </defs>
       <use xlink:href="#ArialMT-31" transform="translate(0 0.99375)"/>
       <use xlink:href="#ArialMT-30" transform="translate(55.615234 0.99375)"/>
       <use xlink:href="#ArialMT-38" transform="translate(112.972813 70.6875)scale(0.7)"/>
      </g>
     </g>
    </g>
    <g id="ytick_2">
     <g id="line2d_5">
      <g>
       <use xlink:href="#m9ca4eddf19" x="41.242969" y="44.297224" style="fill: #262626; stroke: #262626; stroke-width: 0.8"/>
      </g>
     </g>
     <g id="text_5">
      <!-- $\mathdefault{10^{18}}$ -->
      <g style="fill: #262626" transform="translate(19.562969 48.422224)scale(0.08 -0.08)">
       <use xlink:href="#ArialMT-31" transform="translate(0 0.99375)"/>
       <use xlink:href="#ArialMT-30" transform="translate(55.615234 0.99375)"/>
       <use xlink:href="#ArialMT-31" transform="translate(112.972813 70.6875)scale(0.7)"/>
       <use xlink:href="#ArialMT-38" transform="translate(151.903477 70.6875)scale(0.7)"/>
      </g>
     </g>
    </g>
    <g id="ytick_3">
     <g id="line2d_6">
      <g>
       <use xlink:href="#m9ca4eddf19" x="41.242969" y="25.380351" style="fill: #262626; stroke: #262626; stroke-width: 0.8"/>
      </g>
     </g>
     <g id="text_6">
      <!-- $\mathdefault{10^{28}}$ -->
      <g style="fill: #262626" transform="translate(19.562969 29.505351)scale(0.08 -0.08)">
       <use xlink:href="#ArialMT-31" transform="translate(0 0.99375)"/>
       <use xlink:href="#ArialMT-30" transform="translate(55.615234 0.99375)"/>
       <use xlink:href="#ArialMT-32" transform="translate(112.972813 70.6875)scale(0.7)"/>
       <use xlink:href="#ArialMT-38" transform="translate(151.903477 70.6875)scale(0.7)"/>
      </g>
     </g>
    </g>
    <g id="text_7">
     <!-- cells day 60 -->
     <g style="fill: #262626" transform="translate(13.66875 67.697109)rotate(-90)scale(0.09 -0.09)">
      <defs>
       <path id="ArialMT-63" d="M 2588 1216 
L 3141 1144 
Q 3050 572 2676 248 
Q 2303 -75 1759 -75 
Q 1078 -75 664 370 
Q 250 816 250 1647 
Q 250 2184 428 2587 
Q 606 2991 970 3192 
Q 1334 3394 1763 3394 
Q 2303 3394 2647 3120 
Q 2991 2847 3088 2344 
L 2541 2259 
Q 2463 2594 2264 2762 
Q 2066 2931 1784 2931 
Q 1359 2931 1093 2626 
Q 828 2322 828 1663 
Q 828 994 1084 691 
Q 1341 388 1753 388 
Q 2084 388 2306 591 
Q 2528 794 2588 1216 
z
" transform="scale(0.015625)"/>
       <path id="ArialMT-6c" d="M 409 0 
L 409 4581 
L 972 4581 
L 972 0 
L 409 0 
z
" transform="scale(0.015625)"/>
       <path id="ArialMT-73" d="M 197 991 
L 753 1078 
Q 800 744 1014 566 
Q 1228 388 1613 388 
Q 2000 388 2187 545 
Q 2375 703 2375 916 
Q 2375 1106 2209 1216 
Q 2094 1291 1634 1406 
Q 1016 1563 777 1677 
Q 538 1791 414 1992 
Q 291 2194 291 2438 
Q 291 2659 392 2848 
Q 494 3038 669 3163 
Q 800 3259 1026 3326 
Q 1253 3394 1513 3394 
Q 1903 3394 2198 3281 
Q 2494 3169 2634 2976 
Q 2775 2784 2828 2463 
L 2278 2388 
Q 2241 2644 2061 2787 
Q 1881 2931 1553 2931 
Q 1166 2931 1000 2803 
Q 834 2675 834 2503 
Q 834 2394 903 2306 
Q 972 2216 1119 2156 
Q 1203 2125 1616 2013 
Q 2213 1853 2448 1751 
Q 2684 1650 2818 1456 
Q 2953 1263 2953 975 
Q 2953 694 2789 445 
Q 2625 197 2315 61 
Q 2006 -75 1616 -75 
Q 969 -75 630 194 
Q 291 463 197 991 
z
" transform="scale(0.015625)"/>
       <path id="ArialMT-20" transform="scale(0.015625)"/>
       <path id="ArialMT-61" d="M 2588 409 
Q 2275 144 1986 34 
Q 1697 -75 1366 -75 
Q 819 -75 525 192 
Q 231 459 231 875 
Q 231 1119 342 1320 
Q 453 1522 633 1644 
Q 813 1766 1038 1828 
Q 1203 1872 1538 1913 
Q 2219 1994 2541 2106 
Q 2544 2222 2544 2253 
Q 2544 2597 2384 2738 
Q 2169 2928 1744 2928 
Q 1347 2928 1158 2789 
Q 969 2650 878 2297 
L 328 2372 
Q 403 2725 575 2942 
Q 747 3159 1072 3276 
Q 1397 3394 1825 3394 
Q 2250 3394 2515 3294 
Q 2781 3194 2906 3042 
Q 3031 2891 3081 2659 
Q 3109 2516 3109 2141 
L 3109 1391 
Q 3109 606 3145 398 
Q 3181 191 3288 0 
L 2700 0 
Q 2613 175 2588 409 
z
M 2541 1666 
Q 2234 1541 1622 1453 
Q 1275 1403 1131 1340 
Q 988 1278 909 1158 
Q 831 1038 831 891 
Q 831 666 1001 516 
Q 1172 366 1500 366 
Q 1825 366 2078 508 
Q 2331 650 2450 897 
Q 2541 1088 2541 1459 
L 2541 1666 
z
" transform="scale(0.015625)"/>
       <path id="ArialMT-79" d="M 397 -1278 
L 334 -750 
Q 519 -800 656 -800 
Q 844 -800 956 -737 
Q 1069 -675 1141 -563 
Q 1194 -478 1313 -144 
Q 1328 -97 1363 -6 
L 103 3319 
L 709 3319 
L 1400 1397 
Q 1534 1031 1641 628 
Q 1738 1016 1872 1384 
L 2581 3319 
L 3144 3319 
L 1881 -56 
Q 1678 -603 1566 -809 
Q 1416 -1088 1222 -1217 
Q 1028 -1347 759 -1347 
Q 597 -1347 397 -1278 
z
" transform="scale(0.015625)"/>
       <path id="ArialMT-36" d="M 3184 3459 
L 2625 3416 
Q 2550 3747 2413 3897 
Q 2184 4138 1850 4138 
Q 1581 4138 1378 3988 
Q 1113 3794 959 3422 
Q 806 3050 800 2363 
Q 1003 2672 1297 2822 
Q 1591 2972 1913 2972 
Q 2475 2972 2870 2558 
Q 3266 2144 3266 1488 
Q 3266 1056 3080 686 
Q 2894 316 2569 119 
Q 2244 -78 1831 -78 
Q 1128 -78 684 439 
Q 241 956 241 2144 
Q 241 3472 731 4075 
Q 1159 4600 1884 4600 
Q 2425 4600 2770 4297 
Q 3116 3994 3184 3459 
z
M 888 1484 
Q 888 1194 1011 928 
Q 1134 663 1356 523 
Q 1578 384 1822 384 
Q 2178 384 2434 671 
Q 2691 959 2691 1453 
Q 2691 1928 2437 2201 
Q 2184 2475 1800 2475 
Q 1419 2475 1153 2201 
Q 888 1928 888 1484 
z
" transform="scale(0.015625)"/>
      </defs>
      <use xlink:href="#ArialMT-63"/>
      <use xlink:href="#ArialMT-65" x="50"/>
      <use xlink:href="#ArialMT-6c" x="105.615234"/>
      <use xlink:href="#ArialMT-6c" x="127.832031"/>
      <use xlink:href="#ArialMT-73" x="150.048828"/>
      <use xlink:href="#ArialMT-20" x="200.048828"/>
      <use xlink:href="#ArialMT-64" x="227.832031"/>
      <use xlink:href="#ArialMT-61" x="283.447266"/>
      <use xlink:href="#ArialMT-79" x="339.0625"/>
      <use xlink:href="#ArialMT-20" x="389.0625"/>
      <use xlink:href="#ArialMT-36" x="416.845703"/>
      <use xlink:href="#ArialMT-30" x="472.460938"/>
     </g>
    </g>
   </g>
   <g id="patch_3">
    <path d="M 43.430677 66.895919 
L 60.932346 66.895919 
L 60.932346 52.726707 
L 43.430677 52.726707 
L 43.430677 66.895919 
z
" clip-path="url(#p31f26df3a6)" style="fill: #857aab; stroke: #1a1a1a; stroke-linejoin: miter"/>
   </g>
   <g id="patch_4">
    <path d="M 65.307763 70.92573 
L 82.809432 70.92573 
L 82.809432 62.534961 
L 65.307763 62.534961 
L 65.307763 70.92573 
z
" clip-path="url(#p31f26df3a6)" style="fill: #c1b37f; stroke: #1a1a1a; stroke-linejoin: miter"/>
   </g>
   <g id="patch_5">
    <path d="M 87.184849 76.60117 
L 104.686518 76.60117 
L 104.686518 70.163228 
L 87.184849 70.163228 
L 87.184849 76.60117 
z
" clip-path="url(#p31f26df3a6)" style="fill: #8c8c8c; stroke: #1a1a1a; stroke-linejoin: miter"/>
   </g>
   <g id="line2d_7">
    <path d="M 52.181512 66.895919 
L 52.181512 76.648589 
" clip-path="url(#p31f26df3a6)" style="fill: none; stroke: #1a1a1a; stroke-linecap: round"/>
   </g>
   <g id="line2d_8">
    <path d="M 52.181512 52.726707 
L 52.181512 52.579074 
" clip-path="url(#p31f26df3a6)" style="fill: none; stroke: #1a1a1a; stroke-linecap: round"/>
   </g>
   <g id="line2d_9">
    <path d="M 47.806095 76.648589 
L 56.556929 76.648589 
" clip-path="url(#p31f26df3a6)" style="fill: none; stroke: #1a1a1a; stroke-linecap: round"/>
   </g>
   <g id="line2d_10">
    <path d="M 47.806095 52.579074 
L 56.556929 52.579074 
" clip-path="url(#p31f26df3a6)" style="fill: none; stroke: #1a1a1a; stroke-linecap: round"/>
   </g>
   <g id="line2d_11">
    <defs>
     <path id="ma9858c7730" d="M 0 0.707107 
L 0.424264 0 
L 0 -0.707107 
L -0.424264 0 
z
" style="stroke: #545454; stroke-linejoin: miter"/>
    </defs>
    <g clip-path="url(#p31f26df3a6)">
     <use xlink:href="#ma9858c7730" x="52.181512" y="27.615732" style="fill: #545454; stroke: #545454; stroke-linejoin: miter"/>
     <use xlink:href="#ma9858c7730" x="52.181512" y="49.955169" style="fill: #545454; stroke: #545454; stroke-linejoin: miter"/>
     <use xlink:href="#ma9858c7730" x="52.181512" y="14.670859" style="fill: #545454; stroke: #545454; stroke-linejoin: miter"/>
     <use xlink:href="#ma9858c7730" x="52.181512" y="25.076373" style="fill: #545454; stroke: #545454; stroke-linejoin: miter"/>
     <use xlink:href="#ma9858c7730" x="52.181512" y="49.264601" style="fill: #545454; stroke: #545454; stroke-linejoin: miter"/>
     <use xlink:href="#ma9858c7730" x="52.181512" y="46.703408" style="fill: #545454; stroke: #545454; stroke-linejoin: miter"/>
     <use xlink:href="#ma9858c7730" x="52.181512" y="10.539545" style="fill: #545454; stroke: #545454; stroke-linejoin: miter"/>
     <use xlink:href="#ma9858c7730" x="52.181512" y="42.203835" style="fill: #545454; stroke: #545454; stroke-linejoin: miter"/>
     <use xlink:href="#ma9858c7730" x="52.181512" y="33.910583" style="fill: #545454; stroke: #545454; stroke-linejoin: miter"/>
     <use xlink:href="#ma9858c7730" x="52.181512" y="37.553481" style="fill: #545454; stroke: #545454; stroke-linejoin: miter"/>
     <use xlink:href="#ma9858c7730" x="52.181512" y="51.236079" style="fill: #545454; stroke: #545454; stroke-linejoin: miter"/>
     <use xlink:href="#ma9858c7730" x="52.181512" y="36.793819" style="fill: #545454; stroke: #545454; stroke-linejoin: miter"/>
    </g>
   </g>
   <g id="line2d_12">
    <path d="M 74.058598 70.92573 
L 74.058598 72.443925 
" clip-path="url(#p31f26df3a6)" style="fill: none; stroke: #1a1a1a; stroke-linecap: round"/>
   </g>
   <g id="line2d_13">
    <path d="M 74.058598 62.534961 
L 74.058598 61.961901 
" clip-path="url(#p31f26df3a6)" style="fill: none; stroke: #1a1a1a; stroke-linecap: round"/>
   </g>
   <g id="line2d_14">
    <path d="M 69.68318 72.443925 
L 78.434015 72.443925 
" clip-path="url(#p31f26df3a6)" style="fill: none; stroke: #1a1a1a; stroke-linecap: round"/>
   </g>
   <g id="line2d_15">
    <path d="M 69.68318 61.961901 
L 78.434015 61.961901 
" clip-path="url(#p31f26df3a6)" style="fill: none; stroke: #1a1a1a; stroke-linecap: round"/>
   </g>
   <g id="line2d_16">
    <g clip-path="url(#p31f26df3a6)">
     <use xlink:href="#ma9858c7730" x="74.058598" y="61.684029" style="fill: #545454; stroke: #545454; stroke-linejoin: miter"/>
     <use xlink:href="#ma9858c7730" x="74.058598" y="53.441077" style="fill: #545454; stroke: #545454; stroke-linejoin: miter"/>
     <use xlink:href="#ma9858c7730" x="74.058598" y="53.185635" style="fill: #545454; stroke: #545454; stroke-linejoin: miter"/>
    </g>
   </g>
   <g id="line2d_17">
    <path d="M 95.935683 76.60117 
L 95.935683 77.330455 
" clip-path="url(#p31f26df3a6)" style="fill: none; stroke: #1a1a1a; stroke-linecap: round"/>
   </g>
   <g id="line2d_18">
    <path d="M 95.935683 70.163228 
L 95.935683 69.917241 
" clip-path="url(#p31f26df3a6)" style="fill: none; stroke: #1a1a1a; stroke-linecap: round"/>
   </g>
   <g id="line2d_19">
    <path d="M 91.560266 77.330455 
L 100.311101 77.330455 
" clip-path="url(#p31f26df3a6)" style="fill: none; stroke: #1a1a1a; stroke-linecap: round"/>
   </g>
   <g id="line2d_20">
    <path d="M 91.560266 69.917241 
L 100.311101 69.917241 
" clip-path="url(#p31f26df3a6)" style="fill: none; stroke: #1a1a1a; stroke-linecap: round"/>
   </g>
   <g id="line2d_21">
    <g clip-path="url(#p31f26df3a6)">
     <use xlink:href="#ma9858c7730" x="95.935683" y="63.486414" style="fill: #545454; stroke: #545454; stroke-linejoin: miter"/>
     <use xlink:href="#ma9858c7730" x="95.935683" y="69.238508" style="fill: #545454; stroke: #545454; stroke-linejoin: miter"/>
     <use xlink:href="#ma9858c7730" x="95.935683" y="63.694608" style="fill: #545454; stroke: #545454; stroke-linejoin: miter"/>
     <use xlink:href="#ma9858c7730" x="95.935683" y="64.420663" style="fill: #545454; stroke: #545454; stroke-linejoin: miter"/>
     <use xlink:href="#ma9858c7730" x="95.935683" y="68.426084" style="fill: #545454; stroke: #545454; stroke-linejoin: miter"/>
     <use xlink:href="#ma9858c7730" x="95.935683" y="63.701446" style="fill: #545454; stroke: #545454; stroke-linejoin: miter"/>
    </g>
   </g>
   <g id="line2d_22">
    <path d="M 43.430677 60.413644 
L 60.932346 60.413644 
" clip-path="url(#p31f26df3a6)" style="fill: none; stroke: #1a1a1a; stroke-linecap: round"/>
   </g>
   <g id="line2d_23">
    <path d="M 65.307763 64.017206 
L 82.809432 64.017206 
" clip-path="url(#p31f26df3a6)" style="fill: none; stroke: #1a1a1a; stroke-linecap: round"/>
   </g>
   <g id="line2d_24">
    <path d="M 87.184849 76.355791 
L 104.686518 76.355791 
" clip-path="url(#p31f26df3a6)" style="fill: none; stroke: #1a1a1a; stroke-linecap: round"/>
   </g>
   <g id="patch_6">
    <path d="M 41.242969 80.67 
L 41.242969 7.2 
" style="fill: none; stroke: #262626; stroke-linejoin: miter; stroke-linecap: square"/>
   </g>
   <g id="patch_7">
    <path d="M 106.874226 80.67 
L 106.874226 7.2 
" style="fill: none; stroke: #262626; stroke-linejoin: miter; stroke-linecap: square"/>
   </g>
   <g id="patch_8">
    <path d="M 41.242969 80.67 
L 106.874226 80.67 
" style="fill: none; stroke: #262626; stroke-linejoin: miter; stroke-linecap: square"/>
   </g>
   <g id="patch_9">
    <path d="M 41.242969 7.2 
L 106.874226 7.2 
" style="fill: none; stroke: #262626; stroke-linejoin: miter; stroke-linecap: square"/>
   </g>
  </g>
 </g>
 <defs>
  <clipPath id="p31f26df3a6">
   <rect x="41.242969" y="7.2" width="65.631258" height="73.47"/>
  </clipPath>
 </defs>
</svg>
