<?xml version="1.0" encoding="utf-8" standalone="no"?>
<!DOCTYPE svg PUBLIC "-//W3C//DTD SVG 1.1//EN"
  "http://www.w3.org/Graphics/SVG/1.1/DTD/svg11.dtd">
<!-- Created with matplotlib (https://matplotlib.org/) -->
<svg height="319.435625pt" version="1.1" viewBox="0 0 1653.6525 319.435625" width="1653.6525pt" xmlns="http://www.w3.org/2000/svg" xmlns:xlink="http://www.w3.org/1999/xlink">
 <metadata>
  <rdf:RDF xmlns:cc="http://creativecommons.org/ns#" xmlns:dc="http://purl.org/dc/elements/1.1/" xmlns:rdf="http://www.w3.org/1999/02/22-rdf-syntax-ns#">
   <cc:Work>
    <dc:type rdf:resource="http://purl.org/dc/dcmitype/StillImage"/>
    <dc:date>2022-02-10T14:18:58.630749</dc:date>
    <dc:format>image/svg+xml</dc:format>
    <dc:creator>
     <cc:Agent>
      <dc:title>Matplotlib v3.3.2, https://matplotlib.org/</dc:title>
     </cc:Agent>
    </dc:creator>
   </cc:Work>
  </rdf:RDF>
 </metadata>
 <defs>
  <style type="text/css">*{stroke-linecap:butt;stroke-linejoin:round;}</style>
 </defs>
 <g id="figure_1">
  <g id="patch_1">
   <path d="M 0 319.435625 
L 1653.6525 319.435625 
L 1653.6525 0 
L 0 0 
z
" style="fill:#ffffff;"/>
  </g>
  <g id="axes_1">
   <g id="patch_2">
    <path d="M 77.9225 248.21625 
L 408.780972 248.21625 
L 408.780972 31.43625 
L 77.9225 31.43625 
z
" style="fill:#ffffff;"/>
   </g>
   <g id="matplotlib.axis_1">
    <g id="xtick_1">
     <g id="line2d_1">
      <defs>
       <path d="M 0 0 
L 0 12 
" id="m672b689794" style="stroke:#262626;stroke-width:2.5;"/>
      </defs>
      <g>
       <use style="fill:#262626;stroke:#262626;stroke-width:2.5;" x="77.9225" xlink:href="#m672b689794" y="248.21625"/>
      </g>
     </g>
     <g id="text_1">
      <!-- $\mathdefault{10^{-1}}$ -->
      <g style="fill:#262626;" transform="translate(52.0725 280.432812)scale(0.22 -0.22)">
       <defs>
        <path d="M 12.40625 8.296875 
L 28.515625 8.296875 
L 28.515625 63.921875 
L 10.984375 60.40625 
L 10.984375 69.390625 
L 28.421875 72.90625 
L 38.28125 72.90625 
L 38.28125 8.296875 
L 54.390625 8.296875 
L 54.390625 0 
L 12.40625 0 
z
" id="DejaVuSans-49"/>
        <path d="M 31.78125 66.40625 
Q 24.171875 66.40625 20.328125 58.90625 
Q 16.5 51.421875 16.5 36.375 
Q 16.5 21.390625 20.328125 13.890625 
Q 24.171875 6.390625 31.78125 6.390625 
Q 39.453125 6.390625 43.28125 13.890625 
Q 47.125 21.390625 47.125 36.375 
Q 47.125 51.421875 43.28125 58.90625 
Q 39.453125 66.40625 31.78125 66.40625 
z
M 31.78125 74.21875 
Q 44.046875 74.21875 50.515625 64.515625 
Q 56.984375 54.828125 56.984375 36.375 
Q 56.984375 17.96875 50.515625 8.265625 
Q 44.046875 -1.421875 31.78125 -1.421875 
Q 19.53125 -1.421875 13.0625 8.265625 
Q 6.59375 17.96875 6.59375 36.375 
Q 6.59375 54.828125 13.0625 64.515625 
Q 19.53125 74.21875 31.78125 74.21875 
z
" id="DejaVuSans-48"/>
        <path d="M 10.59375 35.5 
L 73.1875 35.5 
L 73.1875 27.203125 
L 10.59375 27.203125 
z
" id="DejaVuSans-8722"/>
       </defs>
       <use transform="translate(0 0.684375)" xlink:href="#DejaVuSans-49"/>
       <use transform="translate(63.623047 0.684375)" xlink:href="#DejaVuSans-48"/>
       <use transform="translate(128.203125 38.965625)scale(0.7)" xlink:href="#DejaVuSans-8722"/>
       <use transform="translate(186.855469 38.965625)scale(0.7)" xlink:href="#DejaVuSans-49"/>
      </g>
     </g>
    </g>
    <g id="xtick_2">
     <g id="line2d_2">
      <g>
       <use style="fill:#262626;stroke:#262626;stroke-width:2.5;" x="243.351736" xlink:href="#m672b689794" y="248.21625"/>
      </g>
     </g>
     <g id="text_2">
      <!-- $\mathdefault{10^{0}}$ -->
      <g style="fill:#262626;" transform="translate(223.991736 280.432812)scale(0.22 -0.22)">
       <use transform="translate(0 0.765625)" xlink:href="#DejaVuSans-49"/>
       <use transform="translate(63.623047 0.765625)" xlink:href="#DejaVuSans-48"/>
       <use transform="translate(128.203125 39.046875)scale(0.7)" xlink:href="#DejaVuSans-48"/>
      </g>
     </g>
    </g>
    <g id="xtick_3">
     <g id="line2d_3">
      <g>
       <use style="fill:#262626;stroke:#262626;stroke-width:2.5;" x="408.780972" xlink:href="#m672b689794" y="248.21625"/>
      </g>
     </g>
     <g id="text_3">
      <!-- $\mathdefault{10^{1}}$ -->
      <g style="fill:#262626;" transform="translate(389.420972 280.432812)scale(0.22 -0.22)">
       <use transform="translate(0 0.684375)" xlink:href="#DejaVuSans-49"/>
       <use transform="translate(63.623047 0.684375)" xlink:href="#DejaVuSans-48"/>
       <use transform="translate(128.203125 38.965625)scale(0.7)" xlink:href="#DejaVuSans-49"/>
      </g>
     </g>
    </g>
    <g id="xtick_4">
     <g id="line2d_4">
      <defs>
       <path d="M 0 0 
L 0 8 
" id="ma01c43152e" style="stroke:#262626;stroke-width:2;"/>
      </defs>
      <g>
       <use style="fill:#262626;stroke:#262626;stroke-width:2;" x="127.721662" xlink:href="#ma01c43152e" y="248.21625"/>
      </g>
     </g>
    </g>
    <g id="xtick_5">
     <g id="line2d_5">
      <g>
       <use style="fill:#262626;stroke:#262626;stroke-width:2;" x="156.852305" xlink:href="#ma01c43152e" y="248.21625"/>
      </g>
     </g>
    </g>
    <g id="xtick_6">
     <g id="line2d_6">
      <g>
       <use style="fill:#262626;stroke:#262626;stroke-width:2;" x="177.520824" xlink:href="#ma01c43152e" y="248.21625"/>
      </g>
     </g>
    </g>
    <g id="xtick_7">
     <g id="line2d_7">
      <g>
       <use style="fill:#262626;stroke:#262626;stroke-width:2;" x="193.552574" xlink:href="#ma01c43152e" y="248.21625"/>
      </g>
     </g>
    </g>
    <g id="xtick_8">
     <g id="line2d_8">
      <g>
       <use style="fill:#262626;stroke:#262626;stroke-width:2;" x="206.651467" xlink:href="#ma01c43152e" y="248.21625"/>
      </g>
     </g>
    </g>
    <g id="xtick_9">
     <g id="line2d_9">
      <g>
       <use style="fill:#262626;stroke:#262626;stroke-width:2;" x="217.726423" xlink:href="#ma01c43152e" y="248.21625"/>
      </g>
     </g>
    </g>
    <g id="xtick_10">
     <g id="line2d_10">
      <g>
       <use style="fill:#262626;stroke:#262626;stroke-width:2;" x="227.319986" xlink:href="#ma01c43152e" y="248.21625"/>
      </g>
     </g>
    </g>
    <g id="xtick_11">
     <g id="line2d_11">
      <g>
       <use style="fill:#262626;stroke:#262626;stroke-width:2;" x="235.782109" xlink:href="#ma01c43152e" y="248.21625"/>
      </g>
     </g>
    </g>
    <g id="xtick_12">
     <g id="line2d_12">
      <g>
       <use style="fill:#262626;stroke:#262626;stroke-width:2;" x="293.150898" xlink:href="#ma01c43152e" y="248.21625"/>
      </g>
     </g>
    </g>
    <g id="xtick_13">
     <g id="line2d_13">
      <g>
       <use style="fill:#262626;stroke:#262626;stroke-width:2;" x="322.28154" xlink:href="#ma01c43152e" y="248.21625"/>
      </g>
     </g>
    </g>
    <g id="xtick_14">
     <g id="line2d_14">
      <g>
       <use style="fill:#262626;stroke:#262626;stroke-width:2;" x="342.95006" xlink:href="#ma01c43152e" y="248.21625"/>
      </g>
     </g>
    </g>
    <g id="xtick_15">
     <g id="line2d_15">
      <g>
       <use style="fill:#262626;stroke:#262626;stroke-width:2;" x="358.98181" xlink:href="#ma01c43152e" y="248.21625"/>
      </g>
     </g>
    </g>
    <g id="xtick_16">
     <g id="line2d_16">
      <g>
       <use style="fill:#262626;stroke:#262626;stroke-width:2;" x="372.080703" xlink:href="#ma01c43152e" y="248.21625"/>
      </g>
     </g>
    </g>
    <g id="xtick_17">
     <g id="line2d_17">
      <g>
       <use style="fill:#262626;stroke:#262626;stroke-width:2;" x="383.155659" xlink:href="#ma01c43152e" y="248.21625"/>
      </g>
     </g>
    </g>
    <g id="xtick_18">
     <g id="line2d_18">
      <g>
       <use style="fill:#262626;stroke:#262626;stroke-width:2;" x="392.749222" xlink:href="#ma01c43152e" y="248.21625"/>
      </g>
     </g>
    </g>
    <g id="xtick_19">
     <g id="line2d_19">
      <g>
       <use style="fill:#262626;stroke:#262626;stroke-width:2;" x="401.211345" xlink:href="#ma01c43152e" y="248.21625"/>
      </g>
     </g>
    </g>
    <g id="text_4">
     <!-- divisions per day -->
     <g style="fill:#262626;" transform="translate(141.542986 307.244375)scale(0.24 -0.24)">
      <defs>
       <path d="M 45.40625 46.390625 
L 45.40625 75.984375 
L 54.390625 75.984375 
L 54.390625 0 
L 45.40625 0 
L 45.40625 8.203125 
Q 42.578125 3.328125 38.25 0.953125 
Q 33.9375 -1.421875 27.875 -1.421875 
Q 17.96875 -1.421875 11.734375 6.484375 
Q 5.515625 14.40625 5.515625 27.296875 
Q 5.515625 40.1875 11.734375 48.09375 
Q 17.96875 56 27.875 56 
Q 33.9375 56 38.25 53.625 
Q 42.578125 51.265625 45.40625 46.390625 
z
M 14.796875 27.296875 
Q 14.796875 17.390625 18.875 11.75 
Q 22.953125 6.109375 30.078125 6.109375 
Q 37.203125 6.109375 41.296875 11.75 
Q 45.40625 17.390625 45.40625 27.296875 
Q 45.40625 37.203125 41.296875 42.84375 
Q 37.203125 48.484375 30.078125 48.484375 
Q 22.953125 48.484375 18.875 42.84375 
Q 14.796875 37.203125 14.796875 27.296875 
z
" id="DejaVuSans-100"/>
       <path d="M 9.421875 54.6875 
L 18.40625 54.6875 
L 18.40625 0 
L 9.421875 0 
z
M 9.421875 75.984375 
L 18.40625 75.984375 
L 18.40625 64.59375 
L 9.421875 64.59375 
z
" id="DejaVuSans-105"/>
       <path d="M 2.984375 54.6875 
L 12.5 54.6875 
L 29.59375 8.796875 
L 46.6875 54.6875 
L 56.203125 54.6875 
L 35.6875 0 
L 23.484375 0 
z
" id="DejaVuSans-118"/>
       <path d="M 44.28125 53.078125 
L 44.28125 44.578125 
Q 40.484375 46.53125 36.375 47.5 
Q 32.28125 48.484375 27.875 48.484375 
Q 21.1875 48.484375 17.84375 46.4375 
Q 14.5 44.390625 14.5 40.28125 
Q 14.5 37.15625 16.890625 35.375 
Q 19.28125 33.59375 26.515625 31.984375 
L 29.59375 31.296875 
Q 39.15625 29.25 43.1875 25.515625 
Q 47.21875 21.78125 47.21875 15.09375 
Q 47.21875 7.46875 41.1875 3.015625 
Q 35.15625 -1.421875 24.609375 -1.421875 
Q 20.21875 -1.421875 15.453125 -0.5625 
Q 10.6875 0.296875 5.421875 2 
L 5.421875 11.28125 
Q 10.40625 8.6875 15.234375 7.390625 
Q 20.0625 6.109375 24.8125 6.109375 
Q 31.15625 6.109375 34.5625 8.28125 
Q 37.984375 10.453125 37.984375 14.40625 
Q 37.984375 18.0625 35.515625 20.015625 
Q 33.0625 21.96875 24.703125 23.78125 
L 21.578125 24.515625 
Q 13.234375 26.265625 9.515625 29.90625 
Q 5.8125 33.546875 5.8125 39.890625 
Q 5.8125 47.609375 11.28125 51.796875 
Q 16.75 56 26.8125 56 
Q 31.78125 56 36.171875 55.265625 
Q 40.578125 54.546875 44.28125 53.078125 
z
" id="DejaVuSans-115"/>
       <path d="M 30.609375 48.390625 
Q 23.390625 48.390625 19.1875 42.75 
Q 14.984375 37.109375 14.984375 27.296875 
Q 14.984375 17.484375 19.15625 11.84375 
Q 23.34375 6.203125 30.609375 6.203125 
Q 37.796875 6.203125 41.984375 11.859375 
Q 46.1875 17.53125 46.1875 27.296875 
Q 46.1875 37.015625 41.984375 42.703125 
Q 37.796875 48.390625 30.609375 48.390625 
z
M 30.609375 56 
Q 42.328125 56 49.015625 48.375 
Q 55.71875 40.765625 55.71875 27.296875 
Q 55.71875 13.875 49.015625 6.21875 
Q 42.328125 -1.421875 30.609375 -1.421875 
Q 18.84375 -1.421875 12.171875 6.21875 
Q 5.515625 13.875 5.515625 27.296875 
Q 5.515625 40.765625 12.171875 48.375 
Q 18.84375 56 30.609375 56 
z
" id="DejaVuSans-111"/>
       <path d="M 54.890625 33.015625 
L 54.890625 0 
L 45.90625 0 
L 45.90625 32.71875 
Q 45.90625 40.484375 42.875 44.328125 
Q 39.84375 48.1875 33.796875 48.1875 
Q 26.515625 48.1875 22.3125 43.546875 
Q 18.109375 38.921875 18.109375 30.90625 
L 18.109375 0 
L 9.078125 0 
L 9.078125 54.6875 
L 18.109375 54.6875 
L 18.109375 46.1875 
Q 21.34375 51.125 25.703125 53.5625 
Q 30.078125 56 35.796875 56 
Q 45.21875 56 50.046875 50.171875 
Q 54.890625 44.34375 54.890625 33.015625 
z
" id="DejaVuSans-110"/>
       <path id="DejaVuSans-32"/>
       <path d="M 18.109375 8.203125 
L 18.109375 -20.796875 
L 9.078125 -20.796875 
L 9.078125 54.6875 
L 18.109375 54.6875 
L 18.109375 46.390625 
Q 20.953125 51.265625 25.265625 53.625 
Q 29.59375 56 35.59375 56 
Q 45.5625 56 51.78125 48.09375 
Q 58.015625 40.1875 58.015625 27.296875 
Q 58.015625 14.40625 51.78125 6.484375 
Q 45.5625 -1.421875 35.59375 -1.421875 
Q 29.59375 -1.421875 25.265625 0.953125 
Q 20.953125 3.328125 18.109375 8.203125 
z
M 48.6875 27.296875 
Q 48.6875 37.203125 44.609375 42.84375 
Q 40.53125 48.484375 33.40625 48.484375 
Q 26.265625 48.484375 22.1875 42.84375 
Q 18.109375 37.203125 18.109375 27.296875 
Q 18.109375 17.390625 22.1875 11.75 
Q 26.265625 6.109375 33.40625 6.109375 
Q 40.53125 6.109375 44.609375 11.75 
Q 48.6875 17.390625 48.6875 27.296875 
z
" id="DejaVuSans-112"/>
       <path d="M 56.203125 29.59375 
L 56.203125 25.203125 
L 14.890625 25.203125 
Q 15.484375 15.921875 20.484375 11.0625 
Q 25.484375 6.203125 34.421875 6.203125 
Q 39.59375 6.203125 44.453125 7.46875 
Q 49.3125 8.734375 54.109375 11.28125 
L 54.109375 2.78125 
Q 49.265625 0.734375 44.1875 -0.34375 
Q 39.109375 -1.421875 33.890625 -1.421875 
Q 20.796875 -1.421875 13.15625 6.1875 
Q 5.515625 13.8125 5.515625 26.8125 
Q 5.515625 40.234375 12.765625 48.109375 
Q 20.015625 56 32.328125 56 
Q 43.359375 56 49.78125 48.890625 
Q 56.203125 41.796875 56.203125 29.59375 
z
M 47.21875 32.234375 
Q 47.125 39.59375 43.09375 43.984375 
Q 39.0625 48.390625 32.421875 48.390625 
Q 24.90625 48.390625 20.390625 44.140625 
Q 15.875 39.890625 15.1875 32.171875 
z
" id="DejaVuSans-101"/>
       <path d="M 41.109375 46.296875 
Q 39.59375 47.171875 37.8125 47.578125 
Q 36.03125 48 33.890625 48 
Q 26.265625 48 22.1875 43.046875 
Q 18.109375 38.09375 18.109375 28.8125 
L 18.109375 0 
L 9.078125 0 
L 9.078125 54.6875 
L 18.109375 54.6875 
L 18.109375 46.1875 
Q 20.953125 51.171875 25.484375 53.578125 
Q 30.03125 56 36.53125 56 
Q 37.453125 56 38.578125 55.875 
Q 39.703125 55.765625 41.0625 55.515625 
z
" id="DejaVuSans-114"/>
       <path d="M 34.28125 27.484375 
Q 23.390625 27.484375 19.1875 25 
Q 14.984375 22.515625 14.984375 16.5 
Q 14.984375 11.71875 18.140625 8.90625 
Q 21.296875 6.109375 26.703125 6.109375 
Q 34.1875 6.109375 38.703125 11.40625 
Q 43.21875 16.703125 43.21875 25.484375 
L 43.21875 27.484375 
z
M 52.203125 31.203125 
L 52.203125 0 
L 43.21875 0 
L 43.21875 8.296875 
Q 40.140625 3.328125 35.546875 0.953125 
Q 30.953125 -1.421875 24.3125 -1.421875 
Q 15.921875 -1.421875 10.953125 3.296875 
Q 6 8.015625 6 15.921875 
Q 6 25.140625 12.171875 29.828125 
Q 18.359375 34.515625 30.609375 34.515625 
L 43.21875 34.515625 
L 43.21875 35.40625 
Q 43.21875 41.609375 39.140625 45 
Q 35.0625 48.390625 27.6875 48.390625 
Q 23 48.390625 18.546875 47.265625 
Q 14.109375 46.140625 10.015625 43.890625 
L 10.015625 52.203125 
Q 14.9375 54.109375 19.578125 55.046875 
Q 24.21875 56 28.609375 56 
Q 40.484375 56 46.34375 49.84375 
Q 52.203125 43.703125 52.203125 31.203125 
z
" id="DejaVuSans-97"/>
       <path d="M 32.171875 -5.078125 
Q 28.375 -14.84375 24.75 -17.8125 
Q 21.140625 -20.796875 15.09375 -20.796875 
L 7.90625 -20.796875 
L 7.90625 -13.28125 
L 13.1875 -13.28125 
Q 16.890625 -13.28125 18.9375 -11.515625 
Q 21 -9.765625 23.484375 -3.21875 
L 25.09375 0.875 
L 2.984375 54.6875 
L 12.5 54.6875 
L 29.59375 11.921875 
L 46.6875 54.6875 
L 56.203125 54.6875 
z
" id="DejaVuSans-121"/>
      </defs>
      <use xlink:href="#DejaVuSans-100"/>
      <use x="63.476562" xlink:href="#DejaVuSans-105"/>
      <use x="91.259766" xlink:href="#DejaVuSans-118"/>
      <use x="150.439453" xlink:href="#DejaVuSans-105"/>
      <use x="178.222656" xlink:href="#DejaVuSans-115"/>
      <use x="230.322266" xlink:href="#DejaVuSans-105"/>
      <use x="258.105469" xlink:href="#DejaVuSans-111"/>
      <use x="319.287109" xlink:href="#DejaVuSans-110"/>
      <use x="382.666016" xlink:href="#DejaVuSans-115"/>
      <use x="434.765625" xlink:href="#DejaVuSans-32"/>
      <use x="466.552734" xlink:href="#DejaVuSans-112"/>
      <use x="530.029297" xlink:href="#DejaVuSans-101"/>
      <use x="591.552734" xlink:href="#DejaVuSans-114"/>
      <use x="632.666016" xlink:href="#DejaVuSans-32"/>
      <use x="664.453125" xlink:href="#DejaVuSans-100"/>
      <use x="727.929688" xlink:href="#DejaVuSans-97"/>
      <use x="789.208984" xlink:href="#DejaVuSans-121"/>
     </g>
    </g>
   </g>
   <g id="matplotlib.axis_2">
    <g id="ytick_1">
     <g id="line2d_20">
      <defs>
       <path d="M 0 0 
L -12 0 
" id="m2a5322ede1" style="stroke:#262626;stroke-width:2.5;"/>
      </defs>
      <g>
       <use style="fill:#262626;stroke:#262626;stroke-width:2.5;" x="77.9225" xlink:href="#m2a5322ede1" y="217.247679"/>
      </g>
     </g>
     <g id="text_5">
      <!-- 0 -->
      <g style="fill:#262626;" transform="translate(48.425 225.60596)scale(0.22 -0.22)">
       <use xlink:href="#DejaVuSans-48"/>
      </g>
     </g>
    </g>
    <g id="ytick_2">
     <g id="line2d_21">
      <g>
       <use style="fill:#262626;stroke:#262626;stroke-width:2.5;" x="77.9225" xlink:href="#m2a5322ede1" y="155.310536"/>
      </g>
     </g>
     <g id="text_6">
      <!-- 10 -->
      <g style="fill:#262626;" transform="translate(34.4275 163.668817)scale(0.22 -0.22)">
       <use xlink:href="#DejaVuSans-49"/>
       <use x="63.623047" xlink:href="#DejaVuSans-48"/>
      </g>
     </g>
    </g>
    <g id="ytick_3">
     <g id="line2d_22">
      <g>
       <use style="fill:#262626;stroke:#262626;stroke-width:2.5;" x="77.9225" xlink:href="#m2a5322ede1" y="93.373393"/>
      </g>
     </g>
     <g id="text_7">
      <!-- 20 -->
      <g style="fill:#262626;" transform="translate(34.4275 101.731674)scale(0.22 -0.22)">
       <defs>
        <path d="M 19.1875 8.296875 
L 53.609375 8.296875 
L 53.609375 0 
L 7.328125 0 
L 7.328125 8.296875 
Q 12.9375 14.109375 22.625 23.890625 
Q 32.328125 33.6875 34.8125 36.53125 
Q 39.546875 41.84375 41.421875 45.53125 
Q 43.3125 49.21875 43.3125 52.78125 
Q 43.3125 58.59375 39.234375 62.25 
Q 35.15625 65.921875 28.609375 65.921875 
Q 23.96875 65.921875 18.8125 64.3125 
Q 13.671875 62.703125 7.8125 59.421875 
L 7.8125 69.390625 
Q 13.765625 71.78125 18.9375 73 
Q 24.125 74.21875 28.421875 74.21875 
Q 39.75 74.21875 46.484375 68.546875 
Q 53.21875 62.890625 53.21875 53.421875 
Q 53.21875 48.921875 51.53125 44.890625 
Q 49.859375 40.875 45.40625 35.40625 
Q 44.1875 33.984375 37.640625 27.21875 
Q 31.109375 20.453125 19.1875 8.296875 
z
" id="DejaVuSans-50"/>
       </defs>
       <use xlink:href="#DejaVuSans-50"/>
       <use x="63.623047" xlink:href="#DejaVuSans-48"/>
      </g>
     </g>
    </g>
    <g id="ytick_4">
     <g id="line2d_23">
      <g>
       <use style="fill:#262626;stroke:#262626;stroke-width:2.5;" x="77.9225" xlink:href="#m2a5322ede1" y="31.43625"/>
      </g>
     </g>
     <g id="text_8">
      <!-- 30 -->
      <g style="fill:#262626;" transform="translate(34.4275 39.794531)scale(0.22 -0.22)">
       <defs>
        <path d="M 40.578125 39.3125 
Q 47.65625 37.796875 51.625 33 
Q 55.609375 28.21875 55.609375 21.1875 
Q 55.609375 10.40625 48.1875 4.484375 
Q 40.765625 -1.421875 27.09375 -1.421875 
Q 22.515625 -1.421875 17.65625 -0.515625 
Q 12.796875 0.390625 7.625 2.203125 
L 7.625 11.71875 
Q 11.71875 9.328125 16.59375 8.109375 
Q 21.484375 6.890625 26.8125 6.890625 
Q 36.078125 6.890625 40.9375 10.546875 
Q 45.796875 14.203125 45.796875 21.1875 
Q 45.796875 27.640625 41.28125 31.265625 
Q 36.765625 34.90625 28.71875 34.90625 
L 20.21875 34.90625 
L 20.21875 43.015625 
L 29.109375 43.015625 
Q 36.375 43.015625 40.234375 45.921875 
Q 44.09375 48.828125 44.09375 54.296875 
Q 44.09375 59.90625 40.109375 62.90625 
Q 36.140625 65.921875 28.71875 65.921875 
Q 24.65625 65.921875 20.015625 65.03125 
Q 15.375 64.15625 9.8125 62.3125 
L 9.8125 71.09375 
Q 15.4375 72.65625 20.34375 73.4375 
Q 25.25 74.21875 29.59375 74.21875 
Q 40.828125 74.21875 47.359375 69.109375 
Q 53.90625 64.015625 53.90625 55.328125 
Q 53.90625 49.265625 50.4375 45.09375 
Q 46.96875 40.921875 40.578125 39.3125 
z
" id="DejaVuSans-51"/>
       </defs>
       <use xlink:href="#DejaVuSans-51"/>
       <use x="63.623047" xlink:href="#DejaVuSans-48"/>
      </g>
     </g>
    </g>
    <g id="text_9">
     <!-- effect size -->
     <g style="fill:#262626;" transform="translate(25.43625 201.425625)rotate(-90)scale(0.24 -0.24)">
      <defs>
       <path d="M 37.109375 75.984375 
L 37.109375 68.5 
L 28.515625 68.5 
Q 23.6875 68.5 21.796875 66.546875 
Q 19.921875 64.59375 19.921875 59.515625 
L 19.921875 54.6875 
L 34.71875 54.6875 
L 34.71875 47.703125 
L 19.921875 47.703125 
L 19.921875 0 
L 10.890625 0 
L 10.890625 47.703125 
L 2.296875 47.703125 
L 2.296875 54.6875 
L 10.890625 54.6875 
L 10.890625 58.5 
Q 10.890625 67.625 15.140625 71.796875 
Q 19.390625 75.984375 28.609375 75.984375 
z
" id="DejaVuSans-102"/>
       <path d="M 48.78125 52.59375 
L 48.78125 44.1875 
Q 44.96875 46.296875 41.140625 47.34375 
Q 37.3125 48.390625 33.40625 48.390625 
Q 24.65625 48.390625 19.8125 42.84375 
Q 14.984375 37.3125 14.984375 27.296875 
Q 14.984375 17.28125 19.8125 11.734375 
Q 24.65625 6.203125 33.40625 6.203125 
Q 37.3125 6.203125 41.140625 7.25 
Q 44.96875 8.296875 48.78125 10.40625 
L 48.78125 2.09375 
Q 45.015625 0.34375 40.984375 -0.53125 
Q 36.96875 -1.421875 32.421875 -1.421875 
Q 20.0625 -1.421875 12.78125 6.34375 
Q 5.515625 14.109375 5.515625 27.296875 
Q 5.515625 40.671875 12.859375 48.328125 
Q 20.21875 56 33.015625 56 
Q 37.15625 56 41.109375 55.140625 
Q 45.0625 54.296875 48.78125 52.59375 
z
" id="DejaVuSans-99"/>
       <path d="M 18.3125 70.21875 
L 18.3125 54.6875 
L 36.8125 54.6875 
L 36.8125 47.703125 
L 18.3125 47.703125 
L 18.3125 18.015625 
Q 18.3125 11.328125 20.140625 9.421875 
Q 21.96875 7.515625 27.59375 7.515625 
L 36.8125 7.515625 
L 36.8125 0 
L 27.59375 0 
Q 17.1875 0 13.234375 3.875 
Q 9.28125 7.765625 9.28125 18.015625 
L 9.28125 47.703125 
L 2.6875 47.703125 
L 2.6875 54.6875 
L 9.28125 54.6875 
L 9.28125 70.21875 
z
" id="DejaVuSans-116"/>
       <path d="M 5.515625 54.6875 
L 48.1875 54.6875 
L 48.1875 46.484375 
L 14.40625 7.171875 
L 48.1875 7.171875 
L 48.1875 0 
L 4.296875 0 
L 4.296875 8.203125 
L 38.09375 47.515625 
L 5.515625 47.515625 
z
" id="DejaVuSans-122"/>
      </defs>
      <use xlink:href="#DejaVuSans-101"/>
      <use x="61.523438" xlink:href="#DejaVuSans-102"/>
      <use x="96.728516" xlink:href="#DejaVuSans-102"/>
      <use x="131.933594" xlink:href="#DejaVuSans-101"/>
      <use x="193.457031" xlink:href="#DejaVuSans-99"/>
      <use x="248.4375" xlink:href="#DejaVuSans-116"/>
      <use x="287.646484" xlink:href="#DejaVuSans-32"/>
      <use x="319.433594" xlink:href="#DejaVuSans-115"/>
      <use x="371.533203" xlink:href="#DejaVuSans-105"/>
      <use x="399.316406" xlink:href="#DejaVuSans-122"/>
      <use x="451.806641" xlink:href="#DejaVuSans-101"/>
     </g>
    </g>
   </g>
   <g id="line2d_24">
    <path clip-path="url(#p6fbdd76771)" d="M 77.9225 217.247679 
L 89.331413 217.111836 
L 100.740326 216.95379 
L 112.149238 216.769985 
L 123.558151 216.556149 
L 132.678455 216.360061 
L 134.129919 216.32655 
L 134.967064 216.306915 
L 135.552639 216.293046 
L 136.947731 216.259547 
L 138.316249 216.226049 
L 139.659185 216.192548 
L 140.977479 216.159041 
L 142.272019 216.125523 
L 143.543645 216.091991 
L 144.793155 216.058441 
L 146.021304 216.024869 
L 146.375977 216.015061 
L 147.228812 215.99127 
L 148.41636 215.95764 
L 149.584597 215.923974 
L 150.734141 215.890269 
L 151.865582 215.856519 
L 152.979481 215.82272 
L 154.076372 215.788866 
L 155.156769 215.754954 
L 156.221158 215.720977 
L 157.270009 215.686931 
L 157.78489 215.670008 
L 158.303768 215.65281 
L 159.322863 215.618609 
L 160.327705 215.584321 
L 161.318686 215.549941 
L 162.296184 215.515464 
L 163.260561 215.480882 
L 164.212165 215.44619 
" style="fill:none;stroke:#4c72b0;stroke-linecap:round;stroke-width:5;"/>
   </g>
   <g id="line2d_25">
    <path clip-path="url(#p6fbdd76771)" d="M 77.9225 217.247679 
L 89.331413 216.650915 
L 100.740326 215.891076 
L 112.149238 214.920323 
L 123.558151 213.675542 
L 132.678455 212.440567 
L 134.129919 212.22065 
L 134.967064 212.090647 
L 135.552639 211.998304 
L 136.947731 211.773533 
L 138.316249 211.546343 
L 139.659185 211.316735 
L 140.977479 211.086662 
L 142.272019 210.852169 
L 143.543645 210.616132 
L 144.793155 210.377806 
L 146.021304 210.132265 
L 146.375977 210.061148 
L 147.228812 209.887836 
L 148.41636 209.640971 
L 149.584597 209.391676 
L 150.734141 209.139454 
L 151.865582 208.883438 
L 152.979481 208.62463 
L 154.076372 208.362962 
L 155.156769 208.100578 
L 156.221158 207.837744 
L 157.270009 207.572132 
L 157.78489 207.439307 
L 158.303768 207.303807 
L 159.322863 207.030993 
L 160.327705 206.755657 
L 161.318686 206.477907 
L 162.296184 206.197749 
L 163.260561 205.915193 
L 164.212165 205.630249 
" style="fill:none;stroke:#dd8452;stroke-linecap:round;stroke-width:5;"/>
   </g>
   <g id="line2d_26">
    <path clip-path="url(#p6fbdd76771)" d="M 77.9225 217.247679 
L 89.331413 217.247506 
L 100.740326 217.247066 
L 112.149238 217.245972 
L 123.558151 217.243333 
L 132.678455 217.23884 
L 134.129919 217.237807 
L 134.967064 217.23716 
L 135.552639 217.236684 
L 136.947731 217.235465 
L 138.316249 217.234144 
L 139.659185 217.232717 
L 140.977479 217.231177 
L 142.272019 217.229518 
L 143.543645 217.227733 
L 144.793155 217.225816 
L 146.021304 217.223761 
L 146.375977 217.223133 
L 147.228812 217.221559 
L 148.41636 217.219203 
L 149.584597 217.216686 
L 150.734141 217.214 
L 151.865582 217.211135 
L 152.979481 217.208085 
L 154.076372 217.204838 
L 155.156769 217.201386 
L 156.221158 217.197718 
L 157.270009 217.193824 
L 157.78489 217.191804 
L 158.303768 217.189692 
L 159.322863 217.185309 
L 160.327705 217.180665 
L 161.318686 217.175744 
L 162.296184 217.170532 
L 163.260561 217.165013 
L 164.212165 217.159172 
" style="fill:none;stroke:#55a868;stroke-linecap:round;stroke-width:5;"/>
   </g>
   <g id="line2d_27"/>
   <g id="line2d_28"/>
   <g id="line2d_29"/>
   <g id="patch_3">
    <path d="M 77.9225 248.21625 
L 77.9225 31.43625 
" style="fill:none;stroke:#262626;stroke-linecap:square;stroke-linejoin:miter;stroke-width:2.5;"/>
   </g>
   <g id="patch_4">
    <path d="M 408.780972 248.21625 
L 408.780972 31.43625 
" style="fill:none;stroke:#262626;stroke-linecap:square;stroke-linejoin:miter;stroke-width:2.5;"/>
   </g>
   <g id="patch_5">
    <path d="M 77.9225 248.21625 
L 408.780972 248.21625 
" style="fill:none;stroke:#262626;stroke-linecap:square;stroke-linejoin:miter;stroke-width:2.5;"/>
   </g>
   <g id="patch_6">
    <path d="M 77.9225 31.43625 
L 408.780972 31.43625 
" style="fill:none;stroke:#262626;stroke-linecap:square;stroke-linejoin:miter;stroke-width:2.5;"/>
   </g>
   <g id="text_10">
    <!-- Null -->
    <g style="fill:#262626;" transform="translate(220.101736 25.43625)scale(0.24 -0.24)">
     <defs>
      <path d="M 9.8125 72.90625 
L 23.09375 72.90625 
L 55.421875 11.921875 
L 55.421875 72.90625 
L 64.984375 72.90625 
L 64.984375 0 
L 51.703125 0 
L 19.390625 60.984375 
L 19.390625 0 
L 9.8125 0 
z
" id="DejaVuSans-78"/>
      <path d="M 8.5 21.578125 
L 8.5 54.6875 
L 17.484375 54.6875 
L 17.484375 21.921875 
Q 17.484375 14.15625 20.5 10.265625 
Q 23.53125 6.390625 29.59375 6.390625 
Q 36.859375 6.390625 41.078125 11.03125 
Q 45.3125 15.671875 45.3125 23.6875 
L 45.3125 54.6875 
L 54.296875 54.6875 
L 54.296875 0 
L 45.3125 0 
L 45.3125 8.40625 
Q 42.046875 3.421875 37.71875 1 
Q 33.40625 -1.421875 27.6875 -1.421875 
Q 18.265625 -1.421875 13.375 4.4375 
Q 8.5 10.296875 8.5 21.578125 
z
M 31.109375 56 
z
" id="DejaVuSans-117"/>
      <path d="M 9.421875 75.984375 
L 18.40625 75.984375 
L 18.40625 0 
L 9.421875 0 
z
" id="DejaVuSans-108"/>
     </defs>
     <use xlink:href="#DejaVuSans-78"/>
     <use x="74.804688" xlink:href="#DejaVuSans-117"/>
     <use x="138.183594" xlink:href="#DejaVuSans-108"/>
     <use x="165.966797" xlink:href="#DejaVuSans-108"/>
    </g>
   </g>
   <g id="line2d_30">
    <path clip-path="url(#p6fbdd76771)" d="M 299.059295 248.21625 
L 299.059295 31.43625 
" style="fill:none;stroke:#1a1a1a;stroke-dasharray:7.4,3.2;stroke-dashoffset:0;stroke-width:2;"/>
   </g>
  </g>
  <g id="axes_2">
   <g id="patch_7">
    <path d="M 479.170086 248.21625 
L 810.028558 248.21625 
L 810.028558 31.43625 
L 479.170086 31.43625 
z
" style="fill:#ffffff;"/>
   </g>
   <g id="matplotlib.axis_3">
    <g id="xtick_20">
     <g id="line2d_31">
      <g>
       <use style="fill:#262626;stroke:#262626;stroke-width:2.5;" x="479.170086" xlink:href="#m672b689794" y="248.21625"/>
      </g>
     </g>
     <g id="text_11">
      <!-- $\mathdefault{10^{-1}}$ -->
      <g style="fill:#262626;" transform="translate(453.320086 280.432812)scale(0.22 -0.22)">
       <use transform="translate(0 0.684375)" xlink:href="#DejaVuSans-49"/>
       <use transform="translate(63.623047 0.684375)" xlink:href="#DejaVuSans-48"/>
       <use transform="translate(128.203125 38.965625)scale(0.7)" xlink:href="#DejaVuSans-8722"/>
       <use transform="translate(186.855469 38.965625)scale(0.7)" xlink:href="#DejaVuSans-49"/>
      </g>
     </g>
    </g>
    <g id="xtick_21">
     <g id="line2d_32">
      <g>
       <use style="fill:#262626;stroke:#262626;stroke-width:2.5;" x="644.599322" xlink:href="#m672b689794" y="248.21625"/>
      </g>
     </g>
     <g id="text_12">
      <!-- $\mathdefault{10^{0}}$ -->
      <g style="fill:#262626;" transform="translate(625.239322 280.432812)scale(0.22 -0.22)">
       <use transform="translate(0 0.765625)" xlink:href="#DejaVuSans-49"/>
       <use transform="translate(63.623047 0.765625)" xlink:href="#DejaVuSans-48"/>
       <use transform="translate(128.203125 39.046875)scale(0.7)" xlink:href="#DejaVuSans-48"/>
      </g>
     </g>
    </g>
    <g id="xtick_22">
     <g id="line2d_33">
      <g>
       <use style="fill:#262626;stroke:#262626;stroke-width:2.5;" x="810.028558" xlink:href="#m672b689794" y="248.21625"/>
      </g>
     </g>
     <g id="text_13">
      <!-- $\mathdefault{10^{1}}$ -->
      <g style="fill:#262626;" transform="translate(790.668558 280.432812)scale(0.22 -0.22)">
       <use transform="translate(0 0.684375)" xlink:href="#DejaVuSans-49"/>
       <use transform="translate(63.623047 0.684375)" xlink:href="#DejaVuSans-48"/>
       <use transform="translate(128.203125 38.965625)scale(0.7)" xlink:href="#DejaVuSans-49"/>
      </g>
     </g>
    </g>
    <g id="xtick_23">
     <g id="line2d_34">
      <g>
       <use style="fill:#262626;stroke:#262626;stroke-width:2;" x="528.969248" xlink:href="#ma01c43152e" y="248.21625"/>
      </g>
     </g>
    </g>
    <g id="xtick_24">
     <g id="line2d_35">
      <g>
       <use style="fill:#262626;stroke:#262626;stroke-width:2;" x="558.099891" xlink:href="#ma01c43152e" y="248.21625"/>
      </g>
     </g>
    </g>
    <g id="xtick_25">
     <g id="line2d_36">
      <g>
       <use style="fill:#262626;stroke:#262626;stroke-width:2;" x="578.76841" xlink:href="#ma01c43152e" y="248.21625"/>
      </g>
     </g>
    </g>
    <g id="xtick_26">
     <g id="line2d_37">
      <g>
       <use style="fill:#262626;stroke:#262626;stroke-width:2;" x="594.80016" xlink:href="#ma01c43152e" y="248.21625"/>
      </g>
     </g>
    </g>
    <g id="xtick_27">
     <g id="line2d_38">
      <g>
       <use style="fill:#262626;stroke:#262626;stroke-width:2;" x="607.899053" xlink:href="#ma01c43152e" y="248.21625"/>
      </g>
     </g>
    </g>
    <g id="xtick_28">
     <g id="line2d_39">
      <g>
       <use style="fill:#262626;stroke:#262626;stroke-width:2;" x="618.974009" xlink:href="#ma01c43152e" y="248.21625"/>
      </g>
     </g>
    </g>
    <g id="xtick_29">
     <g id="line2d_40">
      <g>
       <use style="fill:#262626;stroke:#262626;stroke-width:2;" x="628.567573" xlink:href="#ma01c43152e" y="248.21625"/>
      </g>
     </g>
    </g>
    <g id="xtick_30">
     <g id="line2d_41">
      <g>
       <use style="fill:#262626;stroke:#262626;stroke-width:2;" x="637.029695" xlink:href="#ma01c43152e" y="248.21625"/>
      </g>
     </g>
    </g>
    <g id="xtick_31">
     <g id="line2d_42">
      <g>
       <use style="fill:#262626;stroke:#262626;stroke-width:2;" x="694.398484" xlink:href="#ma01c43152e" y="248.21625"/>
      </g>
     </g>
    </g>
    <g id="xtick_32">
     <g id="line2d_43">
      <g>
       <use style="fill:#262626;stroke:#262626;stroke-width:2;" x="723.529127" xlink:href="#ma01c43152e" y="248.21625"/>
      </g>
     </g>
    </g>
    <g id="xtick_33">
     <g id="line2d_44">
      <g>
       <use style="fill:#262626;stroke:#262626;stroke-width:2;" x="744.197646" xlink:href="#ma01c43152e" y="248.21625"/>
      </g>
     </g>
    </g>
    <g id="xtick_34">
     <g id="line2d_45">
      <g>
       <use style="fill:#262626;stroke:#262626;stroke-width:2;" x="760.229396" xlink:href="#ma01c43152e" y="248.21625"/>
      </g>
     </g>
    </g>
    <g id="xtick_35">
     <g id="line2d_46">
      <g>
       <use style="fill:#262626;stroke:#262626;stroke-width:2;" x="773.328289" xlink:href="#ma01c43152e" y="248.21625"/>
      </g>
     </g>
    </g>
    <g id="xtick_36">
     <g id="line2d_47">
      <g>
       <use style="fill:#262626;stroke:#262626;stroke-width:2;" x="784.403245" xlink:href="#ma01c43152e" y="248.21625"/>
      </g>
     </g>
    </g>
    <g id="xtick_37">
     <g id="line2d_48">
      <g>
       <use style="fill:#262626;stroke:#262626;stroke-width:2;" x="793.996808" xlink:href="#ma01c43152e" y="248.21625"/>
      </g>
     </g>
    </g>
    <g id="xtick_38">
     <g id="line2d_49">
      <g>
       <use style="fill:#262626;stroke:#262626;stroke-width:2;" x="802.458931" xlink:href="#ma01c43152e" y="248.21625"/>
      </g>
     </g>
    </g>
    <g id="text_14">
     <!-- divisions per day -->
     <g style="fill:#262626;" transform="translate(542.790572 307.244375)scale(0.24 -0.24)">
      <use xlink:href="#DejaVuSans-100"/>
      <use x="63.476562" xlink:href="#DejaVuSans-105"/>
      <use x="91.259766" xlink:href="#DejaVuSans-118"/>
      <use x="150.439453" xlink:href="#DejaVuSans-105"/>
      <use x="178.222656" xlink:href="#DejaVuSans-115"/>
      <use x="230.322266" xlink:href="#DejaVuSans-105"/>
      <use x="258.105469" xlink:href="#DejaVuSans-111"/>
      <use x="319.287109" xlink:href="#DejaVuSans-110"/>
      <use x="382.666016" xlink:href="#DejaVuSans-115"/>
      <use x="434.765625" xlink:href="#DejaVuSans-32"/>
      <use x="466.552734" xlink:href="#DejaVuSans-112"/>
      <use x="530.029297" xlink:href="#DejaVuSans-101"/>
      <use x="591.552734" xlink:href="#DejaVuSans-114"/>
      <use x="632.666016" xlink:href="#DejaVuSans-32"/>
      <use x="664.453125" xlink:href="#DejaVuSans-100"/>
      <use x="727.929688" xlink:href="#DejaVuSans-97"/>
      <use x="789.208984" xlink:href="#DejaVuSans-121"/>
     </g>
    </g>
   </g>
   <g id="matplotlib.axis_4">
    <g id="ytick_5">
     <g id="line2d_50">
      <g>
       <use style="fill:#262626;stroke:#262626;stroke-width:2.5;" x="479.170086" xlink:href="#m2a5322ede1" y="217.247679"/>
      </g>
     </g>
    </g>
    <g id="ytick_6">
     <g id="line2d_51">
      <g>
       <use style="fill:#262626;stroke:#262626;stroke-width:2.5;" x="479.170086" xlink:href="#m2a5322ede1" y="155.310536"/>
      </g>
     </g>
    </g>
    <g id="ytick_7">
     <g id="line2d_52">
      <g>
       <use style="fill:#262626;stroke:#262626;stroke-width:2.5;" x="479.170086" xlink:href="#m2a5322ede1" y="93.373393"/>
      </g>
     </g>
    </g>
    <g id="ytick_8">
     <g id="line2d_53">
      <g>
       <use style="fill:#262626;stroke:#262626;stroke-width:2.5;" x="479.170086" xlink:href="#m2a5322ede1" y="31.43625"/>
      </g>
     </g>
    </g>
   </g>
   <g id="line2d_54">
    <path clip-path="url(#p3c5413270a)" d="M 479.170086 217.247679 
L 490.578999 217.111836 
L 501.987912 216.95379 
L 513.396825 216.769985 
L 524.805737 216.556149 
L 533.926041 216.360061 
L 535.377505 216.32655 
L 536.21465 216.306915 
L 536.800225 216.293046 
L 538.195317 216.259547 
L 539.563835 216.226049 
L 540.906771 216.192548 
L 542.225065 216.159041 
L 543.519605 216.125523 
L 544.791231 216.091991 
L 546.040741 216.058441 
L 547.268891 216.024869 
L 547.623563 216.015061 
L 548.476398 215.99127 
L 549.663946 215.95764 
L 550.832183 215.923974 
L 551.981728 215.890269 
L 553.113168 215.856519 
L 554.227067 215.82272 
L 555.323958 215.788866 
L 556.404355 215.754954 
L 557.468745 215.720977 
L 558.517595 215.686931 
L 559.032476 215.670008 
L 559.551354 215.65281 
L 560.570449 215.618609 
L 561.575291 215.584321 
L 562.566272 215.549941 
L 563.54377 215.515464 
L 564.508147 215.480882 
M 569.144918 154.476283 
L 570.037414 154.476913 
L 570.441389 154.480913 
L 570.918959 154.480915 
L 571.789818 154.476987 
L 572.650247 154.476118 
L 573.500494 154.490297 
L 574.340796 154.489245 
L 575.171383 154.500178 
L 575.992478 154.445384 
L 576.804295 154.502202 
L 577.60704 154.464881 
L 578.400916 154.462801 
L 579.186115 154.473294 
L 579.962825 154.452708 
L 580.731229 154.475163 
L 581.4915 154.451197 
L 581.850301 154.454131 
L 582.243811 154.471086 
L 582.988325 154.48597 
L 583.725204 154.487319 
L 593.259214 154.530835 
L 604.668127 154.497133 
L 616.07704 154.52146 
L 627.485953 154.50013 
L 638.894866 154.528501 
L 650.303778 154.494012 
L 661.712691 154.57743 
L 673.121604 155.037712 
L 684.530517 154.632976 
L 695.93943 155.134895 
L 707.348342 154.814946 
L 718.757255 155.336293 
L 730.166168 154.621684 
L 741.575081 155.48669 
L 752.983994 154.494187 
L 764.392907 156.16252 
L 775.801819 155.095149 
L 787.210732 155.011584 
L 798.619645 155.746853 
L 810.028558 156.213394 
" style="fill:none;stroke:#4c72b0;stroke-linecap:round;stroke-width:5;"/>
   </g>
   <g id="line2d_55">
    <path clip-path="url(#p3c5413270a)" d="M 479.170086 217.247679 
L 490.578999 216.534393 
L 501.987912 215.593221 
L 513.396825 214.334658 
L 524.805737 212.603666 
L 533.926041 210.682462 
L 535.377505 210.312947 
L 536.21465 210.089866 
L 536.800225 209.929206 
L 538.195317 209.530085 
L 539.563835 209.114273 
L 540.906771 208.680277 
L 542.225065 208.226402 
L 543.519605 207.75064 
L 544.791231 207.250715 
L 546.040741 206.723948 
L 547.268891 206.167167 
L 547.623563 205.998416 
L 548.476398 205.576625 
L 549.663946 204.947781 
L 550.832183 204.275115 
L 551.981728 203.55181 
L 553.113168 202.769314 
L 554.227067 201.916695 
L 555.323958 200.979669 
L 556.404355 199.939079 
L 557.468745 198.768411 
L 558.517595 197.429554 
L 559.032476 196.686046 
L 559.551354 195.865249 
L 560.570449 193.98536 
L 561.575291 191.642439 
L 562.566272 188.594438 
L 563.54377 184.473501 
L 564.508147 178.836867 
M 569.144918 132.382708 
L 570.037414 134.001975 
L 570.441389 134.646391 
L 570.918959 135.344451 
L 571.789818 136.47784 
L 572.650247 137.462834 
L 573.500494 138.343386 
L 574.340796 139.115572 
L 575.171383 139.822305 
L 575.992478 140.446415 
L 576.804295 141.030365 
L 577.60704 141.572972 
L 578.400916 142.060598 
L 579.186115 142.525478 
L 579.962825 142.928141 
L 580.731229 143.346292 
L 581.4915 143.693359 
L 581.850301 143.86488 
L 582.243811 144.062212 
L 582.988325 144.406116 
L 583.725204 144.718398 
L 593.259214 147.844981 
L 604.668127 150.16665 
L 616.07704 151.801375 
L 627.485953 152.955258 
L 638.894866 153.870209 
L 650.303778 154.510147 
L 661.712691 155.148852 
L 673.121604 156.081291 
L 684.530517 156.040188 
L 695.93943 156.840497 
L 707.348342 156.767096 
L 718.757255 157.492764 
L 730.166168 156.945666 
L 741.575081 157.957706 
L 752.983994 157.079414 
L 764.392907 158.855574 
L 775.801819 157.870665 
L 787.210732 157.858453 
L 798.619645 158.651769 
L 810.028558 159.160944 
" style="fill:none;stroke:#dd8452;stroke-linecap:round;stroke-width:5;"/>
   </g>
   <g id="line2d_56">
    <path clip-path="url(#p3c5413270a)" d="M 479.170086 215.256161 
L 490.578999 215.255989 
L 501.987912 215.255549 
L 513.396825 215.254455 
L 524.805737 215.251815 
L 533.926041 215.247322 
L 535.377505 215.246289 
L 536.21465 215.245642 
L 536.800225 215.245166 
L 538.195317 215.243947 
L 539.563835 215.242627 
L 540.906771 215.241199 
L 542.225065 215.239659 
L 543.519605 215.238 
L 544.791231 215.236215 
L 546.040741 215.234299 
L 547.268891 215.232243 
L 547.623563 215.231615 
L 548.476398 215.230041 
L 549.663946 215.227685 
L 550.832183 215.225168 
L 551.981728 215.222482 
L 553.113168 215.219618 
L 554.227067 215.216567 
L 555.323958 215.21332 
L 556.404355 215.209868 
L 557.468745 215.2062 
L 558.517595 215.202306 
L 559.032476 215.200286 
L 559.551354 215.198174 
L 560.570449 215.193792 
L 561.575291 215.189147 
L 562.566272 215.184226 
L 563.54377 215.179014 
L 564.508147 215.173496 
M 569.144918 168.939548 
L 570.037414 170.666551 
L 570.441389 171.356632 
L 570.918959 172.112701 
L 571.789818 173.355183 
L 572.650247 174.445313 
L 573.500494 175.417849 
L 574.340796 176.29267 
L 575.171383 177.090527 
L 575.992478 177.820796 
L 576.804295 178.495372 
L 577.60704 179.125535 
L 578.400916 179.710695 
L 579.186115 180.261244 
L 579.962825 180.775137 
L 580.731229 181.266591 
L 581.4915 181.725713 
L 581.850301 181.937897 
L 582.243811 182.168041 
L 582.988325 182.588724 
L 583.725204 182.988422 
L 593.259214 187.219578 
L 604.668127 190.925553 
L 616.07704 193.880816 
L 627.485953 196.377877 
L 638.894866 198.576482 
L 650.303778 200.535947 
L 661.712691 202.356288 
L 673.121604 204.106761 
L 684.530517 205.607572 
L 695.93943 207.11866 
L 707.348342 208.431985 
L 718.757255 209.751314 
L 730.166168 210.844095 
L 741.575081 212.039697 
L 752.983994 212.948418 
L 764.392907 214.067072 
L 775.801819 214.845647 
L 787.210732 215.663915 
L 798.619645 216.493925 
L 810.028558 217.247679 
" style="fill:none;stroke:#55a868;stroke-linecap:round;stroke-width:5;"/>
   </g>
   <g id="patch_8">
    <path d="M 479.170086 248.21625 
L 479.170086 31.43625 
" style="fill:none;stroke:#262626;stroke-linecap:square;stroke-linejoin:miter;stroke-width:2.5;"/>
   </g>
   <g id="patch_9">
    <path d="M 810.028558 248.21625 
L 810.028558 31.43625 
" style="fill:none;stroke:#262626;stroke-linecap:square;stroke-linejoin:miter;stroke-width:2.5;"/>
   </g>
   <g id="patch_10">
    <path d="M 479.170086 248.21625 
L 810.028558 248.21625 
" style="fill:none;stroke:#262626;stroke-linecap:square;stroke-linejoin:miter;stroke-width:2.5;"/>
   </g>
   <g id="patch_11">
    <path d="M 479.170086 31.43625 
L 810.028558 31.43625 
" style="fill:none;stroke:#262626;stroke-linecap:square;stroke-linejoin:miter;stroke-width:2.5;"/>
   </g>
   <g id="text_15">
    <!-- Carrying Capacity -->
    <g style="fill:#262626;" transform="translate(537.293072 25.43625)scale(0.24 -0.24)">
     <defs>
      <path d="M 64.40625 67.28125 
L 64.40625 56.890625 
Q 59.421875 61.53125 53.78125 63.8125 
Q 48.140625 66.109375 41.796875 66.109375 
Q 29.296875 66.109375 22.65625 58.46875 
Q 16.015625 50.828125 16.015625 36.375 
Q 16.015625 21.96875 22.65625 14.328125 
Q 29.296875 6.6875 41.796875 6.6875 
Q 48.140625 6.6875 53.78125 8.984375 
Q 59.421875 11.28125 64.40625 15.921875 
L 64.40625 5.609375 
Q 59.234375 2.09375 53.4375 0.328125 
Q 47.65625 -1.421875 41.21875 -1.421875 
Q 24.65625 -1.421875 15.125 8.703125 
Q 5.609375 18.84375 5.609375 36.375 
Q 5.609375 53.953125 15.125 64.078125 
Q 24.65625 74.21875 41.21875 74.21875 
Q 47.75 74.21875 53.53125 72.484375 
Q 59.328125 70.75 64.40625 67.28125 
z
" id="DejaVuSans-67"/>
      <path d="M 45.40625 27.984375 
Q 45.40625 37.75 41.375 43.109375 
Q 37.359375 48.484375 30.078125 48.484375 
Q 22.859375 48.484375 18.828125 43.109375 
Q 14.796875 37.75 14.796875 27.984375 
Q 14.796875 18.265625 18.828125 12.890625 
Q 22.859375 7.515625 30.078125 7.515625 
Q 37.359375 7.515625 41.375 12.890625 
Q 45.40625 18.265625 45.40625 27.984375 
z
M 54.390625 6.78125 
Q 54.390625 -7.171875 48.1875 -13.984375 
Q 42 -20.796875 29.203125 -20.796875 
Q 24.46875 -20.796875 20.265625 -20.09375 
Q 16.0625 -19.390625 12.109375 -17.921875 
L 12.109375 -9.1875 
Q 16.0625 -11.328125 19.921875 -12.34375 
Q 23.78125 -13.375 27.78125 -13.375 
Q 36.625 -13.375 41.015625 -8.765625 
Q 45.40625 -4.15625 45.40625 5.171875 
L 45.40625 9.625 
Q 42.625 4.78125 38.28125 2.390625 
Q 33.9375 0 27.875 0 
Q 17.828125 0 11.671875 7.65625 
Q 5.515625 15.328125 5.515625 27.984375 
Q 5.515625 40.671875 11.671875 48.328125 
Q 17.828125 56 27.875 56 
Q 33.9375 56 38.28125 53.609375 
Q 42.625 51.21875 45.40625 46.390625 
L 45.40625 54.6875 
L 54.390625 54.6875 
z
" id="DejaVuSans-103"/>
     </defs>
     <use xlink:href="#DejaVuSans-67"/>
     <use x="69.824219" xlink:href="#DejaVuSans-97"/>
     <use x="131.103516" xlink:href="#DejaVuSans-114"/>
     <use x="170.466797" xlink:href="#DejaVuSans-114"/>
     <use x="211.580078" xlink:href="#DejaVuSans-121"/>
     <use x="270.759766" xlink:href="#DejaVuSans-105"/>
     <use x="298.542969" xlink:href="#DejaVuSans-110"/>
     <use x="361.921875" xlink:href="#DejaVuSans-103"/>
     <use x="425.398438" xlink:href="#DejaVuSans-32"/>
     <use x="457.185547" xlink:href="#DejaVuSans-67"/>
     <use x="527.009766" xlink:href="#DejaVuSans-97"/>
     <use x="588.289062" xlink:href="#DejaVuSans-112"/>
     <use x="651.765625" xlink:href="#DejaVuSans-97"/>
     <use x="713.044922" xlink:href="#DejaVuSans-99"/>
     <use x="768.025391" xlink:href="#DejaVuSans-105"/>
     <use x="795.808594" xlink:href="#DejaVuSans-116"/>
     <use x="835.017578" xlink:href="#DejaVuSans-121"/>
    </g>
   </g>
   <g id="line2d_57">
    <path clip-path="url(#p3c5413270a)" d="M 700.306881 248.21625 
L 700.306881 31.43625 
" style="fill:none;stroke:#1a1a1a;stroke-dasharray:7.4,3.2;stroke-dashoffset:0;stroke-width:2;"/>
   </g>
  </g>
  <g id="axes_3">
   <g id="patch_12">
    <path d="M 880.417672 248.21625 
L 1211.276144 248.21625 
L 1211.276144 31.43625 
L 880.417672 31.43625 
z
" style="fill:#ffffff;"/>
   </g>
   <g id="matplotlib.axis_5">
    <g id="xtick_39">
     <g id="line2d_58">
      <g>
       <use style="fill:#262626;stroke:#262626;stroke-width:2.5;" x="880.417672" xlink:href="#m672b689794" y="248.21625"/>
      </g>
     </g>
     <g id="text_16">
      <!-- $\mathdefault{10^{-1}}$ -->
      <g style="fill:#262626;" transform="translate(854.567672 280.432812)scale(0.22 -0.22)">
       <use transform="translate(0 0.684375)" xlink:href="#DejaVuSans-49"/>
       <use transform="translate(63.623047 0.684375)" xlink:href="#DejaVuSans-48"/>
       <use transform="translate(128.203125 38.965625)scale(0.7)" xlink:href="#DejaVuSans-8722"/>
       <use transform="translate(186.855469 38.965625)scale(0.7)" xlink:href="#DejaVuSans-49"/>
      </g>
     </g>
    </g>
    <g id="xtick_40">
     <g id="line2d_59">
      <g>
       <use style="fill:#262626;stroke:#262626;stroke-width:2.5;" x="1045.846908" xlink:href="#m672b689794" y="248.21625"/>
      </g>
     </g>
     <g id="text_17">
      <!-- $\mathdefault{10^{0}}$ -->
      <g style="fill:#262626;" transform="translate(1026.486908 280.432812)scale(0.22 -0.22)">
       <use transform="translate(0 0.765625)" xlink:href="#DejaVuSans-49"/>
       <use transform="translate(63.623047 0.765625)" xlink:href="#DejaVuSans-48"/>
       <use transform="translate(128.203125 39.046875)scale(0.7)" xlink:href="#DejaVuSans-48"/>
      </g>
     </g>
    </g>
    <g id="xtick_41">
     <g id="line2d_60">
      <g>
       <use style="fill:#262626;stroke:#262626;stroke-width:2.5;" x="1211.276144" xlink:href="#m672b689794" y="248.21625"/>
      </g>
     </g>
     <g id="text_18">
      <!-- $\mathdefault{10^{1}}$ -->
      <g style="fill:#262626;" transform="translate(1191.916144 280.432812)scale(0.22 -0.22)">
       <use transform="translate(0 0.684375)" xlink:href="#DejaVuSans-49"/>
       <use transform="translate(63.623047 0.684375)" xlink:href="#DejaVuSans-48"/>
       <use transform="translate(128.203125 38.965625)scale(0.7)" xlink:href="#DejaVuSans-49"/>
      </g>
     </g>
    </g>
    <g id="xtick_42">
     <g id="line2d_61">
      <g>
       <use style="fill:#262626;stroke:#262626;stroke-width:2;" x="930.216834" xlink:href="#ma01c43152e" y="248.21625"/>
      </g>
     </g>
    </g>
    <g id="xtick_43">
     <g id="line2d_62">
      <g>
       <use style="fill:#262626;stroke:#262626;stroke-width:2;" x="959.347477" xlink:href="#ma01c43152e" y="248.21625"/>
      </g>
     </g>
    </g>
    <g id="xtick_44">
     <g id="line2d_63">
      <g>
       <use style="fill:#262626;stroke:#262626;stroke-width:2;" x="980.015997" xlink:href="#ma01c43152e" y="248.21625"/>
      </g>
     </g>
    </g>
    <g id="xtick_45">
     <g id="line2d_64">
      <g>
       <use style="fill:#262626;stroke:#262626;stroke-width:2;" x="996.047746" xlink:href="#ma01c43152e" y="248.21625"/>
      </g>
     </g>
    </g>
    <g id="xtick_46">
     <g id="line2d_65">
      <g>
       <use style="fill:#262626;stroke:#262626;stroke-width:2;" x="1009.146639" xlink:href="#ma01c43152e" y="248.21625"/>
      </g>
     </g>
    </g>
    <g id="xtick_47">
     <g id="line2d_66">
      <g>
       <use style="fill:#262626;stroke:#262626;stroke-width:2;" x="1020.221595" xlink:href="#ma01c43152e" y="248.21625"/>
      </g>
     </g>
    </g>
    <g id="xtick_48">
     <g id="line2d_67">
      <g>
       <use style="fill:#262626;stroke:#262626;stroke-width:2;" x="1029.815159" xlink:href="#ma01c43152e" y="248.21625"/>
      </g>
     </g>
    </g>
    <g id="xtick_49">
     <g id="line2d_68">
      <g>
       <use style="fill:#262626;stroke:#262626;stroke-width:2;" x="1038.277281" xlink:href="#ma01c43152e" y="248.21625"/>
      </g>
     </g>
    </g>
    <g id="xtick_50">
     <g id="line2d_69">
      <g>
       <use style="fill:#262626;stroke:#262626;stroke-width:2;" x="1095.64607" xlink:href="#ma01c43152e" y="248.21625"/>
      </g>
     </g>
    </g>
    <g id="xtick_51">
     <g id="line2d_70">
      <g>
       <use style="fill:#262626;stroke:#262626;stroke-width:2;" x="1124.776713" xlink:href="#ma01c43152e" y="248.21625"/>
      </g>
     </g>
    </g>
    <g id="xtick_52">
     <g id="line2d_71">
      <g>
       <use style="fill:#262626;stroke:#262626;stroke-width:2;" x="1145.445232" xlink:href="#ma01c43152e" y="248.21625"/>
      </g>
     </g>
    </g>
    <g id="xtick_53">
     <g id="line2d_72">
      <g>
       <use style="fill:#262626;stroke:#262626;stroke-width:2;" x="1161.476982" xlink:href="#ma01c43152e" y="248.21625"/>
      </g>
     </g>
    </g>
    <g id="xtick_54">
     <g id="line2d_73">
      <g>
       <use style="fill:#262626;stroke:#262626;stroke-width:2;" x="1174.575875" xlink:href="#ma01c43152e" y="248.21625"/>
      </g>
     </g>
    </g>
    <g id="xtick_55">
     <g id="line2d_74">
      <g>
       <use style="fill:#262626;stroke:#262626;stroke-width:2;" x="1185.650831" xlink:href="#ma01c43152e" y="248.21625"/>
      </g>
     </g>
    </g>
    <g id="xtick_56">
     <g id="line2d_75">
      <g>
       <use style="fill:#262626;stroke:#262626;stroke-width:2;" x="1195.244395" xlink:href="#ma01c43152e" y="248.21625"/>
      </g>
     </g>
    </g>
    <g id="xtick_57">
     <g id="line2d_76">
      <g>
       <use style="fill:#262626;stroke:#262626;stroke-width:2;" x="1203.706517" xlink:href="#ma01c43152e" y="248.21625"/>
      </g>
     </g>
    </g>
    <g id="text_19">
     <!-- divisions per day -->
     <g style="fill:#262626;" transform="translate(944.038158 307.244375)scale(0.24 -0.24)">
      <use xlink:href="#DejaVuSans-100"/>
      <use x="63.476562" xlink:href="#DejaVuSans-105"/>
      <use x="91.259766" xlink:href="#DejaVuSans-118"/>
      <use x="150.439453" xlink:href="#DejaVuSans-105"/>
      <use x="178.222656" xlink:href="#DejaVuSans-115"/>
      <use x="230.322266" xlink:href="#DejaVuSans-105"/>
      <use x="258.105469" xlink:href="#DejaVuSans-111"/>
      <use x="319.287109" xlink:href="#DejaVuSans-110"/>
      <use x="382.666016" xlink:href="#DejaVuSans-115"/>
      <use x="434.765625" xlink:href="#DejaVuSans-32"/>
      <use x="466.552734" xlink:href="#DejaVuSans-112"/>
      <use x="530.029297" xlink:href="#DejaVuSans-101"/>
      <use x="591.552734" xlink:href="#DejaVuSans-114"/>
      <use x="632.666016" xlink:href="#DejaVuSans-32"/>
      <use x="664.453125" xlink:href="#DejaVuSans-100"/>
      <use x="727.929688" xlink:href="#DejaVuSans-97"/>
      <use x="789.208984" xlink:href="#DejaVuSans-121"/>
     </g>
    </g>
   </g>
   <g id="matplotlib.axis_6">
    <g id="ytick_9">
     <g id="line2d_77">
      <g>
       <use style="fill:#262626;stroke:#262626;stroke-width:2.5;" x="880.417672" xlink:href="#m2a5322ede1" y="217.247679"/>
      </g>
     </g>
    </g>
    <g id="ytick_10">
     <g id="line2d_78">
      <g>
       <use style="fill:#262626;stroke:#262626;stroke-width:2.5;" x="880.417672" xlink:href="#m2a5322ede1" y="155.310536"/>
      </g>
     </g>
    </g>
    <g id="ytick_11">
     <g id="line2d_79">
      <g>
       <use style="fill:#262626;stroke:#262626;stroke-width:2.5;" x="880.417672" xlink:href="#m2a5322ede1" y="93.373393"/>
      </g>
     </g>
    </g>
    <g id="ytick_12">
     <g id="line2d_80">
      <g>
       <use style="fill:#262626;stroke:#262626;stroke-width:2.5;" x="880.417672" xlink:href="#m2a5322ede1" y="31.43625"/>
      </g>
     </g>
    </g>
   </g>
   <g id="line2d_81">
    <path clip-path="url(#pbeef69200e)" d="M 880.417672 217.247679 
L 891.826585 217.111867 
L 903.235498 216.953897 
L 914.644411 216.770279 
L 926.053323 216.556892 
L 935.173628 216.361556 
L 936.625091 216.328215 
L 937.462236 216.308688 
L 938.047811 216.294898 
L 939.442903 216.261599 
L 940.811421 216.228318 
L 942.154357 216.19505 
L 943.472651 216.161794 
L 944.767191 216.128545 
L 946.038817 216.095302 
L 947.288327 216.062061 
L 948.516477 216.028818 
L 948.871149 216.019111 
L 949.723984 215.99557 
L 950.911532 215.962314 
L 952.079769 215.929047 
L 953.229314 215.895764 
L 954.360754 215.862463 
L 955.474653 215.829139 
L 956.571544 215.795789 
L 957.651941 215.762408 
L 958.716331 215.728993 
L 959.765181 215.69554 
L 960.280062 215.678922 
L 960.79894 215.662044 
L 961.818036 215.6285 
L 962.822877 215.594905 
L 963.813858 215.561254 
L 964.791357 215.527543 
L 965.755734 215.493766 
L 966.707337 215.459918 
L 967.646501 215.425995 
L 968.573546 215.391991 
L 969.488781 215.357901 
L 970.392504 215.32372 
L 971.285 213.685231 
L 971.688975 212.737058 
L 972.166545 211.55954 
L 973.037404 209.392848 
L 973.897833 207.344759 
L 974.74808 205.463617 
L 975.588382 203.752427 
L 976.418969 202.197859 
L 977.240064 200.782677 
L 978.051881 199.488943 
L 978.854627 198.3009 
L 979.648502 197.204938 
L 980.433701 196.189481 
L 981.210412 195.244735 
L 981.978815 194.362415 
L 982.739086 193.535488 
L 983.097888 193.15985 
L 983.491397 192.757966 
L 984.235911 192.024719 
L 984.97279 191.331335 
L 994.5068 184.355912 
L 1005.915713 178.674812 
L 1017.324626 174.370634 
L 1028.733539 170.826345 
L 1040.142452 167.755014 
L 1051.551365 164.999751 
L 1062.960277 162.46626 
L 1074.36919 160.090609 
L 1085.778103 157.830101 
L 1097.187016 155.651369 
L 1108.595929 153.543822 
L 1120.004841 151.461206 
L 1131.413754 149.414134 
L 1142.822667 147.364488 
L 1154.23158 145.31047 
L 1165.640493 143.262505 
L 1177.049406 141.202243 
L 1188.458318 139.128624 
L 1199.867231 137.057207 
L 1211.276144 135.001848 
" style="fill:none;stroke:#4c72b0;stroke-linecap:round;stroke-width:5;"/>
   </g>
   <g id="line2d_82">
    <path clip-path="url(#pbeef69200e)" d="M 880.417672 217.247679 
L 891.826585 216.589626 
L 903.235498 215.723876 
L 914.644411 214.573388 
L 926.053323 213.009845 
L 935.173628 211.307269 
L 936.625091 210.98445 
L 937.462236 210.790355 
L 938.047811 210.650951 
L 939.442903 210.306048 
L 940.811421 209.948938 
L 942.154357 209.578723 
L 943.472651 209.194397 
L 944.767191 208.794827 
L 946.038817 208.378732 
L 947.288327 207.94466 
L 948.516477 207.49097 
L 948.871149 207.354525 
L 949.723984 207.015729 
L 950.911532 206.516764 
L 952.079769 205.991533 
L 953.229314 205.437058 
L 954.360754 204.849859 
L 955.474653 204.225775 
L 956.571544 203.559837 
L 957.651941 202.846038 
L 958.716331 202.077046 
L 959.765181 201.243818 
L 960.280062 200.803087 
L 960.79894 200.335094 
L 961.818036 199.336763 
L 962.822877 198.231074 
L 963.813858 196.99593 
L 964.791357 195.604806 
L 965.755734 194.0288 
L 966.707337 192.244 
L 967.646501 190.248827 
L 968.573546 188.092354 
L 969.488781 185.898778 
L 970.392504 183.8449 
L 971.285 182.076408 
L 971.688975 181.378609 
L 972.166545 180.633755 
L 973.037404 179.470515 
L 973.897833 178.518683 
L 974.74808 177.722592 
L 975.588382 177.043822 
L 976.418969 176.455405 
L 977.240064 175.93862 
L 978.051881 175.479083 
L 978.854627 175.066191 
L 979.648502 174.691846 
L 980.433701 174.349761 
L 981.210412 174.034982 
L 981.978815 173.743553 
L 982.739086 173.472275 
L 983.097888 173.349542 
L 983.491397 173.218529 
L 984.235911 172.980154 
L 984.97279 172.755343 
L 994.5068 170.480147 
L 1005.915713 168.495246 
L 1017.324626 166.805828 
L 1028.733539 165.227133 
L 1040.142452 163.682579 
L 1051.551365 162.138215 
L 1062.960277 160.580055 
L 1074.36919 159.000883 
L 1085.778103 157.398341 
L 1097.187016 155.768953 
L 1108.595929 154.118293 
L 1120.004841 152.424899 
L 1131.413754 150.705476 
L 1142.822667 148.936863 
L 1154.23158 147.122586 
L 1165.640493 145.276603 
L 1177.049406 143.387727 
L 1188.458318 141.458704 
L 1199.867231 139.507846 
L 1211.276144 137.552424 
" style="fill:none;stroke:#dd8452;stroke-linecap:round;stroke-width:5;"/>
   </g>
   <g id="line2d_83">
    <path clip-path="url(#pbeef69200e)" d="M 880.417672 217.083038 
L 891.826585 217.08292 
L 903.235498 217.082616 
L 914.644411 217.081847 
L 926.053323 217.079963 
L 935.173628 217.076705 
L 936.625091 217.075951 
L 937.462236 217.075477 
L 938.047811 217.075128 
L 939.442903 217.074234 
L 940.811421 217.073264 
L 942.154357 217.072213 
L 943.472651 217.071077 
L 944.767191 217.06985 
L 946.038817 217.068529 
L 947.288327 217.067108 
L 948.516477 217.065581 
L 948.871149 217.065115 
L 949.723984 217.063944 
L 950.911532 217.06219 
L 952.079769 217.060313 
L 953.229314 217.058309 
L 954.360754 217.056169 
L 955.474653 217.053888 
L 956.571544 217.051459 
L 957.651941 217.048875 
L 958.716331 217.046128 
L 959.765181 217.04321 
L 960.280062 217.041696 
L 960.79894 217.040113 
L 961.818036 217.036829 
L 962.822877 217.033349 
L 963.813858 217.029663 
L 964.791357 217.025761 
L 965.755734 217.021632 
L 966.707337 217.017266 
L 967.646501 217.01265 
L 968.573546 217.007773 
L 969.488781 217.002619 
L 970.392504 216.997176 
L 971.285 186.250565 
L 971.688975 185.360453 
L 972.166545 184.730192 
L 973.037404 184.255385 
L 973.897833 184.237467 
L 974.74808 184.434235 
L 975.588382 184.734307 
L 976.418969 185.082793 
L 977.240064 185.451272 
L 978.051881 185.824358 
L 978.854627 186.193794 
L 979.648502 186.555146 
L 980.433701 186.906129 
L 981.210412 187.245692 
L 981.978815 187.573499 
L 982.739086 187.889627 
L 983.097888 188.035972 
L 983.491397 188.194387 
L 984.235911 188.488217 
L 984.97279 188.771622 
L 994.5068 191.892398 
L 1005.915713 194.748776 
L 1017.324626 197.07006 
L 1028.733539 199.065003 
L 1040.142452 200.840039 
L 1051.551365 202.455949 
L 1062.960277 203.949002 
L 1074.36919 205.345525 
L 1085.778103 206.65868 
L 1097.187016 207.899108 
L 1108.595929 209.069738 
L 1120.004841 210.18478 
L 1131.413754 211.239535 
L 1142.822667 212.242112 
L 1154.23158 213.192248 
L 1165.640493 214.091887 
L 1177.049406 214.943967 
L 1188.458318 215.752261 
L 1199.867231 216.517511 
L 1211.276144 217.247679 
" style="fill:none;stroke:#55a868;stroke-linecap:round;stroke-width:5;"/>
   </g>
   <g id="patch_13">
    <path d="M 880.417672 248.21625 
L 880.417672 31.43625 
" style="fill:none;stroke:#262626;stroke-linecap:square;stroke-linejoin:miter;stroke-width:2.5;"/>
   </g>
   <g id="patch_14">
    <path d="M 1211.276144 248.21625 
L 1211.276144 31.43625 
" style="fill:none;stroke:#262626;stroke-linecap:square;stroke-linejoin:miter;stroke-width:2.5;"/>
   </g>
   <g id="patch_15">
    <path d="M 880.417672 248.21625 
L 1211.276144 248.21625 
" style="fill:none;stroke:#262626;stroke-linecap:square;stroke-linejoin:miter;stroke-width:2.5;"/>
   </g>
   <g id="patch_16">
    <path d="M 880.417672 31.43625 
L 1211.276144 31.43625 
" style="fill:none;stroke:#262626;stroke-linecap:square;stroke-linejoin:miter;stroke-width:2.5;"/>
   </g>
   <g id="text_20">
    <!-- IL2 -->
    <g style="fill:#262626;" transform="translate(1027.985658 25.43625)scale(0.24 -0.24)">
     <defs>
      <path d="M 9.8125 72.90625 
L 19.671875 72.90625 
L 19.671875 0 
L 9.8125 0 
z
" id="DejaVuSans-73"/>
      <path d="M 9.8125 72.90625 
L 19.671875 72.90625 
L 19.671875 8.296875 
L 55.171875 8.296875 
L 55.171875 0 
L 9.8125 0 
z
" id="DejaVuSans-76"/>
     </defs>
     <use xlink:href="#DejaVuSans-73"/>
     <use x="29.492188" xlink:href="#DejaVuSans-76"/>
     <use x="85.205078" xlink:href="#DejaVuSans-50"/>
    </g>
   </g>
   <g id="line2d_84">
    <path clip-path="url(#pbeef69200e)" d="M 1101.554467 248.21625 
L 1101.554467 31.43625 
" style="fill:none;stroke:#1a1a1a;stroke-dasharray:7.4,3.2;stroke-dashoffset:0;stroke-width:2;"/>
   </g>
  </g>
  <g id="axes_4">
   <g id="patch_17">
    <path d="M 1281.665258 248.21625 
L 1612.52373 248.21625 
L 1612.52373 31.43625 
L 1281.665258 31.43625 
z
" style="fill:#ffffff;"/>
   </g>
   <g id="matplotlib.axis_7">
    <g id="xtick_58">
     <g id="line2d_85">
      <g>
       <use style="fill:#262626;stroke:#262626;stroke-width:2.5;" x="1281.665258" xlink:href="#m672b689794" y="248.21625"/>
      </g>
     </g>
     <g id="text_21">
      <!-- $\mathdefault{10^{-1}}$ -->
      <g style="fill:#262626;" transform="translate(1255.815258 280.432812)scale(0.22 -0.22)">
       <use transform="translate(0 0.684375)" xlink:href="#DejaVuSans-49"/>
       <use transform="translate(63.623047 0.684375)" xlink:href="#DejaVuSans-48"/>
       <use transform="translate(128.203125 38.965625)scale(0.7)" xlink:href="#DejaVuSans-8722"/>
       <use transform="translate(186.855469 38.965625)scale(0.7)" xlink:href="#DejaVuSans-49"/>
      </g>
     </g>
    </g>
    <g id="xtick_59">
     <g id="line2d_86">
      <g>
       <use style="fill:#262626;stroke:#262626;stroke-width:2.5;" x="1447.094494" xlink:href="#m672b689794" y="248.21625"/>
      </g>
     </g>
     <g id="text_22">
      <!-- $\mathdefault{10^{0}}$ -->
      <g style="fill:#262626;" transform="translate(1427.734494 280.432812)scale(0.22 -0.22)">
       <use transform="translate(0 0.765625)" xlink:href="#DejaVuSans-49"/>
       <use transform="translate(63.623047 0.765625)" xlink:href="#DejaVuSans-48"/>
       <use transform="translate(128.203125 39.046875)scale(0.7)" xlink:href="#DejaVuSans-48"/>
      </g>
     </g>
    </g>
    <g id="xtick_60">
     <g id="line2d_87">
      <g>
       <use style="fill:#262626;stroke:#262626;stroke-width:2.5;" x="1612.52373" xlink:href="#m672b689794" y="248.21625"/>
      </g>
     </g>
     <g id="text_23">
      <!-- $\mathdefault{10^{1}}$ -->
      <g style="fill:#262626;" transform="translate(1593.16373 280.432812)scale(0.22 -0.22)">
       <use transform="translate(0 0.684375)" xlink:href="#DejaVuSans-49"/>
       <use transform="translate(63.623047 0.684375)" xlink:href="#DejaVuSans-48"/>
       <use transform="translate(128.203125 38.965625)scale(0.7)" xlink:href="#DejaVuSans-49"/>
      </g>
     </g>
    </g>
    <g id="xtick_61">
     <g id="line2d_88">
      <g>
       <use style="fill:#262626;stroke:#262626;stroke-width:2;" x="1331.46442" xlink:href="#ma01c43152e" y="248.21625"/>
      </g>
     </g>
    </g>
    <g id="xtick_62">
     <g id="line2d_89">
      <g>
       <use style="fill:#262626;stroke:#262626;stroke-width:2;" x="1360.595063" xlink:href="#ma01c43152e" y="248.21625"/>
      </g>
     </g>
    </g>
    <g id="xtick_63">
     <g id="line2d_90">
      <g>
       <use style="fill:#262626;stroke:#262626;stroke-width:2;" x="1381.263583" xlink:href="#ma01c43152e" y="248.21625"/>
      </g>
     </g>
    </g>
    <g id="xtick_64">
     <g id="line2d_91">
      <g>
       <use style="fill:#262626;stroke:#262626;stroke-width:2;" x="1397.295332" xlink:href="#ma01c43152e" y="248.21625"/>
      </g>
     </g>
    </g>
    <g id="xtick_65">
     <g id="line2d_92">
      <g>
       <use style="fill:#262626;stroke:#262626;stroke-width:2;" x="1410.394225" xlink:href="#ma01c43152e" y="248.21625"/>
      </g>
     </g>
    </g>
    <g id="xtick_66">
     <g id="line2d_93">
      <g>
       <use style="fill:#262626;stroke:#262626;stroke-width:2;" x="1421.469181" xlink:href="#ma01c43152e" y="248.21625"/>
      </g>
     </g>
    </g>
    <g id="xtick_67">
     <g id="line2d_94">
      <g>
       <use style="fill:#262626;stroke:#262626;stroke-width:2;" x="1431.062745" xlink:href="#ma01c43152e" y="248.21625"/>
      </g>
     </g>
    </g>
    <g id="xtick_68">
     <g id="line2d_95">
      <g>
       <use style="fill:#262626;stroke:#262626;stroke-width:2;" x="1439.524868" xlink:href="#ma01c43152e" y="248.21625"/>
      </g>
     </g>
    </g>
    <g id="xtick_69">
     <g id="line2d_96">
      <g>
       <use style="fill:#262626;stroke:#262626;stroke-width:2;" x="1496.893656" xlink:href="#ma01c43152e" y="248.21625"/>
      </g>
     </g>
    </g>
    <g id="xtick_70">
     <g id="line2d_97">
      <g>
       <use style="fill:#262626;stroke:#262626;stroke-width:2;" x="1526.024299" xlink:href="#ma01c43152e" y="248.21625"/>
      </g>
     </g>
    </g>
    <g id="xtick_71">
     <g id="line2d_98">
      <g>
       <use style="fill:#262626;stroke:#262626;stroke-width:2;" x="1546.692819" xlink:href="#ma01c43152e" y="248.21625"/>
      </g>
     </g>
    </g>
    <g id="xtick_72">
     <g id="line2d_99">
      <g>
       <use style="fill:#262626;stroke:#262626;stroke-width:2;" x="1562.724568" xlink:href="#ma01c43152e" y="248.21625"/>
      </g>
     </g>
    </g>
    <g id="xtick_73">
     <g id="line2d_100">
      <g>
       <use style="fill:#262626;stroke:#262626;stroke-width:2;" x="1575.823461" xlink:href="#ma01c43152e" y="248.21625"/>
      </g>
     </g>
    </g>
    <g id="xtick_74">
     <g id="line2d_101">
      <g>
       <use style="fill:#262626;stroke:#262626;stroke-width:2;" x="1586.898417" xlink:href="#ma01c43152e" y="248.21625"/>
      </g>
     </g>
    </g>
    <g id="xtick_75">
     <g id="line2d_102">
      <g>
       <use style="fill:#262626;stroke:#262626;stroke-width:2;" x="1596.491981" xlink:href="#ma01c43152e" y="248.21625"/>
      </g>
     </g>
    </g>
    <g id="xtick_76">
     <g id="line2d_103">
      <g>
       <use style="fill:#262626;stroke:#262626;stroke-width:2;" x="1604.954103" xlink:href="#ma01c43152e" y="248.21625"/>
      </g>
     </g>
    </g>
    <g id="text_24">
     <!-- divisions per day -->
     <g style="fill:#262626;" transform="translate(1345.285744 307.244375)scale(0.24 -0.24)">
      <use xlink:href="#DejaVuSans-100"/>
      <use x="63.476562" xlink:href="#DejaVuSans-105"/>
      <use x="91.259766" xlink:href="#DejaVuSans-118"/>
      <use x="150.439453" xlink:href="#DejaVuSans-105"/>
      <use x="178.222656" xlink:href="#DejaVuSans-115"/>
      <use x="230.322266" xlink:href="#DejaVuSans-105"/>
      <use x="258.105469" xlink:href="#DejaVuSans-111"/>
      <use x="319.287109" xlink:href="#DejaVuSans-110"/>
      <use x="382.666016" xlink:href="#DejaVuSans-115"/>
      <use x="434.765625" xlink:href="#DejaVuSans-32"/>
      <use x="466.552734" xlink:href="#DejaVuSans-112"/>
      <use x="530.029297" xlink:href="#DejaVuSans-101"/>
      <use x="591.552734" xlink:href="#DejaVuSans-114"/>
      <use x="632.666016" xlink:href="#DejaVuSans-32"/>
      <use x="664.453125" xlink:href="#DejaVuSans-100"/>
      <use x="727.929688" xlink:href="#DejaVuSans-97"/>
      <use x="789.208984" xlink:href="#DejaVuSans-121"/>
     </g>
    </g>
   </g>
   <g id="matplotlib.axis_8">
    <g id="ytick_13">
     <g id="line2d_104">
      <g>
       <use style="fill:#262626;stroke:#262626;stroke-width:2.5;" x="1281.665258" xlink:href="#m2a5322ede1" y="217.247679"/>
      </g>
     </g>
    </g>
    <g id="ytick_14">
     <g id="line2d_105">
      <g>
       <use style="fill:#262626;stroke:#262626;stroke-width:2.5;" x="1281.665258" xlink:href="#m2a5322ede1" y="155.310536"/>
      </g>
     </g>
    </g>
    <g id="ytick_15">
     <g id="line2d_106">
      <g>
       <use style="fill:#262626;stroke:#262626;stroke-width:2.5;" x="1281.665258" xlink:href="#m2a5322ede1" y="93.373393"/>
      </g>
     </g>
    </g>
    <g id="ytick_16">
     <g id="line2d_107">
      <g>
       <use style="fill:#262626;stroke:#262626;stroke-width:2.5;" x="1281.665258" xlink:href="#m2a5322ede1" y="31.43625"/>
      </g>
     </g>
    </g>
   </g>
   <g id="line2d_108">
    <path clip-path="url(#p7a6b21cdc4)" d="M 1281.665258 217.247679 
L 1293.074171 217.111836 
L 1304.483084 216.95379 
L 1315.891997 216.769985 
L 1327.30091 216.556149 
L 1336.421214 216.360061 
L 1337.872677 216.32655 
L 1338.709822 216.306915 
L 1339.295397 216.293046 
L 1340.69049 216.259547 
L 1342.059007 216.226049 
L 1343.401944 216.192548 
L 1344.720238 216.159041 
L 1346.014777 216.125523 
L 1347.286403 216.091991 
L 1348.535913 216.058441 
L 1349.764063 216.024869 
L 1350.118735 216.015061 
L 1350.97157 215.99127 
L 1352.159118 215.95764 
L 1353.327355 215.923974 
L 1354.4769 215.890269 
L 1355.608341 215.856519 
L 1356.722239 215.82272 
L 1357.819131 215.788866 
L 1358.899527 215.754954 
L 1359.963917 215.720977 
L 1361.012768 215.686931 
L 1361.527648 215.670008 
L 1362.046527 215.65281 
L 1363.065622 215.618609 
L 1364.070463 215.584321 
L 1365.061445 215.549941 
L 1366.038943 215.515464 
L 1367.00332 215.480882 
L 1367.954923 215.44619 
L 1368.894087 215.41138 
L 1369.821132 215.376446 
L 1370.736367 215.341381 
L 1371.64009 215.306178 
L 1372.532586 215.270828 
L 1372.936561 215.254632 
L 1373.414131 215.235324 
L 1374.28499 215.106167 
L 1375.14542 214.972571 
L 1375.995666 214.838025 
L 1376.835968 214.702157 
L 1377.666556 214.565697 
L 1378.48765 214.428312 
L 1379.299467 214.290172 
L 1380.102213 214.15127 
L 1380.896088 214.011655 
L 1381.681287 213.871379 
L 1382.457998 213.730491 
L 1383.226401 213.589042 
L 1383.986672 213.448213 
L 1384.345474 213.380546 
L 1384.738983 213.305824 
L 1385.483497 213.163004 
L 1386.220376 213.019795 
L 1395.754387 211.00562 
L 1407.163299 208.196784 
L 1418.572212 204.898832 
L 1429.981125 201.019797 
L 1441.390038 196.47904 
L 1452.798951 191.166996 
L 1464.207863 184.944528 
L 1475.616776 177.682992 
L 1487.025689 169.219613 
L 1498.434602 159.308793 
L 1509.843515 147.7497 
L 1521.252428 134.242971 
L 1532.66134 118.425675 
L 1544.070253 99.937745 
L 1555.479166 78.277271 
L 1566.888079 52.846574 
L 1578.296992 22.886291 
L 1586.052137 -1 
" style="fill:none;stroke:#4c72b0;stroke-linecap:round;stroke-width:5;"/>
   </g>
   <g id="line2d_109">
    <path clip-path="url(#p7a6b21cdc4)" d="M 1281.665258 217.247679 
L 1293.074171 216.984088 
L 1304.483084 216.606346 
L 1315.891997 216.080312 
L 1327.30091 215.385158 
L 1336.421214 214.709494 
L 1337.872677 214.592675 
L 1338.709822 214.524175 
L 1339.295397 214.475775 
L 1340.69049 214.35886 
L 1342.059007 214.241985 
L 1343.401944 214.125191 
L 1344.720238 214.008641 
L 1346.014777 213.89208 
L 1347.286403 213.775656 
L 1348.535913 213.659378 
L 1349.764063 213.543163 
L 1350.118735 213.509282 
L 1350.97157 213.427166 
L 1352.159118 213.311278 
L 1353.327355 213.195478 
L 1354.4769 213.079742 
L 1355.608341 212.964042 
L 1356.722239 212.848348 
L 1357.819131 212.73263 
L 1358.899527 212.616856 
L 1359.963917 212.500995 
L 1361.012768 212.385019 
L 1361.527648 212.327412 
L 1362.046527 212.268899 
L 1363.065622 212.152609 
L 1364.070463 212.036122 
L 1365.061445 211.919415 
L 1366.038943 211.802469 
L 1367.00332 211.685266 
L 1367.954923 211.567788 
L 1368.894087 211.450025 
L 1369.821132 211.331966 
L 1370.736367 211.213602 
L 1371.64009 211.094928 
L 1372.532586 210.975759 
L 1372.936561 210.921317 
L 1373.414131 210.856478 
L 1374.28499 210.736891 
L 1375.14542 210.617017 
L 1375.995666 210.496735 
L 1376.835968 210.376361 
L 1377.666556 210.255539 
L 1378.48765 210.134407 
L 1379.299467 210.013014 
L 1380.102213 209.891354 
L 1380.896088 209.769437 
L 1381.681287 209.647271 
L 1382.457998 209.524866 
L 1383.226401 209.402232 
L 1383.986672 209.280012 
L 1384.345474 209.221507 
L 1384.738983 209.156951 
L 1385.483497 209.03369 
L 1386.220376 208.910237 
L 1395.754387 207.177533 
L 1407.163299 204.737834 
L 1418.572212 201.825045 
L 1429.981125 198.346699 
L 1441.390038 194.201302 
L 1452.798951 189.272729 
L 1464.207863 183.401801 
L 1475.616776 176.455216 
L 1487.025689 168.265076 
L 1498.434602 158.583458 
L 1509.843515 147.216246 
L 1521.252428 133.866431 
L 1532.66134 118.176414 
L 1544.070253 99.804205 
L 1555.479166 78.223962 
L 1566.888079 52.857151 
L 1578.296992 22.956444 
L 1586.086778 -1 
" style="fill:none;stroke:#dd8452;stroke-linecap:round;stroke-width:5;"/>
   </g>
   <g id="line2d_110">
    <path clip-path="url(#p7a6b21cdc4)" d="M 1281.665258 217.247679 
L 1293.074171 217.247506 
L 1304.483084 217.247066 
L 1315.891997 217.245972 
L 1327.30091 217.243333 
L 1336.421214 217.23884 
L 1337.872677 217.237807 
L 1338.709822 217.23716 
L 1339.295397 217.236684 
L 1340.69049 217.235465 
L 1342.059007 217.234144 
L 1343.401944 217.232717 
L 1344.720238 217.231177 
L 1346.014777 217.229518 
L 1347.286403 217.227733 
L 1348.535913 217.225816 
L 1349.764063 217.223761 
L 1350.118735 217.223133 
L 1350.97157 217.221559 
L 1352.159118 217.219203 
L 1353.327355 217.216686 
L 1354.4769 217.214 
L 1355.608341 217.211135 
L 1356.722239 217.208085 
L 1357.819131 217.204838 
L 1358.899527 217.201386 
L 1359.963917 217.197718 
L 1361.012768 217.193824 
L 1361.527648 217.191804 
L 1362.046527 217.189692 
L 1363.065622 217.185309 
L 1364.070463 217.180665 
L 1365.061445 217.175744 
L 1366.038943 217.170532 
L 1367.00332 217.165013 
L 1367.954923 217.159172 
L 1368.894087 217.15299 
L 1369.821132 217.146448 
L 1370.736367 217.139524 
L 1371.64009 217.132197 
L 1372.532586 217.12444 
L 1372.936561 217.120747 
L 1373.414131 217.116227 
L 1374.28499 210.344572 
L 1375.14542 210.287218 
L 1375.995666 210.234406 
L 1376.835968 210.181051 
L 1377.666556 210.13748 
L 1378.48765 210.098244 
L 1379.299467 210.062364 
L 1380.102213 210.029678 
L 1380.896088 209.999819 
L 1381.681287 209.97245 
L 1382.457998 209.947269 
L 1383.226401 209.924021 
L 1383.986672 209.904542 
L 1384.345474 209.894723 
L 1384.738983 209.884275 
L 1385.483497 209.865372 
L 1386.220376 209.847693 
L 1395.754387 209.680523 
L 1407.163299 209.544772 
L 1418.572212 209.4333 
L 1429.981125 209.338942 
L 1441.390038 209.256476 
L 1452.798951 209.185107 
L 1464.207863 209.111581 
L 1475.616776 209.046465 
L 1487.025689 208.98477 
L 1498.434602 208.935447 
L 1509.843515 208.873926 
L 1521.252428 208.819177 
L 1532.66134 208.76546 
L 1544.070253 208.710491 
L 1555.479166 208.661111 
L 1566.888079 208.610389 
L 1578.296992 208.55367 
L 1589.705904 208.512636 
L 1601.114817 208.465477 
L 1612.52373 208.41187 
" style="fill:none;stroke:#55a868;stroke-linecap:round;stroke-width:5;"/>
   </g>
   <g id="patch_18">
    <path d="M 1281.665258 248.21625 
L 1281.665258 31.43625 
" style="fill:none;stroke:#262626;stroke-linecap:square;stroke-linejoin:miter;stroke-width:2.5;"/>
   </g>
   <g id="patch_19">
    <path d="M 1612.52373 248.21625 
L 1612.52373 31.43625 
" style="fill:none;stroke:#262626;stroke-linecap:square;stroke-linejoin:miter;stroke-width:2.5;"/>
   </g>
   <g id="patch_20">
    <path d="M 1281.665258 248.21625 
L 1612.52373 248.21625 
" style="fill:none;stroke:#262626;stroke-linecap:square;stroke-linejoin:miter;stroke-width:2.5;"/>
   </g>
   <g id="patch_21">
    <path d="M 1281.665258 31.43625 
L 1612.52373 31.43625 
" style="fill:none;stroke:#262626;stroke-linecap:square;stroke-linejoin:miter;stroke-width:2.5;"/>
   </g>
   <g id="text_25">
    <!-- Timer -->
    <g style="fill:#262626;" transform="translate(1412.800744 25.43625)scale(0.24 -0.24)">
     <defs>
      <path d="M -0.296875 72.90625 
L 61.375 72.90625 
L 61.375 64.59375 
L 35.5 64.59375 
L 35.5 0 
L 25.59375 0 
L 25.59375 64.59375 
L -0.296875 64.59375 
z
" id="DejaVuSans-84"/>
      <path d="M 52 44.1875 
Q 55.375 50.25 60.0625 53.125 
Q 64.75 56 71.09375 56 
Q 79.640625 56 84.28125 50.015625 
Q 88.921875 44.046875 88.921875 33.015625 
L 88.921875 0 
L 79.890625 0 
L 79.890625 32.71875 
Q 79.890625 40.578125 77.09375 44.375 
Q 74.3125 48.1875 68.609375 48.1875 
Q 61.625 48.1875 57.5625 43.546875 
Q 53.515625 38.921875 53.515625 30.90625 
L 53.515625 0 
L 44.484375 0 
L 44.484375 32.71875 
Q 44.484375 40.625 41.703125 44.40625 
Q 38.921875 48.1875 33.109375 48.1875 
Q 26.21875 48.1875 22.15625 43.53125 
Q 18.109375 38.875 18.109375 30.90625 
L 18.109375 0 
L 9.078125 0 
L 9.078125 54.6875 
L 18.109375 54.6875 
L 18.109375 46.1875 
Q 21.1875 51.21875 25.484375 53.609375 
Q 29.78125 56 35.6875 56 
Q 41.65625 56 45.828125 52.96875 
Q 50 49.953125 52 44.1875 
z
" id="DejaVuSans-109"/>
     </defs>
     <use xlink:href="#DejaVuSans-84"/>
     <use x="57.958984" xlink:href="#DejaVuSans-105"/>
     <use x="85.742188" xlink:href="#DejaVuSans-109"/>
     <use x="183.154297" xlink:href="#DejaVuSans-101"/>
     <use x="244.677734" xlink:href="#DejaVuSans-114"/>
    </g>
   </g>
   <g id="line2d_111">
    <path clip-path="url(#p7a6b21cdc4)" d="M 1502.802053 248.21625 
L 1502.802053 31.43625 
" style="fill:none;stroke:#1a1a1a;stroke-dasharray:7.4,3.2;stroke-dashoffset:0;stroke-width:2;"/>
   </g>
  </g>
  <g id="legend_1">
   <g id="text_26">
    <!-- readout -->
    <g style="fill:#262626;" transform="translate(1477.474063 117.9025)scale(0.24 -0.24)">
     <use xlink:href="#DejaVuSans-114"/>
     <use x="38.863281" xlink:href="#DejaVuSans-101"/>
     <use x="100.386719" xlink:href="#DejaVuSans-97"/>
     <use x="161.666016" xlink:href="#DejaVuSans-100"/>
     <use x="225.142578" xlink:href="#DejaVuSans-111"/>
     <use x="286.324219" xlink:href="#DejaVuSans-117"/>
     <use x="349.703125" xlink:href="#DejaVuSans-116"/>
    </g>
   </g>
   <g id="line2d_112">
    <path d="M 1414.436875 142.910312 
L 1458.436875 142.910312 
" style="fill:none;stroke:#4c72b0;stroke-linecap:round;stroke-width:5;"/>
   </g>
   <g id="line2d_113"/>
   <g id="text_27">
    <!-- Peak Height -->
    <g style="fill:#262626;" transform="translate(1476.036875 150.610312)scale(0.22 -0.22)">
     <defs>
      <path d="M 19.671875 64.796875 
L 19.671875 37.40625 
L 32.078125 37.40625 
Q 38.96875 37.40625 42.71875 40.96875 
Q 46.484375 44.53125 46.484375 51.125 
Q 46.484375 57.671875 42.71875 61.234375 
Q 38.96875 64.796875 32.078125 64.796875 
z
M 9.8125 72.90625 
L 32.078125 72.90625 
Q 44.34375 72.90625 50.609375 67.359375 
Q 56.890625 61.8125 56.890625 51.125 
Q 56.890625 40.328125 50.609375 34.8125 
Q 44.34375 29.296875 32.078125 29.296875 
L 19.671875 29.296875 
L 19.671875 0 
L 9.8125 0 
z
" id="DejaVuSans-80"/>
      <path d="M 9.078125 75.984375 
L 18.109375 75.984375 
L 18.109375 31.109375 
L 44.921875 54.6875 
L 56.390625 54.6875 
L 27.390625 29.109375 
L 57.625 0 
L 45.90625 0 
L 18.109375 26.703125 
L 18.109375 0 
L 9.078125 0 
z
" id="DejaVuSans-107"/>
      <path d="M 9.8125 72.90625 
L 19.671875 72.90625 
L 19.671875 43.015625 
L 55.515625 43.015625 
L 55.515625 72.90625 
L 65.375 72.90625 
L 65.375 0 
L 55.515625 0 
L 55.515625 34.71875 
L 19.671875 34.71875 
L 19.671875 0 
L 9.8125 0 
z
" id="DejaVuSans-72"/>
      <path d="M 54.890625 33.015625 
L 54.890625 0 
L 45.90625 0 
L 45.90625 32.71875 
Q 45.90625 40.484375 42.875 44.328125 
Q 39.84375 48.1875 33.796875 48.1875 
Q 26.515625 48.1875 22.3125 43.546875 
Q 18.109375 38.921875 18.109375 30.90625 
L 18.109375 0 
L 9.078125 0 
L 9.078125 75.984375 
L 18.109375 75.984375 
L 18.109375 46.1875 
Q 21.34375 51.125 25.703125 53.5625 
Q 30.078125 56 35.796875 56 
Q 45.21875 56 50.046875 50.171875 
Q 54.890625 44.34375 54.890625 33.015625 
z
" id="DejaVuSans-104"/>
     </defs>
     <use xlink:href="#DejaVuSans-80"/>
     <use x="56.677734" xlink:href="#DejaVuSans-101"/>
     <use x="118.201172" xlink:href="#DejaVuSans-97"/>
     <use x="179.480469" xlink:href="#DejaVuSans-107"/>
     <use x="237.390625" xlink:href="#DejaVuSans-32"/>
     <use x="269.177734" xlink:href="#DejaVuSans-72"/>
     <use x="344.373047" xlink:href="#DejaVuSans-101"/>
     <use x="405.896484" xlink:href="#DejaVuSans-105"/>
     <use x="433.679688" xlink:href="#DejaVuSans-103"/>
     <use x="497.15625" xlink:href="#DejaVuSans-104"/>
     <use x="560.535156" xlink:href="#DejaVuSans-116"/>
    </g>
   </g>
   <g id="line2d_114">
    <path d="M 1414.436875 175.202187 
L 1458.436875 175.202187 
" style="fill:none;stroke:#dd8452;stroke-linecap:round;stroke-width:5;"/>
   </g>
   <g id="line2d_115"/>
   <g id="text_28">
    <!-- Response Size -->
    <g style="fill:#262626;" transform="translate(1476.036875 182.902187)scale(0.22 -0.22)">
     <defs>
      <path d="M 44.390625 34.1875 
Q 47.5625 33.109375 50.5625 29.59375 
Q 53.5625 26.078125 56.59375 19.921875 
L 66.609375 0 
L 56 0 
L 46.6875 18.703125 
Q 43.0625 26.03125 39.671875 28.421875 
Q 36.28125 30.8125 30.421875 30.8125 
L 19.671875 30.8125 
L 19.671875 0 
L 9.8125 0 
L 9.8125 72.90625 
L 32.078125 72.90625 
Q 44.578125 72.90625 50.734375 67.671875 
Q 56.890625 62.453125 56.890625 51.90625 
Q 56.890625 45.015625 53.6875 40.46875 
Q 50.484375 35.9375 44.390625 34.1875 
z
M 19.671875 64.796875 
L 19.671875 38.921875 
L 32.078125 38.921875 
Q 39.203125 38.921875 42.84375 42.21875 
Q 46.484375 45.515625 46.484375 51.90625 
Q 46.484375 58.296875 42.84375 61.546875 
Q 39.203125 64.796875 32.078125 64.796875 
z
" id="DejaVuSans-82"/>
      <path d="M 53.515625 70.515625 
L 53.515625 60.890625 
Q 47.90625 63.578125 42.921875 64.890625 
Q 37.9375 66.21875 33.296875 66.21875 
Q 25.25 66.21875 20.875 63.09375 
Q 16.5 59.96875 16.5 54.203125 
Q 16.5 49.359375 19.40625 46.890625 
Q 22.3125 44.4375 30.421875 42.921875 
L 36.375 41.703125 
Q 47.40625 39.59375 52.65625 34.296875 
Q 57.90625 29 57.90625 20.125 
Q 57.90625 9.515625 50.796875 4.046875 
Q 43.703125 -1.421875 29.984375 -1.421875 
Q 24.8125 -1.421875 18.96875 -0.25 
Q 13.140625 0.921875 6.890625 3.21875 
L 6.890625 13.375 
Q 12.890625 10.015625 18.65625 8.296875 
Q 24.421875 6.59375 29.984375 6.59375 
Q 38.421875 6.59375 43.015625 9.90625 
Q 47.609375 13.234375 47.609375 19.390625 
Q 47.609375 24.75 44.3125 27.78125 
Q 41.015625 30.8125 33.5 32.328125 
L 27.484375 33.5 
Q 16.453125 35.6875 11.515625 40.375 
Q 6.59375 45.0625 6.59375 53.421875 
Q 6.59375 63.09375 13.40625 68.65625 
Q 20.21875 74.21875 32.171875 74.21875 
Q 37.3125 74.21875 42.625 73.28125 
Q 47.953125 72.359375 53.515625 70.515625 
z
" id="DejaVuSans-83"/>
     </defs>
     <use xlink:href="#DejaVuSans-82"/>
     <use x="64.982422" xlink:href="#DejaVuSans-101"/>
     <use x="126.505859" xlink:href="#DejaVuSans-115"/>
     <use x="178.605469" xlink:href="#DejaVuSans-112"/>
     <use x="242.082031" xlink:href="#DejaVuSans-111"/>
     <use x="303.263672" xlink:href="#DejaVuSans-110"/>
     <use x="366.642578" xlink:href="#DejaVuSans-115"/>
     <use x="418.742188" xlink:href="#DejaVuSans-101"/>
     <use x="480.265625" xlink:href="#DejaVuSans-32"/>
     <use x="512.052734" xlink:href="#DejaVuSans-83"/>
     <use x="575.529297" xlink:href="#DejaVuSans-105"/>
     <use x="603.3125" xlink:href="#DejaVuSans-122"/>
     <use x="655.802734" xlink:href="#DejaVuSans-101"/>
    </g>
   </g>
   <g id="line2d_116">
    <path d="M 1414.436875 207.494062 
L 1458.436875 207.494062 
" style="fill:none;stroke:#55a868;stroke-linecap:round;stroke-width:5;"/>
   </g>
   <g id="line2d_117"/>
   <g id="text_29">
    <!-- Peak Time -->
    <g style="fill:#262626;" transform="translate(1476.036875 215.194062)scale(0.22 -0.22)">
     <use xlink:href="#DejaVuSans-80"/>
     <use x="56.677734" xlink:href="#DejaVuSans-101"/>
     <use x="118.201172" xlink:href="#DejaVuSans-97"/>
     <use x="179.480469" xlink:href="#DejaVuSans-107"/>
     <use x="237.390625" xlink:href="#DejaVuSans-32"/>
     <use x="269.177734" xlink:href="#DejaVuSans-84"/>
     <use x="327.136719" xlink:href="#DejaVuSans-105"/>
     <use x="354.919922" xlink:href="#DejaVuSans-109"/>
     <use x="452.332031" xlink:href="#DejaVuSans-101"/>
    </g>
   </g>
  </g>
 </g>
 <defs>
  <clipPath id="p6fbdd76771">
   <rect height="216.78" width="330.858472" x="77.9225" y="31.43625"/>
  </clipPath>
  <clipPath id="p3c5413270a">
   <rect height="216.78" width="330.858472" x="479.170086" y="31.43625"/>
  </clipPath>
  <clipPath id="pbeef69200e">
   <rect height="216.78" width="330.858472" x="880.417672" y="31.43625"/>
  </clipPath>
  <clipPath id="p7a6b21cdc4">
   <rect height="216.78" width="330.858472" x="1281.665258" y="31.43625"/>
  </clipPath>
 </defs>
</svg>
