<?xml version="1.0" encoding="utf-8" standalone="no"?>
<!DOCTYPE svg PUBLIC "-//W3C//DTD SVG 1.1//EN"
  "http://www.w3.org/Graphics/SVG/1.1/DTD/svg11.dtd">
<!-- Created with matplotlib (https://matplotlib.org/) -->
<svg height="319.997656pt" version="1.1" viewBox="0 0 1653.680313 319.997656" width="1653.680313pt" xmlns="http://www.w3.org/2000/svg" xmlns:xlink="http://www.w3.org/1999/xlink">
 <metadata>
  <rdf:RDF xmlns:cc="http://creativecommons.org/ns#" xmlns:dc="http://purl.org/dc/elements/1.1/" xmlns:rdf="http://www.w3.org/1999/02/22-rdf-syntax-ns#">
   <cc:Work>
    <dc:type rdf:resource="http://purl.org/dc/dcmitype/StillImage"/>
    <dc:date>2021-12-09T14:33:07.063878</dc:date>
    <dc:format>image/svg+xml</dc:format>
    <dc:creator>
     <cc:Agent>
      <dc:title>Matplotlib v3.3.2, https://matplotlib.org/</dc:title>
     </cc:Agent>
    </dc:creator>
   </cc:Work>
  </rdf:RDF>
 </metadata>
 <defs>
  <style type="text/css">*{stroke-linecap:butt;stroke-linejoin:round;}</style>
 </defs>
 <g id="figure_1">
  <g id="patch_1">
   <path d="M 0 319.997656 
L 1653.680313 319.997656 
L 1653.680313 0 
L 0 0 
z
" style="fill:#ffffff;"/>
  </g>
  <g id="axes_1">
   <g id="patch_2">
    <path d="M 82.360313 248.778281 
L 412.161284 248.778281 
L 412.161284 15.558281 
L 82.360313 15.558281 
z
" style="fill:#ffffff;"/>
   </g>
   <g id="matplotlib.axis_1">
    <g id="xtick_1">
     <g id="line2d_1">
      <defs>
       <path d="M 0 0 
L 0 12 
" id="me64029e29e" style="stroke:#262626;stroke-width:2.5;"/>
      </defs>
      <g>
       <use style="fill:#262626;stroke:#262626;stroke-width:2.5;" x="82.360313" xlink:href="#me64029e29e" y="248.778281"/>
      </g>
     </g>
     <g id="text_1">
      <!-- $\mathdefault{10^{-1}}$ -->
      <g style="fill:#262626;" transform="translate(56.510313 280.994844)scale(0.22 -0.22)">
       <defs>
        <path d="M 12.40625 8.296875 
L 28.515625 8.296875 
L 28.515625 63.921875 
L 10.984375 60.40625 
L 10.984375 69.390625 
L 28.421875 72.90625 
L 38.28125 72.90625 
L 38.28125 8.296875 
L 54.390625 8.296875 
L 54.390625 0 
L 12.40625 0 
z
" id="DejaVuSans-49"/>
        <path d="M 31.78125 66.40625 
Q 24.171875 66.40625 20.328125 58.90625 
Q 16.5 51.421875 16.5 36.375 
Q 16.5 21.390625 20.328125 13.890625 
Q 24.171875 6.390625 31.78125 6.390625 
Q 39.453125 6.390625 43.28125 13.890625 
Q 47.125 21.390625 47.125 36.375 
Q 47.125 51.421875 43.28125 58.90625 
Q 39.453125 66.40625 31.78125 66.40625 
z
M 31.78125 74.21875 
Q 44.046875 74.21875 50.515625 64.515625 
Q 56.984375 54.828125 56.984375 36.375 
Q 56.984375 17.96875 50.515625 8.265625 
Q 44.046875 -1.421875 31.78125 -1.421875 
Q 19.53125 -1.421875 13.0625 8.265625 
Q 6.59375 17.96875 6.59375 36.375 
Q 6.59375 54.828125 13.0625 64.515625 
Q 19.53125 74.21875 31.78125 74.21875 
z
" id="DejaVuSans-48"/>
        <path d="M 10.59375 35.5 
L 73.1875 35.5 
L 73.1875 27.203125 
L 10.59375 27.203125 
z
" id="DejaVuSans-8722"/>
       </defs>
       <use transform="translate(0 0.684375)" xlink:href="#DejaVuSans-49"/>
       <use transform="translate(63.623047 0.684375)" xlink:href="#DejaVuSans-48"/>
       <use transform="translate(128.203125 38.965625)scale(0.7)" xlink:href="#DejaVuSans-8722"/>
       <use transform="translate(186.855469 38.965625)scale(0.7)" xlink:href="#DejaVuSans-49"/>
      </g>
     </g>
    </g>
    <g id="xtick_2">
     <g id="line2d_2">
      <g>
       <use style="fill:#262626;stroke:#262626;stroke-width:2.5;" x="192.29397" xlink:href="#me64029e29e" y="248.778281"/>
      </g>
     </g>
     <g id="text_2">
      <!-- $\mathdefault{10^{0}}$ -->
      <g style="fill:#262626;" transform="translate(172.93397 280.994844)scale(0.22 -0.22)">
       <use transform="translate(0 0.765625)" xlink:href="#DejaVuSans-49"/>
       <use transform="translate(63.623047 0.765625)" xlink:href="#DejaVuSans-48"/>
       <use transform="translate(128.203125 39.046875)scale(0.7)" xlink:href="#DejaVuSans-48"/>
      </g>
     </g>
    </g>
    <g id="xtick_3">
     <g id="line2d_3">
      <g>
       <use style="fill:#262626;stroke:#262626;stroke-width:2.5;" x="302.227627" xlink:href="#me64029e29e" y="248.778281"/>
      </g>
     </g>
     <g id="text_3">
      <!-- $\mathdefault{10^{1}}$ -->
      <g style="fill:#262626;" transform="translate(282.867627 280.994844)scale(0.22 -0.22)">
       <use transform="translate(0 0.684375)" xlink:href="#DejaVuSans-49"/>
       <use transform="translate(63.623047 0.684375)" xlink:href="#DejaVuSans-48"/>
       <use transform="translate(128.203125 38.965625)scale(0.7)" xlink:href="#DejaVuSans-49"/>
      </g>
     </g>
    </g>
    <g id="xtick_4">
     <g id="line2d_4">
      <g>
       <use style="fill:#262626;stroke:#262626;stroke-width:2.5;" x="412.161284" xlink:href="#me64029e29e" y="248.778281"/>
      </g>
     </g>
     <g id="text_4">
      <!-- $\mathdefault{10^{2}}$ -->
      <g style="fill:#262626;" transform="translate(392.801284 280.994844)scale(0.22 -0.22)">
       <defs>
        <path d="M 19.1875 8.296875 
L 53.609375 8.296875 
L 53.609375 0 
L 7.328125 0 
L 7.328125 8.296875 
Q 12.9375 14.109375 22.625 23.890625 
Q 32.328125 33.6875 34.8125 36.53125 
Q 39.546875 41.84375 41.421875 45.53125 
Q 43.3125 49.21875 43.3125 52.78125 
Q 43.3125 58.59375 39.234375 62.25 
Q 35.15625 65.921875 28.609375 65.921875 
Q 23.96875 65.921875 18.8125 64.3125 
Q 13.671875 62.703125 7.8125 59.421875 
L 7.8125 69.390625 
Q 13.765625 71.78125 18.9375 73 
Q 24.125 74.21875 28.421875 74.21875 
Q 39.75 74.21875 46.484375 68.546875 
Q 53.21875 62.890625 53.21875 53.421875 
Q 53.21875 48.921875 51.53125 44.890625 
Q 49.859375 40.875 45.40625 35.40625 
Q 44.1875 33.984375 37.640625 27.21875 
Q 31.109375 20.453125 19.1875 8.296875 
z
" id="DejaVuSans-50"/>
       </defs>
       <use transform="translate(0 0.765625)" xlink:href="#DejaVuSans-49"/>
       <use transform="translate(63.623047 0.765625)" xlink:href="#DejaVuSans-48"/>
       <use transform="translate(128.203125 39.046875)scale(0.7)" xlink:href="#DejaVuSans-50"/>
      </g>
     </g>
    </g>
    <g id="xtick_5">
     <g id="line2d_5">
      <defs>
       <path d="M 0 0 
L 0 8 
" id="mdd7c69b1bd" style="stroke:#262626;stroke-width:2;"/>
      </defs>
      <g>
       <use style="fill:#262626;stroke:#262626;stroke-width:2;" x="115.453641" xlink:href="#mdd7c69b1bd" y="248.778281"/>
      </g>
     </g>
    </g>
    <g id="xtick_6">
     <g id="line2d_6">
      <g>
       <use style="fill:#262626;stroke:#262626;stroke-width:2;" x="134.811997" xlink:href="#mdd7c69b1bd" y="248.778281"/>
      </g>
     </g>
    </g>
    <g id="xtick_7">
     <g id="line2d_7">
      <g>
       <use style="fill:#262626;stroke:#262626;stroke-width:2;" x="148.546969" xlink:href="#mdd7c69b1bd" y="248.778281"/>
      </g>
     </g>
    </g>
    <g id="xtick_8">
     <g id="line2d_8">
      <g>
       <use style="fill:#262626;stroke:#262626;stroke-width:2;" x="159.200641" xlink:href="#mdd7c69b1bd" y="248.778281"/>
      </g>
     </g>
    </g>
    <g id="xtick_9">
     <g id="line2d_9">
      <g>
       <use style="fill:#262626;stroke:#262626;stroke-width:2;" x="167.905325" xlink:href="#mdd7c69b1bd" y="248.778281"/>
      </g>
     </g>
    </g>
    <g id="xtick_10">
     <g id="line2d_10">
      <g>
       <use style="fill:#262626;stroke:#262626;stroke-width:2;" x="175.265031" xlink:href="#mdd7c69b1bd" y="248.778281"/>
      </g>
     </g>
    </g>
    <g id="xtick_11">
     <g id="line2d_11">
      <g>
       <use style="fill:#262626;stroke:#262626;stroke-width:2;" x="181.640298" xlink:href="#mdd7c69b1bd" y="248.778281"/>
      </g>
     </g>
    </g>
    <g id="xtick_12">
     <g id="line2d_12">
      <g>
       <use style="fill:#262626;stroke:#262626;stroke-width:2;" x="187.263681" xlink:href="#mdd7c69b1bd" y="248.778281"/>
      </g>
     </g>
    </g>
    <g id="xtick_13">
     <g id="line2d_13">
      <g>
       <use style="fill:#262626;stroke:#262626;stroke-width:2;" x="225.387298" xlink:href="#mdd7c69b1bd" y="248.778281"/>
      </g>
     </g>
    </g>
    <g id="xtick_14">
     <g id="line2d_14">
      <g>
       <use style="fill:#262626;stroke:#262626;stroke-width:2;" x="244.745654" xlink:href="#mdd7c69b1bd" y="248.778281"/>
      </g>
     </g>
    </g>
    <g id="xtick_15">
     <g id="line2d_15">
      <g>
       <use style="fill:#262626;stroke:#262626;stroke-width:2;" x="258.480626" xlink:href="#mdd7c69b1bd" y="248.778281"/>
      </g>
     </g>
    </g>
    <g id="xtick_16">
     <g id="line2d_16">
      <g>
       <use style="fill:#262626;stroke:#262626;stroke-width:2;" x="269.134299" xlink:href="#mdd7c69b1bd" y="248.778281"/>
      </g>
     </g>
    </g>
    <g id="xtick_17">
     <g id="line2d_17">
      <g>
       <use style="fill:#262626;stroke:#262626;stroke-width:2;" x="277.838983" xlink:href="#mdd7c69b1bd" y="248.778281"/>
      </g>
     </g>
    </g>
    <g id="xtick_18">
     <g id="line2d_18">
      <g>
       <use style="fill:#262626;stroke:#262626;stroke-width:2;" x="285.198688" xlink:href="#mdd7c69b1bd" y="248.778281"/>
      </g>
     </g>
    </g>
    <g id="xtick_19">
     <g id="line2d_19">
      <g>
       <use style="fill:#262626;stroke:#262626;stroke-width:2;" x="291.573955" xlink:href="#mdd7c69b1bd" y="248.778281"/>
      </g>
     </g>
    </g>
    <g id="xtick_20">
     <g id="line2d_20">
      <g>
       <use style="fill:#262626;stroke:#262626;stroke-width:2;" x="297.197339" xlink:href="#mdd7c69b1bd" y="248.778281"/>
      </g>
     </g>
    </g>
    <g id="xtick_21">
     <g id="line2d_21">
      <g>
       <use style="fill:#262626;stroke:#262626;stroke-width:2;" x="335.320955" xlink:href="#mdd7c69b1bd" y="248.778281"/>
      </g>
     </g>
    </g>
    <g id="xtick_22">
     <g id="line2d_22">
      <g>
       <use style="fill:#262626;stroke:#262626;stroke-width:2;" x="354.679311" xlink:href="#mdd7c69b1bd" y="248.778281"/>
      </g>
     </g>
    </g>
    <g id="xtick_23">
     <g id="line2d_23">
      <g>
       <use style="fill:#262626;stroke:#262626;stroke-width:2;" x="368.414284" xlink:href="#mdd7c69b1bd" y="248.778281"/>
      </g>
     </g>
    </g>
    <g id="xtick_24">
     <g id="line2d_24">
      <g>
       <use style="fill:#262626;stroke:#262626;stroke-width:2;" x="379.067956" xlink:href="#mdd7c69b1bd" y="248.778281"/>
      </g>
     </g>
    </g>
    <g id="xtick_25">
     <g id="line2d_25">
      <g>
       <use style="fill:#262626;stroke:#262626;stroke-width:2;" x="387.77264" xlink:href="#mdd7c69b1bd" y="248.778281"/>
      </g>
     </g>
    </g>
    <g id="xtick_26">
     <g id="line2d_26">
      <g>
       <use style="fill:#262626;stroke:#262626;stroke-width:2;" x="395.132345" xlink:href="#mdd7c69b1bd" y="248.778281"/>
      </g>
     </g>
    </g>
    <g id="xtick_27">
     <g id="line2d_27">
      <g>
       <use style="fill:#262626;stroke:#262626;stroke-width:2;" x="401.507612" xlink:href="#mdd7c69b1bd" y="248.778281"/>
      </g>
     </g>
    </g>
    <g id="xtick_28">
     <g id="line2d_28">
      <g>
       <use style="fill:#262626;stroke:#262626;stroke-width:2;" x="407.130996" xlink:href="#mdd7c69b1bd" y="248.778281"/>
      </g>
     </g>
    </g>
    <g id="text_5">
     <!-- prolif. effectors -->
     <g style="fill:#262626;" transform="translate(156.942048 307.806406)scale(0.24 -0.24)">
      <defs>
       <path d="M 18.109375 8.203125 
L 18.109375 -20.796875 
L 9.078125 -20.796875 
L 9.078125 54.6875 
L 18.109375 54.6875 
L 18.109375 46.390625 
Q 20.953125 51.265625 25.265625 53.625 
Q 29.59375 56 35.59375 56 
Q 45.5625 56 51.78125 48.09375 
Q 58.015625 40.1875 58.015625 27.296875 
Q 58.015625 14.40625 51.78125 6.484375 
Q 45.5625 -1.421875 35.59375 -1.421875 
Q 29.59375 -1.421875 25.265625 0.953125 
Q 20.953125 3.328125 18.109375 8.203125 
z
M 48.6875 27.296875 
Q 48.6875 37.203125 44.609375 42.84375 
Q 40.53125 48.484375 33.40625 48.484375 
Q 26.265625 48.484375 22.1875 42.84375 
Q 18.109375 37.203125 18.109375 27.296875 
Q 18.109375 17.390625 22.1875 11.75 
Q 26.265625 6.109375 33.40625 6.109375 
Q 40.53125 6.109375 44.609375 11.75 
Q 48.6875 17.390625 48.6875 27.296875 
z
" id="DejaVuSans-112"/>
       <path d="M 41.109375 46.296875 
Q 39.59375 47.171875 37.8125 47.578125 
Q 36.03125 48 33.890625 48 
Q 26.265625 48 22.1875 43.046875 
Q 18.109375 38.09375 18.109375 28.8125 
L 18.109375 0 
L 9.078125 0 
L 9.078125 54.6875 
L 18.109375 54.6875 
L 18.109375 46.1875 
Q 20.953125 51.171875 25.484375 53.578125 
Q 30.03125 56 36.53125 56 
Q 37.453125 56 38.578125 55.875 
Q 39.703125 55.765625 41.0625 55.515625 
z
" id="DejaVuSans-114"/>
       <path d="M 30.609375 48.390625 
Q 23.390625 48.390625 19.1875 42.75 
Q 14.984375 37.109375 14.984375 27.296875 
Q 14.984375 17.484375 19.15625 11.84375 
Q 23.34375 6.203125 30.609375 6.203125 
Q 37.796875 6.203125 41.984375 11.859375 
Q 46.1875 17.53125 46.1875 27.296875 
Q 46.1875 37.015625 41.984375 42.703125 
Q 37.796875 48.390625 30.609375 48.390625 
z
M 30.609375 56 
Q 42.328125 56 49.015625 48.375 
Q 55.71875 40.765625 55.71875 27.296875 
Q 55.71875 13.875 49.015625 6.21875 
Q 42.328125 -1.421875 30.609375 -1.421875 
Q 18.84375 -1.421875 12.171875 6.21875 
Q 5.515625 13.875 5.515625 27.296875 
Q 5.515625 40.765625 12.171875 48.375 
Q 18.84375 56 30.609375 56 
z
" id="DejaVuSans-111"/>
       <path d="M 9.421875 75.984375 
L 18.40625 75.984375 
L 18.40625 0 
L 9.421875 0 
z
" id="DejaVuSans-108"/>
       <path d="M 9.421875 54.6875 
L 18.40625 54.6875 
L 18.40625 0 
L 9.421875 0 
z
M 9.421875 75.984375 
L 18.40625 75.984375 
L 18.40625 64.59375 
L 9.421875 64.59375 
z
" id="DejaVuSans-105"/>
       <path d="M 37.109375 75.984375 
L 37.109375 68.5 
L 28.515625 68.5 
Q 23.6875 68.5 21.796875 66.546875 
Q 19.921875 64.59375 19.921875 59.515625 
L 19.921875 54.6875 
L 34.71875 54.6875 
L 34.71875 47.703125 
L 19.921875 47.703125 
L 19.921875 0 
L 10.890625 0 
L 10.890625 47.703125 
L 2.296875 47.703125 
L 2.296875 54.6875 
L 10.890625 54.6875 
L 10.890625 58.5 
Q 10.890625 67.625 15.140625 71.796875 
Q 19.390625 75.984375 28.609375 75.984375 
z
" id="DejaVuSans-102"/>
       <path d="M 10.6875 12.40625 
L 21 12.40625 
L 21 0 
L 10.6875 0 
z
" id="DejaVuSans-46"/>
       <path id="DejaVuSans-32"/>
       <path d="M 56.203125 29.59375 
L 56.203125 25.203125 
L 14.890625 25.203125 
Q 15.484375 15.921875 20.484375 11.0625 
Q 25.484375 6.203125 34.421875 6.203125 
Q 39.59375 6.203125 44.453125 7.46875 
Q 49.3125 8.734375 54.109375 11.28125 
L 54.109375 2.78125 
Q 49.265625 0.734375 44.1875 -0.34375 
Q 39.109375 -1.421875 33.890625 -1.421875 
Q 20.796875 -1.421875 13.15625 6.1875 
Q 5.515625 13.8125 5.515625 26.8125 
Q 5.515625 40.234375 12.765625 48.109375 
Q 20.015625 56 32.328125 56 
Q 43.359375 56 49.78125 48.890625 
Q 56.203125 41.796875 56.203125 29.59375 
z
M 47.21875 32.234375 
Q 47.125 39.59375 43.09375 43.984375 
Q 39.0625 48.390625 32.421875 48.390625 
Q 24.90625 48.390625 20.390625 44.140625 
Q 15.875 39.890625 15.1875 32.171875 
z
" id="DejaVuSans-101"/>
       <path d="M 48.78125 52.59375 
L 48.78125 44.1875 
Q 44.96875 46.296875 41.140625 47.34375 
Q 37.3125 48.390625 33.40625 48.390625 
Q 24.65625 48.390625 19.8125 42.84375 
Q 14.984375 37.3125 14.984375 27.296875 
Q 14.984375 17.28125 19.8125 11.734375 
Q 24.65625 6.203125 33.40625 6.203125 
Q 37.3125 6.203125 41.140625 7.25 
Q 44.96875 8.296875 48.78125 10.40625 
L 48.78125 2.09375 
Q 45.015625 0.34375 40.984375 -0.53125 
Q 36.96875 -1.421875 32.421875 -1.421875 
Q 20.0625 -1.421875 12.78125 6.34375 
Q 5.515625 14.109375 5.515625 27.296875 
Q 5.515625 40.671875 12.859375 48.328125 
Q 20.21875 56 33.015625 56 
Q 37.15625 56 41.109375 55.140625 
Q 45.0625 54.296875 48.78125 52.59375 
z
" id="DejaVuSans-99"/>
       <path d="M 18.3125 70.21875 
L 18.3125 54.6875 
L 36.8125 54.6875 
L 36.8125 47.703125 
L 18.3125 47.703125 
L 18.3125 18.015625 
Q 18.3125 11.328125 20.140625 9.421875 
Q 21.96875 7.515625 27.59375 7.515625 
L 36.8125 7.515625 
L 36.8125 0 
L 27.59375 0 
Q 17.1875 0 13.234375 3.875 
Q 9.28125 7.765625 9.28125 18.015625 
L 9.28125 47.703125 
L 2.6875 47.703125 
L 2.6875 54.6875 
L 9.28125 54.6875 
L 9.28125 70.21875 
z
" id="DejaVuSans-116"/>
       <path d="M 44.28125 53.078125 
L 44.28125 44.578125 
Q 40.484375 46.53125 36.375 47.5 
Q 32.28125 48.484375 27.875 48.484375 
Q 21.1875 48.484375 17.84375 46.4375 
Q 14.5 44.390625 14.5 40.28125 
Q 14.5 37.15625 16.890625 35.375 
Q 19.28125 33.59375 26.515625 31.984375 
L 29.59375 31.296875 
Q 39.15625 29.25 43.1875 25.515625 
Q 47.21875 21.78125 47.21875 15.09375 
Q 47.21875 7.46875 41.1875 3.015625 
Q 35.15625 -1.421875 24.609375 -1.421875 
Q 20.21875 -1.421875 15.453125 -0.5625 
Q 10.6875 0.296875 5.421875 2 
L 5.421875 11.28125 
Q 10.40625 8.6875 15.234375 7.390625 
Q 20.0625 6.109375 24.8125 6.109375 
Q 31.15625 6.109375 34.5625 8.28125 
Q 37.984375 10.453125 37.984375 14.40625 
Q 37.984375 18.0625 35.515625 20.015625 
Q 33.0625 21.96875 24.703125 23.78125 
L 21.578125 24.515625 
Q 13.234375 26.265625 9.515625 29.90625 
Q 5.8125 33.546875 5.8125 39.890625 
Q 5.8125 47.609375 11.28125 51.796875 
Q 16.75 56 26.8125 56 
Q 31.78125 56 36.171875 55.265625 
Q 40.578125 54.546875 44.28125 53.078125 
z
" id="DejaVuSans-115"/>
      </defs>
      <use xlink:href="#DejaVuSans-112"/>
      <use x="63.476562" xlink:href="#DejaVuSans-114"/>
      <use x="102.339844" xlink:href="#DejaVuSans-111"/>
      <use x="163.521484" xlink:href="#DejaVuSans-108"/>
      <use x="191.304688" xlink:href="#DejaVuSans-105"/>
      <use x="219.087891" xlink:href="#DejaVuSans-102"/>
      <use x="247.042969" xlink:href="#DejaVuSans-46"/>
      <use x="278.830078" xlink:href="#DejaVuSans-32"/>
      <use x="310.617188" xlink:href="#DejaVuSans-101"/>
      <use x="372.140625" xlink:href="#DejaVuSans-102"/>
      <use x="407.345703" xlink:href="#DejaVuSans-102"/>
      <use x="442.550781" xlink:href="#DejaVuSans-101"/>
      <use x="504.074219" xlink:href="#DejaVuSans-99"/>
      <use x="559.054688" xlink:href="#DejaVuSans-116"/>
      <use x="598.263672" xlink:href="#DejaVuSans-111"/>
      <use x="659.445312" xlink:href="#DejaVuSans-114"/>
      <use x="700.558594" xlink:href="#DejaVuSans-115"/>
     </g>
    </g>
   </g>
   <g id="matplotlib.axis_2">
    <g id="ytick_1">
     <g id="line2d_29">
      <defs>
       <path d="M 0 0 
L -12 0 
" id="m806371058e" style="stroke:#262626;stroke-width:2.5;"/>
      </defs>
      <g>
       <use style="fill:#262626;stroke:#262626;stroke-width:2.5;" x="82.360313" xlink:href="#m806371058e" y="248.778281"/>
      </g>
     </g>
     <g id="text_6">
      <!-- −5 -->
      <g style="fill:#262626;" transform="translate(34.4275 257.136562)scale(0.22 -0.22)">
       <defs>
        <path d="M 10.796875 72.90625 
L 49.515625 72.90625 
L 49.515625 64.59375 
L 19.828125 64.59375 
L 19.828125 46.734375 
Q 21.96875 47.46875 24.109375 47.828125 
Q 26.265625 48.1875 28.421875 48.1875 
Q 40.625 48.1875 47.75 41.5 
Q 54.890625 34.8125 54.890625 23.390625 
Q 54.890625 11.625 47.5625 5.09375 
Q 40.234375 -1.421875 26.90625 -1.421875 
Q 22.3125 -1.421875 17.546875 -0.640625 
Q 12.796875 0.140625 7.71875 1.703125 
L 7.71875 11.625 
Q 12.109375 9.234375 16.796875 8.0625 
Q 21.484375 6.890625 26.703125 6.890625 
Q 35.15625 6.890625 40.078125 11.328125 
Q 45.015625 15.765625 45.015625 23.390625 
Q 45.015625 31 40.078125 35.4375 
Q 35.15625 39.890625 26.703125 39.890625 
Q 22.75 39.890625 18.8125 39.015625 
Q 14.890625 38.140625 10.796875 36.28125 
z
" id="DejaVuSans-53"/>
       </defs>
       <use xlink:href="#DejaVuSans-8722"/>
       <use x="83.789062" xlink:href="#DejaVuSans-53"/>
      </g>
     </g>
    </g>
    <g id="ytick_2">
     <g id="line2d_30">
      <g>
       <use style="fill:#262626;stroke:#262626;stroke-width:2.5;" x="82.360313" xlink:href="#m806371058e" y="190.473281"/>
      </g>
     </g>
     <g id="text_7">
      <!-- 0 -->
      <g style="fill:#262626;" transform="translate(52.862813 198.831562)scale(0.22 -0.22)">
       <use xlink:href="#DejaVuSans-48"/>
      </g>
     </g>
    </g>
    <g id="ytick_3">
     <g id="line2d_31">
      <g>
       <use style="fill:#262626;stroke:#262626;stroke-width:2.5;" x="82.360313" xlink:href="#m806371058e" y="132.168281"/>
      </g>
     </g>
     <g id="text_8">
      <!-- 5 -->
      <g style="fill:#262626;" transform="translate(52.862813 140.526562)scale(0.22 -0.22)">
       <use xlink:href="#DejaVuSans-53"/>
      </g>
     </g>
    </g>
    <g id="ytick_4">
     <g id="line2d_32">
      <g>
       <use style="fill:#262626;stroke:#262626;stroke-width:2.5;" x="82.360313" xlink:href="#m806371058e" y="73.863281"/>
      </g>
     </g>
     <g id="text_9">
      <!-- 10 -->
      <g style="fill:#262626;" transform="translate(38.865313 82.221562)scale(0.22 -0.22)">
       <use xlink:href="#DejaVuSans-49"/>
       <use x="63.623047" xlink:href="#DejaVuSans-48"/>
      </g>
     </g>
    </g>
    <g id="ytick_5">
     <g id="line2d_33">
      <g>
       <use style="fill:#262626;stroke:#262626;stroke-width:2.5;" x="82.360313" xlink:href="#m806371058e" y="15.558281"/>
      </g>
     </g>
     <g id="text_10">
      <!-- 15 -->
      <g style="fill:#262626;" transform="translate(38.865313 23.916562)scale(0.22 -0.22)">
       <use xlink:href="#DejaVuSans-49"/>
       <use x="63.623047" xlink:href="#DejaVuSans-53"/>
      </g>
     </g>
    </g>
    <g id="text_11">
     <!-- effect size -->
     <g style="fill:#262626;" transform="translate(25.43625 193.767656)rotate(-90)scale(0.24 -0.24)">
      <defs>
       <path d="M 5.515625 54.6875 
L 48.1875 54.6875 
L 48.1875 46.484375 
L 14.40625 7.171875 
L 48.1875 7.171875 
L 48.1875 0 
L 4.296875 0 
L 4.296875 8.203125 
L 38.09375 47.515625 
L 5.515625 47.515625 
z
" id="DejaVuSans-122"/>
      </defs>
      <use xlink:href="#DejaVuSans-101"/>
      <use x="61.523438" xlink:href="#DejaVuSans-102"/>
      <use x="96.728516" xlink:href="#DejaVuSans-102"/>
      <use x="131.933594" xlink:href="#DejaVuSans-101"/>
      <use x="193.457031" xlink:href="#DejaVuSans-99"/>
      <use x="248.4375" xlink:href="#DejaVuSans-116"/>
      <use x="287.646484" xlink:href="#DejaVuSans-32"/>
      <use x="319.433594" xlink:href="#DejaVuSans-115"/>
      <use x="371.533203" xlink:href="#DejaVuSans-105"/>
      <use x="399.316406" xlink:href="#DejaVuSans-122"/>
      <use x="451.806641" xlink:href="#DejaVuSans-101"/>
     </g>
    </g>
   </g>
   <g id="line2d_34">
    <path clip-path="url(#p2c5137750a)" d="M 82.360313 190.473281 
L 89.090945 190.473281 
L 95.821577 190.473281 
L 102.552209 190.47328 
L 109.282841 190.473275 
L 116.013473 190.473262 
L 122.744105 190.473218 
L 129.474737 190.473081 
L 136.205369 190.472674 
L 142.936001 190.471511 
L 149.666633 190.468348 
L 156.397265 190.460194 
L 163.127897 190.440309 
L 169.858529 190.3945 
L 176.589162 190.294533 
L 183.319794 190.086463 
L 190.050426 189.668549 
L 196.781058 188.855818 
L 200.998654 188.055901 
L 201.814803 187.87471 
L 202.617235 187.688201 
L 203.406403 187.496278 
L 203.51169 187.469999 
L 204.182739 187.298515 
L 204.946652 187.094051 
L 205.698535 186.881361 
L 206.438761 186.65769 
L 207.167684 186.417233 
L 207.885647 186.139232 
" style="fill:none;stroke:#4c72b0;stroke-linecap:round;stroke-width:5;"/>
   </g>
   <g id="line2d_35">
    <path clip-path="url(#p2c5137750a)" d="M 82.360313 190.473281 
L 89.090945 190.457208 
L 95.821577 190.42847 
L 102.552209 190.37962 
L 109.282841 190.300503 
L 116.013473 190.177972 
L 122.744105 189.995707 
L 129.474737 189.734028 
L 136.205369 189.369368 
L 142.936001 188.873196 
L 149.666633 188.2099 
L 156.397265 187.33302 
L 163.127897 186.178571 
L 169.858529 184.652918 
L 176.589162 182.60909 
L 183.319794 179.795987 
L 190.050426 175.736567 
L 196.781058 169.406681 
L 200.998654 163.318123 
L 201.814803 161.853492 
L 202.617235 160.301915 
L 203.406403 158.65856 
L 203.51169 158.429988 
L 204.182739 156.918856 
L 204.946652 155.078585 
L 205.698535 153.134035 
L 206.438761 151.082091 
L 207.167684 148.920357 
L 207.885647 146.64723 
" style="fill:none;stroke:#dd8452;stroke-linecap:round;stroke-width:5;"/>
   </g>
   <g id="line2d_36">
    <path clip-path="url(#p2c5137750a)" d="M 82.360313 190.473281 
L 89.090945 190.473281 
L 95.821577 190.47328 
L 102.552209 190.473278 
L 109.282841 190.473269 
L 116.013473 190.47324 
L 122.744105 190.47315 
L 129.474737 190.472878 
L 136.205369 190.472089 
L 142.936001 190.469916 
L 149.666633 190.464236 
L 156.397265 190.450217 
L 163.127897 190.417578 
L 169.858529 190.345611 
L 176.589162 190.193671 
L 183.319794 189.879667 
L 190.050426 189.220489 
L 196.781058 187.827824 
L 200.998654 186.616099 
L 201.814803 186.375267 
L 202.617235 186.130798 
L 203.406403 185.875901 
L 203.51169 185.840294 
L 204.182739 185.60086 
L 204.946652 185.290896 
L 205.698535 184.9206 
L 206.438761 184.436866 
L 207.167684 183.682373 
L 207.885647 181.527259 
" style="fill:none;stroke:#55a868;stroke-linecap:round;stroke-width:5;"/>
   </g>
   <g id="line2d_37"/>
   <g id="line2d_38"/>
   <g id="line2d_39"/>
   <g id="patch_3">
    <path d="M 82.360313 248.778281 
L 82.360313 15.558281 
" style="fill:none;stroke:#262626;stroke-linecap:square;stroke-linejoin:miter;stroke-width:2.5;"/>
   </g>
   <g id="patch_4">
    <path d="M 412.161284 248.778281 
L 412.161284 15.558281 
" style="fill:none;stroke:#262626;stroke-linecap:square;stroke-linejoin:miter;stroke-width:2.5;"/>
   </g>
   <g id="patch_5">
    <path d="M 82.360313 248.778281 
L 412.161284 248.778281 
" style="fill:none;stroke:#262626;stroke-linecap:square;stroke-linejoin:miter;stroke-width:2.5;"/>
   </g>
   <g id="patch_6">
    <path d="M 82.360313 15.558281 
L 412.161284 15.558281 
" style="fill:none;stroke:#262626;stroke-linecap:square;stroke-linejoin:miter;stroke-width:2.5;"/>
   </g>
   <g id="line2d_40">
    <path clip-path="url(#p2c5137750a)" d="M 82.360313 190.473281 
L 412.161284 190.473281 
" style="fill:none;stroke:#1a1a1a;stroke-dasharray:7.4,3.2;stroke-dashoffset:0;stroke-width:2;"/>
   </g>
   <g id="line2d_41">
    <path clip-path="url(#p2c5137750a)" d="M 192.29397 248.778281 
L 192.29397 15.558281 
" style="fill:none;stroke:#1a1a1a;stroke-dasharray:7.4,3.2;stroke-dashoffset:0;stroke-width:2;"/>
   </g>
  </g>
  <g id="axes_2">
   <g id="patch_7">
    <path d="M 482.505399 248.778281 
L 812.30637 248.778281 
L 812.30637 15.558281 
L 482.505399 15.558281 
z
" style="fill:#ffffff;"/>
   </g>
   <g id="matplotlib.axis_3">
    <g id="xtick_29">
     <g id="line2d_42">
      <g>
       <use style="fill:#262626;stroke:#262626;stroke-width:2.5;" x="482.505399" xlink:href="#me64029e29e" y="248.778281"/>
      </g>
     </g>
     <g id="text_12">
      <!-- $\mathdefault{10^{-1}}$ -->
      <g style="fill:#262626;" transform="translate(456.655399 280.994844)scale(0.22 -0.22)">
       <use transform="translate(0 0.684375)" xlink:href="#DejaVuSans-49"/>
       <use transform="translate(63.623047 0.684375)" xlink:href="#DejaVuSans-48"/>
       <use transform="translate(128.203125 38.965625)scale(0.7)" xlink:href="#DejaVuSans-8722"/>
       <use transform="translate(186.855469 38.965625)scale(0.7)" xlink:href="#DejaVuSans-49"/>
      </g>
     </g>
    </g>
    <g id="xtick_30">
     <g id="line2d_43">
      <g>
       <use style="fill:#262626;stroke:#262626;stroke-width:2.5;" x="592.439056" xlink:href="#me64029e29e" y="248.778281"/>
      </g>
     </g>
     <g id="text_13">
      <!-- $\mathdefault{10^{0}}$ -->
      <g style="fill:#262626;" transform="translate(573.079056 280.994844)scale(0.22 -0.22)">
       <use transform="translate(0 0.765625)" xlink:href="#DejaVuSans-49"/>
       <use transform="translate(63.623047 0.765625)" xlink:href="#DejaVuSans-48"/>
       <use transform="translate(128.203125 39.046875)scale(0.7)" xlink:href="#DejaVuSans-48"/>
      </g>
     </g>
    </g>
    <g id="xtick_31">
     <g id="line2d_44">
      <g>
       <use style="fill:#262626;stroke:#262626;stroke-width:2.5;" x="702.372713" xlink:href="#me64029e29e" y="248.778281"/>
      </g>
     </g>
     <g id="text_14">
      <!-- $\mathdefault{10^{1}}$ -->
      <g style="fill:#262626;" transform="translate(683.012713 280.994844)scale(0.22 -0.22)">
       <use transform="translate(0 0.684375)" xlink:href="#DejaVuSans-49"/>
       <use transform="translate(63.623047 0.684375)" xlink:href="#DejaVuSans-48"/>
       <use transform="translate(128.203125 38.965625)scale(0.7)" xlink:href="#DejaVuSans-49"/>
      </g>
     </g>
    </g>
    <g id="xtick_32">
     <g id="line2d_45">
      <g>
       <use style="fill:#262626;stroke:#262626;stroke-width:2.5;" x="812.30637" xlink:href="#me64029e29e" y="248.778281"/>
      </g>
     </g>
     <g id="text_15">
      <!-- $\mathdefault{10^{2}}$ -->
      <g style="fill:#262626;" transform="translate(792.94637 280.994844)scale(0.22 -0.22)">
       <use transform="translate(0 0.765625)" xlink:href="#DejaVuSans-49"/>
       <use transform="translate(63.623047 0.765625)" xlink:href="#DejaVuSans-48"/>
       <use transform="translate(128.203125 39.046875)scale(0.7)" xlink:href="#DejaVuSans-50"/>
      </g>
     </g>
    </g>
    <g id="xtick_33">
     <g id="line2d_46">
      <g>
       <use style="fill:#262626;stroke:#262626;stroke-width:2;" x="515.598727" xlink:href="#mdd7c69b1bd" y="248.778281"/>
      </g>
     </g>
    </g>
    <g id="xtick_34">
     <g id="line2d_47">
      <g>
       <use style="fill:#262626;stroke:#262626;stroke-width:2;" x="534.957083" xlink:href="#mdd7c69b1bd" y="248.778281"/>
      </g>
     </g>
    </g>
    <g id="xtick_35">
     <g id="line2d_48">
      <g>
       <use style="fill:#262626;stroke:#262626;stroke-width:2;" x="548.692055" xlink:href="#mdd7c69b1bd" y="248.778281"/>
      </g>
     </g>
    </g>
    <g id="xtick_36">
     <g id="line2d_49">
      <g>
       <use style="fill:#262626;stroke:#262626;stroke-width:2;" x="559.345727" xlink:href="#mdd7c69b1bd" y="248.778281"/>
      </g>
     </g>
    </g>
    <g id="xtick_37">
     <g id="line2d_50">
      <g>
       <use style="fill:#262626;stroke:#262626;stroke-width:2;" x="568.050411" xlink:href="#mdd7c69b1bd" y="248.778281"/>
      </g>
     </g>
    </g>
    <g id="xtick_38">
     <g id="line2d_51">
      <g>
       <use style="fill:#262626;stroke:#262626;stroke-width:2;" x="575.410117" xlink:href="#mdd7c69b1bd" y="248.778281"/>
      </g>
     </g>
    </g>
    <g id="xtick_39">
     <g id="line2d_52">
      <g>
       <use style="fill:#262626;stroke:#262626;stroke-width:2;" x="581.785384" xlink:href="#mdd7c69b1bd" y="248.778281"/>
      </g>
     </g>
    </g>
    <g id="xtick_40">
     <g id="line2d_53">
      <g>
       <use style="fill:#262626;stroke:#262626;stroke-width:2;" x="587.408768" xlink:href="#mdd7c69b1bd" y="248.778281"/>
      </g>
     </g>
    </g>
    <g id="xtick_41">
     <g id="line2d_54">
      <g>
       <use style="fill:#262626;stroke:#262626;stroke-width:2;" x="625.532384" xlink:href="#mdd7c69b1bd" y="248.778281"/>
      </g>
     </g>
    </g>
    <g id="xtick_42">
     <g id="line2d_55">
      <g>
       <use style="fill:#262626;stroke:#262626;stroke-width:2;" x="644.89074" xlink:href="#mdd7c69b1bd" y="248.778281"/>
      </g>
     </g>
    </g>
    <g id="xtick_43">
     <g id="line2d_56">
      <g>
       <use style="fill:#262626;stroke:#262626;stroke-width:2;" x="658.625713" xlink:href="#mdd7c69b1bd" y="248.778281"/>
      </g>
     </g>
    </g>
    <g id="xtick_44">
     <g id="line2d_57">
      <g>
       <use style="fill:#262626;stroke:#262626;stroke-width:2;" x="669.279385" xlink:href="#mdd7c69b1bd" y="248.778281"/>
      </g>
     </g>
    </g>
    <g id="xtick_45">
     <g id="line2d_58">
      <g>
       <use style="fill:#262626;stroke:#262626;stroke-width:2;" x="677.984069" xlink:href="#mdd7c69b1bd" y="248.778281"/>
      </g>
     </g>
    </g>
    <g id="xtick_46">
     <g id="line2d_59">
      <g>
       <use style="fill:#262626;stroke:#262626;stroke-width:2;" x="685.343774" xlink:href="#mdd7c69b1bd" y="248.778281"/>
      </g>
     </g>
    </g>
    <g id="xtick_47">
     <g id="line2d_60">
      <g>
       <use style="fill:#262626;stroke:#262626;stroke-width:2;" x="691.719041" xlink:href="#mdd7c69b1bd" y="248.778281"/>
      </g>
     </g>
    </g>
    <g id="xtick_48">
     <g id="line2d_61">
      <g>
       <use style="fill:#262626;stroke:#262626;stroke-width:2;" x="697.342425" xlink:href="#mdd7c69b1bd" y="248.778281"/>
      </g>
     </g>
    </g>
    <g id="xtick_49">
     <g id="line2d_62">
      <g>
       <use style="fill:#262626;stroke:#262626;stroke-width:2;" x="735.466041" xlink:href="#mdd7c69b1bd" y="248.778281"/>
      </g>
     </g>
    </g>
    <g id="xtick_50">
     <g id="line2d_63">
      <g>
       <use style="fill:#262626;stroke:#262626;stroke-width:2;" x="754.824398" xlink:href="#mdd7c69b1bd" y="248.778281"/>
      </g>
     </g>
    </g>
    <g id="xtick_51">
     <g id="line2d_64">
      <g>
       <use style="fill:#262626;stroke:#262626;stroke-width:2;" x="768.55937" xlink:href="#mdd7c69b1bd" y="248.778281"/>
      </g>
     </g>
    </g>
    <g id="xtick_52">
     <g id="line2d_65">
      <g>
       <use style="fill:#262626;stroke:#262626;stroke-width:2;" x="779.213042" xlink:href="#mdd7c69b1bd" y="248.778281"/>
      </g>
     </g>
    </g>
    <g id="xtick_53">
     <g id="line2d_66">
      <g>
       <use style="fill:#262626;stroke:#262626;stroke-width:2;" x="787.917726" xlink:href="#mdd7c69b1bd" y="248.778281"/>
      </g>
     </g>
    </g>
    <g id="xtick_54">
     <g id="line2d_67">
      <g>
       <use style="fill:#262626;stroke:#262626;stroke-width:2;" x="795.277431" xlink:href="#mdd7c69b1bd" y="248.778281"/>
      </g>
     </g>
    </g>
    <g id="xtick_55">
     <g id="line2d_68">
      <g>
       <use style="fill:#262626;stroke:#262626;stroke-width:2;" x="801.652698" xlink:href="#mdd7c69b1bd" y="248.778281"/>
      </g>
     </g>
    </g>
    <g id="xtick_56">
     <g id="line2d_69">
      <g>
       <use style="fill:#262626;stroke:#262626;stroke-width:2;" x="807.276082" xlink:href="#mdd7c69b1bd" y="248.778281"/>
      </g>
     </g>
    </g>
    <g id="text_16">
     <!-- prolif. effectors -->
     <g style="fill:#262626;" transform="translate(557.087134 307.806406)scale(0.24 -0.24)">
      <use xlink:href="#DejaVuSans-112"/>
      <use x="63.476562" xlink:href="#DejaVuSans-114"/>
      <use x="102.339844" xlink:href="#DejaVuSans-111"/>
      <use x="163.521484" xlink:href="#DejaVuSans-108"/>
      <use x="191.304688" xlink:href="#DejaVuSans-105"/>
      <use x="219.087891" xlink:href="#DejaVuSans-102"/>
      <use x="247.042969" xlink:href="#DejaVuSans-46"/>
      <use x="278.830078" xlink:href="#DejaVuSans-32"/>
      <use x="310.617188" xlink:href="#DejaVuSans-101"/>
      <use x="372.140625" xlink:href="#DejaVuSans-102"/>
      <use x="407.345703" xlink:href="#DejaVuSans-102"/>
      <use x="442.550781" xlink:href="#DejaVuSans-101"/>
      <use x="504.074219" xlink:href="#DejaVuSans-99"/>
      <use x="559.054688" xlink:href="#DejaVuSans-116"/>
      <use x="598.263672" xlink:href="#DejaVuSans-111"/>
      <use x="659.445312" xlink:href="#DejaVuSans-114"/>
      <use x="700.558594" xlink:href="#DejaVuSans-115"/>
     </g>
    </g>
   </g>
   <g id="matplotlib.axis_4">
    <g id="ytick_6">
     <g id="line2d_70">
      <g>
       <use style="fill:#262626;stroke:#262626;stroke-width:2.5;" x="482.505399" xlink:href="#m806371058e" y="248.778281"/>
      </g>
     </g>
    </g>
    <g id="ytick_7">
     <g id="line2d_71">
      <g>
       <use style="fill:#262626;stroke:#262626;stroke-width:2.5;" x="482.505399" xlink:href="#m806371058e" y="190.473281"/>
      </g>
     </g>
    </g>
    <g id="ytick_8">
     <g id="line2d_72">
      <g>
       <use style="fill:#262626;stroke:#262626;stroke-width:2.5;" x="482.505399" xlink:href="#m806371058e" y="132.168281"/>
      </g>
     </g>
    </g>
    <g id="ytick_9">
     <g id="line2d_73">
      <g>
       <use style="fill:#262626;stroke:#262626;stroke-width:2.5;" x="482.505399" xlink:href="#m806371058e" y="73.863281"/>
      </g>
     </g>
    </g>
    <g id="ytick_10">
     <g id="line2d_74">
      <g>
       <use style="fill:#262626;stroke:#262626;stroke-width:2.5;" x="482.505399" xlink:href="#m806371058e" y="15.558281"/>
      </g>
     </g>
    </g>
   </g>
   <g id="line2d_75">
    <path clip-path="url(#pdb5d0a88bc)" d="M 482.505399 190.473281 
L 489.236031 190.473281 
L 495.966663 190.473281 
L 502.697295 190.47328 
L 509.427927 190.473275 
L 516.158559 190.473262 
L 522.889191 190.473218 
L 529.619823 190.473081 
L 536.350455 190.472674 
L 543.081087 190.471511 
L 549.811719 190.468348 
L 556.542351 190.460194 
L 563.272984 190.440309 
L 570.003616 190.3945 
L 576.734248 190.294533 
L 583.46488 190.086463 
L 590.195512 189.668549 
L 596.926144 188.855818 
L 601.14374 188.055901 
L 601.959889 187.87471 
L 602.762321 187.688201 
L 603.551489 187.496278 
L 603.656776 187.469999 
L 604.327825 187.298515 
L 605.091738 187.094051 
L 605.843621 186.881361 
L 606.583847 186.65769 
L 607.312771 186.417233 
L 608.030733 186.139232 
L 608.738058 159.640848 
L 609.435057 159.510078 
L 610.122027 159.925413 
L 610.387408 159.234037 
L 610.799252 158.958813 
L 611.467005 159.705123 
L 612.125548 159.914477 
L 612.77513 160.025068 
L 613.415993 159.792725 
L 614.048368 160.008649 
L 614.672476 159.988309 
L 615.288531 159.987462 
L 615.896737 160.003899 
L 616.497294 159.925855 
L 617.090389 159.878835 
L 617.11804 159.993958 
L 617.676207 159.902837 
L 618.254924 160.011613 
L 618.826711 159.952973 
L 619.39173 159.897014 
L 619.950141 159.998623 
L 620.502096 159.861712 
L 623.848672 159.922458 
L 630.579304 159.937032 
L 637.309936 159.892091 
L 644.040568 159.957317 
L 650.771201 160.081699 
L 657.501833 160.063777 
L 664.232465 160.006463 
L 670.963097 159.837913 
L 677.693729 159.925607 
L 684.424361 159.887007 
L 691.154993 159.375244 
L 697.885625 159.317335 
L 704.616257 159.527864 
L 711.346889 159.349852 
L 718.077521 158.954669 
L 724.808153 158.569756 
L 731.538785 158.752845 
L 738.269418 158.449411 
L 745.00005 157.997365 
L 751.730682 156.814188 
L 758.461314 157.001473 
L 765.191946 156.641117 
L 771.922578 155.679429 
L 778.65321 155.204011 
L 785.383842 154.684276 
L 792.114474 152.872851 
L 798.845106 152.159798 
L 805.575738 150.432892 
L 812.30637 148.669926 
" style="fill:none;stroke:#4c72b0;stroke-linecap:round;stroke-width:5;"/>
   </g>
   <g id="line2d_76">
    <path clip-path="url(#pdb5d0a88bc)" d="M 482.505399 190.473281 
L 489.236031 190.457208 
L 495.966663 190.42847 
L 502.697295 190.37962 
L 509.427927 190.300502 
L 516.158559 190.177971 
L 522.889191 189.995705 
L 529.619823 189.734028 
L 536.350455 189.369361 
L 543.081087 188.873184 
L 549.811719 188.209875 
L 556.542351 187.332962 
L 563.272984 186.178419 
L 570.003616 184.652453 
L 576.734248 182.607396 
L 583.46488 179.788462 
L 590.195512 175.694726 
L 596.926144 169.103416 
L 601.14374 162.071777 
L 601.959889 160.179393 
L 602.762321 158.043079 
L 603.551489 155.59132 
L 603.656776 155.231753 
L 604.327825 152.715584 
L 605.091738 149.239292 
L 605.843621 144.845585 
L 606.583847 138.873079 
L 607.312771 129.512522 
L 608.030733 106.611492 
L 608.738058 94.902096 
L 609.435057 109.966843 
L 610.122027 118.116318 
L 610.387408 119.433803 
L 610.799252 121.982862 
L 611.467005 126.671993 
L 612.125548 129.912918 
L 612.77513 132.493168 
L 613.415993 134.275677 
L 614.048368 136.332961 
L 614.672476 137.870891 
L 615.288531 139.258229 
L 615.896737 140.515076 
L 616.497294 141.541696 
L 617.090389 142.5102 
L 617.11804 142.694071 
L 617.676207 143.472959 
L 618.254924 144.467207 
L 618.826711 145.187203 
L 619.39173 145.863972 
L 619.950141 146.673171 
L 620.502096 147.144683 
L 623.848672 150.486554 
L 630.579304 155.016204 
L 637.309936 157.962624 
L 644.040568 160.181792 
L 650.771201 161.909712 
L 657.501833 163.075095 
L 664.232465 163.883917 
L 670.963097 164.319172 
L 677.693729 164.808461 
L 684.424361 165.016567 
L 691.154993 164.669173 
L 697.885625 164.660919 
L 704.616257 164.830556 
L 711.346889 164.613956 
L 718.077521 164.18909 
L 724.808153 163.771282 
L 731.538785 163.829314 
L 738.269418 163.488595 
L 745.00005 163.040107 
L 751.730682 161.996298 
L 758.461314 162.10679 
L 765.191946 161.779439 
L 771.922578 160.960902 
L 778.65321 160.557555 
L 785.383842 160.125879 
L 792.114474 158.599963 
L 798.845106 157.998616 
L 805.575738 156.520887 
L 812.30637 154.991624 
" style="fill:none;stroke:#dd8452;stroke-linecap:round;stroke-width:5;"/>
   </g>
   <g id="line2d_77">
    <path clip-path="url(#pdb5d0a88bc)" d="M 482.505399 190.473281 
L 489.236031 190.473281 
L 495.966663 190.47328 
L 502.697295 190.473278 
L 509.427927 190.473269 
L 516.158559 190.47324 
L 522.889191 190.47315 
L 529.619823 190.472878 
L 536.350455 190.472089 
L 543.081087 190.469916 
L 549.811719 190.464236 
L 556.542351 190.450217 
L 563.272984 190.417578 
L 570.003616 190.345611 
L 576.734248 190.193671 
L 583.46488 189.879667 
L 590.195512 189.220489 
L 596.926144 187.827824 
L 601.14374 186.616099 
L 601.959889 186.375267 
L 602.762321 186.130798 
L 603.551489 185.875901 
L 603.656776 185.840294 
L 604.327825 185.60086 
L 605.091738 185.290896 
L 605.843621 184.9206 
L 606.583847 184.436866 
L 607.312771 183.682373 
L 608.030733 181.527259 
L 608.738058 109.934538 
L 609.435057 125.236601 
L 610.122027 133.279268 
L 610.387408 135.091787 
L 610.799252 137.903467 
L 611.467005 142.268338 
L 612.125548 145.518424 
L 612.77513 148.169721 
L 613.415993 150.23352 
L 614.048368 152.281399 
L 614.672476 153.962126 
L 615.288531 155.47297 
L 615.896737 156.844076 
L 616.497294 158.04146 
L 617.090389 159.155863 
L 617.11804 159.272029 
L 617.676207 160.218218 
L 618.254924 161.250673 
L 618.826711 162.121983 
L 619.39173 162.937804 
L 619.950141 163.786183 
L 620.502096 164.453465 
L 623.848672 168.359729 
L 630.579304 174.006025 
L 637.309936 178.013244 
L 644.040568 181.138379 
L 650.771201 183.676915 
L 657.501833 185.730902 
L 664.232465 187.487311 
L 670.963097 188.986058 
L 677.693729 190.376294 
L 684.424361 191.620549 
L 691.154993 192.702085 
L 697.885625 193.824503 
L 704.616257 194.924376 
L 711.346889 195.942701 
L 718.077521 196.949875 
L 724.808153 197.943767 
L 731.538785 199.013 
L 738.269418 200.045782 
L 745.00005 201.107108 
L 751.730682 202.109762 
L 758.461314 203.270635 
L 765.191946 204.403298 
L 771.922578 205.510405 
L 778.65321 206.662507 
L 785.383842 207.882471 
L 792.114474 209.010621 
L 798.845106 210.220949 
L 805.575738 211.420293 
L 812.30637 212.654912 
" style="fill:none;stroke:#55a868;stroke-linecap:round;stroke-width:5;"/>
   </g>
   <g id="patch_8">
    <path d="M 482.505399 248.778281 
L 482.505399 15.558281 
" style="fill:none;stroke:#262626;stroke-linecap:square;stroke-linejoin:miter;stroke-width:2.5;"/>
   </g>
   <g id="patch_9">
    <path d="M 812.30637 248.778281 
L 812.30637 15.558281 
" style="fill:none;stroke:#262626;stroke-linecap:square;stroke-linejoin:miter;stroke-width:2.5;"/>
   </g>
   <g id="patch_10">
    <path d="M 482.505399 248.778281 
L 812.30637 248.778281 
" style="fill:none;stroke:#262626;stroke-linecap:square;stroke-linejoin:miter;stroke-width:2.5;"/>
   </g>
   <g id="patch_11">
    <path d="M 482.505399 15.558281 
L 812.30637 15.558281 
" style="fill:none;stroke:#262626;stroke-linecap:square;stroke-linejoin:miter;stroke-width:2.5;"/>
   </g>
   <g id="line2d_78">
    <path clip-path="url(#pdb5d0a88bc)" d="M 482.505399 190.473281 
L 812.30637 190.473281 
" style="fill:none;stroke:#1a1a1a;stroke-dasharray:7.4,3.2;stroke-dashoffset:0;stroke-width:2;"/>
   </g>
   <g id="line2d_79">
    <path clip-path="url(#pdb5d0a88bc)" d="M 592.439056 248.778281 
L 592.439056 15.558281 
" style="fill:none;stroke:#1a1a1a;stroke-dasharray:7.4,3.2;stroke-dashoffset:0;stroke-width:2;"/>
   </g>
  </g>
  <g id="axes_3">
   <g id="patch_12">
    <path d="M 882.650485 248.778281 
L 1212.451456 248.778281 
L 1212.451456 15.558281 
L 882.650485 15.558281 
z
" style="fill:#ffffff;"/>
   </g>
   <g id="matplotlib.axis_5">
    <g id="xtick_57">
     <g id="line2d_80">
      <g>
       <use style="fill:#262626;stroke:#262626;stroke-width:2.5;" x="882.650485" xlink:href="#me64029e29e" y="248.778281"/>
      </g>
     </g>
     <g id="text_17">
      <!-- $\mathdefault{10^{-1}}$ -->
      <g style="fill:#262626;" transform="translate(856.800485 280.994844)scale(0.22 -0.22)">
       <use transform="translate(0 0.684375)" xlink:href="#DejaVuSans-49"/>
       <use transform="translate(63.623047 0.684375)" xlink:href="#DejaVuSans-48"/>
       <use transform="translate(128.203125 38.965625)scale(0.7)" xlink:href="#DejaVuSans-8722"/>
       <use transform="translate(186.855469 38.965625)scale(0.7)" xlink:href="#DejaVuSans-49"/>
      </g>
     </g>
    </g>
    <g id="xtick_58">
     <g id="line2d_81">
      <g>
       <use style="fill:#262626;stroke:#262626;stroke-width:2.5;" x="992.584142" xlink:href="#me64029e29e" y="248.778281"/>
      </g>
     </g>
     <g id="text_18">
      <!-- $\mathdefault{10^{0}}$ -->
      <g style="fill:#262626;" transform="translate(973.224142 280.994844)scale(0.22 -0.22)">
       <use transform="translate(0 0.765625)" xlink:href="#DejaVuSans-49"/>
       <use transform="translate(63.623047 0.765625)" xlink:href="#DejaVuSans-48"/>
       <use transform="translate(128.203125 39.046875)scale(0.7)" xlink:href="#DejaVuSans-48"/>
      </g>
     </g>
    </g>
    <g id="xtick_59">
     <g id="line2d_82">
      <g>
       <use style="fill:#262626;stroke:#262626;stroke-width:2.5;" x="1102.517799" xlink:href="#me64029e29e" y="248.778281"/>
      </g>
     </g>
     <g id="text_19">
      <!-- $\mathdefault{10^{1}}$ -->
      <g style="fill:#262626;" transform="translate(1083.157799 280.994844)scale(0.22 -0.22)">
       <use transform="translate(0 0.684375)" xlink:href="#DejaVuSans-49"/>
       <use transform="translate(63.623047 0.684375)" xlink:href="#DejaVuSans-48"/>
       <use transform="translate(128.203125 38.965625)scale(0.7)" xlink:href="#DejaVuSans-49"/>
      </g>
     </g>
    </g>
    <g id="xtick_60">
     <g id="line2d_83">
      <g>
       <use style="fill:#262626;stroke:#262626;stroke-width:2.5;" x="1212.451456" xlink:href="#me64029e29e" y="248.778281"/>
      </g>
     </g>
     <g id="text_20">
      <!-- $\mathdefault{10^{2}}$ -->
      <g style="fill:#262626;" transform="translate(1193.091456 280.994844)scale(0.22 -0.22)">
       <use transform="translate(0 0.765625)" xlink:href="#DejaVuSans-49"/>
       <use transform="translate(63.623047 0.765625)" xlink:href="#DejaVuSans-48"/>
       <use transform="translate(128.203125 39.046875)scale(0.7)" xlink:href="#DejaVuSans-50"/>
      </g>
     </g>
    </g>
    <g id="xtick_61">
     <g id="line2d_84">
      <g>
       <use style="fill:#262626;stroke:#262626;stroke-width:2;" x="915.743813" xlink:href="#mdd7c69b1bd" y="248.778281"/>
      </g>
     </g>
    </g>
    <g id="xtick_62">
     <g id="line2d_85">
      <g>
       <use style="fill:#262626;stroke:#262626;stroke-width:2;" x="935.102169" xlink:href="#mdd7c69b1bd" y="248.778281"/>
      </g>
     </g>
    </g>
    <g id="xtick_63">
     <g id="line2d_86">
      <g>
       <use style="fill:#262626;stroke:#262626;stroke-width:2;" x="948.837141" xlink:href="#mdd7c69b1bd" y="248.778281"/>
      </g>
     </g>
    </g>
    <g id="xtick_64">
     <g id="line2d_87">
      <g>
       <use style="fill:#262626;stroke:#262626;stroke-width:2;" x="959.490814" xlink:href="#mdd7c69b1bd" y="248.778281"/>
      </g>
     </g>
    </g>
    <g id="xtick_65">
     <g id="line2d_88">
      <g>
       <use style="fill:#262626;stroke:#262626;stroke-width:2;" x="968.195498" xlink:href="#mdd7c69b1bd" y="248.778281"/>
      </g>
     </g>
    </g>
    <g id="xtick_66">
     <g id="line2d_89">
      <g>
       <use style="fill:#262626;stroke:#262626;stroke-width:2;" x="975.555203" xlink:href="#mdd7c69b1bd" y="248.778281"/>
      </g>
     </g>
    </g>
    <g id="xtick_67">
     <g id="line2d_90">
      <g>
       <use style="fill:#262626;stroke:#262626;stroke-width:2;" x="981.93047" xlink:href="#mdd7c69b1bd" y="248.778281"/>
      </g>
     </g>
    </g>
    <g id="xtick_68">
     <g id="line2d_91">
      <g>
       <use style="fill:#262626;stroke:#262626;stroke-width:2;" x="987.553854" xlink:href="#mdd7c69b1bd" y="248.778281"/>
      </g>
     </g>
    </g>
    <g id="xtick_69">
     <g id="line2d_92">
      <g>
       <use style="fill:#262626;stroke:#262626;stroke-width:2;" x="1025.67747" xlink:href="#mdd7c69b1bd" y="248.778281"/>
      </g>
     </g>
    </g>
    <g id="xtick_70">
     <g id="line2d_93">
      <g>
       <use style="fill:#262626;stroke:#262626;stroke-width:2;" x="1045.035826" xlink:href="#mdd7c69b1bd" y="248.778281"/>
      </g>
     </g>
    </g>
    <g id="xtick_71">
     <g id="line2d_94">
      <g>
       <use style="fill:#262626;stroke:#262626;stroke-width:2;" x="1058.770799" xlink:href="#mdd7c69b1bd" y="248.778281"/>
      </g>
     </g>
    </g>
    <g id="xtick_72">
     <g id="line2d_95">
      <g>
       <use style="fill:#262626;stroke:#262626;stroke-width:2;" x="1069.424471" xlink:href="#mdd7c69b1bd" y="248.778281"/>
      </g>
     </g>
    </g>
    <g id="xtick_73">
     <g id="line2d_96">
      <g>
       <use style="fill:#262626;stroke:#262626;stroke-width:2;" x="1078.129155" xlink:href="#mdd7c69b1bd" y="248.778281"/>
      </g>
     </g>
    </g>
    <g id="xtick_74">
     <g id="line2d_97">
      <g>
       <use style="fill:#262626;stroke:#262626;stroke-width:2;" x="1085.48886" xlink:href="#mdd7c69b1bd" y="248.778281"/>
      </g>
     </g>
    </g>
    <g id="xtick_75">
     <g id="line2d_98">
      <g>
       <use style="fill:#262626;stroke:#262626;stroke-width:2;" x="1091.864127" xlink:href="#mdd7c69b1bd" y="248.778281"/>
      </g>
     </g>
    </g>
    <g id="xtick_76">
     <g id="line2d_99">
      <g>
       <use style="fill:#262626;stroke:#262626;stroke-width:2;" x="1097.487511" xlink:href="#mdd7c69b1bd" y="248.778281"/>
      </g>
     </g>
    </g>
    <g id="xtick_77">
     <g id="line2d_100">
      <g>
       <use style="fill:#262626;stroke:#262626;stroke-width:2;" x="1135.611128" xlink:href="#mdd7c69b1bd" y="248.778281"/>
      </g>
     </g>
    </g>
    <g id="xtick_78">
     <g id="line2d_101">
      <g>
       <use style="fill:#262626;stroke:#262626;stroke-width:2;" x="1154.969484" xlink:href="#mdd7c69b1bd" y="248.778281"/>
      </g>
     </g>
    </g>
    <g id="xtick_79">
     <g id="line2d_102">
      <g>
       <use style="fill:#262626;stroke:#262626;stroke-width:2;" x="1168.704456" xlink:href="#mdd7c69b1bd" y="248.778281"/>
      </g>
     </g>
    </g>
    <g id="xtick_80">
     <g id="line2d_103">
      <g>
       <use style="fill:#262626;stroke:#262626;stroke-width:2;" x="1179.358128" xlink:href="#mdd7c69b1bd" y="248.778281"/>
      </g>
     </g>
    </g>
    <g id="xtick_81">
     <g id="line2d_104">
      <g>
       <use style="fill:#262626;stroke:#262626;stroke-width:2;" x="1188.062812" xlink:href="#mdd7c69b1bd" y="248.778281"/>
      </g>
     </g>
    </g>
    <g id="xtick_82">
     <g id="line2d_105">
      <g>
       <use style="fill:#262626;stroke:#262626;stroke-width:2;" x="1195.422517" xlink:href="#mdd7c69b1bd" y="248.778281"/>
      </g>
     </g>
    </g>
    <g id="xtick_83">
     <g id="line2d_106">
      <g>
       <use style="fill:#262626;stroke:#262626;stroke-width:2;" x="1201.797784" xlink:href="#mdd7c69b1bd" y="248.778281"/>
      </g>
     </g>
    </g>
    <g id="xtick_84">
     <g id="line2d_107">
      <g>
       <use style="fill:#262626;stroke:#262626;stroke-width:2;" x="1207.421168" xlink:href="#mdd7c69b1bd" y="248.778281"/>
      </g>
     </g>
    </g>
    <g id="text_21">
     <!-- prolif. effectors -->
     <g style="fill:#262626;" transform="translate(957.232221 307.806406)scale(0.24 -0.24)">
      <use xlink:href="#DejaVuSans-112"/>
      <use x="63.476562" xlink:href="#DejaVuSans-114"/>
      <use x="102.339844" xlink:href="#DejaVuSans-111"/>
      <use x="163.521484" xlink:href="#DejaVuSans-108"/>
      <use x="191.304688" xlink:href="#DejaVuSans-105"/>
      <use x="219.087891" xlink:href="#DejaVuSans-102"/>
      <use x="247.042969" xlink:href="#DejaVuSans-46"/>
      <use x="278.830078" xlink:href="#DejaVuSans-32"/>
      <use x="310.617188" xlink:href="#DejaVuSans-101"/>
      <use x="372.140625" xlink:href="#DejaVuSans-102"/>
      <use x="407.345703" xlink:href="#DejaVuSans-102"/>
      <use x="442.550781" xlink:href="#DejaVuSans-101"/>
      <use x="504.074219" xlink:href="#DejaVuSans-99"/>
      <use x="559.054688" xlink:href="#DejaVuSans-116"/>
      <use x="598.263672" xlink:href="#DejaVuSans-111"/>
      <use x="659.445312" xlink:href="#DejaVuSans-114"/>
      <use x="700.558594" xlink:href="#DejaVuSans-115"/>
     </g>
    </g>
   </g>
   <g id="matplotlib.axis_6">
    <g id="ytick_11">
     <g id="line2d_108">
      <g>
       <use style="fill:#262626;stroke:#262626;stroke-width:2.5;" x="882.650485" xlink:href="#m806371058e" y="248.778281"/>
      </g>
     </g>
    </g>
    <g id="ytick_12">
     <g id="line2d_109">
      <g>
       <use style="fill:#262626;stroke:#262626;stroke-width:2.5;" x="882.650485" xlink:href="#m806371058e" y="190.473281"/>
      </g>
     </g>
    </g>
    <g id="ytick_13">
     <g id="line2d_110">
      <g>
       <use style="fill:#262626;stroke:#262626;stroke-width:2.5;" x="882.650485" xlink:href="#m806371058e" y="132.168281"/>
      </g>
     </g>
    </g>
    <g id="ytick_14">
     <g id="line2d_111">
      <g>
       <use style="fill:#262626;stroke:#262626;stroke-width:2.5;" x="882.650485" xlink:href="#m806371058e" y="73.863281"/>
      </g>
     </g>
    </g>
    <g id="ytick_15">
     <g id="line2d_112">
      <g>
       <use style="fill:#262626;stroke:#262626;stroke-width:2.5;" x="882.650485" xlink:href="#m806371058e" y="15.558281"/>
      </g>
     </g>
    </g>
   </g>
   <g id="line2d_113">
    <path clip-path="url(#pb96c229a06)" d="M 882.650485 190.473281 
L 889.381117 190.473281 
L 896.111749 190.473281 
L 902.842381 190.47328 
L 909.573013 190.473275 
L 916.303645 190.473262 
L 923.034277 190.473218 
L 929.764909 190.473081 
L 936.495541 190.472674 
L 943.226173 190.471511 
L 949.956805 190.468348 
L 956.687438 190.460194 
L 963.41807 190.440309 
L 970.148702 190.3945 
L 976.879334 190.294533 
L 983.609966 190.086463 
L 990.340598 189.668549 
L 997.07123 188.855818 
L 1001.288826 188.055901 
L 1002.104975 187.87471 
L 1002.907407 187.688201 
L 1003.696575 187.496278 
L 1003.801862 187.469999 
L 1004.472911 187.298515 
L 1005.236825 187.094051 
L 1005.988707 186.881361 
L 1006.728933 186.65769 
L 1007.457857 186.417233 
L 1008.175819 186.139232 
L 1008.883144 185.762746 
L 1009.580143 185.389769 
L 1010.267113 185.01418 
L 1010.532494 184.853382 
L 1010.944338 184.634463 
L 1011.612091 184.257015 
L 1012.270634 183.878327 
L 1012.920217 183.515319 
L 1013.56108 183.094381 
L 1014.193454 182.738536 
L 1014.817562 182.391864 
L 1015.433617 181.995121 
L 1016.041824 181.622958 
L 1016.64238 181.23034 
L 1017.235475 180.901588 
L 1017.263126 180.887714 
L 1017.821293 180.516395 
L 1018.400011 180.144387 
L 1018.971797 179.849078 
L 1019.536816 179.386386 
L 1020.095227 179.068081 
L 1020.647182 178.726483 
L 1023.993758 176.397754 
L 1030.72439 171.608037 
L 1037.455022 165.829428 
L 1044.185655 160.331075 
L 1050.916287 153.917876 
L 1057.646919 147.125581 
L 1064.377551 139.663483 
L 1071.108183 132.054091 
L 1077.838815 124.360031 
L 1084.569447 115.788414 
L 1091.300079 107.894724 
L 1098.030711 99.759027 
L 1104.761343 91.249527 
L 1111.491975 83.624329 
L 1118.222607 76.388655 
L 1124.953239 68.997939 
L 1131.683872 62.480529 
L 1138.414504 56.89803 
L 1145.145136 51.972943 
L 1151.875768 46.95173 
L 1158.6064 43.956216 
L 1165.337032 40.969523 
L 1172.067664 38.79057 
L 1178.798296 37.130826 
L 1185.528928 36.064886 
L 1192.25956 34.535753 
L 1198.990192 34.230263 
L 1205.720824 32.866008 
L 1212.451456 31.763943 
" style="fill:none;stroke:#4c72b0;stroke-linecap:round;stroke-width:5;"/>
   </g>
   <g id="line2d_114">
    <path clip-path="url(#pb96c229a06)" d="M 882.650485 190.473281 
L 889.381117 190.473135 
L 896.111749 190.472715 
L 902.842381 190.471543 
L 909.573013 190.468612 
L 916.303645 190.460089 
L 923.034277 190.439274 
L 929.764909 190.394629 
L 936.495541 190.302729 
L 943.226173 190.134123 
L 949.956805 189.826928 
L 956.687438 189.343687 
L 963.41807 188.72878 
L 970.148702 187.977597 
L 976.879334 186.995656 
L 983.609966 185.939881 
L 990.340598 184.585088 
L 997.07123 182.988142 
L 1001.288826 181.741669 
L 1002.104975 181.572397 
L 1002.907407 181.226062 
L 1003.696575 181.006275 
L 1003.801862 181.072265 
L 1004.472911 180.832807 
L 1005.236825 180.60586 
L 1005.988707 180.361642 
L 1006.728933 180.088984 
L 1007.457857 179.840038 
L 1008.175819 179.650009 
L 1008.883144 179.28349 
L 1009.580143 179.149819 
L 1010.267113 178.865971 
L 1010.532494 178.667141 
L 1010.944338 178.617917 
L 1011.612091 178.331726 
L 1012.270634 178.093103 
L 1012.920217 177.873559 
L 1013.56108 177.428528 
L 1014.193454 177.260594 
L 1014.817562 177.101947 
L 1015.433617 176.760701 
L 1016.041824 176.503573 
L 1016.64238 176.199147 
L 1017.235475 176.058419 
L 1017.263126 176.057153 
L 1017.821293 175.749127 
L 1018.400011 175.491633 
L 1018.971797 175.392962 
L 1019.536816 174.925751 
L 1020.095227 174.775656 
L 1020.647182 174.555113 
L 1023.993758 172.831717 
L 1030.72439 169.41049 
L 1037.455022 164.805899 
L 1044.185655 160.579796 
L 1050.916287 155.267462 
L 1057.646919 149.49047 
L 1064.377551 142.929881 
L 1071.108183 136.113185 
L 1077.838815 129.107051 
L 1084.569447 121.132334 
L 1091.300079 113.741247 
L 1098.030711 106.033788 
L 1104.761343 97.89125 
L 1111.491975 90.576426 
L 1118.222607 83.597971 
L 1124.953239 76.430306 
L 1131.683872 70.10507 
L 1138.414504 64.680756 
L 1145.145136 59.89027 
L 1151.875768 54.978917 
L 1158.6064 52.074567 
L 1165.337032 49.17092 
L 1172.067664 47.053148 
L 1178.798296 45.45112 
L 1185.528928 44.425664 
L 1192.25956 42.933759 
L 1198.990192 42.65615 
L 1205.720824 41.314643 
L 1212.451456 40.231573 
" style="fill:none;stroke:#dd8452;stroke-linecap:round;stroke-width:5;"/>
   </g>
   <g id="line2d_115">
    <path clip-path="url(#pb96c229a06)" d="M 882.650485 190.473281 
L 889.381117 190.473281 
L 896.111749 190.47328 
L 902.842381 190.473278 
L 909.573013 190.473269 
L 916.303645 190.47324 
L 923.034277 190.47315 
L 929.764909 190.472878 
L 936.495541 190.472089 
L 943.226173 190.469916 
L 949.956805 190.464236 
L 956.687438 190.450217 
L 963.41807 190.417578 
L 970.148702 190.345611 
L 976.879334 190.193671 
L 983.609966 189.879667 
L 990.340598 189.220489 
L 997.07123 187.827824 
L 1001.288826 186.616099 
L 1002.104975 186.375267 
L 1002.907407 186.130798 
L 1003.696575 185.875901 
L 1003.801862 185.840294 
L 1004.472911 185.60086 
L 1005.236825 185.290896 
L 1005.988707 184.9206 
L 1006.728933 184.436866 
L 1007.457857 183.682373 
L 1008.175819 181.527259 
L 1008.883144 179.861651 
L 1009.580143 179.99148 
L 1010.267113 179.973865 
L 1010.532494 179.869115 
L 1010.944338 179.986002 
L 1011.612091 179.967396 
L 1012.270634 179.988146 
L 1012.920217 180.03708 
L 1013.56108 179.874723 
L 1014.193454 179.973187 
L 1014.817562 180.060043 
L 1015.433617 180.002957 
L 1016.041824 180.023007 
L 1016.64238 179.994118 
L 1017.235475 180.107342 
L 1017.263126 180.113711 
L 1017.821293 180.07733 
L 1018.400011 180.098139 
L 1018.971797 180.230274 
L 1019.536816 180.092347 
L 1020.095227 180.181315 
L 1020.647182 180.227269 
L 1023.993758 180.262287 
L 1030.72439 180.639815 
L 1037.455022 180.735554 
L 1044.185655 181.282193 
L 1050.916287 181.666148 
L 1057.646919 182.14177 
L 1064.377551 182.612731 
L 1071.108183 183.18967 
L 1077.838815 183.872322 
L 1084.569447 184.518517 
L 1091.300079 185.333668 
L 1098.030711 186.185635 
L 1104.761343 187.058876 
L 1111.491975 188.074866 
L 1118.222607 189.12948 
L 1124.953239 190.227331 
L 1131.683872 191.402339 
L 1138.414504 192.648334 
L 1145.145136 193.958102 
L 1151.875768 195.261007 
L 1158.6064 196.692668 
L 1165.337032 198.115486 
L 1172.067664 199.577478 
L 1178.798296 201.077957 
L 1185.528928 202.575823 
L 1192.25956 204.089599 
L 1198.990192 205.601911 
L 1205.720824 207.110364 
L 1212.451456 208.586157 
" style="fill:none;stroke:#55a868;stroke-linecap:round;stroke-width:5;"/>
   </g>
   <g id="patch_13">
    <path d="M 882.650485 248.778281 
L 882.650485 15.558281 
" style="fill:none;stroke:#262626;stroke-linecap:square;stroke-linejoin:miter;stroke-width:2.5;"/>
   </g>
   <g id="patch_14">
    <path d="M 1212.451456 248.778281 
L 1212.451456 15.558281 
" style="fill:none;stroke:#262626;stroke-linecap:square;stroke-linejoin:miter;stroke-width:2.5;"/>
   </g>
   <g id="patch_15">
    <path d="M 882.650485 248.778281 
L 1212.451456 248.778281 
" style="fill:none;stroke:#262626;stroke-linecap:square;stroke-linejoin:miter;stroke-width:2.5;"/>
   </g>
   <g id="patch_16">
    <path d="M 882.650485 15.558281 
L 1212.451456 15.558281 
" style="fill:none;stroke:#262626;stroke-linecap:square;stroke-linejoin:miter;stroke-width:2.5;"/>
   </g>
   <g id="line2d_116">
    <path clip-path="url(#pb96c229a06)" d="M 882.650485 190.473281 
L 1212.451456 190.473281 
" style="fill:none;stroke:#1a1a1a;stroke-dasharray:7.4,3.2;stroke-dashoffset:0;stroke-width:2;"/>
   </g>
   <g id="line2d_117">
    <path clip-path="url(#pb96c229a06)" d="M 992.584142 248.778281 
L 992.584142 15.558281 
" style="fill:none;stroke:#1a1a1a;stroke-dasharray:7.4,3.2;stroke-dashoffset:0;stroke-width:2;"/>
   </g>
  </g>
  <g id="axes_4">
   <g id="patch_17">
    <path d="M 1282.795571 248.778281 
L 1612.596543 248.778281 
L 1612.596543 15.558281 
L 1282.795571 15.558281 
z
" style="fill:#ffffff;"/>
   </g>
   <g id="matplotlib.axis_7">
    <g id="xtick_85">
     <g id="line2d_118">
      <g>
       <use style="fill:#262626;stroke:#262626;stroke-width:2.5;" x="1282.795571" xlink:href="#me64029e29e" y="248.778281"/>
      </g>
     </g>
     <g id="text_22">
      <!-- $\mathdefault{10^{-1}}$ -->
      <g style="fill:#262626;" transform="translate(1256.945571 280.994844)scale(0.22 -0.22)">
       <use transform="translate(0 0.684375)" xlink:href="#DejaVuSans-49"/>
       <use transform="translate(63.623047 0.684375)" xlink:href="#DejaVuSans-48"/>
       <use transform="translate(128.203125 38.965625)scale(0.7)" xlink:href="#DejaVuSans-8722"/>
       <use transform="translate(186.855469 38.965625)scale(0.7)" xlink:href="#DejaVuSans-49"/>
      </g>
     </g>
    </g>
    <g id="xtick_86">
     <g id="line2d_119">
      <g>
       <use style="fill:#262626;stroke:#262626;stroke-width:2.5;" x="1392.729228" xlink:href="#me64029e29e" y="248.778281"/>
      </g>
     </g>
     <g id="text_23">
      <!-- $\mathdefault{10^{0}}$ -->
      <g style="fill:#262626;" transform="translate(1373.369228 280.994844)scale(0.22 -0.22)">
       <use transform="translate(0 0.765625)" xlink:href="#DejaVuSans-49"/>
       <use transform="translate(63.623047 0.765625)" xlink:href="#DejaVuSans-48"/>
       <use transform="translate(128.203125 39.046875)scale(0.7)" xlink:href="#DejaVuSans-48"/>
      </g>
     </g>
    </g>
    <g id="xtick_87">
     <g id="line2d_120">
      <g>
       <use style="fill:#262626;stroke:#262626;stroke-width:2.5;" x="1502.662885" xlink:href="#me64029e29e" y="248.778281"/>
      </g>
     </g>
     <g id="text_24">
      <!-- $\mathdefault{10^{1}}$ -->
      <g style="fill:#262626;" transform="translate(1483.302885 280.994844)scale(0.22 -0.22)">
       <use transform="translate(0 0.684375)" xlink:href="#DejaVuSans-49"/>
       <use transform="translate(63.623047 0.684375)" xlink:href="#DejaVuSans-48"/>
       <use transform="translate(128.203125 38.965625)scale(0.7)" xlink:href="#DejaVuSans-49"/>
      </g>
     </g>
    </g>
    <g id="xtick_88">
     <g id="line2d_121">
      <g>
       <use style="fill:#262626;stroke:#262626;stroke-width:2.5;" x="1612.596543" xlink:href="#me64029e29e" y="248.778281"/>
      </g>
     </g>
     <g id="text_25">
      <!-- $\mathdefault{10^{2}}$ -->
      <g style="fill:#262626;" transform="translate(1593.236543 280.994844)scale(0.22 -0.22)">
       <use transform="translate(0 0.765625)" xlink:href="#DejaVuSans-49"/>
       <use transform="translate(63.623047 0.765625)" xlink:href="#DejaVuSans-48"/>
       <use transform="translate(128.203125 39.046875)scale(0.7)" xlink:href="#DejaVuSans-50"/>
      </g>
     </g>
    </g>
    <g id="xtick_89">
     <g id="line2d_122">
      <g>
       <use style="fill:#262626;stroke:#262626;stroke-width:2;" x="1315.888899" xlink:href="#mdd7c69b1bd" y="248.778281"/>
      </g>
     </g>
    </g>
    <g id="xtick_90">
     <g id="line2d_123">
      <g>
       <use style="fill:#262626;stroke:#262626;stroke-width:2;" x="1335.247255" xlink:href="#mdd7c69b1bd" y="248.778281"/>
      </g>
     </g>
    </g>
    <g id="xtick_91">
     <g id="line2d_124">
      <g>
       <use style="fill:#262626;stroke:#262626;stroke-width:2;" x="1348.982228" xlink:href="#mdd7c69b1bd" y="248.778281"/>
      </g>
     </g>
    </g>
    <g id="xtick_92">
     <g id="line2d_125">
      <g>
       <use style="fill:#262626;stroke:#262626;stroke-width:2;" x="1359.6359" xlink:href="#mdd7c69b1bd" y="248.778281"/>
      </g>
     </g>
    </g>
    <g id="xtick_93">
     <g id="line2d_126">
      <g>
       <use style="fill:#262626;stroke:#262626;stroke-width:2;" x="1368.340584" xlink:href="#mdd7c69b1bd" y="248.778281"/>
      </g>
     </g>
    </g>
    <g id="xtick_94">
     <g id="line2d_127">
      <g>
       <use style="fill:#262626;stroke:#262626;stroke-width:2;" x="1375.700289" xlink:href="#mdd7c69b1bd" y="248.778281"/>
      </g>
     </g>
    </g>
    <g id="xtick_95">
     <g id="line2d_128">
      <g>
       <use style="fill:#262626;stroke:#262626;stroke-width:2;" x="1382.075556" xlink:href="#mdd7c69b1bd" y="248.778281"/>
      </g>
     </g>
    </g>
    <g id="xtick_96">
     <g id="line2d_129">
      <g>
       <use style="fill:#262626;stroke:#262626;stroke-width:2;" x="1387.69894" xlink:href="#mdd7c69b1bd" y="248.778281"/>
      </g>
     </g>
    </g>
    <g id="xtick_97">
     <g id="line2d_130">
      <g>
       <use style="fill:#262626;stroke:#262626;stroke-width:2;" x="1425.822556" xlink:href="#mdd7c69b1bd" y="248.778281"/>
      </g>
     </g>
    </g>
    <g id="xtick_98">
     <g id="line2d_131">
      <g>
       <use style="fill:#262626;stroke:#262626;stroke-width:2;" x="1445.180913" xlink:href="#mdd7c69b1bd" y="248.778281"/>
      </g>
     </g>
    </g>
    <g id="xtick_99">
     <g id="line2d_132">
      <g>
       <use style="fill:#262626;stroke:#262626;stroke-width:2;" x="1458.915885" xlink:href="#mdd7c69b1bd" y="248.778281"/>
      </g>
     </g>
    </g>
    <g id="xtick_100">
     <g id="line2d_133">
      <g>
       <use style="fill:#262626;stroke:#262626;stroke-width:2;" x="1469.569557" xlink:href="#mdd7c69b1bd" y="248.778281"/>
      </g>
     </g>
    </g>
    <g id="xtick_101">
     <g id="line2d_134">
      <g>
       <use style="fill:#262626;stroke:#262626;stroke-width:2;" x="1478.274241" xlink:href="#mdd7c69b1bd" y="248.778281"/>
      </g>
     </g>
    </g>
    <g id="xtick_102">
     <g id="line2d_135">
      <g>
       <use style="fill:#262626;stroke:#262626;stroke-width:2;" x="1485.633946" xlink:href="#mdd7c69b1bd" y="248.778281"/>
      </g>
     </g>
    </g>
    <g id="xtick_103">
     <g id="line2d_136">
      <g>
       <use style="fill:#262626;stroke:#262626;stroke-width:2;" x="1492.009213" xlink:href="#mdd7c69b1bd" y="248.778281"/>
      </g>
     </g>
    </g>
    <g id="xtick_104">
     <g id="line2d_137">
      <g>
       <use style="fill:#262626;stroke:#262626;stroke-width:2;" x="1497.632597" xlink:href="#mdd7c69b1bd" y="248.778281"/>
      </g>
     </g>
    </g>
    <g id="xtick_105">
     <g id="line2d_138">
      <g>
       <use style="fill:#262626;stroke:#262626;stroke-width:2;" x="1535.756214" xlink:href="#mdd7c69b1bd" y="248.778281"/>
      </g>
     </g>
    </g>
    <g id="xtick_106">
     <g id="line2d_139">
      <g>
       <use style="fill:#262626;stroke:#262626;stroke-width:2;" x="1555.11457" xlink:href="#mdd7c69b1bd" y="248.778281"/>
      </g>
     </g>
    </g>
    <g id="xtick_107">
     <g id="line2d_140">
      <g>
       <use style="fill:#262626;stroke:#262626;stroke-width:2;" x="1568.849542" xlink:href="#mdd7c69b1bd" y="248.778281"/>
      </g>
     </g>
    </g>
    <g id="xtick_108">
     <g id="line2d_141">
      <g>
       <use style="fill:#262626;stroke:#262626;stroke-width:2;" x="1579.503214" xlink:href="#mdd7c69b1bd" y="248.778281"/>
      </g>
     </g>
    </g>
    <g id="xtick_109">
     <g id="line2d_142">
      <g>
       <use style="fill:#262626;stroke:#262626;stroke-width:2;" x="1588.207898" xlink:href="#mdd7c69b1bd" y="248.778281"/>
      </g>
     </g>
    </g>
    <g id="xtick_110">
     <g id="line2d_143">
      <g>
       <use style="fill:#262626;stroke:#262626;stroke-width:2;" x="1595.567604" xlink:href="#mdd7c69b1bd" y="248.778281"/>
      </g>
     </g>
    </g>
    <g id="xtick_111">
     <g id="line2d_144">
      <g>
       <use style="fill:#262626;stroke:#262626;stroke-width:2;" x="1601.94287" xlink:href="#mdd7c69b1bd" y="248.778281"/>
      </g>
     </g>
    </g>
    <g id="xtick_112">
     <g id="line2d_145">
      <g>
       <use style="fill:#262626;stroke:#262626;stroke-width:2;" x="1607.566254" xlink:href="#mdd7c69b1bd" y="248.778281"/>
      </g>
     </g>
    </g>
    <g id="text_26">
     <!-- prolif. effectors -->
     <g style="fill:#262626;" transform="translate(1357.377307 307.806406)scale(0.24 -0.24)">
      <use xlink:href="#DejaVuSans-112"/>
      <use x="63.476562" xlink:href="#DejaVuSans-114"/>
      <use x="102.339844" xlink:href="#DejaVuSans-111"/>
      <use x="163.521484" xlink:href="#DejaVuSans-108"/>
      <use x="191.304688" xlink:href="#DejaVuSans-105"/>
      <use x="219.087891" xlink:href="#DejaVuSans-102"/>
      <use x="247.042969" xlink:href="#DejaVuSans-46"/>
      <use x="278.830078" xlink:href="#DejaVuSans-32"/>
      <use x="310.617188" xlink:href="#DejaVuSans-101"/>
      <use x="372.140625" xlink:href="#DejaVuSans-102"/>
      <use x="407.345703" xlink:href="#DejaVuSans-102"/>
      <use x="442.550781" xlink:href="#DejaVuSans-101"/>
      <use x="504.074219" xlink:href="#DejaVuSans-99"/>
      <use x="559.054688" xlink:href="#DejaVuSans-116"/>
      <use x="598.263672" xlink:href="#DejaVuSans-111"/>
      <use x="659.445312" xlink:href="#DejaVuSans-114"/>
      <use x="700.558594" xlink:href="#DejaVuSans-115"/>
     </g>
    </g>
   </g>
   <g id="matplotlib.axis_8">
    <g id="ytick_16">
     <g id="line2d_146">
      <g>
       <use style="fill:#262626;stroke:#262626;stroke-width:2.5;" x="1282.795571" xlink:href="#m806371058e" y="248.778281"/>
      </g>
     </g>
    </g>
    <g id="ytick_17">
     <g id="line2d_147">
      <g>
       <use style="fill:#262626;stroke:#262626;stroke-width:2.5;" x="1282.795571" xlink:href="#m806371058e" y="190.473281"/>
      </g>
     </g>
    </g>
    <g id="ytick_18">
     <g id="line2d_148">
      <g>
       <use style="fill:#262626;stroke:#262626;stroke-width:2.5;" x="1282.795571" xlink:href="#m806371058e" y="132.168281"/>
      </g>
     </g>
    </g>
    <g id="ytick_19">
     <g id="line2d_149">
      <g>
       <use style="fill:#262626;stroke:#262626;stroke-width:2.5;" x="1282.795571" xlink:href="#m806371058e" y="73.863281"/>
      </g>
     </g>
    </g>
    <g id="ytick_20">
     <g id="line2d_150">
      <g>
       <use style="fill:#262626;stroke:#262626;stroke-width:2.5;" x="1282.795571" xlink:href="#m806371058e" y="15.558281"/>
      </g>
     </g>
    </g>
   </g>
   <g id="line2d_151">
    <path clip-path="url(#pb6f02922bd)" d="M 1282.795571 190.473281 
L 1289.526203 190.473281 
L 1296.256835 190.473281 
L 1302.987467 190.47328 
L 1309.718099 190.473275 
L 1316.448731 190.473262 
L 1323.179363 190.473218 
L 1329.909995 190.473081 
L 1336.640627 190.472674 
L 1343.37126 190.471511 
L 1350.101892 190.468348 
L 1356.832524 190.460194 
L 1363.563156 190.440309 
L 1370.293788 190.3945 
L 1377.02442 190.294533 
L 1383.755052 190.086463 
L 1390.485684 189.668549 
L 1397.216316 188.855818 
L 1401.433912 188.055901 
L 1402.250062 187.87471 
L 1403.052494 187.688201 
L 1403.841662 187.496278 
L 1403.946948 187.469999 
L 1404.617997 187.298515 
L 1405.381911 187.094051 
L 1406.133794 186.881361 
L 1406.874019 186.65769 
L 1407.602943 186.417233 
L 1408.320905 186.136214 
L 1409.02823 185.810023 
L 1409.725229 185.481886 
L 1410.412199 185.15284 
L 1410.67758 185.0262 
L 1411.089424 184.824798 
L 1411.757177 184.480281 
L 1412.41572 184.13785 
L 1413.065303 183.820151 
L 1413.706166 183.474479 
L 1414.33854 183.178107 
L 1414.962648 182.866173 
L 1415.578703 182.518486 
L 1416.18691 182.154689 
L 1416.787466 181.836588 
L 1417.380561 181.4575 
L 1417.408212 181.44712 
L 1417.96638 181.158883 
L 1418.545097 180.774935 
L 1419.116883 180.546543 
L 1419.681902 180.17627 
L 1420.240313 179.879976 
L 1420.792268 179.483697 
L 1424.138844 177.264558 
L 1430.869477 172.492338 
L 1437.600109 167.002291 
L 1444.330741 160.501471 
L 1451.061373 152.685485 
L 1457.792005 143.772267 
L 1464.522637 133.089083 
L 1471.253269 120.64291 
L 1477.983901 105.935211 
L 1484.714533 88.956625 
L 1491.445165 68.926623 
L 1498.175797 44.663064 
L 1504.906429 16.729577 
L 1508.460741 -1 
" style="fill:none;stroke:#4c72b0;stroke-linecap:round;stroke-width:5;"/>
   </g>
   <g id="line2d_152">
    <path clip-path="url(#pb6f02922bd)" d="M 1282.795571 190.473281 
L 1289.526203 190.473242 
L 1296.256835 190.473113 
L 1302.987467 190.472707 
L 1309.718099 190.471675 
L 1316.448731 190.468671 
L 1323.179363 190.461048 
L 1329.909995 190.440957 
L 1336.640627 190.395938 
L 1343.37126 190.303359 
L 1350.101892 190.133612 
L 1356.832524 189.834176 
L 1363.563156 189.378465 
L 1370.293788 188.69997 
L 1377.02442 187.822095 
L 1383.755052 186.765296 
L 1390.485684 185.616721 
L 1397.216316 184.150978 
L 1401.433912 182.993756 
L 1402.250062 182.844021 
L 1403.052494 182.540776 
L 1403.841662 182.302466 
L 1403.946948 182.300602 
L 1404.617997 182.141937 
L 1405.381911 181.996038 
L 1406.133794 181.724071 
L 1406.874019 181.385553 
L 1407.602943 181.17146 
L 1408.320905 181.030519 
L 1409.02823 180.790109 
L 1409.725229 180.584575 
L 1410.412199 180.340159 
L 1410.67758 180.213029 
L 1411.089424 180.091332 
L 1411.757177 179.738998 
L 1412.41572 179.446291 
L 1413.065303 179.291173 
L 1413.706166 178.998208 
L 1414.33854 178.902455 
L 1414.962648 178.704455 
L 1415.578703 178.420667 
L 1416.18691 178.073893 
L 1416.787466 177.865325 
L 1417.380561 177.503939 
L 1417.408212 177.503242 
L 1417.96638 177.348812 
L 1418.545097 176.975214 
L 1419.116883 176.97009 
L 1419.681902 176.631936 
L 1420.240313 176.465511 
L 1420.792268 176.089395 
L 1424.138844 174.302401 
L 1430.869477 170.609134 
L 1437.600109 166.212925 
L 1444.330741 160.769597 
L 1451.061373 153.963118 
L 1457.792005 146.030828 
L 1464.522637 136.248321 
L 1471.253269 124.616233 
L 1477.983901 110.626094 
L 1484.714533 94.256806 
L 1491.445165 74.752475 
L 1498.175797 50.929612 
L 1504.906429 23.364835 
L 1509.837333 -1 
" style="fill:none;stroke:#dd8452;stroke-linecap:round;stroke-width:5;"/>
   </g>
   <g id="line2d_153">
    <path clip-path="url(#pb6f02922bd)" d="M 1282.795571 190.473281 
L 1289.526203 190.473281 
L 1296.256835 190.47328 
L 1302.987467 190.473278 
L 1309.718099 190.473269 
L 1316.448731 190.47324 
L 1323.179363 190.47315 
L 1329.909995 190.472878 
L 1336.640627 190.472089 
L 1343.37126 190.469916 
L 1350.101892 190.464236 
L 1356.832524 190.450217 
L 1363.563156 190.417578 
L 1370.293788 190.345611 
L 1377.02442 190.193671 
L 1383.755052 189.879667 
L 1390.485684 189.220489 
L 1397.216316 187.827824 
L 1401.433912 186.616099 
L 1402.250062 186.375267 
L 1403.052494 186.130798 
L 1403.841662 185.875901 
L 1403.946948 185.840294 
L 1404.617997 185.60086 
L 1405.381911 185.290896 
L 1406.133794 184.9206 
L 1406.874019 184.436866 
L 1407.602943 183.682373 
L 1408.320905 181.396736 
L 1409.02823 181.38966 
L 1409.725229 181.398182 
L 1410.412199 181.390746 
L 1410.67758 181.360464 
L 1411.089424 181.382639 
L 1411.757177 181.263252 
L 1412.41572 181.225575 
L 1413.065303 181.301728 
L 1413.706166 181.246435 
L 1414.33854 181.379049 
L 1414.962648 181.411552 
L 1415.578703 181.37931 
L 1416.18691 181.298137 
L 1416.787466 181.320293 
L 1417.380561 181.233805 
L 1417.408212 181.240038 
L 1417.96638 181.306643 
L 1418.545097 181.21738 
L 1419.116883 181.393956 
L 1419.681902 181.329755 
L 1420.240313 181.390399 
L 1420.792268 181.304299 
L 1424.138844 181.20445 
L 1430.869477 181.260468 
L 1437.600109 181.338316 
L 1444.330741 181.350072 
L 1451.061373 181.29149 
L 1457.792005 181.31937 
L 1464.522637 181.283919 
L 1471.253269 181.277082 
L 1477.983901 181.262895 
L 1484.714533 181.284123 
L 1491.445165 181.302805 
L 1498.175797 181.249132 
L 1504.906429 181.25046 
L 1511.637061 181.222472 
L 1518.367694 181.23643 
L 1525.098326 181.229493 
L 1531.828958 181.21921 
L 1538.55959 181.198845 
L 1545.290222 181.201706 
L 1552.020854 181.194045 
L 1558.751486 181.179281 
L 1565.482118 181.179291 
L 1572.21275 181.176961 
L 1578.943382 181.160555 
L 1585.674014 181.159738 
L 1592.404646 181.140009 
L 1599.135278 181.131762 
L 1605.865911 181.118974 
L 1612.596543 181.108228 
" style="fill:none;stroke:#55a868;stroke-linecap:round;stroke-width:5;"/>
   </g>
   <g id="patch_18">
    <path d="M 1282.795571 248.778281 
L 1282.795571 15.558281 
" style="fill:none;stroke:#262626;stroke-linecap:square;stroke-linejoin:miter;stroke-width:2.5;"/>
   </g>
   <g id="patch_19">
    <path d="M 1612.596543 248.778281 
L 1612.596543 15.558281 
" style="fill:none;stroke:#262626;stroke-linecap:square;stroke-linejoin:miter;stroke-width:2.5;"/>
   </g>
   <g id="patch_20">
    <path d="M 1282.795571 248.778281 
L 1612.596543 248.778281 
" style="fill:none;stroke:#262626;stroke-linecap:square;stroke-linejoin:miter;stroke-width:2.5;"/>
   </g>
   <g id="patch_21">
    <path d="M 1282.795571 15.558281 
L 1612.596543 15.558281 
" style="fill:none;stroke:#262626;stroke-linecap:square;stroke-linejoin:miter;stroke-width:2.5;"/>
   </g>
   <g id="line2d_154">
    <path clip-path="url(#pb6f02922bd)" d="M 1282.795571 190.473281 
L 1612.596543 190.473281 
" style="fill:none;stroke:#1a1a1a;stroke-dasharray:7.4,3.2;stroke-dashoffset:0;stroke-width:2;"/>
   </g>
   <g id="line2d_155">
    <path clip-path="url(#pb6f02922bd)" d="M 1392.729228 248.778281 
L 1392.729228 15.558281 
" style="fill:none;stroke:#1a1a1a;stroke-dasharray:7.4,3.2;stroke-dashoffset:0;stroke-width:2;"/>
   </g>
  </g>
  <g id="legend_1">
   <g id="text_27">
    <!-- readout -->
    <g style="fill:#262626;" transform="translate(1477.501875 118.183516)scale(0.24 -0.24)">
     <defs>
      <path d="M 34.28125 27.484375 
Q 23.390625 27.484375 19.1875 25 
Q 14.984375 22.515625 14.984375 16.5 
Q 14.984375 11.71875 18.140625 8.90625 
Q 21.296875 6.109375 26.703125 6.109375 
Q 34.1875 6.109375 38.703125 11.40625 
Q 43.21875 16.703125 43.21875 25.484375 
L 43.21875 27.484375 
z
M 52.203125 31.203125 
L 52.203125 0 
L 43.21875 0 
L 43.21875 8.296875 
Q 40.140625 3.328125 35.546875 0.953125 
Q 30.953125 -1.421875 24.3125 -1.421875 
Q 15.921875 -1.421875 10.953125 3.296875 
Q 6 8.015625 6 15.921875 
Q 6 25.140625 12.171875 29.828125 
Q 18.359375 34.515625 30.609375 34.515625 
L 43.21875 34.515625 
L 43.21875 35.40625 
Q 43.21875 41.609375 39.140625 45 
Q 35.0625 48.390625 27.6875 48.390625 
Q 23 48.390625 18.546875 47.265625 
Q 14.109375 46.140625 10.015625 43.890625 
L 10.015625 52.203125 
Q 14.9375 54.109375 19.578125 55.046875 
Q 24.21875 56 28.609375 56 
Q 40.484375 56 46.34375 49.84375 
Q 52.203125 43.703125 52.203125 31.203125 
z
" id="DejaVuSans-97"/>
      <path d="M 45.40625 46.390625 
L 45.40625 75.984375 
L 54.390625 75.984375 
L 54.390625 0 
L 45.40625 0 
L 45.40625 8.203125 
Q 42.578125 3.328125 38.25 0.953125 
Q 33.9375 -1.421875 27.875 -1.421875 
Q 17.96875 -1.421875 11.734375 6.484375 
Q 5.515625 14.40625 5.515625 27.296875 
Q 5.515625 40.1875 11.734375 48.09375 
Q 17.96875 56 27.875 56 
Q 33.9375 56 38.25 53.625 
Q 42.578125 51.265625 45.40625 46.390625 
z
M 14.796875 27.296875 
Q 14.796875 17.390625 18.875 11.75 
Q 22.953125 6.109375 30.078125 6.109375 
Q 37.203125 6.109375 41.296875 11.75 
Q 45.40625 17.390625 45.40625 27.296875 
Q 45.40625 37.203125 41.296875 42.84375 
Q 37.203125 48.484375 30.078125 48.484375 
Q 22.953125 48.484375 18.875 42.84375 
Q 14.796875 37.203125 14.796875 27.296875 
z
" id="DejaVuSans-100"/>
      <path d="M 8.5 21.578125 
L 8.5 54.6875 
L 17.484375 54.6875 
L 17.484375 21.921875 
Q 17.484375 14.15625 20.5 10.265625 
Q 23.53125 6.390625 29.59375 6.390625 
Q 36.859375 6.390625 41.078125 11.03125 
Q 45.3125 15.671875 45.3125 23.6875 
L 45.3125 54.6875 
L 54.296875 54.6875 
L 54.296875 0 
L 45.3125 0 
L 45.3125 8.40625 
Q 42.046875 3.421875 37.71875 1 
Q 33.40625 -1.421875 27.6875 -1.421875 
Q 18.265625 -1.421875 13.375 4.4375 
Q 8.5 10.296875 8.5 21.578125 
z
M 31.109375 56 
z
" id="DejaVuSans-117"/>
     </defs>
     <use xlink:href="#DejaVuSans-114"/>
     <use x="38.863281" xlink:href="#DejaVuSans-101"/>
     <use x="100.386719" xlink:href="#DejaVuSans-97"/>
     <use x="161.666016" xlink:href="#DejaVuSans-100"/>
     <use x="225.142578" xlink:href="#DejaVuSans-111"/>
     <use x="286.324219" xlink:href="#DejaVuSans-117"/>
     <use x="349.703125" xlink:href="#DejaVuSans-116"/>
    </g>
   </g>
   <g id="line2d_156">
    <path d="M 1414.464688 143.191328 
L 1458.464688 143.191328 
" style="fill:none;stroke:#4c72b0;stroke-linecap:round;stroke-width:5;"/>
   </g>
   <g id="line2d_157"/>
   <g id="text_28">
    <!-- Peak Height -->
    <g style="fill:#262626;" transform="translate(1476.064687 150.891328)scale(0.22 -0.22)">
     <defs>
      <path d="M 19.671875 64.796875 
L 19.671875 37.40625 
L 32.078125 37.40625 
Q 38.96875 37.40625 42.71875 40.96875 
Q 46.484375 44.53125 46.484375 51.125 
Q 46.484375 57.671875 42.71875 61.234375 
Q 38.96875 64.796875 32.078125 64.796875 
z
M 9.8125 72.90625 
L 32.078125 72.90625 
Q 44.34375 72.90625 50.609375 67.359375 
Q 56.890625 61.8125 56.890625 51.125 
Q 56.890625 40.328125 50.609375 34.8125 
Q 44.34375 29.296875 32.078125 29.296875 
L 19.671875 29.296875 
L 19.671875 0 
L 9.8125 0 
z
" id="DejaVuSans-80"/>
      <path d="M 9.078125 75.984375 
L 18.109375 75.984375 
L 18.109375 31.109375 
L 44.921875 54.6875 
L 56.390625 54.6875 
L 27.390625 29.109375 
L 57.625 0 
L 45.90625 0 
L 18.109375 26.703125 
L 18.109375 0 
L 9.078125 0 
z
" id="DejaVuSans-107"/>
      <path d="M 9.8125 72.90625 
L 19.671875 72.90625 
L 19.671875 43.015625 
L 55.515625 43.015625 
L 55.515625 72.90625 
L 65.375 72.90625 
L 65.375 0 
L 55.515625 0 
L 55.515625 34.71875 
L 19.671875 34.71875 
L 19.671875 0 
L 9.8125 0 
z
" id="DejaVuSans-72"/>
      <path d="M 45.40625 27.984375 
Q 45.40625 37.75 41.375 43.109375 
Q 37.359375 48.484375 30.078125 48.484375 
Q 22.859375 48.484375 18.828125 43.109375 
Q 14.796875 37.75 14.796875 27.984375 
Q 14.796875 18.265625 18.828125 12.890625 
Q 22.859375 7.515625 30.078125 7.515625 
Q 37.359375 7.515625 41.375 12.890625 
Q 45.40625 18.265625 45.40625 27.984375 
z
M 54.390625 6.78125 
Q 54.390625 -7.171875 48.1875 -13.984375 
Q 42 -20.796875 29.203125 -20.796875 
Q 24.46875 -20.796875 20.265625 -20.09375 
Q 16.0625 -19.390625 12.109375 -17.921875 
L 12.109375 -9.1875 
Q 16.0625 -11.328125 19.921875 -12.34375 
Q 23.78125 -13.375 27.78125 -13.375 
Q 36.625 -13.375 41.015625 -8.765625 
Q 45.40625 -4.15625 45.40625 5.171875 
L 45.40625 9.625 
Q 42.625 4.78125 38.28125 2.390625 
Q 33.9375 0 27.875 0 
Q 17.828125 0 11.671875 7.65625 
Q 5.515625 15.328125 5.515625 27.984375 
Q 5.515625 40.671875 11.671875 48.328125 
Q 17.828125 56 27.875 56 
Q 33.9375 56 38.28125 53.609375 
Q 42.625 51.21875 45.40625 46.390625 
L 45.40625 54.6875 
L 54.390625 54.6875 
z
" id="DejaVuSans-103"/>
      <path d="M 54.890625 33.015625 
L 54.890625 0 
L 45.90625 0 
L 45.90625 32.71875 
Q 45.90625 40.484375 42.875 44.328125 
Q 39.84375 48.1875 33.796875 48.1875 
Q 26.515625 48.1875 22.3125 43.546875 
Q 18.109375 38.921875 18.109375 30.90625 
L 18.109375 0 
L 9.078125 0 
L 9.078125 75.984375 
L 18.109375 75.984375 
L 18.109375 46.1875 
Q 21.34375 51.125 25.703125 53.5625 
Q 30.078125 56 35.796875 56 
Q 45.21875 56 50.046875 50.171875 
Q 54.890625 44.34375 54.890625 33.015625 
z
" id="DejaVuSans-104"/>
     </defs>
     <use xlink:href="#DejaVuSans-80"/>
     <use x="56.677734" xlink:href="#DejaVuSans-101"/>
     <use x="118.201172" xlink:href="#DejaVuSans-97"/>
     <use x="179.480469" xlink:href="#DejaVuSans-107"/>
     <use x="237.390625" xlink:href="#DejaVuSans-32"/>
     <use x="269.177734" xlink:href="#DejaVuSans-72"/>
     <use x="344.373047" xlink:href="#DejaVuSans-101"/>
     <use x="405.896484" xlink:href="#DejaVuSans-105"/>
     <use x="433.679688" xlink:href="#DejaVuSans-103"/>
     <use x="497.15625" xlink:href="#DejaVuSans-104"/>
     <use x="560.535156" xlink:href="#DejaVuSans-116"/>
    </g>
   </g>
   <g id="line2d_158">
    <path d="M 1414.464688 175.483203 
L 1458.464688 175.483203 
" style="fill:none;stroke:#dd8452;stroke-linecap:round;stroke-width:5;"/>
   </g>
   <g id="line2d_159"/>
   <g id="text_29">
    <!-- Response Size -->
    <g style="fill:#262626;" transform="translate(1476.064687 183.183203)scale(0.22 -0.22)">
     <defs>
      <path d="M 44.390625 34.1875 
Q 47.5625 33.109375 50.5625 29.59375 
Q 53.5625 26.078125 56.59375 19.921875 
L 66.609375 0 
L 56 0 
L 46.6875 18.703125 
Q 43.0625 26.03125 39.671875 28.421875 
Q 36.28125 30.8125 30.421875 30.8125 
L 19.671875 30.8125 
L 19.671875 0 
L 9.8125 0 
L 9.8125 72.90625 
L 32.078125 72.90625 
Q 44.578125 72.90625 50.734375 67.671875 
Q 56.890625 62.453125 56.890625 51.90625 
Q 56.890625 45.015625 53.6875 40.46875 
Q 50.484375 35.9375 44.390625 34.1875 
z
M 19.671875 64.796875 
L 19.671875 38.921875 
L 32.078125 38.921875 
Q 39.203125 38.921875 42.84375 42.21875 
Q 46.484375 45.515625 46.484375 51.90625 
Q 46.484375 58.296875 42.84375 61.546875 
Q 39.203125 64.796875 32.078125 64.796875 
z
" id="DejaVuSans-82"/>
      <path d="M 54.890625 33.015625 
L 54.890625 0 
L 45.90625 0 
L 45.90625 32.71875 
Q 45.90625 40.484375 42.875 44.328125 
Q 39.84375 48.1875 33.796875 48.1875 
Q 26.515625 48.1875 22.3125 43.546875 
Q 18.109375 38.921875 18.109375 30.90625 
L 18.109375 0 
L 9.078125 0 
L 9.078125 54.6875 
L 18.109375 54.6875 
L 18.109375 46.1875 
Q 21.34375 51.125 25.703125 53.5625 
Q 30.078125 56 35.796875 56 
Q 45.21875 56 50.046875 50.171875 
Q 54.890625 44.34375 54.890625 33.015625 
z
" id="DejaVuSans-110"/>
      <path d="M 53.515625 70.515625 
L 53.515625 60.890625 
Q 47.90625 63.578125 42.921875 64.890625 
Q 37.9375 66.21875 33.296875 66.21875 
Q 25.25 66.21875 20.875 63.09375 
Q 16.5 59.96875 16.5 54.203125 
Q 16.5 49.359375 19.40625 46.890625 
Q 22.3125 44.4375 30.421875 42.921875 
L 36.375 41.703125 
Q 47.40625 39.59375 52.65625 34.296875 
Q 57.90625 29 57.90625 20.125 
Q 57.90625 9.515625 50.796875 4.046875 
Q 43.703125 -1.421875 29.984375 -1.421875 
Q 24.8125 -1.421875 18.96875 -0.25 
Q 13.140625 0.921875 6.890625 3.21875 
L 6.890625 13.375 
Q 12.890625 10.015625 18.65625 8.296875 
Q 24.421875 6.59375 29.984375 6.59375 
Q 38.421875 6.59375 43.015625 9.90625 
Q 47.609375 13.234375 47.609375 19.390625 
Q 47.609375 24.75 44.3125 27.78125 
Q 41.015625 30.8125 33.5 32.328125 
L 27.484375 33.5 
Q 16.453125 35.6875 11.515625 40.375 
Q 6.59375 45.0625 6.59375 53.421875 
Q 6.59375 63.09375 13.40625 68.65625 
Q 20.21875 74.21875 32.171875 74.21875 
Q 37.3125 74.21875 42.625 73.28125 
Q 47.953125 72.359375 53.515625 70.515625 
z
" id="DejaVuSans-83"/>
     </defs>
     <use xlink:href="#DejaVuSans-82"/>
     <use x="64.982422" xlink:href="#DejaVuSans-101"/>
     <use x="126.505859" xlink:href="#DejaVuSans-115"/>
     <use x="178.605469" xlink:href="#DejaVuSans-112"/>
     <use x="242.082031" xlink:href="#DejaVuSans-111"/>
     <use x="303.263672" xlink:href="#DejaVuSans-110"/>
     <use x="366.642578" xlink:href="#DejaVuSans-115"/>
     <use x="418.742188" xlink:href="#DejaVuSans-101"/>
     <use x="480.265625" xlink:href="#DejaVuSans-32"/>
     <use x="512.052734" xlink:href="#DejaVuSans-83"/>
     <use x="575.529297" xlink:href="#DejaVuSans-105"/>
     <use x="603.3125" xlink:href="#DejaVuSans-122"/>
     <use x="655.802734" xlink:href="#DejaVuSans-101"/>
    </g>
   </g>
   <g id="line2d_160">
    <path d="M 1414.464688 207.775078 
L 1458.464688 207.775078 
" style="fill:none;stroke:#55a868;stroke-linecap:round;stroke-width:5;"/>
   </g>
   <g id="line2d_161"/>
   <g id="text_30">
    <!-- Peak Time -->
    <g style="fill:#262626;" transform="translate(1476.064687 215.475078)scale(0.22 -0.22)">
     <defs>
      <path d="M -0.296875 72.90625 
L 61.375 72.90625 
L 61.375 64.59375 
L 35.5 64.59375 
L 35.5 0 
L 25.59375 0 
L 25.59375 64.59375 
L -0.296875 64.59375 
z
" id="DejaVuSans-84"/>
      <path d="M 52 44.1875 
Q 55.375 50.25 60.0625 53.125 
Q 64.75 56 71.09375 56 
Q 79.640625 56 84.28125 50.015625 
Q 88.921875 44.046875 88.921875 33.015625 
L 88.921875 0 
L 79.890625 0 
L 79.890625 32.71875 
Q 79.890625 40.578125 77.09375 44.375 
Q 74.3125 48.1875 68.609375 48.1875 
Q 61.625 48.1875 57.5625 43.546875 
Q 53.515625 38.921875 53.515625 30.90625 
L 53.515625 0 
L 44.484375 0 
L 44.484375 32.71875 
Q 44.484375 40.625 41.703125 44.40625 
Q 38.921875 48.1875 33.109375 48.1875 
Q 26.21875 48.1875 22.15625 43.53125 
Q 18.109375 38.875 18.109375 30.90625 
L 18.109375 0 
L 9.078125 0 
L 9.078125 54.6875 
L 18.109375 54.6875 
L 18.109375 46.1875 
Q 21.1875 51.21875 25.484375 53.609375 
Q 29.78125 56 35.6875 56 
Q 41.65625 56 45.828125 52.96875 
Q 50 49.953125 52 44.1875 
z
" id="DejaVuSans-109"/>
     </defs>
     <use xlink:href="#DejaVuSans-80"/>
     <use x="56.677734" xlink:href="#DejaVuSans-101"/>
     <use x="118.201172" xlink:href="#DejaVuSans-97"/>
     <use x="179.480469" xlink:href="#DejaVuSans-107"/>
     <use x="237.390625" xlink:href="#DejaVuSans-32"/>
     <use x="269.177734" xlink:href="#DejaVuSans-84"/>
     <use x="327.136719" xlink:href="#DejaVuSans-105"/>
     <use x="354.919922" xlink:href="#DejaVuSans-109"/>
     <use x="452.332031" xlink:href="#DejaVuSans-101"/>
    </g>
   </g>
  </g>
 </g>
 <defs>
  <clipPath id="p2c5137750a">
   <rect height="233.22" width="329.800972" x="82.360313" y="15.558281"/>
  </clipPath>
  <clipPath id="pdb5d0a88bc">
   <rect height="233.22" width="329.800972" x="482.505399" y="15.558281"/>
  </clipPath>
  <clipPath id="pb96c229a06">
   <rect height="233.22" width="329.800972" x="882.650485" y="15.558281"/>
  </clipPath>
  <clipPath id="pb6f02922bd">
   <rect height="233.22" width="329.800972" x="1282.795571" y="15.558281"/>
  </clipPath>
 </defs>
</svg>
