<?xml version="1.0" encoding="utf-8" standalone="no"?>
<!DOCTYPE svg PUBLIC "-//W3C//DTD SVG 1.1//EN"
  "http://www.w3.org/Graphics/SVG/1.1/DTD/svg11.dtd">
<!-- Created with matplotlib (https://matplotlib.org/) -->
<svg height="319.997656pt" version="1.1" viewBox="0 0 1653.680313 319.997656" width="1653.680313pt" xmlns="http://www.w3.org/2000/svg" xmlns:xlink="http://www.w3.org/1999/xlink">
 <metadata>
  <rdf:RDF xmlns:cc="http://creativecommons.org/ns#" xmlns:dc="http://purl.org/dc/elements/1.1/" xmlns:rdf="http://www.w3.org/1999/02/22-rdf-syntax-ns#">
   <cc:Work>
    <dc:type rdf:resource="http://purl.org/dc/dcmitype/StillImage"/>
    <dc:date>2021-11-29T12:12:56.373619</dc:date>
    <dc:format>image/svg+xml</dc:format>
    <dc:creator>
     <cc:Agent>
      <dc:title>Matplotlib v3.3.2, https://matplotlib.org/</dc:title>
     </cc:Agent>
    </dc:creator>
   </cc:Work>
  </rdf:RDF>
 </metadata>
 <defs>
  <style type="text/css">*{stroke-linecap:butt;stroke-linejoin:round;}</style>
 </defs>
 <g id="figure_1">
  <g id="patch_1">
   <path d="M 0 319.997656 
L 1653.680313 319.997656 
L 1653.680313 0 
L 0 0 
z
" style="fill:#ffffff;"/>
  </g>
  <g id="axes_1">
   <g id="patch_2">
    <path d="M 82.360313 248.778281 
L 412.161284 248.778281 
L 412.161284 15.558281 
L 82.360313 15.558281 
z
" style="fill:#ffffff;"/>
   </g>
   <g id="matplotlib.axis_1">
    <g id="xtick_1">
     <g id="line2d_1">
      <defs>
       <path d="M 0 0 
L 0 12 
" id="m7de50b2ed9" style="stroke:#262626;stroke-width:2.5;"/>
      </defs>
      <g>
       <use style="fill:#262626;stroke:#262626;stroke-width:2.5;" x="82.360313" xlink:href="#m7de50b2ed9" y="248.778281"/>
      </g>
     </g>
     <g id="text_1">
      <!-- $\mathdefault{10^{-1}}$ -->
      <g style="fill:#262626;" transform="translate(56.510313 280.994844)scale(0.22 -0.22)">
       <defs>
        <path d="M 12.40625 8.296875 
L 28.515625 8.296875 
L 28.515625 63.921875 
L 10.984375 60.40625 
L 10.984375 69.390625 
L 28.421875 72.90625 
L 38.28125 72.90625 
L 38.28125 8.296875 
L 54.390625 8.296875 
L 54.390625 0 
L 12.40625 0 
z
" id="DejaVuSans-49"/>
        <path d="M 31.78125 66.40625 
Q 24.171875 66.40625 20.328125 58.90625 
Q 16.5 51.421875 16.5 36.375 
Q 16.5 21.390625 20.328125 13.890625 
Q 24.171875 6.390625 31.78125 6.390625 
Q 39.453125 6.390625 43.28125 13.890625 
Q 47.125 21.390625 47.125 36.375 
Q 47.125 51.421875 43.28125 58.90625 
Q 39.453125 66.40625 31.78125 66.40625 
z
M 31.78125 74.21875 
Q 44.046875 74.21875 50.515625 64.515625 
Q 56.984375 54.828125 56.984375 36.375 
Q 56.984375 17.96875 50.515625 8.265625 
Q 44.046875 -1.421875 31.78125 -1.421875 
Q 19.53125 -1.421875 13.0625 8.265625 
Q 6.59375 17.96875 6.59375 36.375 
Q 6.59375 54.828125 13.0625 64.515625 
Q 19.53125 74.21875 31.78125 74.21875 
z
" id="DejaVuSans-48"/>
        <path d="M 10.59375 35.5 
L 73.1875 35.5 
L 73.1875 27.203125 
L 10.59375 27.203125 
z
" id="DejaVuSans-8722"/>
       </defs>
       <use transform="translate(0 0.684375)" xlink:href="#DejaVuSans-49"/>
       <use transform="translate(63.623047 0.684375)" xlink:href="#DejaVuSans-48"/>
       <use transform="translate(128.203125 38.965625)scale(0.7)" xlink:href="#DejaVuSans-8722"/>
       <use transform="translate(186.855469 38.965625)scale(0.7)" xlink:href="#DejaVuSans-49"/>
      </g>
     </g>
    </g>
    <g id="xtick_2">
     <g id="line2d_2">
      <g>
       <use style="fill:#262626;stroke:#262626;stroke-width:2.5;" x="192.29397" xlink:href="#m7de50b2ed9" y="248.778281"/>
      </g>
     </g>
     <g id="text_2">
      <!-- $\mathdefault{10^{0}}$ -->
      <g style="fill:#262626;" transform="translate(172.93397 280.994844)scale(0.22 -0.22)">
       <use transform="translate(0 0.765625)" xlink:href="#DejaVuSans-49"/>
       <use transform="translate(63.623047 0.765625)" xlink:href="#DejaVuSans-48"/>
       <use transform="translate(128.203125 39.046875)scale(0.7)" xlink:href="#DejaVuSans-48"/>
      </g>
     </g>
    </g>
    <g id="xtick_3">
     <g id="line2d_3">
      <g>
       <use style="fill:#262626;stroke:#262626;stroke-width:2.5;" x="302.227627" xlink:href="#m7de50b2ed9" y="248.778281"/>
      </g>
     </g>
     <g id="text_3">
      <!-- $\mathdefault{10^{1}}$ -->
      <g style="fill:#262626;" transform="translate(282.867627 280.994844)scale(0.22 -0.22)">
       <use transform="translate(0 0.684375)" xlink:href="#DejaVuSans-49"/>
       <use transform="translate(63.623047 0.684375)" xlink:href="#DejaVuSans-48"/>
       <use transform="translate(128.203125 38.965625)scale(0.7)" xlink:href="#DejaVuSans-49"/>
      </g>
     </g>
    </g>
    <g id="xtick_4">
     <g id="line2d_4">
      <g>
       <use style="fill:#262626;stroke:#262626;stroke-width:2.5;" x="412.161284" xlink:href="#m7de50b2ed9" y="248.778281"/>
      </g>
     </g>
     <g id="text_4">
      <!-- $\mathdefault{10^{2}}$ -->
      <g style="fill:#262626;" transform="translate(392.801284 280.994844)scale(0.22 -0.22)">
       <defs>
        <path d="M 19.1875 8.296875 
L 53.609375 8.296875 
L 53.609375 0 
L 7.328125 0 
L 7.328125 8.296875 
Q 12.9375 14.109375 22.625 23.890625 
Q 32.328125 33.6875 34.8125 36.53125 
Q 39.546875 41.84375 41.421875 45.53125 
Q 43.3125 49.21875 43.3125 52.78125 
Q 43.3125 58.59375 39.234375 62.25 
Q 35.15625 65.921875 28.609375 65.921875 
Q 23.96875 65.921875 18.8125 64.3125 
Q 13.671875 62.703125 7.8125 59.421875 
L 7.8125 69.390625 
Q 13.765625 71.78125 18.9375 73 
Q 24.125 74.21875 28.421875 74.21875 
Q 39.75 74.21875 46.484375 68.546875 
Q 53.21875 62.890625 53.21875 53.421875 
Q 53.21875 48.921875 51.53125 44.890625 
Q 49.859375 40.875 45.40625 35.40625 
Q 44.1875 33.984375 37.640625 27.21875 
Q 31.109375 20.453125 19.1875 8.296875 
z
" id="DejaVuSans-50"/>
       </defs>
       <use transform="translate(0 0.765625)" xlink:href="#DejaVuSans-49"/>
       <use transform="translate(63.623047 0.765625)" xlink:href="#DejaVuSans-48"/>
       <use transform="translate(128.203125 39.046875)scale(0.7)" xlink:href="#DejaVuSans-50"/>
      </g>
     </g>
    </g>
    <g id="xtick_5">
     <g id="line2d_5">
      <defs>
       <path d="M 0 0 
L 0 8 
" id="m90fb0812bd" style="stroke:#262626;stroke-width:2;"/>
      </defs>
      <g>
       <use style="fill:#262626;stroke:#262626;stroke-width:2;" x="115.453641" xlink:href="#m90fb0812bd" y="248.778281"/>
      </g>
     </g>
    </g>
    <g id="xtick_6">
     <g id="line2d_6">
      <g>
       <use style="fill:#262626;stroke:#262626;stroke-width:2;" x="134.811997" xlink:href="#m90fb0812bd" y="248.778281"/>
      </g>
     </g>
    </g>
    <g id="xtick_7">
     <g id="line2d_7">
      <g>
       <use style="fill:#262626;stroke:#262626;stroke-width:2;" x="148.546969" xlink:href="#m90fb0812bd" y="248.778281"/>
      </g>
     </g>
    </g>
    <g id="xtick_8">
     <g id="line2d_8">
      <g>
       <use style="fill:#262626;stroke:#262626;stroke-width:2;" x="159.200641" xlink:href="#m90fb0812bd" y="248.778281"/>
      </g>
     </g>
    </g>
    <g id="xtick_9">
     <g id="line2d_9">
      <g>
       <use style="fill:#262626;stroke:#262626;stroke-width:2;" x="167.905325" xlink:href="#m90fb0812bd" y="248.778281"/>
      </g>
     </g>
    </g>
    <g id="xtick_10">
     <g id="line2d_10">
      <g>
       <use style="fill:#262626;stroke:#262626;stroke-width:2;" x="175.265031" xlink:href="#m90fb0812bd" y="248.778281"/>
      </g>
     </g>
    </g>
    <g id="xtick_11">
     <g id="line2d_11">
      <g>
       <use style="fill:#262626;stroke:#262626;stroke-width:2;" x="181.640298" xlink:href="#m90fb0812bd" y="248.778281"/>
      </g>
     </g>
    </g>
    <g id="xtick_12">
     <g id="line2d_12">
      <g>
       <use style="fill:#262626;stroke:#262626;stroke-width:2;" x="187.263681" xlink:href="#m90fb0812bd" y="248.778281"/>
      </g>
     </g>
    </g>
    <g id="xtick_13">
     <g id="line2d_13">
      <g>
       <use style="fill:#262626;stroke:#262626;stroke-width:2;" x="225.387298" xlink:href="#m90fb0812bd" y="248.778281"/>
      </g>
     </g>
    </g>
    <g id="xtick_14">
     <g id="line2d_14">
      <g>
       <use style="fill:#262626;stroke:#262626;stroke-width:2;" x="244.745654" xlink:href="#m90fb0812bd" y="248.778281"/>
      </g>
     </g>
    </g>
    <g id="xtick_15">
     <g id="line2d_15">
      <g>
       <use style="fill:#262626;stroke:#262626;stroke-width:2;" x="258.480626" xlink:href="#m90fb0812bd" y="248.778281"/>
      </g>
     </g>
    </g>
    <g id="xtick_16">
     <g id="line2d_16">
      <g>
       <use style="fill:#262626;stroke:#262626;stroke-width:2;" x="269.134299" xlink:href="#m90fb0812bd" y="248.778281"/>
      </g>
     </g>
    </g>
    <g id="xtick_17">
     <g id="line2d_17">
      <g>
       <use style="fill:#262626;stroke:#262626;stroke-width:2;" x="277.838983" xlink:href="#m90fb0812bd" y="248.778281"/>
      </g>
     </g>
    </g>
    <g id="xtick_18">
     <g id="line2d_18">
      <g>
       <use style="fill:#262626;stroke:#262626;stroke-width:2;" x="285.198688" xlink:href="#m90fb0812bd" y="248.778281"/>
      </g>
     </g>
    </g>
    <g id="xtick_19">
     <g id="line2d_19">
      <g>
       <use style="fill:#262626;stroke:#262626;stroke-width:2;" x="291.573955" xlink:href="#m90fb0812bd" y="248.778281"/>
      </g>
     </g>
    </g>
    <g id="xtick_20">
     <g id="line2d_20">
      <g>
       <use style="fill:#262626;stroke:#262626;stroke-width:2;" x="297.197339" xlink:href="#m90fb0812bd" y="248.778281"/>
      </g>
     </g>
    </g>
    <g id="xtick_21">
     <g id="line2d_21">
      <g>
       <use style="fill:#262626;stroke:#262626;stroke-width:2;" x="335.320955" xlink:href="#m90fb0812bd" y="248.778281"/>
      </g>
     </g>
    </g>
    <g id="xtick_22">
     <g id="line2d_22">
      <g>
       <use style="fill:#262626;stroke:#262626;stroke-width:2;" x="354.679311" xlink:href="#m90fb0812bd" y="248.778281"/>
      </g>
     </g>
    </g>
    <g id="xtick_23">
     <g id="line2d_23">
      <g>
       <use style="fill:#262626;stroke:#262626;stroke-width:2;" x="368.414284" xlink:href="#m90fb0812bd" y="248.778281"/>
      </g>
     </g>
    </g>
    <g id="xtick_24">
     <g id="line2d_24">
      <g>
       <use style="fill:#262626;stroke:#262626;stroke-width:2;" x="379.067956" xlink:href="#m90fb0812bd" y="248.778281"/>
      </g>
     </g>
    </g>
    <g id="xtick_25">
     <g id="line2d_25">
      <g>
       <use style="fill:#262626;stroke:#262626;stroke-width:2;" x="387.77264" xlink:href="#m90fb0812bd" y="248.778281"/>
      </g>
     </g>
    </g>
    <g id="xtick_26">
     <g id="line2d_26">
      <g>
       <use style="fill:#262626;stroke:#262626;stroke-width:2;" x="395.132345" xlink:href="#m90fb0812bd" y="248.778281"/>
      </g>
     </g>
    </g>
    <g id="xtick_27">
     <g id="line2d_27">
      <g>
       <use style="fill:#262626;stroke:#262626;stroke-width:2;" x="401.507612" xlink:href="#m90fb0812bd" y="248.778281"/>
      </g>
     </g>
    </g>
    <g id="xtick_28">
     <g id="line2d_28">
      <g>
       <use style="fill:#262626;stroke:#262626;stroke-width:2;" x="407.130996" xlink:href="#m90fb0812bd" y="248.778281"/>
      </g>
     </g>
    </g>
    <g id="text_5">
     <!-- prolif. effectors -->
     <g style="fill:#262626;" transform="translate(156.942048 307.806406)scale(0.24 -0.24)">
      <defs>
       <path d="M 18.109375 8.203125 
L 18.109375 -20.796875 
L 9.078125 -20.796875 
L 9.078125 54.6875 
L 18.109375 54.6875 
L 18.109375 46.390625 
Q 20.953125 51.265625 25.265625 53.625 
Q 29.59375 56 35.59375 56 
Q 45.5625 56 51.78125 48.09375 
Q 58.015625 40.1875 58.015625 27.296875 
Q 58.015625 14.40625 51.78125 6.484375 
Q 45.5625 -1.421875 35.59375 -1.421875 
Q 29.59375 -1.421875 25.265625 0.953125 
Q 20.953125 3.328125 18.109375 8.203125 
z
M 48.6875 27.296875 
Q 48.6875 37.203125 44.609375 42.84375 
Q 40.53125 48.484375 33.40625 48.484375 
Q 26.265625 48.484375 22.1875 42.84375 
Q 18.109375 37.203125 18.109375 27.296875 
Q 18.109375 17.390625 22.1875 11.75 
Q 26.265625 6.109375 33.40625 6.109375 
Q 40.53125 6.109375 44.609375 11.75 
Q 48.6875 17.390625 48.6875 27.296875 
z
" id="DejaVuSans-112"/>
       <path d="M 41.109375 46.296875 
Q 39.59375 47.171875 37.8125 47.578125 
Q 36.03125 48 33.890625 48 
Q 26.265625 48 22.1875 43.046875 
Q 18.109375 38.09375 18.109375 28.8125 
L 18.109375 0 
L 9.078125 0 
L 9.078125 54.6875 
L 18.109375 54.6875 
L 18.109375 46.1875 
Q 20.953125 51.171875 25.484375 53.578125 
Q 30.03125 56 36.53125 56 
Q 37.453125 56 38.578125 55.875 
Q 39.703125 55.765625 41.0625 55.515625 
z
" id="DejaVuSans-114"/>
       <path d="M 30.609375 48.390625 
Q 23.390625 48.390625 19.1875 42.75 
Q 14.984375 37.109375 14.984375 27.296875 
Q 14.984375 17.484375 19.15625 11.84375 
Q 23.34375 6.203125 30.609375 6.203125 
Q 37.796875 6.203125 41.984375 11.859375 
Q 46.1875 17.53125 46.1875 27.296875 
Q 46.1875 37.015625 41.984375 42.703125 
Q 37.796875 48.390625 30.609375 48.390625 
z
M 30.609375 56 
Q 42.328125 56 49.015625 48.375 
Q 55.71875 40.765625 55.71875 27.296875 
Q 55.71875 13.875 49.015625 6.21875 
Q 42.328125 -1.421875 30.609375 -1.421875 
Q 18.84375 -1.421875 12.171875 6.21875 
Q 5.515625 13.875 5.515625 27.296875 
Q 5.515625 40.765625 12.171875 48.375 
Q 18.84375 56 30.609375 56 
z
" id="DejaVuSans-111"/>
       <path d="M 9.421875 75.984375 
L 18.40625 75.984375 
L 18.40625 0 
L 9.421875 0 
z
" id="DejaVuSans-108"/>
       <path d="M 9.421875 54.6875 
L 18.40625 54.6875 
L 18.40625 0 
L 9.421875 0 
z
M 9.421875 75.984375 
L 18.40625 75.984375 
L 18.40625 64.59375 
L 9.421875 64.59375 
z
" id="DejaVuSans-105"/>
       <path d="M 37.109375 75.984375 
L 37.109375 68.5 
L 28.515625 68.5 
Q 23.6875 68.5 21.796875 66.546875 
Q 19.921875 64.59375 19.921875 59.515625 
L 19.921875 54.6875 
L 34.71875 54.6875 
L 34.71875 47.703125 
L 19.921875 47.703125 
L 19.921875 0 
L 10.890625 0 
L 10.890625 47.703125 
L 2.296875 47.703125 
L 2.296875 54.6875 
L 10.890625 54.6875 
L 10.890625 58.5 
Q 10.890625 67.625 15.140625 71.796875 
Q 19.390625 75.984375 28.609375 75.984375 
z
" id="DejaVuSans-102"/>
       <path d="M 10.6875 12.40625 
L 21 12.40625 
L 21 0 
L 10.6875 0 
z
" id="DejaVuSans-46"/>
       <path id="DejaVuSans-32"/>
       <path d="M 56.203125 29.59375 
L 56.203125 25.203125 
L 14.890625 25.203125 
Q 15.484375 15.921875 20.484375 11.0625 
Q 25.484375 6.203125 34.421875 6.203125 
Q 39.59375 6.203125 44.453125 7.46875 
Q 49.3125 8.734375 54.109375 11.28125 
L 54.109375 2.78125 
Q 49.265625 0.734375 44.1875 -0.34375 
Q 39.109375 -1.421875 33.890625 -1.421875 
Q 20.796875 -1.421875 13.15625 6.1875 
Q 5.515625 13.8125 5.515625 26.8125 
Q 5.515625 40.234375 12.765625 48.109375 
Q 20.015625 56 32.328125 56 
Q 43.359375 56 49.78125 48.890625 
Q 56.203125 41.796875 56.203125 29.59375 
z
M 47.21875 32.234375 
Q 47.125 39.59375 43.09375 43.984375 
Q 39.0625 48.390625 32.421875 48.390625 
Q 24.90625 48.390625 20.390625 44.140625 
Q 15.875 39.890625 15.1875 32.171875 
z
" id="DejaVuSans-101"/>
       <path d="M 48.78125 52.59375 
L 48.78125 44.1875 
Q 44.96875 46.296875 41.140625 47.34375 
Q 37.3125 48.390625 33.40625 48.390625 
Q 24.65625 48.390625 19.8125 42.84375 
Q 14.984375 37.3125 14.984375 27.296875 
Q 14.984375 17.28125 19.8125 11.734375 
Q 24.65625 6.203125 33.40625 6.203125 
Q 37.3125 6.203125 41.140625 7.25 
Q 44.96875 8.296875 48.78125 10.40625 
L 48.78125 2.09375 
Q 45.015625 0.34375 40.984375 -0.53125 
Q 36.96875 -1.421875 32.421875 -1.421875 
Q 20.0625 -1.421875 12.78125 6.34375 
Q 5.515625 14.109375 5.515625 27.296875 
Q 5.515625 40.671875 12.859375 48.328125 
Q 20.21875 56 33.015625 56 
Q 37.15625 56 41.109375 55.140625 
Q 45.0625 54.296875 48.78125 52.59375 
z
" id="DejaVuSans-99"/>
       <path d="M 18.3125 70.21875 
L 18.3125 54.6875 
L 36.8125 54.6875 
L 36.8125 47.703125 
L 18.3125 47.703125 
L 18.3125 18.015625 
Q 18.3125 11.328125 20.140625 9.421875 
Q 21.96875 7.515625 27.59375 7.515625 
L 36.8125 7.515625 
L 36.8125 0 
L 27.59375 0 
Q 17.1875 0 13.234375 3.875 
Q 9.28125 7.765625 9.28125 18.015625 
L 9.28125 47.703125 
L 2.6875 47.703125 
L 2.6875 54.6875 
L 9.28125 54.6875 
L 9.28125 70.21875 
z
" id="DejaVuSans-116"/>
       <path d="M 44.28125 53.078125 
L 44.28125 44.578125 
Q 40.484375 46.53125 36.375 47.5 
Q 32.28125 48.484375 27.875 48.484375 
Q 21.1875 48.484375 17.84375 46.4375 
Q 14.5 44.390625 14.5 40.28125 
Q 14.5 37.15625 16.890625 35.375 
Q 19.28125 33.59375 26.515625 31.984375 
L 29.59375 31.296875 
Q 39.15625 29.25 43.1875 25.515625 
Q 47.21875 21.78125 47.21875 15.09375 
Q 47.21875 7.46875 41.1875 3.015625 
Q 35.15625 -1.421875 24.609375 -1.421875 
Q 20.21875 -1.421875 15.453125 -0.5625 
Q 10.6875 0.296875 5.421875 2 
L 5.421875 11.28125 
Q 10.40625 8.6875 15.234375 7.390625 
Q 20.0625 6.109375 24.8125 6.109375 
Q 31.15625 6.109375 34.5625 8.28125 
Q 37.984375 10.453125 37.984375 14.40625 
Q 37.984375 18.0625 35.515625 20.015625 
Q 33.0625 21.96875 24.703125 23.78125 
L 21.578125 24.515625 
Q 13.234375 26.265625 9.515625 29.90625 
Q 5.8125 33.546875 5.8125 39.890625 
Q 5.8125 47.609375 11.28125 51.796875 
Q 16.75 56 26.8125 56 
Q 31.78125 56 36.171875 55.265625 
Q 40.578125 54.546875 44.28125 53.078125 
z
" id="DejaVuSans-115"/>
      </defs>
      <use xlink:href="#DejaVuSans-112"/>
      <use x="63.476562" xlink:href="#DejaVuSans-114"/>
      <use x="102.339844" xlink:href="#DejaVuSans-111"/>
      <use x="163.521484" xlink:href="#DejaVuSans-108"/>
      <use x="191.304688" xlink:href="#DejaVuSans-105"/>
      <use x="219.087891" xlink:href="#DejaVuSans-102"/>
      <use x="247.042969" xlink:href="#DejaVuSans-46"/>
      <use x="278.830078" xlink:href="#DejaVuSans-32"/>
      <use x="310.617188" xlink:href="#DejaVuSans-101"/>
      <use x="372.140625" xlink:href="#DejaVuSans-102"/>
      <use x="407.345703" xlink:href="#DejaVuSans-102"/>
      <use x="442.550781" xlink:href="#DejaVuSans-101"/>
      <use x="504.074219" xlink:href="#DejaVuSans-99"/>
      <use x="559.054688" xlink:href="#DejaVuSans-116"/>
      <use x="598.263672" xlink:href="#DejaVuSans-111"/>
      <use x="659.445312" xlink:href="#DejaVuSans-114"/>
      <use x="700.558594" xlink:href="#DejaVuSans-115"/>
     </g>
    </g>
   </g>
   <g id="matplotlib.axis_2">
    <g id="ytick_1">
     <g id="line2d_29">
      <defs>
       <path d="M 0 0 
L -12 0 
" id="m42af2a41ac" style="stroke:#262626;stroke-width:2.5;"/>
      </defs>
      <g>
       <use style="fill:#262626;stroke:#262626;stroke-width:2.5;" x="82.360313" xlink:href="#m42af2a41ac" y="248.778281"/>
      </g>
     </g>
     <g id="text_6">
      <!-- −5 -->
      <g style="fill:#262626;" transform="translate(34.4275 257.136562)scale(0.22 -0.22)">
       <defs>
        <path d="M 10.796875 72.90625 
L 49.515625 72.90625 
L 49.515625 64.59375 
L 19.828125 64.59375 
L 19.828125 46.734375 
Q 21.96875 47.46875 24.109375 47.828125 
Q 26.265625 48.1875 28.421875 48.1875 
Q 40.625 48.1875 47.75 41.5 
Q 54.890625 34.8125 54.890625 23.390625 
Q 54.890625 11.625 47.5625 5.09375 
Q 40.234375 -1.421875 26.90625 -1.421875 
Q 22.3125 -1.421875 17.546875 -0.640625 
Q 12.796875 0.140625 7.71875 1.703125 
L 7.71875 11.625 
Q 12.109375 9.234375 16.796875 8.0625 
Q 21.484375 6.890625 26.703125 6.890625 
Q 35.15625 6.890625 40.078125 11.328125 
Q 45.015625 15.765625 45.015625 23.390625 
Q 45.015625 31 40.078125 35.4375 
Q 35.15625 39.890625 26.703125 39.890625 
Q 22.75 39.890625 18.8125 39.015625 
Q 14.890625 38.140625 10.796875 36.28125 
z
" id="DejaVuSans-53"/>
       </defs>
       <use xlink:href="#DejaVuSans-8722"/>
       <use x="83.789062" xlink:href="#DejaVuSans-53"/>
      </g>
     </g>
    </g>
    <g id="ytick_2">
     <g id="line2d_30">
      <g>
       <use style="fill:#262626;stroke:#262626;stroke-width:2.5;" x="82.360313" xlink:href="#m42af2a41ac" y="190.473281"/>
      </g>
     </g>
     <g id="text_7">
      <!-- 0 -->
      <g style="fill:#262626;" transform="translate(52.862813 198.831562)scale(0.22 -0.22)">
       <use xlink:href="#DejaVuSans-48"/>
      </g>
     </g>
    </g>
    <g id="ytick_3">
     <g id="line2d_31">
      <g>
       <use style="fill:#262626;stroke:#262626;stroke-width:2.5;" x="82.360313" xlink:href="#m42af2a41ac" y="132.168281"/>
      </g>
     </g>
     <g id="text_8">
      <!-- 5 -->
      <g style="fill:#262626;" transform="translate(52.862813 140.526562)scale(0.22 -0.22)">
       <use xlink:href="#DejaVuSans-53"/>
      </g>
     </g>
    </g>
    <g id="ytick_4">
     <g id="line2d_32">
      <g>
       <use style="fill:#262626;stroke:#262626;stroke-width:2.5;" x="82.360313" xlink:href="#m42af2a41ac" y="73.863281"/>
      </g>
     </g>
     <g id="text_9">
      <!-- 10 -->
      <g style="fill:#262626;" transform="translate(38.865313 82.221562)scale(0.22 -0.22)">
       <use xlink:href="#DejaVuSans-49"/>
       <use x="63.623047" xlink:href="#DejaVuSans-48"/>
      </g>
     </g>
    </g>
    <g id="ytick_5">
     <g id="line2d_33">
      <g>
       <use style="fill:#262626;stroke:#262626;stroke-width:2.5;" x="82.360313" xlink:href="#m42af2a41ac" y="15.558281"/>
      </g>
     </g>
     <g id="text_10">
      <!-- 15 -->
      <g style="fill:#262626;" transform="translate(38.865313 23.916562)scale(0.22 -0.22)">
       <use xlink:href="#DejaVuSans-49"/>
       <use x="63.623047" xlink:href="#DejaVuSans-53"/>
      </g>
     </g>
    </g>
    <g id="text_11">
     <!-- effect size -->
     <g style="fill:#262626;" transform="translate(25.43625 193.767656)rotate(-90)scale(0.24 -0.24)">
      <defs>
       <path d="M 5.515625 54.6875 
L 48.1875 54.6875 
L 48.1875 46.484375 
L 14.40625 7.171875 
L 48.1875 7.171875 
L 48.1875 0 
L 4.296875 0 
L 4.296875 8.203125 
L 38.09375 47.515625 
L 5.515625 47.515625 
z
" id="DejaVuSans-122"/>
      </defs>
      <use xlink:href="#DejaVuSans-101"/>
      <use x="61.523438" xlink:href="#DejaVuSans-102"/>
      <use x="96.728516" xlink:href="#DejaVuSans-102"/>
      <use x="131.933594" xlink:href="#DejaVuSans-101"/>
      <use x="193.457031" xlink:href="#DejaVuSans-99"/>
      <use x="248.4375" xlink:href="#DejaVuSans-116"/>
      <use x="287.646484" xlink:href="#DejaVuSans-32"/>
      <use x="319.433594" xlink:href="#DejaVuSans-115"/>
      <use x="371.533203" xlink:href="#DejaVuSans-105"/>
      <use x="399.316406" xlink:href="#DejaVuSans-122"/>
      <use x="451.806641" xlink:href="#DejaVuSans-101"/>
     </g>
    </g>
   </g>
   <g id="line2d_34">
    <path clip-path="url(#p4ffb16ba65)" d="M 0 0 
" style="fill:none;stroke:#4c72b0;stroke-linecap:round;stroke-width:5;"/>
   </g>
   <g id="line2d_35">
    <path clip-path="url(#p4ffb16ba65)" d="M 0 0 
" style="fill:none;stroke:#dd8452;stroke-linecap:round;stroke-width:5;"/>
   </g>
   <g id="line2d_36">
    <path clip-path="url(#p4ffb16ba65)" d="M 0 0 
" style="fill:none;stroke:#55a868;stroke-linecap:round;stroke-width:5;"/>
   </g>
   <g id="line2d_37"/>
   <g id="line2d_38"/>
   <g id="line2d_39"/>
   <g id="patch_3">
    <path d="M 82.360313 248.778281 
L 82.360313 15.558281 
" style="fill:none;stroke:#262626;stroke-linecap:square;stroke-linejoin:miter;stroke-width:2.5;"/>
   </g>
   <g id="patch_4">
    <path d="M 412.161284 248.778281 
L 412.161284 15.558281 
" style="fill:none;stroke:#262626;stroke-linecap:square;stroke-linejoin:miter;stroke-width:2.5;"/>
   </g>
   <g id="patch_5">
    <path d="M 82.360313 248.778281 
L 412.161284 248.778281 
" style="fill:none;stroke:#262626;stroke-linecap:square;stroke-linejoin:miter;stroke-width:2.5;"/>
   </g>
   <g id="patch_6">
    <path d="M 82.360313 15.558281 
L 412.161284 15.558281 
" style="fill:none;stroke:#262626;stroke-linecap:square;stroke-linejoin:miter;stroke-width:2.5;"/>
   </g>
   <g id="line2d_40">
    <path clip-path="url(#p4ffb16ba65)" d="M 82.360313 190.473281 
L 412.161284 190.473281 
" style="fill:none;stroke:#1a1a1a;stroke-dasharray:7.4,3.2;stroke-dashoffset:0;stroke-width:2;"/>
   </g>
   <g id="line2d_41">
    <path clip-path="url(#p4ffb16ba65)" d="M 192.29397 248.778281 
L 192.29397 15.558281 
" style="fill:none;stroke:#1a1a1a;stroke-dasharray:7.4,3.2;stroke-dashoffset:0;stroke-width:2;"/>
   </g>
  </g>
  <g id="axes_2">
   <g id="patch_7">
    <path d="M 482.505399 248.778281 
L 812.30637 248.778281 
L 812.30637 15.558281 
L 482.505399 15.558281 
z
" style="fill:#ffffff;"/>
   </g>
   <g id="matplotlib.axis_3">
    <g id="xtick_29">
     <g id="line2d_42">
      <g>
       <use style="fill:#262626;stroke:#262626;stroke-width:2.5;" x="482.505399" xlink:href="#m7de50b2ed9" y="248.778281"/>
      </g>
     </g>
     <g id="text_12">
      <!-- $\mathdefault{10^{-1}}$ -->
      <g style="fill:#262626;" transform="translate(456.655399 280.994844)scale(0.22 -0.22)">
       <use transform="translate(0 0.684375)" xlink:href="#DejaVuSans-49"/>
       <use transform="translate(63.623047 0.684375)" xlink:href="#DejaVuSans-48"/>
       <use transform="translate(128.203125 38.965625)scale(0.7)" xlink:href="#DejaVuSans-8722"/>
       <use transform="translate(186.855469 38.965625)scale(0.7)" xlink:href="#DejaVuSans-49"/>
      </g>
     </g>
    </g>
    <g id="xtick_30">
     <g id="line2d_43">
      <g>
       <use style="fill:#262626;stroke:#262626;stroke-width:2.5;" x="592.439056" xlink:href="#m7de50b2ed9" y="248.778281"/>
      </g>
     </g>
     <g id="text_13">
      <!-- $\mathdefault{10^{0}}$ -->
      <g style="fill:#262626;" transform="translate(573.079056 280.994844)scale(0.22 -0.22)">
       <use transform="translate(0 0.765625)" xlink:href="#DejaVuSans-49"/>
       <use transform="translate(63.623047 0.765625)" xlink:href="#DejaVuSans-48"/>
       <use transform="translate(128.203125 39.046875)scale(0.7)" xlink:href="#DejaVuSans-48"/>
      </g>
     </g>
    </g>
    <g id="xtick_31">
     <g id="line2d_44">
      <g>
       <use style="fill:#262626;stroke:#262626;stroke-width:2.5;" x="702.372713" xlink:href="#m7de50b2ed9" y="248.778281"/>
      </g>
     </g>
     <g id="text_14">
      <!-- $\mathdefault{10^{1}}$ -->
      <g style="fill:#262626;" transform="translate(683.012713 280.994844)scale(0.22 -0.22)">
       <use transform="translate(0 0.684375)" xlink:href="#DejaVuSans-49"/>
       <use transform="translate(63.623047 0.684375)" xlink:href="#DejaVuSans-48"/>
       <use transform="translate(128.203125 38.965625)scale(0.7)" xlink:href="#DejaVuSans-49"/>
      </g>
     </g>
    </g>
    <g id="xtick_32">
     <g id="line2d_45">
      <g>
       <use style="fill:#262626;stroke:#262626;stroke-width:2.5;" x="812.30637" xlink:href="#m7de50b2ed9" y="248.778281"/>
      </g>
     </g>
     <g id="text_15">
      <!-- $\mathdefault{10^{2}}$ -->
      <g style="fill:#262626;" transform="translate(792.94637 280.994844)scale(0.22 -0.22)">
       <use transform="translate(0 0.765625)" xlink:href="#DejaVuSans-49"/>
       <use transform="translate(63.623047 0.765625)" xlink:href="#DejaVuSans-48"/>
       <use transform="translate(128.203125 39.046875)scale(0.7)" xlink:href="#DejaVuSans-50"/>
      </g>
     </g>
    </g>
    <g id="xtick_33">
     <g id="line2d_46">
      <g>
       <use style="fill:#262626;stroke:#262626;stroke-width:2;" x="515.598727" xlink:href="#m90fb0812bd" y="248.778281"/>
      </g>
     </g>
    </g>
    <g id="xtick_34">
     <g id="line2d_47">
      <g>
       <use style="fill:#262626;stroke:#262626;stroke-width:2;" x="534.957083" xlink:href="#m90fb0812bd" y="248.778281"/>
      </g>
     </g>
    </g>
    <g id="xtick_35">
     <g id="line2d_48">
      <g>
       <use style="fill:#262626;stroke:#262626;stroke-width:2;" x="548.692055" xlink:href="#m90fb0812bd" y="248.778281"/>
      </g>
     </g>
    </g>
    <g id="xtick_36">
     <g id="line2d_49">
      <g>
       <use style="fill:#262626;stroke:#262626;stroke-width:2;" x="559.345727" xlink:href="#m90fb0812bd" y="248.778281"/>
      </g>
     </g>
    </g>
    <g id="xtick_37">
     <g id="line2d_50">
      <g>
       <use style="fill:#262626;stroke:#262626;stroke-width:2;" x="568.050411" xlink:href="#m90fb0812bd" y="248.778281"/>
      </g>
     </g>
    </g>
    <g id="xtick_38">
     <g id="line2d_51">
      <g>
       <use style="fill:#262626;stroke:#262626;stroke-width:2;" x="575.410117" xlink:href="#m90fb0812bd" y="248.778281"/>
      </g>
     </g>
    </g>
    <g id="xtick_39">
     <g id="line2d_52">
      <g>
       <use style="fill:#262626;stroke:#262626;stroke-width:2;" x="581.785384" xlink:href="#m90fb0812bd" y="248.778281"/>
      </g>
     </g>
    </g>
    <g id="xtick_40">
     <g id="line2d_53">
      <g>
       <use style="fill:#262626;stroke:#262626;stroke-width:2;" x="587.408768" xlink:href="#m90fb0812bd" y="248.778281"/>
      </g>
     </g>
    </g>
    <g id="xtick_41">
     <g id="line2d_54">
      <g>
       <use style="fill:#262626;stroke:#262626;stroke-width:2;" x="625.532384" xlink:href="#m90fb0812bd" y="248.778281"/>
      </g>
     </g>
    </g>
    <g id="xtick_42">
     <g id="line2d_55">
      <g>
       <use style="fill:#262626;stroke:#262626;stroke-width:2;" x="644.89074" xlink:href="#m90fb0812bd" y="248.778281"/>
      </g>
     </g>
    </g>
    <g id="xtick_43">
     <g id="line2d_56">
      <g>
       <use style="fill:#262626;stroke:#262626;stroke-width:2;" x="658.625713" xlink:href="#m90fb0812bd" y="248.778281"/>
      </g>
     </g>
    </g>
    <g id="xtick_44">
     <g id="line2d_57">
      <g>
       <use style="fill:#262626;stroke:#262626;stroke-width:2;" x="669.279385" xlink:href="#m90fb0812bd" y="248.778281"/>
      </g>
     </g>
    </g>
    <g id="xtick_45">
     <g id="line2d_58">
      <g>
       <use style="fill:#262626;stroke:#262626;stroke-width:2;" x="677.984069" xlink:href="#m90fb0812bd" y="248.778281"/>
      </g>
     </g>
    </g>
    <g id="xtick_46">
     <g id="line2d_59">
      <g>
       <use style="fill:#262626;stroke:#262626;stroke-width:2;" x="685.343774" xlink:href="#m90fb0812bd" y="248.778281"/>
      </g>
     </g>
    </g>
    <g id="xtick_47">
     <g id="line2d_60">
      <g>
       <use style="fill:#262626;stroke:#262626;stroke-width:2;" x="691.719041" xlink:href="#m90fb0812bd" y="248.778281"/>
      </g>
     </g>
    </g>
    <g id="xtick_48">
     <g id="line2d_61">
      <g>
       <use style="fill:#262626;stroke:#262626;stroke-width:2;" x="697.342425" xlink:href="#m90fb0812bd" y="248.778281"/>
      </g>
     </g>
    </g>
    <g id="xtick_49">
     <g id="line2d_62">
      <g>
       <use style="fill:#262626;stroke:#262626;stroke-width:2;" x="735.466041" xlink:href="#m90fb0812bd" y="248.778281"/>
      </g>
     </g>
    </g>
    <g id="xtick_50">
     <g id="line2d_63">
      <g>
       <use style="fill:#262626;stroke:#262626;stroke-width:2;" x="754.824398" xlink:href="#m90fb0812bd" y="248.778281"/>
      </g>
     </g>
    </g>
    <g id="xtick_51">
     <g id="line2d_64">
      <g>
       <use style="fill:#262626;stroke:#262626;stroke-width:2;" x="768.55937" xlink:href="#m90fb0812bd" y="248.778281"/>
      </g>
     </g>
    </g>
    <g id="xtick_52">
     <g id="line2d_65">
      <g>
       <use style="fill:#262626;stroke:#262626;stroke-width:2;" x="779.213042" xlink:href="#m90fb0812bd" y="248.778281"/>
      </g>
     </g>
    </g>
    <g id="xtick_53">
     <g id="line2d_66">
      <g>
       <use style="fill:#262626;stroke:#262626;stroke-width:2;" x="787.917726" xlink:href="#m90fb0812bd" y="248.778281"/>
      </g>
     </g>
    </g>
    <g id="xtick_54">
     <g id="line2d_67">
      <g>
       <use style="fill:#262626;stroke:#262626;stroke-width:2;" x="795.277431" xlink:href="#m90fb0812bd" y="248.778281"/>
      </g>
     </g>
    </g>
    <g id="xtick_55">
     <g id="line2d_68">
      <g>
       <use style="fill:#262626;stroke:#262626;stroke-width:2;" x="801.652698" xlink:href="#m90fb0812bd" y="248.778281"/>
      </g>
     </g>
    </g>
    <g id="xtick_56">
     <g id="line2d_69">
      <g>
       <use style="fill:#262626;stroke:#262626;stroke-width:2;" x="807.276082" xlink:href="#m90fb0812bd" y="248.778281"/>
      </g>
     </g>
    </g>
    <g id="text_16">
     <!-- prolif. effectors -->
     <g style="fill:#262626;" transform="translate(557.087134 307.806406)scale(0.24 -0.24)">
      <use xlink:href="#DejaVuSans-112"/>
      <use x="63.476562" xlink:href="#DejaVuSans-114"/>
      <use x="102.339844" xlink:href="#DejaVuSans-111"/>
      <use x="163.521484" xlink:href="#DejaVuSans-108"/>
      <use x="191.304688" xlink:href="#DejaVuSans-105"/>
      <use x="219.087891" xlink:href="#DejaVuSans-102"/>
      <use x="247.042969" xlink:href="#DejaVuSans-46"/>
      <use x="278.830078" xlink:href="#DejaVuSans-32"/>
      <use x="310.617188" xlink:href="#DejaVuSans-101"/>
      <use x="372.140625" xlink:href="#DejaVuSans-102"/>
      <use x="407.345703" xlink:href="#DejaVuSans-102"/>
      <use x="442.550781" xlink:href="#DejaVuSans-101"/>
      <use x="504.074219" xlink:href="#DejaVuSans-99"/>
      <use x="559.054688" xlink:href="#DejaVuSans-116"/>
      <use x="598.263672" xlink:href="#DejaVuSans-111"/>
      <use x="659.445312" xlink:href="#DejaVuSans-114"/>
      <use x="700.558594" xlink:href="#DejaVuSans-115"/>
     </g>
    </g>
   </g>
   <g id="matplotlib.axis_4">
    <g id="ytick_6">
     <g id="line2d_70">
      <g>
       <use style="fill:#262626;stroke:#262626;stroke-width:2.5;" x="482.505399" xlink:href="#m42af2a41ac" y="248.778281"/>
      </g>
     </g>
    </g>
    <g id="ytick_7">
     <g id="line2d_71">
      <g>
       <use style="fill:#262626;stroke:#262626;stroke-width:2.5;" x="482.505399" xlink:href="#m42af2a41ac" y="190.473281"/>
      </g>
     </g>
    </g>
    <g id="ytick_8">
     <g id="line2d_72">
      <g>
       <use style="fill:#262626;stroke:#262626;stroke-width:2.5;" x="482.505399" xlink:href="#m42af2a41ac" y="132.168281"/>
      </g>
     </g>
    </g>
    <g id="ytick_9">
     <g id="line2d_73">
      <g>
       <use style="fill:#262626;stroke:#262626;stroke-width:2.5;" x="482.505399" xlink:href="#m42af2a41ac" y="73.863281"/>
      </g>
     </g>
    </g>
    <g id="ytick_10">
     <g id="line2d_74">
      <g>
       <use style="fill:#262626;stroke:#262626;stroke-width:2.5;" x="482.505399" xlink:href="#m42af2a41ac" y="15.558281"/>
      </g>
     </g>
    </g>
   </g>
   <g id="line2d_75">
    <path clip-path="url(#p86de3730f3)" d="M 482.505399 220.9591 
L 489.236031 220.9591 
L 495.966663 220.9591 
L 502.697295 220.959098 
L 509.427927 220.959094 
L 516.158559 220.959081 
L 522.889191 220.959037 
L 529.619823 220.9589 
L 536.350455 220.958493 
L 543.081087 220.95733 
L 549.811719 220.954167 
L 556.542351 220.946012 
L 563.272984 220.926128 
L 570.003616 220.880319 
L 576.734248 220.780352 
L 583.46488 220.572281 
L 590.195512 220.154368 
L 596.926144 219.341637 
L 601.14374 218.54172 
L 601.959889 218.360529 
L 602.762321 218.17402 
L 603.551489 217.982097 
L 603.656776 217.955818 
L 604.327825 217.784334 
L 605.091738 217.57987 
L 605.843621 217.36718 
L 606.583847 217.143509 
L 607.312771 216.903052 
L 608.030733 216.625051 
L 608.738058 190.126666 
L 609.435057 189.995897 
L 610.122027 190.411232 
L 610.387408 189.719856 
L 610.799252 189.444632 
L 611.467005 190.190942 
L 612.125548 190.400296 
L 612.77513 190.510887 
L 613.415993 190.278543 
L 614.048368 190.494468 
L 614.672476 190.474128 
L 615.288531 190.473281 
L 615.896737 190.489718 
L 616.497294 190.411674 
L 617.090389 190.364654 
L 617.11804 190.479777 
L 617.676207 190.388656 
L 618.254924 190.497431 
L 618.826711 190.438792 
L 619.39173 190.382833 
L 619.950141 190.484442 
L 620.502096 190.347531 
L 623.848672 190.408277 
L 630.579304 190.422851 
L 637.309936 190.37791 
L 644.040568 190.443135 
L 650.771201 190.567518 
L 657.501833 190.549596 
L 664.232465 190.492281 
L 670.963097 190.323732 
L 677.693729 190.411426 
L 684.424361 190.372826 
L 691.154993 189.861063 
L 697.885625 189.803154 
L 704.616257 190.013683 
L 711.346889 189.835671 
L 718.077521 189.440487 
L 724.808153 189.055574 
L 731.538785 189.238664 
L 738.269418 188.935229 
L 745.00005 188.483184 
L 751.730682 187.300006 
L 758.461314 187.487291 
L 765.191946 187.126936 
L 771.922578 186.165248 
L 778.65321 185.68983 
L 785.383842 185.170094 
L 792.114474 183.35867 
L 798.845106 182.645617 
L 805.575738 180.918711 
L 812.30637 179.155745 
" style="fill:none;stroke:#4c72b0;stroke-linecap:round;stroke-width:5;"/>
   </g>
   <g id="line2d_76">
    <path clip-path="url(#p86de3730f3)" d="M 482.505399 241.688333 
L 489.236031 241.67226 
L 495.966663 241.643522 
L 502.697295 241.594672 
L 509.427927 241.515554 
L 516.158559 241.393023 
L 522.889191 241.210757 
L 529.619823 240.949081 
L 536.350455 240.584413 
L 543.081087 240.088236 
L 549.811719 239.424928 
L 556.542351 238.548014 
L 563.272984 237.393471 
L 570.003616 235.867506 
L 576.734248 233.822448 
L 583.46488 231.003514 
L 590.195512 226.909778 
L 596.926144 220.318468 
L 601.14374 213.286829 
L 601.959889 211.394445 
L 602.762321 209.258131 
L 603.551489 206.806373 
L 603.656776 206.446805 
L 604.327825 203.930637 
L 605.091738 200.454344 
L 605.843621 196.060637 
L 606.583847 190.088131 
L 607.312771 180.727574 
L 608.030733 157.826544 
L 608.738058 146.117148 
L 609.435057 161.181895 
L 610.122027 169.33137 
L 610.387408 170.648855 
L 610.799252 173.197914 
L 611.467005 177.887045 
L 612.125548 181.12797 
L 612.77513 183.70822 
L 613.415993 185.49073 
L 614.048368 187.548013 
L 614.672476 189.085944 
L 615.288531 190.473281 
L 615.896737 191.730129 
L 616.497294 192.756748 
L 617.090389 193.725253 
L 617.11804 193.909123 
L 617.676207 194.688011 
L 618.254924 195.682259 
L 618.826711 196.402255 
L 619.39173 197.079024 
L 619.950141 197.888223 
L 620.502096 198.359735 
L 623.848672 201.701606 
L 630.579304 206.231256 
L 637.309936 209.177677 
L 644.040568 211.396845 
L 650.771201 213.124764 
L 657.501833 214.290147 
L 664.232465 215.098969 
L 670.963097 215.534225 
L 677.693729 216.023514 
L 684.424361 216.231619 
L 691.154993 215.884225 
L 697.885625 215.875971 
L 704.616257 216.045608 
L 711.346889 215.829008 
L 718.077521 215.404143 
L 724.808153 214.986334 
L 731.538785 215.044366 
L 738.269418 214.703647 
L 745.00005 214.255159 
L 751.730682 213.21135 
L 758.461314 213.321842 
L 765.191946 212.994492 
L 771.922578 212.175954 
L 778.65321 211.772607 
L 785.383842 211.340931 
L 792.114474 209.815015 
L 798.845106 209.213668 
L 805.575738 207.735939 
L 812.30637 206.206677 
" style="fill:none;stroke:#dd8452;stroke-linecap:round;stroke-width:5;"/>
   </g>
   <g id="line2d_77">
    <path clip-path="url(#p86de3730f3)" d="M 482.505399 225.473593 
L 489.236031 225.473593 
L 495.966663 225.473592 
L 502.697295 225.473589 
L 509.427927 225.47358 
L 516.158559 225.473552 
L 522.889191 225.473461 
L 529.619823 225.473189 
L 536.350455 225.472401 
L 543.081087 225.470227 
L 549.811719 225.464547 
L 556.542351 225.450529 
L 563.272984 225.41789 
L 570.003616 225.345923 
L 576.734248 225.193983 
L 583.46488 224.879978 
L 590.195512 224.2208 
L 596.926144 222.828135 
L 601.14374 221.61641 
L 601.959889 221.375578 
L 602.762321 221.131109 
L 603.551489 220.876212 
L 603.656776 220.840606 
L 604.327825 220.601172 
L 605.091738 220.291207 
L 605.843621 219.920912 
L 606.583847 219.437178 
L 607.312771 218.682685 
L 608.030733 216.527571 
L 608.738058 144.93485 
L 609.435057 160.236913 
L 610.122027 168.27958 
L 610.387408 170.092098 
L 610.799252 172.903778 
L 611.467005 177.26865 
L 612.125548 180.518736 
L 612.77513 183.170033 
L 613.415993 185.233831 
L 614.048368 187.28171 
L 614.672476 188.962438 
L 615.288531 190.473281 
L 615.896737 191.844388 
L 616.497294 193.041771 
L 617.090389 194.156175 
L 617.11804 194.272341 
L 617.676207 195.21853 
L 618.254924 196.250985 
L 618.826711 197.122294 
L 619.39173 197.938115 
L 619.950141 198.786494 
L 620.502096 199.453776 
L 623.848672 203.360041 
L 630.579304 209.006337 
L 637.309936 213.013555 
L 644.040568 216.138691 
L 650.771201 218.677226 
L 657.501833 220.731214 
L 664.232465 222.487623 
L 670.963097 223.98637 
L 677.693729 225.376606 
L 684.424361 226.62086 
L 691.154993 227.702396 
L 697.885625 228.824814 
L 704.616257 229.924687 
L 711.346889 230.943012 
L 718.077521 231.950186 
L 724.808153 232.944078 
L 731.538785 234.013311 
L 738.269418 235.046094 
L 745.00005 236.107419 
L 751.730682 237.110073 
L 758.461314 238.270946 
L 765.191946 239.40361 
L 771.922578 240.510717 
L 778.65321 241.662818 
L 785.383842 242.882783 
L 792.114474 244.010932 
L 798.845106 245.221261 
L 805.575738 246.420604 
L 812.30637 247.655224 
" style="fill:none;stroke:#55a868;stroke-linecap:round;stroke-width:5;"/>
   </g>
   <g id="patch_8">
    <path d="M 482.505399 248.778281 
L 482.505399 15.558281 
" style="fill:none;stroke:#262626;stroke-linecap:square;stroke-linejoin:miter;stroke-width:2.5;"/>
   </g>
   <g id="patch_9">
    <path d="M 812.30637 248.778281 
L 812.30637 15.558281 
" style="fill:none;stroke:#262626;stroke-linecap:square;stroke-linejoin:miter;stroke-width:2.5;"/>
   </g>
   <g id="patch_10">
    <path d="M 482.505399 248.778281 
L 812.30637 248.778281 
" style="fill:none;stroke:#262626;stroke-linecap:square;stroke-linejoin:miter;stroke-width:2.5;"/>
   </g>
   <g id="patch_11">
    <path d="M 482.505399 15.558281 
L 812.30637 15.558281 
" style="fill:none;stroke:#262626;stroke-linecap:square;stroke-linejoin:miter;stroke-width:2.5;"/>
   </g>
   <g id="line2d_78">
    <path clip-path="url(#p86de3730f3)" d="M 482.505399 190.473281 
L 812.30637 190.473281 
" style="fill:none;stroke:#1a1a1a;stroke-dasharray:7.4,3.2;stroke-dashoffset:0;stroke-width:2;"/>
   </g>
   <g id="line2d_79">
    <path clip-path="url(#p86de3730f3)" d="M 592.439056 248.778281 
L 592.439056 15.558281 
" style="fill:none;stroke:#1a1a1a;stroke-dasharray:7.4,3.2;stroke-dashoffset:0;stroke-width:2;"/>
   </g>
  </g>
  <g id="axes_3">
   <g id="patch_12">
    <path d="M 882.650485 248.778281 
L 1212.451456 248.778281 
L 1212.451456 15.558281 
L 882.650485 15.558281 
z
" style="fill:#ffffff;"/>
   </g>
   <g id="matplotlib.axis_5">
    <g id="xtick_57">
     <g id="line2d_80">
      <g>
       <use style="fill:#262626;stroke:#262626;stroke-width:2.5;" x="882.650485" xlink:href="#m7de50b2ed9" y="248.778281"/>
      </g>
     </g>
     <g id="text_17">
      <!-- $\mathdefault{10^{-1}}$ -->
      <g style="fill:#262626;" transform="translate(856.800485 280.994844)scale(0.22 -0.22)">
       <use transform="translate(0 0.684375)" xlink:href="#DejaVuSans-49"/>
       <use transform="translate(63.623047 0.684375)" xlink:href="#DejaVuSans-48"/>
       <use transform="translate(128.203125 38.965625)scale(0.7)" xlink:href="#DejaVuSans-8722"/>
       <use transform="translate(186.855469 38.965625)scale(0.7)" xlink:href="#DejaVuSans-49"/>
      </g>
     </g>
    </g>
    <g id="xtick_58">
     <g id="line2d_81">
      <g>
       <use style="fill:#262626;stroke:#262626;stroke-width:2.5;" x="992.584142" xlink:href="#m7de50b2ed9" y="248.778281"/>
      </g>
     </g>
     <g id="text_18">
      <!-- $\mathdefault{10^{0}}$ -->
      <g style="fill:#262626;" transform="translate(973.224142 280.994844)scale(0.22 -0.22)">
       <use transform="translate(0 0.765625)" xlink:href="#DejaVuSans-49"/>
       <use transform="translate(63.623047 0.765625)" xlink:href="#DejaVuSans-48"/>
       <use transform="translate(128.203125 39.046875)scale(0.7)" xlink:href="#DejaVuSans-48"/>
      </g>
     </g>
    </g>
    <g id="xtick_59">
     <g id="line2d_82">
      <g>
       <use style="fill:#262626;stroke:#262626;stroke-width:2.5;" x="1102.517799" xlink:href="#m7de50b2ed9" y="248.778281"/>
      </g>
     </g>
     <g id="text_19">
      <!-- $\mathdefault{10^{1}}$ -->
      <g style="fill:#262626;" transform="translate(1083.157799 280.994844)scale(0.22 -0.22)">
       <use transform="translate(0 0.684375)" xlink:href="#DejaVuSans-49"/>
       <use transform="translate(63.623047 0.684375)" xlink:href="#DejaVuSans-48"/>
       <use transform="translate(128.203125 38.965625)scale(0.7)" xlink:href="#DejaVuSans-49"/>
      </g>
     </g>
    </g>
    <g id="xtick_60">
     <g id="line2d_83">
      <g>
       <use style="fill:#262626;stroke:#262626;stroke-width:2.5;" x="1212.451456" xlink:href="#m7de50b2ed9" y="248.778281"/>
      </g>
     </g>
     <g id="text_20">
      <!-- $\mathdefault{10^{2}}$ -->
      <g style="fill:#262626;" transform="translate(1193.091456 280.994844)scale(0.22 -0.22)">
       <use transform="translate(0 0.765625)" xlink:href="#DejaVuSans-49"/>
       <use transform="translate(63.623047 0.765625)" xlink:href="#DejaVuSans-48"/>
       <use transform="translate(128.203125 39.046875)scale(0.7)" xlink:href="#DejaVuSans-50"/>
      </g>
     </g>
    </g>
    <g id="xtick_61">
     <g id="line2d_84">
      <g>
       <use style="fill:#262626;stroke:#262626;stroke-width:2;" x="915.743813" xlink:href="#m90fb0812bd" y="248.778281"/>
      </g>
     </g>
    </g>
    <g id="xtick_62">
     <g id="line2d_85">
      <g>
       <use style="fill:#262626;stroke:#262626;stroke-width:2;" x="935.102169" xlink:href="#m90fb0812bd" y="248.778281"/>
      </g>
     </g>
    </g>
    <g id="xtick_63">
     <g id="line2d_86">
      <g>
       <use style="fill:#262626;stroke:#262626;stroke-width:2;" x="948.837141" xlink:href="#m90fb0812bd" y="248.778281"/>
      </g>
     </g>
    </g>
    <g id="xtick_64">
     <g id="line2d_87">
      <g>
       <use style="fill:#262626;stroke:#262626;stroke-width:2;" x="959.490814" xlink:href="#m90fb0812bd" y="248.778281"/>
      </g>
     </g>
    </g>
    <g id="xtick_65">
     <g id="line2d_88">
      <g>
       <use style="fill:#262626;stroke:#262626;stroke-width:2;" x="968.195498" xlink:href="#m90fb0812bd" y="248.778281"/>
      </g>
     </g>
    </g>
    <g id="xtick_66">
     <g id="line2d_89">
      <g>
       <use style="fill:#262626;stroke:#262626;stroke-width:2;" x="975.555203" xlink:href="#m90fb0812bd" y="248.778281"/>
      </g>
     </g>
    </g>
    <g id="xtick_67">
     <g id="line2d_90">
      <g>
       <use style="fill:#262626;stroke:#262626;stroke-width:2;" x="981.93047" xlink:href="#m90fb0812bd" y="248.778281"/>
      </g>
     </g>
    </g>
    <g id="xtick_68">
     <g id="line2d_91">
      <g>
       <use style="fill:#262626;stroke:#262626;stroke-width:2;" x="987.553854" xlink:href="#m90fb0812bd" y="248.778281"/>
      </g>
     </g>
    </g>
    <g id="xtick_69">
     <g id="line2d_92">
      <g>
       <use style="fill:#262626;stroke:#262626;stroke-width:2;" x="1025.67747" xlink:href="#m90fb0812bd" y="248.778281"/>
      </g>
     </g>
    </g>
    <g id="xtick_70">
     <g id="line2d_93">
      <g>
       <use style="fill:#262626;stroke:#262626;stroke-width:2;" x="1045.035826" xlink:href="#m90fb0812bd" y="248.778281"/>
      </g>
     </g>
    </g>
    <g id="xtick_71">
     <g id="line2d_94">
      <g>
       <use style="fill:#262626;stroke:#262626;stroke-width:2;" x="1058.770799" xlink:href="#m90fb0812bd" y="248.778281"/>
      </g>
     </g>
    </g>
    <g id="xtick_72">
     <g id="line2d_95">
      <g>
       <use style="fill:#262626;stroke:#262626;stroke-width:2;" x="1069.424471" xlink:href="#m90fb0812bd" y="248.778281"/>
      </g>
     </g>
    </g>
    <g id="xtick_73">
     <g id="line2d_96">
      <g>
       <use style="fill:#262626;stroke:#262626;stroke-width:2;" x="1078.129155" xlink:href="#m90fb0812bd" y="248.778281"/>
      </g>
     </g>
    </g>
    <g id="xtick_74">
     <g id="line2d_97">
      <g>
       <use style="fill:#262626;stroke:#262626;stroke-width:2;" x="1085.48886" xlink:href="#m90fb0812bd" y="248.778281"/>
      </g>
     </g>
    </g>
    <g id="xtick_75">
     <g id="line2d_98">
      <g>
       <use style="fill:#262626;stroke:#262626;stroke-width:2;" x="1091.864127" xlink:href="#m90fb0812bd" y="248.778281"/>
      </g>
     </g>
    </g>
    <g id="xtick_76">
     <g id="line2d_99">
      <g>
       <use style="fill:#262626;stroke:#262626;stroke-width:2;" x="1097.487511" xlink:href="#m90fb0812bd" y="248.778281"/>
      </g>
     </g>
    </g>
    <g id="xtick_77">
     <g id="line2d_100">
      <g>
       <use style="fill:#262626;stroke:#262626;stroke-width:2;" x="1135.611128" xlink:href="#m90fb0812bd" y="248.778281"/>
      </g>
     </g>
    </g>
    <g id="xtick_78">
     <g id="line2d_101">
      <g>
       <use style="fill:#262626;stroke:#262626;stroke-width:2;" x="1154.969484" xlink:href="#m90fb0812bd" y="248.778281"/>
      </g>
     </g>
    </g>
    <g id="xtick_79">
     <g id="line2d_102">
      <g>
       <use style="fill:#262626;stroke:#262626;stroke-width:2;" x="1168.704456" xlink:href="#m90fb0812bd" y="248.778281"/>
      </g>
     </g>
    </g>
    <g id="xtick_80">
     <g id="line2d_103">
      <g>
       <use style="fill:#262626;stroke:#262626;stroke-width:2;" x="1179.358128" xlink:href="#m90fb0812bd" y="248.778281"/>
      </g>
     </g>
    </g>
    <g id="xtick_81">
     <g id="line2d_104">
      <g>
       <use style="fill:#262626;stroke:#262626;stroke-width:2;" x="1188.062812" xlink:href="#m90fb0812bd" y="248.778281"/>
      </g>
     </g>
    </g>
    <g id="xtick_82">
     <g id="line2d_105">
      <g>
       <use style="fill:#262626;stroke:#262626;stroke-width:2;" x="1195.422517" xlink:href="#m90fb0812bd" y="248.778281"/>
      </g>
     </g>
    </g>
    <g id="xtick_83">
     <g id="line2d_106">
      <g>
       <use style="fill:#262626;stroke:#262626;stroke-width:2;" x="1201.797784" xlink:href="#m90fb0812bd" y="248.778281"/>
      </g>
     </g>
    </g>
    <g id="xtick_84">
     <g id="line2d_107">
      <g>
       <use style="fill:#262626;stroke:#262626;stroke-width:2;" x="1207.421168" xlink:href="#m90fb0812bd" y="248.778281"/>
      </g>
     </g>
    </g>
    <g id="text_21">
     <!-- prolif. effectors -->
     <g style="fill:#262626;" transform="translate(957.232221 307.806406)scale(0.24 -0.24)">
      <use xlink:href="#DejaVuSans-112"/>
      <use x="63.476562" xlink:href="#DejaVuSans-114"/>
      <use x="102.339844" xlink:href="#DejaVuSans-111"/>
      <use x="163.521484" xlink:href="#DejaVuSans-108"/>
      <use x="191.304688" xlink:href="#DejaVuSans-105"/>
      <use x="219.087891" xlink:href="#DejaVuSans-102"/>
      <use x="247.042969" xlink:href="#DejaVuSans-46"/>
      <use x="278.830078" xlink:href="#DejaVuSans-32"/>
      <use x="310.617188" xlink:href="#DejaVuSans-101"/>
      <use x="372.140625" xlink:href="#DejaVuSans-102"/>
      <use x="407.345703" xlink:href="#DejaVuSans-102"/>
      <use x="442.550781" xlink:href="#DejaVuSans-101"/>
      <use x="504.074219" xlink:href="#DejaVuSans-99"/>
      <use x="559.054688" xlink:href="#DejaVuSans-116"/>
      <use x="598.263672" xlink:href="#DejaVuSans-111"/>
      <use x="659.445312" xlink:href="#DejaVuSans-114"/>
      <use x="700.558594" xlink:href="#DejaVuSans-115"/>
     </g>
    </g>
   </g>
   <g id="matplotlib.axis_6">
    <g id="ytick_11">
     <g id="line2d_108">
      <g>
       <use style="fill:#262626;stroke:#262626;stroke-width:2.5;" x="882.650485" xlink:href="#m42af2a41ac" y="248.778281"/>
      </g>
     </g>
    </g>
    <g id="ytick_12">
     <g id="line2d_109">
      <g>
       <use style="fill:#262626;stroke:#262626;stroke-width:2.5;" x="882.650485" xlink:href="#m42af2a41ac" y="190.473281"/>
      </g>
     </g>
    </g>
    <g id="ytick_13">
     <g id="line2d_110">
      <g>
       <use style="fill:#262626;stroke:#262626;stroke-width:2.5;" x="882.650485" xlink:href="#m42af2a41ac" y="132.168281"/>
      </g>
     </g>
    </g>
    <g id="ytick_14">
     <g id="line2d_111">
      <g>
       <use style="fill:#262626;stroke:#262626;stroke-width:2.5;" x="882.650485" xlink:href="#m42af2a41ac" y="73.863281"/>
      </g>
     </g>
    </g>
    <g id="ytick_15">
     <g id="line2d_112">
      <g>
       <use style="fill:#262626;stroke:#262626;stroke-width:2.5;" x="882.650485" xlink:href="#m42af2a41ac" y="15.558281"/>
      </g>
     </g>
    </g>
   </g>
   <g id="line2d_113">
    <path clip-path="url(#p393ae14e08)" d="M 882.650485 198.951441 
L 889.381117 198.951441 
L 896.111749 198.951441 
L 902.842381 198.95144 
L 909.573013 198.951435 
L 916.303645 198.951422 
L 923.034277 198.951378 
L 929.764909 198.951241 
L 936.495541 198.950834 
L 943.226173 198.949671 
L 949.956805 198.946508 
L 956.687438 198.938354 
L 963.41807 198.918469 
L 970.148702 198.87266 
L 976.879334 198.772693 
L 983.609966 198.564622 
L 990.340598 198.146709 
L 997.07123 197.333978 
L 1001.288826 196.534061 
L 1002.104975 196.35287 
L 1002.907407 196.166361 
L 1003.696575 195.974438 
L 1003.801862 195.948159 
L 1004.472911 195.776675 
L 1005.236825 195.572211 
L 1005.988707 195.359521 
L 1006.728933 195.13585 
L 1007.457857 194.895393 
L 1008.175819 194.617392 
L 1008.883144 194.240906 
L 1009.580143 193.867929 
L 1010.267113 193.49234 
L 1010.532494 193.331542 
L 1010.944338 193.112623 
L 1011.612091 192.735175 
L 1012.270634 192.356487 
L 1012.920217 191.993479 
L 1013.56108 191.572541 
L 1014.193454 191.216696 
L 1014.817562 190.870024 
L 1015.433617 190.473281 
L 1016.041824 190.101118 
L 1016.64238 189.7085 
L 1017.235475 189.379748 
L 1017.263126 189.365874 
L 1017.821293 188.994555 
L 1018.400011 188.622547 
L 1018.971797 188.327238 
L 1019.536816 187.864546 
L 1020.095227 187.546241 
L 1020.647182 187.204643 
L 1023.993758 184.875914 
L 1030.72439 180.086197 
L 1037.455022 174.307588 
L 1044.185655 168.809235 
L 1050.916287 162.396036 
L 1057.646919 155.603741 
L 1064.377551 148.141643 
L 1071.108183 140.532251 
L 1077.838815 132.838191 
L 1084.569447 124.266574 
L 1091.300079 116.372884 
L 1098.030711 108.237187 
L 1104.761343 99.727687 
L 1111.491975 92.102489 
L 1118.222607 84.866815 
L 1124.953239 77.476098 
L 1131.683872 70.958689 
L 1138.414504 65.37619 
L 1145.145136 60.451103 
L 1151.875768 55.42989 
L 1158.6064 52.434376 
L 1165.337032 49.447683 
L 1172.067664 47.26873 
L 1178.798296 45.608986 
L 1185.528928 44.543046 
L 1192.25956 43.013913 
L 1198.990192 42.708423 
L 1205.720824 41.344168 
L 1212.451456 40.242103 
" style="fill:none;stroke:#4c72b0;stroke-linecap:round;stroke-width:5;"/>
   </g>
   <g id="line2d_114">
    <path clip-path="url(#p393ae14e08)" d="M 882.650485 204.185862 
L 889.381117 204.185715 
L 896.111749 204.185295 
L 902.842381 204.184123 
L 909.573013 204.181192 
L 916.303645 204.172669 
L 923.034277 204.151854 
L 929.764909 204.107209 
L 936.495541 204.015309 
L 943.226173 203.846703 
L 949.956805 203.539508 
L 956.687438 203.056268 
L 963.41807 202.441361 
L 970.148702 201.690177 
L 976.879334 200.708237 
L 983.609966 199.652462 
L 990.340598 198.297668 
L 997.07123 196.700722 
L 1001.288826 195.454249 
L 1002.104975 195.284977 
L 1002.907407 194.938643 
L 1003.696575 194.718855 
L 1003.801862 194.784846 
L 1004.472911 194.545388 
L 1005.236825 194.31844 
L 1005.988707 194.074222 
L 1006.728933 193.801565 
L 1007.457857 193.552619 
L 1008.175819 193.362589 
L 1008.883144 192.996071 
L 1009.580143 192.862399 
L 1010.267113 192.578552 
L 1010.532494 192.379721 
L 1010.944338 192.330497 
L 1011.612091 192.044306 
L 1012.270634 191.805684 
L 1012.920217 191.586139 
L 1013.56108 191.141108 
L 1014.193454 190.973174 
L 1014.817562 190.814528 
L 1015.433617 190.473281 
L 1016.041824 190.216153 
L 1016.64238 189.911727 
L 1017.235475 189.771 
L 1017.263126 189.769733 
L 1017.821293 189.461707 
L 1018.400011 189.204213 
L 1018.971797 189.105542 
L 1019.536816 188.638332 
L 1020.095227 188.488236 
L 1020.647182 188.267693 
L 1023.993758 186.544297 
L 1030.72439 183.123071 
L 1037.455022 178.51848 
L 1044.185655 174.292377 
L 1050.916287 168.980042 
L 1057.646919 163.20305 
L 1064.377551 156.642461 
L 1071.108183 149.825766 
L 1077.838815 142.819631 
L 1084.569447 134.844915 
L 1091.300079 127.453827 
L 1098.030711 119.746368 
L 1104.761343 111.60383 
L 1111.491975 104.289006 
L 1118.222607 97.310551 
L 1124.953239 90.142887 
L 1131.683872 83.817651 
L 1138.414504 78.393337 
L 1145.145136 73.60285 
L 1151.875768 68.691497 
L 1158.6064 65.787147 
L 1165.337032 62.8835 
L 1172.067664 60.765728 
L 1178.798296 59.1637 
L 1185.528928 58.138244 
L 1192.25956 56.646339 
L 1198.990192 56.368731 
L 1205.720824 55.027224 
L 1212.451456 53.944153 
" style="fill:none;stroke:#dd8452;stroke-linecap:round;stroke-width:5;"/>
   </g>
   <g id="line2d_115">
    <path clip-path="url(#p393ae14e08)" d="M 882.650485 200.943606 
L 889.381117 200.943605 
L 896.111749 200.943605 
L 902.842381 200.943602 
L 909.573013 200.943593 
L 916.303645 200.943564 
L 923.034277 200.943474 
L 929.764909 200.943202 
L 936.495541 200.942413 
L 943.226173 200.94024 
L 949.956805 200.93456 
L 956.687438 200.920542 
L 963.41807 200.887903 
L 970.148702 200.815936 
L 976.879334 200.663996 
L 983.609966 200.349991 
L 990.340598 199.690813 
L 997.07123 198.298148 
L 1001.288826 197.086423 
L 1002.104975 196.845591 
L 1002.907407 196.601122 
L 1003.696575 196.346225 
L 1003.801862 196.310619 
L 1004.472911 196.071185 
L 1005.236825 195.76122 
L 1005.988707 195.390924 
L 1006.728933 194.907191 
L 1007.457857 194.152698 
L 1008.175819 191.997584 
L 1008.883144 190.331975 
L 1009.580143 190.461804 
L 1010.267113 190.44419 
L 1010.532494 190.339439 
L 1010.944338 190.456326 
L 1011.612091 190.437721 
L 1012.270634 190.45847 
L 1012.920217 190.507404 
L 1013.56108 190.345047 
L 1014.193454 190.443511 
L 1014.817562 190.530368 
L 1015.433617 190.473281 
L 1016.041824 190.493331 
L 1016.64238 190.464442 
L 1017.235475 190.577666 
L 1017.263126 190.584035 
L 1017.821293 190.547654 
L 1018.400011 190.568463 
L 1018.971797 190.700598 
L 1019.536816 190.562671 
L 1020.095227 190.651639 
L 1020.647182 190.697594 
L 1023.993758 190.732612 
L 1030.72439 191.110139 
L 1037.455022 191.205878 
L 1044.185655 191.752517 
L 1050.916287 192.136472 
L 1057.646919 192.612094 
L 1064.377551 193.083056 
L 1071.108183 193.659995 
L 1077.838815 194.342646 
L 1084.569447 194.988841 
L 1091.300079 195.803993 
L 1098.030711 196.65596 
L 1104.761343 197.5292 
L 1111.491975 198.54519 
L 1118.222607 199.599804 
L 1124.953239 200.697655 
L 1131.683872 201.872664 
L 1138.414504 203.118658 
L 1145.145136 204.428427 
L 1151.875768 205.731331 
L 1158.6064 207.162992 
L 1165.337032 208.58581 
L 1172.067664 210.047802 
L 1178.798296 211.548282 
L 1185.528928 213.046147 
L 1192.25956 214.559924 
L 1198.990192 216.072235 
L 1205.720824 217.580688 
L 1212.451456 219.056481 
" style="fill:none;stroke:#55a868;stroke-linecap:round;stroke-width:5;"/>
   </g>
   <g id="patch_13">
    <path d="M 882.650485 248.778281 
L 882.650485 15.558281 
" style="fill:none;stroke:#262626;stroke-linecap:square;stroke-linejoin:miter;stroke-width:2.5;"/>
   </g>
   <g id="patch_14">
    <path d="M 1212.451456 248.778281 
L 1212.451456 15.558281 
" style="fill:none;stroke:#262626;stroke-linecap:square;stroke-linejoin:miter;stroke-width:2.5;"/>
   </g>
   <g id="patch_15">
    <path d="M 882.650485 248.778281 
L 1212.451456 248.778281 
" style="fill:none;stroke:#262626;stroke-linecap:square;stroke-linejoin:miter;stroke-width:2.5;"/>
   </g>
   <g id="patch_16">
    <path d="M 882.650485 15.558281 
L 1212.451456 15.558281 
" style="fill:none;stroke:#262626;stroke-linecap:square;stroke-linejoin:miter;stroke-width:2.5;"/>
   </g>
   <g id="line2d_116">
    <path clip-path="url(#p393ae14e08)" d="M 882.650485 190.473281 
L 1212.451456 190.473281 
" style="fill:none;stroke:#1a1a1a;stroke-dasharray:7.4,3.2;stroke-dashoffset:0;stroke-width:2;"/>
   </g>
   <g id="line2d_117">
    <path clip-path="url(#p393ae14e08)" d="M 992.584142 248.778281 
L 992.584142 15.558281 
" style="fill:none;stroke:#1a1a1a;stroke-dasharray:7.4,3.2;stroke-dashoffset:0;stroke-width:2;"/>
   </g>
  </g>
  <g id="axes_4">
   <g id="patch_17">
    <path d="M 1282.795571 248.778281 
L 1612.596543 248.778281 
L 1612.596543 15.558281 
L 1282.795571 15.558281 
z
" style="fill:#ffffff;"/>
   </g>
   <g id="matplotlib.axis_7">
    <g id="xtick_85">
     <g id="line2d_118">
      <g>
       <use style="fill:#262626;stroke:#262626;stroke-width:2.5;" x="1282.795571" xlink:href="#m7de50b2ed9" y="248.778281"/>
      </g>
     </g>
     <g id="text_22">
      <!-- $\mathdefault{10^{-1}}$ -->
      <g style="fill:#262626;" transform="translate(1256.945571 280.994844)scale(0.22 -0.22)">
       <use transform="translate(0 0.684375)" xlink:href="#DejaVuSans-49"/>
       <use transform="translate(63.623047 0.684375)" xlink:href="#DejaVuSans-48"/>
       <use transform="translate(128.203125 38.965625)scale(0.7)" xlink:href="#DejaVuSans-8722"/>
       <use transform="translate(186.855469 38.965625)scale(0.7)" xlink:href="#DejaVuSans-49"/>
      </g>
     </g>
    </g>
    <g id="xtick_86">
     <g id="line2d_119">
      <g>
       <use style="fill:#262626;stroke:#262626;stroke-width:2.5;" x="1392.729228" xlink:href="#m7de50b2ed9" y="248.778281"/>
      </g>
     </g>
     <g id="text_23">
      <!-- $\mathdefault{10^{0}}$ -->
      <g style="fill:#262626;" transform="translate(1373.369228 280.994844)scale(0.22 -0.22)">
       <use transform="translate(0 0.765625)" xlink:href="#DejaVuSans-49"/>
       <use transform="translate(63.623047 0.765625)" xlink:href="#DejaVuSans-48"/>
       <use transform="translate(128.203125 39.046875)scale(0.7)" xlink:href="#DejaVuSans-48"/>
      </g>
     </g>
    </g>
    <g id="xtick_87">
     <g id="line2d_120">
      <g>
       <use style="fill:#262626;stroke:#262626;stroke-width:2.5;" x="1502.662885" xlink:href="#m7de50b2ed9" y="248.778281"/>
      </g>
     </g>
     <g id="text_24">
      <!-- $\mathdefault{10^{1}}$ -->
      <g style="fill:#262626;" transform="translate(1483.302885 280.994844)scale(0.22 -0.22)">
       <use transform="translate(0 0.684375)" xlink:href="#DejaVuSans-49"/>
       <use transform="translate(63.623047 0.684375)" xlink:href="#DejaVuSans-48"/>
       <use transform="translate(128.203125 38.965625)scale(0.7)" xlink:href="#DejaVuSans-49"/>
      </g>
     </g>
    </g>
    <g id="xtick_88">
     <g id="line2d_121">
      <g>
       <use style="fill:#262626;stroke:#262626;stroke-width:2.5;" x="1612.596543" xlink:href="#m7de50b2ed9" y="248.778281"/>
      </g>
     </g>
     <g id="text_25">
      <!-- $\mathdefault{10^{2}}$ -->
      <g style="fill:#262626;" transform="translate(1593.236543 280.994844)scale(0.22 -0.22)">
       <use transform="translate(0 0.765625)" xlink:href="#DejaVuSans-49"/>
       <use transform="translate(63.623047 0.765625)" xlink:href="#DejaVuSans-48"/>
       <use transform="translate(128.203125 39.046875)scale(0.7)" xlink:href="#DejaVuSans-50"/>
      </g>
     </g>
    </g>
    <g id="xtick_89">
     <g id="line2d_122">
      <g>
       <use style="fill:#262626;stroke:#262626;stroke-width:2;" x="1315.888899" xlink:href="#m90fb0812bd" y="248.778281"/>
      </g>
     </g>
    </g>
    <g id="xtick_90">
     <g id="line2d_123">
      <g>
       <use style="fill:#262626;stroke:#262626;stroke-width:2;" x="1335.247255" xlink:href="#m90fb0812bd" y="248.778281"/>
      </g>
     </g>
    </g>
    <g id="xtick_91">
     <g id="line2d_124">
      <g>
       <use style="fill:#262626;stroke:#262626;stroke-width:2;" x="1348.982228" xlink:href="#m90fb0812bd" y="248.778281"/>
      </g>
     </g>
    </g>
    <g id="xtick_92">
     <g id="line2d_125">
      <g>
       <use style="fill:#262626;stroke:#262626;stroke-width:2;" x="1359.6359" xlink:href="#m90fb0812bd" y="248.778281"/>
      </g>
     </g>
    </g>
    <g id="xtick_93">
     <g id="line2d_126">
      <g>
       <use style="fill:#262626;stroke:#262626;stroke-width:2;" x="1368.340584" xlink:href="#m90fb0812bd" y="248.778281"/>
      </g>
     </g>
    </g>
    <g id="xtick_94">
     <g id="line2d_127">
      <g>
       <use style="fill:#262626;stroke:#262626;stroke-width:2;" x="1375.700289" xlink:href="#m90fb0812bd" y="248.778281"/>
      </g>
     </g>
    </g>
    <g id="xtick_95">
     <g id="line2d_128">
      <g>
       <use style="fill:#262626;stroke:#262626;stroke-width:2;" x="1382.075556" xlink:href="#m90fb0812bd" y="248.778281"/>
      </g>
     </g>
    </g>
    <g id="xtick_96">
     <g id="line2d_129">
      <g>
       <use style="fill:#262626;stroke:#262626;stroke-width:2;" x="1387.69894" xlink:href="#m90fb0812bd" y="248.778281"/>
      </g>
     </g>
    </g>
    <g id="xtick_97">
     <g id="line2d_130">
      <g>
       <use style="fill:#262626;stroke:#262626;stroke-width:2;" x="1425.822556" xlink:href="#m90fb0812bd" y="248.778281"/>
      </g>
     </g>
    </g>
    <g id="xtick_98">
     <g id="line2d_131">
      <g>
       <use style="fill:#262626;stroke:#262626;stroke-width:2;" x="1445.180913" xlink:href="#m90fb0812bd" y="248.778281"/>
      </g>
     </g>
    </g>
    <g id="xtick_99">
     <g id="line2d_132">
      <g>
       <use style="fill:#262626;stroke:#262626;stroke-width:2;" x="1458.915885" xlink:href="#m90fb0812bd" y="248.778281"/>
      </g>
     </g>
    </g>
    <g id="xtick_100">
     <g id="line2d_133">
      <g>
       <use style="fill:#262626;stroke:#262626;stroke-width:2;" x="1469.569557" xlink:href="#m90fb0812bd" y="248.778281"/>
      </g>
     </g>
    </g>
    <g id="xtick_101">
     <g id="line2d_134">
      <g>
       <use style="fill:#262626;stroke:#262626;stroke-width:2;" x="1478.274241" xlink:href="#m90fb0812bd" y="248.778281"/>
      </g>
     </g>
    </g>
    <g id="xtick_102">
     <g id="line2d_135">
      <g>
       <use style="fill:#262626;stroke:#262626;stroke-width:2;" x="1485.633946" xlink:href="#m90fb0812bd" y="248.778281"/>
      </g>
     </g>
    </g>
    <g id="xtick_103">
     <g id="line2d_136">
      <g>
       <use style="fill:#262626;stroke:#262626;stroke-width:2;" x="1492.009213" xlink:href="#m90fb0812bd" y="248.778281"/>
      </g>
     </g>
    </g>
    <g id="xtick_104">
     <g id="line2d_137">
      <g>
       <use style="fill:#262626;stroke:#262626;stroke-width:2;" x="1497.632597" xlink:href="#m90fb0812bd" y="248.778281"/>
      </g>
     </g>
    </g>
    <g id="xtick_105">
     <g id="line2d_138">
      <g>
       <use style="fill:#262626;stroke:#262626;stroke-width:2;" x="1535.756214" xlink:href="#m90fb0812bd" y="248.778281"/>
      </g>
     </g>
    </g>
    <g id="xtick_106">
     <g id="line2d_139">
      <g>
       <use style="fill:#262626;stroke:#262626;stroke-width:2;" x="1555.11457" xlink:href="#m90fb0812bd" y="248.778281"/>
      </g>
     </g>
    </g>
    <g id="xtick_107">
     <g id="line2d_140">
      <g>
       <use style="fill:#262626;stroke:#262626;stroke-width:2;" x="1568.849542" xlink:href="#m90fb0812bd" y="248.778281"/>
      </g>
     </g>
    </g>
    <g id="xtick_108">
     <g id="line2d_141">
      <g>
       <use style="fill:#262626;stroke:#262626;stroke-width:2;" x="1579.503214" xlink:href="#m90fb0812bd" y="248.778281"/>
      </g>
     </g>
    </g>
    <g id="xtick_109">
     <g id="line2d_142">
      <g>
       <use style="fill:#262626;stroke:#262626;stroke-width:2;" x="1588.207898" xlink:href="#m90fb0812bd" y="248.778281"/>
      </g>
     </g>
    </g>
    <g id="xtick_110">
     <g id="line2d_143">
      <g>
       <use style="fill:#262626;stroke:#262626;stroke-width:2;" x="1595.567604" xlink:href="#m90fb0812bd" y="248.778281"/>
      </g>
     </g>
    </g>
    <g id="xtick_111">
     <g id="line2d_144">
      <g>
       <use style="fill:#262626;stroke:#262626;stroke-width:2;" x="1601.94287" xlink:href="#m90fb0812bd" y="248.778281"/>
      </g>
     </g>
    </g>
    <g id="xtick_112">
     <g id="line2d_145">
      <g>
       <use style="fill:#262626;stroke:#262626;stroke-width:2;" x="1607.566254" xlink:href="#m90fb0812bd" y="248.778281"/>
      </g>
     </g>
    </g>
    <g id="text_26">
     <!-- prolif. effectors -->
     <g style="fill:#262626;" transform="translate(1357.377307 307.806406)scale(0.24 -0.24)">
      <use xlink:href="#DejaVuSans-112"/>
      <use x="63.476562" xlink:href="#DejaVuSans-114"/>
      <use x="102.339844" xlink:href="#DejaVuSans-111"/>
      <use x="163.521484" xlink:href="#DejaVuSans-108"/>
      <use x="191.304688" xlink:href="#DejaVuSans-105"/>
      <use x="219.087891" xlink:href="#DejaVuSans-102"/>
      <use x="247.042969" xlink:href="#DejaVuSans-46"/>
      <use x="278.830078" xlink:href="#DejaVuSans-32"/>
      <use x="310.617188" xlink:href="#DejaVuSans-101"/>
      <use x="372.140625" xlink:href="#DejaVuSans-102"/>
      <use x="407.345703" xlink:href="#DejaVuSans-102"/>
      <use x="442.550781" xlink:href="#DejaVuSans-101"/>
      <use x="504.074219" xlink:href="#DejaVuSans-99"/>
      <use x="559.054688" xlink:href="#DejaVuSans-116"/>
      <use x="598.263672" xlink:href="#DejaVuSans-111"/>
      <use x="659.445312" xlink:href="#DejaVuSans-114"/>
      <use x="700.558594" xlink:href="#DejaVuSans-115"/>
     </g>
    </g>
   </g>
   <g id="matplotlib.axis_8">
    <g id="ytick_16">
     <g id="line2d_146">
      <g>
       <use style="fill:#262626;stroke:#262626;stroke-width:2.5;" x="1282.795571" xlink:href="#m42af2a41ac" y="248.778281"/>
      </g>
     </g>
    </g>
    <g id="ytick_17">
     <g id="line2d_147">
      <g>
       <use style="fill:#262626;stroke:#262626;stroke-width:2.5;" x="1282.795571" xlink:href="#m42af2a41ac" y="190.473281"/>
      </g>
     </g>
    </g>
    <g id="ytick_18">
     <g id="line2d_148">
      <g>
       <use style="fill:#262626;stroke:#262626;stroke-width:2.5;" x="1282.795571" xlink:href="#m42af2a41ac" y="132.168281"/>
      </g>
     </g>
    </g>
    <g id="ytick_19">
     <g id="line2d_149">
      <g>
       <use style="fill:#262626;stroke:#262626;stroke-width:2.5;" x="1282.795571" xlink:href="#m42af2a41ac" y="73.863281"/>
      </g>
     </g>
    </g>
    <g id="ytick_20">
     <g id="line2d_150">
      <g>
       <use style="fill:#262626;stroke:#262626;stroke-width:2.5;" x="1282.795571" xlink:href="#m42af2a41ac" y="15.558281"/>
      </g>
     </g>
    </g>
   </g>
   <g id="line2d_151">
    <path clip-path="url(#p40b33b7e4c)" d="M 1282.795571 198.428076 
L 1289.526203 198.428076 
L 1296.256835 198.428076 
L 1302.987467 198.428075 
L 1309.718099 198.42807 
L 1316.448731 198.428057 
L 1323.179363 198.428013 
L 1329.909995 198.427876 
L 1336.640627 198.427469 
L 1343.37126 198.426306 
L 1350.101892 198.423143 
L 1356.832524 198.414989 
L 1363.563156 198.395104 
L 1370.293788 198.349295 
L 1377.02442 198.249328 
L 1383.755052 198.041258 
L 1390.485684 197.623344 
L 1397.216316 196.810613 
L 1401.433912 196.010696 
L 1402.250062 195.829505 
L 1403.052494 195.642996 
L 1403.841662 195.451073 
L 1403.946948 195.424794 
L 1404.617997 195.25331 
L 1405.381911 195.048847 
L 1406.133794 194.836156 
L 1406.874019 194.612485 
L 1407.602943 194.372028 
L 1408.320905 194.091009 
L 1409.02823 193.764818 
L 1409.725229 193.436681 
L 1410.412199 193.107635 
L 1410.67758 192.980996 
L 1411.089424 192.779593 
L 1411.757177 192.435076 
L 1412.41572 192.092645 
L 1413.065303 191.774946 
L 1413.706166 191.429274 
L 1414.33854 191.132902 
L 1414.962648 190.820968 
L 1415.578703 190.473281 
L 1416.18691 190.109484 
L 1416.787466 189.791384 
L 1417.380561 189.412296 
L 1417.408212 189.401915 
L 1417.96638 189.113678 
L 1418.545097 188.72973 
L 1419.116883 188.501338 
L 1419.681902 188.131065 
L 1420.240313 187.834771 
L 1420.792268 187.438492 
L 1424.138844 185.219353 
L 1430.869477 180.447133 
L 1437.600109 174.957086 
L 1444.330741 168.456266 
L 1451.061373 160.64028 
L 1457.792005 151.727062 
L 1464.522637 141.043879 
L 1471.253269 128.597705 
L 1477.983901 113.890006 
L 1484.714533 96.91142 
L 1491.445165 76.881418 
L 1498.175797 52.617859 
L 1504.906429 24.684372 
L 1510.055467 -1 
" style="fill:none;stroke:#4c72b0;stroke-linecap:round;stroke-width:5;"/>
   </g>
   <g id="line2d_152">
    <path clip-path="url(#p40b33b7e4c)" d="M 1282.795571 202.525896 
L 1289.526203 202.525857 
L 1296.256835 202.525728 
L 1302.987467 202.525322 
L 1309.718099 202.524289 
L 1316.448731 202.521285 
L 1323.179363 202.513662 
L 1329.909995 202.493571 
L 1336.640627 202.448552 
L 1343.37126 202.355974 
L 1350.101892 202.186227 
L 1356.832524 201.88679 
L 1363.563156 201.431079 
L 1370.293788 200.752585 
L 1377.02442 199.87471 
L 1383.755052 198.817911 
L 1390.485684 197.669335 
L 1397.216316 196.203593 
L 1401.433912 195.04637 
L 1402.250062 194.896636 
L 1403.052494 194.59339 
L 1403.841662 194.35508 
L 1403.946948 194.353217 
L 1404.617997 194.194552 
L 1405.381911 194.048653 
L 1406.133794 193.776685 
L 1406.874019 193.438168 
L 1407.602943 193.224075 
L 1408.320905 193.083134 
L 1409.02823 192.842724 
L 1409.725229 192.63719 
L 1410.412199 192.392774 
L 1410.67758 192.265643 
L 1411.089424 192.143947 
L 1411.757177 191.791612 
L 1412.41572 191.498906 
L 1413.065303 191.343787 
L 1413.706166 191.050823 
L 1414.33854 190.955069 
L 1414.962648 190.75707 
L 1415.578703 190.473281 
L 1416.18691 190.126508 
L 1416.787466 189.917939 
L 1417.380561 189.556554 
L 1417.408212 189.555856 
L 1417.96638 189.401426 
L 1418.545097 189.027828 
L 1419.116883 189.022705 
L 1419.681902 188.684551 
L 1420.240313 188.518125 
L 1420.792268 188.14201 
L 1424.138844 186.355015 
L 1430.869477 182.661748 
L 1437.600109 178.26554 
L 1444.330741 172.822212 
L 1451.061373 166.015733 
L 1457.792005 158.083442 
L 1464.522637 148.300936 
L 1471.253269 136.668848 
L 1477.983901 122.678709 
L 1484.714533 106.30942 
L 1491.445165 86.805089 
L 1498.175797 62.982227 
L 1504.906429 35.41745 
L 1511.637061 2.159701 
L 1512.195053 -1 
" style="fill:none;stroke:#dd8452;stroke-linecap:round;stroke-width:5;"/>
   </g>
   <g id="line2d_153">
    <path clip-path="url(#p40b33b7e4c)" d="M 1282.795571 199.567252 
L 1289.526203 199.567252 
L 1296.256835 199.567251 
L 1302.987467 199.567249 
L 1309.718099 199.56724 
L 1316.448731 199.567211 
L 1323.179363 199.567121 
L 1329.909995 199.566849 
L 1336.640627 199.56606 
L 1343.37126 199.563887 
L 1350.101892 199.558207 
L 1356.832524 199.544189 
L 1363.563156 199.511549 
L 1370.293788 199.439583 
L 1377.02442 199.287643 
L 1383.755052 198.973638 
L 1390.485684 198.31446 
L 1397.216316 196.921795 
L 1401.433912 195.71007 
L 1402.250062 195.469238 
L 1403.052494 195.224769 
L 1403.841662 194.969872 
L 1403.946948 194.934266 
L 1404.617997 194.694831 
L 1405.381911 194.384867 
L 1406.133794 194.014571 
L 1406.874019 193.530837 
L 1407.602943 192.776344 
L 1408.320905 190.490707 
L 1409.02823 190.483631 
L 1409.725229 190.492153 
L 1410.412199 190.484717 
L 1410.67758 190.454435 
L 1411.089424 190.47661 
L 1411.757177 190.357223 
L 1412.41572 190.319546 
L 1413.065303 190.395699 
L 1413.706166 190.340406 
L 1414.33854 190.473021 
L 1414.962648 190.505523 
L 1415.578703 190.473281 
L 1416.18691 190.392108 
L 1416.787466 190.414265 
L 1417.380561 190.327777 
L 1417.408212 190.334009 
L 1417.96638 190.400614 
L 1418.545097 190.311351 
L 1419.116883 190.487928 
L 1419.681902 190.423726 
L 1420.240313 190.48437 
L 1420.792268 190.39827 
L 1424.138844 190.298421 
L 1430.869477 190.354439 
L 1437.600109 190.432287 
L 1444.330741 190.444043 
L 1451.061373 190.385462 
L 1457.792005 190.413341 
L 1464.522637 190.37789 
L 1471.253269 190.371053 
L 1477.983901 190.356866 
L 1484.714533 190.378094 
L 1491.445165 190.396777 
L 1498.175797 190.343103 
L 1504.906429 190.344431 
L 1511.637061 190.316443 
L 1518.367694 190.330401 
L 1525.098326 190.323464 
L 1531.828958 190.313182 
L 1538.55959 190.292817 
L 1545.290222 190.295677 
L 1552.020854 190.288016 
L 1558.751486 190.273253 
L 1565.482118 190.273263 
L 1572.21275 190.270932 
L 1578.943382 190.254526 
L 1585.674014 190.25371 
L 1592.404646 190.23398 
L 1599.135278 190.225733 
L 1605.865911 190.212945 
L 1612.596543 190.202199 
" style="fill:none;stroke:#55a868;stroke-linecap:round;stroke-width:5;"/>
   </g>
   <g id="patch_18">
    <path d="M 1282.795571 248.778281 
L 1282.795571 15.558281 
" style="fill:none;stroke:#262626;stroke-linecap:square;stroke-linejoin:miter;stroke-width:2.5;"/>
   </g>
   <g id="patch_19">
    <path d="M 1612.596543 248.778281 
L 1612.596543 15.558281 
" style="fill:none;stroke:#262626;stroke-linecap:square;stroke-linejoin:miter;stroke-width:2.5;"/>
   </g>
   <g id="patch_20">
    <path d="M 1282.795571 248.778281 
L 1612.596543 248.778281 
" style="fill:none;stroke:#262626;stroke-linecap:square;stroke-linejoin:miter;stroke-width:2.5;"/>
   </g>
   <g id="patch_21">
    <path d="M 1282.795571 15.558281 
L 1612.596543 15.558281 
" style="fill:none;stroke:#262626;stroke-linecap:square;stroke-linejoin:miter;stroke-width:2.5;"/>
   </g>
   <g id="line2d_154">
    <path clip-path="url(#p40b33b7e4c)" d="M 1282.795571 190.473281 
L 1612.596543 190.473281 
" style="fill:none;stroke:#1a1a1a;stroke-dasharray:7.4,3.2;stroke-dashoffset:0;stroke-width:2;"/>
   </g>
   <g id="line2d_155">
    <path clip-path="url(#p40b33b7e4c)" d="M 1392.729228 248.778281 
L 1392.729228 15.558281 
" style="fill:none;stroke:#1a1a1a;stroke-dasharray:7.4,3.2;stroke-dashoffset:0;stroke-width:2;"/>
   </g>
  </g>
  <g id="legend_1">
   <g id="text_27">
    <!-- readout -->
    <g style="fill:#262626;" transform="translate(1477.501875 118.183516)scale(0.24 -0.24)">
     <defs>
      <path d="M 34.28125 27.484375 
Q 23.390625 27.484375 19.1875 25 
Q 14.984375 22.515625 14.984375 16.5 
Q 14.984375 11.71875 18.140625 8.90625 
Q 21.296875 6.109375 26.703125 6.109375 
Q 34.1875 6.109375 38.703125 11.40625 
Q 43.21875 16.703125 43.21875 25.484375 
L 43.21875 27.484375 
z
M 52.203125 31.203125 
L 52.203125 0 
L 43.21875 0 
L 43.21875 8.296875 
Q 40.140625 3.328125 35.546875 0.953125 
Q 30.953125 -1.421875 24.3125 -1.421875 
Q 15.921875 -1.421875 10.953125 3.296875 
Q 6 8.015625 6 15.921875 
Q 6 25.140625 12.171875 29.828125 
Q 18.359375 34.515625 30.609375 34.515625 
L 43.21875 34.515625 
L 43.21875 35.40625 
Q 43.21875 41.609375 39.140625 45 
Q 35.0625 48.390625 27.6875 48.390625 
Q 23 48.390625 18.546875 47.265625 
Q 14.109375 46.140625 10.015625 43.890625 
L 10.015625 52.203125 
Q 14.9375 54.109375 19.578125 55.046875 
Q 24.21875 56 28.609375 56 
Q 40.484375 56 46.34375 49.84375 
Q 52.203125 43.703125 52.203125 31.203125 
z
" id="DejaVuSans-97"/>
      <path d="M 45.40625 46.390625 
L 45.40625 75.984375 
L 54.390625 75.984375 
L 54.390625 0 
L 45.40625 0 
L 45.40625 8.203125 
Q 42.578125 3.328125 38.25 0.953125 
Q 33.9375 -1.421875 27.875 -1.421875 
Q 17.96875 -1.421875 11.734375 6.484375 
Q 5.515625 14.40625 5.515625 27.296875 
Q 5.515625 40.1875 11.734375 48.09375 
Q 17.96875 56 27.875 56 
Q 33.9375 56 38.25 53.625 
Q 42.578125 51.265625 45.40625 46.390625 
z
M 14.796875 27.296875 
Q 14.796875 17.390625 18.875 11.75 
Q 22.953125 6.109375 30.078125 6.109375 
Q 37.203125 6.109375 41.296875 11.75 
Q 45.40625 17.390625 45.40625 27.296875 
Q 45.40625 37.203125 41.296875 42.84375 
Q 37.203125 48.484375 30.078125 48.484375 
Q 22.953125 48.484375 18.875 42.84375 
Q 14.796875 37.203125 14.796875 27.296875 
z
" id="DejaVuSans-100"/>
      <path d="M 8.5 21.578125 
L 8.5 54.6875 
L 17.484375 54.6875 
L 17.484375 21.921875 
Q 17.484375 14.15625 20.5 10.265625 
Q 23.53125 6.390625 29.59375 6.390625 
Q 36.859375 6.390625 41.078125 11.03125 
Q 45.3125 15.671875 45.3125 23.6875 
L 45.3125 54.6875 
L 54.296875 54.6875 
L 54.296875 0 
L 45.3125 0 
L 45.3125 8.40625 
Q 42.046875 3.421875 37.71875 1 
Q 33.40625 -1.421875 27.6875 -1.421875 
Q 18.265625 -1.421875 13.375 4.4375 
Q 8.5 10.296875 8.5 21.578125 
z
M 31.109375 56 
z
" id="DejaVuSans-117"/>
     </defs>
     <use xlink:href="#DejaVuSans-114"/>
     <use x="38.863281" xlink:href="#DejaVuSans-101"/>
     <use x="100.386719" xlink:href="#DejaVuSans-97"/>
     <use x="161.666016" xlink:href="#DejaVuSans-100"/>
     <use x="225.142578" xlink:href="#DejaVuSans-111"/>
     <use x="286.324219" xlink:href="#DejaVuSans-117"/>
     <use x="349.703125" xlink:href="#DejaVuSans-116"/>
    </g>
   </g>
   <g id="line2d_156">
    <path d="M 1414.464688 143.191328 
L 1458.464688 143.191328 
" style="fill:none;stroke:#4c72b0;stroke-linecap:round;stroke-width:5;"/>
   </g>
   <g id="line2d_157"/>
   <g id="text_28">
    <!-- Peak Height -->
    <g style="fill:#262626;" transform="translate(1476.064687 150.891328)scale(0.22 -0.22)">
     <defs>
      <path d="M 19.671875 64.796875 
L 19.671875 37.40625 
L 32.078125 37.40625 
Q 38.96875 37.40625 42.71875 40.96875 
Q 46.484375 44.53125 46.484375 51.125 
Q 46.484375 57.671875 42.71875 61.234375 
Q 38.96875 64.796875 32.078125 64.796875 
z
M 9.8125 72.90625 
L 32.078125 72.90625 
Q 44.34375 72.90625 50.609375 67.359375 
Q 56.890625 61.8125 56.890625 51.125 
Q 56.890625 40.328125 50.609375 34.8125 
Q 44.34375 29.296875 32.078125 29.296875 
L 19.671875 29.296875 
L 19.671875 0 
L 9.8125 0 
z
" id="DejaVuSans-80"/>
      <path d="M 9.078125 75.984375 
L 18.109375 75.984375 
L 18.109375 31.109375 
L 44.921875 54.6875 
L 56.390625 54.6875 
L 27.390625 29.109375 
L 57.625 0 
L 45.90625 0 
L 18.109375 26.703125 
L 18.109375 0 
L 9.078125 0 
z
" id="DejaVuSans-107"/>
      <path d="M 9.8125 72.90625 
L 19.671875 72.90625 
L 19.671875 43.015625 
L 55.515625 43.015625 
L 55.515625 72.90625 
L 65.375 72.90625 
L 65.375 0 
L 55.515625 0 
L 55.515625 34.71875 
L 19.671875 34.71875 
L 19.671875 0 
L 9.8125 0 
z
" id="DejaVuSans-72"/>
      <path d="M 45.40625 27.984375 
Q 45.40625 37.75 41.375 43.109375 
Q 37.359375 48.484375 30.078125 48.484375 
Q 22.859375 48.484375 18.828125 43.109375 
Q 14.796875 37.75 14.796875 27.984375 
Q 14.796875 18.265625 18.828125 12.890625 
Q 22.859375 7.515625 30.078125 7.515625 
Q 37.359375 7.515625 41.375 12.890625 
Q 45.40625 18.265625 45.40625 27.984375 
z
M 54.390625 6.78125 
Q 54.390625 -7.171875 48.1875 -13.984375 
Q 42 -20.796875 29.203125 -20.796875 
Q 24.46875 -20.796875 20.265625 -20.09375 
Q 16.0625 -19.390625 12.109375 -17.921875 
L 12.109375 -9.1875 
Q 16.0625 -11.328125 19.921875 -12.34375 
Q 23.78125 -13.375 27.78125 -13.375 
Q 36.625 -13.375 41.015625 -8.765625 
Q 45.40625 -4.15625 45.40625 5.171875 
L 45.40625 9.625 
Q 42.625 4.78125 38.28125 2.390625 
Q 33.9375 0 27.875 0 
Q 17.828125 0 11.671875 7.65625 
Q 5.515625 15.328125 5.515625 27.984375 
Q 5.515625 40.671875 11.671875 48.328125 
Q 17.828125 56 27.875 56 
Q 33.9375 56 38.28125 53.609375 
Q 42.625 51.21875 45.40625 46.390625 
L 45.40625 54.6875 
L 54.390625 54.6875 
z
" id="DejaVuSans-103"/>
      <path d="M 54.890625 33.015625 
L 54.890625 0 
L 45.90625 0 
L 45.90625 32.71875 
Q 45.90625 40.484375 42.875 44.328125 
Q 39.84375 48.1875 33.796875 48.1875 
Q 26.515625 48.1875 22.3125 43.546875 
Q 18.109375 38.921875 18.109375 30.90625 
L 18.109375 0 
L 9.078125 0 
L 9.078125 75.984375 
L 18.109375 75.984375 
L 18.109375 46.1875 
Q 21.34375 51.125 25.703125 53.5625 
Q 30.078125 56 35.796875 56 
Q 45.21875 56 50.046875 50.171875 
Q 54.890625 44.34375 54.890625 33.015625 
z
" id="DejaVuSans-104"/>
     </defs>
     <use xlink:href="#DejaVuSans-80"/>
     <use x="56.677734" xlink:href="#DejaVuSans-101"/>
     <use x="118.201172" xlink:href="#DejaVuSans-97"/>
     <use x="179.480469" xlink:href="#DejaVuSans-107"/>
     <use x="237.390625" xlink:href="#DejaVuSans-32"/>
     <use x="269.177734" xlink:href="#DejaVuSans-72"/>
     <use x="344.373047" xlink:href="#DejaVuSans-101"/>
     <use x="405.896484" xlink:href="#DejaVuSans-105"/>
     <use x="433.679688" xlink:href="#DejaVuSans-103"/>
     <use x="497.15625" xlink:href="#DejaVuSans-104"/>
     <use x="560.535156" xlink:href="#DejaVuSans-116"/>
    </g>
   </g>
   <g id="line2d_158">
    <path d="M 1414.464688 175.483203 
L 1458.464688 175.483203 
" style="fill:none;stroke:#dd8452;stroke-linecap:round;stroke-width:5;"/>
   </g>
   <g id="line2d_159"/>
   <g id="text_29">
    <!-- Response Size -->
    <g style="fill:#262626;" transform="translate(1476.064687 183.183203)scale(0.22 -0.22)">
     <defs>
      <path d="M 44.390625 34.1875 
Q 47.5625 33.109375 50.5625 29.59375 
Q 53.5625 26.078125 56.59375 19.921875 
L 66.609375 0 
L 56 0 
L 46.6875 18.703125 
Q 43.0625 26.03125 39.671875 28.421875 
Q 36.28125 30.8125 30.421875 30.8125 
L 19.671875 30.8125 
L 19.671875 0 
L 9.8125 0 
L 9.8125 72.90625 
L 32.078125 72.90625 
Q 44.578125 72.90625 50.734375 67.671875 
Q 56.890625 62.453125 56.890625 51.90625 
Q 56.890625 45.015625 53.6875 40.46875 
Q 50.484375 35.9375 44.390625 34.1875 
z
M 19.671875 64.796875 
L 19.671875 38.921875 
L 32.078125 38.921875 
Q 39.203125 38.921875 42.84375 42.21875 
Q 46.484375 45.515625 46.484375 51.90625 
Q 46.484375 58.296875 42.84375 61.546875 
Q 39.203125 64.796875 32.078125 64.796875 
z
" id="DejaVuSans-82"/>
      <path d="M 54.890625 33.015625 
L 54.890625 0 
L 45.90625 0 
L 45.90625 32.71875 
Q 45.90625 40.484375 42.875 44.328125 
Q 39.84375 48.1875 33.796875 48.1875 
Q 26.515625 48.1875 22.3125 43.546875 
Q 18.109375 38.921875 18.109375 30.90625 
L 18.109375 0 
L 9.078125 0 
L 9.078125 54.6875 
L 18.109375 54.6875 
L 18.109375 46.1875 
Q 21.34375 51.125 25.703125 53.5625 
Q 30.078125 56 35.796875 56 
Q 45.21875 56 50.046875 50.171875 
Q 54.890625 44.34375 54.890625 33.015625 
z
" id="DejaVuSans-110"/>
      <path d="M 53.515625 70.515625 
L 53.515625 60.890625 
Q 47.90625 63.578125 42.921875 64.890625 
Q 37.9375 66.21875 33.296875 66.21875 
Q 25.25 66.21875 20.875 63.09375 
Q 16.5 59.96875 16.5 54.203125 
Q 16.5 49.359375 19.40625 46.890625 
Q 22.3125 44.4375 30.421875 42.921875 
L 36.375 41.703125 
Q 47.40625 39.59375 52.65625 34.296875 
Q 57.90625 29 57.90625 20.125 
Q 57.90625 9.515625 50.796875 4.046875 
Q 43.703125 -1.421875 29.984375 -1.421875 
Q 24.8125 -1.421875 18.96875 -0.25 
Q 13.140625 0.921875 6.890625 3.21875 
L 6.890625 13.375 
Q 12.890625 10.015625 18.65625 8.296875 
Q 24.421875 6.59375 29.984375 6.59375 
Q 38.421875 6.59375 43.015625 9.90625 
Q 47.609375 13.234375 47.609375 19.390625 
Q 47.609375 24.75 44.3125 27.78125 
Q 41.015625 30.8125 33.5 32.328125 
L 27.484375 33.5 
Q 16.453125 35.6875 11.515625 40.375 
Q 6.59375 45.0625 6.59375 53.421875 
Q 6.59375 63.09375 13.40625 68.65625 
Q 20.21875 74.21875 32.171875 74.21875 
Q 37.3125 74.21875 42.625 73.28125 
Q 47.953125 72.359375 53.515625 70.515625 
z
" id="DejaVuSans-83"/>
     </defs>
     <use xlink:href="#DejaVuSans-82"/>
     <use x="64.982422" xlink:href="#DejaVuSans-101"/>
     <use x="126.505859" xlink:href="#DejaVuSans-115"/>
     <use x="178.605469" xlink:href="#DejaVuSans-112"/>
     <use x="242.082031" xlink:href="#DejaVuSans-111"/>
     <use x="303.263672" xlink:href="#DejaVuSans-110"/>
     <use x="366.642578" xlink:href="#DejaVuSans-115"/>
     <use x="418.742188" xlink:href="#DejaVuSans-101"/>
     <use x="480.265625" xlink:href="#DejaVuSans-32"/>
     <use x="512.052734" xlink:href="#DejaVuSans-83"/>
     <use x="575.529297" xlink:href="#DejaVuSans-105"/>
     <use x="603.3125" xlink:href="#DejaVuSans-122"/>
     <use x="655.802734" xlink:href="#DejaVuSans-101"/>
    </g>
   </g>
   <g id="line2d_160">
    <path d="M 1414.464688 207.775078 
L 1458.464688 207.775078 
" style="fill:none;stroke:#55a868;stroke-linecap:round;stroke-width:5;"/>
   </g>
   <g id="line2d_161"/>
   <g id="text_30">
    <!-- Peak Time -->
    <g style="fill:#262626;" transform="translate(1476.064687 215.475078)scale(0.22 -0.22)">
     <defs>
      <path d="M -0.296875 72.90625 
L 61.375 72.90625 
L 61.375 64.59375 
L 35.5 64.59375 
L 35.5 0 
L 25.59375 0 
L 25.59375 64.59375 
L -0.296875 64.59375 
z
" id="DejaVuSans-84"/>
      <path d="M 52 44.1875 
Q 55.375 50.25 60.0625 53.125 
Q 64.75 56 71.09375 56 
Q 79.640625 56 84.28125 50.015625 
Q 88.921875 44.046875 88.921875 33.015625 
L 88.921875 0 
L 79.890625 0 
L 79.890625 32.71875 
Q 79.890625 40.578125 77.09375 44.375 
Q 74.3125 48.1875 68.609375 48.1875 
Q 61.625 48.1875 57.5625 43.546875 
Q 53.515625 38.921875 53.515625 30.90625 
L 53.515625 0 
L 44.484375 0 
L 44.484375 32.71875 
Q 44.484375 40.625 41.703125 44.40625 
Q 38.921875 48.1875 33.109375 48.1875 
Q 26.21875 48.1875 22.15625 43.53125 
Q 18.109375 38.875 18.109375 30.90625 
L 18.109375 0 
L 9.078125 0 
L 9.078125 54.6875 
L 18.109375 54.6875 
L 18.109375 46.1875 
Q 21.1875 51.21875 25.484375 53.609375 
Q 29.78125 56 35.6875 56 
Q 41.65625 56 45.828125 52.96875 
Q 50 49.953125 52 44.1875 
z
" id="DejaVuSans-109"/>
     </defs>
     <use xlink:href="#DejaVuSans-80"/>
     <use x="56.677734" xlink:href="#DejaVuSans-101"/>
     <use x="118.201172" xlink:href="#DejaVuSans-97"/>
     <use x="179.480469" xlink:href="#DejaVuSans-107"/>
     <use x="237.390625" xlink:href="#DejaVuSans-32"/>
     <use x="269.177734" xlink:href="#DejaVuSans-84"/>
     <use x="327.136719" xlink:href="#DejaVuSans-105"/>
     <use x="354.919922" xlink:href="#DejaVuSans-109"/>
     <use x="452.332031" xlink:href="#DejaVuSans-101"/>
    </g>
   </g>
  </g>
 </g>
 <defs>
  <clipPath id="p4ffb16ba65">
   <rect height="233.22" width="329.800972" x="82.360313" y="15.558281"/>
  </clipPath>
  <clipPath id="p86de3730f3">
   <rect height="233.22" width="329.800972" x="482.505399" y="15.558281"/>
  </clipPath>
  <clipPath id="p393ae14e08">
   <rect height="233.22" width="329.800972" x="882.650485" y="15.558281"/>
  </clipPath>
  <clipPath id="p40b33b7e4c">
   <rect height="233.22" width="329.800972" x="1282.795571" y="15.558281"/>
  </clipPath>
 </defs>
</svg>
