<?xml version="1.0" encoding="utf-8" standalone="no"?>
<!DOCTYPE svg PUBLIC "-//W3C//DTD SVG 1.1//EN"
  "http://www.w3.org/Graphics/SVG/1.1/DTD/svg11.dtd">
<svg xmlns:xlink="http://www.w3.org/1999/xlink" width="1283.205873pt" height="322.519687pt" viewBox="0 0 1283.205873 322.519687" xmlns="http://www.w3.org/2000/svg" version="1.1">
 <metadata>
  <rdf:RDF xmlns:dc="http://purl.org/dc/elements/1.1/" xmlns:cc="http://creativecommons.org/ns#" xmlns:rdf="http://www.w3.org/1999/02/22-rdf-syntax-ns#">
   <cc:Work>
    <dc:type rdf:resource="http://purl.org/dc/dcmitype/StillImage"/>
    <dc:date>2022-07-11T09:20:52.000795</dc:date>
    <dc:format>image/svg+xml</dc:format>
    <dc:creator>
     <cc:Agent>
      <dc:title>Matplotlib v3.5.1, https://matplotlib.org/</dc:title>
     </cc:Agent>
    </dc:creator>
   </cc:Work>
  </rdf:RDF>
 </metadata>
 <defs>
  <style type="text/css">*{stroke-linejoin: round; stroke-linecap: butt}</style>
 </defs>
 <g id="figure_1">
  <g id="patch_1">
   <path d="M 0 322.519687 
L 1283.205873 322.519687 
L 1283.205873 0 
L 0 0 
z
" style="fill: #ffffff"/>
  </g>
  <g id="axes_1">
   <g id="patch_2">
    <path d="M 91.462813 253.47 
L 384.792077 253.47 
L 384.792077 30.67125 
L 91.462813 30.67125 
z
" style="fill: #ffffff"/>
   </g>
   <g id="matplotlib.axis_1">
    <g id="xtick_1">
     <g id="line2d_1">
      <defs>
       <path id="mb8534ff796" d="M 0 0 
L 0 12 
" style="stroke: #262626; stroke-width: 2.5"/>
      </defs>
      <g>
       <use xlink:href="#mb8534ff796" x="104.795961" y="253.47" style="fill: #262626; stroke: #262626; stroke-width: 2.5"/>
      </g>
     </g>
     <g id="text_1">
      <!-- 1 -->
      <g style="fill: #262626" transform="translate(98.67893 284.717187)scale(0.22 -0.22)">
       <defs>
        <path id="ArialMT-31" d="M 2384 0 
L 1822 0 
L 1822 3584 
Q 1619 3391 1289 3197 
Q 959 3003 697 2906 
L 697 3450 
Q 1169 3672 1522 3987 
Q 1875 4303 2022 4600 
L 2384 4600 
L 2384 0 
z
" transform="scale(0.015625)"/>
       </defs>
       <use xlink:href="#ArialMT-31"/>
      </g>
     </g>
    </g>
    <g id="xtick_2">
     <g id="line2d_2">
      <g>
       <use xlink:href="#mb8534ff796" x="193.683617" y="253.47" style="fill: #262626; stroke: #262626; stroke-width: 2.5"/>
      </g>
     </g>
     <g id="text_2">
      <!-- 2 -->
      <g style="fill: #262626" transform="translate(187.566586 284.717187)scale(0.22 -0.22)">
       <defs>
        <path id="ArialMT-32" d="M 3222 541 
L 3222 0 
L 194 0 
Q 188 203 259 391 
Q 375 700 629 1000 
Q 884 1300 1366 1694 
Q 2113 2306 2375 2664 
Q 2638 3022 2638 3341 
Q 2638 3675 2398 3904 
Q 2159 4134 1775 4134 
Q 1369 4134 1125 3890 
Q 881 3647 878 3216 
L 300 3275 
Q 359 3922 746 4261 
Q 1134 4600 1788 4600 
Q 2447 4600 2831 4234 
Q 3216 3869 3216 3328 
Q 3216 3053 3103 2787 
Q 2991 2522 2730 2228 
Q 2469 1934 1863 1422 
Q 1356 997 1212 845 
Q 1069 694 975 541 
L 3222 541 
z
" transform="scale(0.015625)"/>
       </defs>
       <use xlink:href="#ArialMT-32"/>
      </g>
     </g>
    </g>
    <g id="xtick_3">
     <g id="line2d_3">
      <g>
       <use xlink:href="#mb8534ff796" x="282.571273" y="253.47" style="fill: #262626; stroke: #262626; stroke-width: 2.5"/>
      </g>
     </g>
     <g id="text_3">
      <!-- 3 -->
      <g style="fill: #262626" transform="translate(276.454242 284.717187)scale(0.22 -0.22)">
       <defs>
        <path id="ArialMT-33" d="M 269 1209 
L 831 1284 
Q 928 806 1161 595 
Q 1394 384 1728 384 
Q 2125 384 2398 659 
Q 2672 934 2672 1341 
Q 2672 1728 2419 1979 
Q 2166 2231 1775 2231 
Q 1616 2231 1378 2169 
L 1441 2663 
Q 1497 2656 1531 2656 
Q 1891 2656 2178 2843 
Q 2466 3031 2466 3422 
Q 2466 3731 2256 3934 
Q 2047 4138 1716 4138 
Q 1388 4138 1169 3931 
Q 950 3725 888 3313 
L 325 3413 
Q 428 3978 793 4289 
Q 1159 4600 1703 4600 
Q 2078 4600 2393 4439 
Q 2709 4278 2876 4000 
Q 3044 3722 3044 3409 
Q 3044 3113 2884 2869 
Q 2725 2625 2413 2481 
Q 2819 2388 3044 2092 
Q 3269 1797 3269 1353 
Q 3269 753 2831 336 
Q 2394 -81 1725 -81 
Q 1122 -81 723 278 
Q 325 638 269 1209 
z
" transform="scale(0.015625)"/>
       </defs>
       <use xlink:href="#ArialMT-33"/>
      </g>
     </g>
    </g>
    <g id="xtick_4">
     <g id="line2d_4">
      <g>
       <use xlink:href="#mb8534ff796" x="371.458929" y="253.47" style="fill: #262626; stroke: #262626; stroke-width: 2.5"/>
      </g>
     </g>
     <g id="text_4">
      <!-- 4 -->
      <g style="fill: #262626" transform="translate(365.341898 284.717187)scale(0.22 -0.22)">
       <defs>
        <path id="ArialMT-34" d="M 2069 0 
L 2069 1097 
L 81 1097 
L 81 1613 
L 2172 4581 
L 2631 4581 
L 2631 1613 
L 3250 1613 
L 3250 1097 
L 2631 1097 
L 2631 0 
L 2069 0 
z
M 2069 1613 
L 2069 3678 
L 634 1613 
L 2069 1613 
z
" transform="scale(0.015625)"/>
       </defs>
       <use xlink:href="#ArialMT-34"/>
      </g>
     </g>
    </g>
    <g id="text_5">
     <!-- divisions per day -->
     <g style="fill: #262626" transform="translate(148.753695 310.268437)scale(0.24 -0.24)">
      <defs>
       <path id="ArialMT-64" d="M 2575 0 
L 2575 419 
Q 2259 -75 1647 -75 
Q 1250 -75 917 144 
Q 584 363 401 755 
Q 219 1147 219 1656 
Q 219 2153 384 2558 
Q 550 2963 881 3178 
Q 1213 3394 1622 3394 
Q 1922 3394 2156 3267 
Q 2391 3141 2538 2938 
L 2538 4581 
L 3097 4581 
L 3097 0 
L 2575 0 
z
M 797 1656 
Q 797 1019 1065 703 
Q 1334 388 1700 388 
Q 2069 388 2326 689 
Q 2584 991 2584 1609 
Q 2584 2291 2321 2609 
Q 2059 2928 1675 2928 
Q 1300 2928 1048 2622 
Q 797 2316 797 1656 
z
" transform="scale(0.015625)"/>
       <path id="ArialMT-69" d="M 425 3934 
L 425 4581 
L 988 4581 
L 988 3934 
L 425 3934 
z
M 425 0 
L 425 3319 
L 988 3319 
L 988 0 
L 425 0 
z
" transform="scale(0.015625)"/>
       <path id="ArialMT-76" d="M 1344 0 
L 81 3319 
L 675 3319 
L 1388 1331 
Q 1503 1009 1600 663 
Q 1675 925 1809 1294 
L 2547 3319 
L 3125 3319 
L 1869 0 
L 1344 0 
z
" transform="scale(0.015625)"/>
       <path id="ArialMT-73" d="M 197 991 
L 753 1078 
Q 800 744 1014 566 
Q 1228 388 1613 388 
Q 2000 388 2187 545 
Q 2375 703 2375 916 
Q 2375 1106 2209 1216 
Q 2094 1291 1634 1406 
Q 1016 1563 777 1677 
Q 538 1791 414 1992 
Q 291 2194 291 2438 
Q 291 2659 392 2848 
Q 494 3038 669 3163 
Q 800 3259 1026 3326 
Q 1253 3394 1513 3394 
Q 1903 3394 2198 3281 
Q 2494 3169 2634 2976 
Q 2775 2784 2828 2463 
L 2278 2388 
Q 2241 2644 2061 2787 
Q 1881 2931 1553 2931 
Q 1166 2931 1000 2803 
Q 834 2675 834 2503 
Q 834 2394 903 2306 
Q 972 2216 1119 2156 
Q 1203 2125 1616 2013 
Q 2213 1853 2448 1751 
Q 2684 1650 2818 1456 
Q 2953 1263 2953 975 
Q 2953 694 2789 445 
Q 2625 197 2315 61 
Q 2006 -75 1616 -75 
Q 969 -75 630 194 
Q 291 463 197 991 
z
" transform="scale(0.015625)"/>
       <path id="ArialMT-6f" d="M 213 1659 
Q 213 2581 725 3025 
Q 1153 3394 1769 3394 
Q 2453 3394 2887 2945 
Q 3322 2497 3322 1706 
Q 3322 1066 3130 698 
Q 2938 331 2570 128 
Q 2203 -75 1769 -75 
Q 1072 -75 642 372 
Q 213 819 213 1659 
z
M 791 1659 
Q 791 1022 1069 705 
Q 1347 388 1769 388 
Q 2188 388 2466 706 
Q 2744 1025 2744 1678 
Q 2744 2294 2464 2611 
Q 2184 2928 1769 2928 
Q 1347 2928 1069 2612 
Q 791 2297 791 1659 
z
" transform="scale(0.015625)"/>
       <path id="ArialMT-6e" d="M 422 0 
L 422 3319 
L 928 3319 
L 928 2847 
Q 1294 3394 1984 3394 
Q 2284 3394 2536 3286 
Q 2788 3178 2913 3003 
Q 3038 2828 3088 2588 
Q 3119 2431 3119 2041 
L 3119 0 
L 2556 0 
L 2556 2019 
Q 2556 2363 2490 2533 
Q 2425 2703 2258 2804 
Q 2091 2906 1866 2906 
Q 1506 2906 1245 2678 
Q 984 2450 984 1813 
L 984 0 
L 422 0 
z
" transform="scale(0.015625)"/>
       <path id="ArialMT-20" transform="scale(0.015625)"/>
       <path id="ArialMT-70" d="M 422 -1272 
L 422 3319 
L 934 3319 
L 934 2888 
Q 1116 3141 1344 3267 
Q 1572 3394 1897 3394 
Q 2322 3394 2647 3175 
Q 2972 2956 3137 2557 
Q 3303 2159 3303 1684 
Q 3303 1175 3120 767 
Q 2938 359 2589 142 
Q 2241 -75 1856 -75 
Q 1575 -75 1351 44 
Q 1128 163 984 344 
L 984 -1272 
L 422 -1272 
z
M 931 1641 
Q 931 1000 1190 694 
Q 1450 388 1819 388 
Q 2194 388 2461 705 
Q 2728 1022 2728 1688 
Q 2728 2322 2467 2637 
Q 2206 2953 1844 2953 
Q 1484 2953 1207 2617 
Q 931 2281 931 1641 
z
" transform="scale(0.015625)"/>
       <path id="ArialMT-65" d="M 2694 1069 
L 3275 997 
Q 3138 488 2766 206 
Q 2394 -75 1816 -75 
Q 1088 -75 661 373 
Q 234 822 234 1631 
Q 234 2469 665 2931 
Q 1097 3394 1784 3394 
Q 2450 3394 2872 2941 
Q 3294 2488 3294 1666 
Q 3294 1616 3291 1516 
L 816 1516 
Q 847 969 1125 678 
Q 1403 388 1819 388 
Q 2128 388 2347 550 
Q 2566 713 2694 1069 
z
M 847 1978 
L 2700 1978 
Q 2663 2397 2488 2606 
Q 2219 2931 1791 2931 
Q 1403 2931 1139 2672 
Q 875 2413 847 1978 
z
" transform="scale(0.015625)"/>
       <path id="ArialMT-72" d="M 416 0 
L 416 3319 
L 922 3319 
L 922 2816 
Q 1116 3169 1280 3281 
Q 1444 3394 1641 3394 
Q 1925 3394 2219 3213 
L 2025 2691 
Q 1819 2813 1613 2813 
Q 1428 2813 1281 2702 
Q 1134 2591 1072 2394 
Q 978 2094 978 1738 
L 978 0 
L 416 0 
z
" transform="scale(0.015625)"/>
       <path id="ArialMT-61" d="M 2588 409 
Q 2275 144 1986 34 
Q 1697 -75 1366 -75 
Q 819 -75 525 192 
Q 231 459 231 875 
Q 231 1119 342 1320 
Q 453 1522 633 1644 
Q 813 1766 1038 1828 
Q 1203 1872 1538 1913 
Q 2219 1994 2541 2106 
Q 2544 2222 2544 2253 
Q 2544 2597 2384 2738 
Q 2169 2928 1744 2928 
Q 1347 2928 1158 2789 
Q 969 2650 878 2297 
L 328 2372 
Q 403 2725 575 2942 
Q 747 3159 1072 3276 
Q 1397 3394 1825 3394 
Q 2250 3394 2515 3294 
Q 2781 3194 2906 3042 
Q 3031 2891 3081 2659 
Q 3109 2516 3109 2141 
L 3109 1391 
Q 3109 606 3145 398 
Q 3181 191 3288 0 
L 2700 0 
Q 2613 175 2588 409 
z
M 2541 1666 
Q 2234 1541 1622 1453 
Q 1275 1403 1131 1340 
Q 988 1278 909 1158 
Q 831 1038 831 891 
Q 831 666 1001 516 
Q 1172 366 1500 366 
Q 1825 366 2078 508 
Q 2331 650 2450 897 
Q 2541 1088 2541 1459 
L 2541 1666 
z
" transform="scale(0.015625)"/>
       <path id="ArialMT-79" d="M 397 -1278 
L 334 -750 
Q 519 -800 656 -800 
Q 844 -800 956 -737 
Q 1069 -675 1141 -563 
Q 1194 -478 1313 -144 
Q 1328 -97 1363 -6 
L 103 3319 
L 709 3319 
L 1400 1397 
Q 1534 1031 1641 628 
Q 1738 1016 1872 1384 
L 2581 3319 
L 3144 3319 
L 1881 -56 
Q 1678 -603 1566 -809 
Q 1416 -1088 1222 -1217 
Q 1028 -1347 759 -1347 
Q 597 -1347 397 -1278 
z
" transform="scale(0.015625)"/>
      </defs>
      <use xlink:href="#ArialMT-64"/>
      <use xlink:href="#ArialMT-69" x="55.615234"/>
      <use xlink:href="#ArialMT-76" x="77.832031"/>
      <use xlink:href="#ArialMT-69" x="127.832031"/>
      <use xlink:href="#ArialMT-73" x="150.048828"/>
      <use xlink:href="#ArialMT-69" x="200.048828"/>
      <use xlink:href="#ArialMT-6f" x="222.265625"/>
      <use xlink:href="#ArialMT-6e" x="277.880859"/>
      <use xlink:href="#ArialMT-73" x="333.496094"/>
      <use xlink:href="#ArialMT-20" x="383.496094"/>
      <use xlink:href="#ArialMT-70" x="411.279297"/>
      <use xlink:href="#ArialMT-65" x="466.894531"/>
      <use xlink:href="#ArialMT-72" x="522.509766"/>
      <use xlink:href="#ArialMT-20" x="555.810547"/>
      <use xlink:href="#ArialMT-64" x="583.59375"/>
      <use xlink:href="#ArialMT-61" x="639.208984"/>
      <use xlink:href="#ArialMT-79" x="694.824219"/>
     </g>
    </g>
   </g>
   <g id="matplotlib.axis_2">
    <g id="ytick_1">
     <g id="line2d_5">
      <defs>
       <path id="m776af3b89b" d="M 0 0 
L -12 0 
" style="stroke: #262626; stroke-width: 2.5"/>
      </defs>
      <g>
       <use xlink:href="#m776af3b89b" x="91.462813" y="233.215568" style="fill: #262626; stroke: #262626; stroke-width: 2.5"/>
      </g>
     </g>
     <g id="text_6">
      <!-- 0.0 -->
      <g style="fill: #262626" transform="translate(45.382813 241.089162)scale(0.22 -0.22)">
       <defs>
        <path id="ArialMT-30" d="M 266 2259 
Q 266 3072 433 3567 
Q 600 4063 929 4331 
Q 1259 4600 1759 4600 
Q 2128 4600 2406 4451 
Q 2684 4303 2865 4023 
Q 3047 3744 3150 3342 
Q 3253 2941 3253 2259 
Q 3253 1453 3087 958 
Q 2922 463 2592 192 
Q 2263 -78 1759 -78 
Q 1097 -78 719 397 
Q 266 969 266 2259 
z
M 844 2259 
Q 844 1131 1108 757 
Q 1372 384 1759 384 
Q 2147 384 2411 759 
Q 2675 1134 2675 2259 
Q 2675 3391 2411 3762 
Q 2147 4134 1753 4134 
Q 1366 4134 1134 3806 
Q 844 3388 844 2259 
z
" transform="scale(0.015625)"/>
        <path id="ArialMT-2e" d="M 581 0 
L 581 641 
L 1222 641 
L 1222 0 
L 581 0 
z
" transform="scale(0.015625)"/>
       </defs>
       <use xlink:href="#ArialMT-30"/>
       <use xlink:href="#ArialMT-2e" x="55.615234"/>
       <use xlink:href="#ArialMT-30" x="83.398438"/>
      </g>
     </g>
    </g>
    <g id="ytick_2">
     <g id="line2d_6">
      <g>
       <use xlink:href="#m776af3b89b" x="91.462813" y="182.579489" style="fill: #262626; stroke: #262626; stroke-width: 2.5"/>
      </g>
     </g>
     <g id="text_7">
      <!-- 2.5 -->
      <g style="fill: #262626" transform="translate(45.382813 190.453082)scale(0.22 -0.22)">
       <defs>
        <path id="ArialMT-35" d="M 266 1200 
L 856 1250 
Q 922 819 1161 601 
Q 1400 384 1738 384 
Q 2144 384 2425 690 
Q 2706 997 2706 1503 
Q 2706 1984 2436 2262 
Q 2166 2541 1728 2541 
Q 1456 2541 1237 2417 
Q 1019 2294 894 2097 
L 366 2166 
L 809 4519 
L 3088 4519 
L 3088 3981 
L 1259 3981 
L 1013 2750 
Q 1425 3038 1878 3038 
Q 2478 3038 2890 2622 
Q 3303 2206 3303 1553 
Q 3303 931 2941 478 
Q 2500 -78 1738 -78 
Q 1113 -78 717 272 
Q 322 622 266 1200 
z
" transform="scale(0.015625)"/>
       </defs>
       <use xlink:href="#ArialMT-32"/>
       <use xlink:href="#ArialMT-2e" x="55.615234"/>
       <use xlink:href="#ArialMT-35" x="83.398438"/>
      </g>
     </g>
    </g>
    <g id="ytick_3">
     <g id="line2d_7">
      <g>
       <use xlink:href="#m776af3b89b" x="91.462813" y="131.943409" style="fill: #262626; stroke: #262626; stroke-width: 2.5"/>
      </g>
     </g>
     <g id="text_8">
      <!-- 5.0 -->
      <g style="fill: #262626" transform="translate(45.382813 139.817003)scale(0.22 -0.22)">
       <use xlink:href="#ArialMT-35"/>
       <use xlink:href="#ArialMT-2e" x="55.615234"/>
       <use xlink:href="#ArialMT-30" x="83.398438"/>
      </g>
     </g>
    </g>
    <g id="ytick_4">
     <g id="line2d_8">
      <g>
       <use xlink:href="#m776af3b89b" x="91.462813" y="81.30733" style="fill: #262626; stroke: #262626; stroke-width: 2.5"/>
      </g>
     </g>
     <g id="text_9">
      <!-- 7.5 -->
      <g style="fill: #262626" transform="translate(45.382813 89.180923)scale(0.22 -0.22)">
       <defs>
        <path id="ArialMT-37" d="M 303 3981 
L 303 4522 
L 3269 4522 
L 3269 4084 
Q 2831 3619 2401 2847 
Q 1972 2075 1738 1259 
Q 1569 684 1522 0 
L 944 0 
Q 953 541 1156 1306 
Q 1359 2072 1739 2783 
Q 2119 3494 2547 3981 
L 303 3981 
z
" transform="scale(0.015625)"/>
       </defs>
       <use xlink:href="#ArialMT-37"/>
       <use xlink:href="#ArialMT-2e" x="55.615234"/>
       <use xlink:href="#ArialMT-35" x="83.398438"/>
      </g>
     </g>
    </g>
    <g id="ytick_5">
     <g id="line2d_9">
      <g>
       <use xlink:href="#m776af3b89b" x="91.462813" y="30.67125" style="fill: #262626; stroke: #262626; stroke-width: 2.5"/>
      </g>
     </g>
     <g id="text_10">
      <!-- 10.0 -->
      <g style="fill: #262626" transform="translate(33.14875 38.544844)scale(0.22 -0.22)">
       <use xlink:href="#ArialMT-31"/>
       <use xlink:href="#ArialMT-30" x="55.615234"/>
       <use xlink:href="#ArialMT-2e" x="111.230469"/>
       <use xlink:href="#ArialMT-30" x="139.013672"/>
      </g>
     </g>
    </g>
    <g id="text_11">
     <!-- effect size -->
     <g style="fill: #262626" transform="translate(24.37875 195.88125)rotate(-90)scale(0.24 -0.24)">
      <defs>
       <path id="ArialMT-66" d="M 556 0 
L 556 2881 
L 59 2881 
L 59 3319 
L 556 3319 
L 556 3672 
Q 556 4006 616 4169 
Q 697 4388 901 4523 
Q 1106 4659 1475 4659 
Q 1713 4659 2000 4603 
L 1916 4113 
Q 1741 4144 1584 4144 
Q 1328 4144 1222 4034 
Q 1116 3925 1116 3625 
L 1116 3319 
L 1763 3319 
L 1763 2881 
L 1116 2881 
L 1116 0 
L 556 0 
z
" transform="scale(0.015625)"/>
       <path id="ArialMT-63" d="M 2588 1216 
L 3141 1144 
Q 3050 572 2676 248 
Q 2303 -75 1759 -75 
Q 1078 -75 664 370 
Q 250 816 250 1647 
Q 250 2184 428 2587 
Q 606 2991 970 3192 
Q 1334 3394 1763 3394 
Q 2303 3394 2647 3120 
Q 2991 2847 3088 2344 
L 2541 2259 
Q 2463 2594 2264 2762 
Q 2066 2931 1784 2931 
Q 1359 2931 1093 2626 
Q 828 2322 828 1663 
Q 828 994 1084 691 
Q 1341 388 1753 388 
Q 2084 388 2306 591 
Q 2528 794 2588 1216 
z
" transform="scale(0.015625)"/>
       <path id="ArialMT-74" d="M 1650 503 
L 1731 6 
Q 1494 -44 1306 -44 
Q 1000 -44 831 53 
Q 663 150 594 308 
Q 525 466 525 972 
L 525 2881 
L 113 2881 
L 113 3319 
L 525 3319 
L 525 4141 
L 1084 4478 
L 1084 3319 
L 1650 3319 
L 1650 2881 
L 1084 2881 
L 1084 941 
Q 1084 700 1114 631 
Q 1144 563 1211 522 
Q 1278 481 1403 481 
Q 1497 481 1650 503 
z
" transform="scale(0.015625)"/>
       <path id="ArialMT-7a" d="M 125 0 
L 125 456 
L 2238 2881 
Q 1878 2863 1603 2863 
L 250 2863 
L 250 3319 
L 2963 3319 
L 2963 2947 
L 1166 841 
L 819 456 
Q 1197 484 1528 484 
L 3063 484 
L 3063 0 
L 125 0 
z
" transform="scale(0.015625)"/>
      </defs>
      <use xlink:href="#ArialMT-65"/>
      <use xlink:href="#ArialMT-66" x="55.615234"/>
      <use xlink:href="#ArialMT-66" x="81.648438"/>
      <use xlink:href="#ArialMT-65" x="109.431641"/>
      <use xlink:href="#ArialMT-63" x="165.046875"/>
      <use xlink:href="#ArialMT-74" x="215.046875"/>
      <use xlink:href="#ArialMT-20" x="242.830078"/>
      <use xlink:href="#ArialMT-73" x="270.613281"/>
      <use xlink:href="#ArialMT-69" x="320.613281"/>
      <use xlink:href="#ArialMT-7a" x="342.830078"/>
      <use xlink:href="#ArialMT-65" x="392.830078"/>
     </g>
    </g>
   </g>
   <g id="line2d_10">
    <path d="M 104.795961 232.749853 
L 110.238062 232.644786 
L 115.680164 232.764306 
L 121.122265 232.718394 
L 126.564366 232.706728 
L 132.006468 232.764118 
L 137.448569 232.785311 
L 142.890671 232.768367 
L 148.332772 232.686789 
L 153.774873 232.603072 
L 159.216975 232.650468 
L 164.659076 232.730757 
L 170.101178 232.70823 
L 175.543279 232.758133 
L 180.98538 232.816761 
L 186.427482 232.805533 
L 191.869583 232.64586 
L 197.311684 232.623546 
L 202.753786 232.699178 
L 208.195887 232.833299 
L 213.637989 232.583043 
L 219.08009 232.70294 
L 224.522191 232.76313 
L 229.964293 232.724284 
L 235.406394 232.547016 
L 240.848496 232.660629 
L 246.290597 232.58323 
L 251.732698 232.770203 
L 257.1748 232.713532 
L 262.616901 232.894784 
L 268.059003 232.77984 
L 273.501104 232.876371 
L 278.943205 232.624191 
L 284.385307 232.55707 
L 289.827408 232.674736 
L 295.269509 232.378184 
L 300.711611 232.852017 
L 306.153712 233.215568 
L 311.595814 232.776432 
L 317.037915 233.120359 
L 322.480016 232.957988 
L 327.922118 232.531394 
L 333.364219 232.624199 
L 338.806321 232.825559 
L 344.248422 232.464481 
L 349.690523 232.937956 
L 355.132625 232.800164 
L 360.574726 232.767345 
L 366.016827 232.839405 
L 371.458929 232.234728 
" clip-path="url(#p00eb033f97)" style="fill: none; stroke: #4c72b0; stroke-width: 5; stroke-linecap: round"/>
   </g>
   <g id="line2d_11">
    <path d="M 104.795961 223.988141 
L 110.238062 224.715899 
L 115.680164 225.554943 
L 121.122265 226.119682 
L 126.564366 226.657259 
L 132.006468 227.203852 
L 137.448569 227.676346 
L 142.890671 228.041936 
L 148.332772 228.31863 
L 153.774873 228.575537 
L 159.216975 228.937193 
L 164.659076 229.276889 
L 170.101178 229.485386 
L 175.543279 229.768244 
L 180.98538 230.042862 
L 186.427482 230.232386 
L 191.869583 230.259711 
L 197.311684 230.412247 
L 202.753786 230.651718 
L 208.195887 230.939664 
L 213.637989 230.833723 
L 219.08009 231.089904 
L 224.522191 231.278671 
L 229.964293 231.36129 
L 235.406394 231.298904 
L 240.848496 231.521705 
L 246.290597 231.547822 
L 251.732698 231.833454 
L 257.1748 231.870499 
L 262.616901 232.141292 
L 268.059003 232.111534 
L 273.501104 232.28963 
L 278.943205 232.115139 
L 284.385307 232.122542 
L 289.827408 232.311786 
L 295.269509 232.083496 
L 300.711611 232.623561 
L 306.153712 233.054499 
L 311.595814 232.675271 
L 317.037915 233.077562 
L 322.480016 232.970909 
L 327.922118 232.573714 
L 333.364219 232.718529 
L 338.806321 232.975452 
L 344.248422 232.662415 
L 349.690523 233.183083 
L 355.132625 233.090331 
L 360.574726 233.101167 
L 366.016827 233.215568 
L 371.458929 232.651228 
" clip-path="url(#p00eb033f97)" style="fill: none; stroke: #dd8452; stroke-width: 5; stroke-linecap: round"/>
   </g>
   <g id="line2d_12">
    <path d="M 104.795961 192.871647 
L 110.238062 195.212986 
L 115.680164 197.382604 
L 121.122265 199.348984 
L 126.564366 201.171105 
L 132.006468 202.871877 
L 137.448569 204.4543 
L 142.890671 205.924482 
L 148.332772 207.296924 
L 153.774873 208.590584 
L 159.216975 209.829998 
L 164.659076 211.000758 
L 170.101178 212.097948 
L 175.543279 213.151837 
L 180.98538 214.156174 
L 186.427482 215.104332 
L 191.869583 215.989527 
L 197.311684 216.853618 
L 202.753786 217.693858 
L 208.195887 218.507372 
L 213.637989 219.238251 
L 219.08009 219.987892 
L 224.522191 220.701638 
L 229.964293 221.376318 
L 235.406394 222.008761 
L 240.848496 222.655205 
L 246.290597 223.255549 
L 251.732698 223.868494 
L 257.1748 224.431351 
L 262.616901 225.00527 
L 268.059003 225.52505 
L 273.501104 226.054251 
L 278.943205 226.525287 
L 284.385307 227.004046 
L 289.827408 227.490785 
L 295.269509 227.914531 
L 300.711611 228.416819 
L 306.153712 228.936499 
L 311.595814 229.307208 
L 317.037915 229.758377 
L 322.480016 230.139735 
L 327.922118 230.449225 
L 333.364219 230.839757 
L 338.806321 231.237089 
L 344.248422 231.557666 
L 349.690523 231.963421 
L 355.132625 232.292117 
L 360.574726 232.624555 
L 366.016827 232.960821 
L 371.458929 233.215568 
" clip-path="url(#p00eb033f97)" style="fill: none; stroke: #55a868; stroke-width: 5; stroke-linecap: round"/>
   </g>
   <g id="line2d_13"/>
   <g id="line2d_14"/>
   <g id="line2d_15"/>
   <g id="patch_3">
    <path d="M 91.462813 253.47 
L 91.462813 30.67125 
" style="fill: none; stroke: #262626; stroke-width: 2.5; stroke-linejoin: miter; stroke-linecap: square"/>
   </g>
   <g id="patch_4">
    <path d="M 384.792077 253.47 
L 384.792077 30.67125 
" style="fill: none; stroke: #262626; stroke-width: 2.5; stroke-linejoin: miter; stroke-linecap: square"/>
   </g>
   <g id="patch_5">
    <path d="M 91.462813 253.47 
L 384.792077 253.47 
" style="fill: none; stroke: #262626; stroke-width: 2.5; stroke-linejoin: miter; stroke-linecap: square"/>
   </g>
   <g id="patch_6">
    <path d="M 91.462813 30.67125 
L 384.792077 30.67125 
" style="fill: none; stroke: #262626; stroke-width: 2.5; stroke-linejoin: miter; stroke-linecap: square"/>
   </g>
   <g id="text_12">
    <!-- Carrying Capacity -->
    <g style="fill: #262626" transform="translate(142.764945 24.67125)scale(0.24 -0.24)">
     <defs>
      <path id="ArialMT-43" d="M 3763 1606 
L 4369 1453 
Q 4178 706 3683 314 
Q 3188 -78 2472 -78 
Q 1731 -78 1267 223 
Q 803 525 561 1097 
Q 319 1669 319 2325 
Q 319 3041 592 3573 
Q 866 4106 1370 4382 
Q 1875 4659 2481 4659 
Q 3169 4659 3637 4309 
Q 4106 3959 4291 3325 
L 3694 3184 
Q 3534 3684 3231 3912 
Q 2928 4141 2469 4141 
Q 1941 4141 1586 3887 
Q 1231 3634 1087 3207 
Q 944 2781 944 2328 
Q 944 1744 1114 1308 
Q 1284 872 1643 656 
Q 2003 441 2422 441 
Q 2931 441 3284 734 
Q 3638 1028 3763 1606 
z
" transform="scale(0.015625)"/>
      <path id="ArialMT-67" d="M 319 -275 
L 866 -356 
Q 900 -609 1056 -725 
Q 1266 -881 1628 -881 
Q 2019 -881 2231 -725 
Q 2444 -569 2519 -288 
Q 2563 -116 2559 434 
Q 2191 0 1641 0 
Q 956 0 581 494 
Q 206 988 206 1678 
Q 206 2153 378 2554 
Q 550 2956 876 3175 
Q 1203 3394 1644 3394 
Q 2231 3394 2613 2919 
L 2613 3319 
L 3131 3319 
L 3131 450 
Q 3131 -325 2973 -648 
Q 2816 -972 2473 -1159 
Q 2131 -1347 1631 -1347 
Q 1038 -1347 672 -1080 
Q 306 -813 319 -275 
z
M 784 1719 
Q 784 1066 1043 766 
Q 1303 466 1694 466 
Q 2081 466 2343 764 
Q 2606 1063 2606 1700 
Q 2606 2309 2336 2618 
Q 2066 2928 1684 2928 
Q 1309 2928 1046 2623 
Q 784 2319 784 1719 
z
" transform="scale(0.015625)"/>
     </defs>
     <use xlink:href="#ArialMT-43"/>
     <use xlink:href="#ArialMT-61" x="72.216797"/>
     <use xlink:href="#ArialMT-72" x="127.832031"/>
     <use xlink:href="#ArialMT-72" x="161.132812"/>
     <use xlink:href="#ArialMT-79" x="194.433594"/>
     <use xlink:href="#ArialMT-69" x="244.433594"/>
     <use xlink:href="#ArialMT-6e" x="266.650391"/>
     <use xlink:href="#ArialMT-67" x="322.265625"/>
     <use xlink:href="#ArialMT-20" x="377.880859"/>
     <use xlink:href="#ArialMT-43" x="405.664062"/>
     <use xlink:href="#ArialMT-61" x="477.880859"/>
     <use xlink:href="#ArialMT-70" x="533.496094"/>
     <use xlink:href="#ArialMT-61" x="589.111328"/>
     <use xlink:href="#ArialMT-63" x="644.726562"/>
     <use xlink:href="#ArialMT-69" x="694.726562"/>
     <use xlink:href="#ArialMT-74" x="716.943359"/>
     <use xlink:href="#ArialMT-79" x="744.726562"/>
    </g>
   </g>
   <g id="line2d_16">
    <path d="M 208.921501 253.47 
L 208.921501 30.67125 
" clip-path="url(#p00eb033f97)" style="fill: none; stroke-dasharray: 7.4,3.2; stroke-dashoffset: 0; stroke: #1a1a1a; stroke-width: 2"/>
   </g>
  </g>
  <g id="axes_2">
   <g id="patch_7">
    <path d="M 422.45391 253.47 
L 715.783175 253.47 
L 715.783175 30.67125 
L 422.45391 30.67125 
z
" style="fill: #ffffff"/>
   </g>
   <g id="matplotlib.axis_3">
    <g id="xtick_5">
     <g id="line2d_17">
      <g>
       <use xlink:href="#mb8534ff796" x="435.787059" y="253.47" style="fill: #262626; stroke: #262626; stroke-width: 2.5"/>
      </g>
     </g>
     <g id="text_13">
      <!-- 1 -->
      <g style="fill: #262626" transform="translate(429.670027 284.717187)scale(0.22 -0.22)">
       <use xlink:href="#ArialMT-31"/>
      </g>
     </g>
    </g>
    <g id="xtick_6">
     <g id="line2d_18">
      <g>
       <use xlink:href="#mb8534ff796" x="524.674715" y="253.47" style="fill: #262626; stroke: #262626; stroke-width: 2.5"/>
      </g>
     </g>
     <g id="text_14">
      <!-- 2 -->
      <g style="fill: #262626" transform="translate(518.557683 284.717187)scale(0.22 -0.22)">
       <use xlink:href="#ArialMT-32"/>
      </g>
     </g>
    </g>
    <g id="xtick_7">
     <g id="line2d_19">
      <g>
       <use xlink:href="#mb8534ff796" x="613.56237" y="253.47" style="fill: #262626; stroke: #262626; stroke-width: 2.5"/>
      </g>
     </g>
     <g id="text_15">
      <!-- 3 -->
      <g style="fill: #262626" transform="translate(607.445339 284.717187)scale(0.22 -0.22)">
       <use xlink:href="#ArialMT-33"/>
      </g>
     </g>
    </g>
    <g id="xtick_8">
     <g id="line2d_20">
      <g>
       <use xlink:href="#mb8534ff796" x="702.450026" y="253.47" style="fill: #262626; stroke: #262626; stroke-width: 2.5"/>
      </g>
     </g>
     <g id="text_16">
      <!-- 4 -->
      <g style="fill: #262626" transform="translate(696.332995 284.717187)scale(0.22 -0.22)">
       <use xlink:href="#ArialMT-34"/>
      </g>
     </g>
    </g>
    <g id="text_17">
     <!-- divisions per day -->
     <g style="fill: #262626" transform="translate(479.744793 310.268437)scale(0.24 -0.24)">
      <use xlink:href="#ArialMT-64"/>
      <use xlink:href="#ArialMT-69" x="55.615234"/>
      <use xlink:href="#ArialMT-76" x="77.832031"/>
      <use xlink:href="#ArialMT-69" x="127.832031"/>
      <use xlink:href="#ArialMT-73" x="150.048828"/>
      <use xlink:href="#ArialMT-69" x="200.048828"/>
      <use xlink:href="#ArialMT-6f" x="222.265625"/>
      <use xlink:href="#ArialMT-6e" x="277.880859"/>
      <use xlink:href="#ArialMT-73" x="333.496094"/>
      <use xlink:href="#ArialMT-20" x="383.496094"/>
      <use xlink:href="#ArialMT-70" x="411.279297"/>
      <use xlink:href="#ArialMT-65" x="466.894531"/>
      <use xlink:href="#ArialMT-72" x="522.509766"/>
      <use xlink:href="#ArialMT-20" x="555.810547"/>
      <use xlink:href="#ArialMT-64" x="583.59375"/>
      <use xlink:href="#ArialMT-61" x="639.208984"/>
      <use xlink:href="#ArialMT-79" x="694.824219"/>
     </g>
    </g>
   </g>
   <g id="matplotlib.axis_4">
    <g id="ytick_6">
     <g id="line2d_21">
      <g>
       <use xlink:href="#m776af3b89b" x="422.45391" y="233.215568" style="fill: #262626; stroke: #262626; stroke-width: 2.5"/>
      </g>
     </g>
    </g>
    <g id="ytick_7">
     <g id="line2d_22">
      <g>
       <use xlink:href="#m776af3b89b" x="422.45391" y="182.579489" style="fill: #262626; stroke: #262626; stroke-width: 2.5"/>
      </g>
     </g>
    </g>
    <g id="ytick_8">
     <g id="line2d_23">
      <g>
       <use xlink:href="#m776af3b89b" x="422.45391" y="131.943409" style="fill: #262626; stroke: #262626; stroke-width: 2.5"/>
      </g>
     </g>
    </g>
    <g id="ytick_9">
     <g id="line2d_24">
      <g>
       <use xlink:href="#m776af3b89b" x="422.45391" y="81.30733" style="fill: #262626; stroke: #262626; stroke-width: 2.5"/>
      </g>
     </g>
    </g>
    <g id="ytick_10">
     <g id="line2d_25">
      <g>
       <use xlink:href="#m776af3b89b" x="422.45391" y="30.67125" style="fill: #262626; stroke: #262626; stroke-width: 2.5"/>
      </g>
     </g>
    </g>
   </g>
   <g id="line2d_26">
    <path d="M 435.787059 233.215568 
L 441.22916 229.453234 
L 446.671261 226.000045 
L 452.113363 222.807283 
L 457.555464 219.836917 
L 462.997565 217.058705 
L 468.439667 214.44821 
L 473.881768 211.985412 
L 479.32387 209.653702 
L 484.765971 207.439153 
L 490.208072 205.329973 
L 495.650174 203.316088 
L 501.092275 201.388825 
L 506.534377 199.540664 
L 511.976478 197.765039 
L 517.418579 196.05618 
L 522.860681 194.409013 
L 528.302782 192.81901 
L 533.744883 191.282151 
L 539.186985 189.794826 
L 544.629086 188.353791 
L 550.071188 186.956165 
L 555.513289 185.599155 
L 560.95539 184.280506 
L 566.397492 182.997967 
L 571.839593 181.749538 
L 577.281695 180.533368 
L 582.723796 179.347807 
L 588.165897 178.191178 
L 593.607999 177.062278 
L 599.0501 175.959528 
L 604.492202 174.881712 
L 609.934303 173.827904 
L 615.376404 172.796753 
L 620.818506 171.787545 
L 626.260607 170.799174 
L 631.702708 169.830782 
L 637.14481 168.881516 
L 642.586911 167.950651 
L 648.029013 167.03748 
L 653.471114 166.141278 
L 658.913215 165.261586 
L 664.355317 164.397403 
L 669.797418 163.548624 
L 675.23952 162.714451 
L 680.681621 161.894462 
L 686.123722 161.088146 
L 691.565824 160.295087 
L 697.007925 159.51479 
L 702.450026 158.746834 
" clip-path="url(#p42d4589f40)" style="fill: none; stroke: #4c72b0; stroke-width: 5; stroke-linecap: round"/>
   </g>
   <g id="line2d_27">
    <path d="M 435.787059 233.215568 
L 441.22916 231.002021 
L 446.671261 228.897152 
L 452.113363 226.888722 
L 457.555464 224.96691 
L 462.997565 223.1236 
L 468.439667 221.351936 
L 473.881768 219.646025 
L 479.32387 218.000738 
L 484.765971 216.411566 
L 490.208072 214.874518 
L 495.650174 213.386037 
L 501.092275 211.94294 
L 506.534377 210.542359 
L 511.976478 209.181705 
L 517.418579 207.858599 
L 522.860681 206.570997 
L 528.302782 205.316856 
L 533.744883 204.094424 
L 539.186985 202.902051 
L 544.629086 201.738234 
L 550.071188 200.601615 
L 555.513289 199.490787 
L 560.95539 198.404674 
L 566.397492 197.342128 
L 571.839593 196.302107 
L 577.281695 195.283649 
L 582.723796 194.28588 
L 588.165897 193.307851 
L 593.607999 192.348978 
L 599.0501 191.4083 
L 604.492202 190.485137 
L 609.934303 189.579018 
L 615.376404 188.689083 
L 620.818506 187.814991 
L 626.260607 186.956023 
L 631.702708 186.111676 
L 637.14481 185.281392 
L 642.586911 184.464783 
L 648.029013 183.661396 
L 653.471114 182.870719 
L 658.913215 182.092569 
L 664.355317 181.326212 
L 669.797418 180.571609 
L 675.23952 179.828288 
L 680.681621 179.095898 
L 686.123722 178.374153 
L 691.565824 177.662709 
L 697.007925 176.961333 
L 702.450026 176.269645 
" clip-path="url(#p42d4589f40)" style="fill: none; stroke: #dd8452; stroke-width: 5; stroke-linecap: round"/>
   </g>
   <g id="line2d_28">
    <path d="M 435.787059 199.233363 
L 441.22916 201.121683 
L 446.671261 202.853816 
L 452.113363 204.452216 
L 457.555464 205.934809 
L 462.997565 207.316141 
L 468.439667 208.608181 
L 473.881768 209.820897 
L 479.32387 210.962683 
L 484.765971 212.040673 
L 490.208072 213.060985 
L 495.650174 214.028906 
L 501.092275 214.949034 
L 506.534377 215.825398 
L 511.976478 216.661544 
L 517.418579 217.460526 
L 522.860681 218.225393 
L 528.302782 218.958387 
L 533.744883 219.661832 
L 539.186985 220.337749 
L 544.629086 220.987949 
L 550.071188 221.614107 
L 555.513289 222.217719 
L 560.95539 222.80014 
L 566.397492 223.362645 
L 571.839593 223.906374 
L 577.281695 224.432391 
L 582.723796 224.941674 
L 588.165897 225.435111 
L 593.607999 225.913548 
L 599.0501 226.377738 
L 604.492202 226.82842 
L 609.934303 227.266237 
L 615.376404 227.691826 
L 620.818506 228.10575 
L 626.260607 228.508566 
L 631.702708 228.90077 
L 637.14481 229.282842 
L 642.586911 229.655223 
L 648.029013 230.018316 
L 653.471114 230.372546 
L 658.913215 230.718252 
L 664.355317 231.055844 
L 669.797418 231.385561 
L 675.23952 231.707756 
L 680.681621 232.022705 
L 686.123722 232.33071 
L 691.565824 232.632038 
L 697.007925 232.926907 
L 702.450026 233.215568 
" clip-path="url(#p42d4589f40)" style="fill: none; stroke: #55a868; stroke-width: 5; stroke-linecap: round"/>
   </g>
   <g id="patch_8">
    <path d="M 422.45391 253.47 
L 422.45391 30.67125 
" style="fill: none; stroke: #262626; stroke-width: 2.5; stroke-linejoin: miter; stroke-linecap: square"/>
   </g>
   <g id="patch_9">
    <path d="M 715.783175 253.47 
L 715.783175 30.67125 
" style="fill: none; stroke: #262626; stroke-width: 2.5; stroke-linejoin: miter; stroke-linecap: square"/>
   </g>
   <g id="patch_10">
    <path d="M 422.45391 253.47 
L 715.783175 253.47 
" style="fill: none; stroke: #262626; stroke-width: 2.5; stroke-linejoin: miter; stroke-linecap: square"/>
   </g>
   <g id="patch_11">
    <path d="M 422.45391 30.67125 
L 715.783175 30.67125 
" style="fill: none; stroke: #262626; stroke-width: 2.5; stroke-linejoin: miter; stroke-linecap: square"/>
   </g>
   <g id="text_18">
    <!-- IL2 -->
    <g style="fill: #262626" transform="translate(552.438543 24.67125)scale(0.24 -0.24)">
     <defs>
      <path id="ArialMT-49" d="M 597 0 
L 597 4581 
L 1203 4581 
L 1203 0 
L 597 0 
z
" transform="scale(0.015625)"/>
      <path id="ArialMT-4c" d="M 469 0 
L 469 4581 
L 1075 4581 
L 1075 541 
L 3331 541 
L 3331 0 
L 469 0 
z
" transform="scale(0.015625)"/>
     </defs>
     <use xlink:href="#ArialMT-49"/>
     <use xlink:href="#ArialMT-4c" x="27.783203"/>
     <use xlink:href="#ArialMT-32" x="83.398438"/>
    </g>
   </g>
   <g id="line2d_29">
    <path d="M 539.912598 253.47 
L 539.912598 30.67125 
" clip-path="url(#p42d4589f40)" style="fill: none; stroke-dasharray: 7.4,3.2; stroke-dashoffset: 0; stroke: #1a1a1a; stroke-width: 2"/>
   </g>
  </g>
  <g id="axes_3">
   <g id="patch_12">
    <path d="M 753.445008 253.47 
L 1046.774273 253.47 
L 1046.774273 30.67125 
L 753.445008 30.67125 
z
" style="fill: #ffffff"/>
   </g>
   <g id="matplotlib.axis_5">
    <g id="xtick_9">
     <g id="line2d_30">
      <g>
       <use xlink:href="#mb8534ff796" x="766.778156" y="253.47" style="fill: #262626; stroke: #262626; stroke-width: 2.5"/>
      </g>
     </g>
     <g id="text_19">
      <!-- 1 -->
      <g style="fill: #262626" transform="translate(760.661125 284.717187)scale(0.22 -0.22)">
       <use xlink:href="#ArialMT-31"/>
      </g>
     </g>
    </g>
    <g id="xtick_10">
     <g id="line2d_31">
      <g>
       <use xlink:href="#mb8534ff796" x="855.665812" y="253.47" style="fill: #262626; stroke: #262626; stroke-width: 2.5"/>
      </g>
     </g>
     <g id="text_20">
      <!-- 2 -->
      <g style="fill: #262626" transform="translate(849.548781 284.717187)scale(0.22 -0.22)">
       <use xlink:href="#ArialMT-32"/>
      </g>
     </g>
    </g>
    <g id="xtick_11">
     <g id="line2d_32">
      <g>
       <use xlink:href="#mb8534ff796" x="944.553468" y="253.47" style="fill: #262626; stroke: #262626; stroke-width: 2.5"/>
      </g>
     </g>
     <g id="text_21">
      <!-- 3 -->
      <g style="fill: #262626" transform="translate(938.436437 284.717187)scale(0.22 -0.22)">
       <use xlink:href="#ArialMT-33"/>
      </g>
     </g>
    </g>
    <g id="xtick_12">
     <g id="line2d_33">
      <g>
       <use xlink:href="#mb8534ff796" x="1033.441124" y="253.47" style="fill: #262626; stroke: #262626; stroke-width: 2.5"/>
      </g>
     </g>
     <g id="text_22">
      <!-- 4 -->
      <g style="fill: #262626" transform="translate(1027.324093 284.717187)scale(0.22 -0.22)">
       <use xlink:href="#ArialMT-34"/>
      </g>
     </g>
    </g>
    <g id="text_23">
     <!-- divisions per day -->
     <g style="fill: #262626" transform="translate(810.73589 310.268437)scale(0.24 -0.24)">
      <use xlink:href="#ArialMT-64"/>
      <use xlink:href="#ArialMT-69" x="55.615234"/>
      <use xlink:href="#ArialMT-76" x="77.832031"/>
      <use xlink:href="#ArialMT-69" x="127.832031"/>
      <use xlink:href="#ArialMT-73" x="150.048828"/>
      <use xlink:href="#ArialMT-69" x="200.048828"/>
      <use xlink:href="#ArialMT-6f" x="222.265625"/>
      <use xlink:href="#ArialMT-6e" x="277.880859"/>
      <use xlink:href="#ArialMT-73" x="333.496094"/>
      <use xlink:href="#ArialMT-20" x="383.496094"/>
      <use xlink:href="#ArialMT-70" x="411.279297"/>
      <use xlink:href="#ArialMT-65" x="466.894531"/>
      <use xlink:href="#ArialMT-72" x="522.509766"/>
      <use xlink:href="#ArialMT-20" x="555.810547"/>
      <use xlink:href="#ArialMT-64" x="583.59375"/>
      <use xlink:href="#ArialMT-61" x="639.208984"/>
      <use xlink:href="#ArialMT-79" x="694.824219"/>
     </g>
    </g>
   </g>
   <g id="matplotlib.axis_6">
    <g id="ytick_11">
     <g id="line2d_34">
      <g>
       <use xlink:href="#m776af3b89b" x="753.445008" y="233.215568" style="fill: #262626; stroke: #262626; stroke-width: 2.5"/>
      </g>
     </g>
    </g>
    <g id="ytick_12">
     <g id="line2d_35">
      <g>
       <use xlink:href="#m776af3b89b" x="753.445008" y="182.579489" style="fill: #262626; stroke: #262626; stroke-width: 2.5"/>
      </g>
     </g>
    </g>
    <g id="ytick_13">
     <g id="line2d_36">
      <g>
       <use xlink:href="#m776af3b89b" x="753.445008" y="131.943409" style="fill: #262626; stroke: #262626; stroke-width: 2.5"/>
      </g>
     </g>
    </g>
    <g id="ytick_14">
     <g id="line2d_37">
      <g>
       <use xlink:href="#m776af3b89b" x="753.445008" y="81.30733" style="fill: #262626; stroke: #262626; stroke-width: 2.5"/>
      </g>
     </g>
    </g>
    <g id="ytick_15">
     <g id="line2d_38">
      <g>
       <use xlink:href="#m776af3b89b" x="753.445008" y="30.67125" style="fill: #262626; stroke: #262626; stroke-width: 2.5"/>
      </g>
     </g>
    </g>
   </g>
   <g id="line2d_39">
    <path d="M 766.778156 233.215568 
L 772.220258 226.523641 
L 777.662359 219.838255 
L 783.10446 213.159721 
L 788.546562 206.488056 
L 793.988663 199.82329 
L 799.430764 193.165354 
L 804.872866 186.514126 
L 810.314967 179.869448 
L 815.757069 173.231138 
L 821.19917 166.598993 
L 826.641271 159.972801 
L 832.083373 153.352346 
L 837.525474 146.737391 
L 842.967576 140.12772 
L 848.409677 133.523102 
L 853.851778 126.923375 
L 859.29388 120.328199 
L 864.735981 113.737458 
L 870.178082 107.150729 
L 875.620184 100.567952 
L 881.062285 93.989022 
L 886.504387 87.413929 
L 891.946488 80.842165 
L 897.388589 74.273366 
L 902.830691 67.707432 
L 908.272792 61.144427 
L 913.714894 54.583936 
L 919.156995 48.025935 
L 924.599096 41.470378 
L 930.041198 34.916912 
L 935.483299 28.36571 
L 940.925401 21.816196 
L 946.367502 15.268545 
L 951.809603 8.72248 
L 957.251705 2.17796 
L 959.894846 -1 
" clip-path="url(#pedac41669d)" style="fill: none; stroke: #4c72b0; stroke-width: 5; stroke-linecap: round"/>
   </g>
   <g id="line2d_40">
    <path d="M 766.778156 233.215568 
L 772.220258 226.983216 
L 777.662359 220.720378 
L 783.10446 214.43047 
L 788.546562 208.11647 
L 793.988663 201.781114 
L 799.430764 195.426844 
L 804.872866 189.055836 
L 810.314967 182.670037 
L 815.757069 176.271179 
L 821.19917 169.860802 
L 826.641271 163.440271 
L 832.083373 157.010805 
L 837.525474 150.57346 
L 842.967576 144.129195 
L 848.409677 137.678835 
L 853.851778 131.223124 
L 859.29388 124.762703 
L 864.735981 118.298087 
L 870.178082 111.829672 
L 875.620184 105.358163 
L 881.062285 98.883813 
L 886.504387 92.407124 
L 891.946488 85.928169 
L 897.388589 79.447017 
L 902.830691 72.96395 
L 908.272792 66.479362 
L 913.714894 59.993181 
L 919.156995 53.505669 
L 924.599096 47.017051 
L 930.041198 40.527224 
L 935.483299 34.036584 
L 940.925401 27.544767 
L 946.367502 21.052133 
L 951.809603 14.558583 
L 957.251705 8.064236 
L 962.693806 1.568944 
L 964.845988 -1 
" clip-path="url(#pedac41669d)" style="fill: none; stroke: #dd8452; stroke-width: 5; stroke-linecap: round"/>
   </g>
   <g id="line2d_41">
    <path d="M 766.778156 233.215568 
L 772.220258 233.125632 
L 777.662359 233.043087 
L 783.10446 232.967047 
L 788.546562 232.896375 
L 793.988663 232.830433 
L 799.430764 232.768637 
L 804.872866 232.710503 
L 810.314967 232.655627 
L 815.757069 232.603669 
L 821.19917 232.554337 
L 826.641271 232.507383 
L 832.083373 232.462591 
L 837.525474 232.419774 
L 842.967576 232.378767 
L 848.409677 232.339427 
L 853.851778 232.301623 
L 859.29388 232.265244 
L 864.735981 232.230186 
L 870.178082 232.196244 
L 875.620184 232.163564 
L 881.062285 232.132075 
L 886.504387 232.101475 
L 891.946488 232.071819 
L 897.388589 232.043055 
L 902.830691 232.015129 
L 908.272792 231.987996 
L 913.714894 231.961611 
L 919.156995 231.935935 
L 924.599096 231.910931 
L 930.041198 231.886566 
L 935.483299 231.862808 
L 940.925401 231.839629 
L 946.367502 231.817001 
L 951.809603 231.794899 
L 957.251705 231.7733 
L 962.693806 231.752181 
L 968.135907 231.731522 
L 973.578009 231.71131 
L 979.02011 231.691515 
L 984.462212 231.672128 
L 989.904313 231.652807 
L 995.346414 231.634328 
L 1000.788516 231.616221 
L 1006.230617 231.598149 
L 1011.672719 231.580565 
L 1017.11482 231.562818 
L 1022.556921 231.545868 
L 1027.999023 231.529534 
L 1033.441124 231.512368 
" clip-path="url(#pedac41669d)" style="fill: none; stroke: #55a868; stroke-width: 5; stroke-linecap: round"/>
   </g>
   <g id="patch_13">
    <path d="M 753.445008 253.47 
L 753.445008 30.67125 
" style="fill: none; stroke: #262626; stroke-width: 2.5; stroke-linejoin: miter; stroke-linecap: square"/>
   </g>
   <g id="patch_14">
    <path d="M 1046.774273 253.47 
L 1046.774273 30.67125 
" style="fill: none; stroke: #262626; stroke-width: 2.5; stroke-linejoin: miter; stroke-linecap: square"/>
   </g>
   <g id="patch_15">
    <path d="M 753.445008 253.47 
L 1046.774273 253.47 
" style="fill: none; stroke: #262626; stroke-width: 2.5; stroke-linejoin: miter; stroke-linecap: square"/>
   </g>
   <g id="patch_16">
    <path d="M 753.445008 30.67125 
L 1046.774273 30.67125 
" style="fill: none; stroke: #262626; stroke-width: 2.5; stroke-linejoin: miter; stroke-linecap: square"/>
   </g>
   <g id="text_24">
    <!-- Timer -->
    <g style="fill: #262626" transform="translate(869.89964 24.67125)scale(0.24 -0.24)">
     <defs>
      <path id="ArialMT-54" d="M 1659 0 
L 1659 4041 
L 150 4041 
L 150 4581 
L 3781 4581 
L 3781 4041 
L 2266 4041 
L 2266 0 
L 1659 0 
z
" transform="scale(0.015625)"/>
      <path id="ArialMT-6d" d="M 422 0 
L 422 3319 
L 925 3319 
L 925 2853 
Q 1081 3097 1340 3245 
Q 1600 3394 1931 3394 
Q 2300 3394 2536 3241 
Q 2772 3088 2869 2813 
Q 3263 3394 3894 3394 
Q 4388 3394 4653 3120 
Q 4919 2847 4919 2278 
L 4919 0 
L 4359 0 
L 4359 2091 
Q 4359 2428 4304 2576 
Q 4250 2725 4106 2815 
Q 3963 2906 3769 2906 
Q 3419 2906 3187 2673 
Q 2956 2441 2956 1928 
L 2956 0 
L 2394 0 
L 2394 2156 
Q 2394 2531 2256 2718 
Q 2119 2906 1806 2906 
Q 1569 2906 1367 2781 
Q 1166 2656 1075 2415 
Q 984 2175 984 1722 
L 984 0 
L 422 0 
z
" transform="scale(0.015625)"/>
     </defs>
     <use xlink:href="#ArialMT-54"/>
     <use xlink:href="#ArialMT-69" x="57.333984"/>
     <use xlink:href="#ArialMT-6d" x="79.550781"/>
     <use xlink:href="#ArialMT-65" x="162.851562"/>
     <use xlink:href="#ArialMT-72" x="218.466797"/>
    </g>
   </g>
   <g id="line2d_42">
    <path d="M 870.903696 253.47 
L 870.903696 30.67125 
" clip-path="url(#pedac41669d)" style="fill: none; stroke-dasharray: 7.4,3.2; stroke-dashoffset: 0; stroke: #1a1a1a; stroke-width: 2"/>
   </g>
  </g>
  <g id="legend_1">
   <g id="text_25">
    <!-- readout -->
    <g style="fill: #262626" transform="translate(1117.927279 120.521719)scale(0.24 -0.24)">
     <defs>
      <path id="ArialMT-75" d="M 2597 0 
L 2597 488 
Q 2209 -75 1544 -75 
Q 1250 -75 995 37 
Q 741 150 617 320 
Q 494 491 444 738 
Q 409 903 409 1263 
L 409 3319 
L 972 3319 
L 972 1478 
Q 972 1038 1006 884 
Q 1059 663 1231 536 
Q 1403 409 1656 409 
Q 1909 409 2131 539 
Q 2353 669 2445 892 
Q 2538 1116 2538 1541 
L 2538 3319 
L 3100 3319 
L 3100 0 
L 2597 0 
z
" transform="scale(0.015625)"/>
     </defs>
     <use xlink:href="#ArialMT-72"/>
     <use xlink:href="#ArialMT-65" x="33.300781"/>
     <use xlink:href="#ArialMT-61" x="88.916016"/>
     <use xlink:href="#ArialMT-64" x="144.53125"/>
     <use xlink:href="#ArialMT-6f" x="200.146484"/>
     <use xlink:href="#ArialMT-75" x="255.761719"/>
     <use xlink:href="#ArialMT-74" x="311.376953"/>
    </g>
   </g>
   <g id="line2d_43">
    <path d="M 1053.838685 144.338906 
L 1075.838685 144.338906 
L 1097.838685 144.338906 
" style="fill: none; stroke: #4c72b0; stroke-width: 5; stroke-linecap: round"/>
   </g>
   <g id="text_26">
    <!-- Peak Height -->
    <g style="fill: #262626" transform="translate(1115.438685 152.038906)scale(0.22 -0.22)">
     <defs>
      <path id="ArialMT-50" d="M 494 0 
L 494 4581 
L 2222 4581 
Q 2678 4581 2919 4538 
Q 3256 4481 3484 4323 
Q 3713 4166 3852 3881 
Q 3991 3597 3991 3256 
Q 3991 2672 3619 2267 
Q 3247 1863 2275 1863 
L 1100 1863 
L 1100 0 
L 494 0 
z
M 1100 2403 
L 2284 2403 
Q 2872 2403 3119 2622 
Q 3366 2841 3366 3238 
Q 3366 3525 3220 3729 
Q 3075 3934 2838 4000 
Q 2684 4041 2272 4041 
L 1100 4041 
L 1100 2403 
z
" transform="scale(0.015625)"/>
      <path id="ArialMT-6b" d="M 425 0 
L 425 4581 
L 988 4581 
L 988 1969 
L 2319 3319 
L 3047 3319 
L 1778 2088 
L 3175 0 
L 2481 0 
L 1384 1697 
L 988 1316 
L 988 0 
L 425 0 
z
" transform="scale(0.015625)"/>
      <path id="ArialMT-48" d="M 513 0 
L 513 4581 
L 1119 4581 
L 1119 2700 
L 3500 2700 
L 3500 4581 
L 4106 4581 
L 4106 0 
L 3500 0 
L 3500 2159 
L 1119 2159 
L 1119 0 
L 513 0 
z
" transform="scale(0.015625)"/>
      <path id="ArialMT-68" d="M 422 0 
L 422 4581 
L 984 4581 
L 984 2938 
Q 1378 3394 1978 3394 
Q 2347 3394 2619 3248 
Q 2891 3103 3008 2847 
Q 3125 2591 3125 2103 
L 3125 0 
L 2563 0 
L 2563 2103 
Q 2563 2525 2380 2717 
Q 2197 2909 1863 2909 
Q 1613 2909 1392 2779 
Q 1172 2650 1078 2428 
Q 984 2206 984 1816 
L 984 0 
L 422 0 
z
" transform="scale(0.015625)"/>
     </defs>
     <use xlink:href="#ArialMT-50"/>
     <use xlink:href="#ArialMT-65" x="66.699219"/>
     <use xlink:href="#ArialMT-61" x="122.314453"/>
     <use xlink:href="#ArialMT-6b" x="177.929688"/>
     <use xlink:href="#ArialMT-20" x="227.929688"/>
     <use xlink:href="#ArialMT-48" x="255.712891"/>
     <use xlink:href="#ArialMT-65" x="327.929688"/>
     <use xlink:href="#ArialMT-69" x="383.544922"/>
     <use xlink:href="#ArialMT-67" x="405.761719"/>
     <use xlink:href="#ArialMT-68" x="461.376953"/>
     <use xlink:href="#ArialMT-74" x="516.992188"/>
    </g>
   </g>
   <g id="line2d_44">
    <path d="M 1053.838685 175.984531 
L 1075.838685 175.984531 
L 1097.838685 175.984531 
" style="fill: none; stroke: #dd8452; stroke-width: 5; stroke-linecap: round"/>
   </g>
   <g id="text_27">
    <!-- Response Size -->
    <g style="fill: #262626" transform="translate(1115.438685 183.684531)scale(0.22 -0.22)">
     <defs>
      <path id="ArialMT-52" d="M 503 0 
L 503 4581 
L 2534 4581 
Q 3147 4581 3465 4457 
Q 3784 4334 3975 4021 
Q 4166 3709 4166 3331 
Q 4166 2844 3850 2509 
Q 3534 2175 2875 2084 
Q 3116 1969 3241 1856 
Q 3506 1613 3744 1247 
L 4541 0 
L 3778 0 
L 3172 953 
Q 2906 1366 2734 1584 
Q 2563 1803 2427 1890 
Q 2291 1978 2150 2013 
Q 2047 2034 1813 2034 
L 1109 2034 
L 1109 0 
L 503 0 
z
M 1109 2559 
L 2413 2559 
Q 2828 2559 3062 2645 
Q 3297 2731 3419 2920 
Q 3541 3109 3541 3331 
Q 3541 3656 3305 3865 
Q 3069 4075 2559 4075 
L 1109 4075 
L 1109 2559 
z
" transform="scale(0.015625)"/>
      <path id="ArialMT-53" d="M 288 1472 
L 859 1522 
Q 900 1178 1048 958 
Q 1197 738 1509 602 
Q 1822 466 2213 466 
Q 2559 466 2825 569 
Q 3091 672 3220 851 
Q 3350 1031 3350 1244 
Q 3350 1459 3225 1620 
Q 3100 1781 2813 1891 
Q 2628 1963 1997 2114 
Q 1366 2266 1113 2400 
Q 784 2572 623 2826 
Q 463 3081 463 3397 
Q 463 3744 659 4045 
Q 856 4347 1234 4503 
Q 1613 4659 2075 4659 
Q 2584 4659 2973 4495 
Q 3363 4331 3572 4012 
Q 3781 3694 3797 3291 
L 3216 3247 
Q 3169 3681 2898 3903 
Q 2628 4125 2100 4125 
Q 1550 4125 1298 3923 
Q 1047 3722 1047 3438 
Q 1047 3191 1225 3031 
Q 1400 2872 2139 2705 
Q 2878 2538 3153 2413 
Q 3553 2228 3743 1945 
Q 3934 1663 3934 1294 
Q 3934 928 3725 604 
Q 3516 281 3123 101 
Q 2731 -78 2241 -78 
Q 1619 -78 1198 103 
Q 778 284 539 648 
Q 300 1013 288 1472 
z
" transform="scale(0.015625)"/>
     </defs>
     <use xlink:href="#ArialMT-52"/>
     <use xlink:href="#ArialMT-65" x="72.216797"/>
     <use xlink:href="#ArialMT-73" x="127.832031"/>
     <use xlink:href="#ArialMT-70" x="177.832031"/>
     <use xlink:href="#ArialMT-6f" x="233.447266"/>
     <use xlink:href="#ArialMT-6e" x="289.0625"/>
     <use xlink:href="#ArialMT-73" x="344.677734"/>
     <use xlink:href="#ArialMT-65" x="394.677734"/>
     <use xlink:href="#ArialMT-20" x="450.292969"/>
     <use xlink:href="#ArialMT-53" x="478.076172"/>
     <use xlink:href="#ArialMT-69" x="544.775391"/>
     <use xlink:href="#ArialMT-7a" x="566.992188"/>
     <use xlink:href="#ArialMT-65" x="616.992188"/>
    </g>
   </g>
   <g id="line2d_45">
    <path d="M 1053.838685 207.104219 
L 1075.838685 207.104219 
L 1097.838685 207.104219 
" style="fill: none; stroke: #55a868; stroke-width: 5; stroke-linecap: round"/>
   </g>
   <g id="text_28">
    <!-- Peak Time -->
    <g style="fill: #262626" transform="translate(1115.438685 214.804219)scale(0.22 -0.22)">
     <use xlink:href="#ArialMT-50"/>
     <use xlink:href="#ArialMT-65" x="66.699219"/>
     <use xlink:href="#ArialMT-61" x="122.314453"/>
     <use xlink:href="#ArialMT-6b" x="177.929688"/>
     <use xlink:href="#ArialMT-20" x="227.929688"/>
     <use xlink:href="#ArialMT-54" x="253.962891"/>
     <use xlink:href="#ArialMT-69" x="311.296875"/>
     <use xlink:href="#ArialMT-6d" x="333.513672"/>
     <use xlink:href="#ArialMT-65" x="416.814453"/>
    </g>
   </g>
  </g>
 </g>
 <defs>
  <clipPath id="p00eb033f97">
   <rect x="91.462813" y="30.67125" width="293.329265" height="222.79875"/>
  </clipPath>
  <clipPath id="p42d4589f40">
   <rect x="422.45391" y="30.67125" width="293.329265" height="222.79875"/>
  </clipPath>
  <clipPath id="pedac41669d">
   <rect x="753.445008" y="30.67125" width="293.329265" height="222.79875"/>
  </clipPath>
 </defs>
</svg>
