<?xml version="1.0" encoding="utf-8" standalone="no"?>
<!DOCTYPE svg PUBLIC "-//W3C//DTD SVG 1.1//EN"
  "http://www.w3.org/Graphics/SVG/1.1/DTD/svg11.dtd">
<svg xmlns:xlink="http://www.w3.org/1999/xlink" width="148.400516pt" height="139.452812pt" viewBox="0 0 148.400516 139.452812" xmlns="http://www.w3.org/2000/svg" version="1.1">
 <metadata>
  <rdf:RDF xmlns:dc="http://purl.org/dc/elements/1.1/" xmlns:cc="http://creativecommons.org/ns#" xmlns:rdf="http://www.w3.org/1999/02/22-rdf-syntax-ns#">
   <cc:Work>
    <dc:type rdf:resource="http://purl.org/dc/dcmitype/StillImage"/>
    <dc:date>2022-08-09T14:55:54.540452</dc:date>
    <dc:format>image/svg+xml</dc:format>
    <dc:creator>
     <cc:Agent>
      <dc:title>Matplotlib v3.5.1, https://matplotlib.org/</dc:title>
     </cc:Agent>
    </dc:creator>
   </cc:Work>
  </rdf:RDF>
 </metadata>
 <defs>
  <style type="text/css">*{stroke-linejoin: round; stroke-linecap: butt}</style>
 </defs>
 <g id="figure_1">
  <g id="patch_1">
   <path d="M 0 139.452812 
L 148.400516 139.452812 
L 148.400516 0 
L 0 0 
z
" style="fill: #ffffff"/>
  </g>
  <g id="axes_1">
   <g id="patch_2">
    <path d="M 44.590312 104.8 
L 140.240312 104.8 
L 140.240312 7.2 
L 44.590312 7.2 
z
" style="fill: #ffffff"/>
   </g>
   <g id="matplotlib.axis_1">
    <g id="xtick_1">
     <g id="line2d_1">
      <defs>
       <path id="me8cbc8fe40" d="M 0 0 
L 0 3.5 
" style="stroke: #000000; stroke-width: 0.8"/>
      </defs>
      <g>
       <use xlink:href="#me8cbc8fe40" x="48.93804" y="104.8" style="stroke: #000000; stroke-width: 0.8"/>
      </g>
     </g>
     <g id="text_1">
      <!-- 0 -->
      <g transform="translate(46.39304 117.87875)scale(0.08 -0.08)">
       <defs>
        <path id="DejaVuSans-30" d="M 2034 4250 
Q 1547 4250 1301 3770 
Q 1056 3291 1056 2328 
Q 1056 1369 1301 889 
Q 1547 409 2034 409 
Q 2525 409 2770 889 
Q 3016 1369 3016 2328 
Q 3016 3291 2770 3770 
Q 2525 4250 2034 4250 
z
M 2034 4750 
Q 2819 4750 3233 4129 
Q 3647 3509 3647 2328 
Q 3647 1150 3233 529 
Q 2819 -91 2034 -91 
Q 1250 -91 836 529 
Q 422 1150 422 2328 
Q 422 3509 836 4129 
Q 1250 4750 2034 4750 
z
" transform="scale(0.015625)"/>
       </defs>
       <use xlink:href="#DejaVuSans-30"/>
      </g>
     </g>
    </g>
    <g id="xtick_2">
     <g id="line2d_2">
      <g>
       <use xlink:href="#me8cbc8fe40" x="70.731159" y="104.8" style="stroke: #000000; stroke-width: 0.8"/>
      </g>
     </g>
     <g id="text_2">
      <!-- 20 -->
      <g transform="translate(65.641159 117.87875)scale(0.08 -0.08)">
       <defs>
        <path id="DejaVuSans-32" d="M 1228 531 
L 3431 531 
L 3431 0 
L 469 0 
L 469 531 
Q 828 903 1448 1529 
Q 2069 2156 2228 2338 
Q 2531 2678 2651 2914 
Q 2772 3150 2772 3378 
Q 2772 3750 2511 3984 
Q 2250 4219 1831 4219 
Q 1534 4219 1204 4116 
Q 875 4013 500 3803 
L 500 4441 
Q 881 4594 1212 4672 
Q 1544 4750 1819 4750 
Q 2544 4750 2975 4387 
Q 3406 4025 3406 3419 
Q 3406 3131 3298 2873 
Q 3191 2616 2906 2266 
Q 2828 2175 2409 1742 
Q 1991 1309 1228 531 
z
" transform="scale(0.015625)"/>
       </defs>
       <use xlink:href="#DejaVuSans-32"/>
       <use xlink:href="#DejaVuSans-30" x="63.623047"/>
      </g>
     </g>
    </g>
    <g id="xtick_3">
     <g id="line2d_3">
      <g>
       <use xlink:href="#me8cbc8fe40" x="92.524278" y="104.8" style="stroke: #000000; stroke-width: 0.8"/>
      </g>
     </g>
     <g id="text_3">
      <!-- 40 -->
      <g transform="translate(87.434278 117.87875)scale(0.08 -0.08)">
       <defs>
        <path id="DejaVuSans-34" d="M 2419 4116 
L 825 1625 
L 2419 1625 
L 2419 4116 
z
M 2253 4666 
L 3047 4666 
L 3047 1625 
L 3713 1625 
L 3713 1100 
L 3047 1100 
L 3047 0 
L 2419 0 
L 2419 1100 
L 313 1100 
L 313 1709 
L 2253 4666 
z
" transform="scale(0.015625)"/>
       </defs>
       <use xlink:href="#DejaVuSans-34"/>
       <use xlink:href="#DejaVuSans-30" x="63.623047"/>
      </g>
     </g>
    </g>
    <g id="xtick_4">
     <g id="line2d_4">
      <g>
       <use xlink:href="#me8cbc8fe40" x="114.317397" y="104.8" style="stroke: #000000; stroke-width: 0.8"/>
      </g>
     </g>
     <g id="text_4">
      <!-- 60 -->
      <g transform="translate(109.227397 117.87875)scale(0.08 -0.08)">
       <defs>
        <path id="DejaVuSans-36" d="M 2113 2584 
Q 1688 2584 1439 2293 
Q 1191 2003 1191 1497 
Q 1191 994 1439 701 
Q 1688 409 2113 409 
Q 2538 409 2786 701 
Q 3034 994 3034 1497 
Q 3034 2003 2786 2293 
Q 2538 2584 2113 2584 
z
M 3366 4563 
L 3366 3988 
Q 3128 4100 2886 4159 
Q 2644 4219 2406 4219 
Q 1781 4219 1451 3797 
Q 1122 3375 1075 2522 
Q 1259 2794 1537 2939 
Q 1816 3084 2150 3084 
Q 2853 3084 3261 2657 
Q 3669 2231 3669 1497 
Q 3669 778 3244 343 
Q 2819 -91 2113 -91 
Q 1303 -91 875 529 
Q 447 1150 447 2328 
Q 447 3434 972 4092 
Q 1497 4750 2381 4750 
Q 2619 4750 2861 4703 
Q 3103 4656 3366 4563 
z
" transform="scale(0.015625)"/>
       </defs>
       <use xlink:href="#DejaVuSans-36"/>
       <use xlink:href="#DejaVuSans-30" x="63.623047"/>
      </g>
     </g>
    </g>
    <g id="xtick_5">
     <g id="line2d_5">
      <g>
       <use xlink:href="#me8cbc8fe40" x="136.110516" y="104.8" style="stroke: #000000; stroke-width: 0.8"/>
      </g>
     </g>
     <g id="text_5">
      <!-- 80 -->
      <g transform="translate(131.020516 117.87875)scale(0.08 -0.08)">
       <defs>
        <path id="DejaVuSans-38" d="M 2034 2216 
Q 1584 2216 1326 1975 
Q 1069 1734 1069 1313 
Q 1069 891 1326 650 
Q 1584 409 2034 409 
Q 2484 409 2743 651 
Q 3003 894 3003 1313 
Q 3003 1734 2745 1975 
Q 2488 2216 2034 2216 
z
M 1403 2484 
Q 997 2584 770 2862 
Q 544 3141 544 3541 
Q 544 4100 942 4425 
Q 1341 4750 2034 4750 
Q 2731 4750 3128 4425 
Q 3525 4100 3525 3541 
Q 3525 3141 3298 2862 
Q 3072 2584 2669 2484 
Q 3125 2378 3379 2068 
Q 3634 1759 3634 1313 
Q 3634 634 3220 271 
Q 2806 -91 2034 -91 
Q 1263 -91 848 271 
Q 434 634 434 1313 
Q 434 1759 690 2068 
Q 947 2378 1403 2484 
z
M 1172 3481 
Q 1172 3119 1398 2916 
Q 1625 2713 2034 2713 
Q 2441 2713 2670 2916 
Q 2900 3119 2900 3481 
Q 2900 3844 2670 4047 
Q 2441 4250 2034 4250 
Q 1625 4250 1398 4047 
Q 1172 3844 1172 3481 
z
" transform="scale(0.015625)"/>
       </defs>
       <use xlink:href="#DejaVuSans-38"/>
       <use xlink:href="#DejaVuSans-30" x="63.623047"/>
      </g>
     </g>
    </g>
    <g id="text_6">
     <!-- time (h) -->
     <g transform="translate(74.455391 130.381094)scale(0.09 -0.09)">
      <defs>
       <path id="DejaVuSans-74" d="M 1172 4494 
L 1172 3500 
L 2356 3500 
L 2356 3053 
L 1172 3053 
L 1172 1153 
Q 1172 725 1289 603 
Q 1406 481 1766 481 
L 2356 481 
L 2356 0 
L 1766 0 
Q 1100 0 847 248 
Q 594 497 594 1153 
L 594 3053 
L 172 3053 
L 172 3500 
L 594 3500 
L 594 4494 
L 1172 4494 
z
" transform="scale(0.015625)"/>
       <path id="DejaVuSans-69" d="M 603 3500 
L 1178 3500 
L 1178 0 
L 603 0 
L 603 3500 
z
M 603 4863 
L 1178 4863 
L 1178 4134 
L 603 4134 
L 603 4863 
z
" transform="scale(0.015625)"/>
       <path id="DejaVuSans-6d" d="M 3328 2828 
Q 3544 3216 3844 3400 
Q 4144 3584 4550 3584 
Q 5097 3584 5394 3201 
Q 5691 2819 5691 2113 
L 5691 0 
L 5113 0 
L 5113 2094 
Q 5113 2597 4934 2840 
Q 4756 3084 4391 3084 
Q 3944 3084 3684 2787 
Q 3425 2491 3425 1978 
L 3425 0 
L 2847 0 
L 2847 2094 
Q 2847 2600 2669 2842 
Q 2491 3084 2119 3084 
Q 1678 3084 1418 2786 
Q 1159 2488 1159 1978 
L 1159 0 
L 581 0 
L 581 3500 
L 1159 3500 
L 1159 2956 
Q 1356 3278 1631 3431 
Q 1906 3584 2284 3584 
Q 2666 3584 2933 3390 
Q 3200 3197 3328 2828 
z
" transform="scale(0.015625)"/>
       <path id="DejaVuSans-65" d="M 3597 1894 
L 3597 1613 
L 953 1613 
Q 991 1019 1311 708 
Q 1631 397 2203 397 
Q 2534 397 2845 478 
Q 3156 559 3463 722 
L 3463 178 
Q 3153 47 2828 -22 
Q 2503 -91 2169 -91 
Q 1331 -91 842 396 
Q 353 884 353 1716 
Q 353 2575 817 3079 
Q 1281 3584 2069 3584 
Q 2775 3584 3186 3129 
Q 3597 2675 3597 1894 
z
M 3022 2063 
Q 3016 2534 2758 2815 
Q 2500 3097 2075 3097 
Q 1594 3097 1305 2825 
Q 1016 2553 972 2059 
L 3022 2063 
z
" transform="scale(0.015625)"/>
       <path id="DejaVuSans-20" transform="scale(0.015625)"/>
       <path id="DejaVuSans-28" d="M 1984 4856 
Q 1566 4138 1362 3434 
Q 1159 2731 1159 2009 
Q 1159 1288 1364 580 
Q 1569 -128 1984 -844 
L 1484 -844 
Q 1016 -109 783 600 
Q 550 1309 550 2009 
Q 550 2706 781 3412 
Q 1013 4119 1484 4856 
L 1984 4856 
z
" transform="scale(0.015625)"/>
       <path id="DejaVuSans-68" d="M 3513 2113 
L 3513 0 
L 2938 0 
L 2938 2094 
Q 2938 2591 2744 2837 
Q 2550 3084 2163 3084 
Q 1697 3084 1428 2787 
Q 1159 2491 1159 1978 
L 1159 0 
L 581 0 
L 581 4863 
L 1159 4863 
L 1159 2956 
Q 1366 3272 1645 3428 
Q 1925 3584 2291 3584 
Q 2894 3584 3203 3211 
Q 3513 2838 3513 2113 
z
" transform="scale(0.015625)"/>
       <path id="DejaVuSans-29" d="M 513 4856 
L 1013 4856 
Q 1481 4119 1714 3412 
Q 1947 2706 1947 2009 
Q 1947 1309 1714 600 
Q 1481 -109 1013 -844 
L 513 -844 
Q 928 -128 1133 580 
Q 1338 1288 1338 2009 
Q 1338 2731 1133 3434 
Q 928 4138 513 4856 
z
" transform="scale(0.015625)"/>
      </defs>
      <use xlink:href="#DejaVuSans-74"/>
      <use xlink:href="#DejaVuSans-69" x="39.208984"/>
      <use xlink:href="#DejaVuSans-6d" x="66.992188"/>
      <use xlink:href="#DejaVuSans-65" x="164.404297"/>
      <use xlink:href="#DejaVuSans-20" x="225.927734"/>
      <use xlink:href="#DejaVuSans-28" x="257.714844"/>
      <use xlink:href="#DejaVuSans-68" x="296.728516"/>
      <use xlink:href="#DejaVuSans-29" x="360.107422"/>
     </g>
    </g>
   </g>
   <g id="matplotlib.axis_2">
    <g id="ytick_1">
     <g id="line2d_6">
      <defs>
       <path id="m33be51c9a9" d="M 0 0 
L -3.5 0 
" style="stroke: #000000; stroke-width: 0.8"/>
      </defs>
      <g>
       <use xlink:href="#m33be51c9a9" x="44.590312" y="104.8" style="stroke: #000000; stroke-width: 0.8"/>
      </g>
     </g>
     <g id="text_7">
      <!-- $\mathdefault{10^{0}}$ -->
      <g transform="translate(23.510312 107.839375)scale(0.08 -0.08)">
       <defs>
        <path id="DejaVuSans-31" d="M 794 531 
L 1825 531 
L 1825 4091 
L 703 3866 
L 703 4441 
L 1819 4666 
L 2450 4666 
L 2450 531 
L 3481 531 
L 3481 0 
L 794 0 
L 794 531 
z
" transform="scale(0.015625)"/>
       </defs>
       <use xlink:href="#DejaVuSans-31" transform="translate(0 0.765625)"/>
       <use xlink:href="#DejaVuSans-30" transform="translate(63.623047 0.765625)"/>
       <use xlink:href="#DejaVuSans-30" transform="translate(128.203125 39.046875)scale(0.7)"/>
      </g>
     </g>
    </g>
    <g id="ytick_2">
     <g id="line2d_7">
      <g>
       <use xlink:href="#m33be51c9a9" x="44.590312" y="82.06419" style="stroke: #000000; stroke-width: 0.8"/>
      </g>
     </g>
     <g id="text_8">
      <!-- $\mathdefault{10^{4}}$ -->
      <g transform="translate(23.510312 85.103565)scale(0.08 -0.08)">
       <use xlink:href="#DejaVuSans-31" transform="translate(0 0.684375)"/>
       <use xlink:href="#DejaVuSans-30" transform="translate(63.623047 0.684375)"/>
       <use xlink:href="#DejaVuSans-34" transform="translate(128.203125 38.965625)scale(0.7)"/>
      </g>
     </g>
    </g>
    <g id="ytick_3">
     <g id="line2d_8">
      <g>
       <use xlink:href="#m33be51c9a9" x="44.590312" y="59.32838" style="stroke: #000000; stroke-width: 0.8"/>
      </g>
     </g>
     <g id="text_9">
      <!-- $\mathdefault{10^{8}}$ -->
      <g transform="translate(23.510312 62.367755)scale(0.08 -0.08)">
       <use xlink:href="#DejaVuSans-31" transform="translate(0 0.765625)"/>
       <use xlink:href="#DejaVuSans-30" transform="translate(63.623047 0.765625)"/>
       <use xlink:href="#DejaVuSans-38" transform="translate(128.203125 39.046875)scale(0.7)"/>
      </g>
     </g>
    </g>
    <g id="ytick_4">
     <g id="line2d_9">
      <g>
       <use xlink:href="#m33be51c9a9" x="44.590312" y="36.59257" style="stroke: #000000; stroke-width: 0.8"/>
      </g>
     </g>
     <g id="text_10">
      <!-- $\mathdefault{10^{12}}$ -->
      <g transform="translate(19.910312 39.631945)scale(0.08 -0.08)">
       <use xlink:href="#DejaVuSans-31" transform="translate(0 0.765625)"/>
       <use xlink:href="#DejaVuSans-30" transform="translate(63.623047 0.765625)"/>
       <use xlink:href="#DejaVuSans-31" transform="translate(128.203125 39.046875)scale(0.7)"/>
       <use xlink:href="#DejaVuSans-32" transform="translate(172.739258 39.046875)scale(0.7)"/>
      </g>
     </g>
    </g>
    <g id="ytick_5">
     <g id="line2d_10">
      <g>
       <use xlink:href="#m33be51c9a9" x="44.590312" y="13.856761" style="stroke: #000000; stroke-width: 0.8"/>
      </g>
     </g>
     <g id="text_11">
      <!-- $\mathdefault{10^{16}}$ -->
      <g transform="translate(19.910312 16.896136)scale(0.08 -0.08)">
       <use xlink:href="#DejaVuSans-31" transform="translate(0 0.765625)"/>
       <use xlink:href="#DejaVuSans-30" transform="translate(63.623047 0.765625)"/>
       <use xlink:href="#DejaVuSans-31" transform="translate(128.203125 39.046875)scale(0.7)"/>
       <use xlink:href="#DejaVuSans-36" transform="translate(172.739258 39.046875)scale(0.7)"/>
      </g>
     </g>
    </g>
    <g id="text_12">
     <!-- cells -->
     <g transform="translate(14.038594 66.087734)rotate(-90)scale(0.09 -0.09)">
      <defs>
       <path id="DejaVuSans-63" d="M 3122 3366 
L 3122 2828 
Q 2878 2963 2633 3030 
Q 2388 3097 2138 3097 
Q 1578 3097 1268 2742 
Q 959 2388 959 1747 
Q 959 1106 1268 751 
Q 1578 397 2138 397 
Q 2388 397 2633 464 
Q 2878 531 3122 666 
L 3122 134 
Q 2881 22 2623 -34 
Q 2366 -91 2075 -91 
Q 1284 -91 818 406 
Q 353 903 353 1747 
Q 353 2603 823 3093 
Q 1294 3584 2113 3584 
Q 2378 3584 2631 3529 
Q 2884 3475 3122 3366 
z
" transform="scale(0.015625)"/>
       <path id="DejaVuSans-6c" d="M 603 4863 
L 1178 4863 
L 1178 0 
L 603 0 
L 603 4863 
z
" transform="scale(0.015625)"/>
       <path id="DejaVuSans-73" d="M 2834 3397 
L 2834 2853 
Q 2591 2978 2328 3040 
Q 2066 3103 1784 3103 
Q 1356 3103 1142 2972 
Q 928 2841 928 2578 
Q 928 2378 1081 2264 
Q 1234 2150 1697 2047 
L 1894 2003 
Q 2506 1872 2764 1633 
Q 3022 1394 3022 966 
Q 3022 478 2636 193 
Q 2250 -91 1575 -91 
Q 1294 -91 989 -36 
Q 684 19 347 128 
L 347 722 
Q 666 556 975 473 
Q 1284 391 1588 391 
Q 1994 391 2212 530 
Q 2431 669 2431 922 
Q 2431 1156 2273 1281 
Q 2116 1406 1581 1522 
L 1381 1569 
Q 847 1681 609 1914 
Q 372 2147 372 2553 
Q 372 3047 722 3315 
Q 1072 3584 1716 3584 
Q 2034 3584 2315 3537 
Q 2597 3491 2834 3397 
z
" transform="scale(0.015625)"/>
      </defs>
      <use xlink:href="#DejaVuSans-63"/>
      <use xlink:href="#DejaVuSans-65" x="54.980469"/>
      <use xlink:href="#DejaVuSans-6c" x="116.503906"/>
      <use xlink:href="#DejaVuSans-6c" x="144.287109"/>
      <use xlink:href="#DejaVuSans-73" x="172.070312"/>
     </g>
    </g>
   </g>
   <g id="line2d_11">
    <path d="M 48.93804 104.8 
L 49.809765 104.754862 
L 50.027696 104.424633 
L 50.354593 103.020177 
L 50.89942 100.707253 
L 52.098042 97.03472 
L 55.149079 88.288315 
L 55.584941 87.59113 
L 55.911838 87.471241 
L 56.456666 87.659463 
L 59.616668 89.364112 
L 133.713273 129.533122 
L 135.892585 130.440236 
L 135.892585 130.440236 
" clip-path="url(#paed67999d7)" style="fill: none; stroke: #edd1cb; stroke-width: 1.5; stroke-linecap: square"/>
   </g>
   <g id="line2d_12">
    <path d="M 48.93804 104.8 
L 49.809765 104.754862 
L 50.027696 104.424633 
L 50.354593 103.020177 
L 50.89942 100.707253 
L 52.098042 97.034717 
L 55.149079 88.287849 
L 55.584941 87.589947 
L 55.911838 87.469572 
L 56.456666 87.657573 
L 59.616668 89.362196 
L 133.713273 129.530028 
L 135.892585 130.436953 
L 135.892585 130.436953 
" clip-path="url(#paed67999d7)" style="fill: none; stroke: #edd1cb; stroke-width: 1.5; stroke-linecap: square"/>
   </g>
   <g id="line2d_13">
    <path d="M 48.93804 104.8 
L 49.809765 104.754862 
L 50.027696 104.424633 
L 50.354593 103.020177 
L 50.89942 100.707253 
L 52.098042 97.034713 
L 55.149079 88.287101 
L 55.584941 87.588044 
L 55.911838 87.466885 
L 56.456666 87.654529 
L 59.616668 89.359111 
L 133.713273 129.525046 
L 135.892585 130.431656 
L 135.892585 130.431656 
" clip-path="url(#paed67999d7)" style="fill: none; stroke: #edd1cb; stroke-width: 1.5; stroke-linecap: square"/>
   </g>
   <g id="line2d_14">
    <path d="M 48.93804 104.8 
L 49.809765 104.754862 
L 50.027696 104.424633 
L 50.354593 103.020177 
L 50.89942 100.707252 
L 52.098042 97.034706 
L 55.149079 88.285899 
L 55.584941 87.584985 
L 55.911838 87.46256 
L 56.456666 87.649628 
L 59.616668 89.354142 
L 133.713273 129.51699 
L 135.892585 130.423076 
L 135.892585 130.423076 
" clip-path="url(#paed67999d7)" style="fill: none; stroke: #edd0ca; stroke-width: 1.5; stroke-linecap: square"/>
   </g>
   <g id="line2d_15">
    <path d="M 48.93804 104.8 
L 49.809765 104.754862 
L 50.027696 104.424633 
L 50.354593 103.020177 
L 50.89942 100.707252 
L 52.098042 97.034694 
L 55.149079 88.283972 
L 55.584941 87.580072 
L 55.911838 87.455601 
L 56.456666 87.641733 
L 59.616668 89.346137 
L 133.604308 129.458353 
L 135.892585 130.408794 
L 135.892585 130.408794 
" clip-path="url(#paed67999d7)" style="fill: none; stroke: #edd0ca; stroke-width: 1.5; stroke-linecap: square"/>
   </g>
   <g id="line2d_16">
    <path d="M 48.93804 104.8 
L 49.809765 104.754862 
L 50.027696 104.424633 
L 50.354593 103.020177 
L 50.89942 100.707251 
L 52.098042 97.034675 
L 55.149079 88.28089 
L 55.584941 87.572194 
L 55.911838 87.444407 
L 56.3477 87.577241 
L 58.418047 88.68159 
L 133.604308 129.437098 
L 135.892585 130.384783 
L 135.892585 130.384783 
" clip-path="url(#paed67999d7)" style="fill: none; stroke: #edcfc9; stroke-width: 1.5; stroke-linecap: square"/>
   </g>
   <g id="line2d_17">
    <path d="M 48.93804 104.8 
L 49.809765 104.754862 
L 50.027696 104.424633 
L 50.354593 103.020177 
L 50.89942 100.70725 
L 52.098042 97.034645 
L 55.149079 88.275978 
L 55.584941 87.559594 
L 55.911838 87.426415 
L 56.3477 87.556918 
L 58.309081 88.601574 
L 133.495342 129.357356 
L 135.892585 130.344013 
L 135.892585 130.344013 
" clip-path="url(#paed67999d7)" style="fill: none; stroke: #eccdc8; stroke-width: 1.5; stroke-linecap: square"/>
   </g>
   <g id="line2d_18">
    <path d="M 48.93804 104.8 
L 49.809765 104.754862 
L 50.027696 104.424633 
L 50.354593 103.020177 
L 50.89942 100.707248 
L 52.098042 97.034597 
L 55.149079 88.268157 
L 55.584941 87.539493 
L 55.911838 87.397507 
L 56.3477 87.524152 
L 58.309081 88.56804 
L 133.386377 129.257059 
L 135.892585 130.271616 
L 135.892585 130.271616 
" clip-path="url(#paed67999d7)" style="fill: none; stroke: #eccdc8; stroke-width: 1.5; stroke-linecap: square"/>
   </g>
   <g id="line2d_19">
    <path d="M 48.93804 104.8 
L 49.809765 104.754862 
L 50.027696 104.424633 
L 50.354593 103.020177 
L 50.89942 100.707245 
L 52.098042 97.034522 
L 55.149079 88.255658 
L 55.584941 87.506497 
L 55.911838 87.350299 
L 56.3477 87.470655 
L 58.200115 88.45408 
L 134.04017 129.801934 
L 135.892585 130.86022 
L 135.892585 130.86022 
" clip-path="url(#paed67999d7)" style="fill: none; stroke: #ecccc7; stroke-width: 1.5; stroke-linecap: square"/>
   </g>
   <g id="line2d_20">
    <path d="M 48.93804 104.8 
L 49.809765 104.754862 
L 50.027696 104.424633 
L 50.354593 103.020177 
L 50.89942 100.70724 
L 52.098042 97.034403 
L 55.149079 88.236974 
L 55.584941 87.456893 
L 55.911838 87.276405 
L 56.3477 87.385441 
L 58.09115 88.307665 
L 134.584998 129.800169 
L 135.892585 130.402784 
L 135.892585 130.402784 
" clip-path="url(#paed67999d7)" style="fill: none; stroke: #ebcac5; stroke-width: 1.5; stroke-linecap: square"/>
   </g>
   <g id="line2d_21">
    <path d="M 48.93804 104.8 
L 49.809765 104.754862 
L 50.027696 104.424633 
L 50.354593 103.020177 
L 50.89942 100.707233 
L 52.098042 97.034218 
L 55.258044 87.958521 
L 55.693907 87.264786 
L 56.020804 87.154333 
L 56.565631 87.348189 
L 59.943565 89.172103 
L 131.969824 128.450636 
L 135.892585 130.665702 
L 135.892585 130.665702 
" clip-path="url(#paed67999d7)" style="fill: none; stroke: #eac8c4; stroke-width: 1.5; stroke-linecap: square"/>
   </g>
   <g id="line2d_22">
    <path d="M 48.93804 104.8 
L 49.809765 104.754862 
L 50.027696 104.424633 
L 50.354593 103.020177 
L 50.89942 100.707222 
L 52.098042 97.033939 
L 55.258044 87.903971 
L 55.693907 87.122601 
L 56.020804 86.951438 
L 56.456666 87.066634 
L 58.200115 87.990149 
L 134.476032 129.325321 
L 135.892585 130.054247 
L 135.892585 130.054247 
" clip-path="url(#paed67999d7)" style="fill: none; stroke: #eac7c3; stroke-width: 1.5; stroke-linecap: square"/>
   </g>
   <g id="line2d_23">
    <path d="M 48.93804 104.8 
L 49.809765 104.754862 
L 50.027696 104.424633 
L 50.354593 103.020177 
L 50.89942 100.707206 
L 52.098042 97.03353 
L 55.475976 87.324506 
L 55.911838 86.694822 
L 56.238735 86.633269 
L 56.892528 86.904977 
L 63.321498 90.393207 
L 135.892585 129.830535 
L 135.892585 129.830535 
" clip-path="url(#paed67999d7)" style="fill: none; stroke: #e9c4c1; stroke-width: 1.5; stroke-linecap: square"/>
   </g>
   <g id="line2d_24">
    <path d="M 48.93804 104.8 
L 49.809765 104.754862 
L 50.027696 104.424633 
L 50.354593 103.020177 
L 50.89942 100.707185 
L 52.098042 97.032959 
L 55.584941 86.928037 
L 56.020804 86.202743 
L 56.3477 86.085727 
L 56.892528 86.280108 
L 60.488393 88.223946 
L 135.892585 129.216137 
L 135.892585 129.216137 
" clip-path="url(#paed67999d7)" style="fill: none; stroke: #e8c2bf; stroke-width: 1.5; stroke-linecap: square"/>
   </g>
   <g id="line2d_25">
    <path d="M 48.93804 104.8 
L 49.809765 104.754862 
L 50.027696 104.424633 
L 50.354593 103.020177 
L 50.89942 100.707157 
L 52.098042 97.032213 
L 55.911838 85.935635 
L 56.3477 85.248105 
L 56.674597 85.158238 
L 57.219425 85.365644 
L 61.904946 87.902403 
L 135.02086 127.758034 
L 135.892585 128.259653 
L 135.892585 128.259653 
" clip-path="url(#paed67999d7)" style="fill: none; stroke: #e6bebc; stroke-width: 1.5; stroke-linecap: square"/>
   </g>
   <g id="line2d_26">
    <path d="M 48.93804 104.8 
L 49.809765 104.754862 
L 50.027696 104.424633 
L 50.354593 103.020177 
L 50.89942 100.707125 
L 52.098042 97.03132 
L 56.565631 84.021206 
L 56.892528 83.595851 
L 57.219425 83.529907 
L 57.764253 83.738641 
L 61.033221 85.499524 
L 135.892585 126.28314 
L 135.892585 126.28314 
" clip-path="url(#paed67999d7)" style="fill: none; stroke: #e5bcbb; stroke-width: 1.5; stroke-linecap: square"/>
   </g>
   <g id="line2d_27">
    <path d="M 48.93804 104.8 
L 49.809765 104.754862 
L 50.027696 104.424633 
L 50.354593 103.020177 
L 50.89942 100.70709 
L 52.207008 96.705434 
L 57.546322 81.079106 
L 57.873219 80.729166 
L 58.200115 80.65872 
L 58.744943 80.820659 
L 60.379427 81.670854 
L 135.892585 122.75959 
L 135.892585 122.75959 
" clip-path="url(#paed67999d7)" style="fill: none; stroke: #e3b6b7; stroke-width: 1.5; stroke-linecap: square"/>
   </g>
   <g id="line2d_28">
    <path d="M 48.93804 104.8 
L 49.809765 104.754862 
L 50.027696 104.424633 
L 50.354593 103.020177 
L 50.89942 100.707059 
L 52.207008 96.704301 
L 58.962875 76.789849 
L 59.398737 76.28066 
L 59.725634 76.192745 
L 60.270462 76.340645 
L 62.122877 77.317064 
L 126.63051 112.377138 
L 135.892585 117.408251 
L 135.892585 117.408251 
" clip-path="url(#paed67999d7)" style="fill: none; stroke: #e2b3b5; stroke-width: 1.5; stroke-linecap: square"/>
   </g>
   <g id="line2d_29">
    <path d="M 48.93804 104.8 
L 49.809765 104.754862 
L 50.027696 104.424633 
L 50.354593 103.020177 
L 50.89942 100.707031 
L 52.207008 96.703315 
L 60.706324 71.559709 
L 61.142187 71.102058 
L 61.578049 71.047475 
L 62.122877 71.241699 
L 64.52012 72.524682 
L 135.892585 111.337578 
L 135.892585 111.337578 
" clip-path="url(#paed67999d7)" style="fill: none; stroke: #dfacb1; stroke-width: 1.5; stroke-linecap: square"/>
   </g>
   <g id="line2d_30">
    <path d="M 48.93804 104.8 
L 49.809765 104.754862 
L 50.027696 104.424633 
L 50.354593 103.020177 
L 50.89942 100.70701 
L 52.207008 96.702532 
L 59.725634 73.890844 
L 62.122877 66.899395 
L 62.558739 66.114404 
L 62.885636 65.82897 
L 63.212533 65.774598 
L 63.757361 65.93907 
L 65.609776 66.919236 
L 135.892585 105.124875 
L 135.892585 105.124875 
" clip-path="url(#paed67999d7)" style="fill: none; stroke: #dba5ad; stroke-width: 1.5; stroke-linecap: square"/>
   </g>
   <g id="line2d_31">
    <path d="M 48.93804 104.8 
L 49.809765 104.754862 
L 50.027696 104.424633 
L 50.354593 103.020177 
L 50.89942 100.706995 
L 52.207008 96.701956 
L 59.834599 73.559269 
L 63.866326 61.614381 
L 64.302189 60.844127 
L 64.629086 60.568018 
L 65.064948 60.528632 
L 65.718742 60.778383 
L 69.314606 62.719674 
L 135.892585 98.904116 
L 135.892585 98.904116 
" clip-path="url(#paed67999d7)" style="fill: none; stroke: #d79ea9; stroke-width: 1.5; stroke-linecap: square"/>
   </g>
   <g id="line2d_32">
    <path d="M 48.93804 104.8 
L 49.809765 104.754862 
L 50.027696 104.424633 
L 50.354593 103.020177 
L 50.89942 100.706985 
L 52.207008 96.701555 
L 59.943565 73.223899 
L 65.609776 56.301022 
L 66.045638 55.545253 
L 66.372535 55.281497 
L 66.808397 55.255365 
L 67.462191 55.519412 
L 71.167021 57.520238 
L 135.892585 92.702148 
L 135.892585 92.702148 
" clip-path="url(#paed67999d7)" style="fill: none; stroke: #d194a4; stroke-width: 1.5; stroke-linecap: square"/>
   </g>
   <g id="line2d_33">
    <path d="M 48.93804 104.8 
L 49.809765 104.754862 
L 50.027696 104.424633 
L 50.354593 103.020177 
L 50.89942 100.706978 
L 52.207008 96.701287 
L 59.943565 73.221785 
L 67.353225 50.992341 
L 67.789088 50.247724 
L 68.115985 49.991939 
L 68.551847 49.973893 
L 69.314606 50.296901 
L 75.198748 53.487145 
L 135.892585 86.489238 
L 135.892585 86.489238 
" clip-path="url(#paed67999d7)" style="fill: none; stroke: #ca899f; stroke-width: 1.5; stroke-linecap: square"/>
   </g>
   <g id="line2d_34">
    <path d="M 48.93804 104.8 
L 49.809765 104.754862 
L 50.027696 104.424633 
L 50.354593 103.020177 
L 50.89942 100.706974 
L 52.207008 96.701113 
L 60.052531 72.891339 
L 69.096675 45.718827 
L 69.532537 44.983632 
L 69.859434 44.740656 
L 70.295297 44.734664 
L 71.058056 45.056138 
L 76.288404 47.887975 
L 135.892585 80.273061 
L 135.892585 80.273061 
" clip-path="url(#paed67999d7)" style="fill: none; stroke: #c17e9a; stroke-width: 1.5; stroke-linecap: square"/>
   </g>
   <g id="line2d_35">
    <path d="M 48.93804 104.8 
L 49.809765 104.754862 
L 50.027696 104.424633 
L 50.354593 103.020177 
L 50.89942 100.706971 
L 52.207008 96.701001 
L 60.052531 72.890322 
L 70.840125 40.350095 
L 71.275987 39.630812 
L 71.602884 39.401903 
L 72.038746 39.400866 
L 72.801505 39.72688 
L 77.160129 42.085958 
L 135.892585 74.006821 
L 135.892585 74.006821 
" clip-path="url(#paed67999d7)" style="fill: none; stroke: #b47194; stroke-width: 1.5; stroke-linecap: square"/>
   </g>
   <g id="line2d_36">
    <path d="M 48.93804 104.8 
L 49.809765 104.754862 
L 50.027696 104.424633 
L 50.354593 103.020177 
L 50.89942 100.706969 
L 52.207008 96.700931 
L 60.052531 72.889569 
L 72.583574 35.117534 
L 73.019436 34.410943 
L 73.346333 34.186594 
L 73.782196 34.190766 
L 74.544955 34.520864 
L 78.903579 36.883034 
L 135.892585 67.859766 
L 135.892585 67.859766 
" clip-path="url(#paed67999d7)" style="fill: none; stroke: #a4638d; stroke-width: 1.5; stroke-linecap: square"/>
   </g>
   <g id="line2d_37">
    <path d="M 48.93804 104.8 
L 49.809765 104.754862 
L 50.027696 104.424633 
L 50.354593 103.020177 
L 50.89942 100.706968 
L 52.207008 96.700886 
L 60.052531 72.889153 
L 74.218058 30.070534 
L 74.762886 29.134231 
L 75.089783 28.919965 
L 75.525645 28.933202 
L 76.288404 29.268447 
L 82.499443 32.629506 
L 135.892585 61.646922 
L 135.892585 61.646922 
" clip-path="url(#paed67999d7)" style="fill: none; stroke: #8e5383; stroke-width: 1.5; stroke-linecap: square"/>
   </g>
   <g id="line2d_38">
    <path d="M 48.93804 104.8 
L 49.809765 104.754862 
L 50.027696 104.424633 
L 50.354593 103.020177 
L 50.89942 100.706967 
L 52.207008 96.700858 
L 60.052531 72.88889 
L 76.070473 24.521411 
L 76.506336 23.840448 
L 76.833232 23.642099 
L 77.269095 23.663538 
L 78.140819 24.054923 
L 83.698065 27.068403 
L 135.892585 55.427837 
L 135.892585 55.427837 
" clip-path="url(#paed67999d7)" style="fill: none; stroke: #744375; stroke-width: 1.5; stroke-linecap: square"/>
   </g>
   <g id="line2d_39">
    <path d="M 48.93804 104.8 
L 49.809765 104.754862 
L 50.027696 104.424633 
L 50.354593 103.020177 
L 50.89942 100.706967 
L 52.207008 96.700841 
L 60.052531 72.888726 
L 77.813923 19.210197 
L 78.249785 18.54589 
L 78.576682 18.350156 
L 79.012544 18.373448 
L 79.775303 18.709533 
L 86.749102 22.495322 
L 135.892585 49.202876 
L 135.892585 49.202876 
" clip-path="url(#paed67999d7)" style="fill: none; stroke: #52315f; stroke-width: 1.5; stroke-linecap: square"/>
   </g>
   <g id="line2d_40">
    <path d="M 48.93804 104.8 
L 49.809765 104.754862 
L 50.027696 104.424633 
L 50.354593 103.020177 
L 50.89942 100.706966 
L 52.207008 96.70083 
L 60.052531 72.888624 
L 79.448407 14.163696 
L 79.884269 13.404895 
L 80.211166 13.139222 
L 80.647028 13.109992 
L 81.409787 13.423477 
L 86.858067 16.37782 
L 135.892585 43.022126 
L 135.892585 43.022126 
" clip-path="url(#paed67999d7)" style="fill: none; stroke: #2d1e3e; stroke-width: 1.5; stroke-linecap: square"/>
   </g>
   <g id="patch_3">
    <path d="M 44.590312 104.8 
L 44.590312 7.2 
" style="fill: none; stroke: #000000; stroke-width: 0.8; stroke-linejoin: miter; stroke-linecap: square"/>
   </g>
   <g id="patch_4">
    <path d="M 140.240312 104.8 
L 140.240312 7.2 
" style="fill: none; stroke: #000000; stroke-width: 0.8; stroke-linejoin: miter; stroke-linecap: square"/>
   </g>
   <g id="patch_5">
    <path d="M 44.590312 104.8 
L 140.240312 104.8 
" style="fill: none; stroke: #000000; stroke-width: 0.8; stroke-linejoin: miter; stroke-linecap: square"/>
   </g>
   <g id="patch_6">
    <path d="M 44.590312 7.2 
L 140.240312 7.2 
" style="fill: none; stroke: #000000; stroke-width: 0.8; stroke-linejoin: miter; stroke-linecap: square"/>
   </g>
  </g>
 </g>
 <defs>
  <clipPath id="paed67999d7">
   <rect x="44.590312" y="7.2" width="95.65" height="97.6"/>
  </clipPath>
 </defs>
</svg>
