<?xml version="1.0" encoding="utf-8" standalone="no"?>
<!DOCTYPE svg PUBLIC "-//W3C//DTD SVG 1.1//EN"
  "http://www.w3.org/Graphics/SVG/1.1/DTD/svg11.dtd">
<svg xmlns:xlink="http://www.w3.org/1999/xlink" width="813.705866pt" height="143.414531pt" viewBox="0 0 813.705866 143.414531" xmlns="http://www.w3.org/2000/svg" version="1.1">
 <metadata>
  <rdf:RDF xmlns:dc="http://purl.org/dc/elements/1.1/" xmlns:cc="http://creativecommons.org/ns#" xmlns:rdf="http://www.w3.org/1999/02/22-rdf-syntax-ns#">
   <cc:Work>
    <dc:type rdf:resource="http://purl.org/dc/dcmitype/StillImage"/>
    <dc:date>2022-08-11T19:14:52.150012</dc:date>
    <dc:format>image/svg+xml</dc:format>
    <dc:creator>
     <cc:Agent>
      <dc:title>Matplotlib v3.5.1, https://matplotlib.org/</dc:title>
     </cc:Agent>
    </dc:creator>
   </cc:Work>
  </rdf:RDF>
 </metadata>
 <defs>
  <style type="text/css">*{stroke-linejoin: round; stroke-linecap: butt}</style>
 </defs>
 <g id="figure_1">
  <g id="patch_1">
   <path d="M 0 143.414531 
L 813.705866 143.414531 
L 813.705866 0 
L 0 0 
z
" style="fill: #ffffff"/>
  </g>
  <g id="axes_1">
   <g id="patch_2">
    <path d="M 41.223281 110.6675 
L 169.053123 110.6675 
L 169.053123 19.66875 
L 41.223281 19.66875 
z
" style="fill: #ffffff"/>
   </g>
   <g id="matplotlib.axis_1">
    <g id="xtick_1">
     <g id="line2d_1">
      <defs>
       <path id="md664ada959" d="M 0 0 
L 0 4 
" style="stroke: #262626; stroke-width: 0.8"/>
      </defs>
      <g>
       <use xlink:href="#md664ada959" x="45.230486" y="110.6675" style="fill: #262626; stroke: #262626; stroke-width: 0.8"/>
      </g>
     </g>
     <g id="text_1">
      <!-- 0.90 -->
      <g style="fill: #262626" transform="translate(37.446111 122.39375)scale(0.08 -0.08)">
       <defs>
        <path id="ArialMT-30" d="M 266 2259 
Q 266 3072 433 3567 
Q 600 4063 929 4331 
Q 1259 4600 1759 4600 
Q 2128 4600 2406 4451 
Q 2684 4303 2865 4023 
Q 3047 3744 3150 3342 
Q 3253 2941 3253 2259 
Q 3253 1453 3087 958 
Q 2922 463 2592 192 
Q 2263 -78 1759 -78 
Q 1097 -78 719 397 
Q 266 969 266 2259 
z
M 844 2259 
Q 844 1131 1108 757 
Q 1372 384 1759 384 
Q 2147 384 2411 759 
Q 2675 1134 2675 2259 
Q 2675 3391 2411 3762 
Q 2147 4134 1753 4134 
Q 1366 4134 1134 3806 
Q 844 3388 844 2259 
z
" transform="scale(0.015625)"/>
        <path id="ArialMT-2e" d="M 581 0 
L 581 641 
L 1222 641 
L 1222 0 
L 581 0 
z
" transform="scale(0.015625)"/>
        <path id="ArialMT-39" d="M 350 1059 
L 891 1109 
Q 959 728 1153 556 
Q 1347 384 1650 384 
Q 1909 384 2104 503 
Q 2300 622 2425 820 
Q 2550 1019 2634 1356 
Q 2719 1694 2719 2044 
Q 2719 2081 2716 2156 
Q 2547 1888 2255 1720 
Q 1963 1553 1622 1553 
Q 1053 1553 659 1965 
Q 266 2378 266 3053 
Q 266 3750 677 4175 
Q 1088 4600 1706 4600 
Q 2153 4600 2523 4359 
Q 2894 4119 3086 3673 
Q 3278 3228 3278 2384 
Q 3278 1506 3087 986 
Q 2897 466 2520 194 
Q 2144 -78 1638 -78 
Q 1100 -78 759 220 
Q 419 519 350 1059 
z
M 2653 3081 
Q 2653 3566 2395 3850 
Q 2138 4134 1775 4134 
Q 1400 4134 1122 3828 
Q 844 3522 844 3034 
Q 844 2597 1108 2323 
Q 1372 2050 1759 2050 
Q 2150 2050 2401 2323 
Q 2653 2597 2653 3081 
z
" transform="scale(0.015625)"/>
       </defs>
       <use xlink:href="#ArialMT-30"/>
       <use xlink:href="#ArialMT-2e" x="55.615234"/>
       <use xlink:href="#ArialMT-39" x="83.398438"/>
       <use xlink:href="#ArialMT-30" x="139.013672"/>
      </g>
     </g>
    </g>
    <g id="xtick_2">
     <g id="line2d_2">
      <g>
       <use xlink:href="#md664ada959" x="74.182543" y="110.6675" style="fill: #262626; stroke: #262626; stroke-width: 0.8"/>
      </g>
     </g>
     <g id="text_2">
      <!-- 0.95 -->
      <g style="fill: #262626" transform="translate(66.398168 122.39375)scale(0.08 -0.08)">
       <defs>
        <path id="ArialMT-35" d="M 266 1200 
L 856 1250 
Q 922 819 1161 601 
Q 1400 384 1738 384 
Q 2144 384 2425 690 
Q 2706 997 2706 1503 
Q 2706 1984 2436 2262 
Q 2166 2541 1728 2541 
Q 1456 2541 1237 2417 
Q 1019 2294 894 2097 
L 366 2166 
L 809 4519 
L 3088 4519 
L 3088 3981 
L 1259 3981 
L 1013 2750 
Q 1425 3038 1878 3038 
Q 2478 3038 2890 2622 
Q 3303 2206 3303 1553 
Q 3303 931 2941 478 
Q 2500 -78 1738 -78 
Q 1113 -78 717 272 
Q 322 622 266 1200 
z
" transform="scale(0.015625)"/>
       </defs>
       <use xlink:href="#ArialMT-30"/>
       <use xlink:href="#ArialMT-2e" x="55.615234"/>
       <use xlink:href="#ArialMT-39" x="83.398438"/>
       <use xlink:href="#ArialMT-35" x="139.013672"/>
      </g>
     </g>
    </g>
    <g id="xtick_3">
     <g id="line2d_3">
      <g>
       <use xlink:href="#md664ada959" x="103.1346" y="110.6675" style="fill: #262626; stroke: #262626; stroke-width: 0.8"/>
      </g>
     </g>
     <g id="text_3">
      <!-- 1.00 -->
      <g style="fill: #262626" transform="translate(95.350225 122.39375)scale(0.08 -0.08)">
       <defs>
        <path id="ArialMT-31" d="M 2384 0 
L 1822 0 
L 1822 3584 
Q 1619 3391 1289 3197 
Q 959 3003 697 2906 
L 697 3450 
Q 1169 3672 1522 3987 
Q 1875 4303 2022 4600 
L 2384 4600 
L 2384 0 
z
" transform="scale(0.015625)"/>
       </defs>
       <use xlink:href="#ArialMT-31"/>
       <use xlink:href="#ArialMT-2e" x="55.615234"/>
       <use xlink:href="#ArialMT-30" x="83.398438"/>
       <use xlink:href="#ArialMT-30" x="139.013672"/>
      </g>
     </g>
    </g>
    <g id="xtick_4">
     <g id="line2d_4">
      <g>
       <use xlink:href="#md664ada959" x="132.086656" y="110.6675" style="fill: #262626; stroke: #262626; stroke-width: 0.8"/>
      </g>
     </g>
     <g id="text_4">
      <!-- 1.05 -->
      <g style="fill: #262626" transform="translate(124.302281 122.39375)scale(0.08 -0.08)">
       <use xlink:href="#ArialMT-31"/>
       <use xlink:href="#ArialMT-2e" x="55.615234"/>
       <use xlink:href="#ArialMT-30" x="83.398438"/>
       <use xlink:href="#ArialMT-35" x="139.013672"/>
      </g>
     </g>
    </g>
    <g id="xtick_5">
     <g id="line2d_5">
      <g>
       <use xlink:href="#md664ada959" x="161.038713" y="110.6675" style="fill: #262626; stroke: #262626; stroke-width: 0.8"/>
      </g>
     </g>
     <g id="text_5">
      <!-- 1.10 -->
      <g style="fill: #262626" transform="translate(153.254338 122.39375)scale(0.08 -0.08)">
       <use xlink:href="#ArialMT-31"/>
       <use xlink:href="#ArialMT-2e" x="55.615234"/>
       <use xlink:href="#ArialMT-31" x="83.398438"/>
       <use xlink:href="#ArialMT-30" x="139.013672"/>
      </g>
     </g>
    </g>
    <g id="text_6">
     <!-- param value norm. -->
     <g style="fill: #262626" transform="translate(67.625077 134.425781)scale(0.09 -0.09)">
      <defs>
       <path id="ArialMT-70" d="M 422 -1272 
L 422 3319 
L 934 3319 
L 934 2888 
Q 1116 3141 1344 3267 
Q 1572 3394 1897 3394 
Q 2322 3394 2647 3175 
Q 2972 2956 3137 2557 
Q 3303 2159 3303 1684 
Q 3303 1175 3120 767 
Q 2938 359 2589 142 
Q 2241 -75 1856 -75 
Q 1575 -75 1351 44 
Q 1128 163 984 344 
L 984 -1272 
L 422 -1272 
z
M 931 1641 
Q 931 1000 1190 694 
Q 1450 388 1819 388 
Q 2194 388 2461 705 
Q 2728 1022 2728 1688 
Q 2728 2322 2467 2637 
Q 2206 2953 1844 2953 
Q 1484 2953 1207 2617 
Q 931 2281 931 1641 
z
" transform="scale(0.015625)"/>
       <path id="ArialMT-61" d="M 2588 409 
Q 2275 144 1986 34 
Q 1697 -75 1366 -75 
Q 819 -75 525 192 
Q 231 459 231 875 
Q 231 1119 342 1320 
Q 453 1522 633 1644 
Q 813 1766 1038 1828 
Q 1203 1872 1538 1913 
Q 2219 1994 2541 2106 
Q 2544 2222 2544 2253 
Q 2544 2597 2384 2738 
Q 2169 2928 1744 2928 
Q 1347 2928 1158 2789 
Q 969 2650 878 2297 
L 328 2372 
Q 403 2725 575 2942 
Q 747 3159 1072 3276 
Q 1397 3394 1825 3394 
Q 2250 3394 2515 3294 
Q 2781 3194 2906 3042 
Q 3031 2891 3081 2659 
Q 3109 2516 3109 2141 
L 3109 1391 
Q 3109 606 3145 398 
Q 3181 191 3288 0 
L 2700 0 
Q 2613 175 2588 409 
z
M 2541 1666 
Q 2234 1541 1622 1453 
Q 1275 1403 1131 1340 
Q 988 1278 909 1158 
Q 831 1038 831 891 
Q 831 666 1001 516 
Q 1172 366 1500 366 
Q 1825 366 2078 508 
Q 2331 650 2450 897 
Q 2541 1088 2541 1459 
L 2541 1666 
z
" transform="scale(0.015625)"/>
       <path id="ArialMT-72" d="M 416 0 
L 416 3319 
L 922 3319 
L 922 2816 
Q 1116 3169 1280 3281 
Q 1444 3394 1641 3394 
Q 1925 3394 2219 3213 
L 2025 2691 
Q 1819 2813 1613 2813 
Q 1428 2813 1281 2702 
Q 1134 2591 1072 2394 
Q 978 2094 978 1738 
L 978 0 
L 416 0 
z
" transform="scale(0.015625)"/>
       <path id="ArialMT-6d" d="M 422 0 
L 422 3319 
L 925 3319 
L 925 2853 
Q 1081 3097 1340 3245 
Q 1600 3394 1931 3394 
Q 2300 3394 2536 3241 
Q 2772 3088 2869 2813 
Q 3263 3394 3894 3394 
Q 4388 3394 4653 3120 
Q 4919 2847 4919 2278 
L 4919 0 
L 4359 0 
L 4359 2091 
Q 4359 2428 4304 2576 
Q 4250 2725 4106 2815 
Q 3963 2906 3769 2906 
Q 3419 2906 3187 2673 
Q 2956 2441 2956 1928 
L 2956 0 
L 2394 0 
L 2394 2156 
Q 2394 2531 2256 2718 
Q 2119 2906 1806 2906 
Q 1569 2906 1367 2781 
Q 1166 2656 1075 2415 
Q 984 2175 984 1722 
L 984 0 
L 422 0 
z
" transform="scale(0.015625)"/>
       <path id="ArialMT-20" transform="scale(0.015625)"/>
       <path id="ArialMT-76" d="M 1344 0 
L 81 3319 
L 675 3319 
L 1388 1331 
Q 1503 1009 1600 663 
Q 1675 925 1809 1294 
L 2547 3319 
L 3125 3319 
L 1869 0 
L 1344 0 
z
" transform="scale(0.015625)"/>
       <path id="ArialMT-6c" d="M 409 0 
L 409 4581 
L 972 4581 
L 972 0 
L 409 0 
z
" transform="scale(0.015625)"/>
       <path id="ArialMT-75" d="M 2597 0 
L 2597 488 
Q 2209 -75 1544 -75 
Q 1250 -75 995 37 
Q 741 150 617 320 
Q 494 491 444 738 
Q 409 903 409 1263 
L 409 3319 
L 972 3319 
L 972 1478 
Q 972 1038 1006 884 
Q 1059 663 1231 536 
Q 1403 409 1656 409 
Q 1909 409 2131 539 
Q 2353 669 2445 892 
Q 2538 1116 2538 1541 
L 2538 3319 
L 3100 3319 
L 3100 0 
L 2597 0 
z
" transform="scale(0.015625)"/>
       <path id="ArialMT-65" d="M 2694 1069 
L 3275 997 
Q 3138 488 2766 206 
Q 2394 -75 1816 -75 
Q 1088 -75 661 373 
Q 234 822 234 1631 
Q 234 2469 665 2931 
Q 1097 3394 1784 3394 
Q 2450 3394 2872 2941 
Q 3294 2488 3294 1666 
Q 3294 1616 3291 1516 
L 816 1516 
Q 847 969 1125 678 
Q 1403 388 1819 388 
Q 2128 388 2347 550 
Q 2566 713 2694 1069 
z
M 847 1978 
L 2700 1978 
Q 2663 2397 2488 2606 
Q 2219 2931 1791 2931 
Q 1403 2931 1139 2672 
Q 875 2413 847 1978 
z
" transform="scale(0.015625)"/>
       <path id="ArialMT-6e" d="M 422 0 
L 422 3319 
L 928 3319 
L 928 2847 
Q 1294 3394 1984 3394 
Q 2284 3394 2536 3286 
Q 2788 3178 2913 3003 
Q 3038 2828 3088 2588 
Q 3119 2431 3119 2041 
L 3119 0 
L 2556 0 
L 2556 2019 
Q 2556 2363 2490 2533 
Q 2425 2703 2258 2804 
Q 2091 2906 1866 2906 
Q 1506 2906 1245 2678 
Q 984 2450 984 1813 
L 984 0 
L 422 0 
z
" transform="scale(0.015625)"/>
       <path id="ArialMT-6f" d="M 213 1659 
Q 213 2581 725 3025 
Q 1153 3394 1769 3394 
Q 2453 3394 2887 2945 
Q 3322 2497 3322 1706 
Q 3322 1066 3130 698 
Q 2938 331 2570 128 
Q 2203 -75 1769 -75 
Q 1072 -75 642 372 
Q 213 819 213 1659 
z
M 791 1659 
Q 791 1022 1069 705 
Q 1347 388 1769 388 
Q 2188 388 2466 706 
Q 2744 1025 2744 1678 
Q 2744 2294 2464 2611 
Q 2184 2928 1769 2928 
Q 1347 2928 1069 2612 
Q 791 2297 791 1659 
z
" transform="scale(0.015625)"/>
      </defs>
      <use xlink:href="#ArialMT-70"/>
      <use xlink:href="#ArialMT-61" x="55.615234"/>
      <use xlink:href="#ArialMT-72" x="111.230469"/>
      <use xlink:href="#ArialMT-61" x="144.53125"/>
      <use xlink:href="#ArialMT-6d" x="200.146484"/>
      <use xlink:href="#ArialMT-20" x="283.447266"/>
      <use xlink:href="#ArialMT-76" x="311.230469"/>
      <use xlink:href="#ArialMT-61" x="361.230469"/>
      <use xlink:href="#ArialMT-6c" x="416.845703"/>
      <use xlink:href="#ArialMT-75" x="439.0625"/>
      <use xlink:href="#ArialMT-65" x="494.677734"/>
      <use xlink:href="#ArialMT-20" x="550.292969"/>
      <use xlink:href="#ArialMT-6e" x="578.076172"/>
      <use xlink:href="#ArialMT-6f" x="633.691406"/>
      <use xlink:href="#ArialMT-72" x="689.306641"/>
      <use xlink:href="#ArialMT-6d" x="722.607422"/>
      <use xlink:href="#ArialMT-2e" x="805.908203"/>
     </g>
    </g>
   </g>
   <g id="matplotlib.axis_2">
    <g id="ytick_1">
     <g id="line2d_6">
      <defs>
       <path id="m3265600dc8" d="M 0 0 
L -4 0 
" style="stroke: #262626; stroke-width: 0.8"/>
      </defs>
      <g>
       <use xlink:href="#m3265600dc8" x="41.223281" y="110.6675" style="fill: #262626; stroke: #262626; stroke-width: 0.8"/>
      </g>
     </g>
     <g id="text_7">
      <!-- −1.0 -->
      <g style="fill: #262626" transform="translate(19.430781 113.530625)scale(0.08 -0.08)">
       <defs>
        <path id="ArialMT-2212" d="M 3381 1997 
L 356 1997 
L 356 2522 
L 3381 2522 
L 3381 1997 
z
" transform="scale(0.015625)"/>
       </defs>
       <use xlink:href="#ArialMT-2212"/>
       <use xlink:href="#ArialMT-31" x="58.398438"/>
       <use xlink:href="#ArialMT-2e" x="114.013672"/>
       <use xlink:href="#ArialMT-30" x="141.796875"/>
      </g>
     </g>
    </g>
    <g id="ytick_2">
     <g id="line2d_7">
      <g>
       <use xlink:href="#m3265600dc8" x="41.223281" y="87.917812" style="fill: #262626; stroke: #262626; stroke-width: 0.8"/>
      </g>
     </g>
     <g id="text_8">
      <!-- −0.5 -->
      <g style="fill: #262626" transform="translate(19.430781 90.780937)scale(0.08 -0.08)">
       <use xlink:href="#ArialMT-2212"/>
       <use xlink:href="#ArialMT-30" x="58.398438"/>
       <use xlink:href="#ArialMT-2e" x="114.013672"/>
       <use xlink:href="#ArialMT-35" x="141.796875"/>
      </g>
     </g>
    </g>
    <g id="ytick_3">
     <g id="line2d_8">
      <g>
       <use xlink:href="#m3265600dc8" x="41.223281" y="65.168125" style="fill: #262626; stroke: #262626; stroke-width: 0.8"/>
      </g>
     </g>
     <g id="text_9">
      <!-- 0.0 -->
      <g style="fill: #262626" transform="translate(24.103281 68.03125)scale(0.08 -0.08)">
       <use xlink:href="#ArialMT-30"/>
       <use xlink:href="#ArialMT-2e" x="55.615234"/>
       <use xlink:href="#ArialMT-30" x="83.398438"/>
      </g>
     </g>
    </g>
    <g id="ytick_4">
     <g id="line2d_9">
      <g>
       <use xlink:href="#m3265600dc8" x="41.223281" y="42.418437" style="fill: #262626; stroke: #262626; stroke-width: 0.8"/>
      </g>
     </g>
     <g id="text_10">
      <!-- 0.5 -->
      <g style="fill: #262626" transform="translate(24.103281 45.281562)scale(0.08 -0.08)">
       <use xlink:href="#ArialMT-30"/>
       <use xlink:href="#ArialMT-2e" x="55.615234"/>
       <use xlink:href="#ArialMT-35" x="83.398438"/>
      </g>
     </g>
    </g>
    <g id="ytick_5">
     <g id="line2d_10">
      <g>
       <use xlink:href="#m3265600dc8" x="41.223281" y="19.66875" style="fill: #262626; stroke: #262626; stroke-width: 0.8"/>
      </g>
     </g>
     <g id="text_11">
      <!-- 1.0 -->
      <g style="fill: #262626" transform="translate(24.103281 22.531875)scale(0.08 -0.08)">
       <use xlink:href="#ArialMT-31"/>
       <use xlink:href="#ArialMT-2e" x="55.615234"/>
       <use xlink:href="#ArialMT-30" x="83.398438"/>
      </g>
     </g>
    </g>
    <g id="text_12">
     <!-- effect size -->
     <g style="fill: #262626" transform="translate(13.642031 85.347109)rotate(-90)scale(0.09 -0.09)">
      <defs>
       <path id="ArialMT-66" d="M 556 0 
L 556 2881 
L 59 2881 
L 59 3319 
L 556 3319 
L 556 3672 
Q 556 4006 616 4169 
Q 697 4388 901 4523 
Q 1106 4659 1475 4659 
Q 1713 4659 2000 4603 
L 1916 4113 
Q 1741 4144 1584 4144 
Q 1328 4144 1222 4034 
Q 1116 3925 1116 3625 
L 1116 3319 
L 1763 3319 
L 1763 2881 
L 1116 2881 
L 1116 0 
L 556 0 
z
" transform="scale(0.015625)"/>
       <path id="ArialMT-63" d="M 2588 1216 
L 3141 1144 
Q 3050 572 2676 248 
Q 2303 -75 1759 -75 
Q 1078 -75 664 370 
Q 250 816 250 1647 
Q 250 2184 428 2587 
Q 606 2991 970 3192 
Q 1334 3394 1763 3394 
Q 2303 3394 2647 3120 
Q 2991 2847 3088 2344 
L 2541 2259 
Q 2463 2594 2264 2762 
Q 2066 2931 1784 2931 
Q 1359 2931 1093 2626 
Q 828 2322 828 1663 
Q 828 994 1084 691 
Q 1341 388 1753 388 
Q 2084 388 2306 591 
Q 2528 794 2588 1216 
z
" transform="scale(0.015625)"/>
       <path id="ArialMT-74" d="M 1650 503 
L 1731 6 
Q 1494 -44 1306 -44 
Q 1000 -44 831 53 
Q 663 150 594 308 
Q 525 466 525 972 
L 525 2881 
L 113 2881 
L 113 3319 
L 525 3319 
L 525 4141 
L 1084 4478 
L 1084 3319 
L 1650 3319 
L 1650 2881 
L 1084 2881 
L 1084 941 
Q 1084 700 1114 631 
Q 1144 563 1211 522 
Q 1278 481 1403 481 
Q 1497 481 1650 503 
z
" transform="scale(0.015625)"/>
       <path id="ArialMT-73" d="M 197 991 
L 753 1078 
Q 800 744 1014 566 
Q 1228 388 1613 388 
Q 2000 388 2187 545 
Q 2375 703 2375 916 
Q 2375 1106 2209 1216 
Q 2094 1291 1634 1406 
Q 1016 1563 777 1677 
Q 538 1791 414 1992 
Q 291 2194 291 2438 
Q 291 2659 392 2848 
Q 494 3038 669 3163 
Q 800 3259 1026 3326 
Q 1253 3394 1513 3394 
Q 1903 3394 2198 3281 
Q 2494 3169 2634 2976 
Q 2775 2784 2828 2463 
L 2278 2388 
Q 2241 2644 2061 2787 
Q 1881 2931 1553 2931 
Q 1166 2931 1000 2803 
Q 834 2675 834 2503 
Q 834 2394 903 2306 
Q 972 2216 1119 2156 
Q 1203 2125 1616 2013 
Q 2213 1853 2448 1751 
Q 2684 1650 2818 1456 
Q 2953 1263 2953 975 
Q 2953 694 2789 445 
Q 2625 197 2315 61 
Q 2006 -75 1616 -75 
Q 969 -75 630 194 
Q 291 463 197 991 
z
" transform="scale(0.015625)"/>
       <path id="ArialMT-69" d="M 425 3934 
L 425 4581 
L 988 4581 
L 988 3934 
L 425 3934 
z
M 425 0 
L 425 3319 
L 988 3319 
L 988 0 
L 425 0 
z
" transform="scale(0.015625)"/>
       <path id="ArialMT-7a" d="M 125 0 
L 125 456 
L 2238 2881 
Q 1878 2863 1603 2863 
L 250 2863 
L 250 3319 
L 2963 3319 
L 2963 2947 
L 1166 841 
L 819 456 
Q 1197 484 1528 484 
L 3063 484 
L 3063 0 
L 125 0 
z
" transform="scale(0.015625)"/>
      </defs>
      <use xlink:href="#ArialMT-65"/>
      <use xlink:href="#ArialMT-66" x="55.615234"/>
      <use xlink:href="#ArialMT-66" x="81.648438"/>
      <use xlink:href="#ArialMT-65" x="109.431641"/>
      <use xlink:href="#ArialMT-63" x="165.046875"/>
      <use xlink:href="#ArialMT-74" x="215.046875"/>
      <use xlink:href="#ArialMT-20" x="242.830078"/>
      <use xlink:href="#ArialMT-73" x="270.613281"/>
      <use xlink:href="#ArialMT-69" x="320.613281"/>
      <use xlink:href="#ArialMT-7a" x="342.830078"/>
      <use xlink:href="#ArialMT-65" x="392.830078"/>
     </g>
    </g>
   </g>
   <g id="line2d_11">
    <path d="M 47.033729 71.616201 
L 51.040934 71.130225 
L 55.048139 70.648377 
L 59.055344 70.170546 
L 63.062549 69.696833 
L 67.069754 69.227025 
L 71.076959 68.761118 
L 75.084164 68.299058 
L 79.091369 67.840696 
L 83.098574 67.386194 
L 87.105779 66.935438 
L 91.112984 66.488243 
L 95.120189 66.044724 
L 99.127395 65.604662 
L 103.1346 65.168125 
L 107.141805 64.735009 
L 111.14901 64.305196 
L 115.156215 63.87884 
L 119.16342 63.455797 
L 123.170625 63.036032 
L 127.17783 62.619484 
L 131.185035 62.206119 
L 135.19224 61.795899 
L 139.199445 61.388775 
L 143.20665 60.985028 
L 147.213855 60.583812 
L 151.221061 60.185767 
L 155.228266 59.790668 
L 159.235471 59.39848 
L 163.242676 59.009047 
" clip-path="url(#p1f9b2f7205)" style="fill: none; stroke: #4c72b0; stroke-linecap: round"/>
   </g>
   <g id="line2d_12">
    <path d="M 47.033729 70.824028 
L 51.040934 70.399891 
L 55.048139 69.97901 
L 59.055344 69.561244 
L 63.062549 69.14685 
L 67.069754 68.735492 
L 71.076959 68.327229 
L 75.084164 67.922019 
L 79.091369 67.519721 
L 83.098574 67.12055 
L 87.105779 66.724362 
L 91.112984 66.331007 
L 95.120189 65.940589 
L 99.127395 65.552944 
L 103.1346 65.168125 
L 107.141805 64.786058 
L 111.14901 64.406649 
L 115.156215 64.03002 
L 119.16342 63.656064 
L 123.170625 63.284742 
L 127.17783 62.916034 
L 131.185035 62.549904 
L 135.19224 62.186317 
L 139.199445 61.825252 
L 143.20665 61.466945 
L 147.213855 61.110666 
L 151.221061 60.756977 
L 155.228266 60.405695 
L 159.235471 60.056783 
L 163.242676 59.710139 
" clip-path="url(#p1f9b2f7205)" style="fill: none; stroke: #dd8452; stroke-linecap: round"/>
   </g>
   <g id="line2d_13">
    <path d="M 47.033729 65.005698 
L 51.040934 65.021738 
L 55.048139 65.037025 
L 59.055344 65.05143 
L 63.062549 65.065412 
L 67.069754 65.078549 
L 71.076959 65.091006 
L 75.084164 65.102799 
L 79.091369 65.113732 
L 83.098574 65.124304 
L 87.105779 65.134366 
L 91.112984 65.143671 
L 95.120189 65.152377 
L 99.127395 65.16053 
L 103.1346 65.168125 
L 107.141805 65.175184 
L 111.14901 65.181733 
L 115.156215 65.187753 
L 119.16342 65.193274 
L 123.170625 65.198201 
L 127.17783 65.202761 
L 131.185035 65.206859 
L 135.19224 65.210506 
L 139.199445 65.213754 
L 143.20665 65.216556 
L 147.213855 65.218955 
L 151.221061 65.220916 
L 155.228266 65.222481 
L 159.235471 65.223661 
L 163.242676 65.224507 
" clip-path="url(#p1f9b2f7205)" style="fill: none; stroke: #55a868; stroke-linecap: round"/>
   </g>
   <g id="line2d_14">
    <path d="M 47.033729 65.575839 
L 51.040934 65.575839 
L 55.048139 65.473673 
L 59.055344 65.473673 
L 63.062549 65.473673 
L 67.069754 65.473673 
L 71.076959 65.371665 
L 75.084164 65.371665 
L 79.091369 65.371665 
L 83.098574 65.269816 
L 87.105779 65.269816 
L 91.112984 65.269816 
L 95.120189 65.269816 
L 99.127395 65.168125 
L 103.1346 65.168125 
L 107.141805 65.168125 
L 111.14901 65.168125 
L 115.156215 65.066591 
L 119.16342 65.066591 
L 123.170625 65.066591 
L 127.17783 65.066591 
L 131.185035 64.965214 
L 135.19224 64.965214 
L 139.199445 64.965214 
L 143.20665 64.965214 
L 147.213855 64.965214 
L 151.221061 64.863993 
L 155.228266 64.863993 
L 159.235471 64.863993 
L 163.242676 64.863993 
" clip-path="url(#p1f9b2f7205)" style="fill: none; stroke: #c44e52; stroke-linecap: round"/>
   </g>
   <g id="line2d_15"/>
   <g id="line2d_16"/>
   <g id="line2d_17"/>
   <g id="line2d_18"/>
   <g id="patch_3">
    <path d="M 41.223281 110.6675 
L 41.223281 19.66875 
" style="fill: none; stroke: #262626; stroke-linejoin: miter; stroke-linecap: square"/>
   </g>
   <g id="patch_4">
    <path d="M 169.053123 110.6675 
L 169.053123 19.66875 
" style="fill: none; stroke: #262626; stroke-linejoin: miter; stroke-linecap: square"/>
   </g>
   <g id="patch_5">
    <path d="M 41.223281 110.6675 
L 169.053123 110.6675 
" style="fill: none; stroke: #262626; stroke-linejoin: miter; stroke-linecap: square"/>
   </g>
   <g id="patch_6">
    <path d="M 41.223281 19.66875 
L 169.053123 19.66875 
" style="fill: none; stroke: #262626; stroke-linejoin: miter; stroke-linecap: square"/>
   </g>
   <g id="text_13">
    <!-- pname = rate_il2_prec -->
    <g style="fill: #262626" transform="translate(60.238046 13.66875)scale(0.09 -0.09)">
     <defs>
      <path id="ArialMT-3d" d="M 3381 2694 
L 356 2694 
L 356 3219 
L 3381 3219 
L 3381 2694 
z
M 3381 1303 
L 356 1303 
L 356 1828 
L 3381 1828 
L 3381 1303 
z
" transform="scale(0.015625)"/>
      <path id="ArialMT-5f" d="M -97 -1272 
L -97 -866 
L 3631 -866 
L 3631 -1272 
L -97 -1272 
z
" transform="scale(0.015625)"/>
      <path id="ArialMT-32" d="M 3222 541 
L 3222 0 
L 194 0 
Q 188 203 259 391 
Q 375 700 629 1000 
Q 884 1300 1366 1694 
Q 2113 2306 2375 2664 
Q 2638 3022 2638 3341 
Q 2638 3675 2398 3904 
Q 2159 4134 1775 4134 
Q 1369 4134 1125 3890 
Q 881 3647 878 3216 
L 300 3275 
Q 359 3922 746 4261 
Q 1134 4600 1788 4600 
Q 2447 4600 2831 4234 
Q 3216 3869 3216 3328 
Q 3216 3053 3103 2787 
Q 2991 2522 2730 2228 
Q 2469 1934 1863 1422 
Q 1356 997 1212 845 
Q 1069 694 975 541 
L 3222 541 
z
" transform="scale(0.015625)"/>
     </defs>
     <use xlink:href="#ArialMT-70"/>
     <use xlink:href="#ArialMT-6e" x="55.615234"/>
     <use xlink:href="#ArialMT-61" x="111.230469"/>
     <use xlink:href="#ArialMT-6d" x="166.845703"/>
     <use xlink:href="#ArialMT-65" x="250.146484"/>
     <use xlink:href="#ArialMT-20" x="305.761719"/>
     <use xlink:href="#ArialMT-3d" x="333.544922"/>
     <use xlink:href="#ArialMT-20" x="391.943359"/>
     <use xlink:href="#ArialMT-72" x="419.726562"/>
     <use xlink:href="#ArialMT-61" x="453.027344"/>
     <use xlink:href="#ArialMT-74" x="508.642578"/>
     <use xlink:href="#ArialMT-65" x="536.425781"/>
     <use xlink:href="#ArialMT-5f" x="592.041016"/>
     <use xlink:href="#ArialMT-69" x="647.65625"/>
     <use xlink:href="#ArialMT-6c" x="669.873047"/>
     <use xlink:href="#ArialMT-32" x="692.089844"/>
     <use xlink:href="#ArialMT-5f" x="747.705078"/>
     <use xlink:href="#ArialMT-70" x="803.320312"/>
     <use xlink:href="#ArialMT-72" x="858.935547"/>
     <use xlink:href="#ArialMT-65" x="892.236328"/>
     <use xlink:href="#ArialMT-63" x="947.851562"/>
    </g>
   </g>
  </g>
  <g id="axes_2">
   <g id="patch_7">
    <path d="M 183.993492 110.6675 
L 311.823334 110.6675 
L 311.823334 19.66875 
L 183.993492 19.66875 
z
" style="fill: #ffffff"/>
   </g>
   <g id="matplotlib.axis_3">
    <g id="xtick_6">
     <g id="line2d_19">
      <g>
       <use xlink:href="#md664ada959" x="188.000697" y="110.6675" style="fill: #262626; stroke: #262626; stroke-width: 0.8"/>
      </g>
     </g>
     <g id="text_14">
      <!-- 0.90 -->
      <g style="fill: #262626" transform="translate(180.216322 122.39375)scale(0.08 -0.08)">
       <use xlink:href="#ArialMT-30"/>
       <use xlink:href="#ArialMT-2e" x="55.615234"/>
       <use xlink:href="#ArialMT-39" x="83.398438"/>
       <use xlink:href="#ArialMT-30" x="139.013672"/>
      </g>
     </g>
    </g>
    <g id="xtick_7">
     <g id="line2d_20">
      <g>
       <use xlink:href="#md664ada959" x="216.952754" y="110.6675" style="fill: #262626; stroke: #262626; stroke-width: 0.8"/>
      </g>
     </g>
     <g id="text_15">
      <!-- 0.95 -->
      <g style="fill: #262626" transform="translate(209.168379 122.39375)scale(0.08 -0.08)">
       <use xlink:href="#ArialMT-30"/>
       <use xlink:href="#ArialMT-2e" x="55.615234"/>
       <use xlink:href="#ArialMT-39" x="83.398438"/>
       <use xlink:href="#ArialMT-35" x="139.013672"/>
      </g>
     </g>
    </g>
    <g id="xtick_8">
     <g id="line2d_21">
      <g>
       <use xlink:href="#md664ada959" x="245.90481" y="110.6675" style="fill: #262626; stroke: #262626; stroke-width: 0.8"/>
      </g>
     </g>
     <g id="text_16">
      <!-- 1.00 -->
      <g style="fill: #262626" transform="translate(238.120435 122.39375)scale(0.08 -0.08)">
       <use xlink:href="#ArialMT-31"/>
       <use xlink:href="#ArialMT-2e" x="55.615234"/>
       <use xlink:href="#ArialMT-30" x="83.398438"/>
       <use xlink:href="#ArialMT-30" x="139.013672"/>
      </g>
     </g>
    </g>
    <g id="xtick_9">
     <g id="line2d_22">
      <g>
       <use xlink:href="#md664ada959" x="274.856867" y="110.6675" style="fill: #262626; stroke: #262626; stroke-width: 0.8"/>
      </g>
     </g>
     <g id="text_17">
      <!-- 1.05 -->
      <g style="fill: #262626" transform="translate(267.072492 122.39375)scale(0.08 -0.08)">
       <use xlink:href="#ArialMT-31"/>
       <use xlink:href="#ArialMT-2e" x="55.615234"/>
       <use xlink:href="#ArialMT-30" x="83.398438"/>
       <use xlink:href="#ArialMT-35" x="139.013672"/>
      </g>
     </g>
    </g>
    <g id="xtick_10">
     <g id="line2d_23">
      <g>
       <use xlink:href="#md664ada959" x="303.808924" y="110.6675" style="fill: #262626; stroke: #262626; stroke-width: 0.8"/>
      </g>
     </g>
     <g id="text_18">
      <!-- 1.10 -->
      <g style="fill: #262626" transform="translate(296.024549 122.39375)scale(0.08 -0.08)">
       <use xlink:href="#ArialMT-31"/>
       <use xlink:href="#ArialMT-2e" x="55.615234"/>
       <use xlink:href="#ArialMT-31" x="83.398438"/>
       <use xlink:href="#ArialMT-30" x="139.013672"/>
      </g>
     </g>
    </g>
    <g id="text_19">
     <!-- param value norm. -->
     <g style="fill: #262626" transform="translate(210.395288 134.425781)scale(0.09 -0.09)">
      <use xlink:href="#ArialMT-70"/>
      <use xlink:href="#ArialMT-61" x="55.615234"/>
      <use xlink:href="#ArialMT-72" x="111.230469"/>
      <use xlink:href="#ArialMT-61" x="144.53125"/>
      <use xlink:href="#ArialMT-6d" x="200.146484"/>
      <use xlink:href="#ArialMT-20" x="283.447266"/>
      <use xlink:href="#ArialMT-76" x="311.230469"/>
      <use xlink:href="#ArialMT-61" x="361.230469"/>
      <use xlink:href="#ArialMT-6c" x="416.845703"/>
      <use xlink:href="#ArialMT-75" x="439.0625"/>
      <use xlink:href="#ArialMT-65" x="494.677734"/>
      <use xlink:href="#ArialMT-20" x="550.292969"/>
      <use xlink:href="#ArialMT-6e" x="578.076172"/>
      <use xlink:href="#ArialMT-6f" x="633.691406"/>
      <use xlink:href="#ArialMT-72" x="689.306641"/>
      <use xlink:href="#ArialMT-6d" x="722.607422"/>
      <use xlink:href="#ArialMT-2e" x="805.908203"/>
     </g>
    </g>
   </g>
   <g id="matplotlib.axis_4">
    <g id="ytick_6">
     <g id="line2d_24">
      <g>
       <use xlink:href="#m3265600dc8" x="183.993492" y="110.6675" style="fill: #262626; stroke: #262626; stroke-width: 0.8"/>
      </g>
     </g>
    </g>
    <g id="ytick_7">
     <g id="line2d_25">
      <g>
       <use xlink:href="#m3265600dc8" x="183.993492" y="87.917812" style="fill: #262626; stroke: #262626; stroke-width: 0.8"/>
      </g>
     </g>
    </g>
    <g id="ytick_8">
     <g id="line2d_26">
      <g>
       <use xlink:href="#m3265600dc8" x="183.993492" y="65.168125" style="fill: #262626; stroke: #262626; stroke-width: 0.8"/>
      </g>
     </g>
    </g>
    <g id="ytick_9">
     <g id="line2d_27">
      <g>
       <use xlink:href="#m3265600dc8" x="183.993492" y="42.418437" style="fill: #262626; stroke: #262626; stroke-width: 0.8"/>
      </g>
     </g>
    </g>
    <g id="ytick_10">
     <g id="line2d_28">
      <g>
       <use xlink:href="#m3265600dc8" x="183.993492" y="19.66875" style="fill: #262626; stroke: #262626; stroke-width: 0.8"/>
      </g>
     </g>
    </g>
   </g>
   <g id="line2d_29">
    <path d="M 189.803939 58.51308 
L 193.811144 59.011717 
L 197.818349 59.506559 
L 201.825554 59.997665 
L 205.83276 60.48509 
L 209.839965 60.9689 
L 213.84717 61.449122 
L 217.854375 61.925801 
L 221.86158 62.399032 
L 225.868785 62.86885 
L 229.87599 63.335186 
L 233.883195 63.798388 
L 237.8904 64.258213 
L 241.897605 64.714718 
L 245.90481 65.168125 
L 249.912015 65.618568 
L 253.91922 66.065698 
L 257.926426 66.509797 
L 261.933631 66.950736 
L 265.940836 67.388899 
L 269.948041 67.824068 
L 273.955246 68.256341 
L 277.962451 68.685753 
L 281.969656 69.112322 
L 285.976861 69.536135 
L 289.984066 69.957213 
L 293.991271 70.375558 
L 297.998476 70.791224 
L 302.005681 71.204319 
L 306.012886 71.61473 
" clip-path="url(#pb2f2f14205)" style="fill: none; stroke: #4c72b0; stroke-linecap: round"/>
   </g>
   <g id="line2d_30">
    <path d="M 189.803939 58.504723 
L 193.811144 59.003964 
L 197.818349 59.499409 
L 201.825554 59.991115 
L 205.83276 60.479137 
L 209.839965 60.963508 
L 213.84717 61.444325 
L 217.854375 61.921604 
L 221.86158 62.395435 
L 225.868785 62.865849 
L 229.87599 63.3328 
L 233.883195 63.796584 
L 237.8904 64.257006 
L 241.897605 64.71412 
L 245.90481 65.168125 
L 249.912015 65.619146 
L 253.91922 66.066887 
L 257.926426 66.511591 
L 261.933631 66.953136 
L 265.940836 67.391921 
L 269.948041 67.827693 
L 273.955246 68.260567 
L 277.962451 68.69058 
L 281.969656 69.117695 
L 285.976861 69.5421 
L 289.984066 69.963829 
L 293.991271 70.38277 
L 297.998476 70.799028 
L 302.005681 71.212631 
L 306.012886 71.623596 
" clip-path="url(#pb2f2f14205)" style="fill: none; stroke: #dd8452; stroke-linecap: round"/>
   </g>
   <g id="line2d_31">
    <path d="M 189.803939 64.374394 
L 193.811144 64.433505 
L 197.818349 64.492203 
L 201.825554 64.550506 
L 205.83276 64.608427 
L 209.839965 64.665938 
L 213.84717 64.723118 
L 217.854375 64.779948 
L 221.86158 64.836426 
L 225.868785 64.892642 
L 229.87599 64.948339 
L 233.883195 65.003908 
L 237.8904 65.059034 
L 241.897605 65.113683 
L 245.90481 65.168125 
L 249.912015 65.222374 
L 253.91922 65.276157 
L 257.926426 65.329601 
L 261.933631 65.38255 
L 265.940836 65.4355 
L 269.948041 65.48795 
L 273.955246 65.540088 
L 277.962451 65.591919 
L 281.969656 65.643283 
L 285.976861 65.694541 
L 289.984066 65.74567 
L 293.991271 65.796362 
L 297.998476 65.846781 
L 302.005681 65.896808 
L 306.012886 65.94668 
" clip-path="url(#pb2f2f14205)" style="fill: none; stroke: #55a868; stroke-linecap: round"/>
   </g>
   <g id="line2d_32">
    <path d="M 189.803939 64.662018 
L 193.811144 64.662018 
L 197.818349 64.762928 
L 201.825554 64.762928 
L 205.83276 64.762928 
L 209.839965 64.863993 
L 213.84717 64.863993 
L 217.854375 64.863993 
L 221.86158 64.965214 
L 225.868785 64.965214 
L 229.87599 65.066591 
L 233.883195 65.066591 
L 237.8904 65.066591 
L 241.897605 65.168125 
L 245.90481 65.168125 
L 249.912015 65.168125 
L 253.91922 65.269816 
L 257.926426 65.269816 
L 261.933631 65.269816 
L 265.940836 65.371665 
L 269.948041 65.371665 
L 273.955246 65.371665 
L 277.962451 65.473673 
L 281.969656 65.473673 
L 285.976861 65.473673 
L 289.984066 65.575839 
L 293.991271 65.575839 
L 297.998476 65.575839 
L 302.005681 65.575839 
L 306.012886 65.678164 
" clip-path="url(#pb2f2f14205)" style="fill: none; stroke: #c44e52; stroke-linecap: round"/>
   </g>
   <g id="patch_8">
    <path d="M 183.993492 110.6675 
L 183.993492 19.66875 
" style="fill: none; stroke: #262626; stroke-linejoin: miter; stroke-linecap: square"/>
   </g>
   <g id="patch_9">
    <path d="M 311.823334 110.6675 
L 311.823334 19.66875 
" style="fill: none; stroke: #262626; stroke-linejoin: miter; stroke-linecap: square"/>
   </g>
   <g id="patch_10">
    <path d="M 183.993492 110.6675 
L 311.823334 110.6675 
" style="fill: none; stroke: #262626; stroke-linejoin: miter; stroke-linecap: square"/>
   </g>
   <g id="patch_11">
    <path d="M 183.993492 19.66875 
L 311.823334 19.66875 
" style="fill: none; stroke: #262626; stroke-linejoin: miter; stroke-linecap: square"/>
   </g>
   <g id="text_20">
    <!-- pname = up_il2 -->
    <g style="fill: #262626" transform="translate(217.012397 13.66875)scale(0.09 -0.09)">
     <use xlink:href="#ArialMT-70"/>
     <use xlink:href="#ArialMT-6e" x="55.615234"/>
     <use xlink:href="#ArialMT-61" x="111.230469"/>
     <use xlink:href="#ArialMT-6d" x="166.845703"/>
     <use xlink:href="#ArialMT-65" x="250.146484"/>
     <use xlink:href="#ArialMT-20" x="305.761719"/>
     <use xlink:href="#ArialMT-3d" x="333.544922"/>
     <use xlink:href="#ArialMT-20" x="391.943359"/>
     <use xlink:href="#ArialMT-75" x="419.726562"/>
     <use xlink:href="#ArialMT-70" x="475.341797"/>
     <use xlink:href="#ArialMT-5f" x="530.957031"/>
     <use xlink:href="#ArialMT-69" x="586.572266"/>
     <use xlink:href="#ArialMT-6c" x="608.789062"/>
     <use xlink:href="#ArialMT-32" x="631.005859"/>
    </g>
   </g>
  </g>
  <g id="axes_3">
   <g id="patch_12">
    <path d="M 326.763703 110.6675 
L 454.593544 110.6675 
L 454.593544 19.66875 
L 326.763703 19.66875 
z
" style="fill: #ffffff"/>
   </g>
   <g id="matplotlib.axis_5">
    <g id="xtick_11">
     <g id="line2d_33">
      <g>
       <use xlink:href="#md664ada959" x="330.770908" y="110.6675" style="fill: #262626; stroke: #262626; stroke-width: 0.8"/>
      </g>
     </g>
     <g id="text_21">
      <!-- 0.90 -->
      <g style="fill: #262626" transform="translate(322.986533 122.39375)scale(0.08 -0.08)">
       <use xlink:href="#ArialMT-30"/>
       <use xlink:href="#ArialMT-2e" x="55.615234"/>
       <use xlink:href="#ArialMT-39" x="83.398438"/>
       <use xlink:href="#ArialMT-30" x="139.013672"/>
      </g>
     </g>
    </g>
    <g id="xtick_12">
     <g id="line2d_34">
      <g>
       <use xlink:href="#md664ada959" x="359.722964" y="110.6675" style="fill: #262626; stroke: #262626; stroke-width: 0.8"/>
      </g>
     </g>
     <g id="text_22">
      <!-- 0.95 -->
      <g style="fill: #262626" transform="translate(351.938589 122.39375)scale(0.08 -0.08)">
       <use xlink:href="#ArialMT-30"/>
       <use xlink:href="#ArialMT-2e" x="55.615234"/>
       <use xlink:href="#ArialMT-39" x="83.398438"/>
       <use xlink:href="#ArialMT-35" x="139.013672"/>
      </g>
     </g>
    </g>
    <g id="xtick_13">
     <g id="line2d_35">
      <g>
       <use xlink:href="#md664ada959" x="388.675021" y="110.6675" style="fill: #262626; stroke: #262626; stroke-width: 0.8"/>
      </g>
     </g>
     <g id="text_23">
      <!-- 1.00 -->
      <g style="fill: #262626" transform="translate(380.890646 122.39375)scale(0.08 -0.08)">
       <use xlink:href="#ArialMT-31"/>
       <use xlink:href="#ArialMT-2e" x="55.615234"/>
       <use xlink:href="#ArialMT-30" x="83.398438"/>
       <use xlink:href="#ArialMT-30" x="139.013672"/>
      </g>
     </g>
    </g>
    <g id="xtick_14">
     <g id="line2d_36">
      <g>
       <use xlink:href="#md664ada959" x="417.627078" y="110.6675" style="fill: #262626; stroke: #262626; stroke-width: 0.8"/>
      </g>
     </g>
     <g id="text_24">
      <!-- 1.05 -->
      <g style="fill: #262626" transform="translate(409.842703 122.39375)scale(0.08 -0.08)">
       <use xlink:href="#ArialMT-31"/>
       <use xlink:href="#ArialMT-2e" x="55.615234"/>
       <use xlink:href="#ArialMT-30" x="83.398438"/>
       <use xlink:href="#ArialMT-35" x="139.013672"/>
      </g>
     </g>
    </g>
    <g id="xtick_15">
     <g id="line2d_37">
      <g>
       <use xlink:href="#md664ada959" x="446.579134" y="110.6675" style="fill: #262626; stroke: #262626; stroke-width: 0.8"/>
      </g>
     </g>
     <g id="text_25">
      <!-- 1.10 -->
      <g style="fill: #262626" transform="translate(438.794759 122.39375)scale(0.08 -0.08)">
       <use xlink:href="#ArialMT-31"/>
       <use xlink:href="#ArialMT-2e" x="55.615234"/>
       <use xlink:href="#ArialMT-31" x="83.398438"/>
       <use xlink:href="#ArialMT-30" x="139.013672"/>
      </g>
     </g>
    </g>
    <g id="text_26">
     <!-- param value norm. -->
     <g style="fill: #262626" transform="translate(353.165499 134.425781)scale(0.09 -0.09)">
      <use xlink:href="#ArialMT-70"/>
      <use xlink:href="#ArialMT-61" x="55.615234"/>
      <use xlink:href="#ArialMT-72" x="111.230469"/>
      <use xlink:href="#ArialMT-61" x="144.53125"/>
      <use xlink:href="#ArialMT-6d" x="200.146484"/>
      <use xlink:href="#ArialMT-20" x="283.447266"/>
      <use xlink:href="#ArialMT-76" x="311.230469"/>
      <use xlink:href="#ArialMT-61" x="361.230469"/>
      <use xlink:href="#ArialMT-6c" x="416.845703"/>
      <use xlink:href="#ArialMT-75" x="439.0625"/>
      <use xlink:href="#ArialMT-65" x="494.677734"/>
      <use xlink:href="#ArialMT-20" x="550.292969"/>
      <use xlink:href="#ArialMT-6e" x="578.076172"/>
      <use xlink:href="#ArialMT-6f" x="633.691406"/>
      <use xlink:href="#ArialMT-72" x="689.306641"/>
      <use xlink:href="#ArialMT-6d" x="722.607422"/>
      <use xlink:href="#ArialMT-2e" x="805.908203"/>
     </g>
    </g>
   </g>
   <g id="matplotlib.axis_6">
    <g id="ytick_11">
     <g id="line2d_38">
      <g>
       <use xlink:href="#m3265600dc8" x="326.763703" y="110.6675" style="fill: #262626; stroke: #262626; stroke-width: 0.8"/>
      </g>
     </g>
    </g>
    <g id="ytick_12">
     <g id="line2d_39">
      <g>
       <use xlink:href="#m3265600dc8" x="326.763703" y="87.917812" style="fill: #262626; stroke: #262626; stroke-width: 0.8"/>
      </g>
     </g>
    </g>
    <g id="ytick_13">
     <g id="line2d_40">
      <g>
       <use xlink:href="#m3265600dc8" x="326.763703" y="65.168125" style="fill: #262626; stroke: #262626; stroke-width: 0.8"/>
      </g>
     </g>
    </g>
    <g id="ytick_14">
     <g id="line2d_41">
      <g>
       <use xlink:href="#m3265600dc8" x="326.763703" y="42.418437" style="fill: #262626; stroke: #262626; stroke-width: 0.8"/>
      </g>
     </g>
    </g>
    <g id="ytick_15">
     <g id="line2d_42">
      <g>
       <use xlink:href="#m3265600dc8" x="326.763703" y="19.66875" style="fill: #262626; stroke: #262626; stroke-width: 0.8"/>
      </g>
     </g>
    </g>
   </g>
   <g id="line2d_43">
    <path d="M 332.57415 65.20011 
L 336.581355 65.197824 
L 340.58856 65.195539 
L 344.595765 65.193254 
L 348.60297 65.190969 
L 352.610175 65.188684 
L 356.61738 65.1864 
L 360.624585 65.184115 
L 364.631791 65.18183 
L 368.638996 65.179546 
L 372.646201 65.177262 
L 376.653406 65.174977 
L 380.660611 65.172693 
L 384.667816 65.170409 
L 388.675021 65.168125 
L 392.682226 65.165841 
L 396.689431 65.163557 
L 400.696636 65.161274 
L 404.703841 65.15899 
L 408.711046 65.156706 
L 412.718251 65.154423 
L 416.725456 65.15214 
L 420.732662 65.149856 
L 424.739867 65.147573 
L 428.747072 65.14529 
L 432.754277 65.143007 
L 436.761482 65.140724 
L 440.768687 65.138442 
L 444.775892 65.136159 
L 448.783097 65.133876 
" clip-path="url(#p41c257d7c7)" style="fill: none; stroke: #4c72b0; stroke-linecap: round"/>
   </g>
   <g id="line2d_44">
    <path d="M 332.57415 65.196337 
L 336.581355 65.194322 
L 340.58856 65.192306 
L 344.595765 65.190291 
L 348.60297 65.188275 
L 352.610175 65.18626 
L 356.61738 65.184245 
L 360.624585 65.182229 
L 364.631791 65.180214 
L 368.638996 65.178199 
L 372.646201 65.176184 
L 376.653406 65.174169 
L 380.660611 65.172154 
L 384.667816 65.17014 
L 388.675021 65.168125 
L 392.682226 65.16611 
L 396.689431 65.164096 
L 400.696636 65.162081 
L 404.703841 65.160067 
L 408.711046 65.158053 
L 412.718251 65.156039 
L 416.725456 65.154024 
L 420.732662 65.15201 
L 424.739867 65.149996 
L 428.747072 65.147982 
L 432.754277 65.145969 
L 436.761482 65.143955 
L 440.768687 65.141941 
L 444.775892 65.139928 
L 448.783097 65.137914 
" clip-path="url(#p41c257d7c7)" style="fill: none; stroke: #dd8452; stroke-linecap: round"/>
   </g>
   <g id="line2d_45">
    <path d="M 332.57415 65.16726 
L 336.581355 65.167322 
L 340.58856 65.167384 
L 344.595765 65.167446 
L 348.60297 65.167507 
L 352.610175 65.167569 
L 356.61738 65.167631 
L 360.624585 65.167693 
L 364.631791 65.167755 
L 368.638996 65.167816 
L 372.646201 65.167878 
L 376.653406 65.16794 
L 380.660611 65.168002 
L 384.667816 65.168063 
L 388.675021 65.168125 
L 392.682226 65.168187 
L 396.689431 65.168248 
L 400.696636 65.16831 
L 404.703841 65.168372 
L 408.711046 65.168433 
L 412.718251 65.168495 
L 416.725456 65.168556 
L 420.732662 65.168618 
L 424.739867 65.168679 
L 428.747072 65.168741 
L 432.754277 65.168802 
L 436.761482 65.168864 
L 440.768687 65.168925 
L 444.775892 65.168987 
L 448.783097 65.169048 
" clip-path="url(#p41c257d7c7)" style="fill: none; stroke: #55a868; stroke-linecap: round"/>
   </g>
   <g id="line2d_46">
    <path d="M 332.57415 65.168125 
L 336.581355 65.168125 
L 340.58856 65.168125 
L 344.595765 65.168125 
L 348.60297 65.168125 
L 352.610175 65.168125 
L 356.61738 65.168125 
L 360.624585 65.168125 
L 364.631791 65.168125 
L 368.638996 65.168125 
L 372.646201 65.168125 
L 376.653406 65.168125 
L 380.660611 65.168125 
L 384.667816 65.168125 
L 388.675021 65.168125 
L 392.682226 65.168125 
L 396.689431 65.168125 
L 400.696636 65.168125 
L 404.703841 65.168125 
L 408.711046 65.168125 
L 412.718251 65.168125 
L 416.725456 65.168125 
L 420.732662 65.168125 
L 424.739867 65.168125 
L 428.747072 65.168125 
L 432.754277 65.168125 
L 436.761482 65.168125 
L 440.768687 65.168125 
L 444.775892 65.168125 
L 448.783097 65.168125 
" clip-path="url(#p41c257d7c7)" style="fill: none; stroke: #c44e52; stroke-linecap: round"/>
   </g>
   <g id="patch_13">
    <path d="M 326.763703 110.6675 
L 326.763703 19.66875 
" style="fill: none; stroke: #262626; stroke-linejoin: miter; stroke-linecap: square"/>
   </g>
   <g id="patch_14">
    <path d="M 454.593544 110.6675 
L 454.593544 19.66875 
" style="fill: none; stroke: #262626; stroke-linejoin: miter; stroke-linecap: square"/>
   </g>
   <g id="patch_15">
    <path d="M 326.763703 110.6675 
L 454.593544 110.6675 
" style="fill: none; stroke: #262626; stroke-linejoin: miter; stroke-linecap: square"/>
   </g>
   <g id="patch_16">
    <path d="M 326.763703 19.66875 
L 454.593544 19.66875 
" style="fill: none; stroke: #262626; stroke-linejoin: miter; stroke-linecap: square"/>
   </g>
   <g id="text_27">
    <!-- pname = rate_il2_naive -->
    <g style="fill: #262626" transform="translate(343.774561 13.66875)scale(0.09 -0.09)">
     <use xlink:href="#ArialMT-70"/>
     <use xlink:href="#ArialMT-6e" x="55.615234"/>
     <use xlink:href="#ArialMT-61" x="111.230469"/>
     <use xlink:href="#ArialMT-6d" x="166.845703"/>
     <use xlink:href="#ArialMT-65" x="250.146484"/>
     <use xlink:href="#ArialMT-20" x="305.761719"/>
     <use xlink:href="#ArialMT-3d" x="333.544922"/>
     <use xlink:href="#ArialMT-20" x="391.943359"/>
     <use xlink:href="#ArialMT-72" x="419.726562"/>
     <use xlink:href="#ArialMT-61" x="453.027344"/>
     <use xlink:href="#ArialMT-74" x="508.642578"/>
     <use xlink:href="#ArialMT-65" x="536.425781"/>
     <use xlink:href="#ArialMT-5f" x="592.041016"/>
     <use xlink:href="#ArialMT-69" x="647.65625"/>
     <use xlink:href="#ArialMT-6c" x="669.873047"/>
     <use xlink:href="#ArialMT-32" x="692.089844"/>
     <use xlink:href="#ArialMT-5f" x="747.705078"/>
     <use xlink:href="#ArialMT-6e" x="803.320312"/>
     <use xlink:href="#ArialMT-61" x="858.935547"/>
     <use xlink:href="#ArialMT-69" x="914.550781"/>
     <use xlink:href="#ArialMT-76" x="936.767578"/>
     <use xlink:href="#ArialMT-65" x="986.767578"/>
    </g>
   </g>
  </g>
  <g id="axes_4">
   <g id="patch_17">
    <path d="M 469.533913 110.6675 
L 597.363755 110.6675 
L 597.363755 19.66875 
L 469.533913 19.66875 
z
" style="fill: #ffffff"/>
   </g>
   <g id="matplotlib.axis_7">
    <g id="xtick_16">
     <g id="line2d_47">
      <g>
       <use xlink:href="#md664ada959" x="473.541118" y="110.6675" style="fill: #262626; stroke: #262626; stroke-width: 0.8"/>
      </g>
     </g>
     <g id="text_28">
      <!-- 0.90 -->
      <g style="fill: #262626" transform="translate(465.756743 122.39375)scale(0.08 -0.08)">
       <use xlink:href="#ArialMT-30"/>
       <use xlink:href="#ArialMT-2e" x="55.615234"/>
       <use xlink:href="#ArialMT-39" x="83.398438"/>
       <use xlink:href="#ArialMT-30" x="139.013672"/>
      </g>
     </g>
    </g>
    <g id="xtick_17">
     <g id="line2d_48">
      <g>
       <use xlink:href="#md664ada959" x="502.493175" y="110.6675" style="fill: #262626; stroke: #262626; stroke-width: 0.8"/>
      </g>
     </g>
     <g id="text_29">
      <!-- 0.95 -->
      <g style="fill: #262626" transform="translate(494.7088 122.39375)scale(0.08 -0.08)">
       <use xlink:href="#ArialMT-30"/>
       <use xlink:href="#ArialMT-2e" x="55.615234"/>
       <use xlink:href="#ArialMT-39" x="83.398438"/>
       <use xlink:href="#ArialMT-35" x="139.013672"/>
      </g>
     </g>
    </g>
    <g id="xtick_18">
     <g id="line2d_49">
      <g>
       <use xlink:href="#md664ada959" x="531.445232" y="110.6675" style="fill: #262626; stroke: #262626; stroke-width: 0.8"/>
      </g>
     </g>
     <g id="text_30">
      <!-- 1.00 -->
      <g style="fill: #262626" transform="translate(523.660857 122.39375)scale(0.08 -0.08)">
       <use xlink:href="#ArialMT-31"/>
       <use xlink:href="#ArialMT-2e" x="55.615234"/>
       <use xlink:href="#ArialMT-30" x="83.398438"/>
       <use xlink:href="#ArialMT-30" x="139.013672"/>
      </g>
     </g>
    </g>
    <g id="xtick_19">
     <g id="line2d_50">
      <g>
       <use xlink:href="#md664ada959" x="560.397288" y="110.6675" style="fill: #262626; stroke: #262626; stroke-width: 0.8"/>
      </g>
     </g>
     <g id="text_31">
      <!-- 1.05 -->
      <g style="fill: #262626" transform="translate(552.612913 122.39375)scale(0.08 -0.08)">
       <use xlink:href="#ArialMT-31"/>
       <use xlink:href="#ArialMT-2e" x="55.615234"/>
       <use xlink:href="#ArialMT-30" x="83.398438"/>
       <use xlink:href="#ArialMT-35" x="139.013672"/>
      </g>
     </g>
    </g>
    <g id="xtick_20">
     <g id="line2d_51">
      <g>
       <use xlink:href="#md664ada959" x="589.349345" y="110.6675" style="fill: #262626; stroke: #262626; stroke-width: 0.8"/>
      </g>
     </g>
     <g id="text_32">
      <!-- 1.10 -->
      <g style="fill: #262626" transform="translate(581.56497 122.39375)scale(0.08 -0.08)">
       <use xlink:href="#ArialMT-31"/>
       <use xlink:href="#ArialMT-2e" x="55.615234"/>
       <use xlink:href="#ArialMT-31" x="83.398438"/>
       <use xlink:href="#ArialMT-30" x="139.013672"/>
      </g>
     </g>
    </g>
    <g id="text_33">
     <!-- param value norm. -->
     <g style="fill: #262626" transform="translate(495.935709 134.425781)scale(0.09 -0.09)">
      <use xlink:href="#ArialMT-70"/>
      <use xlink:href="#ArialMT-61" x="55.615234"/>
      <use xlink:href="#ArialMT-72" x="111.230469"/>
      <use xlink:href="#ArialMT-61" x="144.53125"/>
      <use xlink:href="#ArialMT-6d" x="200.146484"/>
      <use xlink:href="#ArialMT-20" x="283.447266"/>
      <use xlink:href="#ArialMT-76" x="311.230469"/>
      <use xlink:href="#ArialMT-61" x="361.230469"/>
      <use xlink:href="#ArialMT-6c" x="416.845703"/>
      <use xlink:href="#ArialMT-75" x="439.0625"/>
      <use xlink:href="#ArialMT-65" x="494.677734"/>
      <use xlink:href="#ArialMT-20" x="550.292969"/>
      <use xlink:href="#ArialMT-6e" x="578.076172"/>
      <use xlink:href="#ArialMT-6f" x="633.691406"/>
      <use xlink:href="#ArialMT-72" x="689.306641"/>
      <use xlink:href="#ArialMT-6d" x="722.607422"/>
      <use xlink:href="#ArialMT-2e" x="805.908203"/>
     </g>
    </g>
   </g>
   <g id="matplotlib.axis_8">
    <g id="ytick_16">
     <g id="line2d_52">
      <g>
       <use xlink:href="#m3265600dc8" x="469.533913" y="110.6675" style="fill: #262626; stroke: #262626; stroke-width: 0.8"/>
      </g>
     </g>
    </g>
    <g id="ytick_17">
     <g id="line2d_53">
      <g>
       <use xlink:href="#m3265600dc8" x="469.533913" y="87.917812" style="fill: #262626; stroke: #262626; stroke-width: 0.8"/>
      </g>
     </g>
    </g>
    <g id="ytick_18">
     <g id="line2d_54">
      <g>
       <use xlink:href="#m3265600dc8" x="469.533913" y="65.168125" style="fill: #262626; stroke: #262626; stroke-width: 0.8"/>
      </g>
     </g>
    </g>
    <g id="ytick_19">
     <g id="line2d_55">
      <g>
       <use xlink:href="#m3265600dc8" x="469.533913" y="42.418437" style="fill: #262626; stroke: #262626; stroke-width: 0.8"/>
      </g>
     </g>
    </g>
    <g id="ytick_20">
     <g id="line2d_56">
      <g>
       <use xlink:href="#m3265600dc8" x="469.533913" y="19.66875" style="fill: #262626; stroke: #262626; stroke-width: 0.8"/>
      </g>
     </g>
    </g>
   </g>
   <g id="line2d_57">
    <path d="M 475.344361 7.218076 
L 479.351566 11.766765 
L 483.358771 16.246706 
L 487.365976 20.659415 
L 491.373181 25.006522 
L 495.380386 29.289259 
L 499.387591 33.509437 
L 503.394796 37.668081 
L 507.402001 41.76665 
L 511.409206 45.806524 
L 515.416411 49.789109 
L 519.423616 53.715126 
L 523.430822 57.586272 
L 527.438027 61.403528 
L 531.445232 65.168125 
L 535.452437 68.880742 
L 539.459642 72.542742 
L 543.466847 76.1551 
L 547.474052 79.719658 
L 551.481257 83.234908 
L 555.488462 86.70433 
L 559.495667 90.127043 
L 563.502872 93.505655 
L 567.510077 96.840125 
L 571.517282 100.131446 
L 575.524487 103.380433 
L 579.531693 106.587936 
L 583.538898 109.754692 
L 587.546103 112.881448 
L 591.553308 115.969029 
" clip-path="url(#p61938f14ee)" style="fill: none; stroke: #4c72b0; stroke-linecap: round"/>
   </g>
   <g id="line2d_58">
    <path d="M 475.344361 6.415681 
L 479.351566 11.026136 
L 483.358771 15.567128 
L 487.365976 20.040151 
L 491.373181 24.446857 
L 495.380386 28.788502 
L 499.387591 33.066896 
L 503.394796 37.283084 
L 507.402001 41.438586 
L 511.409206 45.53469 
L 515.416411 49.572887 
L 519.423616 53.553883 
L 523.430822 57.479384 
L 527.438027 61.350367 
L 531.445232 65.168125 
L 535.452437 68.93338 
L 539.459642 72.647504 
L 543.466847 76.311516 
L 547.474052 79.927402 
L 551.481257 83.49333 
L 555.488462 87.012838 
L 559.495667 90.485179 
L 563.502872 93.912957 
L 567.510077 97.29618 
L 571.517282 100.635774 
L 575.524487 103.932606 
L 579.531693 107.187535 
L 583.538898 110.401275 
L 587.546103 113.574653 
L 591.553308 116.708383 
" clip-path="url(#p61938f14ee)" style="fill: none; stroke: #dd8452; stroke-linecap: round"/>
   </g>
   <g id="line2d_59">
    <path d="M 475.344361 58.47912 
L 479.351566 58.980131 
L 483.358771 59.477453 
L 487.365976 59.971016 
L 491.373181 60.460846 
L 495.380386 60.947134 
L 499.387591 61.429728 
L 503.394796 61.908941 
L 507.402001 62.384564 
L 511.409206 62.856819 
L 515.416411 63.325545 
L 519.423616 63.791057 
L 523.430822 64.253195 
L 527.438027 64.71229 
L 531.445232 65.168125 
L 535.452437 65.620834 
L 539.459642 66.070737 
L 543.466847 66.517171 
L 547.474052 66.96086 
L 551.481257 67.401226 
L 555.488462 67.839003 
L 559.495667 68.273598 
L 563.502872 68.705475 
L 567.510077 69.134597 
L 571.517282 69.560671 
L 575.524487 69.984372 
L 579.531693 70.404985 
L 583.538898 70.823133 
L 587.546103 71.238708 
L 591.553308 71.651328 
" clip-path="url(#p61938f14ee)" style="fill: none; stroke: #55a868; stroke-linecap: round"/>
   </g>
   <g id="line2d_60">
    <path d="M 475.344361 60.998996 
L 479.351566 61.274995 
L 483.358771 61.644808 
L 487.365976 61.923542 
L 491.373181 62.203465 
L 495.380386 62.578561 
L 499.387591 62.861297 
L 503.394796 63.145256 
L 507.402001 63.430449 
L 511.409206 63.716886 
L 515.416411 64.004578 
L 519.423616 64.293537 
L 523.430822 64.583773 
L 527.438027 64.875299 
L 531.445232 65.168125 
L 535.452437 65.462263 
L 539.459642 65.757725 
L 543.466847 65.955441 
L 547.474052 66.253137 
L 551.481257 66.552189 
L 555.488462 66.752316 
L 559.495667 67.053656 
L 563.502872 67.25532 
L 567.510077 67.558983 
L 571.517282 67.864058 
L 575.524487 68.068231 
L 579.531693 68.273042 
L 583.538898 68.581461 
L 587.546103 68.787881 
L 591.553308 69.098734 
" clip-path="url(#p61938f14ee)" style="fill: none; stroke: #c44e52; stroke-linecap: round"/>
   </g>
   <g id="patch_18">
    <path d="M 469.533913 110.6675 
L 469.533913 19.66875 
" style="fill: none; stroke: #262626; stroke-linejoin: miter; stroke-linecap: square"/>
   </g>
   <g id="patch_19">
    <path d="M 597.363755 110.6675 
L 597.363755 19.66875 
" style="fill: none; stroke: #262626; stroke-linejoin: miter; stroke-linecap: square"/>
   </g>
   <g id="patch_20">
    <path d="M 469.533913 110.6675 
L 597.363755 110.6675 
" style="fill: none; stroke: #262626; stroke-linejoin: miter; stroke-linecap: square"/>
   </g>
   <g id="patch_21">
    <path d="M 469.533913 19.66875 
L 597.363755 19.66875 
" style="fill: none; stroke: #262626; stroke-linejoin: miter; stroke-linecap: square"/>
   </g>
   <g id="text_34">
    <!-- pname = deg_myc -->
    <g style="fill: #262626" transform="translate(496.304147 13.66875)scale(0.09 -0.09)">
     <defs>
      <path id="ArialMT-64" d="M 2575 0 
L 2575 419 
Q 2259 -75 1647 -75 
Q 1250 -75 917 144 
Q 584 363 401 755 
Q 219 1147 219 1656 
Q 219 2153 384 2558 
Q 550 2963 881 3178 
Q 1213 3394 1622 3394 
Q 1922 3394 2156 3267 
Q 2391 3141 2538 2938 
L 2538 4581 
L 3097 4581 
L 3097 0 
L 2575 0 
z
M 797 1656 
Q 797 1019 1065 703 
Q 1334 388 1700 388 
Q 2069 388 2326 689 
Q 2584 991 2584 1609 
Q 2584 2291 2321 2609 
Q 2059 2928 1675 2928 
Q 1300 2928 1048 2622 
Q 797 2316 797 1656 
z
" transform="scale(0.015625)"/>
      <path id="ArialMT-67" d="M 319 -275 
L 866 -356 
Q 900 -609 1056 -725 
Q 1266 -881 1628 -881 
Q 2019 -881 2231 -725 
Q 2444 -569 2519 -288 
Q 2563 -116 2559 434 
Q 2191 0 1641 0 
Q 956 0 581 494 
Q 206 988 206 1678 
Q 206 2153 378 2554 
Q 550 2956 876 3175 
Q 1203 3394 1644 3394 
Q 2231 3394 2613 2919 
L 2613 3319 
L 3131 3319 
L 3131 450 
Q 3131 -325 2973 -648 
Q 2816 -972 2473 -1159 
Q 2131 -1347 1631 -1347 
Q 1038 -1347 672 -1080 
Q 306 -813 319 -275 
z
M 784 1719 
Q 784 1066 1043 766 
Q 1303 466 1694 466 
Q 2081 466 2343 764 
Q 2606 1063 2606 1700 
Q 2606 2309 2336 2618 
Q 2066 2928 1684 2928 
Q 1309 2928 1046 2623 
Q 784 2319 784 1719 
z
" transform="scale(0.015625)"/>
      <path id="ArialMT-79" d="M 397 -1278 
L 334 -750 
Q 519 -800 656 -800 
Q 844 -800 956 -737 
Q 1069 -675 1141 -563 
Q 1194 -478 1313 -144 
Q 1328 -97 1363 -6 
L 103 3319 
L 709 3319 
L 1400 1397 
Q 1534 1031 1641 628 
Q 1738 1016 1872 1384 
L 2581 3319 
L 3144 3319 
L 1881 -56 
Q 1678 -603 1566 -809 
Q 1416 -1088 1222 -1217 
Q 1028 -1347 759 -1347 
Q 597 -1347 397 -1278 
z
" transform="scale(0.015625)"/>
     </defs>
     <use xlink:href="#ArialMT-70"/>
     <use xlink:href="#ArialMT-6e" x="55.615234"/>
     <use xlink:href="#ArialMT-61" x="111.230469"/>
     <use xlink:href="#ArialMT-6d" x="166.845703"/>
     <use xlink:href="#ArialMT-65" x="250.146484"/>
     <use xlink:href="#ArialMT-20" x="305.761719"/>
     <use xlink:href="#ArialMT-3d" x="333.544922"/>
     <use xlink:href="#ArialMT-20" x="391.943359"/>
     <use xlink:href="#ArialMT-64" x="419.726562"/>
     <use xlink:href="#ArialMT-65" x="475.341797"/>
     <use xlink:href="#ArialMT-67" x="530.957031"/>
     <use xlink:href="#ArialMT-5f" x="586.572266"/>
     <use xlink:href="#ArialMT-6d" x="642.1875"/>
     <use xlink:href="#ArialMT-79" x="725.488281"/>
     <use xlink:href="#ArialMT-63" x="775.488281"/>
    </g>
   </g>
  </g>
  <g id="axes_5">
   <g id="patch_22">
    <path d="M 612.304124 110.6675 
L 740.133966 110.6675 
L 740.133966 19.66875 
L 612.304124 19.66875 
z
" style="fill: #ffffff"/>
   </g>
   <g id="matplotlib.axis_9">
    <g id="xtick_21">
     <g id="line2d_61">
      <g>
       <use xlink:href="#md664ada959" x="616.311329" y="110.6675" style="fill: #262626; stroke: #262626; stroke-width: 0.8"/>
      </g>
     </g>
     <g id="text_35">
      <!-- 0.90 -->
      <g style="fill: #262626" transform="translate(608.526954 122.39375)scale(0.08 -0.08)">
       <use xlink:href="#ArialMT-30"/>
       <use xlink:href="#ArialMT-2e" x="55.615234"/>
       <use xlink:href="#ArialMT-39" x="83.398438"/>
       <use xlink:href="#ArialMT-30" x="139.013672"/>
      </g>
     </g>
    </g>
    <g id="xtick_22">
     <g id="line2d_62">
      <g>
       <use xlink:href="#md664ada959" x="645.263386" y="110.6675" style="fill: #262626; stroke: #262626; stroke-width: 0.8"/>
      </g>
     </g>
     <g id="text_36">
      <!-- 0.95 -->
      <g style="fill: #262626" transform="translate(637.479011 122.39375)scale(0.08 -0.08)">
       <use xlink:href="#ArialMT-30"/>
       <use xlink:href="#ArialMT-2e" x="55.615234"/>
       <use xlink:href="#ArialMT-39" x="83.398438"/>
       <use xlink:href="#ArialMT-35" x="139.013672"/>
      </g>
     </g>
    </g>
    <g id="xtick_23">
     <g id="line2d_63">
      <g>
       <use xlink:href="#md664ada959" x="674.215442" y="110.6675" style="fill: #262626; stroke: #262626; stroke-width: 0.8"/>
      </g>
     </g>
     <g id="text_37">
      <!-- 1.00 -->
      <g style="fill: #262626" transform="translate(666.431067 122.39375)scale(0.08 -0.08)">
       <use xlink:href="#ArialMT-31"/>
       <use xlink:href="#ArialMT-2e" x="55.615234"/>
       <use xlink:href="#ArialMT-30" x="83.398438"/>
       <use xlink:href="#ArialMT-30" x="139.013672"/>
      </g>
     </g>
    </g>
    <g id="xtick_24">
     <g id="line2d_64">
      <g>
       <use xlink:href="#md664ada959" x="703.167499" y="110.6675" style="fill: #262626; stroke: #262626; stroke-width: 0.8"/>
      </g>
     </g>
     <g id="text_38">
      <!-- 1.05 -->
      <g style="fill: #262626" transform="translate(695.383124 122.39375)scale(0.08 -0.08)">
       <use xlink:href="#ArialMT-31"/>
       <use xlink:href="#ArialMT-2e" x="55.615234"/>
       <use xlink:href="#ArialMT-30" x="83.398438"/>
       <use xlink:href="#ArialMT-35" x="139.013672"/>
      </g>
     </g>
    </g>
    <g id="xtick_25">
     <g id="line2d_65">
      <g>
       <use xlink:href="#md664ada959" x="732.119556" y="110.6675" style="fill: #262626; stroke: #262626; stroke-width: 0.8"/>
      </g>
     </g>
     <g id="text_39">
      <!-- 1.10 -->
      <g style="fill: #262626" transform="translate(724.335181 122.39375)scale(0.08 -0.08)">
       <use xlink:href="#ArialMT-31"/>
       <use xlink:href="#ArialMT-2e" x="55.615234"/>
       <use xlink:href="#ArialMT-31" x="83.398438"/>
       <use xlink:href="#ArialMT-30" x="139.013672"/>
      </g>
     </g>
    </g>
    <g id="text_40">
     <!-- param value norm. -->
     <g style="fill: #262626" transform="translate(638.70592 134.425781)scale(0.09 -0.09)">
      <use xlink:href="#ArialMT-70"/>
      <use xlink:href="#ArialMT-61" x="55.615234"/>
      <use xlink:href="#ArialMT-72" x="111.230469"/>
      <use xlink:href="#ArialMT-61" x="144.53125"/>
      <use xlink:href="#ArialMT-6d" x="200.146484"/>
      <use xlink:href="#ArialMT-20" x="283.447266"/>
      <use xlink:href="#ArialMT-76" x="311.230469"/>
      <use xlink:href="#ArialMT-61" x="361.230469"/>
      <use xlink:href="#ArialMT-6c" x="416.845703"/>
      <use xlink:href="#ArialMT-75" x="439.0625"/>
      <use xlink:href="#ArialMT-65" x="494.677734"/>
      <use xlink:href="#ArialMT-20" x="550.292969"/>
      <use xlink:href="#ArialMT-6e" x="578.076172"/>
      <use xlink:href="#ArialMT-6f" x="633.691406"/>
      <use xlink:href="#ArialMT-72" x="689.306641"/>
      <use xlink:href="#ArialMT-6d" x="722.607422"/>
      <use xlink:href="#ArialMT-2e" x="805.908203"/>
     </g>
    </g>
   </g>
   <g id="matplotlib.axis_10">
    <g id="ytick_21">
     <g id="line2d_66">
      <g>
       <use xlink:href="#m3265600dc8" x="612.304124" y="110.6675" style="fill: #262626; stroke: #262626; stroke-width: 0.8"/>
      </g>
     </g>
    </g>
    <g id="ytick_22">
     <g id="line2d_67">
      <g>
       <use xlink:href="#m3265600dc8" x="612.304124" y="87.917812" style="fill: #262626; stroke: #262626; stroke-width: 0.8"/>
      </g>
     </g>
    </g>
    <g id="ytick_23">
     <g id="line2d_68">
      <g>
       <use xlink:href="#m3265600dc8" x="612.304124" y="65.168125" style="fill: #262626; stroke: #262626; stroke-width: 0.8"/>
      </g>
     </g>
    </g>
    <g id="ytick_24">
     <g id="line2d_69">
      <g>
       <use xlink:href="#m3265600dc8" x="612.304124" y="42.418437" style="fill: #262626; stroke: #262626; stroke-width: 0.8"/>
      </g>
     </g>
    </g>
    <g id="ytick_25">
     <g id="line2d_70">
      <g>
       <use xlink:href="#m3265600dc8" x="612.304124" y="19.66875" style="fill: #262626; stroke: #262626; stroke-width: 0.8"/>
      </g>
     </g>
    </g>
   </g>
   <g id="line2d_71">
    <path d="M 618.114571 70.721925 
L 622.121776 70.721925 
L 626.128981 69.592423 
L 630.136187 69.592423 
L 634.143392 68.428385 
L 638.150597 68.428385 
L 642.157802 67.507831 
L 646.165007 67.507831 
L 650.172212 67.184814 
L 654.179417 66.747534 
L 658.186622 66.747534 
L 662.193827 66.078718 
L 666.201032 66.078718 
L 670.208237 65.168125 
L 674.215442 65.168125 
L 678.222647 64.125811 
L 682.229852 64.125811 
L 686.237058 63.030256 
L 690.244263 63.030256 
L 694.251468 61.911751 
L 698.258673 61.911751 
L 702.265878 60.782248 
L 706.273083 60.782248 
L 710.280288 59.618211 
L 714.287493 59.618211 
L 718.294698 58.697656 
L 722.301903 58.697656 
L 726.309108 58.37464 
L 730.316313 58.37464 
L 734.323518 58.37464 
" clip-path="url(#pab6842d885)" style="fill: none; stroke: #4c72b0; stroke-linecap: round"/>
   </g>
   <g id="line2d_72">
    <path d="M 618.114571 71.336603 
L 622.121776 71.336603 
L 626.128981 70.449067 
L 630.136187 70.449067 
L 634.143392 69.558849 
L 638.150597 69.558849 
L 642.157802 68.672281 
L 646.165007 68.672281 
L 650.172212 67.798864 
L 654.179417 66.924114 
L 658.186622 66.924114 
L 662.193827 66.047193 
L 666.201032 66.047193 
L 670.208237 65.168125 
L 674.215442 65.168125 
L 678.222647 64.286932 
L 682.229852 64.286932 
L 686.237058 63.403639 
L 690.244263 63.403639 
L 694.251468 62.518268 
L 698.258673 62.518268 
L 702.265878 61.630842 
L 706.273083 61.630842 
L 710.280288 60.740733 
L 714.287493 60.740733 
L 718.294698 59.854271 
L 722.301903 59.854271 
L 726.309108 58.980958 
L 730.316313 58.980958 
L 734.323518 58.980958 
" clip-path="url(#pab6842d885)" style="fill: none; stroke: #dd8452; stroke-linecap: round"/>
   </g>
   <g id="line2d_73">
    <path d="M 618.114571 66.05081 
L 622.121776 66.05081 
L 626.128981 66.014436 
L 630.136187 66.014436 
L 634.143392 65.990471 
L 638.150597 65.990471 
L 642.157802 65.951006 
L 646.165007 65.951006 
L 650.172212 65.833974 
L 654.179417 65.657435 
L 658.186622 65.657435 
L 662.193827 65.402728 
L 666.201032 65.402728 
L 670.208237 65.168125 
L 674.215442 65.168125 
L 678.222647 65.026918 
L 682.229852 65.026918 
L 686.237058 64.944771 
L 690.244263 64.944771 
L 694.251468 64.892667 
L 698.258673 64.892667 
L 702.265878 64.856929 
L 706.273083 64.856929 
L 710.280288 64.833383 
L 714.287493 64.833383 
L 718.294698 64.794607 
L 722.301903 64.794607 
L 726.309108 64.679617 
L 730.316313 64.679617 
L 734.323518 64.679617 
" clip-path="url(#pab6842d885)" style="fill: none; stroke: #55a868; stroke-linecap: round"/>
   </g>
   <g id="line2d_74">
    <path d="M 618.114571 65.585562 
L 622.121776 65.585562 
L 626.128981 65.585562 
L 630.136187 65.585562 
L 634.143392 65.480953 
L 638.150597 65.480953 
L 642.157802 65.376512 
L 646.165007 65.376512 
L 650.172212 65.376512 
L 654.179417 65.272236 
L 658.186622 65.272236 
L 662.193827 65.168125 
L 666.201032 65.168125 
L 670.208237 65.168125 
L 674.215442 65.168125 
L 678.222647 65.064179 
L 682.229852 65.064179 
L 686.237058 64.960398 
L 690.244263 64.960398 
L 694.251468 64.960398 
L 698.258673 64.960398 
L 702.265878 64.85678 
L 706.273083 64.85678 
L 710.280288 64.753326 
L 714.287493 64.753326 
L 718.294698 64.753326 
L 722.301903 64.753326 
L 726.309108 64.650035 
L 730.316313 64.650035 
L 734.323518 64.650035 
" clip-path="url(#pab6842d885)" style="fill: none; stroke: #c44e52; stroke-linecap: round"/>
   </g>
   <g id="patch_23">
    <path d="M 612.304124 110.6675 
L 612.304124 19.66875 
" style="fill: none; stroke: #262626; stroke-linejoin: miter; stroke-linecap: square"/>
   </g>
   <g id="patch_24">
    <path d="M 740.133966 110.6675 
L 740.133966 19.66875 
" style="fill: none; stroke: #262626; stroke-linejoin: miter; stroke-linecap: square"/>
   </g>
   <g id="patch_25">
    <path d="M 612.304124 110.6675 
L 740.133966 110.6675 
" style="fill: none; stroke: #262626; stroke-linejoin: miter; stroke-linecap: square"/>
   </g>
   <g id="patch_26">
    <path d="M 612.304124 19.66875 
L 740.133966 19.66875 
" style="fill: none; stroke: #262626; stroke-linejoin: miter; stroke-linecap: square"/>
   </g>
   <g id="text_41">
    <!-- pname = n_crit -->
    <g style="fill: #262626" transform="translate(646.329201 13.66875)scale(0.09 -0.09)">
     <use xlink:href="#ArialMT-70"/>
     <use xlink:href="#ArialMT-6e" x="55.615234"/>
     <use xlink:href="#ArialMT-61" x="111.230469"/>
     <use xlink:href="#ArialMT-6d" x="166.845703"/>
     <use xlink:href="#ArialMT-65" x="250.146484"/>
     <use xlink:href="#ArialMT-20" x="305.761719"/>
     <use xlink:href="#ArialMT-3d" x="333.544922"/>
     <use xlink:href="#ArialMT-20" x="391.943359"/>
     <use xlink:href="#ArialMT-6e" x="419.726562"/>
     <use xlink:href="#ArialMT-5f" x="475.341797"/>
     <use xlink:href="#ArialMT-63" x="530.957031"/>
     <use xlink:href="#ArialMT-72" x="580.957031"/>
     <use xlink:href="#ArialMT-69" x="614.257812"/>
     <use xlink:href="#ArialMT-74" x="636.474609"/>
    </g>
   </g>
  </g>
  <g id="legend_1">
   <g id="text_42">
    <!-- readout -->
    <g style="fill: #262626" transform="translate(761.676491 51.613047)scale(0.1 -0.1)">
     <use xlink:href="#ArialMT-72"/>
     <use xlink:href="#ArialMT-65" x="33.300781"/>
     <use xlink:href="#ArialMT-61" x="88.916016"/>
     <use xlink:href="#ArialMT-64" x="144.53125"/>
     <use xlink:href="#ArialMT-6f" x="200.146484"/>
     <use xlink:href="#ArialMT-75" x="255.761719"/>
     <use xlink:href="#ArialMT-74" x="311.376953"/>
    </g>
   </g>
   <g id="line2d_75">
    <path d="M 750.759616 60.526797 
L 758.759616 60.526797 
L 766.759616 60.526797 
" style="fill: none; stroke: #4c72b0; stroke-linecap: round"/>
   </g>
   <g id="text_43">
    <!-- Peak -->
    <g style="fill: #262626" transform="translate(773.159616 63.326797)scale(0.08 -0.08)">
     <defs>
      <path id="ArialMT-50" d="M 494 0 
L 494 4581 
L 2222 4581 
Q 2678 4581 2919 4538 
Q 3256 4481 3484 4323 
Q 3713 4166 3852 3881 
Q 3991 3597 3991 3256 
Q 3991 2672 3619 2267 
Q 3247 1863 2275 1863 
L 1100 1863 
L 1100 0 
L 494 0 
z
M 1100 2403 
L 2284 2403 
Q 2872 2403 3119 2622 
Q 3366 2841 3366 3238 
Q 3366 3525 3220 3729 
Q 3075 3934 2838 4000 
Q 2684 4041 2272 4041 
L 1100 4041 
L 1100 2403 
z
" transform="scale(0.015625)"/>
      <path id="ArialMT-6b" d="M 425 0 
L 425 4581 
L 988 4581 
L 988 1969 
L 2319 3319 
L 3047 3319 
L 1778 2088 
L 3175 0 
L 2481 0 
L 1384 1697 
L 988 1316 
L 988 0 
L 425 0 
z
" transform="scale(0.015625)"/>
     </defs>
     <use xlink:href="#ArialMT-50"/>
     <use xlink:href="#ArialMT-65" x="66.699219"/>
     <use xlink:href="#ArialMT-61" x="122.314453"/>
     <use xlink:href="#ArialMT-6b" x="177.929688"/>
    </g>
   </g>
   <g id="line2d_76">
    <path d="M 750.759616 71.843047 
L 758.759616 71.843047 
L 766.759616 71.843047 
" style="fill: none; stroke: #dd8452; stroke-linecap: round"/>
   </g>
   <g id="text_44">
    <!-- Area -->
    <g style="fill: #262626" transform="translate(773.159616 74.643047)scale(0.08 -0.08)">
     <defs>
      <path id="ArialMT-41" d="M -9 0 
L 1750 4581 
L 2403 4581 
L 4278 0 
L 3588 0 
L 3053 1388 
L 1138 1388 
L 634 0 
L -9 0 
z
M 1313 1881 
L 2866 1881 
L 2388 3150 
Q 2169 3728 2063 4100 
Q 1975 3659 1816 3225 
L 1313 1881 
z
" transform="scale(0.015625)"/>
     </defs>
     <use xlink:href="#ArialMT-41"/>
     <use xlink:href="#ArialMT-72" x="66.699219"/>
     <use xlink:href="#ArialMT-65" x="100"/>
     <use xlink:href="#ArialMT-61" x="155.615234"/>
    </g>
   </g>
   <g id="line2d_77">
    <path d="M 750.759616 83.159297 
L 758.759616 83.159297 
L 766.759616 83.159297 
" style="fill: none; stroke: #55a868; stroke-linecap: round"/>
   </g>
   <g id="text_45">
    <!-- Peaktime -->
    <g style="fill: #262626" transform="translate(773.159616 85.959297)scale(0.08 -0.08)">
     <use xlink:href="#ArialMT-50"/>
     <use xlink:href="#ArialMT-65" x="66.699219"/>
     <use xlink:href="#ArialMT-61" x="122.314453"/>
     <use xlink:href="#ArialMT-6b" x="177.929688"/>
     <use xlink:href="#ArialMT-74" x="227.929688"/>
     <use xlink:href="#ArialMT-69" x="255.712891"/>
     <use xlink:href="#ArialMT-6d" x="277.929688"/>
     <use xlink:href="#ArialMT-65" x="361.230469"/>
    </g>
   </g>
   <g id="line2d_78">
    <path d="M 750.759616 94.475547 
L 758.759616 94.475547 
L 766.759616 94.475547 
" style="fill: none; stroke: #c44e52; stroke-linecap: round"/>
   </g>
   <g id="text_46">
    <!-- Decay -->
    <g style="fill: #262626" transform="translate(773.159616 97.275547)scale(0.08 -0.08)">
     <defs>
      <path id="ArialMT-44" d="M 494 0 
L 494 4581 
L 2072 4581 
Q 2606 4581 2888 4516 
Q 3281 4425 3559 4188 
Q 3922 3881 4101 3404 
Q 4281 2928 4281 2316 
Q 4281 1794 4159 1391 
Q 4038 988 3847 723 
Q 3656 459 3429 307 
Q 3203 156 2883 78 
Q 2563 0 2147 0 
L 494 0 
z
M 1100 541 
L 2078 541 
Q 2531 541 2789 625 
Q 3047 709 3200 863 
Q 3416 1078 3536 1442 
Q 3656 1806 3656 2325 
Q 3656 3044 3420 3430 
Q 3184 3816 2847 3947 
Q 2603 4041 2063 4041 
L 1100 4041 
L 1100 541 
z
" transform="scale(0.015625)"/>
     </defs>
     <use xlink:href="#ArialMT-44"/>
     <use xlink:href="#ArialMT-65" x="72.216797"/>
     <use xlink:href="#ArialMT-63" x="127.832031"/>
     <use xlink:href="#ArialMT-61" x="177.832031"/>
     <use xlink:href="#ArialMT-79" x="233.447266"/>
    </g>
   </g>
  </g>
 </g>
 <defs>
  <clipPath id="p1f9b2f7205">
   <rect x="41.223281" y="19.66875" width="127.829842" height="90.99875"/>
  </clipPath>
  <clipPath id="pb2f2f14205">
   <rect x="183.993492" y="19.66875" width="127.829842" height="90.99875"/>
  </clipPath>
  <clipPath id="p41c257d7c7">
   <rect x="326.763703" y="19.66875" width="127.829842" height="90.99875"/>
  </clipPath>
  <clipPath id="p61938f14ee">
   <rect x="469.533913" y="19.66875" width="127.829842" height="90.99875"/>
  </clipPath>
  <clipPath id="pab6842d885">
   <rect x="612.304124" y="19.66875" width="127.829842" height="90.99875"/>
  </clipPath>
 </defs>
</svg>
