<?xml version="1.0" encoding="utf-8" standalone="no"?>
<!DOCTYPE svg PUBLIC "-//W3C//DTD SVG 1.1//EN"
  "http://www.w3.org/Graphics/SVG/1.1/DTD/svg11.dtd">
<svg xmlns:xlink="http://www.w3.org/1999/xlink" width="513.621618pt" height="450.251406pt" viewBox="0 0 513.621618 450.251406" xmlns="http://www.w3.org/2000/svg" version="1.1">
 <metadata>
  <rdf:RDF xmlns:dc="http://purl.org/dc/elements/1.1/" xmlns:cc="http://creativecommons.org/ns#" xmlns:rdf="http://www.w3.org/1999/02/22-rdf-syntax-ns#">
   <cc:Work>
    <dc:type rdf:resource="http://purl.org/dc/dcmitype/StillImage"/>
    <dc:date>2022-08-09T16:41:15.815262</dc:date>
    <dc:format>image/svg+xml</dc:format>
    <dc:creator>
     <cc:Agent>
      <dc:title>Matplotlib v3.5.1, https://matplotlib.org/</dc:title>
     </cc:Agent>
    </dc:creator>
   </cc:Work>
  </rdf:RDF>
 </metadata>
 <defs>
  <style type="text/css">*{stroke-linejoin: round; stroke-linecap: butt}</style>
 </defs>
 <g id="figure_1">
  <g id="patch_1">
   <path d="M 0 450.251406 
L 513.621618 450.251406 
L 513.621618 0 
L 0 0 
z
" style="fill: #ffffff"/>
  </g>
  <g id="axes_1">
   <g id="patch_2">
    <path d="M 46.336562 134.998594 
L 169.28984 134.998594 
L 169.28984 20.038594 
L 46.336562 20.038594 
z
" style="fill: #ffffff"/>
   </g>
   <g id="matplotlib.axis_1">
    <g id="xtick_1">
     <g id="line2d_1">
      <defs>
       <path id="ma98f3bd3db" d="M 0 0 
L 0 3.5 
" style="stroke: #000000; stroke-width: 0.8"/>
      </defs>
      <g>
       <use xlink:href="#ma98f3bd3db" x="50.190897" y="134.998594" style="stroke: #000000; stroke-width: 0.8"/>
      </g>
     </g>
    </g>
    <g id="xtick_2">
     <g id="line2d_2">
      <g>
       <use xlink:href="#ma98f3bd3db" x="78.038466" y="134.998594" style="stroke: #000000; stroke-width: 0.8"/>
      </g>
     </g>
    </g>
    <g id="xtick_3">
     <g id="line2d_3">
      <g>
       <use xlink:href="#ma98f3bd3db" x="105.886034" y="134.998594" style="stroke: #000000; stroke-width: 0.8"/>
      </g>
     </g>
    </g>
    <g id="xtick_4">
     <g id="line2d_4">
      <g>
       <use xlink:href="#ma98f3bd3db" x="133.733602" y="134.998594" style="stroke: #000000; stroke-width: 0.8"/>
      </g>
     </g>
    </g>
    <g id="xtick_5">
     <g id="line2d_5">
      <g>
       <use xlink:href="#ma98f3bd3db" x="161.581171" y="134.998594" style="stroke: #000000; stroke-width: 0.8"/>
      </g>
     </g>
    </g>
   </g>
   <g id="matplotlib.axis_2">
    <g id="ytick_1">
     <g id="line2d_6">
      <defs>
       <path id="m33f914707f" d="M 0 0 
L -3.5 0 
" style="stroke: #000000; stroke-width: 0.8"/>
      </defs>
      <g>
       <use xlink:href="#m33f914707f" x="46.336562" y="134.998594" style="stroke: #000000; stroke-width: 0.8"/>
      </g>
     </g>
     <g id="text_1">
      <!-- −1.0 -->
      <g transform="translate(19.910312 138.037969)scale(0.08 -0.08)">
       <defs>
        <path id="DejaVuSans-2212" d="M 678 2272 
L 4684 2272 
L 4684 1741 
L 678 1741 
L 678 2272 
z
" transform="scale(0.015625)"/>
        <path id="DejaVuSans-31" d="M 794 531 
L 1825 531 
L 1825 4091 
L 703 3866 
L 703 4441 
L 1819 4666 
L 2450 4666 
L 2450 531 
L 3481 531 
L 3481 0 
L 794 0 
L 794 531 
z
" transform="scale(0.015625)"/>
        <path id="DejaVuSans-2e" d="M 684 794 
L 1344 794 
L 1344 0 
L 684 0 
L 684 794 
z
" transform="scale(0.015625)"/>
        <path id="DejaVuSans-30" d="M 2034 4250 
Q 1547 4250 1301 3770 
Q 1056 3291 1056 2328 
Q 1056 1369 1301 889 
Q 1547 409 2034 409 
Q 2525 409 2770 889 
Q 3016 1369 3016 2328 
Q 3016 3291 2770 3770 
Q 2525 4250 2034 4250 
z
M 2034 4750 
Q 2819 4750 3233 4129 
Q 3647 3509 3647 2328 
Q 3647 1150 3233 529 
Q 2819 -91 2034 -91 
Q 1250 -91 836 529 
Q 422 1150 422 2328 
Q 422 3509 836 4129 
Q 1250 4750 2034 4750 
z
" transform="scale(0.015625)"/>
       </defs>
       <use xlink:href="#DejaVuSans-2212"/>
       <use xlink:href="#DejaVuSans-31" x="83.789062"/>
       <use xlink:href="#DejaVuSans-2e" x="147.412109"/>
       <use xlink:href="#DejaVuSans-30" x="179.199219"/>
      </g>
     </g>
    </g>
    <g id="ytick_2">
     <g id="line2d_7">
      <g>
       <use xlink:href="#m33f914707f" x="46.336562" y="106.258594" style="stroke: #000000; stroke-width: 0.8"/>
      </g>
     </g>
     <g id="text_2">
      <!-- −0.5 -->
      <g transform="translate(19.910312 109.297969)scale(0.08 -0.08)">
       <defs>
        <path id="DejaVuSans-35" d="M 691 4666 
L 3169 4666 
L 3169 4134 
L 1269 4134 
L 1269 2991 
Q 1406 3038 1543 3061 
Q 1681 3084 1819 3084 
Q 2600 3084 3056 2656 
Q 3513 2228 3513 1497 
Q 3513 744 3044 326 
Q 2575 -91 1722 -91 
Q 1428 -91 1123 -41 
Q 819 9 494 109 
L 494 744 
Q 775 591 1075 516 
Q 1375 441 1709 441 
Q 2250 441 2565 725 
Q 2881 1009 2881 1497 
Q 2881 1984 2565 2268 
Q 2250 2553 1709 2553 
Q 1456 2553 1204 2497 
Q 953 2441 691 2322 
L 691 4666 
z
" transform="scale(0.015625)"/>
       </defs>
       <use xlink:href="#DejaVuSans-2212"/>
       <use xlink:href="#DejaVuSans-30" x="83.789062"/>
       <use xlink:href="#DejaVuSans-2e" x="147.412109"/>
       <use xlink:href="#DejaVuSans-35" x="179.199219"/>
      </g>
     </g>
    </g>
    <g id="ytick_3">
     <g id="line2d_8">
      <g>
       <use xlink:href="#m33f914707f" x="46.336562" y="77.518594" style="stroke: #000000; stroke-width: 0.8"/>
      </g>
     </g>
     <g id="text_3">
      <!-- 0.0 -->
      <g transform="translate(26.614062 80.557969)scale(0.08 -0.08)">
       <use xlink:href="#DejaVuSans-30"/>
       <use xlink:href="#DejaVuSans-2e" x="63.623047"/>
       <use xlink:href="#DejaVuSans-30" x="95.410156"/>
      </g>
     </g>
    </g>
    <g id="ytick_4">
     <g id="line2d_9">
      <g>
       <use xlink:href="#m33f914707f" x="46.336562" y="48.778594" style="stroke: #000000; stroke-width: 0.8"/>
      </g>
     </g>
     <g id="text_4">
      <!-- 0.5 -->
      <g transform="translate(26.614062 51.817969)scale(0.08 -0.08)">
       <use xlink:href="#DejaVuSans-30"/>
       <use xlink:href="#DejaVuSans-2e" x="63.623047"/>
       <use xlink:href="#DejaVuSans-35" x="95.410156"/>
      </g>
     </g>
    </g>
    <g id="ytick_5">
     <g id="line2d_10">
      <g>
       <use xlink:href="#m33f914707f" x="46.336562" y="20.038594" style="stroke: #000000; stroke-width: 0.8"/>
      </g>
     </g>
     <g id="text_5">
      <!-- 1.0 -->
      <g transform="translate(26.614062 23.077969)scale(0.08 -0.08)">
       <use xlink:href="#DejaVuSans-31"/>
       <use xlink:href="#DejaVuSans-2e" x="63.623047"/>
       <use xlink:href="#DejaVuSans-30" x="95.410156"/>
      </g>
     </g>
    </g>
    <g id="text_6">
     <!-- effect size -->
     <g transform="translate(14.038594 100.618359)rotate(-90)scale(0.09 -0.09)">
      <defs>
       <path id="DejaVuSans-65" d="M 3597 1894 
L 3597 1613 
L 953 1613 
Q 991 1019 1311 708 
Q 1631 397 2203 397 
Q 2534 397 2845 478 
Q 3156 559 3463 722 
L 3463 178 
Q 3153 47 2828 -22 
Q 2503 -91 2169 -91 
Q 1331 -91 842 396 
Q 353 884 353 1716 
Q 353 2575 817 3079 
Q 1281 3584 2069 3584 
Q 2775 3584 3186 3129 
Q 3597 2675 3597 1894 
z
M 3022 2063 
Q 3016 2534 2758 2815 
Q 2500 3097 2075 3097 
Q 1594 3097 1305 2825 
Q 1016 2553 972 2059 
L 3022 2063 
z
" transform="scale(0.015625)"/>
       <path id="DejaVuSans-66" d="M 2375 4863 
L 2375 4384 
L 1825 4384 
Q 1516 4384 1395 4259 
Q 1275 4134 1275 3809 
L 1275 3500 
L 2222 3500 
L 2222 3053 
L 1275 3053 
L 1275 0 
L 697 0 
L 697 3053 
L 147 3053 
L 147 3500 
L 697 3500 
L 697 3744 
Q 697 4328 969 4595 
Q 1241 4863 1831 4863 
L 2375 4863 
z
" transform="scale(0.015625)"/>
       <path id="DejaVuSans-63" d="M 3122 3366 
L 3122 2828 
Q 2878 2963 2633 3030 
Q 2388 3097 2138 3097 
Q 1578 3097 1268 2742 
Q 959 2388 959 1747 
Q 959 1106 1268 751 
Q 1578 397 2138 397 
Q 2388 397 2633 464 
Q 2878 531 3122 666 
L 3122 134 
Q 2881 22 2623 -34 
Q 2366 -91 2075 -91 
Q 1284 -91 818 406 
Q 353 903 353 1747 
Q 353 2603 823 3093 
Q 1294 3584 2113 3584 
Q 2378 3584 2631 3529 
Q 2884 3475 3122 3366 
z
" transform="scale(0.015625)"/>
       <path id="DejaVuSans-74" d="M 1172 4494 
L 1172 3500 
L 2356 3500 
L 2356 3053 
L 1172 3053 
L 1172 1153 
Q 1172 725 1289 603 
Q 1406 481 1766 481 
L 2356 481 
L 2356 0 
L 1766 0 
Q 1100 0 847 248 
Q 594 497 594 1153 
L 594 3053 
L 172 3053 
L 172 3500 
L 594 3500 
L 594 4494 
L 1172 4494 
z
" transform="scale(0.015625)"/>
       <path id="DejaVuSans-20" transform="scale(0.015625)"/>
       <path id="DejaVuSans-73" d="M 2834 3397 
L 2834 2853 
Q 2591 2978 2328 3040 
Q 2066 3103 1784 3103 
Q 1356 3103 1142 2972 
Q 928 2841 928 2578 
Q 928 2378 1081 2264 
Q 1234 2150 1697 2047 
L 1894 2003 
Q 2506 1872 2764 1633 
Q 3022 1394 3022 966 
Q 3022 478 2636 193 
Q 2250 -91 1575 -91 
Q 1294 -91 989 -36 
Q 684 19 347 128 
L 347 722 
Q 666 556 975 473 
Q 1284 391 1588 391 
Q 1994 391 2212 530 
Q 2431 669 2431 922 
Q 2431 1156 2273 1281 
Q 2116 1406 1581 1522 
L 1381 1569 
Q 847 1681 609 1914 
Q 372 2147 372 2553 
Q 372 3047 722 3315 
Q 1072 3584 1716 3584 
Q 2034 3584 2315 3537 
Q 2597 3491 2834 3397 
z
" transform="scale(0.015625)"/>
       <path id="DejaVuSans-69" d="M 603 3500 
L 1178 3500 
L 1178 0 
L 603 0 
L 603 3500 
z
M 603 4863 
L 1178 4863 
L 1178 4134 
L 603 4134 
L 603 4863 
z
" transform="scale(0.015625)"/>
       <path id="DejaVuSans-7a" d="M 353 3500 
L 3084 3500 
L 3084 2975 
L 922 459 
L 3084 459 
L 3084 0 
L 275 0 
L 275 525 
L 2438 3041 
L 353 3041 
L 353 3500 
z
" transform="scale(0.015625)"/>
      </defs>
      <use xlink:href="#DejaVuSans-65"/>
      <use xlink:href="#DejaVuSans-66" x="61.523438"/>
      <use xlink:href="#DejaVuSans-66" x="96.728516"/>
      <use xlink:href="#DejaVuSans-65" x="131.933594"/>
      <use xlink:href="#DejaVuSans-63" x="193.457031"/>
      <use xlink:href="#DejaVuSans-74" x="248.4375"/>
      <use xlink:href="#DejaVuSans-20" x="287.646484"/>
      <use xlink:href="#DejaVuSans-73" x="319.433594"/>
      <use xlink:href="#DejaVuSans-69" x="371.533203"/>
      <use xlink:href="#DejaVuSans-7a" x="399.316406"/>
      <use xlink:href="#DejaVuSans-65" x="451.806641"/>
     </g>
    </g>
   </g>
   <g id="line2d_11">
    <path d="M 51.925348 73.289654 
L 55.779683 73.612335 
L 59.634017 73.931659 
L 63.488352 74.247655 
L 67.342687 74.560474 
L 71.197021 74.869828 
L 75.051356 75.17633 
L 78.905691 75.479398 
L 82.760026 75.779588 
L 86.61436 76.07672 
L 90.468695 76.370979 
L 94.32303 76.6621 
L 98.177365 76.950423 
L 102.031699 77.235795 
L 105.886034 77.518594 
L 109.740369 77.798645 
L 113.594703 78.075577 
L 117.449038 78.350242 
L 121.303373 78.622137 
L 125.157708 78.891429 
L 129.012042 79.158142 
L 132.866377 79.422389 
L 136.720712 79.684114 
L 140.575046 79.94338 
L 144.429381 80.199932 
L 148.283716 80.454748 
L 152.138051 80.706878 
L 155.992385 80.956703 
L 159.84672 81.204257 
L 163.701055 81.449523 
" clip-path="url(#p9b68390b28)" style="fill: none; stroke: #4c72b0; stroke-width: 1.5; stroke-linecap: square"/>
   </g>
   <g id="line2d_12">
    <path d="M 51.925348 73.779898 
L 55.779683 74.065879 
L 59.634017 74.348784 
L 63.488352 74.628621 
L 67.342687 74.905536 
L 71.197021 75.179297 
L 75.051356 75.45037 
L 78.905691 75.718348 
L 82.760026 75.983645 
L 86.61436 76.246147 
L 90.468695 76.506003 
L 94.32303 76.76301 
L 98.177365 77.01746 
L 102.031699 77.269205 
L 105.886034 77.518594 
L 109.740369 77.76546 
L 113.594703 78.009485 
L 117.449038 78.251478 
L 121.303373 78.490908 
L 125.157708 78.727964 
L 129.012042 78.962686 
L 132.866377 79.19511 
L 136.720712 79.425277 
L 140.575046 79.653185 
L 144.429381 79.878572 
L 148.283716 80.102469 
L 152.138051 80.323881 
L 155.992385 80.543194 
L 159.84672 80.760442 
L 163.701055 80.97562 
" clip-path="url(#p9b68390b28)" style="fill: none; stroke: #dd8452; stroke-width: 1.5; stroke-linecap: square"/>
   </g>
   <g id="line2d_13">
    <path d="M 51.925348 76.140625 
L 55.779683 76.249817 
L 59.634017 76.357213 
L 63.488352 76.462776 
L 67.342687 76.566651 
L 71.197021 76.668746 
L 75.051356 76.769163 
L 78.905691 76.867969 
L 82.760026 76.965342 
L 86.61436 77.061159 
L 90.468695 77.155479 
L 94.32303 77.248269 
L 98.177365 77.339858 
L 102.031699 77.429764 
L 105.886034 77.518594 
L 109.740369 77.605866 
L 113.594703 77.691541 
L 117.449038 77.776438 
L 121.303373 77.859721 
L 125.157708 77.941724 
L 129.012042 78.022471 
L 132.866377 78.102016 
L 136.720712 78.180387 
L 140.575046 78.257611 
L 144.429381 78.333285 
L 148.283716 78.408715 
L 152.138051 78.482634 
L 155.992385 78.555482 
L 159.84672 78.627286 
L 163.701055 78.698061 
" clip-path="url(#p9b68390b28)" style="fill: none; stroke: #55a868; stroke-width: 1.5; stroke-linecap: square"/>
   </g>
   <g id="line2d_14">
    <path d="M 51.925348 77.134379 
L 55.779683 77.134379 
L 59.634017 77.134379 
L 63.488352 77.262253 
L 67.342687 77.262253 
L 71.197021 77.262253 
L 75.051356 77.262253 
L 78.905691 77.390324 
L 82.760026 77.390324 
L 86.61436 77.390324 
L 90.468695 77.390324 
L 94.32303 77.390324 
L 98.177365 77.518594 
L 102.031699 77.518594 
L 105.886034 77.518594 
L 109.740369 77.518594 
L 113.594703 77.518594 
L 117.449038 77.647062 
L 121.303373 77.647062 
L 125.157708 77.647062 
L 129.012042 77.647062 
L 132.866377 77.647062 
L 136.720712 77.775729 
L 140.575046 77.775729 
L 144.429381 77.775729 
L 148.283716 77.775729 
L 152.138051 77.775729 
L 155.992385 77.775729 
L 159.84672 77.904597 
L 163.701055 77.904597 
" clip-path="url(#p9b68390b28)" style="fill: none; stroke: #c44e52; stroke-width: 1.5; stroke-linecap: square"/>
   </g>
   <g id="line2d_15"/>
   <g id="line2d_16"/>
   <g id="line2d_17"/>
   <g id="line2d_18"/>
   <g id="patch_3">
    <path d="M 46.336562 134.998594 
L 46.336562 20.038594 
" style="fill: none; stroke: #000000; stroke-width: 0.8; stroke-linejoin: miter; stroke-linecap: square"/>
   </g>
   <g id="patch_4">
    <path d="M 169.28984 134.998594 
L 169.28984 20.038594 
" style="fill: none; stroke: #000000; stroke-width: 0.8; stroke-linejoin: miter; stroke-linecap: square"/>
   </g>
   <g id="patch_5">
    <path d="M 46.336563 134.998594 
L 169.28984 134.998594 
" style="fill: none; stroke: #000000; stroke-width: 0.8; stroke-linejoin: miter; stroke-linecap: square"/>
   </g>
   <g id="patch_6">
    <path d="M 46.336563 20.038594 
L 169.28984 20.038594 
" style="fill: none; stroke: #000000; stroke-width: 0.8; stroke-linejoin: miter; stroke-linecap: square"/>
   </g>
   <g id="text_7">
    <!-- IL2 -->
    <g transform="translate(101.115233 14.038594)scale(0.09 -0.09)">
     <defs>
      <path id="DejaVuSans-49" d="M 628 4666 
L 1259 4666 
L 1259 0 
L 628 0 
L 628 4666 
z
" transform="scale(0.015625)"/>
      <path id="DejaVuSans-4c" d="M 628 4666 
L 1259 4666 
L 1259 531 
L 3531 531 
L 3531 0 
L 628 0 
L 628 4666 
z
" transform="scale(0.015625)"/>
      <path id="DejaVuSans-32" d="M 1228 531 
L 3431 531 
L 3431 0 
L 469 0 
L 469 531 
Q 828 903 1448 1529 
Q 2069 2156 2228 2338 
Q 2531 2678 2651 2914 
Q 2772 3150 2772 3378 
Q 2772 3750 2511 3984 
Q 2250 4219 1831 4219 
Q 1534 4219 1204 4116 
Q 875 4013 500 3803 
L 500 4441 
Q 881 4594 1212 4672 
Q 1544 4750 1819 4750 
Q 2544 4750 2975 4387 
Q 3406 4025 3406 3419 
Q 3406 3131 3298 2873 
Q 3191 2616 2906 2266 
Q 2828 2175 2409 1742 
Q 1991 1309 1228 531 
z
" transform="scale(0.015625)"/>
     </defs>
     <use xlink:href="#DejaVuSans-49"/>
     <use xlink:href="#DejaVuSans-4c" x="29.492188"/>
     <use xlink:href="#DejaVuSans-32" x="85.205078"/>
    </g>
   </g>
  </g>
  <g id="axes_2">
   <g id="patch_7">
    <path d="M 181.319601 134.998594 
L 304.272879 134.998594 
L 304.272879 20.038594 
L 181.319601 20.038594 
z
" style="fill: #ffffff"/>
   </g>
   <g id="matplotlib.axis_3">
    <g id="xtick_6">
     <g id="line2d_19">
      <g>
       <use xlink:href="#ma98f3bd3db" x="185.173936" y="134.998594" style="stroke: #000000; stroke-width: 0.8"/>
      </g>
     </g>
    </g>
    <g id="xtick_7">
     <g id="line2d_20">
      <g>
       <use xlink:href="#ma98f3bd3db" x="213.021505" y="134.998594" style="stroke: #000000; stroke-width: 0.8"/>
      </g>
     </g>
    </g>
    <g id="xtick_8">
     <g id="line2d_21">
      <g>
       <use xlink:href="#ma98f3bd3db" x="240.869073" y="134.998594" style="stroke: #000000; stroke-width: 0.8"/>
      </g>
     </g>
    </g>
    <g id="xtick_9">
     <g id="line2d_22">
      <g>
       <use xlink:href="#ma98f3bd3db" x="268.716641" y="134.998594" style="stroke: #000000; stroke-width: 0.8"/>
      </g>
     </g>
    </g>
    <g id="xtick_10">
     <g id="line2d_23">
      <g>
       <use xlink:href="#ma98f3bd3db" x="296.56421" y="134.998594" style="stroke: #000000; stroke-width: 0.8"/>
      </g>
     </g>
    </g>
   </g>
   <g id="matplotlib.axis_4">
    <g id="ytick_6">
     <g id="line2d_24">
      <g>
       <use xlink:href="#m33f914707f" x="181.319601" y="134.998594" style="stroke: #000000; stroke-width: 0.8"/>
      </g>
     </g>
    </g>
    <g id="ytick_7">
     <g id="line2d_25">
      <g>
       <use xlink:href="#m33f914707f" x="181.319601" y="106.258594" style="stroke: #000000; stroke-width: 0.8"/>
      </g>
     </g>
    </g>
    <g id="ytick_8">
     <g id="line2d_26">
      <g>
       <use xlink:href="#m33f914707f" x="181.319601" y="77.518594" style="stroke: #000000; stroke-width: 0.8"/>
      </g>
     </g>
    </g>
    <g id="ytick_9">
     <g id="line2d_27">
      <g>
       <use xlink:href="#m33f914707f" x="181.319601" y="48.778594" style="stroke: #000000; stroke-width: 0.8"/>
      </g>
     </g>
    </g>
    <g id="ytick_10">
     <g id="line2d_28">
      <g>
       <use xlink:href="#m33f914707f" x="181.319601" y="20.038594" style="stroke: #000000; stroke-width: 0.8"/>
      </g>
     </g>
    </g>
   </g>
   <g id="line2d_29">
    <path d="M 186.908387 89.204968 
L 190.762722 88.284714 
L 194.617056 87.378684 
L 198.471391 86.486715 
L 202.325726 85.60853 
L 206.18006 84.743723 
L 210.034395 83.892188 
L 213.88873 83.053333 
L 217.743065 82.226961 
L 221.597399 81.413181 
L 225.451734 80.611068 
L 229.306069 79.820975 
L 233.160403 79.042437 
L 237.014738 78.274817 
L 240.869073 77.518594 
L 244.723408 76.772972 
L 248.577742 76.038139 
L 252.432077 75.313719 
L 256.286412 74.599063 
L 260.140747 73.894683 
L 263.995081 73.199885 
L 267.849416 72.514734 
L 271.703751 71.838902 
L 275.558085 71.172369 
L 279.41242 70.514692 
L 283.266755 69.865929 
L 287.12109 69.225939 
L 290.975424 68.594097 
L 294.829759 67.970831 
L 298.684094 67.355634 
" clip-path="url(#p416cc2930d)" style="fill: none; stroke: #4c72b0; stroke-width: 1.5; stroke-linecap: square"/>
   </g>
   <g id="line2d_30">
    <path d="M 186.908387 89.212471 
L 190.762722 88.291564 
L 194.617056 87.384878 
L 198.471391 86.492294 
L 202.325726 85.613509 
L 206.18006 84.748103 
L 210.034395 83.895991 
L 213.88873 83.056634 
L 217.743065 82.229711 
L 221.597399 81.415461 
L 225.451734 80.612883 
L 229.306069 79.822311 
L 233.160403 79.043303 
L 237.014738 78.275273 
L 240.869073 77.518594 
L 244.723408 76.772561 
L 248.577742 76.037305 
L 252.432077 75.312468 
L 256.286412 74.597471 
L 260.140747 73.892691 
L 263.995081 73.19753 
L 267.849416 72.512017 
L 271.703751 71.83582 
L 275.558085 71.16894 
L 279.41242 70.510945 
L 283.266755 69.861853 
L 287.12109 69.221519 
L 290.975424 68.589383 
L 294.829759 67.965795 
L 298.684094 67.350298 
" clip-path="url(#p416cc2930d)" style="fill: none; stroke: #dd8452; stroke-width: 1.5; stroke-linecap: square"/>
   </g>
   <g id="line2d_31">
    <path d="M 186.908387 77.518919 
L 190.762722 77.518925 
L 194.617056 77.518885 
L 198.471391 77.518857 
L 202.325726 77.518829 
L 206.18006 77.518774 
L 210.034395 77.518718 
L 213.88873 77.51877 
L 217.743065 77.518672 
L 221.597399 77.518659 
L 225.451734 77.518641 
L 229.306069 77.518626 
L 233.160403 77.518626 
L 237.014738 77.518594 
L 240.869073 77.518594 
L 244.723408 77.518577 
L 248.577742 77.518564 
L 252.432077 77.518579 
L 256.286412 77.518551 
L 260.140747 77.518551 
L 263.995081 77.518556 
L 267.849416 77.51856 
L 271.703751 77.518561 
L 275.558085 77.518567 
L 279.41242 77.518561 
L 283.266755 77.518559 
L 287.12109 77.518559 
L 290.975424 77.518571 
L 294.829759 77.518564 
L 298.684094 77.518554 
" clip-path="url(#p416cc2930d)" style="fill: none; stroke: #55a868; stroke-width: 1.5; stroke-linecap: square"/>
   </g>
   <g id="line2d_32">
    <path d="M 186.908387 78.264561 
L 190.762722 78.264561 
L 194.617056 78.139766 
L 198.471391 78.139766 
L 202.325726 78.139766 
L 206.18006 78.015159 
L 210.034395 78.015159 
L 213.88873 77.890738 
L 217.743065 77.890738 
L 221.597399 77.766505 
L 225.451734 77.766505 
L 229.306069 77.766505 
L 233.160403 77.642457 
L 237.014738 77.642457 
L 240.869073 77.518594 
L 244.723408 77.518594 
L 248.577742 77.518594 
L 252.432077 77.394916 
L 256.286412 77.394916 
L 260.140747 77.394916 
L 263.995081 77.271422 
L 267.849416 77.271422 
L 271.703751 77.271422 
L 275.558085 77.148112 
L 279.41242 77.148112 
L 283.266755 77.148112 
L 287.12109 77.024984 
L 290.975424 77.024984 
L 294.829759 77.024984 
L 298.684094 76.90204 
" clip-path="url(#p416cc2930d)" style="fill: none; stroke: #c44e52; stroke-width: 1.5; stroke-linecap: square"/>
   </g>
   <g id="patch_8">
    <path d="M 181.319601 134.998594 
L 181.319601 20.038594 
" style="fill: none; stroke: #000000; stroke-width: 0.8; stroke-linejoin: miter; stroke-linecap: square"/>
   </g>
   <g id="patch_9">
    <path d="M 304.272879 134.998594 
L 304.272879 20.038594 
" style="fill: none; stroke: #000000; stroke-width: 0.8; stroke-linejoin: miter; stroke-linecap: square"/>
   </g>
   <g id="patch_10">
    <path d="M 181.319601 134.998594 
L 304.272879 134.998594 
" style="fill: none; stroke: #000000; stroke-width: 0.8; stroke-linejoin: miter; stroke-linecap: square"/>
   </g>
   <g id="patch_11">
    <path d="M 181.319601 20.038594 
L 304.272879 20.038594 
" style="fill: none; stroke: #000000; stroke-width: 0.8; stroke-linejoin: miter; stroke-linecap: square"/>
   </g>
   <g id="text_8">
    <!-- Timer -->
    <g transform="translate(229.936084 14.038594)scale(0.09 -0.09)">
     <defs>
      <path id="DejaVuSans-54" d="M -19 4666 
L 3928 4666 
L 3928 4134 
L 2272 4134 
L 2272 0 
L 1638 0 
L 1638 4134 
L -19 4134 
L -19 4666 
z
" transform="scale(0.015625)"/>
      <path id="DejaVuSans-6d" d="M 3328 2828 
Q 3544 3216 3844 3400 
Q 4144 3584 4550 3584 
Q 5097 3584 5394 3201 
Q 5691 2819 5691 2113 
L 5691 0 
L 5113 0 
L 5113 2094 
Q 5113 2597 4934 2840 
Q 4756 3084 4391 3084 
Q 3944 3084 3684 2787 
Q 3425 2491 3425 1978 
L 3425 0 
L 2847 0 
L 2847 2094 
Q 2847 2600 2669 2842 
Q 2491 3084 2119 3084 
Q 1678 3084 1418 2786 
Q 1159 2488 1159 1978 
L 1159 0 
L 581 0 
L 581 3500 
L 1159 3500 
L 1159 2956 
Q 1356 3278 1631 3431 
Q 1906 3584 2284 3584 
Q 2666 3584 2933 3390 
Q 3200 3197 3328 2828 
z
" transform="scale(0.015625)"/>
      <path id="DejaVuSans-72" d="M 2631 2963 
Q 2534 3019 2420 3045 
Q 2306 3072 2169 3072 
Q 1681 3072 1420 2755 
Q 1159 2438 1159 1844 
L 1159 0 
L 581 0 
L 581 3500 
L 1159 3500 
L 1159 2956 
Q 1341 3275 1631 3429 
Q 1922 3584 2338 3584 
Q 2397 3584 2469 3576 
Q 2541 3569 2628 3553 
L 2631 2963 
z
" transform="scale(0.015625)"/>
     </defs>
     <use xlink:href="#DejaVuSans-54"/>
     <use xlink:href="#DejaVuSans-69" x="57.958984"/>
     <use xlink:href="#DejaVuSans-6d" x="85.742188"/>
     <use xlink:href="#DejaVuSans-65" x="183.154297"/>
     <use xlink:href="#DejaVuSans-72" x="244.677734"/>
    </g>
   </g>
  </g>
  <g id="axes_3">
   <g id="patch_12">
    <path d="M 316.30264 134.998594 
L 439.255918 134.998594 
L 439.255918 20.038594 
L 316.30264 20.038594 
z
" style="fill: #ffffff"/>
   </g>
   <g id="matplotlib.axis_5">
    <g id="xtick_11">
     <g id="line2d_33">
      <g>
       <use xlink:href="#ma98f3bd3db" x="320.156975" y="134.998594" style="stroke: #000000; stroke-width: 0.8"/>
      </g>
     </g>
    </g>
    <g id="xtick_12">
     <g id="line2d_34">
      <g>
       <use xlink:href="#ma98f3bd3db" x="348.004544" y="134.998594" style="stroke: #000000; stroke-width: 0.8"/>
      </g>
     </g>
    </g>
    <g id="xtick_13">
     <g id="line2d_35">
      <g>
       <use xlink:href="#ma98f3bd3db" x="375.852112" y="134.998594" style="stroke: #000000; stroke-width: 0.8"/>
      </g>
     </g>
    </g>
    <g id="xtick_14">
     <g id="line2d_36">
      <g>
       <use xlink:href="#ma98f3bd3db" x="403.69968" y="134.998594" style="stroke: #000000; stroke-width: 0.8"/>
      </g>
     </g>
    </g>
    <g id="xtick_15">
     <g id="line2d_37">
      <g>
       <use xlink:href="#ma98f3bd3db" x="431.547249" y="134.998594" style="stroke: #000000; stroke-width: 0.8"/>
      </g>
     </g>
    </g>
   </g>
   <g id="matplotlib.axis_6">
    <g id="ytick_11">
     <g id="line2d_38">
      <g>
       <use xlink:href="#m33f914707f" x="316.30264" y="134.998594" style="stroke: #000000; stroke-width: 0.8"/>
      </g>
     </g>
    </g>
    <g id="ytick_12">
     <g id="line2d_39">
      <g>
       <use xlink:href="#m33f914707f" x="316.30264" y="106.258594" style="stroke: #000000; stroke-width: 0.8"/>
      </g>
     </g>
    </g>
    <g id="ytick_13">
     <g id="line2d_40">
      <g>
       <use xlink:href="#m33f914707f" x="316.30264" y="77.518594" style="stroke: #000000; stroke-width: 0.8"/>
      </g>
     </g>
    </g>
    <g id="ytick_14">
     <g id="line2d_41">
      <g>
       <use xlink:href="#m33f914707f" x="316.30264" y="48.778594" style="stroke: #000000; stroke-width: 0.8"/>
      </g>
     </g>
    </g>
    <g id="ytick_15">
     <g id="line2d_42">
      <g>
       <use xlink:href="#m33f914707f" x="316.30264" y="20.038594" style="stroke: #000000; stroke-width: 0.8"/>
      </g>
     </g>
    </g>
   </g>
   <g id="line2d_43">
    <path d="M 321.891426 78.023509 
L 325.745761 78.529728 
L 329.600095 77.72397 
L 333.45443 78.03635 
L 337.308765 77.995544 
L 341.163099 77.176832 
L 345.017434 76.834492 
L 348.871769 76.642442 
L 352.726104 75.905838 
L 356.580438 76.69002 
L 360.434773 77.41992 
L 364.289108 76.729995 
L 368.143442 77.466133 
L 371.997777 78.182954 
L 375.852112 77.518594 
L 379.706447 78.17683 
L 383.560781 78.649192 
L 387.415116 77.987422 
L 391.269451 78.10399 
L 395.123785 77.437847 
L 398.97812 77.254763 
L 402.832455 76.592702 
L 406.68679 76.558235 
L 410.541124 75.963966 
L 414.395459 76.882945 
L 418.249794 76.317565 
L 422.104129 77.189275 
L 425.958463 78.055583 
L 429.812798 77.511113 
L 433.667133 78.36262 
" clip-path="url(#pe71b2eef4c)" style="fill: none; stroke: #4c72b0; stroke-width: 1.5; stroke-linecap: square"/>
   </g>
   <g id="line2d_44">
    <path d="M 321.891426 78.037394 
L 325.745761 78.319848 
L 329.600095 77.501892 
L 333.45443 77.806764 
L 337.308765 78.120907 
L 341.163099 77.339787 
L 345.017434 77.674622 
L 348.871769 78.025125 
L 352.726104 77.280106 
L 356.580438 77.672642 
L 360.434773 78.071781 
L 364.289108 77.359473 
L 368.143442 77.776466 
L 371.997777 78.20071 
L 375.852112 77.518594 
L 379.706447 77.959394 
L 383.560781 78.406718 
L 387.415116 77.75299 
L 391.269451 78.215625 
L 395.123785 77.579928 
L 398.97812 78.057107 
L 402.832455 77.438719 
L 406.68679 77.936965 
L 410.541124 77.336546 
L 414.395459 77.870473 
L 418.249794 77.286268 
L 422.104129 77.831785 
L 425.958463 78.381976 
L 429.812798 77.820531 
L 433.667133 78.382546 
" clip-path="url(#pe71b2eef4c)" style="fill: none; stroke: #dd8452; stroke-width: 1.5; stroke-linecap: square"/>
   </g>
   <g id="line2d_45">
    <path d="M 321.891426 76.073252 
L 325.745761 76.260065 
L 329.600095 76.279051 
L 333.45443 76.606262 
L 337.308765 76.928365 
L 341.163099 76.946586 
L 345.017434 77.150286 
L 348.871769 77.265035 
L 352.726104 77.26817 
L 356.580438 77.294599 
L 360.434773 77.337737 
L 364.289108 77.341147 
L 368.143442 77.406049 
L 371.997777 77.509967 
L 375.852112 77.518594 
L 379.706447 77.709198 
L 383.560781 78.03166 
L 387.415116 78.053939 
L 391.269451 78.378885 
L 395.123785 78.394291 
L 398.97812 78.602273 
L 402.832455 78.611918 
L 406.68679 78.726551 
L 410.541124 78.729201 
L 414.395459 78.755714 
L 418.249794 78.757719 
L 422.104129 78.801387 
L 425.958463 78.865128 
L 429.812798 78.869328 
L 433.667133 78.972929 
" clip-path="url(#pe71b2eef4c)" style="fill: none; stroke: #55a868; stroke-width: 1.5; stroke-linecap: square"/>
   </g>
   <g id="line2d_46">
    <path d="M 321.891426 77.387485 
L 325.745761 77.518594 
L 329.600095 77.387485 
L 333.45443 77.518594 
L 337.308765 77.518594 
L 341.163099 77.387485 
L 345.017434 77.518594 
L 348.871769 77.518594 
L 352.726104 77.518594 
L 356.580438 77.518594 
L 360.434773 77.518594 
L 364.289108 77.518594 
L 368.143442 77.518594 
L 371.997777 77.518594 
L 375.852112 77.518594 
L 379.706447 77.518594 
L 383.560781 77.64991 
L 387.415116 77.518594 
L 391.269451 77.64991 
L 395.123785 77.64991 
L 398.97812 77.64991 
L 402.832455 77.64991 
L 406.68679 77.64991 
L 410.541124 77.64991 
L 414.395459 77.64991 
L 418.249794 77.64991 
L 422.104129 77.64991 
L 425.958463 77.64991 
L 429.812798 77.64991 
L 433.667133 77.781434 
" clip-path="url(#pe71b2eef4c)" style="fill: none; stroke: #c44e52; stroke-width: 1.5; stroke-linecap: square"/>
   </g>
   <g id="patch_13">
    <path d="M 316.30264 134.998594 
L 316.30264 20.038594 
" style="fill: none; stroke: #000000; stroke-width: 0.8; stroke-linejoin: miter; stroke-linecap: square"/>
   </g>
   <g id="patch_14">
    <path d="M 439.255918 134.998594 
L 439.255918 20.038594 
" style="fill: none; stroke: #000000; stroke-width: 0.8; stroke-linejoin: miter; stroke-linecap: square"/>
   </g>
   <g id="patch_15">
    <path d="M 316.30264 134.998594 
L 439.255918 134.998594 
" style="fill: none; stroke: #000000; stroke-width: 0.8; stroke-linejoin: miter; stroke-linecap: square"/>
   </g>
   <g id="patch_16">
    <path d="M 316.30264 20.038594 
L 439.255918 20.038594 
" style="fill: none; stroke: #000000; stroke-width: 0.8; stroke-linejoin: miter; stroke-linecap: square"/>
   </g>
   <g id="text_9">
    <!-- Carry -->
    <g transform="translate(365.594826 14.038594)scale(0.09 -0.09)">
     <defs>
      <path id="DejaVuSans-43" d="M 4122 4306 
L 4122 3641 
Q 3803 3938 3442 4084 
Q 3081 4231 2675 4231 
Q 1875 4231 1450 3742 
Q 1025 3253 1025 2328 
Q 1025 1406 1450 917 
Q 1875 428 2675 428 
Q 3081 428 3442 575 
Q 3803 722 4122 1019 
L 4122 359 
Q 3791 134 3420 21 
Q 3050 -91 2638 -91 
Q 1578 -91 968 557 
Q 359 1206 359 2328 
Q 359 3453 968 4101 
Q 1578 4750 2638 4750 
Q 3056 4750 3426 4639 
Q 3797 4528 4122 4306 
z
" transform="scale(0.015625)"/>
      <path id="DejaVuSans-61" d="M 2194 1759 
Q 1497 1759 1228 1600 
Q 959 1441 959 1056 
Q 959 750 1161 570 
Q 1363 391 1709 391 
Q 2188 391 2477 730 
Q 2766 1069 2766 1631 
L 2766 1759 
L 2194 1759 
z
M 3341 1997 
L 3341 0 
L 2766 0 
L 2766 531 
Q 2569 213 2275 61 
Q 1981 -91 1556 -91 
Q 1019 -91 701 211 
Q 384 513 384 1019 
Q 384 1609 779 1909 
Q 1175 2209 1959 2209 
L 2766 2209 
L 2766 2266 
Q 2766 2663 2505 2880 
Q 2244 3097 1772 3097 
Q 1472 3097 1187 3025 
Q 903 2953 641 2809 
L 641 3341 
Q 956 3463 1253 3523 
Q 1550 3584 1831 3584 
Q 2591 3584 2966 3190 
Q 3341 2797 3341 1997 
z
" transform="scale(0.015625)"/>
      <path id="DejaVuSans-79" d="M 2059 -325 
Q 1816 -950 1584 -1140 
Q 1353 -1331 966 -1331 
L 506 -1331 
L 506 -850 
L 844 -850 
Q 1081 -850 1212 -737 
Q 1344 -625 1503 -206 
L 1606 56 
L 191 3500 
L 800 3500 
L 1894 763 
L 2988 3500 
L 3597 3500 
L 2059 -325 
z
" transform="scale(0.015625)"/>
     </defs>
     <use xlink:href="#DejaVuSans-43"/>
     <use xlink:href="#DejaVuSans-61" x="69.824219"/>
     <use xlink:href="#DejaVuSans-72" x="131.103516"/>
     <use xlink:href="#DejaVuSans-72" x="170.466797"/>
     <use xlink:href="#DejaVuSans-79" x="211.580078"/>
    </g>
   </g>
  </g>
  <g id="axes_4">
   <g id="patch_17">
    <path d="M 46.336562 275.298594 
L 169.28984 275.298594 
L 169.28984 160.338594 
L 46.336562 160.338594 
z
" style="fill: #ffffff"/>
   </g>
   <g id="matplotlib.axis_7">
    <g id="xtick_16">
     <g id="line2d_47">
      <g>
       <use xlink:href="#ma98f3bd3db" x="50.190897" y="275.298594" style="stroke: #000000; stroke-width: 0.8"/>
      </g>
     </g>
    </g>
    <g id="xtick_17">
     <g id="line2d_48">
      <g>
       <use xlink:href="#ma98f3bd3db" x="78.038466" y="275.298594" style="stroke: #000000; stroke-width: 0.8"/>
      </g>
     </g>
    </g>
    <g id="xtick_18">
     <g id="line2d_49">
      <g>
       <use xlink:href="#ma98f3bd3db" x="105.886034" y="275.298594" style="stroke: #000000; stroke-width: 0.8"/>
      </g>
     </g>
    </g>
    <g id="xtick_19">
     <g id="line2d_50">
      <g>
       <use xlink:href="#ma98f3bd3db" x="133.733602" y="275.298594" style="stroke: #000000; stroke-width: 0.8"/>
      </g>
     </g>
    </g>
    <g id="xtick_20">
     <g id="line2d_51">
      <g>
       <use xlink:href="#ma98f3bd3db" x="161.581171" y="275.298594" style="stroke: #000000; stroke-width: 0.8"/>
      </g>
     </g>
    </g>
   </g>
   <g id="matplotlib.axis_8">
    <g id="ytick_16">
     <g id="line2d_52">
      <g>
       <use xlink:href="#m33f914707f" x="46.336562" y="275.298594" style="stroke: #000000; stroke-width: 0.8"/>
      </g>
     </g>
     <g id="text_10">
      <!-- −1.0 -->
      <g transform="translate(19.910312 278.337969)scale(0.08 -0.08)">
       <use xlink:href="#DejaVuSans-2212"/>
       <use xlink:href="#DejaVuSans-31" x="83.789062"/>
       <use xlink:href="#DejaVuSans-2e" x="147.412109"/>
       <use xlink:href="#DejaVuSans-30" x="179.199219"/>
      </g>
     </g>
    </g>
    <g id="ytick_17">
     <g id="line2d_53">
      <g>
       <use xlink:href="#m33f914707f" x="46.336562" y="246.558594" style="stroke: #000000; stroke-width: 0.8"/>
      </g>
     </g>
     <g id="text_11">
      <!-- −0.5 -->
      <g transform="translate(19.910312 249.597969)scale(0.08 -0.08)">
       <use xlink:href="#DejaVuSans-2212"/>
       <use xlink:href="#DejaVuSans-30" x="83.789062"/>
       <use xlink:href="#DejaVuSans-2e" x="147.412109"/>
       <use xlink:href="#DejaVuSans-35" x="179.199219"/>
      </g>
     </g>
    </g>
    <g id="ytick_18">
     <g id="line2d_54">
      <g>
       <use xlink:href="#m33f914707f" x="46.336562" y="217.818594" style="stroke: #000000; stroke-width: 0.8"/>
      </g>
     </g>
     <g id="text_12">
      <!-- 0.0 -->
      <g transform="translate(26.614062 220.857969)scale(0.08 -0.08)">
       <use xlink:href="#DejaVuSans-30"/>
       <use xlink:href="#DejaVuSans-2e" x="63.623047"/>
       <use xlink:href="#DejaVuSans-30" x="95.410156"/>
      </g>
     </g>
    </g>
    <g id="ytick_19">
     <g id="line2d_55">
      <g>
       <use xlink:href="#m33f914707f" x="46.336562" y="189.078594" style="stroke: #000000; stroke-width: 0.8"/>
      </g>
     </g>
     <g id="text_13">
      <!-- 0.5 -->
      <g transform="translate(26.614062 192.117969)scale(0.08 -0.08)">
       <use xlink:href="#DejaVuSans-30"/>
       <use xlink:href="#DejaVuSans-2e" x="63.623047"/>
       <use xlink:href="#DejaVuSans-35" x="95.410156"/>
      </g>
     </g>
    </g>
    <g id="ytick_20">
     <g id="line2d_56">
      <g>
       <use xlink:href="#m33f914707f" x="46.336562" y="160.338594" style="stroke: #000000; stroke-width: 0.8"/>
      </g>
     </g>
     <g id="text_14">
      <!-- 1.0 -->
      <g transform="translate(26.614062 163.377969)scale(0.08 -0.08)">
       <use xlink:href="#DejaVuSans-31"/>
       <use xlink:href="#DejaVuSans-2e" x="63.623047"/>
       <use xlink:href="#DejaVuSans-30" x="95.410156"/>
      </g>
     </g>
    </g>
    <g id="text_15">
     <!-- effect size -->
     <g transform="translate(14.038594 240.918359)rotate(-90)scale(0.09 -0.09)">
      <use xlink:href="#DejaVuSans-65"/>
      <use xlink:href="#DejaVuSans-66" x="61.523438"/>
      <use xlink:href="#DejaVuSans-66" x="96.728516"/>
      <use xlink:href="#DejaVuSans-65" x="131.933594"/>
      <use xlink:href="#DejaVuSans-63" x="193.457031"/>
      <use xlink:href="#DejaVuSans-74" x="248.4375"/>
      <use xlink:href="#DejaVuSans-20" x="287.646484"/>
      <use xlink:href="#DejaVuSans-73" x="319.433594"/>
      <use xlink:href="#DejaVuSans-69" x="371.533203"/>
      <use xlink:href="#DejaVuSans-7a" x="399.316406"/>
      <use xlink:href="#DejaVuSans-65" x="451.806641"/>
     </g>
    </g>
   </g>
   <g id="line2d_57">
    <path d="M 51.925348 209.778741 
L 55.779683 210.376377 
L 59.634017 210.970363 
L 63.488352 211.560388 
L 67.342687 212.146983 
L 71.197021 212.729791 
L 75.051356 213.309036 
L 78.905691 213.88461 
L 82.760026 214.456801 
L 86.61436 215.025512 
L 90.468695 215.590805 
L 94.32303 216.152709 
L 98.177365 216.711154 
L 102.031699 217.266401 
L 105.886034 217.818594 
L 109.740369 218.367318 
L 113.594703 218.912802 
L 117.449038 219.455153 
L 121.303373 219.994259 
L 125.157708 220.530367 
L 129.012042 221.063401 
L 132.866377 221.593296 
L 136.720712 222.120261 
L 140.575046 222.644294 
L 144.429381 223.165457 
L 148.283716 223.683535 
L 152.138051 224.19887 
L 155.992385 224.711208 
L 159.84672 225.220846 
L 163.701055 225.727619 
" clip-path="url(#p2823f8b176)" style="fill: none; stroke: #4c72b0; stroke-width: 1.5; stroke-linecap: square"/>
   </g>
   <g id="line2d_58">
    <path d="M 51.925348 210.690746 
L 55.779683 211.223037 
L 59.634017 211.751674 
L 63.488352 212.276431 
L 67.342687 212.797738 
L 71.197021 213.315319 
L 75.051356 213.829371 
L 78.905691 214.339786 
L 82.760026 214.846842 
L 86.61436 215.350482 
L 90.468695 215.850712 
L 94.32303 216.34759 
L 98.177365 216.84105 
L 102.031699 217.33134 
L 105.886034 217.818594 
L 109.740369 218.302442 
L 113.594703 218.783101 
L 117.449038 219.260658 
L 121.303373 219.735036 
L 125.157708 220.206434 
L 129.012042 220.6748 
L 132.866377 221.140081 
L 136.720712 221.602442 
L 140.575046 222.061968 
L 144.429381 222.518636 
L 148.283716 222.972259 
L 152.138051 223.423213 
L 155.992385 223.871145 
L 159.84672 224.316549 
L 163.701055 224.759076 
" clip-path="url(#p2823f8b176)" style="fill: none; stroke: #dd8452; stroke-width: 1.5; stroke-linecap: square"/>
   </g>
   <g id="line2d_59">
    <path d="M 51.925348 217.81545 
L 55.779683 217.821304 
L 59.634017 217.826231 
L 63.488352 217.830259 
L 67.342687 217.833384 
L 71.197021 217.83563 
L 75.051356 217.837011 
L 78.905691 217.837422 
L 82.760026 217.837117 
L 86.61436 217.836125 
L 90.468695 217.834187 
L 94.32303 217.831454 
L 98.177365 217.827784 
L 102.031699 217.823453 
L 105.886034 217.818594 
L 109.740369 217.812807 
L 113.594703 217.806291 
L 117.449038 217.799052 
L 121.303373 217.791123 
L 125.157708 217.782479 
L 129.012042 217.773148 
L 132.866377 217.762932 
L 136.720712 217.752204 
L 140.575046 217.740952 
L 144.429381 217.729193 
L 148.283716 217.716444 
L 152.138051 217.703384 
L 155.992385 217.689382 
L 159.84672 217.675142 
L 163.701055 217.660128 
" clip-path="url(#p2823f8b176)" style="fill: none; stroke: #55a868; stroke-width: 1.5; stroke-linecap: square"/>
   </g>
   <g id="line2d_60">
    <path d="M 51.925348 217.306703 
L 55.779683 217.306703 
L 59.634017 217.434379 
L 63.488352 217.434379 
L 67.342687 217.434379 
L 71.197021 217.562253 
L 75.051356 217.562253 
L 78.905691 217.562253 
L 82.760026 217.562253 
L 86.61436 217.690324 
L 90.468695 217.690324 
L 94.32303 217.690324 
L 98.177365 217.690324 
L 102.031699 217.818594 
L 105.886034 217.818594 
L 109.740369 217.818594 
L 113.594703 217.818594 
L 117.449038 217.947062 
L 121.303373 217.947062 
L 125.157708 217.947062 
L 129.012042 217.947062 
L 132.866377 218.075729 
L 136.720712 218.075729 
L 140.575046 218.075729 
L 144.429381 218.075729 
L 148.283716 218.204597 
L 152.138051 218.204597 
L 155.992385 218.204597 
L 159.84672 218.204597 
L 163.701055 218.333664 
" clip-path="url(#p2823f8b176)" style="fill: none; stroke: #c44e52; stroke-width: 1.5; stroke-linecap: square"/>
   </g>
   <g id="patch_18">
    <path d="M 46.336562 275.298594 
L 46.336562 160.338594 
" style="fill: none; stroke: #000000; stroke-width: 0.8; stroke-linejoin: miter; stroke-linecap: square"/>
   </g>
   <g id="patch_19">
    <path d="M 169.28984 275.298594 
L 169.28984 160.338594 
" style="fill: none; stroke: #000000; stroke-width: 0.8; stroke-linejoin: miter; stroke-linecap: square"/>
   </g>
   <g id="patch_20">
    <path d="M 46.336563 275.298594 
L 169.28984 275.298594 
" style="fill: none; stroke: #000000; stroke-width: 0.8; stroke-linejoin: miter; stroke-linecap: square"/>
   </g>
   <g id="patch_21">
    <path d="M 46.336563 160.338594 
L 169.28984 160.338594 
" style="fill: none; stroke: #000000; stroke-width: 0.8; stroke-linejoin: miter; stroke-linecap: square"/>
   </g>
   <g id="text_16">
    <!-- IL2 -->
    <g transform="translate(101.115233 154.338594)scale(0.09 -0.09)">
     <use xlink:href="#DejaVuSans-49"/>
     <use xlink:href="#DejaVuSans-4c" x="29.492188"/>
     <use xlink:href="#DejaVuSans-32" x="85.205078"/>
    </g>
   </g>
  </g>
  <g id="axes_5">
   <g id="patch_22">
    <path d="M 181.319601 275.298594 
L 304.272879 275.298594 
L 304.272879 160.338594 
L 181.319601 160.338594 
z
" style="fill: #ffffff"/>
   </g>
   <g id="matplotlib.axis_9">
    <g id="xtick_21">
     <g id="line2d_61">
      <g>
       <use xlink:href="#ma98f3bd3db" x="185.173936" y="275.298594" style="stroke: #000000; stroke-width: 0.8"/>
      </g>
     </g>
    </g>
    <g id="xtick_22">
     <g id="line2d_62">
      <g>
       <use xlink:href="#ma98f3bd3db" x="213.021505" y="275.298594" style="stroke: #000000; stroke-width: 0.8"/>
      </g>
     </g>
    </g>
    <g id="xtick_23">
     <g id="line2d_63">
      <g>
       <use xlink:href="#ma98f3bd3db" x="240.869073" y="275.298594" style="stroke: #000000; stroke-width: 0.8"/>
      </g>
     </g>
    </g>
    <g id="xtick_24">
     <g id="line2d_64">
      <g>
       <use xlink:href="#ma98f3bd3db" x="268.716641" y="275.298594" style="stroke: #000000; stroke-width: 0.8"/>
      </g>
     </g>
    </g>
    <g id="xtick_25">
     <g id="line2d_65">
      <g>
       <use xlink:href="#ma98f3bd3db" x="296.56421" y="275.298594" style="stroke: #000000; stroke-width: 0.8"/>
      </g>
     </g>
    </g>
   </g>
   <g id="matplotlib.axis_10">
    <g id="ytick_21">
     <g id="line2d_66">
      <g>
       <use xlink:href="#m33f914707f" x="181.319601" y="275.298594" style="stroke: #000000; stroke-width: 0.8"/>
      </g>
     </g>
    </g>
    <g id="ytick_22">
     <g id="line2d_67">
      <g>
       <use xlink:href="#m33f914707f" x="181.319601" y="246.558594" style="stroke: #000000; stroke-width: 0.8"/>
      </g>
     </g>
    </g>
    <g id="ytick_23">
     <g id="line2d_68">
      <g>
       <use xlink:href="#m33f914707f" x="181.319601" y="217.818594" style="stroke: #000000; stroke-width: 0.8"/>
      </g>
     </g>
    </g>
    <g id="ytick_24">
     <g id="line2d_69">
      <g>
       <use xlink:href="#m33f914707f" x="181.319601" y="189.078594" style="stroke: #000000; stroke-width: 0.8"/>
      </g>
     </g>
    </g>
    <g id="ytick_25">
     <g id="line2d_70">
      <g>
       <use xlink:href="#m33f914707f" x="181.319601" y="160.338594" style="stroke: #000000; stroke-width: 0.8"/>
      </g>
     </g>
    </g>
   </g>
   <g id="line2d_71">
    <path d="M 186.908387 218.525238 
L 190.762722 218.463938 
L 194.617056 218.403188 
L 198.471391 218.34508 
L 202.325726 218.289045 
L 206.18006 218.234513 
L 210.034395 218.181897 
L 213.88873 218.131147 
L 217.743065 218.081793 
L 221.597399 218.034298 
L 225.451734 217.988235 
L 229.306069 217.943496 
L 233.160403 217.900433 
L 237.014738 217.858971 
L 240.869073 217.818594 
L 244.723408 217.779931 
L 248.577742 217.74239 
L 252.432077 217.706134 
L 256.286412 217.671058 
L 260.140747 217.637057 
L 263.995081 217.604716 
L 267.849416 217.572925 
L 271.703751 217.542647 
L 275.558085 217.513377 
L 279.41242 217.485183 
L 283.266755 217.458019 
L 287.12109 217.431875 
L 290.975424 217.406775 
L 294.829759 217.382539 
L 298.684094 217.359165 
" clip-path="url(#p05293fb30b)" style="fill: none; stroke: #4c72b0; stroke-width: 1.5; stroke-linecap: square"/>
   </g>
   <g id="line2d_72">
    <path d="M 186.908387 218.527398 
L 190.762722 218.466222 
L 194.617056 218.405024 
L 198.471391 218.346746 
L 202.325726 218.290518 
L 206.18006 218.235849 
L 210.034395 218.183072 
L 213.88873 218.132138 
L 217.743065 218.082655 
L 221.597399 218.034988 
L 225.451734 217.988776 
L 229.306069 217.943921 
L 233.160403 217.900712 
L 237.014738 217.859079 
L 240.869073 217.818594 
L 244.723408 217.779762 
L 248.577742 217.742087 
L 252.432077 217.705699 
L 256.286412 217.670499 
L 260.140747 217.636405 
L 263.995081 217.603901 
L 267.849416 217.572025 
L 271.703751 217.541624 
L 275.558085 217.512235 
L 279.41242 217.483923 
L 283.266755 217.456643 
L 287.12109 217.430383 
L 290.975424 217.40516 
L 294.829759 217.380813 
L 298.684094 217.357331 
" clip-path="url(#p05293fb30b)" style="fill: none; stroke: #dd8452; stroke-width: 1.5; stroke-linecap: square"/>
   </g>
   <g id="line2d_73">
    <path d="M 186.908387 217.818624 
L 190.762722 217.818922 
L 194.617056 217.818607 
L 198.471391 217.818607 
L 202.325726 217.818624 
L 206.18006 217.818607 
L 210.034395 217.818607 
L 213.88873 217.818624 
L 217.743065 217.818607 
L 221.597399 217.818638 
L 225.451734 217.818638 
L 229.306069 217.818594 
L 233.160403 217.818607 
L 237.014738 217.818639 
L 240.869073 217.818594 
L 244.723408 217.818638 
L 248.577742 217.818638 
L 252.432077 217.818638 
L 256.286412 217.818609 
L 260.140747 217.818592 
L 263.995081 217.818609 
L 267.849416 217.818593 
L 271.703751 217.818592 
L 275.558085 217.818592 
L 279.41242 217.818592 
L 283.266755 217.818592 
L 287.12109 217.818592 
L 290.975424 217.818593 
L 294.829759 217.818593 
L 298.684094 217.818594 
" clip-path="url(#p05293fb30b)" style="fill: none; stroke: #55a868; stroke-width: 1.5; stroke-linecap: square"/>
   </g>
   <g id="line2d_74">
    <path d="M 186.908387 217.942457 
L 190.762722 217.942457 
L 194.617056 217.942457 
L 198.471391 217.942457 
L 202.325726 217.942457 
L 206.18006 217.942457 
L 210.034395 217.818594 
L 213.88873 217.818594 
L 217.743065 217.818594 
L 221.597399 217.818594 
L 225.451734 217.818594 
L 229.306069 217.818594 
L 233.160403 217.818594 
L 237.014738 217.818594 
L 240.869073 217.818594 
L 244.723408 217.818594 
L 248.577742 217.818594 
L 252.432077 217.818594 
L 256.286412 217.818594 
L 260.140747 217.818594 
L 263.995081 217.818594 
L 267.849416 217.818594 
L 271.703751 217.818594 
L 275.558085 217.818594 
L 279.41242 217.818594 
L 283.266755 217.818594 
L 287.12109 217.818594 
L 290.975424 217.818594 
L 294.829759 217.818594 
L 298.684094 217.818594 
" clip-path="url(#p05293fb30b)" style="fill: none; stroke: #c44e52; stroke-width: 1.5; stroke-linecap: square"/>
   </g>
   <g id="patch_23">
    <path d="M 181.319601 275.298594 
L 181.319601 160.338594 
" style="fill: none; stroke: #000000; stroke-width: 0.8; stroke-linejoin: miter; stroke-linecap: square"/>
   </g>
   <g id="patch_24">
    <path d="M 304.272879 275.298594 
L 304.272879 160.338594 
" style="fill: none; stroke: #000000; stroke-width: 0.8; stroke-linejoin: miter; stroke-linecap: square"/>
   </g>
   <g id="patch_25">
    <path d="M 181.319601 275.298594 
L 304.272879 275.298594 
" style="fill: none; stroke: #000000; stroke-width: 0.8; stroke-linejoin: miter; stroke-linecap: square"/>
   </g>
   <g id="patch_26">
    <path d="M 181.319601 160.338594 
L 304.272879 160.338594 
" style="fill: none; stroke: #000000; stroke-width: 0.8; stroke-linejoin: miter; stroke-linecap: square"/>
   </g>
   <g id="text_17">
    <!-- Timer -->
    <g transform="translate(229.936084 154.338594)scale(0.09 -0.09)">
     <use xlink:href="#DejaVuSans-54"/>
     <use xlink:href="#DejaVuSans-69" x="57.958984"/>
     <use xlink:href="#DejaVuSans-6d" x="85.742188"/>
     <use xlink:href="#DejaVuSans-65" x="183.154297"/>
     <use xlink:href="#DejaVuSans-72" x="244.677734"/>
    </g>
   </g>
  </g>
  <g id="axes_6">
   <g id="patch_27">
    <path d="M 316.30264 275.298594 
L 439.255918 275.298594 
L 439.255918 160.338594 
L 316.30264 160.338594 
z
" style="fill: #ffffff"/>
   </g>
   <g id="matplotlib.axis_11">
    <g id="xtick_26">
     <g id="line2d_75">
      <g>
       <use xlink:href="#ma98f3bd3db" x="320.156975" y="275.298594" style="stroke: #000000; stroke-width: 0.8"/>
      </g>
     </g>
    </g>
    <g id="xtick_27">
     <g id="line2d_76">
      <g>
       <use xlink:href="#ma98f3bd3db" x="348.004544" y="275.298594" style="stroke: #000000; stroke-width: 0.8"/>
      </g>
     </g>
    </g>
    <g id="xtick_28">
     <g id="line2d_77">
      <g>
       <use xlink:href="#ma98f3bd3db" x="375.852112" y="275.298594" style="stroke: #000000; stroke-width: 0.8"/>
      </g>
     </g>
    </g>
    <g id="xtick_29">
     <g id="line2d_78">
      <g>
       <use xlink:href="#ma98f3bd3db" x="403.69968" y="275.298594" style="stroke: #000000; stroke-width: 0.8"/>
      </g>
     </g>
    </g>
    <g id="xtick_30">
     <g id="line2d_79">
      <g>
       <use xlink:href="#ma98f3bd3db" x="431.547249" y="275.298594" style="stroke: #000000; stroke-width: 0.8"/>
      </g>
     </g>
    </g>
   </g>
   <g id="matplotlib.axis_12">
    <g id="ytick_26">
     <g id="line2d_80">
      <g>
       <use xlink:href="#m33f914707f" x="316.30264" y="275.298594" style="stroke: #000000; stroke-width: 0.8"/>
      </g>
     </g>
    </g>
    <g id="ytick_27">
     <g id="line2d_81">
      <g>
       <use xlink:href="#m33f914707f" x="316.30264" y="246.558594" style="stroke: #000000; stroke-width: 0.8"/>
      </g>
     </g>
    </g>
    <g id="ytick_28">
     <g id="line2d_82">
      <g>
       <use xlink:href="#m33f914707f" x="316.30264" y="217.818594" style="stroke: #000000; stroke-width: 0.8"/>
      </g>
     </g>
    </g>
    <g id="ytick_29">
     <g id="line2d_83">
      <g>
       <use xlink:href="#m33f914707f" x="316.30264" y="189.078594" style="stroke: #000000; stroke-width: 0.8"/>
      </g>
     </g>
    </g>
    <g id="ytick_30">
     <g id="line2d_84">
      <g>
       <use xlink:href="#m33f914707f" x="316.30264" y="160.338594" style="stroke: #000000; stroke-width: 0.8"/>
      </g>
     </g>
    </g>
   </g>
   <g id="line2d_85">
    <path d="M 321.891426 217.208293 
L 325.745761 217.14638 
L 329.600095 217.086398 
L 333.45443 217.028291 
L 337.308765 216.972101 
L 341.163099 216.917724 
L 345.017434 216.865109 
L 348.871769 216.814203 
L 352.726104 216.765008 
L 356.580438 216.717327 
L 360.434773 216.671265 
L 364.289108 216.626725 
L 368.143442 217.900486 
L 371.997777 217.858766 
L 375.852112 217.818594 
L 379.706447 217.779731 
L 383.560781 217.74219 
L 387.415116 217.705934 
L 391.269451 217.670928 
L 395.123785 217.637137 
L 398.97812 217.604578 
L 402.832455 217.573069 
L 406.68679 217.542728 
L 410.541124 217.513475 
L 414.395459 217.485281 
L 418.249794 217.458117 
L 422.104129 217.431956 
L 425.958463 217.40677 
L 429.812798 217.382534 
L 433.667133 217.359173 
" clip-path="url(#p690fa823d2)" style="fill: none; stroke: #4c72b0; stroke-width: 1.5; stroke-linecap: square"/>
   </g>
   <g id="line2d_86">
    <path d="M 321.891426 217.416475 
L 325.745761 217.354188 
L 329.600095 217.293841 
L 333.45443 217.235375 
L 337.308765 217.178833 
L 341.163099 217.124112 
L 345.017434 217.071157 
L 348.871769 217.019918 
L 352.726104 216.970396 
L 356.580438 216.922395 
L 360.434773 216.876017 
L 364.289108 216.831168 
L 368.143442 217.901086 
L 371.997777 217.859065 
L 375.852112 217.818594 
L 379.706447 217.779438 
L 383.560781 217.741609 
L 387.415116 217.705071 
L 391.269451 217.669787 
L 395.123785 217.635722 
L 398.97812 217.602893 
L 402.832455 217.571119 
L 406.68679 217.540518 
L 410.541124 217.511009 
L 414.395459 217.482563 
L 418.249794 217.455151 
L 422.104129 217.428745 
L 425.958463 217.403319 
L 429.812798 217.378846 
L 433.667133 217.355252 
" clip-path="url(#p690fa823d2)" style="fill: none; stroke: #dd8452; stroke-width: 1.5; stroke-linecap: square"/>
   </g>
   <g id="line2d_87">
    <path d="M 321.891426 217.640205 
L 325.745761 217.640205 
L 329.600095 217.640205 
L 333.45443 217.640205 
L 337.308765 217.640205 
L 341.163099 217.640205 
L 345.017434 217.640205 
L 348.871769 217.640205 
L 352.726104 217.640205 
L 356.580438 217.640205 
L 360.434773 217.640205 
L 364.289108 217.640205 
L 368.143442 217.818594 
L 371.997777 217.818594 
L 375.852112 217.818594 
L 379.706447 217.818594 
L 383.560781 217.818594 
L 387.415116 217.818594 
L 391.269451 217.818594 
L 395.123785 217.818594 
L 398.97812 217.818594 
L 402.832455 217.818594 
L 406.68679 217.818594 
L 410.541124 217.818594 
L 414.395459 217.818594 
L 418.249794 217.818594 
L 422.104129 217.818594 
L 425.958463 217.818594 
L 429.812798 217.818594 
L 433.667133 217.818594 
" clip-path="url(#p690fa823d2)" style="fill: none; stroke: #55a868; stroke-width: 1.5; stroke-linecap: square"/>
   </g>
   <g id="line2d_88">
    <path d="M 321.891426 217.687278 
L 325.745761 217.687278 
L 329.600095 217.687278 
L 333.45443 217.687278 
L 337.308765 217.687278 
L 341.163099 217.687278 
L 345.017434 217.687278 
L 348.871769 217.687278 
L 352.726104 217.687278 
L 356.580438 217.687278 
L 360.434773 217.687278 
L 364.289108 217.687278 
L 368.143442 217.818594 
L 371.997777 217.818594 
L 375.852112 217.818594 
L 379.706447 217.818594 
L 383.560781 217.818594 
L 387.415116 217.818594 
L 391.269451 217.818594 
L 395.123785 217.818594 
L 398.97812 217.818594 
L 402.832455 217.818594 
L 406.68679 217.818594 
L 410.541124 217.687278 
L 414.395459 217.687278 
L 418.249794 217.687278 
L 422.104129 217.687278 
L 425.958463 217.687278 
L 429.812798 217.687278 
L 433.667133 217.687278 
" clip-path="url(#p690fa823d2)" style="fill: none; stroke: #c44e52; stroke-width: 1.5; stroke-linecap: square"/>
   </g>
   <g id="patch_28">
    <path d="M 316.30264 275.298594 
L 316.30264 160.338594 
" style="fill: none; stroke: #000000; stroke-width: 0.8; stroke-linejoin: miter; stroke-linecap: square"/>
   </g>
   <g id="patch_29">
    <path d="M 439.255918 275.298594 
L 439.255918 160.338594 
" style="fill: none; stroke: #000000; stroke-width: 0.8; stroke-linejoin: miter; stroke-linecap: square"/>
   </g>
   <g id="patch_30">
    <path d="M 316.30264 275.298594 
L 439.255918 275.298594 
" style="fill: none; stroke: #000000; stroke-width: 0.8; stroke-linejoin: miter; stroke-linecap: square"/>
   </g>
   <g id="patch_31">
    <path d="M 316.30264 160.338594 
L 439.255918 160.338594 
" style="fill: none; stroke: #000000; stroke-width: 0.8; stroke-linejoin: miter; stroke-linecap: square"/>
   </g>
   <g id="text_18">
    <!-- Carry -->
    <g transform="translate(365.594826 154.338594)scale(0.09 -0.09)">
     <use xlink:href="#DejaVuSans-43"/>
     <use xlink:href="#DejaVuSans-61" x="69.824219"/>
     <use xlink:href="#DejaVuSans-72" x="131.103516"/>
     <use xlink:href="#DejaVuSans-72" x="170.466797"/>
     <use xlink:href="#DejaVuSans-79" x="211.580078"/>
    </g>
   </g>
  </g>
  <g id="axes_7">
   <g id="patch_32">
    <path d="M 46.336562 415.598594 
L 169.28984 415.598594 
L 169.28984 300.638594 
L 46.336562 300.638594 
z
" style="fill: #ffffff"/>
   </g>
   <g id="matplotlib.axis_13">
    <g id="xtick_31">
     <g id="line2d_89">
      <g>
       <use xlink:href="#ma98f3bd3db" x="50.190897" y="415.598594" style="stroke: #000000; stroke-width: 0.8"/>
      </g>
     </g>
     <g id="text_19">
      <!-- 0.90 -->
      <g transform="translate(41.284647 428.677344)scale(0.08 -0.08)">
       <defs>
        <path id="DejaVuSans-39" d="M 703 97 
L 703 672 
Q 941 559 1184 500 
Q 1428 441 1663 441 
Q 2288 441 2617 861 
Q 2947 1281 2994 2138 
Q 2813 1869 2534 1725 
Q 2256 1581 1919 1581 
Q 1219 1581 811 2004 
Q 403 2428 403 3163 
Q 403 3881 828 4315 
Q 1253 4750 1959 4750 
Q 2769 4750 3195 4129 
Q 3622 3509 3622 2328 
Q 3622 1225 3098 567 
Q 2575 -91 1691 -91 
Q 1453 -91 1209 -44 
Q 966 3 703 97 
z
M 1959 2075 
Q 2384 2075 2632 2365 
Q 2881 2656 2881 3163 
Q 2881 3666 2632 3958 
Q 2384 4250 1959 4250 
Q 1534 4250 1286 3958 
Q 1038 3666 1038 3163 
Q 1038 2656 1286 2365 
Q 1534 2075 1959 2075 
z
" transform="scale(0.015625)"/>
       </defs>
       <use xlink:href="#DejaVuSans-30"/>
       <use xlink:href="#DejaVuSans-2e" x="63.623047"/>
       <use xlink:href="#DejaVuSans-39" x="95.410156"/>
       <use xlink:href="#DejaVuSans-30" x="159.033203"/>
      </g>
     </g>
    </g>
    <g id="xtick_32">
     <g id="line2d_90">
      <g>
       <use xlink:href="#ma98f3bd3db" x="78.038466" y="415.598594" style="stroke: #000000; stroke-width: 0.8"/>
      </g>
     </g>
     <g id="text_20">
      <!-- 0.95 -->
      <g transform="translate(69.132216 428.677344)scale(0.08 -0.08)">
       <use xlink:href="#DejaVuSans-30"/>
       <use xlink:href="#DejaVuSans-2e" x="63.623047"/>
       <use xlink:href="#DejaVuSans-39" x="95.410156"/>
       <use xlink:href="#DejaVuSans-35" x="159.033203"/>
      </g>
     </g>
    </g>
    <g id="xtick_33">
     <g id="line2d_91">
      <g>
       <use xlink:href="#ma98f3bd3db" x="105.886034" y="415.598594" style="stroke: #000000; stroke-width: 0.8"/>
      </g>
     </g>
     <g id="text_21">
      <!-- 1.00 -->
      <g transform="translate(96.979784 428.677344)scale(0.08 -0.08)">
       <use xlink:href="#DejaVuSans-31"/>
       <use xlink:href="#DejaVuSans-2e" x="63.623047"/>
       <use xlink:href="#DejaVuSans-30" x="95.410156"/>
       <use xlink:href="#DejaVuSans-30" x="159.033203"/>
      </g>
     </g>
    </g>
    <g id="xtick_34">
     <g id="line2d_92">
      <g>
       <use xlink:href="#ma98f3bd3db" x="133.733602" y="415.598594" style="stroke: #000000; stroke-width: 0.8"/>
      </g>
     </g>
     <g id="text_22">
      <!-- 1.05 -->
      <g transform="translate(124.827352 428.677344)scale(0.08 -0.08)">
       <use xlink:href="#DejaVuSans-31"/>
       <use xlink:href="#DejaVuSans-2e" x="63.623047"/>
       <use xlink:href="#DejaVuSans-30" x="95.410156"/>
       <use xlink:href="#DejaVuSans-35" x="159.033203"/>
      </g>
     </g>
    </g>
    <g id="xtick_35">
     <g id="line2d_93">
      <g>
       <use xlink:href="#ma98f3bd3db" x="161.581171" y="415.598594" style="stroke: #000000; stroke-width: 0.8"/>
      </g>
     </g>
     <g id="text_23">
      <!-- 1.10 -->
      <g transform="translate(152.674921 428.677344)scale(0.08 -0.08)">
       <use xlink:href="#DejaVuSans-31"/>
       <use xlink:href="#DejaVuSans-2e" x="63.623047"/>
       <use xlink:href="#DejaVuSans-31" x="95.410156"/>
       <use xlink:href="#DejaVuSans-30" x="159.033203"/>
      </g>
     </g>
    </g>
    <g id="text_24">
     <!-- param value norm. -->
     <g transform="translate(64.865623 441.179687)scale(0.09 -0.09)">
      <defs>
       <path id="DejaVuSans-70" d="M 1159 525 
L 1159 -1331 
L 581 -1331 
L 581 3500 
L 1159 3500 
L 1159 2969 
Q 1341 3281 1617 3432 
Q 1894 3584 2278 3584 
Q 2916 3584 3314 3078 
Q 3713 2572 3713 1747 
Q 3713 922 3314 415 
Q 2916 -91 2278 -91 
Q 1894 -91 1617 61 
Q 1341 213 1159 525 
z
M 3116 1747 
Q 3116 2381 2855 2742 
Q 2594 3103 2138 3103 
Q 1681 3103 1420 2742 
Q 1159 2381 1159 1747 
Q 1159 1113 1420 752 
Q 1681 391 2138 391 
Q 2594 391 2855 752 
Q 3116 1113 3116 1747 
z
" transform="scale(0.015625)"/>
       <path id="DejaVuSans-76" d="M 191 3500 
L 800 3500 
L 1894 563 
L 2988 3500 
L 3597 3500 
L 2284 0 
L 1503 0 
L 191 3500 
z
" transform="scale(0.015625)"/>
       <path id="DejaVuSans-6c" d="M 603 4863 
L 1178 4863 
L 1178 0 
L 603 0 
L 603 4863 
z
" transform="scale(0.015625)"/>
       <path id="DejaVuSans-75" d="M 544 1381 
L 544 3500 
L 1119 3500 
L 1119 1403 
Q 1119 906 1312 657 
Q 1506 409 1894 409 
Q 2359 409 2629 706 
Q 2900 1003 2900 1516 
L 2900 3500 
L 3475 3500 
L 3475 0 
L 2900 0 
L 2900 538 
Q 2691 219 2414 64 
Q 2138 -91 1772 -91 
Q 1169 -91 856 284 
Q 544 659 544 1381 
z
M 1991 3584 
L 1991 3584 
z
" transform="scale(0.015625)"/>
       <path id="DejaVuSans-6e" d="M 3513 2113 
L 3513 0 
L 2938 0 
L 2938 2094 
Q 2938 2591 2744 2837 
Q 2550 3084 2163 3084 
Q 1697 3084 1428 2787 
Q 1159 2491 1159 1978 
L 1159 0 
L 581 0 
L 581 3500 
L 1159 3500 
L 1159 2956 
Q 1366 3272 1645 3428 
Q 1925 3584 2291 3584 
Q 2894 3584 3203 3211 
Q 3513 2838 3513 2113 
z
" transform="scale(0.015625)"/>
       <path id="DejaVuSans-6f" d="M 1959 3097 
Q 1497 3097 1228 2736 
Q 959 2375 959 1747 
Q 959 1119 1226 758 
Q 1494 397 1959 397 
Q 2419 397 2687 759 
Q 2956 1122 2956 1747 
Q 2956 2369 2687 2733 
Q 2419 3097 1959 3097 
z
M 1959 3584 
Q 2709 3584 3137 3096 
Q 3566 2609 3566 1747 
Q 3566 888 3137 398 
Q 2709 -91 1959 -91 
Q 1206 -91 779 398 
Q 353 888 353 1747 
Q 353 2609 779 3096 
Q 1206 3584 1959 3584 
z
" transform="scale(0.015625)"/>
      </defs>
      <use xlink:href="#DejaVuSans-70"/>
      <use xlink:href="#DejaVuSans-61" x="63.476562"/>
      <use xlink:href="#DejaVuSans-72" x="124.755859"/>
      <use xlink:href="#DejaVuSans-61" x="165.869141"/>
      <use xlink:href="#DejaVuSans-6d" x="227.148438"/>
      <use xlink:href="#DejaVuSans-20" x="324.560547"/>
      <use xlink:href="#DejaVuSans-76" x="356.347656"/>
      <use xlink:href="#DejaVuSans-61" x="415.527344"/>
      <use xlink:href="#DejaVuSans-6c" x="476.806641"/>
      <use xlink:href="#DejaVuSans-75" x="504.589844"/>
      <use xlink:href="#DejaVuSans-65" x="567.96875"/>
      <use xlink:href="#DejaVuSans-20" x="629.492188"/>
      <use xlink:href="#DejaVuSans-6e" x="661.279297"/>
      <use xlink:href="#DejaVuSans-6f" x="724.658203"/>
      <use xlink:href="#DejaVuSans-72" x="785.839844"/>
      <use xlink:href="#DejaVuSans-6d" x="825.203125"/>
      <use xlink:href="#DejaVuSans-2e" x="922.615234"/>
     </g>
    </g>
   </g>
   <g id="matplotlib.axis_14">
    <g id="ytick_31">
     <g id="line2d_94">
      <g>
       <use xlink:href="#m33f914707f" x="46.336562" y="415.598594" style="stroke: #000000; stroke-width: 0.8"/>
      </g>
     </g>
     <g id="text_25">
      <!-- −1.0 -->
      <g transform="translate(19.910312 418.637969)scale(0.08 -0.08)">
       <use xlink:href="#DejaVuSans-2212"/>
       <use xlink:href="#DejaVuSans-31" x="83.789062"/>
       <use xlink:href="#DejaVuSans-2e" x="147.412109"/>
       <use xlink:href="#DejaVuSans-30" x="179.199219"/>
      </g>
     </g>
    </g>
    <g id="ytick_32">
     <g id="line2d_95">
      <g>
       <use xlink:href="#m33f914707f" x="46.336562" y="386.858594" style="stroke: #000000; stroke-width: 0.8"/>
      </g>
     </g>
     <g id="text_26">
      <!-- −0.5 -->
      <g transform="translate(19.910312 389.897969)scale(0.08 -0.08)">
       <use xlink:href="#DejaVuSans-2212"/>
       <use xlink:href="#DejaVuSans-30" x="83.789062"/>
       <use xlink:href="#DejaVuSans-2e" x="147.412109"/>
       <use xlink:href="#DejaVuSans-35" x="179.199219"/>
      </g>
     </g>
    </g>
    <g id="ytick_33">
     <g id="line2d_96">
      <g>
       <use xlink:href="#m33f914707f" x="46.336562" y="358.118594" style="stroke: #000000; stroke-width: 0.8"/>
      </g>
     </g>
     <g id="text_27">
      <!-- 0.0 -->
      <g transform="translate(26.614062 361.157969)scale(0.08 -0.08)">
       <use xlink:href="#DejaVuSans-30"/>
       <use xlink:href="#DejaVuSans-2e" x="63.623047"/>
       <use xlink:href="#DejaVuSans-30" x="95.410156"/>
      </g>
     </g>
    </g>
    <g id="ytick_34">
     <g id="line2d_97">
      <g>
       <use xlink:href="#m33f914707f" x="46.336562" y="329.378594" style="stroke: #000000; stroke-width: 0.8"/>
      </g>
     </g>
     <g id="text_28">
      <!-- 0.5 -->
      <g transform="translate(26.614062 332.417969)scale(0.08 -0.08)">
       <use xlink:href="#DejaVuSans-30"/>
       <use xlink:href="#DejaVuSans-2e" x="63.623047"/>
       <use xlink:href="#DejaVuSans-35" x="95.410156"/>
      </g>
     </g>
    </g>
    <g id="ytick_35">
     <g id="line2d_98">
      <g>
       <use xlink:href="#m33f914707f" x="46.336562" y="300.638594" style="stroke: #000000; stroke-width: 0.8"/>
      </g>
     </g>
     <g id="text_29">
      <!-- 1.0 -->
      <g transform="translate(26.614062 303.677969)scale(0.08 -0.08)">
       <use xlink:href="#DejaVuSans-31"/>
       <use xlink:href="#DejaVuSans-2e" x="63.623047"/>
       <use xlink:href="#DejaVuSans-30" x="95.410156"/>
      </g>
     </g>
    </g>
    <g id="text_30">
     <!-- effect size -->
     <g transform="translate(14.038594 381.218359)rotate(-90)scale(0.09 -0.09)">
      <use xlink:href="#DejaVuSans-65"/>
      <use xlink:href="#DejaVuSans-66" x="61.523438"/>
      <use xlink:href="#DejaVuSans-66" x="96.728516"/>
      <use xlink:href="#DejaVuSans-65" x="131.933594"/>
      <use xlink:href="#DejaVuSans-63" x="193.457031"/>
      <use xlink:href="#DejaVuSans-74" x="248.4375"/>
      <use xlink:href="#DejaVuSans-20" x="287.646484"/>
      <use xlink:href="#DejaVuSans-73" x="319.433594"/>
      <use xlink:href="#DejaVuSans-69" x="371.533203"/>
      <use xlink:href="#DejaVuSans-7a" x="399.316406"/>
      <use xlink:href="#DejaVuSans-65" x="451.806641"/>
     </g>
    </g>
   </g>
   <g id="line2d_99">
    <path d="M 51.925348 355.827673 
L 55.779683 355.990623 
L 59.634017 356.153945 
L 63.488352 356.317191 
L 67.342687 356.480515 
L 71.197021 356.643922 
L 75.051356 356.807181 
L 78.905691 356.970761 
L 82.760026 357.13443 
L 86.61436 357.298299 
L 90.468695 357.462165 
L 94.32303 357.626098 
L 98.177365 357.790124 
L 102.031699 357.954378 
L 105.886034 358.118594 
L 109.740369 358.282675 
L 113.594703 358.447081 
L 117.449038 358.611585 
L 121.303373 358.776298 
L 125.157708 358.941003 
L 129.012042 359.105808 
L 132.866377 359.27072 
L 136.720712 359.435731 
L 140.575046 359.600943 
L 144.429381 359.765954 
L 148.283716 359.931392 
L 152.138051 360.096828 
L 155.992385 360.262378 
L 159.84672 360.428035 
L 163.701055 360.593733 
" clip-path="url(#p37ddac72ed)" style="fill: none; stroke: #4c72b0; stroke-width: 1.5; stroke-linecap: square"/>
   </g>
   <g id="line2d_100">
    <path d="M 51.925348 349.667972 
L 55.779683 350.300885 
L 59.634017 350.929237 
L 63.488352 351.552738 
L 67.342687 352.171584 
L 71.197021 352.785845 
L 75.051356 353.395389 
L 78.905691 354.000686 
L 82.760026 354.601596 
L 86.61436 355.198284 
L 90.468695 355.790593 
L 94.32303 356.378715 
L 98.177365 356.962696 
L 102.031699 357.54272 
L 105.886034 358.118594 
L 109.740369 358.690291 
L 113.594703 359.258274 
L 117.449038 359.822397 
L 121.303373 360.3828 
L 125.157708 360.939351 
L 129.012042 361.492187 
L 132.866377 362.041365 
L 136.720712 362.586927 
L 140.575046 363.128997 
L 144.429381 363.667303 
L 148.283716 364.202402 
L 152.138051 364.733975 
L 155.992385 365.262166 
L 159.84672 365.787009 
L 163.701055 366.308458 
" clip-path="url(#p37ddac72ed)" style="fill: none; stroke: #dd8452; stroke-width: 1.5; stroke-linecap: square"/>
   </g>
   <g id="line2d_101">
    <path d="M 51.925348 358.723341 
L 55.779683 358.681283 
L 59.634017 358.639172 
L 63.488352 358.596814 
L 67.342687 358.554273 
L 71.197021 358.511548 
L 75.051356 358.468558 
L 78.905691 358.425464 
L 82.760026 358.382182 
L 86.61436 358.338794 
L 90.468695 358.29493 
L 94.32303 358.251082 
L 98.177365 358.207049 
L 102.031699 358.162995 
L 105.886034 358.118594 
L 109.740369 358.073843 
L 113.594703 358.029096 
L 117.449038 357.984177 
L 121.303373 357.939249 
L 125.157708 357.893982 
L 129.012042 357.848549 
L 132.866377 357.802954 
L 136.720712 357.757197 
L 140.575046 357.711267 
L 144.429381 357.665097 
L 148.283716 357.618988 
L 152.138051 357.572607 
L 155.992385 357.526073 
L 159.84672 357.479388 
L 163.701055 357.432419 
" clip-path="url(#p37ddac72ed)" style="fill: none; stroke: #55a868; stroke-width: 1.5; stroke-linecap: square"/>
   </g>
   <g id="line2d_102">
    <path d="M 51.925348 350.424565 
L 55.779683 351.009791 
L 59.634017 351.599176 
L 63.488352 352.19278 
L 67.342687 352.670741 
L 71.197021 353.272094 
L 75.051356 353.877839 
L 78.905691 354.365641 
L 82.760026 354.979456 
L 86.61436 355.473801 
L 90.468695 355.971111 
L 94.32303 356.596971 
L 98.177365 357.101083 
L 102.031699 357.608278 
L 105.886034 358.118594 
L 109.740369 358.63207 
L 113.594703 359.148745 
L 117.449038 359.66866 
L 121.303373 360.191855 
L 125.157708 360.718371 
L 129.012042 361.248252 
L 132.866377 361.647897 
L 136.720712 362.18377 
L 140.575046 362.723129 
L 144.429381 363.129963 
L 148.283716 363.675531 
L 152.138051 364.087076 
L 155.992385 364.638999 
L 159.84672 365.055365 
L 163.701055 365.473833 
" clip-path="url(#p37ddac72ed)" style="fill: none; stroke: #c44e52; stroke-width: 1.5; stroke-linecap: square"/>
   </g>
   <g id="patch_33">
    <path d="M 46.336562 415.598594 
L 46.336562 300.638594 
" style="fill: none; stroke: #000000; stroke-width: 0.8; stroke-linejoin: miter; stroke-linecap: square"/>
   </g>
   <g id="patch_34">
    <path d="M 169.28984 415.598594 
L 169.28984 300.638594 
" style="fill: none; stroke: #000000; stroke-width: 0.8; stroke-linejoin: miter; stroke-linecap: square"/>
   </g>
   <g id="patch_35">
    <path d="M 46.336563 415.598594 
L 169.28984 415.598594 
" style="fill: none; stroke: #000000; stroke-width: 0.8; stroke-linejoin: miter; stroke-linecap: square"/>
   </g>
   <g id="patch_36">
    <path d="M 46.336563 300.638594 
L 169.28984 300.638594 
" style="fill: none; stroke: #000000; stroke-width: 0.8; stroke-linejoin: miter; stroke-linecap: square"/>
   </g>
   <g id="text_31">
    <!-- IL2 -->
    <g transform="translate(101.115233 294.638594)scale(0.09 -0.09)">
     <use xlink:href="#DejaVuSans-49"/>
     <use xlink:href="#DejaVuSans-4c" x="29.492188"/>
     <use xlink:href="#DejaVuSans-32" x="85.205078"/>
    </g>
   </g>
  </g>
  <g id="axes_8">
   <g id="patch_37">
    <path d="M 181.319601 415.598594 
L 304.272879 415.598594 
L 304.272879 300.638594 
L 181.319601 300.638594 
z
" style="fill: #ffffff"/>
   </g>
   <g id="matplotlib.axis_15">
    <g id="xtick_36">
     <g id="line2d_103">
      <g>
       <use xlink:href="#ma98f3bd3db" x="185.173936" y="415.598594" style="stroke: #000000; stroke-width: 0.8"/>
      </g>
     </g>
     <g id="text_32">
      <!-- 0.90 -->
      <g transform="translate(176.267686 428.677344)scale(0.08 -0.08)">
       <use xlink:href="#DejaVuSans-30"/>
       <use xlink:href="#DejaVuSans-2e" x="63.623047"/>
       <use xlink:href="#DejaVuSans-39" x="95.410156"/>
       <use xlink:href="#DejaVuSans-30" x="159.033203"/>
      </g>
     </g>
    </g>
    <g id="xtick_37">
     <g id="line2d_104">
      <g>
       <use xlink:href="#ma98f3bd3db" x="213.021505" y="415.598594" style="stroke: #000000; stroke-width: 0.8"/>
      </g>
     </g>
     <g id="text_33">
      <!-- 0.95 -->
      <g transform="translate(204.115255 428.677344)scale(0.08 -0.08)">
       <use xlink:href="#DejaVuSans-30"/>
       <use xlink:href="#DejaVuSans-2e" x="63.623047"/>
       <use xlink:href="#DejaVuSans-39" x="95.410156"/>
       <use xlink:href="#DejaVuSans-35" x="159.033203"/>
      </g>
     </g>
    </g>
    <g id="xtick_38">
     <g id="line2d_105">
      <g>
       <use xlink:href="#ma98f3bd3db" x="240.869073" y="415.598594" style="stroke: #000000; stroke-width: 0.8"/>
      </g>
     </g>
     <g id="text_34">
      <!-- 1.00 -->
      <g transform="translate(231.962823 428.677344)scale(0.08 -0.08)">
       <use xlink:href="#DejaVuSans-31"/>
       <use xlink:href="#DejaVuSans-2e" x="63.623047"/>
       <use xlink:href="#DejaVuSans-30" x="95.410156"/>
       <use xlink:href="#DejaVuSans-30" x="159.033203"/>
      </g>
     </g>
    </g>
    <g id="xtick_39">
     <g id="line2d_106">
      <g>
       <use xlink:href="#ma98f3bd3db" x="268.716641" y="415.598594" style="stroke: #000000; stroke-width: 0.8"/>
      </g>
     </g>
     <g id="text_35">
      <!-- 1.05 -->
      <g transform="translate(259.810391 428.677344)scale(0.08 -0.08)">
       <use xlink:href="#DejaVuSans-31"/>
       <use xlink:href="#DejaVuSans-2e" x="63.623047"/>
       <use xlink:href="#DejaVuSans-30" x="95.410156"/>
       <use xlink:href="#DejaVuSans-35" x="159.033203"/>
      </g>
     </g>
    </g>
    <g id="xtick_40">
     <g id="line2d_107">
      <g>
       <use xlink:href="#ma98f3bd3db" x="296.56421" y="415.598594" style="stroke: #000000; stroke-width: 0.8"/>
      </g>
     </g>
     <g id="text_36">
      <!-- 1.10 -->
      <g transform="translate(287.65796 428.677344)scale(0.08 -0.08)">
       <use xlink:href="#DejaVuSans-31"/>
       <use xlink:href="#DejaVuSans-2e" x="63.623047"/>
       <use xlink:href="#DejaVuSans-31" x="95.410156"/>
       <use xlink:href="#DejaVuSans-30" x="159.033203"/>
      </g>
     </g>
    </g>
    <g id="text_37">
     <!-- param value norm. -->
     <g transform="translate(199.848662 441.179687)scale(0.09 -0.09)">
      <use xlink:href="#DejaVuSans-70"/>
      <use xlink:href="#DejaVuSans-61" x="63.476562"/>
      <use xlink:href="#DejaVuSans-72" x="124.755859"/>
      <use xlink:href="#DejaVuSans-61" x="165.869141"/>
      <use xlink:href="#DejaVuSans-6d" x="227.148438"/>
      <use xlink:href="#DejaVuSans-20" x="324.560547"/>
      <use xlink:href="#DejaVuSans-76" x="356.347656"/>
      <use xlink:href="#DejaVuSans-61" x="415.527344"/>
      <use xlink:href="#DejaVuSans-6c" x="476.806641"/>
      <use xlink:href="#DejaVuSans-75" x="504.589844"/>
      <use xlink:href="#DejaVuSans-65" x="567.96875"/>
      <use xlink:href="#DejaVuSans-20" x="629.492188"/>
      <use xlink:href="#DejaVuSans-6e" x="661.279297"/>
      <use xlink:href="#DejaVuSans-6f" x="724.658203"/>
      <use xlink:href="#DejaVuSans-72" x="785.839844"/>
      <use xlink:href="#DejaVuSans-6d" x="825.203125"/>
      <use xlink:href="#DejaVuSans-2e" x="922.615234"/>
     </g>
    </g>
   </g>
   <g id="matplotlib.axis_16">
    <g id="ytick_36">
     <g id="line2d_108">
      <g>
       <use xlink:href="#m33f914707f" x="181.319601" y="415.598594" style="stroke: #000000; stroke-width: 0.8"/>
      </g>
     </g>
    </g>
    <g id="ytick_37">
     <g id="line2d_109">
      <g>
       <use xlink:href="#m33f914707f" x="181.319601" y="386.858594" style="stroke: #000000; stroke-width: 0.8"/>
      </g>
     </g>
    </g>
    <g id="ytick_38">
     <g id="line2d_110">
      <g>
       <use xlink:href="#m33f914707f" x="181.319601" y="358.118594" style="stroke: #000000; stroke-width: 0.8"/>
      </g>
     </g>
    </g>
    <g id="ytick_39">
     <g id="line2d_111">
      <g>
       <use xlink:href="#m33f914707f" x="181.319601" y="329.378594" style="stroke: #000000; stroke-width: 0.8"/>
      </g>
     </g>
    </g>
    <g id="ytick_40">
     <g id="line2d_112">
      <g>
       <use xlink:href="#m33f914707f" x="181.319601" y="300.638594" style="stroke: #000000; stroke-width: 0.8"/>
      </g>
     </g>
    </g>
   </g>
   <g id="line2d_113">
    <path d="M 186.908387 348.784938 
L 190.762722 349.453489 
L 194.617056 350.121797 
L 198.471391 350.789757 
L 202.325726 351.457533 
L 206.18006 352.124834 
L 210.034395 352.791917 
L 213.88873 353.458821 
L 217.743065 354.125443 
L 221.597399 354.791479 
L 225.451734 355.457418 
L 229.306069 356.123182 
L 233.160403 356.788491 
L 237.014738 357.453669 
L 240.869073 358.118594 
L 244.723408 358.783214 
L 248.577742 359.447457 
L 252.432077 360.111265 
L 256.286412 360.775007 
L 260.140747 361.438535 
L 263.995081 362.101793 
L 267.849416 362.76464 
L 271.703751 363.427327 
L 275.558085 364.089768 
L 279.41242 364.751815 
L 283.266755 365.413661 
L 287.12109 366.07525 
L 290.975424 366.736575 
L 294.829759 367.397639 
L 298.684094 368.058498 
" clip-path="url(#p587eb53a4c)" style="fill: none; stroke: #4c72b0; stroke-width: 1.5; stroke-linecap: square"/>
   </g>
   <g id="line2d_114">
    <path d="M 186.908387 342.374854 
L 190.762722 343.529923 
L 194.617056 344.680063 
L 198.471391 345.825269 
L 202.325726 346.965738 
L 206.18006 348.10127 
L 210.034395 349.232204 
L 213.88873 350.358601 
L 217.743065 351.48045 
L 221.597399 352.597528 
L 225.451734 353.710344 
L 229.306069 354.818869 
L 233.160403 355.922925 
L 237.014738 357.022841 
L 240.869073 358.118594 
L 244.723408 359.210162 
L 248.577742 360.297554 
L 252.432077 361.380777 
L 256.286412 362.460184 
L 260.140747 363.535694 
L 263.995081 364.607322 
L 267.849416 365.675005 
L 271.703751 366.738995 
L 275.558085 367.799173 
L 279.41242 368.85566 
L 283.266755 369.908486 
L 287.12109 370.95775 
L 290.975424 372.003458 
L 294.829759 373.04558 
L 298.684094 374.084318 
" clip-path="url(#p587eb53a4c)" style="fill: none; stroke: #dd8452; stroke-width: 1.5; stroke-linecap: square"/>
   </g>
   <g id="line2d_115">
    <path d="M 186.908387 357.783206 
L 190.762722 357.808084 
L 194.617056 357.83282 
L 198.471391 357.857398 
L 202.325726 357.881826 
L 206.18006 357.906113 
L 210.034395 357.930259 
L 213.88873 357.954263 
L 217.743065 357.978133 
L 221.597399 358.001863 
L 225.451734 358.025464 
L 229.306069 358.048945 
L 233.160403 358.072289 
L 237.014738 358.095502 
L 240.869073 358.118594 
L 244.723408 358.141619 
L 248.577742 358.164453 
L 252.432077 358.187178 
L 256.286412 358.209805 
L 260.140747 358.232301 
L 263.995081 358.254761 
L 267.849416 358.276966 
L 271.703751 358.299205 
L 275.558085 358.321212 
L 279.41242 358.343222 
L 283.266755 358.365012 
L 287.12109 358.386768 
L 290.975424 358.408411 
L 294.829759 358.429908 
L 298.684094 358.451328 
" clip-path="url(#p587eb53a4c)" style="fill: none; stroke: #55a868; stroke-width: 1.5; stroke-linecap: square"/>
   </g>
   <g id="line2d_116">
    <path d="M 186.908387 349.901371 
L 190.762722 350.462063 
L 194.617056 351.139937 
L 198.471391 351.709096 
L 202.325726 352.282188 
L 206.18006 352.975168 
L 210.034395 353.557108 
L 213.88873 354.143161 
L 217.743065 354.733385 
L 221.597399 355.327839 
L 225.451734 355.806491 
L 229.306069 356.408716 
L 233.160403 357.015348 
L 237.014738 357.503868 
L 240.869073 358.118594 
L 244.723408 358.73791 
L 248.577742 359.236716 
L 252.432077 359.738539 
L 256.286412 360.37012 
L 260.140747 360.87887 
L 263.995081 361.390762 
L 267.849416 361.905832 
L 271.703751 362.424122 
L 275.558085 362.945672 
L 279.41242 363.470522 
L 283.266755 363.998716 
L 287.12109 364.530295 
L 290.975424 365.065304 
L 294.829759 365.603787 
L 298.684094 366.14579 
" clip-path="url(#p587eb53a4c)" style="fill: none; stroke: #c44e52; stroke-width: 1.5; stroke-linecap: square"/>
   </g>
   <g id="patch_38">
    <path d="M 181.319601 415.598594 
L 181.319601 300.638594 
" style="fill: none; stroke: #000000; stroke-width: 0.8; stroke-linejoin: miter; stroke-linecap: square"/>
   </g>
   <g id="patch_39">
    <path d="M 304.272879 415.598594 
L 304.272879 300.638594 
" style="fill: none; stroke: #000000; stroke-width: 0.8; stroke-linejoin: miter; stroke-linecap: square"/>
   </g>
   <g id="patch_40">
    <path d="M 181.319601 415.598594 
L 304.272879 415.598594 
" style="fill: none; stroke: #000000; stroke-width: 0.8; stroke-linejoin: miter; stroke-linecap: square"/>
   </g>
   <g id="patch_41">
    <path d="M 181.319601 300.638594 
L 304.272879 300.638594 
" style="fill: none; stroke: #000000; stroke-width: 0.8; stroke-linejoin: miter; stroke-linecap: square"/>
   </g>
   <g id="text_38">
    <!-- Timer -->
    <g transform="translate(229.936084 294.638594)scale(0.09 -0.09)">
     <use xlink:href="#DejaVuSans-54"/>
     <use xlink:href="#DejaVuSans-69" x="57.958984"/>
     <use xlink:href="#DejaVuSans-6d" x="85.742188"/>
     <use xlink:href="#DejaVuSans-65" x="183.154297"/>
     <use xlink:href="#DejaVuSans-72" x="244.677734"/>
    </g>
   </g>
  </g>
  <g id="axes_9">
   <g id="patch_42">
    <path d="M 316.30264 415.598594 
L 439.255918 415.598594 
L 439.255918 300.638594 
L 316.30264 300.638594 
z
" style="fill: #ffffff"/>
   </g>
   <g id="matplotlib.axis_17">
    <g id="xtick_41">
     <g id="line2d_117">
      <g>
       <use xlink:href="#ma98f3bd3db" x="320.156975" y="415.598594" style="stroke: #000000; stroke-width: 0.8"/>
      </g>
     </g>
     <g id="text_39">
      <!-- 0.90 -->
      <g transform="translate(311.250725 428.677344)scale(0.08 -0.08)">
       <use xlink:href="#DejaVuSans-30"/>
       <use xlink:href="#DejaVuSans-2e" x="63.623047"/>
       <use xlink:href="#DejaVuSans-39" x="95.410156"/>
       <use xlink:href="#DejaVuSans-30" x="159.033203"/>
      </g>
     </g>
    </g>
    <g id="xtick_42">
     <g id="line2d_118">
      <g>
       <use xlink:href="#ma98f3bd3db" x="348.004544" y="415.598594" style="stroke: #000000; stroke-width: 0.8"/>
      </g>
     </g>
     <g id="text_40">
      <!-- 0.95 -->
      <g transform="translate(339.098294 428.677344)scale(0.08 -0.08)">
       <use xlink:href="#DejaVuSans-30"/>
       <use xlink:href="#DejaVuSans-2e" x="63.623047"/>
       <use xlink:href="#DejaVuSans-39" x="95.410156"/>
       <use xlink:href="#DejaVuSans-35" x="159.033203"/>
      </g>
     </g>
    </g>
    <g id="xtick_43">
     <g id="line2d_119">
      <g>
       <use xlink:href="#ma98f3bd3db" x="375.852112" y="415.598594" style="stroke: #000000; stroke-width: 0.8"/>
      </g>
     </g>
     <g id="text_41">
      <!-- 1.00 -->
      <g transform="translate(366.945862 428.677344)scale(0.08 -0.08)">
       <use xlink:href="#DejaVuSans-31"/>
       <use xlink:href="#DejaVuSans-2e" x="63.623047"/>
       <use xlink:href="#DejaVuSans-30" x="95.410156"/>
       <use xlink:href="#DejaVuSans-30" x="159.033203"/>
      </g>
     </g>
    </g>
    <g id="xtick_44">
     <g id="line2d_120">
      <g>
       <use xlink:href="#ma98f3bd3db" x="403.69968" y="415.598594" style="stroke: #000000; stroke-width: 0.8"/>
      </g>
     </g>
     <g id="text_42">
      <!-- 1.05 -->
      <g transform="translate(394.79343 428.677344)scale(0.08 -0.08)">
       <use xlink:href="#DejaVuSans-31"/>
       <use xlink:href="#DejaVuSans-2e" x="63.623047"/>
       <use xlink:href="#DejaVuSans-30" x="95.410156"/>
       <use xlink:href="#DejaVuSans-35" x="159.033203"/>
      </g>
     </g>
    </g>
    <g id="xtick_45">
     <g id="line2d_121">
      <g>
       <use xlink:href="#ma98f3bd3db" x="431.547249" y="415.598594" style="stroke: #000000; stroke-width: 0.8"/>
      </g>
     </g>
     <g id="text_43">
      <!-- 1.10 -->
      <g transform="translate(422.640999 428.677344)scale(0.08 -0.08)">
       <use xlink:href="#DejaVuSans-31"/>
       <use xlink:href="#DejaVuSans-2e" x="63.623047"/>
       <use xlink:href="#DejaVuSans-31" x="95.410156"/>
       <use xlink:href="#DejaVuSans-30" x="159.033203"/>
      </g>
     </g>
    </g>
    <g id="text_44">
     <!-- param value norm. -->
     <g transform="translate(334.831701 441.179687)scale(0.09 -0.09)">
      <use xlink:href="#DejaVuSans-70"/>
      <use xlink:href="#DejaVuSans-61" x="63.476562"/>
      <use xlink:href="#DejaVuSans-72" x="124.755859"/>
      <use xlink:href="#DejaVuSans-61" x="165.869141"/>
      <use xlink:href="#DejaVuSans-6d" x="227.148438"/>
      <use xlink:href="#DejaVuSans-20" x="324.560547"/>
      <use xlink:href="#DejaVuSans-76" x="356.347656"/>
      <use xlink:href="#DejaVuSans-61" x="415.527344"/>
      <use xlink:href="#DejaVuSans-6c" x="476.806641"/>
      <use xlink:href="#DejaVuSans-75" x="504.589844"/>
      <use xlink:href="#DejaVuSans-65" x="567.96875"/>
      <use xlink:href="#DejaVuSans-20" x="629.492188"/>
      <use xlink:href="#DejaVuSans-6e" x="661.279297"/>
      <use xlink:href="#DejaVuSans-6f" x="724.658203"/>
      <use xlink:href="#DejaVuSans-72" x="785.839844"/>
      <use xlink:href="#DejaVuSans-6d" x="825.203125"/>
      <use xlink:href="#DejaVuSans-2e" x="922.615234"/>
     </g>
    </g>
   </g>
   <g id="matplotlib.axis_18">
    <g id="ytick_41">
     <g id="line2d_122">
      <g>
       <use xlink:href="#m33f914707f" x="316.30264" y="415.598594" style="stroke: #000000; stroke-width: 0.8"/>
      </g>
     </g>
    </g>
    <g id="ytick_42">
     <g id="line2d_123">
      <g>
       <use xlink:href="#m33f914707f" x="316.30264" y="386.858594" style="stroke: #000000; stroke-width: 0.8"/>
      </g>
     </g>
    </g>
    <g id="ytick_43">
     <g id="line2d_124">
      <g>
       <use xlink:href="#m33f914707f" x="316.30264" y="358.118594" style="stroke: #000000; stroke-width: 0.8"/>
      </g>
     </g>
    </g>
    <g id="ytick_44">
     <g id="line2d_125">
      <g>
       <use xlink:href="#m33f914707f" x="316.30264" y="329.378594" style="stroke: #000000; stroke-width: 0.8"/>
      </g>
     </g>
    </g>
    <g id="ytick_45">
     <g id="line2d_126">
      <g>
       <use xlink:href="#m33f914707f" x="316.30264" y="300.638594" style="stroke: #000000; stroke-width: 0.8"/>
      </g>
     </g>
    </g>
   </g>
   <g id="line2d_127">
    <path d="M 321.891426 356.308501 
L 325.745761 356.837639 
L 329.600095 355.893183 
L 333.45443 356.422473 
L 337.308765 356.951727 
L 341.163099 356.313802 
L 345.017434 356.843422 
L 348.871769 356.954475 
L 352.726104 357.485429 
L 356.580438 357.45218 
L 360.434773 357.985206 
L 364.289108 357.662435 
L 368.143442 358.198471 
L 371.997777 357.57985 
L 375.852112 358.118594 
L 379.706447 357.341302 
L 383.560781 357.881619 
L 387.415116 357.040273 
L 391.269451 357.581468 
L 395.123785 356.712315 
L 398.97812 357.254034 
L 402.832455 356.371446 
L 406.68679 356.9135 
L 410.541124 357.455516 
L 414.395459 356.529432 
L 418.249794 357.071642 
L 422.104129 356.455989 
L 425.958463 356.998574 
L 429.812798 357.151387 
L 433.667133 357.695234 
" clip-path="url(#p0a3e9715bc)" style="fill: none; stroke: #4c72b0; stroke-width: 1.5; stroke-linecap: square"/>
   </g>
   <g id="line2d_128">
    <path d="M 321.891426 350.420111 
L 325.745761 351.477135 
L 329.600095 351.388363 
L 333.45443 352.436891 
L 337.308765 353.480629 
L 341.163099 353.387039 
L 345.017434 354.422726 
L 348.871769 354.339767 
L 352.726104 355.367762 
L 356.580438 355.278449 
L 360.434773 356.298993 
L 364.289108 356.202485 
L 368.143442 357.215803 
L 371.997777 357.112287 
L 375.852112 358.118594 
L 379.706447 358.008199 
L 383.560781 359.0077 
L 387.415116 358.890694 
L 391.269451 359.883587 
L 395.123785 359.760084 
L 398.97812 360.746556 
L 402.832455 360.61671 
L 406.68679 361.596944 
L 410.541124 362.573468 
L 414.395459 362.434204 
L 418.249794 363.40475 
L 422.104129 363.267102 
L 425.958463 364.231872 
L 429.812798 364.109048 
L 433.667133 365.068302 
" clip-path="url(#p0a3e9715bc)" style="fill: none; stroke: #dd8452; stroke-width: 1.5; stroke-linecap: square"/>
   </g>
   <g id="line2d_129">
    <path d="M 321.891426 359.166909 
L 325.745761 359.168473 
L 329.600095 359.142287 
L 333.45443 359.143643 
L 337.308765 359.144997 
L 341.163099 359.096925 
L 345.017434 359.098231 
L 348.871769 358.948945 
L 352.726104 358.95062 
L 356.580438 358.724904 
L 360.434773 358.727381 
L 364.289108 358.404419 
L 368.143442 358.407923 
L 371.997777 358.115296 
L 375.852112 358.118594 
L 379.706447 357.943158 
L 383.560781 357.94577 
L 387.415116 357.84333 
L 391.269451 357.845428 
L 395.123785 357.780135 
L 398.97812 357.781882 
L 402.832455 357.736881 
L 406.68679 357.738379 
L 410.541124 357.739875 
L 414.395459 357.709769 
L 418.249794 357.711068 
L 422.104129 357.662853 
L 425.958463 357.664103 
L 429.812798 357.524675 
L 433.667133 357.52625 
" clip-path="url(#p0a3e9715bc)" style="fill: none; stroke: #55a868; stroke-width: 1.5; stroke-linecap: square"/>
   </g>
   <g id="line2d_130">
    <path d="M 321.891426 350.36986 
L 325.745761 350.968607 
L 329.600095 351.450737 
L 333.45443 352.057368 
L 337.308765 352.66847 
L 341.163099 353.160614 
L 345.017434 353.779931 
L 348.871769 354.278736 
L 352.726104 354.906492 
L 356.580438 355.41214 
L 360.434773 355.920891 
L 364.289108 356.432782 
L 368.143442 357.077122 
L 371.997777 357.466143 
L 375.852112 358.118594 
L 379.706447 358.512543 
L 383.560781 359.040736 
L 387.415116 359.572316 
L 391.269451 360.107325 
L 395.123785 360.510859 
L 398.97812 361.051977 
L 402.832455 361.460146 
L 406.68679 362.007515 
L 410.541124 362.558521 
L 414.395459 362.974192 
L 418.249794 363.53168 
L 422.104129 363.95227 
L 425.958463 364.516396 
L 429.812798 364.942022 
L 433.667133 365.369845 
" clip-path="url(#p0a3e9715bc)" style="fill: none; stroke: #c44e52; stroke-width: 1.5; stroke-linecap: square"/>
   </g>
   <g id="patch_43">
    <path d="M 316.30264 415.598594 
L 316.30264 300.638594 
" style="fill: none; stroke: #000000; stroke-width: 0.8; stroke-linejoin: miter; stroke-linecap: square"/>
   </g>
   <g id="patch_44">
    <path d="M 439.255918 415.598594 
L 439.255918 300.638594 
" style="fill: none; stroke: #000000; stroke-width: 0.8; stroke-linejoin: miter; stroke-linecap: square"/>
   </g>
   <g id="patch_45">
    <path d="M 316.30264 415.598594 
L 439.255918 415.598594 
" style="fill: none; stroke: #000000; stroke-width: 0.8; stroke-linejoin: miter; stroke-linecap: square"/>
   </g>
   <g id="patch_46">
    <path d="M 316.30264 300.638594 
L 439.255918 300.638594 
" style="fill: none; stroke: #000000; stroke-width: 0.8; stroke-linejoin: miter; stroke-linecap: square"/>
   </g>
   <g id="text_45">
    <!-- Carry -->
    <g transform="translate(365.594826 294.638594)scale(0.09 -0.09)">
     <use xlink:href="#DejaVuSans-43"/>
     <use xlink:href="#DejaVuSans-61" x="69.824219"/>
     <use xlink:href="#DejaVuSans-72" x="131.103516"/>
     <use xlink:href="#DejaVuSans-72" x="170.466797"/>
     <use xlink:href="#DejaVuSans-79" x="211.580078"/>
    </g>
   </g>
  </g>
  <g id="legend_1">
   <g id="text_46">
    <!-- readout -->
    <g transform="translate(461.132243 203.848203)scale(0.08 -0.08)">
     <defs>
      <path id="DejaVuSans-64" d="M 2906 2969 
L 2906 4863 
L 3481 4863 
L 3481 0 
L 2906 0 
L 2906 525 
Q 2725 213 2448 61 
Q 2172 -91 1784 -91 
Q 1150 -91 751 415 
Q 353 922 353 1747 
Q 353 2572 751 3078 
Q 1150 3584 1784 3584 
Q 2172 3584 2448 3432 
Q 2725 3281 2906 2969 
z
M 947 1747 
Q 947 1113 1208 752 
Q 1469 391 1925 391 
Q 2381 391 2643 752 
Q 2906 1113 2906 1747 
Q 2906 2381 2643 2742 
Q 2381 3103 1925 3103 
Q 1469 3103 1208 2742 
Q 947 2381 947 1747 
z
" transform="scale(0.015625)"/>
     </defs>
     <use xlink:href="#DejaVuSans-72"/>
     <use xlink:href="#DejaVuSans-65" x="38.863281"/>
     <use xlink:href="#DejaVuSans-61" x="100.386719"/>
     <use xlink:href="#DejaVuSans-64" x="161.666016"/>
     <use xlink:href="#DejaVuSans-6f" x="225.142578"/>
     <use xlink:href="#DejaVuSans-75" x="286.324219"/>
     <use xlink:href="#DejaVuSans-74" x="349.703125"/>
    </g>
   </g>
   <g id="line2d_131">
    <path d="M 446.956618 212.790703 
L 454.956618 212.790703 
L 462.956618 212.790703 
" style="fill: none; stroke: #4c72b0; stroke-width: 1.5; stroke-linecap: square"/>
   </g>
   <g id="text_47">
    <!-- Peak -->
    <g transform="translate(469.356618 215.590703)scale(0.08 -0.08)">
     <defs>
      <path id="DejaVuSans-50" d="M 1259 4147 
L 1259 2394 
L 2053 2394 
Q 2494 2394 2734 2622 
Q 2975 2850 2975 3272 
Q 2975 3691 2734 3919 
Q 2494 4147 2053 4147 
L 1259 4147 
z
M 628 4666 
L 2053 4666 
Q 2838 4666 3239 4311 
Q 3641 3956 3641 3272 
Q 3641 2581 3239 2228 
Q 2838 1875 2053 1875 
L 1259 1875 
L 1259 0 
L 628 0 
L 628 4666 
z
" transform="scale(0.015625)"/>
      <path id="DejaVuSans-6b" d="M 581 4863 
L 1159 4863 
L 1159 1991 
L 2875 3500 
L 3609 3500 
L 1753 1863 
L 3688 0 
L 2938 0 
L 1159 1709 
L 1159 0 
L 581 0 
L 581 4863 
z
" transform="scale(0.015625)"/>
     </defs>
     <use xlink:href="#DejaVuSans-50"/>
     <use xlink:href="#DejaVuSans-65" x="56.677734"/>
     <use xlink:href="#DejaVuSans-61" x="118.201172"/>
     <use xlink:href="#DejaVuSans-6b" x="179.480469"/>
    </g>
   </g>
   <g id="line2d_132">
    <path d="M 446.956618 224.533203 
L 454.956618 224.533203 
L 462.956618 224.533203 
" style="fill: none; stroke: #dd8452; stroke-width: 1.5; stroke-linecap: square"/>
   </g>
   <g id="text_48">
    <!-- Area -->
    <g transform="translate(469.356618 227.333203)scale(0.08 -0.08)">
     <defs>
      <path id="DejaVuSans-41" d="M 2188 4044 
L 1331 1722 
L 3047 1722 
L 2188 4044 
z
M 1831 4666 
L 2547 4666 
L 4325 0 
L 3669 0 
L 3244 1197 
L 1141 1197 
L 716 0 
L 50 0 
L 1831 4666 
z
" transform="scale(0.015625)"/>
     </defs>
     <use xlink:href="#DejaVuSans-41"/>
     <use xlink:href="#DejaVuSans-72" x="68.408203"/>
     <use xlink:href="#DejaVuSans-65" x="107.271484"/>
     <use xlink:href="#DejaVuSans-61" x="168.794922"/>
    </g>
   </g>
   <g id="line2d_133">
    <path d="M 446.956618 236.275703 
L 454.956618 236.275703 
L 462.956618 236.275703 
" style="fill: none; stroke: #55a868; stroke-width: 1.5; stroke-linecap: square"/>
   </g>
   <g id="text_49">
    <!-- Peaktime -->
    <g transform="translate(469.356618 239.075703)scale(0.08 -0.08)">
     <use xlink:href="#DejaVuSans-50"/>
     <use xlink:href="#DejaVuSans-65" x="56.677734"/>
     <use xlink:href="#DejaVuSans-61" x="118.201172"/>
     <use xlink:href="#DejaVuSans-6b" x="179.480469"/>
     <use xlink:href="#DejaVuSans-74" x="237.390625"/>
     <use xlink:href="#DejaVuSans-69" x="276.599609"/>
     <use xlink:href="#DejaVuSans-6d" x="304.382812"/>
     <use xlink:href="#DejaVuSans-65" x="401.794922"/>
    </g>
   </g>
   <g id="line2d_134">
    <path d="M 446.956618 248.018203 
L 454.956618 248.018203 
L 462.956618 248.018203 
" style="fill: none; stroke: #c44e52; stroke-width: 1.5; stroke-linecap: square"/>
   </g>
   <g id="text_50">
    <!-- Decay -->
    <g transform="translate(469.356618 250.818203)scale(0.08 -0.08)">
     <defs>
      <path id="DejaVuSans-44" d="M 1259 4147 
L 1259 519 
L 2022 519 
Q 2988 519 3436 956 
Q 3884 1394 3884 2338 
Q 3884 3275 3436 3711 
Q 2988 4147 2022 4147 
L 1259 4147 
z
M 628 4666 
L 1925 4666 
Q 3281 4666 3915 4102 
Q 4550 3538 4550 2338 
Q 4550 1131 3912 565 
Q 3275 0 1925 0 
L 628 0 
L 628 4666 
z
" transform="scale(0.015625)"/>
     </defs>
     <use xlink:href="#DejaVuSans-44"/>
     <use xlink:href="#DejaVuSans-65" x="77.001953"/>
     <use xlink:href="#DejaVuSans-63" x="138.525391"/>
     <use xlink:href="#DejaVuSans-61" x="193.505859"/>
     <use xlink:href="#DejaVuSans-79" x="254.785156"/>
    </g>
   </g>
  </g>
 </g>
 <defs>
  <clipPath id="p9b68390b28">
   <rect x="46.336562" y="20.038594" width="122.953278" height="114.96"/>
  </clipPath>
  <clipPath id="p416cc2930d">
   <rect x="181.319601" y="20.038594" width="122.953278" height="114.96"/>
  </clipPath>
  <clipPath id="pe71b2eef4c">
   <rect x="316.30264" y="20.038594" width="122.953278" height="114.96"/>
  </clipPath>
  <clipPath id="p2823f8b176">
   <rect x="46.336562" y="160.338594" width="122.953278" height="114.96"/>
  </clipPath>
  <clipPath id="p05293fb30b">
   <rect x="181.319601" y="160.338594" width="122.953278" height="114.96"/>
  </clipPath>
  <clipPath id="p690fa823d2">
   <rect x="316.30264" y="160.338594" width="122.953278" height="114.96"/>
  </clipPath>
  <clipPath id="p37ddac72ed">
   <rect x="46.336562" y="300.638594" width="122.953278" height="114.96"/>
  </clipPath>
  <clipPath id="p587eb53a4c">
   <rect x="181.319601" y="300.638594" width="122.953278" height="114.96"/>
  </clipPath>
  <clipPath id="p0a3e9715bc">
   <rect x="316.30264" y="300.638594" width="122.953278" height="114.96"/>
  </clipPath>
 </defs>
</svg>
