<?xml version="1.0" encoding="utf-8" standalone="no"?>
<!DOCTYPE svg PUBLIC "-//W3C//DTD SVG 1.1//EN"
  "http://www.w3.org/Graphics/SVG/1.1/DTD/svg11.dtd">
<svg xmlns:xlink="http://www.w3.org/1999/xlink" width="376.749312pt" height="316.2975pt" viewBox="0 0 376.749312 316.2975" xmlns="http://www.w3.org/2000/svg" version="1.1">
 <metadata>
  <rdf:RDF xmlns:dc="http://purl.org/dc/elements/1.1/" xmlns:cc="http://creativecommons.org/ns#" xmlns:rdf="http://www.w3.org/1999/02/22-rdf-syntax-ns#">
   <cc:Work>
    <dc:type rdf:resource="http://purl.org/dc/dcmitype/StillImage"/>
    <dc:date>2022-08-11T19:22:08.249294</dc:date>
    <dc:format>image/svg+xml</dc:format>
    <dc:creator>
     <cc:Agent>
      <dc:title>Matplotlib v3.5.1, https://matplotlib.org/</dc:title>
     </cc:Agent>
    </dc:creator>
   </cc:Work>
  </rdf:RDF>
 </metadata>
 <defs>
  <style type="text/css">*{stroke-linejoin: round; stroke-linecap: butt}</style>
 </defs>
 <g id="figure_1">
  <g id="patch_1">
   <path d="M 0 316.2975 
L 376.749312 316.2975 
L 376.749312 0 
L 0 0 
z
" style="fill: #ffffff"/>
  </g>
  <g id="axes_1">
   <g id="patch_2">
    <path d="M 41.223281 89.310469 
L 119.692296 89.310469 
L 119.692296 19.751719 
L 41.223281 19.751719 
z
" style="fill: #ffffff"/>
   </g>
   <g id="matplotlib.axis_1">
    <g id="xtick_1">
     <g id="line2d_1">
      <defs>
       <path id="m5b6d7c6f01" d="M 0 0 
L 0 4 
" style="stroke: #262626; stroke-width: 0.8"/>
      </defs>
      <g>
       <use xlink:href="#m5b6d7c6f01" x="43.683125" y="89.310469" style="fill: #262626; stroke: #262626; stroke-width: 0.8"/>
      </g>
     </g>
    </g>
    <g id="xtick_2">
     <g id="line2d_2">
      <g>
       <use xlink:href="#m5b6d7c6f01" x="79.227867" y="89.310469" style="fill: #262626; stroke: #262626; stroke-width: 0.8"/>
      </g>
     </g>
    </g>
    <g id="xtick_3">
     <g id="line2d_3">
      <g>
       <use xlink:href="#m5b6d7c6f01" x="114.772609" y="89.310469" style="fill: #262626; stroke: #262626; stroke-width: 0.8"/>
      </g>
     </g>
    </g>
   </g>
   <g id="matplotlib.axis_2">
    <g id="ytick_1">
     <g id="line2d_4">
      <defs>
       <path id="mb411e4ac84" d="M 0 0 
L -4 0 
" style="stroke: #262626; stroke-width: 0.8"/>
      </defs>
      <g>
       <use xlink:href="#mb411e4ac84" x="41.223281" y="89.310469" style="fill: #262626; stroke: #262626; stroke-width: 0.8"/>
      </g>
     </g>
     <g id="text_1">
      <!-- −1.0 -->
      <g style="fill: #262626" transform="translate(19.430781 92.173594)scale(0.08 -0.08)">
       <defs>
        <path id="ArialMT-2212" d="M 3381 1997 
L 356 1997 
L 356 2522 
L 3381 2522 
L 3381 1997 
z
" transform="scale(0.015625)"/>
        <path id="ArialMT-31" d="M 2384 0 
L 1822 0 
L 1822 3584 
Q 1619 3391 1289 3197 
Q 959 3003 697 2906 
L 697 3450 
Q 1169 3672 1522 3987 
Q 1875 4303 2022 4600 
L 2384 4600 
L 2384 0 
z
" transform="scale(0.015625)"/>
        <path id="ArialMT-2e" d="M 581 0 
L 581 641 
L 1222 641 
L 1222 0 
L 581 0 
z
" transform="scale(0.015625)"/>
        <path id="ArialMT-30" d="M 266 2259 
Q 266 3072 433 3567 
Q 600 4063 929 4331 
Q 1259 4600 1759 4600 
Q 2128 4600 2406 4451 
Q 2684 4303 2865 4023 
Q 3047 3744 3150 3342 
Q 3253 2941 3253 2259 
Q 3253 1453 3087 958 
Q 2922 463 2592 192 
Q 2263 -78 1759 -78 
Q 1097 -78 719 397 
Q 266 969 266 2259 
z
M 844 2259 
Q 844 1131 1108 757 
Q 1372 384 1759 384 
Q 2147 384 2411 759 
Q 2675 1134 2675 2259 
Q 2675 3391 2411 3762 
Q 2147 4134 1753 4134 
Q 1366 4134 1134 3806 
Q 844 3388 844 2259 
z
" transform="scale(0.015625)"/>
       </defs>
       <use xlink:href="#ArialMT-2212"/>
       <use xlink:href="#ArialMT-31" x="58.398438"/>
       <use xlink:href="#ArialMT-2e" x="114.013672"/>
       <use xlink:href="#ArialMT-30" x="141.796875"/>
      </g>
     </g>
    </g>
    <g id="ytick_2">
     <g id="line2d_5">
      <g>
       <use xlink:href="#mb411e4ac84" x="41.223281" y="71.920781" style="fill: #262626; stroke: #262626; stroke-width: 0.8"/>
      </g>
     </g>
     <g id="text_2">
      <!-- −0.5 -->
      <g style="fill: #262626" transform="translate(19.430781 74.783906)scale(0.08 -0.08)">
       <defs>
        <path id="ArialMT-35" d="M 266 1200 
L 856 1250 
Q 922 819 1161 601 
Q 1400 384 1738 384 
Q 2144 384 2425 690 
Q 2706 997 2706 1503 
Q 2706 1984 2436 2262 
Q 2166 2541 1728 2541 
Q 1456 2541 1237 2417 
Q 1019 2294 894 2097 
L 366 2166 
L 809 4519 
L 3088 4519 
L 3088 3981 
L 1259 3981 
L 1013 2750 
Q 1425 3038 1878 3038 
Q 2478 3038 2890 2622 
Q 3303 2206 3303 1553 
Q 3303 931 2941 478 
Q 2500 -78 1738 -78 
Q 1113 -78 717 272 
Q 322 622 266 1200 
z
" transform="scale(0.015625)"/>
       </defs>
       <use xlink:href="#ArialMT-2212"/>
       <use xlink:href="#ArialMT-30" x="58.398438"/>
       <use xlink:href="#ArialMT-2e" x="114.013672"/>
       <use xlink:href="#ArialMT-35" x="141.796875"/>
      </g>
     </g>
    </g>
    <g id="ytick_3">
     <g id="line2d_6">
      <g>
       <use xlink:href="#mb411e4ac84" x="41.223281" y="54.531094" style="fill: #262626; stroke: #262626; stroke-width: 0.8"/>
      </g>
     </g>
     <g id="text_3">
      <!-- 0.0 -->
      <g style="fill: #262626" transform="translate(24.103281 57.394219)scale(0.08 -0.08)">
       <use xlink:href="#ArialMT-30"/>
       <use xlink:href="#ArialMT-2e" x="55.615234"/>
       <use xlink:href="#ArialMT-30" x="83.398438"/>
      </g>
     </g>
    </g>
    <g id="ytick_4">
     <g id="line2d_7">
      <g>
       <use xlink:href="#mb411e4ac84" x="41.223281" y="37.141406" style="fill: #262626; stroke: #262626; stroke-width: 0.8"/>
      </g>
     </g>
     <g id="text_4">
      <!-- 0.5 -->
      <g style="fill: #262626" transform="translate(24.103281 40.004531)scale(0.08 -0.08)">
       <use xlink:href="#ArialMT-30"/>
       <use xlink:href="#ArialMT-2e" x="55.615234"/>
       <use xlink:href="#ArialMT-35" x="83.398438"/>
      </g>
     </g>
    </g>
    <g id="ytick_5">
     <g id="line2d_8">
      <g>
       <use xlink:href="#mb411e4ac84" x="41.223281" y="19.751719" style="fill: #262626; stroke: #262626; stroke-width: 0.8"/>
      </g>
     </g>
     <g id="text_5">
      <!-- 1.0 -->
      <g style="fill: #262626" transform="translate(24.103281 22.614844)scale(0.08 -0.08)">
       <use xlink:href="#ArialMT-31"/>
       <use xlink:href="#ArialMT-2e" x="55.615234"/>
       <use xlink:href="#ArialMT-30" x="83.398438"/>
      </g>
     </g>
    </g>
    <g id="text_6">
     <!-- effect size -->
     <g style="fill: #262626" transform="translate(13.642031 74.710078)rotate(-90)scale(0.09 -0.09)">
      <defs>
       <path id="ArialMT-65" d="M 2694 1069 
L 3275 997 
Q 3138 488 2766 206 
Q 2394 -75 1816 -75 
Q 1088 -75 661 373 
Q 234 822 234 1631 
Q 234 2469 665 2931 
Q 1097 3394 1784 3394 
Q 2450 3394 2872 2941 
Q 3294 2488 3294 1666 
Q 3294 1616 3291 1516 
L 816 1516 
Q 847 969 1125 678 
Q 1403 388 1819 388 
Q 2128 388 2347 550 
Q 2566 713 2694 1069 
z
M 847 1978 
L 2700 1978 
Q 2663 2397 2488 2606 
Q 2219 2931 1791 2931 
Q 1403 2931 1139 2672 
Q 875 2413 847 1978 
z
" transform="scale(0.015625)"/>
       <path id="ArialMT-66" d="M 556 0 
L 556 2881 
L 59 2881 
L 59 3319 
L 556 3319 
L 556 3672 
Q 556 4006 616 4169 
Q 697 4388 901 4523 
Q 1106 4659 1475 4659 
Q 1713 4659 2000 4603 
L 1916 4113 
Q 1741 4144 1584 4144 
Q 1328 4144 1222 4034 
Q 1116 3925 1116 3625 
L 1116 3319 
L 1763 3319 
L 1763 2881 
L 1116 2881 
L 1116 0 
L 556 0 
z
" transform="scale(0.015625)"/>
       <path id="ArialMT-63" d="M 2588 1216 
L 3141 1144 
Q 3050 572 2676 248 
Q 2303 -75 1759 -75 
Q 1078 -75 664 370 
Q 250 816 250 1647 
Q 250 2184 428 2587 
Q 606 2991 970 3192 
Q 1334 3394 1763 3394 
Q 2303 3394 2647 3120 
Q 2991 2847 3088 2344 
L 2541 2259 
Q 2463 2594 2264 2762 
Q 2066 2931 1784 2931 
Q 1359 2931 1093 2626 
Q 828 2322 828 1663 
Q 828 994 1084 691 
Q 1341 388 1753 388 
Q 2084 388 2306 591 
Q 2528 794 2588 1216 
z
" transform="scale(0.015625)"/>
       <path id="ArialMT-74" d="M 1650 503 
L 1731 6 
Q 1494 -44 1306 -44 
Q 1000 -44 831 53 
Q 663 150 594 308 
Q 525 466 525 972 
L 525 2881 
L 113 2881 
L 113 3319 
L 525 3319 
L 525 4141 
L 1084 4478 
L 1084 3319 
L 1650 3319 
L 1650 2881 
L 1084 2881 
L 1084 941 
Q 1084 700 1114 631 
Q 1144 563 1211 522 
Q 1278 481 1403 481 
Q 1497 481 1650 503 
z
" transform="scale(0.015625)"/>
       <path id="ArialMT-20" transform="scale(0.015625)"/>
       <path id="ArialMT-73" d="M 197 991 
L 753 1078 
Q 800 744 1014 566 
Q 1228 388 1613 388 
Q 2000 388 2187 545 
Q 2375 703 2375 916 
Q 2375 1106 2209 1216 
Q 2094 1291 1634 1406 
Q 1016 1563 777 1677 
Q 538 1791 414 1992 
Q 291 2194 291 2438 
Q 291 2659 392 2848 
Q 494 3038 669 3163 
Q 800 3259 1026 3326 
Q 1253 3394 1513 3394 
Q 1903 3394 2198 3281 
Q 2494 3169 2634 2976 
Q 2775 2784 2828 2463 
L 2278 2388 
Q 2241 2644 2061 2787 
Q 1881 2931 1553 2931 
Q 1166 2931 1000 2803 
Q 834 2675 834 2503 
Q 834 2394 903 2306 
Q 972 2216 1119 2156 
Q 1203 2125 1616 2013 
Q 2213 1853 2448 1751 
Q 2684 1650 2818 1456 
Q 2953 1263 2953 975 
Q 2953 694 2789 445 
Q 2625 197 2315 61 
Q 2006 -75 1616 -75 
Q 969 -75 630 194 
Q 291 463 197 991 
z
" transform="scale(0.015625)"/>
       <path id="ArialMT-69" d="M 425 3934 
L 425 4581 
L 988 4581 
L 988 3934 
L 425 3934 
z
M 425 0 
L 425 3319 
L 988 3319 
L 988 0 
L 425 0 
z
" transform="scale(0.015625)"/>
       <path id="ArialMT-7a" d="M 125 0 
L 125 456 
L 2238 2881 
Q 1878 2863 1603 2863 
L 250 2863 
L 250 3319 
L 2963 3319 
L 2963 2947 
L 1166 841 
L 819 456 
Q 1197 484 1528 484 
L 3063 484 
L 3063 0 
L 125 0 
z
" transform="scale(0.015625)"/>
      </defs>
      <use xlink:href="#ArialMT-65"/>
      <use xlink:href="#ArialMT-66" x="55.615234"/>
      <use xlink:href="#ArialMT-66" x="81.648438"/>
      <use xlink:href="#ArialMT-65" x="109.431641"/>
      <use xlink:href="#ArialMT-63" x="165.046875"/>
      <use xlink:href="#ArialMT-74" x="215.046875"/>
      <use xlink:href="#ArialMT-20" x="242.830078"/>
      <use xlink:href="#ArialMT-73" x="270.613281"/>
      <use xlink:href="#ArialMT-69" x="320.613281"/>
      <use xlink:href="#ArialMT-7a" x="342.830078"/>
      <use xlink:href="#ArialMT-65" x="392.830078"/>
     </g>
    </g>
   </g>
   <g id="line2d_9">
    <path d="M 44.790055 51.972292 
L 47.249898 52.167537 
L 49.709742 52.36075 
L 52.169586 52.55195 
L 54.62943 52.741227 
L 57.089273 52.928408 
L 59.549117 53.113862 
L 62.008961 53.297239 
L 64.468805 53.478875 
L 66.928648 53.65866 
L 69.388492 53.836708 
L 71.848336 54.012856 
L 74.30818 54.187311 
L 76.768023 54.359981 
L 79.227867 54.531094 
L 81.687711 54.700544 
L 84.147554 54.868107 
L 86.607398 55.034299 
L 89.067242 55.198814 
L 91.527086 55.361754 
L 93.986929 55.523134 
L 96.446773 55.683022 
L 98.906617 55.841383 
L 101.366461 55.998257 
L 103.826304 56.153489 
L 106.286148 56.30767 
L 108.745992 56.460226 
L 111.205836 56.611388 
L 113.665679 56.761175 
L 116.125523 56.909578 
" clip-path="url(#p2e8a1b3c00)" style="fill: none; stroke: #4c72b0; stroke-linecap: round"/>
   </g>
   <g id="line2d_10">
    <path d="M 44.790055 52.268924 
L 47.249898 52.441962 
L 49.709742 52.61314 
L 52.169586 52.78246 
L 54.62943 52.950013 
L 57.089273 53.115657 
L 59.549117 53.279675 
L 62.008961 53.441821 
L 64.468805 53.602344 
L 66.928648 53.761176 
L 69.388492 53.918406 
L 71.848336 54.073913 
L 74.30818 54.227873 
L 76.768023 54.380196 
L 79.227867 54.531094 
L 81.687711 54.680465 
L 84.147554 54.828117 
L 86.607398 54.974539 
L 89.067242 55.119411 
L 91.527086 55.262847 
L 93.986929 55.404869 
L 96.446773 55.545502 
L 98.906617 55.684769 
L 101.366461 55.822669 
L 103.826304 55.959044 
L 106.286148 56.094517 
L 108.745992 56.228486 
L 111.205836 56.361186 
L 113.665679 56.492636 
L 116.125523 56.622834 
" clip-path="url(#p2e8a1b3c00)" style="fill: none; stroke: #dd8452; stroke-linecap: round"/>
   </g>
   <g id="line2d_11">
    <path d="M 44.790055 53.697328 
L 47.249898 53.763396 
L 49.709742 53.828378 
L 52.169586 53.892251 
L 54.62943 53.955103 
L 57.089273 54.016877 
L 59.549117 54.077636 
L 62.008961 54.137421 
L 64.468805 54.196338 
L 66.928648 54.254314 
L 69.388492 54.311384 
L 71.848336 54.367529 
L 74.30818 54.422946 
L 76.768023 54.477346 
L 79.227867 54.531094 
L 81.687711 54.5839 
L 84.147554 54.635739 
L 86.607398 54.687107 
L 89.067242 54.737499 
L 91.527086 54.787117 
L 93.986929 54.835975 
L 96.446773 54.884104 
L 98.906617 54.931525 
L 101.366461 54.97825 
L 103.826304 55.024039 
L 106.286148 55.069679 
L 108.745992 55.114405 
L 111.205836 55.158483 
L 113.665679 55.201929 
L 116.125523 55.244753 
" clip-path="url(#p2e8a1b3c00)" style="fill: none; stroke: #55a868; stroke-linecap: round"/>
   </g>
   <g id="line2d_12">
    <path d="M 44.790055 54.298618 
L 47.249898 54.298618 
L 49.709742 54.298618 
L 52.169586 54.37599 
L 54.62943 54.37599 
L 57.089273 54.37599 
L 59.549117 54.37599 
L 62.008961 54.453482 
L 64.468805 54.453482 
L 66.928648 54.453482 
L 69.388492 54.453482 
L 71.848336 54.453482 
L 74.30818 54.531094 
L 76.768023 54.531094 
L 79.227867 54.531094 
L 81.687711 54.531094 
L 84.147554 54.531094 
L 86.607398 54.608826 
L 89.067242 54.608826 
L 91.527086 54.608826 
L 93.986929 54.608826 
L 96.446773 54.608826 
L 98.906617 54.686678 
L 101.366461 54.686678 
L 103.826304 54.686678 
L 106.286148 54.686678 
L 108.745992 54.686678 
L 111.205836 54.686678 
L 113.665679 54.764652 
L 116.125523 54.764652 
" clip-path="url(#p2e8a1b3c00)" style="fill: none; stroke: #c44e52; stroke-linecap: round"/>
   </g>
   <g id="line2d_13"/>
   <g id="line2d_14"/>
   <g id="line2d_15"/>
   <g id="line2d_16"/>
   <g id="patch_3">
    <path d="M 41.223281 89.310469 
L 41.223281 19.751719 
" style="fill: none; stroke: #262626; stroke-linejoin: miter; stroke-linecap: square"/>
   </g>
   <g id="patch_4">
    <path d="M 119.692296 89.310469 
L 119.692296 19.751719 
" style="fill: none; stroke: #262626; stroke-linejoin: miter; stroke-linecap: square"/>
   </g>
   <g id="patch_5">
    <path d="M 41.223281 89.310469 
L 119.692296 89.310469 
" style="fill: none; stroke: #262626; stroke-linejoin: miter; stroke-linecap: square"/>
   </g>
   <g id="patch_6">
    <path d="M 41.223281 19.751719 
L 119.692296 19.751719 
" style="fill: none; stroke: #262626; stroke-linejoin: miter; stroke-linecap: square"/>
   </g>
   <g id="text_7">
    <!-- beta_naive -->
    <g style="fill: #262626" transform="translate(58.440836 13.751719)scale(0.09 -0.09)">
     <defs>
      <path id="ArialMT-62" d="M 941 0 
L 419 0 
L 419 4581 
L 981 4581 
L 981 2947 
Q 1338 3394 1891 3394 
Q 2197 3394 2470 3270 
Q 2744 3147 2920 2923 
Q 3097 2700 3197 2384 
Q 3297 2069 3297 1709 
Q 3297 856 2875 390 
Q 2453 -75 1863 -75 
Q 1275 -75 941 416 
L 941 0 
z
M 934 1684 
Q 934 1088 1097 822 
Q 1363 388 1816 388 
Q 2184 388 2453 708 
Q 2722 1028 2722 1663 
Q 2722 2313 2464 2622 
Q 2206 2931 1841 2931 
Q 1472 2931 1203 2611 
Q 934 2291 934 1684 
z
" transform="scale(0.015625)"/>
      <path id="ArialMT-61" d="M 2588 409 
Q 2275 144 1986 34 
Q 1697 -75 1366 -75 
Q 819 -75 525 192 
Q 231 459 231 875 
Q 231 1119 342 1320 
Q 453 1522 633 1644 
Q 813 1766 1038 1828 
Q 1203 1872 1538 1913 
Q 2219 1994 2541 2106 
Q 2544 2222 2544 2253 
Q 2544 2597 2384 2738 
Q 2169 2928 1744 2928 
Q 1347 2928 1158 2789 
Q 969 2650 878 2297 
L 328 2372 
Q 403 2725 575 2942 
Q 747 3159 1072 3276 
Q 1397 3394 1825 3394 
Q 2250 3394 2515 3294 
Q 2781 3194 2906 3042 
Q 3031 2891 3081 2659 
Q 3109 2516 3109 2141 
L 3109 1391 
Q 3109 606 3145 398 
Q 3181 191 3288 0 
L 2700 0 
Q 2613 175 2588 409 
z
M 2541 1666 
Q 2234 1541 1622 1453 
Q 1275 1403 1131 1340 
Q 988 1278 909 1158 
Q 831 1038 831 891 
Q 831 666 1001 516 
Q 1172 366 1500 366 
Q 1825 366 2078 508 
Q 2331 650 2450 897 
Q 2541 1088 2541 1459 
L 2541 1666 
z
" transform="scale(0.015625)"/>
      <path id="ArialMT-5f" d="M -97 -1272 
L -97 -866 
L 3631 -866 
L 3631 -1272 
L -97 -1272 
z
" transform="scale(0.015625)"/>
      <path id="ArialMT-6e" d="M 422 0 
L 422 3319 
L 928 3319 
L 928 2847 
Q 1294 3394 1984 3394 
Q 2284 3394 2536 3286 
Q 2788 3178 2913 3003 
Q 3038 2828 3088 2588 
Q 3119 2431 3119 2041 
L 3119 0 
L 2556 0 
L 2556 2019 
Q 2556 2363 2490 2533 
Q 2425 2703 2258 2804 
Q 2091 2906 1866 2906 
Q 1506 2906 1245 2678 
Q 984 2450 984 1813 
L 984 0 
L 422 0 
z
" transform="scale(0.015625)"/>
      <path id="ArialMT-76" d="M 1344 0 
L 81 3319 
L 675 3319 
L 1388 1331 
Q 1503 1009 1600 663 
Q 1675 925 1809 1294 
L 2547 3319 
L 3125 3319 
L 1869 0 
L 1344 0 
z
" transform="scale(0.015625)"/>
     </defs>
     <use xlink:href="#ArialMT-62"/>
     <use xlink:href="#ArialMT-65" x="55.615234"/>
     <use xlink:href="#ArialMT-74" x="111.230469"/>
     <use xlink:href="#ArialMT-61" x="139.013672"/>
     <use xlink:href="#ArialMT-5f" x="194.628906"/>
     <use xlink:href="#ArialMT-6e" x="250.244141"/>
     <use xlink:href="#ArialMT-61" x="305.859375"/>
     <use xlink:href="#ArialMT-69" x="361.474609"/>
     <use xlink:href="#ArialMT-76" x="383.691406"/>
     <use xlink:href="#ArialMT-65" x="433.691406"/>
    </g>
   </g>
  </g>
  <g id="axes_2">
   <g id="patch_7">
    <path d="M 135.125839 89.310469 
L 213.594854 89.310469 
L 213.594854 19.751719 
L 135.125839 19.751719 
z
" style="fill: #ffffff"/>
   </g>
   <g id="matplotlib.axis_3">
    <g id="xtick_4">
     <g id="line2d_17">
      <g>
       <use xlink:href="#m5b6d7c6f01" x="137.585683" y="89.310469" style="fill: #262626; stroke: #262626; stroke-width: 0.8"/>
      </g>
     </g>
    </g>
    <g id="xtick_5">
     <g id="line2d_18">
      <g>
       <use xlink:href="#m5b6d7c6f01" x="173.130425" y="89.310469" style="fill: #262626; stroke: #262626; stroke-width: 0.8"/>
      </g>
     </g>
    </g>
    <g id="xtick_6">
     <g id="line2d_19">
      <g>
       <use xlink:href="#m5b6d7c6f01" x="208.675167" y="89.310469" style="fill: #262626; stroke: #262626; stroke-width: 0.8"/>
      </g>
     </g>
    </g>
   </g>
   <g id="matplotlib.axis_4">
    <g id="ytick_6">
     <g id="line2d_20">
      <g>
       <use xlink:href="#mb411e4ac84" x="135.125839" y="89.310469" style="fill: #262626; stroke: #262626; stroke-width: 0.8"/>
      </g>
     </g>
    </g>
    <g id="ytick_7">
     <g id="line2d_21">
      <g>
       <use xlink:href="#mb411e4ac84" x="135.125839" y="71.920781" style="fill: #262626; stroke: #262626; stroke-width: 0.8"/>
      </g>
     </g>
    </g>
    <g id="ytick_8">
     <g id="line2d_22">
      <g>
       <use xlink:href="#mb411e4ac84" x="135.125839" y="54.531094" style="fill: #262626; stroke: #262626; stroke-width: 0.8"/>
      </g>
     </g>
    </g>
    <g id="ytick_9">
     <g id="line2d_23">
      <g>
       <use xlink:href="#mb411e4ac84" x="135.125839" y="37.141406" style="fill: #262626; stroke: #262626; stroke-width: 0.8"/>
      </g>
     </g>
    </g>
    <g id="ytick_10">
     <g id="line2d_24">
      <g>
       <use xlink:href="#mb411e4ac84" x="135.125839" y="19.751719" style="fill: #262626; stroke: #262626; stroke-width: 0.8"/>
      </g>
     </g>
    </g>
   </g>
   <g id="line2d_25">
    <path d="M 138.692612 49.666427 
L 141.152456 50.028038 
L 143.6123 50.38744 
L 146.072144 50.744447 
L 148.531987 51.099377 
L 150.991831 51.452016 
L 153.451675 51.8025 
L 155.911518 52.150762 
L 158.371362 52.496976 
L 160.831206 52.841086 
L 163.29105 53.183127 
L 165.750893 53.523118 
L 168.210737 53.861016 
L 170.670581 54.196979 
L 173.130425 54.531094 
L 175.590268 54.86311 
L 178.050112 55.193166 
L 180.509956 55.521326 
L 182.9698 55.847522 
L 185.429643 56.171904 
L 187.889487 56.494427 
L 190.349331 56.815049 
L 192.809175 57.1339 
L 195.269018 57.450976 
L 197.728862 57.766316 
L 200.188706 58.079789 
L 202.64855 58.391602 
L 205.108393 58.701602 
L 207.568237 59.009969 
L 210.028081 59.316601 
" clip-path="url(#p9a3b0b4fb1)" style="fill: none; stroke: #4c72b0; stroke-linecap: round"/>
   </g>
   <g id="line2d_26">
    <path d="M 138.692612 50.218253 
L 141.152456 50.540326 
L 143.6123 50.860188 
L 146.072144 51.177702 
L 148.531987 51.493129 
L 150.991831 51.806301 
L 153.451675 52.117338 
L 155.911518 52.426175 
L 158.371362 52.732979 
L 160.831206 53.037716 
L 163.29105 53.340389 
L 165.750893 53.641035 
L 168.210737 53.939612 
L 170.670581 54.236272 
L 173.130425 54.531094 
L 175.590268 54.823856 
L 178.050112 55.114688 
L 180.509956 55.403642 
L 182.9698 55.690674 
L 185.429643 55.975902 
L 187.889487 56.259296 
L 190.349331 56.540823 
L 192.809175 56.820584 
L 195.269018 57.098628 
L 197.728862 57.374944 
L 200.188706 57.649417 
L 202.64855 57.922276 
L 205.108393 58.193306 
L 207.568237 58.462806 
L 210.028081 58.730566 
" clip-path="url(#p9a3b0b4fb1)" style="fill: none; stroke: #dd8452; stroke-linecap: round"/>
   </g>
   <g id="line2d_27">
    <path d="M 138.692612 54.529192 
L 141.152456 54.532734 
L 143.6123 54.535715 
L 146.072144 54.538152 
L 148.531987 54.540043 
L 150.991831 54.541402 
L 153.451675 54.542237 
L 155.911518 54.542486 
L 158.371362 54.542301 
L 160.831206 54.541701 
L 163.29105 54.540529 
L 165.750893 54.538875 
L 168.210737 54.536654 
L 170.670581 54.534034 
L 173.130425 54.531094 
L 175.590268 54.527592 
L 178.050112 54.52365 
L 180.509956 54.519269 
L 182.9698 54.514472 
L 185.429643 54.509242 
L 187.889487 54.503596 
L 190.349331 54.497415 
L 192.809175 54.490924 
L 195.269018 54.484115 
L 197.728862 54.477 
L 200.188706 54.469286 
L 202.64855 54.461384 
L 205.108393 54.452912 
L 207.568237 54.444296 
L 210.028081 54.435211 
" clip-path="url(#p9a3b0b4fb1)" style="fill: none; stroke: #55a868; stroke-linecap: round"/>
   </g>
   <g id="line2d_28">
    <path d="M 138.692612 54.221364 
L 141.152456 54.221364 
L 143.6123 54.298618 
L 146.072144 54.298618 
L 148.531987 54.298618 
L 150.991831 54.37599 
L 153.451675 54.37599 
L 155.911518 54.37599 
L 158.371362 54.37599 
L 160.831206 54.453482 
L 163.29105 54.453482 
L 165.750893 54.453482 
L 168.210737 54.453482 
L 170.670581 54.531094 
L 173.130425 54.531094 
L 175.590268 54.531094 
L 178.050112 54.531094 
L 180.509956 54.608826 
L 182.9698 54.608826 
L 185.429643 54.608826 
L 187.889487 54.608826 
L 190.349331 54.686678 
L 192.809175 54.686678 
L 195.269018 54.686678 
L 197.728862 54.686678 
L 200.188706 54.764652 
L 202.64855 54.764652 
L 205.108393 54.764652 
L 207.568237 54.764652 
L 210.028081 54.842747 
" clip-path="url(#p9a3b0b4fb1)" style="fill: none; stroke: #c44e52; stroke-linecap: round"/>
   </g>
   <g id="patch_8">
    <path d="M 135.125839 89.310469 
L 135.125839 19.751719 
" style="fill: none; stroke: #262626; stroke-linejoin: miter; stroke-linecap: square"/>
   </g>
   <g id="patch_9">
    <path d="M 213.594854 89.310469 
L 213.594854 19.751719 
" style="fill: none; stroke: #262626; stroke-linejoin: miter; stroke-linecap: square"/>
   </g>
   <g id="patch_10">
    <path d="M 135.125839 89.310469 
L 213.594854 89.310469 
" style="fill: none; stroke: #262626; stroke-linejoin: miter; stroke-linecap: square"/>
   </g>
   <g id="patch_11">
    <path d="M 135.125839 19.751719 
L 213.594854 19.751719 
" style="fill: none; stroke: #262626; stroke-linejoin: miter; stroke-linecap: square"/>
   </g>
   <g id="text_8">
    <!-- beta_prec -->
    <g style="fill: #262626" transform="translate(154.3473 13.751719)scale(0.09 -0.09)">
     <defs>
      <path id="ArialMT-70" d="M 422 -1272 
L 422 3319 
L 934 3319 
L 934 2888 
Q 1116 3141 1344 3267 
Q 1572 3394 1897 3394 
Q 2322 3394 2647 3175 
Q 2972 2956 3137 2557 
Q 3303 2159 3303 1684 
Q 3303 1175 3120 767 
Q 2938 359 2589 142 
Q 2241 -75 1856 -75 
Q 1575 -75 1351 44 
Q 1128 163 984 344 
L 984 -1272 
L 422 -1272 
z
M 931 1641 
Q 931 1000 1190 694 
Q 1450 388 1819 388 
Q 2194 388 2461 705 
Q 2728 1022 2728 1688 
Q 2728 2322 2467 2637 
Q 2206 2953 1844 2953 
Q 1484 2953 1207 2617 
Q 931 2281 931 1641 
z
" transform="scale(0.015625)"/>
      <path id="ArialMT-72" d="M 416 0 
L 416 3319 
L 922 3319 
L 922 2816 
Q 1116 3169 1280 3281 
Q 1444 3394 1641 3394 
Q 1925 3394 2219 3213 
L 2025 2691 
Q 1819 2813 1613 2813 
Q 1428 2813 1281 2702 
Q 1134 2591 1072 2394 
Q 978 2094 978 1738 
L 978 0 
L 416 0 
z
" transform="scale(0.015625)"/>
     </defs>
     <use xlink:href="#ArialMT-62"/>
     <use xlink:href="#ArialMT-65" x="55.615234"/>
     <use xlink:href="#ArialMT-74" x="111.230469"/>
     <use xlink:href="#ArialMT-61" x="139.013672"/>
     <use xlink:href="#ArialMT-5f" x="194.628906"/>
     <use xlink:href="#ArialMT-70" x="250.244141"/>
     <use xlink:href="#ArialMT-72" x="305.859375"/>
     <use xlink:href="#ArialMT-65" x="339.160156"/>
     <use xlink:href="#ArialMT-63" x="394.775391"/>
    </g>
   </g>
  </g>
  <g id="axes_3">
   <g id="patch_12">
    <path d="M 229.028397 89.310469 
L 307.497412 89.310469 
L 307.497412 19.751719 
L 229.028397 19.751719 
z
" style="fill: #ffffff"/>
   </g>
   <g id="matplotlib.axis_5">
    <g id="xtick_7">
     <g id="line2d_29">
      <g>
       <use xlink:href="#m5b6d7c6f01" x="231.48824" y="89.310469" style="fill: #262626; stroke: #262626; stroke-width: 0.8"/>
      </g>
     </g>
    </g>
    <g id="xtick_8">
     <g id="line2d_30">
      <g>
       <use xlink:href="#m5b6d7c6f01" x="267.032982" y="89.310469" style="fill: #262626; stroke: #262626; stroke-width: 0.8"/>
      </g>
     </g>
    </g>
    <g id="xtick_9">
     <g id="line2d_31">
      <g>
       <use xlink:href="#m5b6d7c6f01" x="302.577724" y="89.310469" style="fill: #262626; stroke: #262626; stroke-width: 0.8"/>
      </g>
     </g>
    </g>
   </g>
   <g id="matplotlib.axis_6">
    <g id="ytick_11">
     <g id="line2d_32">
      <g>
       <use xlink:href="#mb411e4ac84" x="229.028397" y="89.310469" style="fill: #262626; stroke: #262626; stroke-width: 0.8"/>
      </g>
     </g>
    </g>
    <g id="ytick_12">
     <g id="line2d_33">
      <g>
       <use xlink:href="#mb411e4ac84" x="229.028397" y="71.920781" style="fill: #262626; stroke: #262626; stroke-width: 0.8"/>
      </g>
     </g>
    </g>
    <g id="ytick_13">
     <g id="line2d_34">
      <g>
       <use xlink:href="#mb411e4ac84" x="229.028397" y="54.531094" style="fill: #262626; stroke: #262626; stroke-width: 0.8"/>
      </g>
     </g>
    </g>
    <g id="ytick_14">
     <g id="line2d_35">
      <g>
       <use xlink:href="#mb411e4ac84" x="229.028397" y="37.141406" style="fill: #262626; stroke: #262626; stroke-width: 0.8"/>
      </g>
     </g>
    </g>
    <g id="ytick_15">
     <g id="line2d_36">
      <g>
       <use xlink:href="#mb411e4ac84" x="229.028397" y="19.751719" style="fill: #262626; stroke: #262626; stroke-width: 0.8"/>
      </g>
     </g>
    </g>
   </g>
   <g id="line2d_37">
    <path d="M 232.59517 53.144928 
L 235.055014 53.243524 
L 237.514857 53.342346 
L 239.974701 53.44112 
L 242.434545 53.539943 
L 244.894389 53.638815 
L 247.354232 53.737598 
L 249.814076 53.836576 
L 252.27392 53.935606 
L 254.733764 54.034759 
L 257.193607 54.133909 
L 259.653451 54.2331 
L 262.113295 54.332347 
L 264.573139 54.431732 
L 267.032982 54.531094 
L 269.492826 54.630374 
L 271.95267 54.729851 
L 274.412514 54.829387 
L 276.872357 54.92905 
L 279.332201 55.028708 
L 281.792045 55.128427 
L 284.251888 55.22821 
L 286.711732 55.328053 
L 289.171576 55.428017 
L 291.63142 55.527861 
L 294.091263 55.627962 
L 296.551107 55.728062 
L 299.010951 55.828231 
L 301.470795 55.928465 
L 303.930638 56.028724 
" clip-path="url(#pa91dd88dab)" style="fill: none; stroke: #4c72b0; stroke-linecap: round"/>
   </g>
   <g id="line2d_38">
    <path d="M 232.59517 49.417883 
L 235.055014 49.800839 
L 237.514857 50.181035 
L 239.974701 50.558297 
L 242.434545 50.932742 
L 244.894389 51.304412 
L 247.354232 51.673228 
L 249.814076 52.039475 
L 252.27392 52.403067 
L 254.733764 52.764104 
L 257.193607 53.122492 
L 259.653451 53.478347 
L 262.113295 53.831695 
L 264.573139 54.18265 
L 267.032982 54.531094 
L 269.492826 54.87701 
L 271.95267 55.220679 
L 274.412514 55.562013 
L 276.872357 55.901095 
L 279.332201 56.237847 
L 281.792045 56.572351 
L 284.251888 56.904641 
L 286.711732 57.234744 
L 289.171576 57.562734 
L 291.63142 57.888446 
L 294.091263 58.212219 
L 296.551107 58.533857 
L 299.010951 58.853449 
L 301.470795 59.171015 
L 303.930638 59.486528 
" clip-path="url(#pa91dd88dab)" style="fill: none; stroke: #dd8452; stroke-linecap: round"/>
   </g>
   <g id="line2d_39">
    <path d="M 232.59517 54.897008 
L 235.055014 54.87156 
L 237.514857 54.84608 
L 239.974701 54.82045 
L 242.434545 54.79471 
L 244.894389 54.768858 
L 247.354232 54.742846 
L 249.814076 54.716772 
L 252.27392 54.690583 
L 254.733764 54.66433 
L 257.193607 54.63779 
L 259.653451 54.611258 
L 262.113295 54.584616 
L 264.573139 54.55796 
L 267.032982 54.531094 
L 269.492826 54.504016 
L 271.95267 54.476941 
L 274.412514 54.449762 
L 276.872357 54.422578 
L 279.332201 54.395188 
L 281.792045 54.367698 
L 284.251888 54.34011 
L 286.711732 54.312424 
L 289.171576 54.284633 
L 291.63142 54.256697 
L 294.091263 54.228797 
L 296.551107 54.200734 
L 299.010951 54.172578 
L 301.470795 54.14433 
L 303.930638 54.115911 
" clip-path="url(#pa91dd88dab)" style="fill: none; stroke: #55a868; stroke-linecap: round"/>
   </g>
   <g id="line2d_40">
    <path d="M 232.59517 49.875675 
L 235.055014 50.229776 
L 237.514857 50.586395 
L 239.974701 50.945566 
L 242.434545 51.234766 
L 244.894389 51.598626 
L 247.354232 51.965144 
L 249.814076 52.260298 
L 252.27392 52.631698 
L 254.733764 52.930811 
L 257.193607 53.231718 
L 259.653451 53.610407 
L 262.113295 53.915429 
L 264.573139 54.222317 
L 267.032982 54.531094 
L 269.492826 54.841782 
L 271.95267 55.154407 
L 274.412514 55.468991 
L 276.872357 55.78556 
L 279.332201 56.104139 
L 281.792045 56.424754 
L 284.251888 56.666566 
L 286.711732 56.990807 
L 289.171576 57.317156 
L 291.63142 57.563319 
L 294.091263 57.893425 
L 296.551107 58.142438 
L 299.010951 58.47639 
L 301.470795 58.72832 
L 303.930638 58.981522 
" clip-path="url(#pa91dd88dab)" style="fill: none; stroke: #c44e52; stroke-linecap: round"/>
   </g>
   <g id="patch_13">
    <path d="M 229.028397 89.310469 
L 229.028397 19.751719 
" style="fill: none; stroke: #262626; stroke-linejoin: miter; stroke-linecap: square"/>
   </g>
   <g id="patch_14">
    <path d="M 307.497412 89.310469 
L 307.497412 19.751719 
" style="fill: none; stroke: #262626; stroke-linejoin: miter; stroke-linecap: square"/>
   </g>
   <g id="patch_15">
    <path d="M 229.028397 89.310469 
L 307.497412 89.310469 
" style="fill: none; stroke: #262626; stroke-linejoin: miter; stroke-linecap: square"/>
   </g>
   <g id="patch_16">
    <path d="M 229.028397 19.751719 
L 307.497412 19.751719 
" style="fill: none; stroke: #262626; stroke-linejoin: miter; stroke-linecap: square"/>
   </g>
   <g id="text_9">
    <!-- d_eff -->
    <g style="fill: #262626" transform="translate(258.334076 13.751719)scale(0.09 -0.09)">
     <defs>
      <path id="ArialMT-64" d="M 2575 0 
L 2575 419 
Q 2259 -75 1647 -75 
Q 1250 -75 917 144 
Q 584 363 401 755 
Q 219 1147 219 1656 
Q 219 2153 384 2558 
Q 550 2963 881 3178 
Q 1213 3394 1622 3394 
Q 1922 3394 2156 3267 
Q 2391 3141 2538 2938 
L 2538 4581 
L 3097 4581 
L 3097 0 
L 2575 0 
z
M 797 1656 
Q 797 1019 1065 703 
Q 1334 388 1700 388 
Q 2069 388 2326 689 
Q 2584 991 2584 1609 
Q 2584 2291 2321 2609 
Q 2059 2928 1675 2928 
Q 1300 2928 1048 2622 
Q 797 2316 797 1656 
z
" transform="scale(0.015625)"/>
     </defs>
     <use xlink:href="#ArialMT-64"/>
     <use xlink:href="#ArialMT-5f" x="55.615234"/>
     <use xlink:href="#ArialMT-65" x="111.230469"/>
     <use xlink:href="#ArialMT-66" x="166.845703"/>
     <use xlink:href="#ArialMT-66" x="192.878906"/>
    </g>
   </g>
  </g>
  <g id="axes_4">
   <g id="patch_17">
    <path d="M 41.223281 186.430469 
L 119.692296 186.430469 
L 119.692296 116.871719 
L 41.223281 116.871719 
z
" style="fill: #ffffff"/>
   </g>
   <g id="matplotlib.axis_7">
    <g id="xtick_10">
     <g id="line2d_41">
      <g>
       <use xlink:href="#m5b6d7c6f01" x="43.683125" y="186.430469" style="fill: #262626; stroke: #262626; stroke-width: 0.8"/>
      </g>
     </g>
    </g>
    <g id="xtick_11">
     <g id="line2d_42">
      <g>
       <use xlink:href="#m5b6d7c6f01" x="79.227867" y="186.430469" style="fill: #262626; stroke: #262626; stroke-width: 0.8"/>
      </g>
     </g>
    </g>
    <g id="xtick_12">
     <g id="line2d_43">
      <g>
       <use xlink:href="#m5b6d7c6f01" x="114.772609" y="186.430469" style="fill: #262626; stroke: #262626; stroke-width: 0.8"/>
      </g>
     </g>
    </g>
   </g>
   <g id="matplotlib.axis_8">
    <g id="ytick_16">
     <g id="line2d_44">
      <g>
       <use xlink:href="#mb411e4ac84" x="41.223281" y="186.430469" style="fill: #262626; stroke: #262626; stroke-width: 0.8"/>
      </g>
     </g>
     <g id="text_10">
      <!-- −1.0 -->
      <g style="fill: #262626" transform="translate(19.430781 189.293594)scale(0.08 -0.08)">
       <use xlink:href="#ArialMT-2212"/>
       <use xlink:href="#ArialMT-31" x="58.398438"/>
       <use xlink:href="#ArialMT-2e" x="114.013672"/>
       <use xlink:href="#ArialMT-30" x="141.796875"/>
      </g>
     </g>
    </g>
    <g id="ytick_17">
     <g id="line2d_45">
      <g>
       <use xlink:href="#mb411e4ac84" x="41.223281" y="169.040781" style="fill: #262626; stroke: #262626; stroke-width: 0.8"/>
      </g>
     </g>
     <g id="text_11">
      <!-- −0.5 -->
      <g style="fill: #262626" transform="translate(19.430781 171.903906)scale(0.08 -0.08)">
       <use xlink:href="#ArialMT-2212"/>
       <use xlink:href="#ArialMT-30" x="58.398438"/>
       <use xlink:href="#ArialMT-2e" x="114.013672"/>
       <use xlink:href="#ArialMT-35" x="141.796875"/>
      </g>
     </g>
    </g>
    <g id="ytick_18">
     <g id="line2d_46">
      <g>
       <use xlink:href="#mb411e4ac84" x="41.223281" y="151.651094" style="fill: #262626; stroke: #262626; stroke-width: 0.8"/>
      </g>
     </g>
     <g id="text_12">
      <!-- 0.0 -->
      <g style="fill: #262626" transform="translate(24.103281 154.514219)scale(0.08 -0.08)">
       <use xlink:href="#ArialMT-30"/>
       <use xlink:href="#ArialMT-2e" x="55.615234"/>
       <use xlink:href="#ArialMT-30" x="83.398438"/>
      </g>
     </g>
    </g>
    <g id="ytick_19">
     <g id="line2d_47">
      <g>
       <use xlink:href="#mb411e4ac84" x="41.223281" y="134.261406" style="fill: #262626; stroke: #262626; stroke-width: 0.8"/>
      </g>
     </g>
     <g id="text_13">
      <!-- 0.5 -->
      <g style="fill: #262626" transform="translate(24.103281 137.124531)scale(0.08 -0.08)">
       <use xlink:href="#ArialMT-30"/>
       <use xlink:href="#ArialMT-2e" x="55.615234"/>
       <use xlink:href="#ArialMT-35" x="83.398438"/>
      </g>
     </g>
    </g>
    <g id="ytick_20">
     <g id="line2d_48">
      <g>
       <use xlink:href="#mb411e4ac84" x="41.223281" y="116.871719" style="fill: #262626; stroke: #262626; stroke-width: 0.8"/>
      </g>
     </g>
     <g id="text_14">
      <!-- 1.0 -->
      <g style="fill: #262626" transform="translate(24.103281 119.734844)scale(0.08 -0.08)">
       <use xlink:href="#ArialMT-31"/>
       <use xlink:href="#ArialMT-2e" x="55.615234"/>
       <use xlink:href="#ArialMT-30" x="83.398438"/>
      </g>
     </g>
    </g>
    <g id="text_15">
     <!-- effect size -->
     <g style="fill: #262626" transform="translate(13.642031 171.830078)rotate(-90)scale(0.09 -0.09)">
      <use xlink:href="#ArialMT-65"/>
      <use xlink:href="#ArialMT-66" x="55.615234"/>
      <use xlink:href="#ArialMT-66" x="81.648438"/>
      <use xlink:href="#ArialMT-65" x="109.431641"/>
      <use xlink:href="#ArialMT-63" x="165.046875"/>
      <use xlink:href="#ArialMT-74" x="215.046875"/>
      <use xlink:href="#ArialMT-20" x="242.830078"/>
      <use xlink:href="#ArialMT-73" x="270.613281"/>
      <use xlink:href="#ArialMT-69" x="320.613281"/>
      <use xlink:href="#ArialMT-7a" x="342.830078"/>
      <use xlink:href="#ArialMT-65" x="392.830078"/>
     </g>
    </g>
   </g>
   <g id="line2d_49">
    <path d="M 44.790055 158.722158 
L 47.249898 158.165341 
L 49.709742 157.61713 
L 52.169586 157.077427 
L 54.62943 156.546065 
L 57.089273 156.022797 
L 59.549117 155.507559 
L 62.008961 154.999994 
L 64.468805 154.499982 
L 66.928648 154.007588 
L 69.388492 153.522255 
L 71.848336 153.044194 
L 74.30818 152.573124 
L 76.768023 152.108661 
L 79.227867 151.651094 
L 81.687711 151.199941 
L 84.147554 150.755316 
L 86.607398 150.316992 
L 89.067242 149.884576 
L 91.527086 149.458377 
L 93.986929 149.037976 
L 96.446773 148.623413 
L 98.906617 148.214487 
L 101.366461 147.811189 
L 103.826304 147.413249 
L 106.286148 147.020702 
L 108.745992 146.633464 
L 111.205836 146.251156 
L 113.665679 145.874037 
L 116.125523 145.5018 
" clip-path="url(#pdd62d41a69)" style="fill: none; stroke: #4c72b0; stroke-linecap: round"/>
   </g>
   <g id="line2d_50">
    <path d="M 44.790055 158.726698 
L 47.249898 158.169486 
L 49.709742 157.620878 
L 52.169586 157.080803 
L 54.62943 156.549077 
L 57.089273 156.025447 
L 59.549117 155.50986 
L 62.008961 155.001991 
L 64.468805 154.501645 
L 66.928648 154.008968 
L 69.388492 153.523353 
L 71.848336 153.045002 
L 74.30818 152.573648 
L 76.768023 152.108937 
L 79.227867 151.651094 
L 81.687711 151.199693 
L 84.147554 150.754811 
L 86.607398 150.316235 
L 89.067242 149.883612 
L 91.527086 149.457172 
L 93.986929 149.036552 
L 96.446773 148.621768 
L 98.906617 148.212623 
L 101.366461 147.809114 
L 103.826304 147.410982 
L 106.286148 147.018236 
L 108.745992 146.63079 
L 111.205836 146.248304 
L 113.665679 145.87099 
L 116.125523 145.498572 
" clip-path="url(#pdd62d41a69)" style="fill: none; stroke: #dd8452; stroke-linecap: round"/>
   </g>
   <g id="line2d_51">
    <path d="M 44.790055 151.65129 
L 47.249898 151.651294 
L 49.709742 151.65127 
L 52.169586 151.651253 
L 54.62943 151.651236 
L 57.089273 151.651203 
L 59.549117 151.651169 
L 62.008961 151.651201 
L 64.468805 151.651141 
L 66.928648 151.651133 
L 69.388492 151.651123 
L 71.848336 151.651113 
L 74.30818 151.651113 
L 76.768023 151.651094 
L 79.227867 151.651094 
L 81.687711 151.651084 
L 84.147554 151.651075 
L 86.607398 151.651085 
L 89.067242 151.651068 
L 91.527086 151.651068 
L 93.986929 151.651071 
L 96.446773 151.651073 
L 98.906617 151.651074 
L 101.366461 151.651078 
L 103.826304 151.651074 
L 106.286148 151.651073 
L 108.745992 151.651073 
L 111.205836 151.65108 
L 113.665679 151.651076 
L 116.125523 151.65107 
" clip-path="url(#pdd62d41a69)" style="fill: none; stroke: #55a868; stroke-linecap: round"/>
   </g>
   <g id="line2d_52">
    <path d="M 44.790055 152.102455 
L 47.249898 152.102455 
L 49.709742 152.026946 
L 52.169586 152.026946 
L 54.62943 152.026946 
L 57.089273 151.95155 
L 59.549117 151.95155 
L 62.008961 151.876267 
L 64.468805 151.876267 
L 66.928648 151.801097 
L 69.388492 151.801097 
L 71.848336 151.801097 
L 74.30818 151.726039 
L 76.768023 151.726039 
L 79.227867 151.651094 
L 81.687711 151.651094 
L 84.147554 151.651094 
L 86.607398 151.57626 
L 89.067242 151.57626 
L 91.527086 151.57626 
L 93.986929 151.501538 
L 96.446773 151.501538 
L 98.906617 151.501538 
L 101.366461 151.426926 
L 103.826304 151.426926 
L 106.286148 151.426926 
L 108.745992 151.352426 
L 111.205836 151.352426 
L 113.665679 151.352426 
L 116.125523 151.278036 
" clip-path="url(#pdd62d41a69)" style="fill: none; stroke: #c44e52; stroke-linecap: round"/>
   </g>
   <g id="patch_18">
    <path d="M 41.223281 186.430469 
L 41.223281 116.871719 
" style="fill: none; stroke: #262626; stroke-linejoin: miter; stroke-linecap: square"/>
   </g>
   <g id="patch_19">
    <path d="M 119.692296 186.430469 
L 119.692296 116.871719 
" style="fill: none; stroke: #262626; stroke-linejoin: miter; stroke-linecap: square"/>
   </g>
   <g id="patch_20">
    <path d="M 41.223281 186.430469 
L 119.692296 186.430469 
" style="fill: none; stroke: #262626; stroke-linejoin: miter; stroke-linecap: square"/>
   </g>
   <g id="patch_21">
    <path d="M 41.223281 116.871719 
L 119.692296 116.871719 
" style="fill: none; stroke: #262626; stroke-linejoin: miter; stroke-linecap: square"/>
   </g>
   <g id="text_16">
    <!-- beta_naive -->
    <g style="fill: #262626" transform="translate(58.440836 110.871719)scale(0.09 -0.09)">
     <use xlink:href="#ArialMT-62"/>
     <use xlink:href="#ArialMT-65" x="55.615234"/>
     <use xlink:href="#ArialMT-74" x="111.230469"/>
     <use xlink:href="#ArialMT-61" x="139.013672"/>
     <use xlink:href="#ArialMT-5f" x="194.628906"/>
     <use xlink:href="#ArialMT-6e" x="250.244141"/>
     <use xlink:href="#ArialMT-61" x="305.859375"/>
     <use xlink:href="#ArialMT-69" x="361.474609"/>
     <use xlink:href="#ArialMT-76" x="383.691406"/>
     <use xlink:href="#ArialMT-65" x="433.691406"/>
    </g>
   </g>
  </g>
  <g id="axes_5">
   <g id="patch_22">
    <path d="M 135.125839 186.430469 
L 213.594854 186.430469 
L 213.594854 116.871719 
L 135.125839 116.871719 
z
" style="fill: #ffffff"/>
   </g>
   <g id="matplotlib.axis_9">
    <g id="xtick_13">
     <g id="line2d_53">
      <g>
       <use xlink:href="#m5b6d7c6f01" x="137.585683" y="186.430469" style="fill: #262626; stroke: #262626; stroke-width: 0.8"/>
      </g>
     </g>
    </g>
    <g id="xtick_14">
     <g id="line2d_54">
      <g>
       <use xlink:href="#m5b6d7c6f01" x="173.130425" y="186.430469" style="fill: #262626; stroke: #262626; stroke-width: 0.8"/>
      </g>
     </g>
    </g>
    <g id="xtick_15">
     <g id="line2d_55">
      <g>
       <use xlink:href="#m5b6d7c6f01" x="208.675167" y="186.430469" style="fill: #262626; stroke: #262626; stroke-width: 0.8"/>
      </g>
     </g>
    </g>
   </g>
   <g id="matplotlib.axis_10">
    <g id="ytick_21">
     <g id="line2d_56">
      <g>
       <use xlink:href="#mb411e4ac84" x="135.125839" y="186.430469" style="fill: #262626; stroke: #262626; stroke-width: 0.8"/>
      </g>
     </g>
    </g>
    <g id="ytick_22">
     <g id="line2d_57">
      <g>
       <use xlink:href="#mb411e4ac84" x="135.125839" y="169.040781" style="fill: #262626; stroke: #262626; stroke-width: 0.8"/>
      </g>
     </g>
    </g>
    <g id="ytick_23">
     <g id="line2d_58">
      <g>
       <use xlink:href="#mb411e4ac84" x="135.125839" y="151.651094" style="fill: #262626; stroke: #262626; stroke-width: 0.8"/>
      </g>
     </g>
    </g>
    <g id="ytick_24">
     <g id="line2d_59">
      <g>
       <use xlink:href="#mb411e4ac84" x="135.125839" y="134.261406" style="fill: #262626; stroke: #262626; stroke-width: 0.8"/>
      </g>
     </g>
    </g>
    <g id="ytick_25">
     <g id="line2d_60">
      <g>
       <use xlink:href="#mb411e4ac84" x="135.125839" y="116.871719" style="fill: #262626; stroke: #262626; stroke-width: 0.8"/>
      </g>
     </g>
    </g>
   </g>
   <g id="line2d_61">
    <path d="M 138.692612 152.078663 
L 141.152456 152.041572 
L 143.6123 152.004814 
L 146.072144 151.969654 
L 148.531987 151.935749 
L 150.991831 151.902754 
L 153.451675 151.870917 
L 155.911518 151.84021 
L 158.371362 151.810347 
L 160.831206 151.78161 
L 163.29105 151.753739 
L 165.750893 151.726668 
L 168.210737 151.700612 
L 170.670581 151.675524 
L 173.130425 151.651094 
L 175.590268 151.6277 
L 178.050112 151.604985 
L 180.509956 151.583048 
L 182.9698 151.561824 
L 185.429643 151.541251 
L 187.889487 151.521683 
L 190.349331 151.502447 
L 192.809175 151.484127 
L 195.269018 151.466416 
L 197.728862 151.449357 
L 200.188706 151.432921 
L 202.64855 151.417102 
L 205.108393 151.401915 
L 207.568237 151.387251 
L 210.028081 151.373107 
" clip-path="url(#pca86af5c47)" style="fill: none; stroke: #4c72b0; stroke-linecap: round"/>
   </g>
   <g id="line2d_62">
    <path d="M 138.692612 152.07997 
L 141.152456 152.042954 
L 143.6123 152.005924 
L 146.072144 151.970662 
L 148.531987 151.936641 
L 150.991831 151.903562 
L 153.451675 151.871628 
L 155.911518 151.84081 
L 158.371362 151.810869 
L 160.831206 151.782027 
L 163.29105 151.754066 
L 165.750893 151.726926 
L 168.210737 151.700781 
L 170.670581 151.67559 
L 173.130425 151.651094 
L 175.590268 151.627598 
L 178.050112 151.604802 
L 180.509956 151.582784 
L 182.9698 151.561486 
L 185.429643 151.540857 
L 187.889487 151.52119 
L 190.349331 151.501903 
L 192.809175 151.483508 
L 195.269018 151.465725 
L 197.728862 151.448595 
L 200.188706 151.432088 
L 202.64855 151.4162 
L 205.108393 151.400938 
L 207.568237 151.386206 
L 210.028081 151.371998 
" clip-path="url(#pca86af5c47)" style="fill: none; stroke: #dd8452; stroke-linecap: round"/>
   </g>
   <g id="line2d_63">
    <path d="M 138.692612 151.651112 
L 141.152456 151.651292 
L 143.6123 151.651102 
L 146.072144 151.651102 
L 148.531987 151.651112 
L 150.991831 151.651102 
L 153.451675 151.651102 
L 155.911518 151.651112 
L 158.371362 151.651102 
L 160.831206 151.651121 
L 163.29105 151.651121 
L 165.750893 151.651094 
L 168.210737 151.651102 
L 170.670581 151.651121 
L 173.130425 151.651094 
L 175.590268 151.651121 
L 178.050112 151.651121 
L 180.509956 151.651121 
L 182.9698 151.651103 
L 185.429643 151.651093 
L 187.889487 151.651103 
L 190.349331 151.651093 
L 192.809175 151.651093 
L 195.269018 151.651093 
L 197.728862 151.651093 
L 200.188706 151.651093 
L 202.64855 151.651093 
L 205.108393 151.651093 
L 207.568237 151.651093 
L 210.028081 151.651094 
" clip-path="url(#pca86af5c47)" style="fill: none; stroke: #55a868; stroke-linecap: round"/>
   </g>
   <g id="line2d_64">
    <path d="M 138.692612 151.726039 
L 141.152456 151.726039 
L 143.6123 151.726039 
L 146.072144 151.726039 
L 148.531987 151.726039 
L 150.991831 151.726039 
L 153.451675 151.651094 
L 155.911518 151.651094 
L 158.371362 151.651094 
L 160.831206 151.651094 
L 163.29105 151.651094 
L 165.750893 151.651094 
L 168.210737 151.651094 
L 170.670581 151.651094 
L 173.130425 151.651094 
L 175.590268 151.651094 
L 178.050112 151.651094 
L 180.509956 151.651094 
L 182.9698 151.651094 
L 185.429643 151.651094 
L 187.889487 151.651094 
L 190.349331 151.651094 
L 192.809175 151.651094 
L 195.269018 151.651094 
L 197.728862 151.651094 
L 200.188706 151.651094 
L 202.64855 151.651094 
L 205.108393 151.651094 
L 207.568237 151.651094 
L 210.028081 151.651094 
" clip-path="url(#pca86af5c47)" style="fill: none; stroke: #c44e52; stroke-linecap: round"/>
   </g>
   <g id="patch_23">
    <path d="M 135.125839 186.430469 
L 135.125839 116.871719 
" style="fill: none; stroke: #262626; stroke-linejoin: miter; stroke-linecap: square"/>
   </g>
   <g id="patch_24">
    <path d="M 213.594854 186.430469 
L 213.594854 116.871719 
" style="fill: none; stroke: #262626; stroke-linejoin: miter; stroke-linecap: square"/>
   </g>
   <g id="patch_25">
    <path d="M 135.125839 186.430469 
L 213.594854 186.430469 
" style="fill: none; stroke: #262626; stroke-linejoin: miter; stroke-linecap: square"/>
   </g>
   <g id="patch_26">
    <path d="M 135.125839 116.871719 
L 213.594854 116.871719 
" style="fill: none; stroke: #262626; stroke-linejoin: miter; stroke-linecap: square"/>
   </g>
   <g id="text_17">
    <!-- beta_prec -->
    <g style="fill: #262626" transform="translate(154.3473 110.871719)scale(0.09 -0.09)">
     <use xlink:href="#ArialMT-62"/>
     <use xlink:href="#ArialMT-65" x="55.615234"/>
     <use xlink:href="#ArialMT-74" x="111.230469"/>
     <use xlink:href="#ArialMT-61" x="139.013672"/>
     <use xlink:href="#ArialMT-5f" x="194.628906"/>
     <use xlink:href="#ArialMT-70" x="250.244141"/>
     <use xlink:href="#ArialMT-72" x="305.859375"/>
     <use xlink:href="#ArialMT-65" x="339.160156"/>
     <use xlink:href="#ArialMT-63" x="394.775391"/>
    </g>
   </g>
  </g>
  <g id="axes_6">
   <g id="patch_27">
    <path d="M 229.028397 186.430469 
L 307.497412 186.430469 
L 307.497412 116.871719 
L 229.028397 116.871719 
z
" style="fill: #ffffff"/>
   </g>
   <g id="matplotlib.axis_11">
    <g id="xtick_16">
     <g id="line2d_65">
      <g>
       <use xlink:href="#m5b6d7c6f01" x="231.48824" y="186.430469" style="fill: #262626; stroke: #262626; stroke-width: 0.8"/>
      </g>
     </g>
    </g>
    <g id="xtick_17">
     <g id="line2d_66">
      <g>
       <use xlink:href="#m5b6d7c6f01" x="267.032982" y="186.430469" style="fill: #262626; stroke: #262626; stroke-width: 0.8"/>
      </g>
     </g>
    </g>
    <g id="xtick_18">
     <g id="line2d_67">
      <g>
       <use xlink:href="#m5b6d7c6f01" x="302.577724" y="186.430469" style="fill: #262626; stroke: #262626; stroke-width: 0.8"/>
      </g>
     </g>
    </g>
   </g>
   <g id="matplotlib.axis_12">
    <g id="ytick_26">
     <g id="line2d_68">
      <g>
       <use xlink:href="#mb411e4ac84" x="229.028397" y="186.430469" style="fill: #262626; stroke: #262626; stroke-width: 0.8"/>
      </g>
     </g>
    </g>
    <g id="ytick_27">
     <g id="line2d_69">
      <g>
       <use xlink:href="#mb411e4ac84" x="229.028397" y="169.040781" style="fill: #262626; stroke: #262626; stroke-width: 0.8"/>
      </g>
     </g>
    </g>
    <g id="ytick_28">
     <g id="line2d_70">
      <g>
       <use xlink:href="#mb411e4ac84" x="229.028397" y="151.651094" style="fill: #262626; stroke: #262626; stroke-width: 0.8"/>
      </g>
     </g>
    </g>
    <g id="ytick_29">
     <g id="line2d_71">
      <g>
       <use xlink:href="#mb411e4ac84" x="229.028397" y="134.261406" style="fill: #262626; stroke: #262626; stroke-width: 0.8"/>
      </g>
     </g>
    </g>
    <g id="ytick_30">
     <g id="line2d_72">
      <g>
       <use xlink:href="#mb411e4ac84" x="229.028397" y="116.871719" style="fill: #262626; stroke: #262626; stroke-width: 0.8"/>
      </g>
     </g>
    </g>
   </g>
   <g id="line2d_73">
    <path d="M 232.59517 146.003587 
L 235.055014 146.408106 
L 237.514857 146.812479 
L 239.974701 147.21664 
L 242.434545 147.620691 
L 244.894389 148.024454 
L 247.354232 148.428086 
L 249.814076 148.831609 
L 252.27392 149.234962 
L 254.733764 149.637959 
L 257.193607 150.040898 
L 259.653451 150.443732 
L 262.113295 150.846289 
L 264.573139 151.248768 
L 267.032982 151.651094 
L 269.492826 152.053235 
L 271.95267 152.455148 
L 274.412514 152.856797 
L 276.872357 153.258407 
L 279.332201 153.659888 
L 281.792045 154.061205 
L 284.251888 154.462273 
L 286.711732 154.863245 
L 289.171576 155.264067 
L 291.63142 155.664651 
L 294.091263 156.065114 
L 296.551107 156.465421 
L 299.010951 156.865568 
L 301.470795 157.265558 
L 303.930638 157.665423 
" clip-path="url(#p7008a6feb9)" style="fill: none; stroke: #4c72b0; stroke-linecap: round"/>
   </g>
   <g id="line2d_74">
    <path d="M 232.59517 142.125042 
L 235.055014 142.823939 
L 237.514857 143.519853 
L 239.974701 144.212782 
L 242.434545 144.902845 
L 244.894389 145.58992 
L 247.354232 146.274213 
L 249.814076 146.955762 
L 252.27392 147.634558 
L 254.733764 148.310467 
L 257.193607 148.983798 
L 259.653451 149.654532 
L 262.113295 150.322562 
L 264.573139 150.988087 
L 267.032982 151.651094 
L 269.492826 152.311568 
L 271.95267 152.969516 
L 274.412514 153.62494 
L 276.872357 154.278056 
L 279.332201 154.928814 
L 281.792045 155.577223 
L 284.251888 156.223245 
L 286.711732 156.867032 
L 289.171576 157.508514 
L 291.63142 158.147761 
L 294.091263 158.784794 
L 296.551107 159.419671 
L 299.010951 160.052397 
L 301.470795 160.682953 
L 303.930638 161.311461 
" clip-path="url(#p7008a6feb9)" style="fill: none; stroke: #dd8452; stroke-linecap: round"/>
   </g>
   <g id="line2d_75">
    <path d="M 232.59517 151.448161 
L 235.055014 151.463214 
L 237.514857 151.478181 
L 239.974701 151.493052 
L 242.434545 151.507833 
L 244.894389 151.522528 
L 247.354232 151.537138 
L 249.814076 151.551662 
L 252.27392 151.566105 
L 254.733764 151.580464 
L 257.193607 151.594744 
L 259.653451 151.608951 
L 262.113295 151.623076 
L 264.573139 151.637122 
L 267.032982 151.651094 
L 269.492826 151.665025 
L 271.95267 151.678841 
L 274.412514 151.692592 
L 276.872357 151.706283 
L 279.332201 151.719894 
L 281.792045 151.733484 
L 284.251888 151.74692 
L 286.711732 151.760376 
L 289.171576 151.773692 
L 291.63142 151.787009 
L 294.091263 151.800194 
L 296.551107 151.813358 
L 299.010951 151.826453 
L 301.470795 151.83946 
L 303.930638 151.852421 
" clip-path="url(#p7008a6feb9)" style="fill: none; stroke: #55a868; stroke-linecap: round"/>
   </g>
   <g id="line2d_76">
    <path d="M 232.59517 146.679105 
L 235.055014 147.018363 
L 237.514857 147.428524 
L 239.974701 147.772904 
L 242.434545 148.119665 
L 244.894389 148.538965 
L 247.354232 148.891079 
L 249.814076 149.245682 
L 252.27392 149.602808 
L 254.733764 149.962494 
L 257.193607 150.252112 
L 259.653451 150.6165 
L 262.113295 150.983554 
L 264.573139 151.279142 
L 267.032982 151.651094 
L 269.492826 152.025823 
L 271.95267 152.327635 
L 274.412514 152.631273 
L 276.872357 153.013423 
L 279.332201 153.321252 
L 281.792045 153.630982 
L 284.251888 153.942635 
L 286.711732 154.256236 
L 289.171576 154.57181 
L 291.63142 154.889381 
L 294.091263 155.208974 
L 296.551107 155.530617 
L 299.010951 155.854334 
L 301.470795 156.180154 
L 303.930638 156.508103 
" clip-path="url(#p7008a6feb9)" style="fill: none; stroke: #c44e52; stroke-linecap: round"/>
   </g>
   <g id="patch_28">
    <path d="M 229.028397 186.430469 
L 229.028397 116.871719 
" style="fill: none; stroke: #262626; stroke-linejoin: miter; stroke-linecap: square"/>
   </g>
   <g id="patch_29">
    <path d="M 307.497412 186.430469 
L 307.497412 116.871719 
" style="fill: none; stroke: #262626; stroke-linejoin: miter; stroke-linecap: square"/>
   </g>
   <g id="patch_30">
    <path d="M 229.028397 186.430469 
L 307.497412 186.430469 
" style="fill: none; stroke: #262626; stroke-linejoin: miter; stroke-linecap: square"/>
   </g>
   <g id="patch_31">
    <path d="M 229.028397 116.871719 
L 307.497412 116.871719 
" style="fill: none; stroke: #262626; stroke-linejoin: miter; stroke-linecap: square"/>
   </g>
   <g id="text_18">
    <!-- d_eff -->
    <g style="fill: #262626" transform="translate(258.334076 110.871719)scale(0.09 -0.09)">
     <use xlink:href="#ArialMT-64"/>
     <use xlink:href="#ArialMT-5f" x="55.615234"/>
     <use xlink:href="#ArialMT-65" x="111.230469"/>
     <use xlink:href="#ArialMT-66" x="166.845703"/>
     <use xlink:href="#ArialMT-66" x="192.878906"/>
    </g>
   </g>
  </g>
  <g id="axes_7">
   <g id="patch_32">
    <path d="M 41.223281 283.550469 
L 119.692296 283.550469 
L 119.692296 213.991719 
L 41.223281 213.991719 
z
" style="fill: #ffffff"/>
   </g>
   <g id="matplotlib.axis_13">
    <g id="xtick_19">
     <g id="line2d_77">
      <g>
       <use xlink:href="#m5b6d7c6f01" x="43.683125" y="283.550469" style="fill: #262626; stroke: #262626; stroke-width: 0.8"/>
      </g>
     </g>
     <g id="text_19">
      <!-- 0.9 -->
      <g style="fill: #262626" transform="translate(38.123125 295.276719)scale(0.08 -0.08)">
       <defs>
        <path id="ArialMT-39" d="M 350 1059 
L 891 1109 
Q 959 728 1153 556 
Q 1347 384 1650 384 
Q 1909 384 2104 503 
Q 2300 622 2425 820 
Q 2550 1019 2634 1356 
Q 2719 1694 2719 2044 
Q 2719 2081 2716 2156 
Q 2547 1888 2255 1720 
Q 1963 1553 1622 1553 
Q 1053 1553 659 1965 
Q 266 2378 266 3053 
Q 266 3750 677 4175 
Q 1088 4600 1706 4600 
Q 2153 4600 2523 4359 
Q 2894 4119 3086 3673 
Q 3278 3228 3278 2384 
Q 3278 1506 3087 986 
Q 2897 466 2520 194 
Q 2144 -78 1638 -78 
Q 1100 -78 759 220 
Q 419 519 350 1059 
z
M 2653 3081 
Q 2653 3566 2395 3850 
Q 2138 4134 1775 4134 
Q 1400 4134 1122 3828 
Q 844 3522 844 3034 
Q 844 2597 1108 2323 
Q 1372 2050 1759 2050 
Q 2150 2050 2401 2323 
Q 2653 2597 2653 3081 
z
" transform="scale(0.015625)"/>
       </defs>
       <use xlink:href="#ArialMT-30"/>
       <use xlink:href="#ArialMT-2e" x="55.615234"/>
       <use xlink:href="#ArialMT-39" x="83.398438"/>
      </g>
     </g>
    </g>
    <g id="xtick_20">
     <g id="line2d_78">
      <g>
       <use xlink:href="#m5b6d7c6f01" x="79.227867" y="283.550469" style="fill: #262626; stroke: #262626; stroke-width: 0.8"/>
      </g>
     </g>
     <g id="text_20">
      <!-- 1.0 -->
      <g style="fill: #262626" transform="translate(73.667867 295.276719)scale(0.08 -0.08)">
       <use xlink:href="#ArialMT-31"/>
       <use xlink:href="#ArialMT-2e" x="55.615234"/>
       <use xlink:href="#ArialMT-30" x="83.398438"/>
      </g>
     </g>
    </g>
    <g id="xtick_21">
     <g id="line2d_79">
      <g>
       <use xlink:href="#m5b6d7c6f01" x="114.772609" y="283.550469" style="fill: #262626; stroke: #262626; stroke-width: 0.8"/>
      </g>
     </g>
     <g id="text_21">
      <!-- 1.1 -->
      <g style="fill: #262626" transform="translate(109.212609 295.276719)scale(0.08 -0.08)">
       <use xlink:href="#ArialMT-31"/>
       <use xlink:href="#ArialMT-2e" x="55.615234"/>
       <use xlink:href="#ArialMT-31" x="83.398438"/>
      </g>
     </g>
    </g>
    <g id="text_22">
     <!-- param value norm. -->
     <g style="fill: #262626" transform="translate(42.944664 307.30875)scale(0.09 -0.09)">
      <defs>
       <path id="ArialMT-6d" d="M 422 0 
L 422 3319 
L 925 3319 
L 925 2853 
Q 1081 3097 1340 3245 
Q 1600 3394 1931 3394 
Q 2300 3394 2536 3241 
Q 2772 3088 2869 2813 
Q 3263 3394 3894 3394 
Q 4388 3394 4653 3120 
Q 4919 2847 4919 2278 
L 4919 0 
L 4359 0 
L 4359 2091 
Q 4359 2428 4304 2576 
Q 4250 2725 4106 2815 
Q 3963 2906 3769 2906 
Q 3419 2906 3187 2673 
Q 2956 2441 2956 1928 
L 2956 0 
L 2394 0 
L 2394 2156 
Q 2394 2531 2256 2718 
Q 2119 2906 1806 2906 
Q 1569 2906 1367 2781 
Q 1166 2656 1075 2415 
Q 984 2175 984 1722 
L 984 0 
L 422 0 
z
" transform="scale(0.015625)"/>
       <path id="ArialMT-6c" d="M 409 0 
L 409 4581 
L 972 4581 
L 972 0 
L 409 0 
z
" transform="scale(0.015625)"/>
       <path id="ArialMT-75" d="M 2597 0 
L 2597 488 
Q 2209 -75 1544 -75 
Q 1250 -75 995 37 
Q 741 150 617 320 
Q 494 491 444 738 
Q 409 903 409 1263 
L 409 3319 
L 972 3319 
L 972 1478 
Q 972 1038 1006 884 
Q 1059 663 1231 536 
Q 1403 409 1656 409 
Q 1909 409 2131 539 
Q 2353 669 2445 892 
Q 2538 1116 2538 1541 
L 2538 3319 
L 3100 3319 
L 3100 0 
L 2597 0 
z
" transform="scale(0.015625)"/>
       <path id="ArialMT-6f" d="M 213 1659 
Q 213 2581 725 3025 
Q 1153 3394 1769 3394 
Q 2453 3394 2887 2945 
Q 3322 2497 3322 1706 
Q 3322 1066 3130 698 
Q 2938 331 2570 128 
Q 2203 -75 1769 -75 
Q 1072 -75 642 372 
Q 213 819 213 1659 
z
M 791 1659 
Q 791 1022 1069 705 
Q 1347 388 1769 388 
Q 2188 388 2466 706 
Q 2744 1025 2744 1678 
Q 2744 2294 2464 2611 
Q 2184 2928 1769 2928 
Q 1347 2928 1069 2612 
Q 791 2297 791 1659 
z
" transform="scale(0.015625)"/>
      </defs>
      <use xlink:href="#ArialMT-70"/>
      <use xlink:href="#ArialMT-61" x="55.615234"/>
      <use xlink:href="#ArialMT-72" x="111.230469"/>
      <use xlink:href="#ArialMT-61" x="144.53125"/>
      <use xlink:href="#ArialMT-6d" x="200.146484"/>
      <use xlink:href="#ArialMT-20" x="283.447266"/>
      <use xlink:href="#ArialMT-76" x="311.230469"/>
      <use xlink:href="#ArialMT-61" x="361.230469"/>
      <use xlink:href="#ArialMT-6c" x="416.845703"/>
      <use xlink:href="#ArialMT-75" x="439.0625"/>
      <use xlink:href="#ArialMT-65" x="494.677734"/>
      <use xlink:href="#ArialMT-20" x="550.292969"/>
      <use xlink:href="#ArialMT-6e" x="578.076172"/>
      <use xlink:href="#ArialMT-6f" x="633.691406"/>
      <use xlink:href="#ArialMT-72" x="689.306641"/>
      <use xlink:href="#ArialMT-6d" x="722.607422"/>
      <use xlink:href="#ArialMT-2e" x="805.908203"/>
     </g>
    </g>
   </g>
   <g id="matplotlib.axis_14">
    <g id="ytick_31">
     <g id="line2d_80">
      <g>
       <use xlink:href="#mb411e4ac84" x="41.223281" y="283.550469" style="fill: #262626; stroke: #262626; stroke-width: 0.8"/>
      </g>
     </g>
     <g id="text_23">
      <!-- −1.0 -->
      <g style="fill: #262626" transform="translate(19.430781 286.413594)scale(0.08 -0.08)">
       <use xlink:href="#ArialMT-2212"/>
       <use xlink:href="#ArialMT-31" x="58.398438"/>
       <use xlink:href="#ArialMT-2e" x="114.013672"/>
       <use xlink:href="#ArialMT-30" x="141.796875"/>
      </g>
     </g>
    </g>
    <g id="ytick_32">
     <g id="line2d_81">
      <g>
       <use xlink:href="#mb411e4ac84" x="41.223281" y="266.160781" style="fill: #262626; stroke: #262626; stroke-width: 0.8"/>
      </g>
     </g>
     <g id="text_24">
      <!-- −0.5 -->
      <g style="fill: #262626" transform="translate(19.430781 269.023906)scale(0.08 -0.08)">
       <use xlink:href="#ArialMT-2212"/>
       <use xlink:href="#ArialMT-30" x="58.398438"/>
       <use xlink:href="#ArialMT-2e" x="114.013672"/>
       <use xlink:href="#ArialMT-35" x="141.796875"/>
      </g>
     </g>
    </g>
    <g id="ytick_33">
     <g id="line2d_82">
      <g>
       <use xlink:href="#mb411e4ac84" x="41.223281" y="248.771094" style="fill: #262626; stroke: #262626; stroke-width: 0.8"/>
      </g>
     </g>
     <g id="text_25">
      <!-- 0.0 -->
      <g style="fill: #262626" transform="translate(24.103281 251.634219)scale(0.08 -0.08)">
       <use xlink:href="#ArialMT-30"/>
       <use xlink:href="#ArialMT-2e" x="55.615234"/>
       <use xlink:href="#ArialMT-30" x="83.398438"/>
      </g>
     </g>
    </g>
    <g id="ytick_34">
     <g id="line2d_83">
      <g>
       <use xlink:href="#mb411e4ac84" x="41.223281" y="231.381406" style="fill: #262626; stroke: #262626; stroke-width: 0.8"/>
      </g>
     </g>
     <g id="text_26">
      <!-- 0.5 -->
      <g style="fill: #262626" transform="translate(24.103281 234.244531)scale(0.08 -0.08)">
       <use xlink:href="#ArialMT-30"/>
       <use xlink:href="#ArialMT-2e" x="55.615234"/>
       <use xlink:href="#ArialMT-35" x="83.398438"/>
      </g>
     </g>
    </g>
    <g id="ytick_35">
     <g id="line2d_84">
      <g>
       <use xlink:href="#mb411e4ac84" x="41.223281" y="213.991719" style="fill: #262626; stroke: #262626; stroke-width: 0.8"/>
      </g>
     </g>
     <g id="text_27">
      <!-- 1.0 -->
      <g style="fill: #262626" transform="translate(24.103281 216.854844)scale(0.08 -0.08)">
       <use xlink:href="#ArialMT-31"/>
       <use xlink:href="#ArialMT-2e" x="55.615234"/>
       <use xlink:href="#ArialMT-30" x="83.398438"/>
      </g>
     </g>
    </g>
    <g id="text_28">
     <!-- effect size -->
     <g style="fill: #262626" transform="translate(13.642031 268.950078)rotate(-90)scale(0.09 -0.09)">
      <use xlink:href="#ArialMT-65"/>
      <use xlink:href="#ArialMT-66" x="55.615234"/>
      <use xlink:href="#ArialMT-66" x="81.648438"/>
      <use xlink:href="#ArialMT-65" x="109.431641"/>
      <use xlink:href="#ArialMT-63" x="165.046875"/>
      <use xlink:href="#ArialMT-74" x="215.046875"/>
      <use xlink:href="#ArialMT-20" x="242.830078"/>
      <use xlink:href="#ArialMT-73" x="270.613281"/>
      <use xlink:href="#ArialMT-69" x="320.613281"/>
      <use xlink:href="#ArialMT-7a" x="342.830078"/>
      <use xlink:href="#ArialMT-65" x="392.830078"/>
     </g>
    </g>
   </g>
   <g id="line2d_85">
    <path d="M 44.790055 249.076603 
L 47.249898 249.3829 
L 49.709742 248.895361 
L 52.169586 249.084372 
L 54.62943 249.059682 
L 57.089273 248.564304 
L 59.549117 248.357165 
L 62.008961 248.240961 
L 64.468805 247.795265 
L 66.928648 248.26975 
L 69.388492 248.71139 
L 71.848336 248.293937 
L 74.30818 248.739351 
L 76.768023 249.173078 
L 79.227867 248.771094 
L 81.687711 249.169372 
L 84.147554 249.455184 
L 86.607398 249.054767 
L 89.067242 249.125299 
L 91.527086 248.722237 
L 93.986929 248.611458 
L 96.446773 248.210865 
L 98.906617 248.19001 
L 101.366461 247.830437 
L 103.826304 248.386482 
L 106.286148 248.044389 
L 108.745992 248.571833 
L 111.205836 249.09601 
L 113.665679 248.766567 
L 116.125523 249.281788 
" clip-path="url(#p3a11c66988)" style="fill: none; stroke: #4c72b0; stroke-linecap: round"/>
   </g>
   <g id="line2d_86">
    <path d="M 44.790055 249.085004 
L 47.249898 249.255908 
L 49.709742 248.760988 
L 52.169586 248.945457 
L 54.62943 249.135535 
L 57.089273 248.662903 
L 59.549117 248.865502 
L 62.008961 249.07758 
L 64.468805 248.626792 
L 66.928648 248.864304 
L 69.388492 249.10581 
L 71.848336 248.674815 
L 74.30818 248.927124 
L 76.768023 249.183821 
L 79.227867 248.771094 
L 81.687711 249.037808 
L 84.147554 249.30847 
L 86.607398 248.91292 
L 89.067242 249.192846 
L 91.527086 248.808205 
L 93.986929 249.096932 
L 96.446773 248.722764 
L 98.906617 249.024237 
L 101.366461 248.660942 
L 103.826304 248.984005 
L 106.286148 248.63052 
L 108.745992 248.960596 
L 111.205836 249.2935 
L 113.665679 248.953787 
L 116.125523 249.293845 
" clip-path="url(#p3a11c66988)" style="fill: none; stroke: #dd8452; stroke-linecap: round"/>
   </g>
   <g id="line2d_87">
    <path d="M 44.790055 247.896562 
L 47.249898 248.009597 
L 49.709742 248.021084 
L 52.169586 248.21907 
L 54.62943 248.413964 
L 57.089273 248.424989 
L 59.549117 248.548242 
L 62.008961 248.617673 
L 64.468805 248.61957 
L 66.928648 248.635561 
L 69.388492 248.661663 
L 71.848336 248.663726 
L 74.30818 248.702996 
L 76.768023 248.765874 
L 79.227867 248.771094 
L 81.687711 248.886423 
L 84.147554 249.081534 
L 86.607398 249.095014 
L 89.067242 249.291629 
L 91.527086 249.300951 
L 93.986929 249.426795 
L 96.446773 249.432631 
L 98.906617 249.501991 
L 101.366461 249.503595 
L 103.826304 249.519637 
L 106.286148 249.52085 
L 108.745992 249.547272 
L 111.205836 249.58584 
L 113.665679 249.588381 
L 116.125523 249.651067 
" clip-path="url(#p3a11c66988)" style="fill: none; stroke: #55a868; stroke-linecap: round"/>
   </g>
   <g id="line2d_88">
    <path d="M 44.790055 248.691764 
L 47.249898 248.771094 
L 49.709742 248.691764 
L 52.169586 248.771094 
L 54.62943 248.771094 
L 57.089273 248.691764 
L 59.549117 248.771094 
L 62.008961 248.771094 
L 64.468805 248.771094 
L 66.928648 248.771094 
L 69.388492 248.771094 
L 71.848336 248.771094 
L 74.30818 248.771094 
L 76.768023 248.771094 
L 79.227867 248.771094 
L 81.687711 248.771094 
L 84.147554 248.850549 
L 86.607398 248.771094 
L 89.067242 248.850549 
L 91.527086 248.850549 
L 93.986929 248.850549 
L 96.446773 248.850549 
L 98.906617 248.850549 
L 101.366461 248.850549 
L 103.826304 248.850549 
L 106.286148 248.850549 
L 108.745992 248.850549 
L 111.205836 248.850549 
L 113.665679 248.850549 
L 116.125523 248.93013 
" clip-path="url(#p3a11c66988)" style="fill: none; stroke: #c44e52; stroke-linecap: round"/>
   </g>
   <g id="patch_33">
    <path d="M 41.223281 283.550469 
L 41.223281 213.991719 
" style="fill: none; stroke: #262626; stroke-linejoin: miter; stroke-linecap: square"/>
   </g>
   <g id="patch_34">
    <path d="M 119.692296 283.550469 
L 119.692296 213.991719 
" style="fill: none; stroke: #262626; stroke-linejoin: miter; stroke-linecap: square"/>
   </g>
   <g id="patch_35">
    <path d="M 41.223281 283.550469 
L 119.692296 283.550469 
" style="fill: none; stroke: #262626; stroke-linejoin: miter; stroke-linecap: square"/>
   </g>
   <g id="patch_36">
    <path d="M 41.223281 213.991719 
L 119.692296 213.991719 
" style="fill: none; stroke: #262626; stroke-linejoin: miter; stroke-linecap: square"/>
   </g>
   <g id="text_29">
    <!-- beta_naive -->
    <g style="fill: #262626" transform="translate(58.440836 207.991719)scale(0.09 -0.09)">
     <use xlink:href="#ArialMT-62"/>
     <use xlink:href="#ArialMT-65" x="55.615234"/>
     <use xlink:href="#ArialMT-74" x="111.230469"/>
     <use xlink:href="#ArialMT-61" x="139.013672"/>
     <use xlink:href="#ArialMT-5f" x="194.628906"/>
     <use xlink:href="#ArialMT-6e" x="250.244141"/>
     <use xlink:href="#ArialMT-61" x="305.859375"/>
     <use xlink:href="#ArialMT-69" x="361.474609"/>
     <use xlink:href="#ArialMT-76" x="383.691406"/>
     <use xlink:href="#ArialMT-65" x="433.691406"/>
    </g>
   </g>
  </g>
  <g id="axes_8">
   <g id="patch_37">
    <path d="M 135.125839 283.550469 
L 213.594854 283.550469 
L 213.594854 213.991719 
L 135.125839 213.991719 
z
" style="fill: #ffffff"/>
   </g>
   <g id="matplotlib.axis_15">
    <g id="xtick_22">
     <g id="line2d_89">
      <g>
       <use xlink:href="#m5b6d7c6f01" x="137.585683" y="283.550469" style="fill: #262626; stroke: #262626; stroke-width: 0.8"/>
      </g>
     </g>
     <g id="text_30">
      <!-- 0.9 -->
      <g style="fill: #262626" transform="translate(132.025683 295.276719)scale(0.08 -0.08)">
       <use xlink:href="#ArialMT-30"/>
       <use xlink:href="#ArialMT-2e" x="55.615234"/>
       <use xlink:href="#ArialMT-39" x="83.398438"/>
      </g>
     </g>
    </g>
    <g id="xtick_23">
     <g id="line2d_90">
      <g>
       <use xlink:href="#m5b6d7c6f01" x="173.130425" y="283.550469" style="fill: #262626; stroke: #262626; stroke-width: 0.8"/>
      </g>
     </g>
     <g id="text_31">
      <!-- 1.0 -->
      <g style="fill: #262626" transform="translate(167.570425 295.276719)scale(0.08 -0.08)">
       <use xlink:href="#ArialMT-31"/>
       <use xlink:href="#ArialMT-2e" x="55.615234"/>
       <use xlink:href="#ArialMT-30" x="83.398438"/>
      </g>
     </g>
    </g>
    <g id="xtick_24">
     <g id="line2d_91">
      <g>
       <use xlink:href="#m5b6d7c6f01" x="208.675167" y="283.550469" style="fill: #262626; stroke: #262626; stroke-width: 0.8"/>
      </g>
     </g>
     <g id="text_32">
      <!-- 1.1 -->
      <g style="fill: #262626" transform="translate(203.115167 295.276719)scale(0.08 -0.08)">
       <use xlink:href="#ArialMT-31"/>
       <use xlink:href="#ArialMT-2e" x="55.615234"/>
       <use xlink:href="#ArialMT-31" x="83.398438"/>
      </g>
     </g>
    </g>
    <g id="text_33">
     <!-- param value norm. -->
     <g style="fill: #262626" transform="translate(136.847222 307.30875)scale(0.09 -0.09)">
      <use xlink:href="#ArialMT-70"/>
      <use xlink:href="#ArialMT-61" x="55.615234"/>
      <use xlink:href="#ArialMT-72" x="111.230469"/>
      <use xlink:href="#ArialMT-61" x="144.53125"/>
      <use xlink:href="#ArialMT-6d" x="200.146484"/>
      <use xlink:href="#ArialMT-20" x="283.447266"/>
      <use xlink:href="#ArialMT-76" x="311.230469"/>
      <use xlink:href="#ArialMT-61" x="361.230469"/>
      <use xlink:href="#ArialMT-6c" x="416.845703"/>
      <use xlink:href="#ArialMT-75" x="439.0625"/>
      <use xlink:href="#ArialMT-65" x="494.677734"/>
      <use xlink:href="#ArialMT-20" x="550.292969"/>
      <use xlink:href="#ArialMT-6e" x="578.076172"/>
      <use xlink:href="#ArialMT-6f" x="633.691406"/>
      <use xlink:href="#ArialMT-72" x="689.306641"/>
      <use xlink:href="#ArialMT-6d" x="722.607422"/>
      <use xlink:href="#ArialMT-2e" x="805.908203"/>
     </g>
    </g>
   </g>
   <g id="matplotlib.axis_16">
    <g id="ytick_36">
     <g id="line2d_92">
      <g>
       <use xlink:href="#mb411e4ac84" x="135.125839" y="283.550469" style="fill: #262626; stroke: #262626; stroke-width: 0.8"/>
      </g>
     </g>
    </g>
    <g id="ytick_37">
     <g id="line2d_93">
      <g>
       <use xlink:href="#mb411e4ac84" x="135.125839" y="266.160781" style="fill: #262626; stroke: #262626; stroke-width: 0.8"/>
      </g>
     </g>
    </g>
    <g id="ytick_38">
     <g id="line2d_94">
      <g>
       <use xlink:href="#mb411e4ac84" x="135.125839" y="248.771094" style="fill: #262626; stroke: #262626; stroke-width: 0.8"/>
      </g>
     </g>
    </g>
    <g id="ytick_39">
     <g id="line2d_95">
      <g>
       <use xlink:href="#mb411e4ac84" x="135.125839" y="231.381406" style="fill: #262626; stroke: #262626; stroke-width: 0.8"/>
      </g>
     </g>
    </g>
    <g id="ytick_40">
     <g id="line2d_96">
      <g>
       <use xlink:href="#mb411e4ac84" x="135.125839" y="213.991719" style="fill: #262626; stroke: #262626; stroke-width: 0.8"/>
      </g>
     </g>
    </g>
   </g>
   <g id="line2d_97">
    <path d="M 138.692612 248.40182 
L 141.152456 248.364358 
L 143.6123 248.328065 
L 146.072144 248.292906 
L 148.531987 248.258907 
L 150.991831 248.226005 
L 153.451675 248.194169 
L 155.911518 248.163368 
L 158.371362 248.133602 
L 160.831206 248.104751 
L 163.29105 248.076881 
L 165.750893 248.049931 
L 168.210737 248.820644 
L 170.670581 248.795401 
L 173.130425 248.771094 
L 175.590268 248.747579 
L 178.050112 248.724864 
L 180.509956 248.702927 
L 182.9698 248.681746 
L 185.429643 248.6613 
L 187.889487 248.641599 
L 190.349331 248.622534 
L 192.809175 248.604176 
L 195.269018 248.586476 
L 197.728862 248.569416 
L 200.188706 248.552981 
L 202.64855 248.537151 
L 205.108393 248.521912 
L 207.568237 248.507248 
L 210.028081 248.493112 
" clip-path="url(#pd20f8a8cbf)" style="fill: none; stroke: #4c72b0; stroke-linecap: round"/>
   </g>
   <g id="line2d_98">
    <path d="M 138.692612 248.527784 
L 141.152456 248.490096 
L 143.6123 248.453582 
L 146.072144 248.418206 
L 148.531987 248.383994 
L 150.991831 248.350884 
L 153.451675 248.318843 
L 155.911518 248.28784 
L 158.371362 248.257875 
L 160.831206 248.228831 
L 163.29105 248.20077 
L 165.750893 248.173633 
L 168.210737 248.821007 
L 170.670581 248.795582 
L 173.130425 248.771094 
L 175.590268 248.747402 
L 178.050112 248.724513 
L 180.509956 248.702405 
L 182.9698 248.681055 
L 185.429643 248.660444 
L 187.889487 248.64058 
L 190.349331 248.621355 
L 192.809175 248.602839 
L 195.269018 248.584984 
L 197.728862 248.567772 
L 200.188706 248.551186 
L 202.64855 248.535209 
L 205.108393 248.519824 
L 207.568237 248.505016 
L 210.028081 248.49074 
" clip-path="url(#pd20f8a8cbf)" style="fill: none; stroke: #dd8452; stroke-linecap: round"/>
   </g>
   <g id="line2d_99">
    <path d="M 138.692612 248.663156 
L 141.152456 248.663156 
L 143.6123 248.663156 
L 146.072144 248.663156 
L 148.531987 248.663156 
L 150.991831 248.663156 
L 153.451675 248.663156 
L 155.911518 248.663156 
L 158.371362 248.663156 
L 160.831206 248.663156 
L 163.29105 248.663156 
L 165.750893 248.663156 
L 168.210737 248.771094 
L 170.670581 248.771094 
L 173.130425 248.771094 
L 175.590268 248.771094 
L 178.050112 248.771094 
L 180.509956 248.771094 
L 182.9698 248.771094 
L 185.429643 248.771094 
L 187.889487 248.771094 
L 190.349331 248.771094 
L 192.809175 248.771094 
L 195.269018 248.771094 
L 197.728862 248.771094 
L 200.188706 248.771094 
L 202.64855 248.771094 
L 205.108393 248.771094 
L 207.568237 248.771094 
L 210.028081 248.771094 
" clip-path="url(#pd20f8a8cbf)" style="fill: none; stroke: #55a868; stroke-linecap: round"/>
   </g>
   <g id="line2d_100">
    <path d="M 138.692612 248.691638 
L 141.152456 248.691638 
L 143.6123 248.691638 
L 146.072144 248.691638 
L 148.531987 248.691638 
L 150.991831 248.691638 
L 153.451675 248.691638 
L 155.911518 248.691638 
L 158.371362 248.691638 
L 160.831206 248.691638 
L 163.29105 248.691638 
L 165.750893 248.691638 
L 168.210737 248.771094 
L 170.670581 248.771094 
L 173.130425 248.771094 
L 175.590268 248.771094 
L 178.050112 248.771094 
L 180.509956 248.771094 
L 182.9698 248.771094 
L 185.429643 248.771094 
L 187.889487 248.771094 
L 190.349331 248.771094 
L 192.809175 248.771094 
L 195.269018 248.691638 
L 197.728862 248.691638 
L 200.188706 248.691638 
L 202.64855 248.691638 
L 205.108393 248.691638 
L 207.568237 248.691638 
L 210.028081 248.691638 
" clip-path="url(#pd20f8a8cbf)" style="fill: none; stroke: #c44e52; stroke-linecap: round"/>
   </g>
   <g id="patch_38">
    <path d="M 135.125839 283.550469 
L 135.125839 213.991719 
" style="fill: none; stroke: #262626; stroke-linejoin: miter; stroke-linecap: square"/>
   </g>
   <g id="patch_39">
    <path d="M 213.594854 283.550469 
L 213.594854 213.991719 
" style="fill: none; stroke: #262626; stroke-linejoin: miter; stroke-linecap: square"/>
   </g>
   <g id="patch_40">
    <path d="M 135.125839 283.550469 
L 213.594854 283.550469 
" style="fill: none; stroke: #262626; stroke-linejoin: miter; stroke-linecap: square"/>
   </g>
   <g id="patch_41">
    <path d="M 135.125839 213.991719 
L 213.594854 213.991719 
" style="fill: none; stroke: #262626; stroke-linejoin: miter; stroke-linecap: square"/>
   </g>
   <g id="text_34">
    <!-- beta_prec -->
    <g style="fill: #262626" transform="translate(154.3473 207.991719)scale(0.09 -0.09)">
     <use xlink:href="#ArialMT-62"/>
     <use xlink:href="#ArialMT-65" x="55.615234"/>
     <use xlink:href="#ArialMT-74" x="111.230469"/>
     <use xlink:href="#ArialMT-61" x="139.013672"/>
     <use xlink:href="#ArialMT-5f" x="194.628906"/>
     <use xlink:href="#ArialMT-70" x="250.244141"/>
     <use xlink:href="#ArialMT-72" x="305.859375"/>
     <use xlink:href="#ArialMT-65" x="339.160156"/>
     <use xlink:href="#ArialMT-63" x="394.775391"/>
    </g>
   </g>
  </g>
  <g id="axes_9">
   <g id="patch_42">
    <path d="M 229.028397 283.550469 
L 307.497412 283.550469 
L 307.497412 213.991719 
L 229.028397 213.991719 
z
" style="fill: #ffffff"/>
   </g>
   <g id="matplotlib.axis_17">
    <g id="xtick_25">
     <g id="line2d_101">
      <g>
       <use xlink:href="#m5b6d7c6f01" x="231.48824" y="283.550469" style="fill: #262626; stroke: #262626; stroke-width: 0.8"/>
      </g>
     </g>
     <g id="text_35">
      <!-- 0.9 -->
      <g style="fill: #262626" transform="translate(225.92824 295.276719)scale(0.08 -0.08)">
       <use xlink:href="#ArialMT-30"/>
       <use xlink:href="#ArialMT-2e" x="55.615234"/>
       <use xlink:href="#ArialMT-39" x="83.398438"/>
      </g>
     </g>
    </g>
    <g id="xtick_26">
     <g id="line2d_102">
      <g>
       <use xlink:href="#m5b6d7c6f01" x="267.032982" y="283.550469" style="fill: #262626; stroke: #262626; stroke-width: 0.8"/>
      </g>
     </g>
     <g id="text_36">
      <!-- 1.0 -->
      <g style="fill: #262626" transform="translate(261.472982 295.276719)scale(0.08 -0.08)">
       <use xlink:href="#ArialMT-31"/>
       <use xlink:href="#ArialMT-2e" x="55.615234"/>
       <use xlink:href="#ArialMT-30" x="83.398438"/>
      </g>
     </g>
    </g>
    <g id="xtick_27">
     <g id="line2d_103">
      <g>
       <use xlink:href="#m5b6d7c6f01" x="302.577724" y="283.550469" style="fill: #262626; stroke: #262626; stroke-width: 0.8"/>
      </g>
     </g>
     <g id="text_37">
      <!-- 1.1 -->
      <g style="fill: #262626" transform="translate(297.017724 295.276719)scale(0.08 -0.08)">
       <use xlink:href="#ArialMT-31"/>
       <use xlink:href="#ArialMT-2e" x="55.615234"/>
       <use xlink:href="#ArialMT-31" x="83.398438"/>
      </g>
     </g>
    </g>
    <g id="text_38">
     <!-- param value norm. -->
     <g style="fill: #262626" transform="translate(230.749779 307.30875)scale(0.09 -0.09)">
      <use xlink:href="#ArialMT-70"/>
      <use xlink:href="#ArialMT-61" x="55.615234"/>
      <use xlink:href="#ArialMT-72" x="111.230469"/>
      <use xlink:href="#ArialMT-61" x="144.53125"/>
      <use xlink:href="#ArialMT-6d" x="200.146484"/>
      <use xlink:href="#ArialMT-20" x="283.447266"/>
      <use xlink:href="#ArialMT-76" x="311.230469"/>
      <use xlink:href="#ArialMT-61" x="361.230469"/>
      <use xlink:href="#ArialMT-6c" x="416.845703"/>
      <use xlink:href="#ArialMT-75" x="439.0625"/>
      <use xlink:href="#ArialMT-65" x="494.677734"/>
      <use xlink:href="#ArialMT-20" x="550.292969"/>
      <use xlink:href="#ArialMT-6e" x="578.076172"/>
      <use xlink:href="#ArialMT-6f" x="633.691406"/>
      <use xlink:href="#ArialMT-72" x="689.306641"/>
      <use xlink:href="#ArialMT-6d" x="722.607422"/>
      <use xlink:href="#ArialMT-2e" x="805.908203"/>
     </g>
    </g>
   </g>
   <g id="matplotlib.axis_18">
    <g id="ytick_41">
     <g id="line2d_104">
      <g>
       <use xlink:href="#mb411e4ac84" x="229.028397" y="283.550469" style="fill: #262626; stroke: #262626; stroke-width: 0.8"/>
      </g>
     </g>
    </g>
    <g id="ytick_42">
     <g id="line2d_105">
      <g>
       <use xlink:href="#mb411e4ac84" x="229.028397" y="266.160781" style="fill: #262626; stroke: #262626; stroke-width: 0.8"/>
      </g>
     </g>
    </g>
    <g id="ytick_43">
     <g id="line2d_106">
      <g>
       <use xlink:href="#mb411e4ac84" x="229.028397" y="248.771094" style="fill: #262626; stroke: #262626; stroke-width: 0.8"/>
      </g>
     </g>
    </g>
    <g id="ytick_44">
     <g id="line2d_107">
      <g>
       <use xlink:href="#mb411e4ac84" x="229.028397" y="231.381406" style="fill: #262626; stroke: #262626; stroke-width: 0.8"/>
      </g>
     </g>
    </g>
    <g id="ytick_45">
     <g id="line2d_108">
      <g>
       <use xlink:href="#mb411e4ac84" x="229.028397" y="213.991719" style="fill: #262626; stroke: #262626; stroke-width: 0.8"/>
      </g>
     </g>
    </g>
   </g>
   <g id="line2d_109">
    <path d="M 232.59517 247.675862 
L 235.055014 247.996027 
L 237.514857 247.424566 
L 239.974701 247.744824 
L 242.434545 248.065059 
L 244.894389 247.67907 
L 247.354232 247.999527 
L 249.814076 248.066722 
L 252.27392 248.387985 
L 254.733764 248.367867 
L 257.193607 248.690385 
L 259.653451 248.495086 
L 262.113295 248.819425 
L 264.573139 248.445117 
L 267.032982 248.771094 
L 269.492826 248.300778 
L 271.95267 248.627708 
L 274.412514 248.118635 
L 276.872357 248.446095 
L 279.332201 247.920198 
L 281.792045 248.247975 
L 284.251888 247.713949 
L 286.711732 248.041929 
L 289.171576 248.369886 
L 291.63142 247.809541 
L 294.091263 248.137616 
L 296.551107 247.765103 
L 299.010951 248.093405 
L 301.470795 248.185867 
L 303.930638 248.514932 
" clip-path="url(#pde5ca64565)" style="fill: none; stroke: #4c72b0; stroke-linecap: round"/>
   </g>
   <g id="line2d_110">
    <path d="M 232.59517 244.11298 
L 235.055014 244.752552 
L 237.514857 244.698839 
L 239.974701 245.333271 
L 242.434545 245.964804 
L 244.894389 245.908176 
L 247.354232 246.534838 
L 249.814076 246.484642 
L 252.27392 247.106651 
L 254.733764 247.05261 
L 257.193607 247.67011 
L 259.653451 247.611716 
L 262.113295 248.224843 
L 264.573139 248.162209 
L 267.032982 248.771094 
L 269.492826 248.704297 
L 271.95267 249.309065 
L 274.412514 249.238268 
L 276.872357 249.839037 
L 279.332201 249.764309 
L 281.792045 250.361193 
L 284.251888 250.282627 
L 286.711732 250.875736 
L 289.171576 251.466601 
L 291.63142 251.382337 
L 294.091263 251.969584 
L 296.551107 251.886297 
L 299.010951 252.47005 
L 301.470795 252.395733 
L 303.930638 252.976148 
" clip-path="url(#pde5ca64565)" style="fill: none; stroke: #dd8452; stroke-linecap: round"/>
   </g>
   <g id="line2d_111">
    <path d="M 232.59517 249.405397 
L 235.055014 249.406343 
L 237.514857 249.390499 
L 239.974701 249.391319 
L 242.434545 249.392139 
L 244.894389 249.363052 
L 247.354232 249.363842 
L 249.814076 249.273514 
L 252.27392 249.274527 
L 254.733764 249.137954 
L 257.193607 249.139452 
L 259.653451 248.944038 
L 262.113295 248.946158 
L 264.573139 248.769098 
L 267.032982 248.771094 
L 269.492826 248.664943 
L 271.95267 248.666524 
L 274.412514 248.60454 
L 276.872357 248.605809 
L 279.332201 248.566303 
L 281.792045 248.56736 
L 284.251888 248.540131 
L 286.711732 248.541037 
L 289.171576 248.541943 
L 291.63142 248.523726 
L 294.091263 248.524512 
L 296.551107 248.495339 
L 299.010951 248.496095 
L 301.470795 248.411732 
L 303.930638 248.412685 
" clip-path="url(#pde5ca64565)" style="fill: none; stroke: #55a868; stroke-linecap: round"/>
   </g>
   <g id="line2d_112">
    <path d="M 232.59517 244.082574 
L 235.055014 244.444857 
L 237.514857 244.736579 
L 239.974701 245.103633 
L 242.434545 245.473392 
L 244.894389 245.771173 
L 247.354232 246.145903 
L 249.814076 246.447714 
L 252.27392 246.82755 
L 254.733764 247.133502 
L 257.193607 247.441332 
L 259.653451 247.751061 
L 262.113295 248.140931 
L 264.573139 248.376316 
L 267.032982 248.771094 
L 269.492826 249.00946 
L 271.95267 249.329054 
L 274.412514 249.650696 
L 276.872357 249.974414 
L 279.332201 250.21858 
L 281.792045 250.545994 
L 284.251888 250.792964 
L 286.711732 251.12416 
L 289.171576 251.457557 
L 291.63142 251.709066 
L 294.091263 252.046386 
L 296.551107 252.300871 
L 299.010951 252.642206 
L 301.470795 252.89974 
L 303.930638 253.158602 
" clip-path="url(#pde5ca64565)" style="fill: none; stroke: #c44e52; stroke-linecap: round"/>
   </g>
   <g id="patch_43">
    <path d="M 229.028397 283.550469 
L 229.028397 213.991719 
" style="fill: none; stroke: #262626; stroke-linejoin: miter; stroke-linecap: square"/>
   </g>
   <g id="patch_44">
    <path d="M 307.497412 283.550469 
L 307.497412 213.991719 
" style="fill: none; stroke: #262626; stroke-linejoin: miter; stroke-linecap: square"/>
   </g>
   <g id="patch_45">
    <path d="M 229.028397 283.550469 
L 307.497412 283.550469 
" style="fill: none; stroke: #262626; stroke-linejoin: miter; stroke-linecap: square"/>
   </g>
   <g id="patch_46">
    <path d="M 229.028397 213.991719 
L 307.497412 213.991719 
" style="fill: none; stroke: #262626; stroke-linejoin: miter; stroke-linecap: square"/>
   </g>
   <g id="text_39">
    <!-- d_eff -->
    <g style="fill: #262626" transform="translate(258.334076 207.991719)scale(0.09 -0.09)">
     <use xlink:href="#ArialMT-64"/>
     <use xlink:href="#ArialMT-5f" x="55.615234"/>
     <use xlink:href="#ArialMT-65" x="111.230469"/>
     <use xlink:href="#ArialMT-66" x="166.845703"/>
     <use xlink:href="#ArialMT-66" x="192.878906"/>
    </g>
   </g>
  </g>
  <g id="legend_1">
   <g id="text_40">
    <!-- readout -->
    <g style="fill: #262626" transform="translate(324.719937 138.054531)scale(0.1 -0.1)">
     <use xlink:href="#ArialMT-72"/>
     <use xlink:href="#ArialMT-65" x="33.300781"/>
     <use xlink:href="#ArialMT-61" x="88.916016"/>
     <use xlink:href="#ArialMT-64" x="144.53125"/>
     <use xlink:href="#ArialMT-6f" x="200.146484"/>
     <use xlink:href="#ArialMT-75" x="255.761719"/>
     <use xlink:href="#ArialMT-74" x="311.376953"/>
    </g>
   </g>
   <g id="line2d_113">
    <path d="M 313.803062 146.968281 
L 321.803062 146.968281 
L 329.803062 146.968281 
" style="fill: none; stroke: #4c72b0; stroke-linecap: round"/>
   </g>
   <g id="text_41">
    <!-- Peak -->
    <g style="fill: #262626" transform="translate(336.203062 149.768281)scale(0.08 -0.08)">
     <defs>
      <path id="ArialMT-50" d="M 494 0 
L 494 4581 
L 2222 4581 
Q 2678 4581 2919 4538 
Q 3256 4481 3484 4323 
Q 3713 4166 3852 3881 
Q 3991 3597 3991 3256 
Q 3991 2672 3619 2267 
Q 3247 1863 2275 1863 
L 1100 1863 
L 1100 0 
L 494 0 
z
M 1100 2403 
L 2284 2403 
Q 2872 2403 3119 2622 
Q 3366 2841 3366 3238 
Q 3366 3525 3220 3729 
Q 3075 3934 2838 4000 
Q 2684 4041 2272 4041 
L 1100 4041 
L 1100 2403 
z
" transform="scale(0.015625)"/>
      <path id="ArialMT-6b" d="M 425 0 
L 425 4581 
L 988 4581 
L 988 1969 
L 2319 3319 
L 3047 3319 
L 1778 2088 
L 3175 0 
L 2481 0 
L 1384 1697 
L 988 1316 
L 988 0 
L 425 0 
z
" transform="scale(0.015625)"/>
     </defs>
     <use xlink:href="#ArialMT-50"/>
     <use xlink:href="#ArialMT-65" x="66.699219"/>
     <use xlink:href="#ArialMT-61" x="122.314453"/>
     <use xlink:href="#ArialMT-6b" x="177.929688"/>
    </g>
   </g>
   <g id="line2d_114">
    <path d="M 313.803062 158.284531 
L 321.803062 158.284531 
L 329.803062 158.284531 
" style="fill: none; stroke: #dd8452; stroke-linecap: round"/>
   </g>
   <g id="text_42">
    <!-- Area -->
    <g style="fill: #262626" transform="translate(336.203062 161.084531)scale(0.08 -0.08)">
     <defs>
      <path id="ArialMT-41" d="M -9 0 
L 1750 4581 
L 2403 4581 
L 4278 0 
L 3588 0 
L 3053 1388 
L 1138 1388 
L 634 0 
L -9 0 
z
M 1313 1881 
L 2866 1881 
L 2388 3150 
Q 2169 3728 2063 4100 
Q 1975 3659 1816 3225 
L 1313 1881 
z
" transform="scale(0.015625)"/>
     </defs>
     <use xlink:href="#ArialMT-41"/>
     <use xlink:href="#ArialMT-72" x="66.699219"/>
     <use xlink:href="#ArialMT-65" x="100"/>
     <use xlink:href="#ArialMT-61" x="155.615234"/>
    </g>
   </g>
   <g id="line2d_115">
    <path d="M 313.803062 169.600781 
L 321.803062 169.600781 
L 329.803062 169.600781 
" style="fill: none; stroke: #55a868; stroke-linecap: round"/>
   </g>
   <g id="text_43">
    <!-- Peaktime -->
    <g style="fill: #262626" transform="translate(336.203062 172.400781)scale(0.08 -0.08)">
     <use xlink:href="#ArialMT-50"/>
     <use xlink:href="#ArialMT-65" x="66.699219"/>
     <use xlink:href="#ArialMT-61" x="122.314453"/>
     <use xlink:href="#ArialMT-6b" x="177.929688"/>
     <use xlink:href="#ArialMT-74" x="227.929688"/>
     <use xlink:href="#ArialMT-69" x="255.712891"/>
     <use xlink:href="#ArialMT-6d" x="277.929688"/>
     <use xlink:href="#ArialMT-65" x="361.230469"/>
    </g>
   </g>
   <g id="line2d_116">
    <path d="M 313.803062 180.917031 
L 321.803062 180.917031 
L 329.803062 180.917031 
" style="fill: none; stroke: #c44e52; stroke-linecap: round"/>
   </g>
   <g id="text_44">
    <!-- Decay -->
    <g style="fill: #262626" transform="translate(336.203062 183.717031)scale(0.08 -0.08)">
     <defs>
      <path id="ArialMT-44" d="M 494 0 
L 494 4581 
L 2072 4581 
Q 2606 4581 2888 4516 
Q 3281 4425 3559 4188 
Q 3922 3881 4101 3404 
Q 4281 2928 4281 2316 
Q 4281 1794 4159 1391 
Q 4038 988 3847 723 
Q 3656 459 3429 307 
Q 3203 156 2883 78 
Q 2563 0 2147 0 
L 494 0 
z
M 1100 541 
L 2078 541 
Q 2531 541 2789 625 
Q 3047 709 3200 863 
Q 3416 1078 3536 1442 
Q 3656 1806 3656 2325 
Q 3656 3044 3420 3430 
Q 3184 3816 2847 3947 
Q 2603 4041 2063 4041 
L 1100 4041 
L 1100 541 
z
" transform="scale(0.015625)"/>
      <path id="ArialMT-79" d="M 397 -1278 
L 334 -750 
Q 519 -800 656 -800 
Q 844 -800 956 -737 
Q 1069 -675 1141 -563 
Q 1194 -478 1313 -144 
Q 1328 -97 1363 -6 
L 103 3319 
L 709 3319 
L 1400 1397 
Q 1534 1031 1641 628 
Q 1738 1016 1872 1384 
L 2581 3319 
L 3144 3319 
L 1881 -56 
Q 1678 -603 1566 -809 
Q 1416 -1088 1222 -1217 
Q 1028 -1347 759 -1347 
Q 597 -1347 397 -1278 
z
" transform="scale(0.015625)"/>
     </defs>
     <use xlink:href="#ArialMT-44"/>
     <use xlink:href="#ArialMT-65" x="72.216797"/>
     <use xlink:href="#ArialMT-63" x="127.832031"/>
     <use xlink:href="#ArialMT-61" x="177.832031"/>
     <use xlink:href="#ArialMT-79" x="233.447266"/>
    </g>
   </g>
  </g>
 </g>
 <defs>
  <clipPath id="p2e8a1b3c00">
   <rect x="41.223281" y="19.751719" width="78.469015" height="69.55875"/>
  </clipPath>
  <clipPath id="p9a3b0b4fb1">
   <rect x="135.125839" y="19.751719" width="78.469015" height="69.55875"/>
  </clipPath>
  <clipPath id="pa91dd88dab">
   <rect x="229.028397" y="19.751719" width="78.469015" height="69.55875"/>
  </clipPath>
  <clipPath id="pdd62d41a69">
   <rect x="41.223281" y="116.871719" width="78.469015" height="69.55875"/>
  </clipPath>
  <clipPath id="pca86af5c47">
   <rect x="135.125839" y="116.871719" width="78.469015" height="69.55875"/>
  </clipPath>
  <clipPath id="p7008a6feb9">
   <rect x="229.028397" y="116.871719" width="78.469015" height="69.55875"/>
  </clipPath>
  <clipPath id="p3a11c66988">
   <rect x="41.223281" y="213.991719" width="78.469015" height="69.55875"/>
  </clipPath>
  <clipPath id="pd20f8a8cbf">
   <rect x="135.125839" y="213.991719" width="78.469015" height="69.55875"/>
  </clipPath>
  <clipPath id="pde5ca64565">
   <rect x="229.028397" y="213.991719" width="78.469015" height="69.55875"/>
  </clipPath>
 </defs>
</svg>
