<?xml version="1.0" encoding="utf-8" standalone="no"?>
<!DOCTYPE svg PUBLIC "-//W3C//DTD SVG 1.1//EN"
  "http://www.w3.org/Graphics/SVG/1.1/DTD/svg11.dtd">
<svg xmlns:xlink="http://www.w3.org/1999/xlink" width="818.839596pt" height="147.851406pt" viewBox="0 0 818.839596 147.851406" xmlns="http://www.w3.org/2000/svg" version="1.1">
 <metadata>
  <rdf:RDF xmlns:dc="http://purl.org/dc/elements/1.1/" xmlns:cc="http://creativecommons.org/ns#" xmlns:rdf="http://www.w3.org/1999/02/22-rdf-syntax-ns#">
   <cc:Work>
    <dc:type rdf:resource="http://purl.org/dc/dcmitype/StillImage"/>
    <dc:date>2022-08-09T16:32:49.104920</dc:date>
    <dc:format>image/svg+xml</dc:format>
    <dc:creator>
     <cc:Agent>
      <dc:title>Matplotlib v3.5.1, https://matplotlib.org/</dc:title>
     </cc:Agent>
    </dc:creator>
   </cc:Work>
  </rdf:RDF>
 </metadata>
 <defs>
  <style type="text/css">*{stroke-linejoin: round; stroke-linecap: butt}</style>
 </defs>
 <g id="figure_1">
  <g id="patch_1">
   <path d="M 0 147.851406 
L 818.839596 147.851406 
L 818.839596 0 
L 0 0 
z
" style="fill: #ffffff"/>
  </g>
  <g id="axes_1">
   <g id="patch_2">
    <path d="M 46.336562 113.198594 
L 173.246611 113.198594 
L 173.246611 20.038594 
L 46.336562 20.038594 
z
" style="fill: #ffffff"/>
   </g>
   <g id="matplotlib.axis_1">
    <g id="xtick_1">
     <g id="line2d_1">
      <defs>
       <path id="m2ea87bf39b" d="M 0 0 
L 0 3.5 
" style="stroke: #000000; stroke-width: 0.8"/>
      </defs>
      <g>
       <use xlink:href="#m2ea87bf39b" x="50.314934" y="113.198594" style="stroke: #000000; stroke-width: 0.8"/>
      </g>
     </g>
     <g id="text_1">
      <!-- 0.90 -->
      <g transform="translate(41.408684 126.277344)scale(0.08 -0.08)">
       <defs>
        <path id="DejaVuSans-30" d="M 2034 4250 
Q 1547 4250 1301 3770 
Q 1056 3291 1056 2328 
Q 1056 1369 1301 889 
Q 1547 409 2034 409 
Q 2525 409 2770 889 
Q 3016 1369 3016 2328 
Q 3016 3291 2770 3770 
Q 2525 4250 2034 4250 
z
M 2034 4750 
Q 2819 4750 3233 4129 
Q 3647 3509 3647 2328 
Q 3647 1150 3233 529 
Q 2819 -91 2034 -91 
Q 1250 -91 836 529 
Q 422 1150 422 2328 
Q 422 3509 836 4129 
Q 1250 4750 2034 4750 
z
" transform="scale(0.015625)"/>
        <path id="DejaVuSans-2e" d="M 684 794 
L 1344 794 
L 1344 0 
L 684 0 
L 684 794 
z
" transform="scale(0.015625)"/>
        <path id="DejaVuSans-39" d="M 703 97 
L 703 672 
Q 941 559 1184 500 
Q 1428 441 1663 441 
Q 2288 441 2617 861 
Q 2947 1281 2994 2138 
Q 2813 1869 2534 1725 
Q 2256 1581 1919 1581 
Q 1219 1581 811 2004 
Q 403 2428 403 3163 
Q 403 3881 828 4315 
Q 1253 4750 1959 4750 
Q 2769 4750 3195 4129 
Q 3622 3509 3622 2328 
Q 3622 1225 3098 567 
Q 2575 -91 1691 -91 
Q 1453 -91 1209 -44 
Q 966 3 703 97 
z
M 1959 2075 
Q 2384 2075 2632 2365 
Q 2881 2656 2881 3163 
Q 2881 3666 2632 3958 
Q 2384 4250 1959 4250 
Q 1534 4250 1286 3958 
Q 1038 3666 1038 3163 
Q 1038 2656 1286 2365 
Q 1534 2075 1959 2075 
z
" transform="scale(0.015625)"/>
       </defs>
       <use xlink:href="#DejaVuSans-30"/>
       <use xlink:href="#DejaVuSans-2e" x="63.623047"/>
       <use xlink:href="#DejaVuSans-39" x="95.410156"/>
       <use xlink:href="#DejaVuSans-30" x="159.033203"/>
      </g>
     </g>
    </g>
    <g id="xtick_2">
     <g id="line2d_2">
      <g>
       <use xlink:href="#m2ea87bf39b" x="79.058667" y="113.198594" style="stroke: #000000; stroke-width: 0.8"/>
      </g>
     </g>
     <g id="text_2">
      <!-- 0.95 -->
      <g transform="translate(70.152417 126.277344)scale(0.08 -0.08)">
       <defs>
        <path id="DejaVuSans-35" d="M 691 4666 
L 3169 4666 
L 3169 4134 
L 1269 4134 
L 1269 2991 
Q 1406 3038 1543 3061 
Q 1681 3084 1819 3084 
Q 2600 3084 3056 2656 
Q 3513 2228 3513 1497 
Q 3513 744 3044 326 
Q 2575 -91 1722 -91 
Q 1428 -91 1123 -41 
Q 819 9 494 109 
L 494 744 
Q 775 591 1075 516 
Q 1375 441 1709 441 
Q 2250 441 2565 725 
Q 2881 1009 2881 1497 
Q 2881 1984 2565 2268 
Q 2250 2553 1709 2553 
Q 1456 2553 1204 2497 
Q 953 2441 691 2322 
L 691 4666 
z
" transform="scale(0.015625)"/>
       </defs>
       <use xlink:href="#DejaVuSans-30"/>
       <use xlink:href="#DejaVuSans-2e" x="63.623047"/>
       <use xlink:href="#DejaVuSans-39" x="95.410156"/>
       <use xlink:href="#DejaVuSans-35" x="159.033203"/>
      </g>
     </g>
    </g>
    <g id="xtick_3">
     <g id="line2d_3">
      <g>
       <use xlink:href="#m2ea87bf39b" x="107.802401" y="113.198594" style="stroke: #000000; stroke-width: 0.8"/>
      </g>
     </g>
     <g id="text_3">
      <!-- 1.00 -->
      <g transform="translate(98.896151 126.277344)scale(0.08 -0.08)">
       <defs>
        <path id="DejaVuSans-31" d="M 794 531 
L 1825 531 
L 1825 4091 
L 703 3866 
L 703 4441 
L 1819 4666 
L 2450 4666 
L 2450 531 
L 3481 531 
L 3481 0 
L 794 0 
L 794 531 
z
" transform="scale(0.015625)"/>
       </defs>
       <use xlink:href="#DejaVuSans-31"/>
       <use xlink:href="#DejaVuSans-2e" x="63.623047"/>
       <use xlink:href="#DejaVuSans-30" x="95.410156"/>
       <use xlink:href="#DejaVuSans-30" x="159.033203"/>
      </g>
     </g>
    </g>
    <g id="xtick_4">
     <g id="line2d_4">
      <g>
       <use xlink:href="#m2ea87bf39b" x="136.546134" y="113.198594" style="stroke: #000000; stroke-width: 0.8"/>
      </g>
     </g>
     <g id="text_4">
      <!-- 1.05 -->
      <g transform="translate(127.639884 126.277344)scale(0.08 -0.08)">
       <use xlink:href="#DejaVuSans-31"/>
       <use xlink:href="#DejaVuSans-2e" x="63.623047"/>
       <use xlink:href="#DejaVuSans-30" x="95.410156"/>
       <use xlink:href="#DejaVuSans-35" x="159.033203"/>
      </g>
     </g>
    </g>
    <g id="xtick_5">
     <g id="line2d_5">
      <g>
       <use xlink:href="#m2ea87bf39b" x="165.289868" y="113.198594" style="stroke: #000000; stroke-width: 0.8"/>
      </g>
     </g>
     <g id="text_5">
      <!-- 1.10 -->
      <g transform="translate(156.383618 126.277344)scale(0.08 -0.08)">
       <use xlink:href="#DejaVuSans-31"/>
       <use xlink:href="#DejaVuSans-2e" x="63.623047"/>
       <use xlink:href="#DejaVuSans-31" x="95.410156"/>
       <use xlink:href="#DejaVuSans-30" x="159.033203"/>
      </g>
     </g>
    </g>
    <g id="text_6">
     <!-- param value norm. -->
     <g transform="translate(66.844008 138.779687)scale(0.09 -0.09)">
      <defs>
       <path id="DejaVuSans-70" d="M 1159 525 
L 1159 -1331 
L 581 -1331 
L 581 3500 
L 1159 3500 
L 1159 2969 
Q 1341 3281 1617 3432 
Q 1894 3584 2278 3584 
Q 2916 3584 3314 3078 
Q 3713 2572 3713 1747 
Q 3713 922 3314 415 
Q 2916 -91 2278 -91 
Q 1894 -91 1617 61 
Q 1341 213 1159 525 
z
M 3116 1747 
Q 3116 2381 2855 2742 
Q 2594 3103 2138 3103 
Q 1681 3103 1420 2742 
Q 1159 2381 1159 1747 
Q 1159 1113 1420 752 
Q 1681 391 2138 391 
Q 2594 391 2855 752 
Q 3116 1113 3116 1747 
z
" transform="scale(0.015625)"/>
       <path id="DejaVuSans-61" d="M 2194 1759 
Q 1497 1759 1228 1600 
Q 959 1441 959 1056 
Q 959 750 1161 570 
Q 1363 391 1709 391 
Q 2188 391 2477 730 
Q 2766 1069 2766 1631 
L 2766 1759 
L 2194 1759 
z
M 3341 1997 
L 3341 0 
L 2766 0 
L 2766 531 
Q 2569 213 2275 61 
Q 1981 -91 1556 -91 
Q 1019 -91 701 211 
Q 384 513 384 1019 
Q 384 1609 779 1909 
Q 1175 2209 1959 2209 
L 2766 2209 
L 2766 2266 
Q 2766 2663 2505 2880 
Q 2244 3097 1772 3097 
Q 1472 3097 1187 3025 
Q 903 2953 641 2809 
L 641 3341 
Q 956 3463 1253 3523 
Q 1550 3584 1831 3584 
Q 2591 3584 2966 3190 
Q 3341 2797 3341 1997 
z
" transform="scale(0.015625)"/>
       <path id="DejaVuSans-72" d="M 2631 2963 
Q 2534 3019 2420 3045 
Q 2306 3072 2169 3072 
Q 1681 3072 1420 2755 
Q 1159 2438 1159 1844 
L 1159 0 
L 581 0 
L 581 3500 
L 1159 3500 
L 1159 2956 
Q 1341 3275 1631 3429 
Q 1922 3584 2338 3584 
Q 2397 3584 2469 3576 
Q 2541 3569 2628 3553 
L 2631 2963 
z
" transform="scale(0.015625)"/>
       <path id="DejaVuSans-6d" d="M 3328 2828 
Q 3544 3216 3844 3400 
Q 4144 3584 4550 3584 
Q 5097 3584 5394 3201 
Q 5691 2819 5691 2113 
L 5691 0 
L 5113 0 
L 5113 2094 
Q 5113 2597 4934 2840 
Q 4756 3084 4391 3084 
Q 3944 3084 3684 2787 
Q 3425 2491 3425 1978 
L 3425 0 
L 2847 0 
L 2847 2094 
Q 2847 2600 2669 2842 
Q 2491 3084 2119 3084 
Q 1678 3084 1418 2786 
Q 1159 2488 1159 1978 
L 1159 0 
L 581 0 
L 581 3500 
L 1159 3500 
L 1159 2956 
Q 1356 3278 1631 3431 
Q 1906 3584 2284 3584 
Q 2666 3584 2933 3390 
Q 3200 3197 3328 2828 
z
" transform="scale(0.015625)"/>
       <path id="DejaVuSans-20" transform="scale(0.015625)"/>
       <path id="DejaVuSans-76" d="M 191 3500 
L 800 3500 
L 1894 563 
L 2988 3500 
L 3597 3500 
L 2284 0 
L 1503 0 
L 191 3500 
z
" transform="scale(0.015625)"/>
       <path id="DejaVuSans-6c" d="M 603 4863 
L 1178 4863 
L 1178 0 
L 603 0 
L 603 4863 
z
" transform="scale(0.015625)"/>
       <path id="DejaVuSans-75" d="M 544 1381 
L 544 3500 
L 1119 3500 
L 1119 1403 
Q 1119 906 1312 657 
Q 1506 409 1894 409 
Q 2359 409 2629 706 
Q 2900 1003 2900 1516 
L 2900 3500 
L 3475 3500 
L 3475 0 
L 2900 0 
L 2900 538 
Q 2691 219 2414 64 
Q 2138 -91 1772 -91 
Q 1169 -91 856 284 
Q 544 659 544 1381 
z
M 1991 3584 
L 1991 3584 
z
" transform="scale(0.015625)"/>
       <path id="DejaVuSans-65" d="M 3597 1894 
L 3597 1613 
L 953 1613 
Q 991 1019 1311 708 
Q 1631 397 2203 397 
Q 2534 397 2845 478 
Q 3156 559 3463 722 
L 3463 178 
Q 3153 47 2828 -22 
Q 2503 -91 2169 -91 
Q 1331 -91 842 396 
Q 353 884 353 1716 
Q 353 2575 817 3079 
Q 1281 3584 2069 3584 
Q 2775 3584 3186 3129 
Q 3597 2675 3597 1894 
z
M 3022 2063 
Q 3016 2534 2758 2815 
Q 2500 3097 2075 3097 
Q 1594 3097 1305 2825 
Q 1016 2553 972 2059 
L 3022 2063 
z
" transform="scale(0.015625)"/>
       <path id="DejaVuSans-6e" d="M 3513 2113 
L 3513 0 
L 2938 0 
L 2938 2094 
Q 2938 2591 2744 2837 
Q 2550 3084 2163 3084 
Q 1697 3084 1428 2787 
Q 1159 2491 1159 1978 
L 1159 0 
L 581 0 
L 581 3500 
L 1159 3500 
L 1159 2956 
Q 1366 3272 1645 3428 
Q 1925 3584 2291 3584 
Q 2894 3584 3203 3211 
Q 3513 2838 3513 2113 
z
" transform="scale(0.015625)"/>
       <path id="DejaVuSans-6f" d="M 1959 3097 
Q 1497 3097 1228 2736 
Q 959 2375 959 1747 
Q 959 1119 1226 758 
Q 1494 397 1959 397 
Q 2419 397 2687 759 
Q 2956 1122 2956 1747 
Q 2956 2369 2687 2733 
Q 2419 3097 1959 3097 
z
M 1959 3584 
Q 2709 3584 3137 3096 
Q 3566 2609 3566 1747 
Q 3566 888 3137 398 
Q 2709 -91 1959 -91 
Q 1206 -91 779 398 
Q 353 888 353 1747 
Q 353 2609 779 3096 
Q 1206 3584 1959 3584 
z
" transform="scale(0.015625)"/>
      </defs>
      <use xlink:href="#DejaVuSans-70"/>
      <use xlink:href="#DejaVuSans-61" x="63.476562"/>
      <use xlink:href="#DejaVuSans-72" x="124.755859"/>
      <use xlink:href="#DejaVuSans-61" x="165.869141"/>
      <use xlink:href="#DejaVuSans-6d" x="227.148438"/>
      <use xlink:href="#DejaVuSans-20" x="324.560547"/>
      <use xlink:href="#DejaVuSans-76" x="356.347656"/>
      <use xlink:href="#DejaVuSans-61" x="415.527344"/>
      <use xlink:href="#DejaVuSans-6c" x="476.806641"/>
      <use xlink:href="#DejaVuSans-75" x="504.589844"/>
      <use xlink:href="#DejaVuSans-65" x="567.96875"/>
      <use xlink:href="#DejaVuSans-20" x="629.492188"/>
      <use xlink:href="#DejaVuSans-6e" x="661.279297"/>
      <use xlink:href="#DejaVuSans-6f" x="724.658203"/>
      <use xlink:href="#DejaVuSans-72" x="785.839844"/>
      <use xlink:href="#DejaVuSans-6d" x="825.203125"/>
      <use xlink:href="#DejaVuSans-2e" x="922.615234"/>
     </g>
    </g>
   </g>
   <g id="matplotlib.axis_2">
    <g id="ytick_1">
     <g id="line2d_6">
      <defs>
       <path id="mc3b397ac98" d="M 0 0 
L -3.5 0 
" style="stroke: #000000; stroke-width: 0.8"/>
      </defs>
      <g>
       <use xlink:href="#mc3b397ac98" x="46.336562" y="113.198594" style="stroke: #000000; stroke-width: 0.8"/>
      </g>
     </g>
     <g id="text_7">
      <!-- −1.0 -->
      <g transform="translate(19.910312 116.237969)scale(0.08 -0.08)">
       <defs>
        <path id="DejaVuSans-2212" d="M 678 2272 
L 4684 2272 
L 4684 1741 
L 678 1741 
L 678 2272 
z
" transform="scale(0.015625)"/>
       </defs>
       <use xlink:href="#DejaVuSans-2212"/>
       <use xlink:href="#DejaVuSans-31" x="83.789062"/>
       <use xlink:href="#DejaVuSans-2e" x="147.412109"/>
       <use xlink:href="#DejaVuSans-30" x="179.199219"/>
      </g>
     </g>
    </g>
    <g id="ytick_2">
     <g id="line2d_7">
      <g>
       <use xlink:href="#mc3b397ac98" x="46.336562" y="89.908594" style="stroke: #000000; stroke-width: 0.8"/>
      </g>
     </g>
     <g id="text_8">
      <!-- −0.5 -->
      <g transform="translate(19.910312 92.947969)scale(0.08 -0.08)">
       <use xlink:href="#DejaVuSans-2212"/>
       <use xlink:href="#DejaVuSans-30" x="83.789062"/>
       <use xlink:href="#DejaVuSans-2e" x="147.412109"/>
       <use xlink:href="#DejaVuSans-35" x="179.199219"/>
      </g>
     </g>
    </g>
    <g id="ytick_3">
     <g id="line2d_8">
      <g>
       <use xlink:href="#mc3b397ac98" x="46.336562" y="66.618594" style="stroke: #000000; stroke-width: 0.8"/>
      </g>
     </g>
     <g id="text_9">
      <!-- 0.0 -->
      <g transform="translate(26.614062 69.657969)scale(0.08 -0.08)">
       <use xlink:href="#DejaVuSans-30"/>
       <use xlink:href="#DejaVuSans-2e" x="63.623047"/>
       <use xlink:href="#DejaVuSans-30" x="95.410156"/>
      </g>
     </g>
    </g>
    <g id="ytick_4">
     <g id="line2d_9">
      <g>
       <use xlink:href="#mc3b397ac98" x="46.336562" y="43.328594" style="stroke: #000000; stroke-width: 0.8"/>
      </g>
     </g>
     <g id="text_10">
      <!-- 0.5 -->
      <g transform="translate(26.614062 46.367969)scale(0.08 -0.08)">
       <use xlink:href="#DejaVuSans-30"/>
       <use xlink:href="#DejaVuSans-2e" x="63.623047"/>
       <use xlink:href="#DejaVuSans-35" x="95.410156"/>
      </g>
     </g>
    </g>
    <g id="ytick_5">
     <g id="line2d_10">
      <g>
       <use xlink:href="#mc3b397ac98" x="46.336562" y="20.038594" style="stroke: #000000; stroke-width: 0.8"/>
      </g>
     </g>
     <g id="text_11">
      <!-- 1.0 -->
      <g transform="translate(26.614062 23.077969)scale(0.08 -0.08)">
       <use xlink:href="#DejaVuSans-31"/>
       <use xlink:href="#DejaVuSans-2e" x="63.623047"/>
       <use xlink:href="#DejaVuSans-30" x="95.410156"/>
      </g>
     </g>
    </g>
    <g id="text_12">
     <!-- effect size -->
     <g transform="translate(14.038594 89.718359)rotate(-90)scale(0.09 -0.09)">
      <defs>
       <path id="DejaVuSans-66" d="M 2375 4863 
L 2375 4384 
L 1825 4384 
Q 1516 4384 1395 4259 
Q 1275 4134 1275 3809 
L 1275 3500 
L 2222 3500 
L 2222 3053 
L 1275 3053 
L 1275 0 
L 697 0 
L 697 3053 
L 147 3053 
L 147 3500 
L 697 3500 
L 697 3744 
Q 697 4328 969 4595 
Q 1241 4863 1831 4863 
L 2375 4863 
z
" transform="scale(0.015625)"/>
       <path id="DejaVuSans-63" d="M 3122 3366 
L 3122 2828 
Q 2878 2963 2633 3030 
Q 2388 3097 2138 3097 
Q 1578 3097 1268 2742 
Q 959 2388 959 1747 
Q 959 1106 1268 751 
Q 1578 397 2138 397 
Q 2388 397 2633 464 
Q 2878 531 3122 666 
L 3122 134 
Q 2881 22 2623 -34 
Q 2366 -91 2075 -91 
Q 1284 -91 818 406 
Q 353 903 353 1747 
Q 353 2603 823 3093 
Q 1294 3584 2113 3584 
Q 2378 3584 2631 3529 
Q 2884 3475 3122 3366 
z
" transform="scale(0.015625)"/>
       <path id="DejaVuSans-74" d="M 1172 4494 
L 1172 3500 
L 2356 3500 
L 2356 3053 
L 1172 3053 
L 1172 1153 
Q 1172 725 1289 603 
Q 1406 481 1766 481 
L 2356 481 
L 2356 0 
L 1766 0 
Q 1100 0 847 248 
Q 594 497 594 1153 
L 594 3053 
L 172 3053 
L 172 3500 
L 594 3500 
L 594 4494 
L 1172 4494 
z
" transform="scale(0.015625)"/>
       <path id="DejaVuSans-73" d="M 2834 3397 
L 2834 2853 
Q 2591 2978 2328 3040 
Q 2066 3103 1784 3103 
Q 1356 3103 1142 2972 
Q 928 2841 928 2578 
Q 928 2378 1081 2264 
Q 1234 2150 1697 2047 
L 1894 2003 
Q 2506 1872 2764 1633 
Q 3022 1394 3022 966 
Q 3022 478 2636 193 
Q 2250 -91 1575 -91 
Q 1294 -91 989 -36 
Q 684 19 347 128 
L 347 722 
Q 666 556 975 473 
Q 1284 391 1588 391 
Q 1994 391 2212 530 
Q 2431 669 2431 922 
Q 2431 1156 2273 1281 
Q 2116 1406 1581 1522 
L 1381 1569 
Q 847 1681 609 1914 
Q 372 2147 372 2553 
Q 372 3047 722 3315 
Q 1072 3584 1716 3584 
Q 2034 3584 2315 3537 
Q 2597 3491 2834 3397 
z
" transform="scale(0.015625)"/>
       <path id="DejaVuSans-69" d="M 603 3500 
L 1178 3500 
L 1178 0 
L 603 0 
L 603 3500 
z
M 603 4863 
L 1178 4863 
L 1178 4134 
L 603 4134 
L 603 4863 
z
" transform="scale(0.015625)"/>
       <path id="DejaVuSans-7a" d="M 353 3500 
L 3084 3500 
L 3084 2975 
L 922 459 
L 3084 459 
L 3084 0 
L 275 0 
L 275 525 
L 2438 3041 
L 353 3041 
L 353 3500 
z
" transform="scale(0.015625)"/>
      </defs>
      <use xlink:href="#DejaVuSans-65"/>
      <use xlink:href="#DejaVuSans-66" x="61.523438"/>
      <use xlink:href="#DejaVuSans-66" x="96.728516"/>
      <use xlink:href="#DejaVuSans-65" x="131.933594"/>
      <use xlink:href="#DejaVuSans-63" x="193.457031"/>
      <use xlink:href="#DejaVuSans-74" x="248.4375"/>
      <use xlink:href="#DejaVuSans-20" x="287.646484"/>
      <use xlink:href="#DejaVuSans-73" x="319.433594"/>
      <use xlink:href="#DejaVuSans-69" x="371.533203"/>
      <use xlink:href="#DejaVuSans-7a" x="399.316406"/>
      <use xlink:href="#DejaVuSans-65" x="451.806641"/>
     </g>
    </g>
   </g>
   <g id="line2d_11">
    <path d="M 52.105201 73.219813 
L 56.083572 72.722295 
L 60.061944 72.229003 
L 64.040315 71.739824 
L 68.018687 71.25486 
L 71.997058 70.773894 
L 75.97543 70.296922 
L 79.953801 69.823888 
L 83.932172 69.354639 
L 87.910544 68.889343 
L 91.888915 68.427881 
L 95.867287 67.970065 
L 99.845658 67.516012 
L 103.824029 67.065499 
L 107.802401 66.618594 
L 111.780772 66.175191 
L 115.759144 65.735169 
L 119.737515 65.298688 
L 123.715887 64.865598 
L 127.694258 64.435863 
L 131.672629 64.009421 
L 135.651001 63.58624 
L 139.629372 63.166276 
L 143.607744 62.749483 
L 147.586115 62.336146 
L 151.564486 61.925402 
L 155.542858 61.517903 
L 159.521229 61.113421 
L 163.499601 60.711918 
L 167.477972 60.313236 
" clip-path="url(#p5e1f165f8b)" style="fill: none; stroke: #4c72b0; stroke-width: 1.5; stroke-linecap: square"/>
   </g>
   <g id="line2d_12">
    <path d="M 52.105201 72.408826 
L 56.083572 71.974615 
L 60.061944 71.543739 
L 64.040315 71.116051 
L 68.018687 70.691815 
L 71.997058 70.270687 
L 75.97543 69.852727 
L 79.953801 69.437894 
L 83.932172 69.02604 
L 87.910544 68.617389 
L 91.888915 68.211791 
L 95.867287 67.809094 
L 99.845658 67.409404 
L 103.824029 67.012552 
L 107.802401 66.618594 
L 111.780772 66.227452 
L 115.759144 65.839032 
L 119.737515 65.453458 
L 123.715887 65.070621 
L 127.694258 64.69048 
L 131.672629 64.313014 
L 135.651001 63.938189 
L 139.629372 63.565967 
L 143.607744 63.196326 
L 147.586115 62.829509 
L 151.564486 62.464769 
L 155.542858 62.10268 
L 159.521229 61.743055 
L 163.499601 61.385855 
L 167.477972 61.030979 
" clip-path="url(#p5e1f165f8b)" style="fill: none; stroke: #dd8452; stroke-width: 1.5; stroke-linecap: square"/>
   </g>
   <g id="line2d_13">
    <path d="M 52.105201 66.452309 
L 56.083572 66.46873 
L 60.061944 66.48438 
L 64.040315 66.499127 
L 68.018687 66.513441 
L 71.997058 66.52689 
L 75.97543 66.539643 
L 79.953801 66.551716 
L 83.932172 66.562909 
L 87.910544 66.573732 
L 91.888915 66.584033 
L 95.867287 66.593559 
L 99.845658 66.602472 
L 103.824029 66.610818 
L 107.802401 66.618594 
L 111.780772 66.625821 
L 115.759144 66.632524 
L 119.737515 66.638688 
L 123.715887 66.64434 
L 127.694258 66.649384 
L 131.672629 66.654052 
L 135.651001 66.658247 
L 139.629372 66.661981 
L 143.607744 66.665307 
L 147.586115 66.668175 
L 151.564486 66.670631 
L 155.542858 66.672638 
L 159.521229 66.674241 
L 163.499601 66.675449 
L 167.477972 66.676315 
" clip-path="url(#p5e1f165f8b)" style="fill: none; stroke: #55a868; stroke-width: 1.5; stroke-linecap: square"/>
   </g>
   <g id="line2d_14">
    <path d="M 52.105201 67.035991 
L 56.083572 67.035991 
L 60.061944 66.931398 
L 64.040315 66.931398 
L 68.018687 66.931398 
L 71.997058 66.931398 
L 75.97543 66.826968 
L 79.953801 66.826968 
L 83.932172 66.826968 
L 87.910544 66.7227 
L 91.888915 66.7227 
L 95.867287 66.7227 
L 99.845658 66.7227 
L 103.824029 66.618594 
L 107.802401 66.618594 
L 111.780772 66.618594 
L 115.759144 66.618594 
L 119.737515 66.514648 
L 123.715887 66.514648 
L 127.694258 66.514648 
L 131.672629 66.514648 
L 135.651001 66.410863 
L 139.629372 66.410863 
L 143.607744 66.410863 
L 147.586115 66.410863 
L 151.564486 66.410863 
L 155.542858 66.307238 
L 159.521229 66.307238 
L 163.499601 66.307238 
L 167.477972 66.307238 
" clip-path="url(#p5e1f165f8b)" style="fill: none; stroke: #c44e52; stroke-width: 1.5; stroke-linecap: square"/>
   </g>
   <g id="line2d_15"/>
   <g id="line2d_16"/>
   <g id="line2d_17"/>
   <g id="line2d_18"/>
   <g id="patch_3">
    <path d="M 46.336562 113.198594 
L 46.336562 20.038594 
" style="fill: none; stroke: #000000; stroke-width: 0.8; stroke-linejoin: miter; stroke-linecap: square"/>
   </g>
   <g id="patch_4">
    <path d="M 173.246611 113.198594 
L 173.246611 20.038594 
" style="fill: none; stroke: #000000; stroke-width: 0.8; stroke-linejoin: miter; stroke-linecap: square"/>
   </g>
   <g id="patch_5">
    <path d="M 46.336563 113.198594 
L 173.246611 113.198594 
" style="fill: none; stroke: #000000; stroke-width: 0.8; stroke-linejoin: miter; stroke-linecap: square"/>
   </g>
   <g id="patch_6">
    <path d="M 46.336563 20.038594 
L 173.246611 20.038594 
" style="fill: none; stroke: #000000; stroke-width: 0.8; stroke-linejoin: miter; stroke-linecap: square"/>
   </g>
   <g id="text_13">
    <!-- pname = rate_il2_prec -->
    <g transform="translate(58.689165 14.038594)scale(0.09 -0.09)">
     <defs>
      <path id="DejaVuSans-3d" d="M 678 2906 
L 4684 2906 
L 4684 2381 
L 678 2381 
L 678 2906 
z
M 678 1631 
L 4684 1631 
L 4684 1100 
L 678 1100 
L 678 1631 
z
" transform="scale(0.015625)"/>
      <path id="DejaVuSans-5f" d="M 3263 -1063 
L 3263 -1509 
L -63 -1509 
L -63 -1063 
L 3263 -1063 
z
" transform="scale(0.015625)"/>
      <path id="DejaVuSans-32" d="M 1228 531 
L 3431 531 
L 3431 0 
L 469 0 
L 469 531 
Q 828 903 1448 1529 
Q 2069 2156 2228 2338 
Q 2531 2678 2651 2914 
Q 2772 3150 2772 3378 
Q 2772 3750 2511 3984 
Q 2250 4219 1831 4219 
Q 1534 4219 1204 4116 
Q 875 4013 500 3803 
L 500 4441 
Q 881 4594 1212 4672 
Q 1544 4750 1819 4750 
Q 2544 4750 2975 4387 
Q 3406 4025 3406 3419 
Q 3406 3131 3298 2873 
Q 3191 2616 2906 2266 
Q 2828 2175 2409 1742 
Q 1991 1309 1228 531 
z
" transform="scale(0.015625)"/>
     </defs>
     <use xlink:href="#DejaVuSans-70"/>
     <use xlink:href="#DejaVuSans-6e" x="63.476562"/>
     <use xlink:href="#DejaVuSans-61" x="126.855469"/>
     <use xlink:href="#DejaVuSans-6d" x="188.134766"/>
     <use xlink:href="#DejaVuSans-65" x="285.546875"/>
     <use xlink:href="#DejaVuSans-20" x="347.070312"/>
     <use xlink:href="#DejaVuSans-3d" x="378.857422"/>
     <use xlink:href="#DejaVuSans-20" x="462.646484"/>
     <use xlink:href="#DejaVuSans-72" x="494.433594"/>
     <use xlink:href="#DejaVuSans-61" x="535.546875"/>
     <use xlink:href="#DejaVuSans-74" x="596.826172"/>
     <use xlink:href="#DejaVuSans-65" x="636.035156"/>
     <use xlink:href="#DejaVuSans-5f" x="697.558594"/>
     <use xlink:href="#DejaVuSans-69" x="747.558594"/>
     <use xlink:href="#DejaVuSans-6c" x="775.341797"/>
     <use xlink:href="#DejaVuSans-32" x="803.125"/>
     <use xlink:href="#DejaVuSans-5f" x="866.748047"/>
     <use xlink:href="#DejaVuSans-70" x="916.748047"/>
     <use xlink:href="#DejaVuSans-72" x="980.224609"/>
     <use xlink:href="#DejaVuSans-65" x="1019.087891"/>
     <use xlink:href="#DejaVuSans-63" x="1080.611328"/>
    </g>
   </g>
  </g>
  <g id="axes_2">
   <g id="patch_7">
    <path d="M 188.387384 113.198594 
L 315.297432 113.198594 
L 315.297432 20.038594 
L 188.387384 20.038594 
z
" style="fill: #ffffff"/>
   </g>
   <g id="matplotlib.axis_3">
    <g id="xtick_6">
     <g id="line2d_19">
      <g>
       <use xlink:href="#m2ea87bf39b" x="192.365755" y="113.198594" style="stroke: #000000; stroke-width: 0.8"/>
      </g>
     </g>
     <g id="text_14">
      <!-- 0.90 -->
      <g transform="translate(183.459505 126.277344)scale(0.08 -0.08)">
       <use xlink:href="#DejaVuSans-30"/>
       <use xlink:href="#DejaVuSans-2e" x="63.623047"/>
       <use xlink:href="#DejaVuSans-39" x="95.410156"/>
       <use xlink:href="#DejaVuSans-30" x="159.033203"/>
      </g>
     </g>
    </g>
    <g id="xtick_7">
     <g id="line2d_20">
      <g>
       <use xlink:href="#m2ea87bf39b" x="221.109489" y="113.198594" style="stroke: #000000; stroke-width: 0.8"/>
      </g>
     </g>
     <g id="text_15">
      <!-- 0.95 -->
      <g transform="translate(212.203239 126.277344)scale(0.08 -0.08)">
       <use xlink:href="#DejaVuSans-30"/>
       <use xlink:href="#DejaVuSans-2e" x="63.623047"/>
       <use xlink:href="#DejaVuSans-39" x="95.410156"/>
       <use xlink:href="#DejaVuSans-35" x="159.033203"/>
      </g>
     </g>
    </g>
    <g id="xtick_8">
     <g id="line2d_21">
      <g>
       <use xlink:href="#m2ea87bf39b" x="249.853222" y="113.198594" style="stroke: #000000; stroke-width: 0.8"/>
      </g>
     </g>
     <g id="text_16">
      <!-- 1.00 -->
      <g transform="translate(240.946972 126.277344)scale(0.08 -0.08)">
       <use xlink:href="#DejaVuSans-31"/>
       <use xlink:href="#DejaVuSans-2e" x="63.623047"/>
       <use xlink:href="#DejaVuSans-30" x="95.410156"/>
       <use xlink:href="#DejaVuSans-30" x="159.033203"/>
      </g>
     </g>
    </g>
    <g id="xtick_9">
     <g id="line2d_22">
      <g>
       <use xlink:href="#m2ea87bf39b" x="278.596956" y="113.198594" style="stroke: #000000; stroke-width: 0.8"/>
      </g>
     </g>
     <g id="text_17">
      <!-- 1.05 -->
      <g transform="translate(269.690706 126.277344)scale(0.08 -0.08)">
       <use xlink:href="#DejaVuSans-31"/>
       <use xlink:href="#DejaVuSans-2e" x="63.623047"/>
       <use xlink:href="#DejaVuSans-30" x="95.410156"/>
       <use xlink:href="#DejaVuSans-35" x="159.033203"/>
      </g>
     </g>
    </g>
    <g id="xtick_10">
     <g id="line2d_23">
      <g>
       <use xlink:href="#m2ea87bf39b" x="307.340689" y="113.198594" style="stroke: #000000; stroke-width: 0.8"/>
      </g>
     </g>
     <g id="text_18">
      <!-- 1.10 -->
      <g transform="translate(298.434439 126.277344)scale(0.08 -0.08)">
       <use xlink:href="#DejaVuSans-31"/>
       <use xlink:href="#DejaVuSans-2e" x="63.623047"/>
       <use xlink:href="#DejaVuSans-31" x="95.410156"/>
       <use xlink:href="#DejaVuSans-30" x="159.033203"/>
      </g>
     </g>
    </g>
    <g id="text_19">
     <!-- param value norm. -->
     <g transform="translate(208.89483 138.779687)scale(0.09 -0.09)">
      <use xlink:href="#DejaVuSans-70"/>
      <use xlink:href="#DejaVuSans-61" x="63.476562"/>
      <use xlink:href="#DejaVuSans-72" x="124.755859"/>
      <use xlink:href="#DejaVuSans-61" x="165.869141"/>
      <use xlink:href="#DejaVuSans-6d" x="227.148438"/>
      <use xlink:href="#DejaVuSans-20" x="324.560547"/>
      <use xlink:href="#DejaVuSans-76" x="356.347656"/>
      <use xlink:href="#DejaVuSans-61" x="415.527344"/>
      <use xlink:href="#DejaVuSans-6c" x="476.806641"/>
      <use xlink:href="#DejaVuSans-75" x="504.589844"/>
      <use xlink:href="#DejaVuSans-65" x="567.96875"/>
      <use xlink:href="#DejaVuSans-20" x="629.492188"/>
      <use xlink:href="#DejaVuSans-6e" x="661.279297"/>
      <use xlink:href="#DejaVuSans-6f" x="724.658203"/>
      <use xlink:href="#DejaVuSans-72" x="785.839844"/>
      <use xlink:href="#DejaVuSans-6d" x="825.203125"/>
      <use xlink:href="#DejaVuSans-2e" x="922.615234"/>
     </g>
    </g>
   </g>
   <g id="matplotlib.axis_4">
    <g id="ytick_6">
     <g id="line2d_24">
      <g>
       <use xlink:href="#mc3b397ac98" x="188.387384" y="113.198594" style="stroke: #000000; stroke-width: 0.8"/>
      </g>
     </g>
    </g>
    <g id="ytick_7">
     <g id="line2d_25">
      <g>
       <use xlink:href="#mc3b397ac98" x="188.387384" y="89.908594" style="stroke: #000000; stroke-width: 0.8"/>
      </g>
     </g>
    </g>
    <g id="ytick_8">
     <g id="line2d_26">
      <g>
       <use xlink:href="#mc3b397ac98" x="188.387384" y="66.618594" style="stroke: #000000; stroke-width: 0.8"/>
      </g>
     </g>
    </g>
    <g id="ytick_9">
     <g id="line2d_27">
      <g>
       <use xlink:href="#mc3b397ac98" x="188.387384" y="43.328594" style="stroke: #000000; stroke-width: 0.8"/>
      </g>
     </g>
    </g>
    <g id="ytick_10">
     <g id="line2d_28">
      <g>
       <use xlink:href="#mc3b397ac98" x="188.387384" y="20.038594" style="stroke: #000000; stroke-width: 0.8"/>
      </g>
     </g>
    </g>
   </g>
   <g id="line2d_29">
    <path d="M 194.156022 59.805489 
L 198.134394 60.315969 
L 202.112765 60.822564 
L 206.091137 61.325334 
L 210.069508 61.824335 
L 214.047879 62.319636 
L 218.026251 62.811263 
L 222.004622 63.299263 
L 225.982994 63.783734 
L 229.961365 64.26471 
L 233.939737 64.742122 
L 237.918108 65.216325 
L 241.896479 65.687071 
L 245.874851 66.154418 
L 249.853222 66.618594 
L 253.831594 67.079734 
L 257.809965 67.537485 
L 261.788336 67.992131 
L 265.766708 68.443543 
L 269.745079 68.892112 
L 273.723451 69.337617 
L 277.701822 69.780156 
L 281.680194 70.219767 
L 285.658565 70.656467 
L 289.636936 71.090346 
L 293.615308 71.521424 
L 297.593679 71.949705 
L 301.572051 72.375243 
L 305.550422 72.798149 
L 309.528793 73.218307 
" clip-path="url(#pcbbcb29ca6)" style="fill: none; stroke: #4c72b0; stroke-width: 1.5; stroke-linecap: square"/>
   </g>
   <g id="line2d_30">
    <path d="M 194.156022 59.796934 
L 198.134394 60.308032 
L 202.112765 60.815244 
L 206.091137 61.318628 
L 210.069508 61.818241 
L 214.047879 62.314115 
L 218.026251 62.806352 
L 222.004622 63.294967 
L 225.982994 63.780052 
L 229.961365 64.261638 
L 233.939737 64.739679 
L 237.918108 65.214478 
L 241.896479 65.685835 
L 245.874851 66.153806 
L 249.853222 66.618594 
L 253.831594 67.080327 
L 257.809965 67.538702 
L 261.788336 67.993968 
L 265.766708 68.445999 
L 269.745079 68.895206 
L 273.723451 69.341327 
L 277.701822 69.784482 
L 281.680194 70.224708 
L 285.658565 70.661967 
L 289.636936 71.096452 
L 293.615308 71.528197 
L 297.593679 71.957088 
L 301.572051 72.383233 
L 305.550422 72.806659 
L 309.528793 73.227385 
" clip-path="url(#pcbbcb29ca6)" style="fill: none; stroke: #dd8452; stroke-width: 1.5; stroke-linecap: square"/>
   </g>
   <g id="line2d_31">
    <path d="M 194.156022 65.806012 
L 198.134394 65.866526 
L 202.112765 65.926618 
L 206.091137 65.986306 
L 210.069508 66.045603 
L 214.047879 66.104479 
L 218.026251 66.163018 
L 222.004622 66.221198 
L 225.982994 66.279017 
L 229.961365 66.336568 
L 233.939737 66.393588 
L 237.918108 66.450477 
L 241.896479 66.506912 
L 245.874851 66.562859 
L 249.853222 66.618594 
L 253.831594 66.674131 
L 257.809965 66.729192 
L 261.788336 66.783905 
L 265.766708 66.838111 
L 269.745079 66.892319 
L 273.723451 66.946015 
L 277.701822 66.999391 
L 281.680194 67.052453 
L 285.658565 67.105037 
L 289.636936 67.157512 
L 293.615308 67.209856 
L 297.593679 67.261751 
L 301.572051 67.313368 
L 305.550422 67.364583 
L 309.528793 67.415639 
" clip-path="url(#pcbbcb29ca6)" style="fill: none; stroke: #55a868; stroke-width: 1.5; stroke-linecap: square"/>
   </g>
   <g id="line2d_32">
    <path d="M 194.156022 66.100467 
L 198.134394 66.100467 
L 202.112765 66.203773 
L 206.091137 66.203773 
L 210.069508 66.203773 
L 214.047879 66.307238 
L 218.026251 66.307238 
L 222.004622 66.307238 
L 225.982994 66.410863 
L 229.961365 66.410863 
L 233.939737 66.514648 
L 237.918108 66.514648 
L 241.896479 66.514648 
L 245.874851 66.618594 
L 249.853222 66.618594 
L 253.831594 66.618594 
L 257.809965 66.7227 
L 261.788336 66.7227 
L 265.766708 66.7227 
L 269.745079 66.826968 
L 273.723451 66.826968 
L 277.701822 66.826968 
L 281.680194 66.931398 
L 285.658565 66.931398 
L 289.636936 66.931398 
L 293.615308 67.035991 
L 297.593679 67.035991 
L 301.572051 67.035991 
L 305.550422 67.035991 
L 309.528793 67.140747 
" clip-path="url(#pcbbcb29ca6)" style="fill: none; stroke: #c44e52; stroke-width: 1.5; stroke-linecap: square"/>
   </g>
   <g id="patch_8">
    <path d="M 188.387384 113.198594 
L 188.387384 20.038594 
" style="fill: none; stroke: #000000; stroke-width: 0.8; stroke-linejoin: miter; stroke-linecap: square"/>
   </g>
   <g id="patch_9">
    <path d="M 315.297432 113.198594 
L 315.297432 20.038594 
" style="fill: none; stroke: #000000; stroke-width: 0.8; stroke-linejoin: miter; stroke-linecap: square"/>
   </g>
   <g id="patch_10">
    <path d="M 188.387384 113.198594 
L 315.297432 113.198594 
" style="fill: none; stroke: #000000; stroke-width: 0.8; stroke-linejoin: miter; stroke-linecap: square"/>
   </g>
   <g id="patch_11">
    <path d="M 188.387384 20.038594 
L 315.297432 20.038594 
" style="fill: none; stroke: #000000; stroke-width: 0.8; stroke-linejoin: miter; stroke-linecap: square"/>
   </g>
   <g id="text_20">
    <!-- pname = up_il2 -->
    <g transform="translate(216.270611 14.038594)scale(0.09 -0.09)">
     <use xlink:href="#DejaVuSans-70"/>
     <use xlink:href="#DejaVuSans-6e" x="63.476562"/>
     <use xlink:href="#DejaVuSans-61" x="126.855469"/>
     <use xlink:href="#DejaVuSans-6d" x="188.134766"/>
     <use xlink:href="#DejaVuSans-65" x="285.546875"/>
     <use xlink:href="#DejaVuSans-20" x="347.070312"/>
     <use xlink:href="#DejaVuSans-3d" x="378.857422"/>
     <use xlink:href="#DejaVuSans-20" x="462.646484"/>
     <use xlink:href="#DejaVuSans-75" x="494.433594"/>
     <use xlink:href="#DejaVuSans-70" x="557.8125"/>
     <use xlink:href="#DejaVuSans-5f" x="621.289062"/>
     <use xlink:href="#DejaVuSans-69" x="671.289062"/>
     <use xlink:href="#DejaVuSans-6c" x="699.072266"/>
     <use xlink:href="#DejaVuSans-32" x="726.855469"/>
    </g>
   </g>
  </g>
  <g id="axes_3">
   <g id="patch_12">
    <path d="M 330.438205 113.198594 
L 457.348253 113.198594 
L 457.348253 20.038594 
L 330.438205 20.038594 
z
" style="fill: #ffffff"/>
   </g>
   <g id="matplotlib.axis_5">
    <g id="xtick_11">
     <g id="line2d_33">
      <g>
       <use xlink:href="#m2ea87bf39b" x="334.416576" y="113.198594" style="stroke: #000000; stroke-width: 0.8"/>
      </g>
     </g>
     <g id="text_21">
      <!-- 0.90 -->
      <g transform="translate(325.510326 126.277344)scale(0.08 -0.08)">
       <use xlink:href="#DejaVuSans-30"/>
       <use xlink:href="#DejaVuSans-2e" x="63.623047"/>
       <use xlink:href="#DejaVuSans-39" x="95.410156"/>
       <use xlink:href="#DejaVuSans-30" x="159.033203"/>
      </g>
     </g>
    </g>
    <g id="xtick_12">
     <g id="line2d_34">
      <g>
       <use xlink:href="#m2ea87bf39b" x="363.16031" y="113.198594" style="stroke: #000000; stroke-width: 0.8"/>
      </g>
     </g>
     <g id="text_22">
      <!-- 0.95 -->
      <g transform="translate(354.25406 126.277344)scale(0.08 -0.08)">
       <use xlink:href="#DejaVuSans-30"/>
       <use xlink:href="#DejaVuSans-2e" x="63.623047"/>
       <use xlink:href="#DejaVuSans-39" x="95.410156"/>
       <use xlink:href="#DejaVuSans-35" x="159.033203"/>
      </g>
     </g>
    </g>
    <g id="xtick_13">
     <g id="line2d_35">
      <g>
       <use xlink:href="#m2ea87bf39b" x="391.904043" y="113.198594" style="stroke: #000000; stroke-width: 0.8"/>
      </g>
     </g>
     <g id="text_23">
      <!-- 1.00 -->
      <g transform="translate(382.997793 126.277344)scale(0.08 -0.08)">
       <use xlink:href="#DejaVuSans-31"/>
       <use xlink:href="#DejaVuSans-2e" x="63.623047"/>
       <use xlink:href="#DejaVuSans-30" x="95.410156"/>
       <use xlink:href="#DejaVuSans-30" x="159.033203"/>
      </g>
     </g>
    </g>
    <g id="xtick_14">
     <g id="line2d_36">
      <g>
       <use xlink:href="#m2ea87bf39b" x="420.647777" y="113.198594" style="stroke: #000000; stroke-width: 0.8"/>
      </g>
     </g>
     <g id="text_24">
      <!-- 1.05 -->
      <g transform="translate(411.741527 126.277344)scale(0.08 -0.08)">
       <use xlink:href="#DejaVuSans-31"/>
       <use xlink:href="#DejaVuSans-2e" x="63.623047"/>
       <use xlink:href="#DejaVuSans-30" x="95.410156"/>
       <use xlink:href="#DejaVuSans-35" x="159.033203"/>
      </g>
     </g>
    </g>
    <g id="xtick_15">
     <g id="line2d_37">
      <g>
       <use xlink:href="#m2ea87bf39b" x="449.39151" y="113.198594" style="stroke: #000000; stroke-width: 0.8"/>
      </g>
     </g>
     <g id="text_25">
      <!-- 1.10 -->
      <g transform="translate(440.48526 126.277344)scale(0.08 -0.08)">
       <use xlink:href="#DejaVuSans-31"/>
       <use xlink:href="#DejaVuSans-2e" x="63.623047"/>
       <use xlink:href="#DejaVuSans-31" x="95.410156"/>
       <use xlink:href="#DejaVuSans-30" x="159.033203"/>
      </g>
     </g>
    </g>
    <g id="text_26">
     <!-- param value norm. -->
     <g transform="translate(350.945651 138.779687)scale(0.09 -0.09)">
      <use xlink:href="#DejaVuSans-70"/>
      <use xlink:href="#DejaVuSans-61" x="63.476562"/>
      <use xlink:href="#DejaVuSans-72" x="124.755859"/>
      <use xlink:href="#DejaVuSans-61" x="165.869141"/>
      <use xlink:href="#DejaVuSans-6d" x="227.148438"/>
      <use xlink:href="#DejaVuSans-20" x="324.560547"/>
      <use xlink:href="#DejaVuSans-76" x="356.347656"/>
      <use xlink:href="#DejaVuSans-61" x="415.527344"/>
      <use xlink:href="#DejaVuSans-6c" x="476.806641"/>
      <use xlink:href="#DejaVuSans-75" x="504.589844"/>
      <use xlink:href="#DejaVuSans-65" x="567.96875"/>
      <use xlink:href="#DejaVuSans-20" x="629.492188"/>
      <use xlink:href="#DejaVuSans-6e" x="661.279297"/>
      <use xlink:href="#DejaVuSans-6f" x="724.658203"/>
      <use xlink:href="#DejaVuSans-72" x="785.839844"/>
      <use xlink:href="#DejaVuSans-6d" x="825.203125"/>
      <use xlink:href="#DejaVuSans-2e" x="922.615234"/>
     </g>
    </g>
   </g>
   <g id="matplotlib.axis_6">
    <g id="ytick_11">
     <g id="line2d_38">
      <g>
       <use xlink:href="#mc3b397ac98" x="330.438205" y="113.198594" style="stroke: #000000; stroke-width: 0.8"/>
      </g>
     </g>
    </g>
    <g id="ytick_12">
     <g id="line2d_39">
      <g>
       <use xlink:href="#mc3b397ac98" x="330.438205" y="89.908594" style="stroke: #000000; stroke-width: 0.8"/>
      </g>
     </g>
    </g>
    <g id="ytick_13">
     <g id="line2d_40">
      <g>
       <use xlink:href="#mc3b397ac98" x="330.438205" y="66.618594" style="stroke: #000000; stroke-width: 0.8"/>
      </g>
     </g>
    </g>
    <g id="ytick_14">
     <g id="line2d_41">
      <g>
       <use xlink:href="#mc3b397ac98" x="330.438205" y="43.328594" style="stroke: #000000; stroke-width: 0.8"/>
      </g>
     </g>
    </g>
    <g id="ytick_15">
     <g id="line2d_42">
      <g>
       <use xlink:href="#mc3b397ac98" x="330.438205" y="20.038594" style="stroke: #000000; stroke-width: 0.8"/>
      </g>
     </g>
    </g>
   </g>
   <g id="line2d_43">
    <path d="M 336.206844 66.651338 
L 340.185215 66.648999 
L 344.163586 66.646659 
L 348.141958 66.64432 
L 352.120329 66.641981 
L 356.098701 66.639642 
L 360.077072 66.637302 
L 364.055444 66.634964 
L 368.033815 66.632625 
L 372.012186 66.630286 
L 375.990558 66.627947 
L 379.968929 66.625609 
L 383.947301 66.62327 
L 387.925672 66.620932 
L 391.904043 66.618594 
L 395.882415 66.616256 
L 399.860786 66.613918 
L 403.839158 66.61158 
L 407.817529 66.609242 
L 411.795901 66.606904 
L 415.774272 66.604566 
L 419.752643 66.602229 
L 423.731015 66.599891 
L 427.709386 66.597554 
L 431.687758 66.595217 
L 435.666129 66.592879 
L 439.6445 66.590542 
L 443.622872 66.588205 
L 447.601243 66.585869 
L 451.579615 66.583532 
" clip-path="url(#p3f31802ba9)" style="fill: none; stroke: #4c72b0; stroke-width: 1.5; stroke-linecap: square"/>
   </g>
   <g id="line2d_44">
    <path d="M 336.206844 66.647476 
L 340.185215 66.645413 
L 344.163586 66.643349 
L 348.141958 66.641286 
L 352.120329 66.639222 
L 356.098701 66.637159 
L 360.077072 66.635096 
L 364.055444 66.633033 
L 368.033815 66.63097 
L 372.012186 66.628907 
L 375.990558 66.626844 
L 379.968929 66.624782 
L 383.947301 66.622719 
L 387.925672 66.620656 
L 391.904043 66.618594 
L 395.882415 66.616531 
L 399.860786 66.614469 
L 403.839158 66.612407 
L 407.817529 66.610344 
L 411.795901 66.608282 
L 415.774272 66.60622 
L 419.752643 66.604158 
L 423.731015 66.602096 
L 427.709386 66.600035 
L 431.687758 66.597973 
L 435.666129 66.595911 
L 439.6445 66.59385 
L 443.622872 66.591788 
L 447.601243 66.589727 
L 451.579615 66.587665 
" clip-path="url(#p3f31802ba9)" style="fill: none; stroke: #dd8452; stroke-width: 1.5; stroke-linecap: square"/>
   </g>
   <g id="line2d_45">
    <path d="M 336.206844 66.617708 
L 340.185215 66.617771 
L 344.163586 66.617835 
L 348.141958 66.617898 
L 352.120329 66.617961 
L 356.098701 66.618025 
L 360.077072 66.618088 
L 364.055444 66.618151 
L 368.033815 66.618215 
L 372.012186 66.618278 
L 375.990558 66.618341 
L 379.968929 66.618404 
L 383.947301 66.618467 
L 387.925672 66.618531 
L 391.904043 66.618594 
L 395.882415 66.618657 
L 399.860786 66.61872 
L 403.839158 66.618783 
L 407.817529 66.618846 
L 411.795901 66.618909 
L 415.774272 66.618972 
L 419.752643 66.619035 
L 423.731015 66.619098 
L 427.709386 66.619161 
L 431.687758 66.619224 
L 435.666129 66.619287 
L 439.6445 66.61935 
L 443.622872 66.619413 
L 447.601243 66.619476 
L 451.579615 66.619539 
" clip-path="url(#p3f31802ba9)" style="fill: none; stroke: #55a868; stroke-width: 1.5; stroke-linecap: square"/>
   </g>
   <g id="line2d_46">
    <path d="M 336.206844 66.618594 
L 340.185215 66.618594 
L 344.163586 66.618594 
L 348.141958 66.618594 
L 352.120329 66.618594 
L 356.098701 66.618594 
L 360.077072 66.618594 
L 364.055444 66.618594 
L 368.033815 66.618594 
L 372.012186 66.618594 
L 375.990558 66.618594 
L 379.968929 66.618594 
L 383.947301 66.618594 
L 387.925672 66.618594 
L 391.904043 66.618594 
L 395.882415 66.618594 
L 399.860786 66.618594 
L 403.839158 66.618594 
L 407.817529 66.618594 
L 411.795901 66.618594 
L 415.774272 66.618594 
L 419.752643 66.618594 
L 423.731015 66.618594 
L 427.709386 66.618594 
L 431.687758 66.618594 
L 435.666129 66.618594 
L 439.6445 66.618594 
L 443.622872 66.618594 
L 447.601243 66.618594 
L 451.579615 66.618594 
" clip-path="url(#p3f31802ba9)" style="fill: none; stroke: #c44e52; stroke-width: 1.5; stroke-linecap: square"/>
   </g>
   <g id="patch_13">
    <path d="M 330.438205 113.198594 
L 330.438205 20.038594 
" style="fill: none; stroke: #000000; stroke-width: 0.8; stroke-linejoin: miter; stroke-linecap: square"/>
   </g>
   <g id="patch_14">
    <path d="M 457.348253 113.198594 
L 457.348253 20.038594 
" style="fill: none; stroke: #000000; stroke-width: 0.8; stroke-linejoin: miter; stroke-linecap: square"/>
   </g>
   <g id="patch_15">
    <path d="M 330.438205 113.198594 
L 457.348253 113.198594 
" style="fill: none; stroke: #000000; stroke-width: 0.8; stroke-linejoin: miter; stroke-linecap: square"/>
   </g>
   <g id="patch_16">
    <path d="M 330.438205 20.038594 
L 457.348253 20.038594 
" style="fill: none; stroke: #000000; stroke-width: 0.8; stroke-linejoin: miter; stroke-linecap: square"/>
   </g>
   <g id="text_27">
    <!-- pname = rate_il2_naive -->
    <g transform="translate(340.347448 14.038594)scale(0.09 -0.09)">
     <use xlink:href="#DejaVuSans-70"/>
     <use xlink:href="#DejaVuSans-6e" x="63.476562"/>
     <use xlink:href="#DejaVuSans-61" x="126.855469"/>
     <use xlink:href="#DejaVuSans-6d" x="188.134766"/>
     <use xlink:href="#DejaVuSans-65" x="285.546875"/>
     <use xlink:href="#DejaVuSans-20" x="347.070312"/>
     <use xlink:href="#DejaVuSans-3d" x="378.857422"/>
     <use xlink:href="#DejaVuSans-20" x="462.646484"/>
     <use xlink:href="#DejaVuSans-72" x="494.433594"/>
     <use xlink:href="#DejaVuSans-61" x="535.546875"/>
     <use xlink:href="#DejaVuSans-74" x="596.826172"/>
     <use xlink:href="#DejaVuSans-65" x="636.035156"/>
     <use xlink:href="#DejaVuSans-5f" x="697.558594"/>
     <use xlink:href="#DejaVuSans-69" x="747.558594"/>
     <use xlink:href="#DejaVuSans-6c" x="775.341797"/>
     <use xlink:href="#DejaVuSans-32" x="803.125"/>
     <use xlink:href="#DejaVuSans-5f" x="866.748047"/>
     <use xlink:href="#DejaVuSans-6e" x="916.748047"/>
     <use xlink:href="#DejaVuSans-61" x="980.126953"/>
     <use xlink:href="#DejaVuSans-69" x="1041.40625"/>
     <use xlink:href="#DejaVuSans-76" x="1069.189453"/>
     <use xlink:href="#DejaVuSans-65" x="1128.369141"/>
    </g>
   </g>
  </g>
  <g id="axes_4">
   <g id="patch_17">
    <path d="M 472.489026 113.198594 
L 599.399075 113.198594 
L 599.399075 20.038594 
L 472.489026 20.038594 
z
" style="fill: #ffffff"/>
   </g>
   <g id="matplotlib.axis_7">
    <g id="xtick_16">
     <g id="line2d_47">
      <g>
       <use xlink:href="#m2ea87bf39b" x="476.467398" y="113.198594" style="stroke: #000000; stroke-width: 0.8"/>
      </g>
     </g>
     <g id="text_28">
      <!-- 0.90 -->
      <g transform="translate(467.561148 126.277344)scale(0.08 -0.08)">
       <use xlink:href="#DejaVuSans-30"/>
       <use xlink:href="#DejaVuSans-2e" x="63.623047"/>
       <use xlink:href="#DejaVuSans-39" x="95.410156"/>
       <use xlink:href="#DejaVuSans-30" x="159.033203"/>
      </g>
     </g>
    </g>
    <g id="xtick_17">
     <g id="line2d_48">
      <g>
       <use xlink:href="#m2ea87bf39b" x="505.211131" y="113.198594" style="stroke: #000000; stroke-width: 0.8"/>
      </g>
     </g>
     <g id="text_29">
      <!-- 0.95 -->
      <g transform="translate(496.304881 126.277344)scale(0.08 -0.08)">
       <use xlink:href="#DejaVuSans-30"/>
       <use xlink:href="#DejaVuSans-2e" x="63.623047"/>
       <use xlink:href="#DejaVuSans-39" x="95.410156"/>
       <use xlink:href="#DejaVuSans-35" x="159.033203"/>
      </g>
     </g>
    </g>
    <g id="xtick_18">
     <g id="line2d_49">
      <g>
       <use xlink:href="#m2ea87bf39b" x="533.954865" y="113.198594" style="stroke: #000000; stroke-width: 0.8"/>
      </g>
     </g>
     <g id="text_30">
      <!-- 1.00 -->
      <g transform="translate(525.048615 126.277344)scale(0.08 -0.08)">
       <use xlink:href="#DejaVuSans-31"/>
       <use xlink:href="#DejaVuSans-2e" x="63.623047"/>
       <use xlink:href="#DejaVuSans-30" x="95.410156"/>
       <use xlink:href="#DejaVuSans-30" x="159.033203"/>
      </g>
     </g>
    </g>
    <g id="xtick_19">
     <g id="line2d_50">
      <g>
       <use xlink:href="#m2ea87bf39b" x="562.698598" y="113.198594" style="stroke: #000000; stroke-width: 0.8"/>
      </g>
     </g>
     <g id="text_31">
      <!-- 1.05 -->
      <g transform="translate(553.792348 126.277344)scale(0.08 -0.08)">
       <use xlink:href="#DejaVuSans-31"/>
       <use xlink:href="#DejaVuSans-2e" x="63.623047"/>
       <use xlink:href="#DejaVuSans-30" x="95.410156"/>
       <use xlink:href="#DejaVuSans-35" x="159.033203"/>
      </g>
     </g>
    </g>
    <g id="xtick_20">
     <g id="line2d_51">
      <g>
       <use xlink:href="#m2ea87bf39b" x="591.442332" y="113.198594" style="stroke: #000000; stroke-width: 0.8"/>
      </g>
     </g>
     <g id="text_32">
      <!-- 1.10 -->
      <g transform="translate(582.536082 126.277344)scale(0.08 -0.08)">
       <use xlink:href="#DejaVuSans-31"/>
       <use xlink:href="#DejaVuSans-2e" x="63.623047"/>
       <use xlink:href="#DejaVuSans-31" x="95.410156"/>
       <use xlink:href="#DejaVuSans-30" x="159.033203"/>
      </g>
     </g>
    </g>
    <g id="text_33">
     <!-- param value norm. -->
     <g transform="translate(492.996472 138.779687)scale(0.09 -0.09)">
      <use xlink:href="#DejaVuSans-70"/>
      <use xlink:href="#DejaVuSans-61" x="63.476562"/>
      <use xlink:href="#DejaVuSans-72" x="124.755859"/>
      <use xlink:href="#DejaVuSans-61" x="165.869141"/>
      <use xlink:href="#DejaVuSans-6d" x="227.148438"/>
      <use xlink:href="#DejaVuSans-20" x="324.560547"/>
      <use xlink:href="#DejaVuSans-76" x="356.347656"/>
      <use xlink:href="#DejaVuSans-61" x="415.527344"/>
      <use xlink:href="#DejaVuSans-6c" x="476.806641"/>
      <use xlink:href="#DejaVuSans-75" x="504.589844"/>
      <use xlink:href="#DejaVuSans-65" x="567.96875"/>
      <use xlink:href="#DejaVuSans-20" x="629.492188"/>
      <use xlink:href="#DejaVuSans-6e" x="661.279297"/>
      <use xlink:href="#DejaVuSans-6f" x="724.658203"/>
      <use xlink:href="#DejaVuSans-72" x="785.839844"/>
      <use xlink:href="#DejaVuSans-6d" x="825.203125"/>
      <use xlink:href="#DejaVuSans-2e" x="922.615234"/>
     </g>
    </g>
   </g>
   <g id="matplotlib.axis_8">
    <g id="ytick_16">
     <g id="line2d_52">
      <g>
       <use xlink:href="#mc3b397ac98" x="472.489026" y="113.198594" style="stroke: #000000; stroke-width: 0.8"/>
      </g>
     </g>
    </g>
    <g id="ytick_17">
     <g id="line2d_53">
      <g>
       <use xlink:href="#mc3b397ac98" x="472.489026" y="89.908594" style="stroke: #000000; stroke-width: 0.8"/>
      </g>
     </g>
    </g>
    <g id="ytick_18">
     <g id="line2d_54">
      <g>
       <use xlink:href="#mc3b397ac98" x="472.489026" y="66.618594" style="stroke: #000000; stroke-width: 0.8"/>
      </g>
     </g>
    </g>
    <g id="ytick_19">
     <g id="line2d_55">
      <g>
       <use xlink:href="#mc3b397ac98" x="472.489026" y="43.328594" style="stroke: #000000; stroke-width: 0.8"/>
      </g>
     </g>
    </g>
    <g id="ytick_20">
     <g id="line2d_56">
      <g>
       <use xlink:href="#mc3b397ac98" x="472.489026" y="20.038594" style="stroke: #000000; stroke-width: 0.8"/>
      </g>
     </g>
    </g>
   </g>
   <g id="line2d_57">
    <path d="M 478.257665 7.292212 
L 482.236036 11.948934 
L 486.214408 16.535275 
L 490.192779 21.052788 
L 494.171151 25.50314 
L 498.149522 29.887592 
L 502.127893 34.208002 
L 506.106265 38.465415 
L 510.084636 42.661327 
L 514.063008 46.797149 
L 518.041379 50.874321 
L 522.01975 54.893582 
L 525.998122 58.856669 
L 529.976493 62.764587 
L 533.954865 66.618594 
L 537.933236 70.419386 
L 541.911608 74.168361 
L 545.889979 77.866513 
L 549.86835 81.515731 
L 553.846722 85.114469 
L 557.825093 88.66629 
L 561.803465 92.170294 
L 565.781836 95.62915 
L 569.760207 99.042814 
L 573.738579 102.412305 
L 577.71695 105.738457 
L 581.695322 109.022139 
L 585.673693 112.264106 
L 589.652065 115.465123 
L 593.630436 118.626036 
" clip-path="url(#p5ddb86cc15)" style="fill: none; stroke: #4c72b0; stroke-width: 1.5; stroke-linecap: square"/>
   </g>
   <g id="line2d_58">
    <path d="M 478.257665 6.47076 
L 482.236036 11.190715 
L 486.214408 15.839557 
L 490.192779 20.418815 
L 494.171151 24.930183 
L 498.149522 29.374943 
L 502.127893 33.75495 
L 506.106265 38.071274 
L 510.084636 42.325471 
L 514.063008 46.518859 
L 518.041379 50.652964 
L 522.01975 54.72851 
L 525.998122 58.747243 
L 529.976493 62.710162 
L 533.954865 66.618594 
L 537.933236 70.473275 
L 541.911608 74.275611 
L 545.889979 78.026644 
L 549.86835 81.728408 
L 553.846722 85.379028 
L 557.825093 88.982126 
L 561.803465 92.536936 
L 565.781836 96.046125 
L 569.760207 99.5097 
L 573.738579 102.928611 
L 577.71695 106.303744 
L 581.695322 109.635979 
L 585.673693 112.926046 
L 589.652065 116.174793 
L 593.630436 119.382949 
" clip-path="url(#p5ddb86cc15)" style="fill: none; stroke: #dd8452; stroke-width: 1.5; stroke-linecap: square"/>
   </g>
   <g id="line2d_59">
    <path d="M 478.257665 59.770723 
L 482.236036 60.283633 
L 486.214408 60.792766 
L 490.192779 61.298052 
L 494.171151 61.799515 
L 498.149522 62.297353 
L 502.127893 62.791409 
L 506.106265 63.282003 
L 510.084636 63.768922 
L 514.063008 64.252394 
L 518.041379 64.732252 
L 522.01975 65.20882 
L 525.998122 65.681934 
L 529.976493 66.151932 
L 533.954865 66.618594 
L 537.933236 67.082055 
L 541.911608 67.542643 
L 545.889979 67.99968 
L 549.86835 68.453906 
L 553.846722 68.904732 
L 557.825093 69.352906 
L 561.803465 69.797823 
L 565.781836 70.239957 
L 569.760207 70.679271 
L 573.738579 71.115464 
L 577.71695 71.549228 
L 581.695322 71.979831 
L 585.673693 72.40791 
L 589.652065 72.833355 
L 593.630436 73.255775 
" clip-path="url(#p5ddb86cc15)" style="fill: none; stroke: #55a868; stroke-width: 1.5; stroke-linecap: square"/>
   </g>
   <g id="line2d_60">
    <path d="M 478.257665 62.350446 
L 482.236036 62.633001 
L 486.214408 63.011597 
L 490.192779 63.296951 
L 494.171151 63.583522 
L 498.149522 63.967527 
L 502.127893 64.256978 
L 506.106265 64.547681 
L 510.084636 64.839647 
L 514.063008 65.132887 
L 518.041379 65.427412 
L 522.01975 65.723234 
L 525.998122 66.020364 
L 529.976493 66.318813 
L 533.954865 66.618594 
L 537.933236 66.919718 
L 541.911608 67.222197 
L 545.889979 67.424609 
L 549.86835 67.729375 
L 553.846722 68.035529 
L 557.825093 68.24041 
L 561.803465 68.548906 
L 565.781836 68.75536 
L 569.760207 69.066236 
L 573.738579 69.378556 
L 577.71695 69.587578 
L 581.695322 69.797253 
L 585.673693 70.112997 
L 589.652065 70.32432 
L 593.630436 70.642556 
" clip-path="url(#p5ddb86cc15)" style="fill: none; stroke: #c44e52; stroke-width: 1.5; stroke-linecap: square"/>
   </g>
   <g id="patch_18">
    <path d="M 472.489026 113.198594 
L 472.489026 20.038594 
" style="fill: none; stroke: #000000; stroke-width: 0.8; stroke-linejoin: miter; stroke-linecap: square"/>
   </g>
   <g id="patch_19">
    <path d="M 599.399075 113.198594 
L 599.399075 20.038594 
" style="fill: none; stroke: #000000; stroke-width: 0.8; stroke-linejoin: miter; stroke-linecap: square"/>
   </g>
   <g id="patch_20">
    <path d="M 472.489026 113.198594 
L 599.399075 113.198594 
" style="fill: none; stroke: #000000; stroke-width: 0.8; stroke-linejoin: miter; stroke-linecap: square"/>
   </g>
   <g id="patch_21">
    <path d="M 472.489026 20.038594 
L 599.399075 20.038594 
" style="fill: none; stroke: #000000; stroke-width: 0.8; stroke-linejoin: miter; stroke-linecap: square"/>
   </g>
   <g id="text_34">
    <!-- pname = deg_myc -->
    <g transform="translate(493.440847 14.038594)scale(0.09 -0.09)">
     <defs>
      <path id="DejaVuSans-64" d="M 2906 2969 
L 2906 4863 
L 3481 4863 
L 3481 0 
L 2906 0 
L 2906 525 
Q 2725 213 2448 61 
Q 2172 -91 1784 -91 
Q 1150 -91 751 415 
Q 353 922 353 1747 
Q 353 2572 751 3078 
Q 1150 3584 1784 3584 
Q 2172 3584 2448 3432 
Q 2725 3281 2906 2969 
z
M 947 1747 
Q 947 1113 1208 752 
Q 1469 391 1925 391 
Q 2381 391 2643 752 
Q 2906 1113 2906 1747 
Q 2906 2381 2643 2742 
Q 2381 3103 1925 3103 
Q 1469 3103 1208 2742 
Q 947 2381 947 1747 
z
" transform="scale(0.015625)"/>
      <path id="DejaVuSans-67" d="M 2906 1791 
Q 2906 2416 2648 2759 
Q 2391 3103 1925 3103 
Q 1463 3103 1205 2759 
Q 947 2416 947 1791 
Q 947 1169 1205 825 
Q 1463 481 1925 481 
Q 2391 481 2648 825 
Q 2906 1169 2906 1791 
z
M 3481 434 
Q 3481 -459 3084 -895 
Q 2688 -1331 1869 -1331 
Q 1566 -1331 1297 -1286 
Q 1028 -1241 775 -1147 
L 775 -588 
Q 1028 -725 1275 -790 
Q 1522 -856 1778 -856 
Q 2344 -856 2625 -561 
Q 2906 -266 2906 331 
L 2906 616 
Q 2728 306 2450 153 
Q 2172 0 1784 0 
Q 1141 0 747 490 
Q 353 981 353 1791 
Q 353 2603 747 3093 
Q 1141 3584 1784 3584 
Q 2172 3584 2450 3431 
Q 2728 3278 2906 2969 
L 2906 3500 
L 3481 3500 
L 3481 434 
z
" transform="scale(0.015625)"/>
      <path id="DejaVuSans-79" d="M 2059 -325 
Q 1816 -950 1584 -1140 
Q 1353 -1331 966 -1331 
L 506 -1331 
L 506 -850 
L 844 -850 
Q 1081 -850 1212 -737 
Q 1344 -625 1503 -206 
L 1606 56 
L 191 3500 
L 800 3500 
L 1894 763 
L 2988 3500 
L 3597 3500 
L 2059 -325 
z
" transform="scale(0.015625)"/>
     </defs>
     <use xlink:href="#DejaVuSans-70"/>
     <use xlink:href="#DejaVuSans-6e" x="63.476562"/>
     <use xlink:href="#DejaVuSans-61" x="126.855469"/>
     <use xlink:href="#DejaVuSans-6d" x="188.134766"/>
     <use xlink:href="#DejaVuSans-65" x="285.546875"/>
     <use xlink:href="#DejaVuSans-20" x="347.070312"/>
     <use xlink:href="#DejaVuSans-3d" x="378.857422"/>
     <use xlink:href="#DejaVuSans-20" x="462.646484"/>
     <use xlink:href="#DejaVuSans-64" x="494.433594"/>
     <use xlink:href="#DejaVuSans-65" x="557.910156"/>
     <use xlink:href="#DejaVuSans-67" x="619.433594"/>
     <use xlink:href="#DejaVuSans-5f" x="682.910156"/>
     <use xlink:href="#DejaVuSans-6d" x="732.910156"/>
     <use xlink:href="#DejaVuSans-79" x="830.322266"/>
     <use xlink:href="#DejaVuSans-63" x="889.501953"/>
    </g>
   </g>
  </g>
  <g id="axes_5">
   <g id="patch_22">
    <path d="M 614.539848 113.198594 
L 741.449896 113.198594 
L 741.449896 20.038594 
L 614.539848 20.038594 
z
" style="fill: #ffffff"/>
   </g>
   <g id="matplotlib.axis_9">
    <g id="xtick_21">
     <g id="line2d_61">
      <g>
       <use xlink:href="#m2ea87bf39b" x="618.518219" y="113.198594" style="stroke: #000000; stroke-width: 0.8"/>
      </g>
     </g>
     <g id="text_35">
      <!-- 0.90 -->
      <g transform="translate(609.611969 126.277344)scale(0.08 -0.08)">
       <use xlink:href="#DejaVuSans-30"/>
       <use xlink:href="#DejaVuSans-2e" x="63.623047"/>
       <use xlink:href="#DejaVuSans-39" x="95.410156"/>
       <use xlink:href="#DejaVuSans-30" x="159.033203"/>
      </g>
     </g>
    </g>
    <g id="xtick_22">
     <g id="line2d_62">
      <g>
       <use xlink:href="#m2ea87bf39b" x="647.261953" y="113.198594" style="stroke: #000000; stroke-width: 0.8"/>
      </g>
     </g>
     <g id="text_36">
      <!-- 0.95 -->
      <g transform="translate(638.355703 126.277344)scale(0.08 -0.08)">
       <use xlink:href="#DejaVuSans-30"/>
       <use xlink:href="#DejaVuSans-2e" x="63.623047"/>
       <use xlink:href="#DejaVuSans-39" x="95.410156"/>
       <use xlink:href="#DejaVuSans-35" x="159.033203"/>
      </g>
     </g>
    </g>
    <g id="xtick_23">
     <g id="line2d_63">
      <g>
       <use xlink:href="#m2ea87bf39b" x="676.005686" y="113.198594" style="stroke: #000000; stroke-width: 0.8"/>
      </g>
     </g>
     <g id="text_37">
      <!-- 1.00 -->
      <g transform="translate(667.099436 126.277344)scale(0.08 -0.08)">
       <use xlink:href="#DejaVuSans-31"/>
       <use xlink:href="#DejaVuSans-2e" x="63.623047"/>
       <use xlink:href="#DejaVuSans-30" x="95.410156"/>
       <use xlink:href="#DejaVuSans-30" x="159.033203"/>
      </g>
     </g>
    </g>
    <g id="xtick_24">
     <g id="line2d_64">
      <g>
       <use xlink:href="#m2ea87bf39b" x="704.74942" y="113.198594" style="stroke: #000000; stroke-width: 0.8"/>
      </g>
     </g>
     <g id="text_38">
      <!-- 1.05 -->
      <g transform="translate(695.84317 126.277344)scale(0.08 -0.08)">
       <use xlink:href="#DejaVuSans-31"/>
       <use xlink:href="#DejaVuSans-2e" x="63.623047"/>
       <use xlink:href="#DejaVuSans-30" x="95.410156"/>
       <use xlink:href="#DejaVuSans-35" x="159.033203"/>
      </g>
     </g>
    </g>
    <g id="xtick_25">
     <g id="line2d_65">
      <g>
       <use xlink:href="#m2ea87bf39b" x="733.493153" y="113.198594" style="stroke: #000000; stroke-width: 0.8"/>
      </g>
     </g>
     <g id="text_39">
      <!-- 1.10 -->
      <g transform="translate(724.586903 126.277344)scale(0.08 -0.08)">
       <use xlink:href="#DejaVuSans-31"/>
       <use xlink:href="#DejaVuSans-2e" x="63.623047"/>
       <use xlink:href="#DejaVuSans-31" x="95.410156"/>
       <use xlink:href="#DejaVuSans-30" x="159.033203"/>
      </g>
     </g>
    </g>
    <g id="text_40">
     <!-- param value norm. -->
     <g transform="translate(635.047294 138.779687)scale(0.09 -0.09)">
      <use xlink:href="#DejaVuSans-70"/>
      <use xlink:href="#DejaVuSans-61" x="63.476562"/>
      <use xlink:href="#DejaVuSans-72" x="124.755859"/>
      <use xlink:href="#DejaVuSans-61" x="165.869141"/>
      <use xlink:href="#DejaVuSans-6d" x="227.148438"/>
      <use xlink:href="#DejaVuSans-20" x="324.560547"/>
      <use xlink:href="#DejaVuSans-76" x="356.347656"/>
      <use xlink:href="#DejaVuSans-61" x="415.527344"/>
      <use xlink:href="#DejaVuSans-6c" x="476.806641"/>
      <use xlink:href="#DejaVuSans-75" x="504.589844"/>
      <use xlink:href="#DejaVuSans-65" x="567.96875"/>
      <use xlink:href="#DejaVuSans-20" x="629.492188"/>
      <use xlink:href="#DejaVuSans-6e" x="661.279297"/>
      <use xlink:href="#DejaVuSans-6f" x="724.658203"/>
      <use xlink:href="#DejaVuSans-72" x="785.839844"/>
      <use xlink:href="#DejaVuSans-6d" x="825.203125"/>
      <use xlink:href="#DejaVuSans-2e" x="922.615234"/>
     </g>
    </g>
   </g>
   <g id="matplotlib.axis_10">
    <g id="ytick_21">
     <g id="line2d_66">
      <g>
       <use xlink:href="#mc3b397ac98" x="614.539848" y="113.198594" style="stroke: #000000; stroke-width: 0.8"/>
      </g>
     </g>
    </g>
    <g id="ytick_22">
     <g id="line2d_67">
      <g>
       <use xlink:href="#mc3b397ac98" x="614.539848" y="89.908594" style="stroke: #000000; stroke-width: 0.8"/>
      </g>
     </g>
    </g>
    <g id="ytick_23">
     <g id="line2d_68">
      <g>
       <use xlink:href="#mc3b397ac98" x="614.539848" y="66.618594" style="stroke: #000000; stroke-width: 0.8"/>
      </g>
     </g>
    </g>
    <g id="ytick_24">
     <g id="line2d_69">
      <g>
       <use xlink:href="#mc3b397ac98" x="614.539848" y="43.328594" style="stroke: #000000; stroke-width: 0.8"/>
      </g>
     </g>
    </g>
    <g id="ytick_25">
     <g id="line2d_70">
      <g>
       <use xlink:href="#mc3b397ac98" x="614.539848" y="20.038594" style="stroke: #000000; stroke-width: 0.8"/>
      </g>
     </g>
    </g>
   </g>
   <g id="line2d_71">
    <path d="M 620.308486 72.304298 
L 624.286858 72.304298 
L 628.265229 71.14797 
L 632.2436 71.14797 
L 636.221972 69.956286 
L 640.200343 69.956286 
L 644.178715 69.013868 
L 648.157086 69.013868 
L 652.135458 68.68318 
L 656.113829 68.235514 
L 660.0922 68.235514 
L 664.070572 67.550813 
L 668.048943 67.550813 
L 672.027315 66.618594 
L 676.005686 66.618594 
L 679.984057 65.551524 
L 683.962429 65.551524 
L 687.9408 64.429949 
L 691.919172 64.429949 
L 695.897543 63.28488 
L 699.875915 63.28488 
L 703.854286 62.128551 
L 707.832657 62.128551 
L 711.811029 60.936867 
L 715.7894 60.936867 
L 719.767772 59.994449 
L 723.746143 59.994449 
L 727.724514 59.663761 
L 731.702886 59.663761 
L 735.681257 59.663761 
" clip-path="url(#pecce567fc7)" style="fill: none; stroke: #4c72b0; stroke-width: 1.5; stroke-linecap: square"/>
   </g>
   <g id="line2d_72">
    <path d="M 620.308486 72.933575 
L 624.286858 72.933575 
L 628.265229 72.02496 
L 632.2436 72.02496 
L 636.221972 71.113599 
L 640.200343 71.113599 
L 644.178715 70.205974 
L 648.157086 70.205974 
L 652.135458 69.311814 
L 656.113829 68.416288 
L 660.0922 68.416288 
L 664.070572 67.51854 
L 668.048943 67.51854 
L 672.027315 66.618594 
L 676.005686 66.618594 
L 679.984057 65.716473 
L 683.962429 65.716473 
L 687.9408 64.812201 
L 691.919172 64.812201 
L 695.897543 63.905802 
L 699.875915 63.905802 
L 703.854286 62.997299 
L 707.832657 62.997299 
L 711.811029 62.086049 
L 715.7894 62.086049 
L 719.767772 61.178534 
L 723.746143 61.178534 
L 727.724514 60.284479 
L 731.702886 60.284479 
L 735.681257 60.284479 
" clip-path="url(#pecce567fc7)" style="fill: none; stroke: #dd8452; stroke-width: 1.5; stroke-linecap: square"/>
   </g>
   <g id="line2d_73">
    <path d="M 620.308486 67.522243 
L 624.286858 67.522243 
L 628.265229 67.485005 
L 632.2436 67.485005 
L 636.221972 67.460471 
L 640.200343 67.460471 
L 644.178715 67.420068 
L 648.157086 67.420068 
L 652.135458 67.300257 
L 656.113829 67.119525 
L 660.0922 67.119525 
L 664.070572 66.858769 
L 668.048943 66.858769 
L 672.027315 66.618594 
L 676.005686 66.618594 
L 679.984057 66.474033 
L 683.962429 66.474033 
L 687.9408 66.389935 
L 691.919172 66.389935 
L 695.897543 66.336593 
L 699.875915 66.336593 
L 703.854286 66.300007 
L 707.832657 66.300007 
L 711.811029 66.275902 
L 715.7894 66.275902 
L 719.767772 66.236204 
L 723.746143 66.236204 
L 727.724514 66.118483 
L 731.702886 66.118483 
L 735.681257 66.118483 
" clip-path="url(#pecce567fc7)" style="fill: none; stroke: #55a868; stroke-width: 1.5; stroke-linecap: square"/>
   </g>
   <g id="line2d_74">
    <path d="M 620.308486 67.045945 
L 624.286858 67.045945 
L 628.265229 67.045945 
L 632.2436 67.045945 
L 636.221972 66.938852 
L 640.200343 66.938852 
L 644.178715 66.83193 
L 648.157086 66.83193 
L 652.135458 66.83193 
L 656.113829 66.725177 
L 660.0922 66.725177 
L 664.070572 66.618594 
L 668.048943 66.618594 
L 672.027315 66.618594 
L 676.005686 66.618594 
L 679.984057 66.512179 
L 683.962429 66.512179 
L 687.9408 66.405933 
L 691.919172 66.405933 
L 695.897543 66.405933 
L 699.875915 66.405933 
L 703.854286 66.299854 
L 707.832657 66.299854 
L 711.811029 66.193943 
L 715.7894 66.193943 
L 719.767772 66.193943 
L 723.746143 66.193943 
L 727.724514 66.088198 
L 731.702886 66.088198 
L 735.681257 66.088198 
" clip-path="url(#pecce567fc7)" style="fill: none; stroke: #c44e52; stroke-width: 1.5; stroke-linecap: square"/>
   </g>
   <g id="patch_23">
    <path d="M 614.539848 113.198594 
L 614.539848 20.038594 
" style="fill: none; stroke: #000000; stroke-width: 0.8; stroke-linejoin: miter; stroke-linecap: square"/>
   </g>
   <g id="patch_24">
    <path d="M 741.449896 113.198594 
L 741.449896 20.038594 
" style="fill: none; stroke: #000000; stroke-width: 0.8; stroke-linejoin: miter; stroke-linecap: square"/>
   </g>
   <g id="patch_25">
    <path d="M 614.539848 113.198594 
L 741.449896 113.198594 
" style="fill: none; stroke: #000000; stroke-width: 0.8; stroke-linejoin: miter; stroke-linecap: square"/>
   </g>
   <g id="patch_26">
    <path d="M 614.539848 20.038594 
L 741.449896 20.038594 
" style="fill: none; stroke: #000000; stroke-width: 0.8; stroke-linejoin: miter; stroke-linecap: square"/>
   </g>
   <g id="text_41">
    <!-- pname = n_crit -->
    <g transform="translate(643.304794 14.038594)scale(0.09 -0.09)">
     <use xlink:href="#DejaVuSans-70"/>
     <use xlink:href="#DejaVuSans-6e" x="63.476562"/>
     <use xlink:href="#DejaVuSans-61" x="126.855469"/>
     <use xlink:href="#DejaVuSans-6d" x="188.134766"/>
     <use xlink:href="#DejaVuSans-65" x="285.546875"/>
     <use xlink:href="#DejaVuSans-20" x="347.070312"/>
     <use xlink:href="#DejaVuSans-3d" x="378.857422"/>
     <use xlink:href="#DejaVuSans-20" x="462.646484"/>
     <use xlink:href="#DejaVuSans-6e" x="494.433594"/>
     <use xlink:href="#DejaVuSans-5f" x="557.8125"/>
     <use xlink:href="#DejaVuSans-63" x="607.8125"/>
     <use xlink:href="#DejaVuSans-72" x="662.792969"/>
     <use xlink:href="#DejaVuSans-69" x="703.90625"/>
     <use xlink:href="#DejaVuSans-74" x="731.689453"/>
    </g>
   </g>
  </g>
  <g id="legend_1">
   <g id="text_42">
    <!-- readout -->
    <g transform="translate(766.350221 52.648203)scale(0.08 -0.08)">
     <use xlink:href="#DejaVuSans-72"/>
     <use xlink:href="#DejaVuSans-65" x="38.863281"/>
     <use xlink:href="#DejaVuSans-61" x="100.386719"/>
     <use xlink:href="#DejaVuSans-64" x="161.666016"/>
     <use xlink:href="#DejaVuSans-6f" x="225.142578"/>
     <use xlink:href="#DejaVuSans-75" x="286.324219"/>
     <use xlink:href="#DejaVuSans-74" x="349.703125"/>
    </g>
   </g>
   <g id="line2d_75">
    <path d="M 752.174596 61.590703 
L 760.174596 61.590703 
L 768.174596 61.590703 
" style="fill: none; stroke: #4c72b0; stroke-width: 1.5; stroke-linecap: square"/>
   </g>
   <g id="text_43">
    <!-- Peak -->
    <g transform="translate(774.574596 64.390703)scale(0.08 -0.08)">
     <defs>
      <path id="DejaVuSans-50" d="M 1259 4147 
L 1259 2394 
L 2053 2394 
Q 2494 2394 2734 2622 
Q 2975 2850 2975 3272 
Q 2975 3691 2734 3919 
Q 2494 4147 2053 4147 
L 1259 4147 
z
M 628 4666 
L 2053 4666 
Q 2838 4666 3239 4311 
Q 3641 3956 3641 3272 
Q 3641 2581 3239 2228 
Q 2838 1875 2053 1875 
L 1259 1875 
L 1259 0 
L 628 0 
L 628 4666 
z
" transform="scale(0.015625)"/>
      <path id="DejaVuSans-6b" d="M 581 4863 
L 1159 4863 
L 1159 1991 
L 2875 3500 
L 3609 3500 
L 1753 1863 
L 3688 0 
L 2938 0 
L 1159 1709 
L 1159 0 
L 581 0 
L 581 4863 
z
" transform="scale(0.015625)"/>
     </defs>
     <use xlink:href="#DejaVuSans-50"/>
     <use xlink:href="#DejaVuSans-65" x="56.677734"/>
     <use xlink:href="#DejaVuSans-61" x="118.201172"/>
     <use xlink:href="#DejaVuSans-6b" x="179.480469"/>
    </g>
   </g>
   <g id="line2d_76">
    <path d="M 752.174596 73.333203 
L 760.174596 73.333203 
L 768.174596 73.333203 
" style="fill: none; stroke: #dd8452; stroke-width: 1.5; stroke-linecap: square"/>
   </g>
   <g id="text_44">
    <!-- Area -->
    <g transform="translate(774.574596 76.133203)scale(0.08 -0.08)">
     <defs>
      <path id="DejaVuSans-41" d="M 2188 4044 
L 1331 1722 
L 3047 1722 
L 2188 4044 
z
M 1831 4666 
L 2547 4666 
L 4325 0 
L 3669 0 
L 3244 1197 
L 1141 1197 
L 716 0 
L 50 0 
L 1831 4666 
z
" transform="scale(0.015625)"/>
     </defs>
     <use xlink:href="#DejaVuSans-41"/>
     <use xlink:href="#DejaVuSans-72" x="68.408203"/>
     <use xlink:href="#DejaVuSans-65" x="107.271484"/>
     <use xlink:href="#DejaVuSans-61" x="168.794922"/>
    </g>
   </g>
   <g id="line2d_77">
    <path d="M 752.174596 85.075703 
L 760.174596 85.075703 
L 768.174596 85.075703 
" style="fill: none; stroke: #55a868; stroke-width: 1.5; stroke-linecap: square"/>
   </g>
   <g id="text_45">
    <!-- Peaktime -->
    <g transform="translate(774.574596 87.875703)scale(0.08 -0.08)">
     <use xlink:href="#DejaVuSans-50"/>
     <use xlink:href="#DejaVuSans-65" x="56.677734"/>
     <use xlink:href="#DejaVuSans-61" x="118.201172"/>
     <use xlink:href="#DejaVuSans-6b" x="179.480469"/>
     <use xlink:href="#DejaVuSans-74" x="237.390625"/>
     <use xlink:href="#DejaVuSans-69" x="276.599609"/>
     <use xlink:href="#DejaVuSans-6d" x="304.382812"/>
     <use xlink:href="#DejaVuSans-65" x="401.794922"/>
    </g>
   </g>
   <g id="line2d_78">
    <path d="M 752.174596 96.818203 
L 760.174596 96.818203 
L 768.174596 96.818203 
" style="fill: none; stroke: #c44e52; stroke-width: 1.5; stroke-linecap: square"/>
   </g>
   <g id="text_46">
    <!-- Decay -->
    <g transform="translate(774.574596 99.618203)scale(0.08 -0.08)">
     <defs>
      <path id="DejaVuSans-44" d="M 1259 4147 
L 1259 519 
L 2022 519 
Q 2988 519 3436 956 
Q 3884 1394 3884 2338 
Q 3884 3275 3436 3711 
Q 2988 4147 2022 4147 
L 1259 4147 
z
M 628 4666 
L 1925 4666 
Q 3281 4666 3915 4102 
Q 4550 3538 4550 2338 
Q 4550 1131 3912 565 
Q 3275 0 1925 0 
L 628 0 
L 628 4666 
z
" transform="scale(0.015625)"/>
     </defs>
     <use xlink:href="#DejaVuSans-44"/>
     <use xlink:href="#DejaVuSans-65" x="77.001953"/>
     <use xlink:href="#DejaVuSans-63" x="138.525391"/>
     <use xlink:href="#DejaVuSans-61" x="193.505859"/>
     <use xlink:href="#DejaVuSans-79" x="254.785156"/>
    </g>
   </g>
  </g>
 </g>
 <defs>
  <clipPath id="p5e1f165f8b">
   <rect x="46.336562" y="20.038594" width="126.910048" height="93.16"/>
  </clipPath>
  <clipPath id="pcbbcb29ca6">
   <rect x="188.387384" y="20.038594" width="126.910048" height="93.16"/>
  </clipPath>
  <clipPath id="p3f31802ba9">
   <rect x="330.438205" y="20.038594" width="126.910048" height="93.16"/>
  </clipPath>
  <clipPath id="p5ddb86cc15">
   <rect x="472.489026" y="20.038594" width="126.910048" height="93.16"/>
  </clipPath>
  <clipPath id="pecce567fc7">
   <rect x="614.539848" y="20.038594" width="126.910048" height="93.16"/>
  </clipPath>
 </defs>
</svg>
