<?xml version="1.0" encoding="utf-8" standalone="no"?>
<!DOCTYPE svg PUBLIC "-//W3C//DTD SVG 1.1//EN"
  "http://www.w3.org/Graphics/SVG/1.1/DTD/svg11.dtd">
<!-- Created with matplotlib (https://matplotlib.org/) -->
<svg height="321.955625pt" version="1.1" viewBox="0 0 1178.38496 321.955625" width="1178.38496pt" xmlns="http://www.w3.org/2000/svg" xmlns:xlink="http://www.w3.org/1999/xlink">
 <metadata>
  <rdf:RDF xmlns:cc="http://creativecommons.org/ns#" xmlns:dc="http://purl.org/dc/elements/1.1/" xmlns:rdf="http://www.w3.org/1999/02/22-rdf-syntax-ns#">
   <cc:Work>
    <dc:type rdf:resource="http://purl.org/dc/dcmitype/StillImage"/>
    <dc:date>2022-02-14T15:50:39.621454</dc:date>
    <dc:format>image/svg+xml</dc:format>
    <dc:creator>
     <cc:Agent>
      <dc:title>Matplotlib v3.3.2, https://matplotlib.org/</dc:title>
     </cc:Agent>
    </dc:creator>
   </cc:Work>
  </rdf:RDF>
 </metadata>
 <defs>
  <style type="text/css">*{stroke-linecap:butt;stroke-linejoin:round;}</style>
 </defs>
 <g id="figure_1">
  <g id="patch_1">
   <path d="M 0 321.955625 
L 1178.38496 321.955625 
L 1178.38496 0 
L 0 0 
z
" style="fill:#ffffff;"/>
  </g>
  <g id="axes_1">
   <g id="patch_2">
    <path d="M 88.6475 250.73625 
L 418.291347 250.73625 
L 418.291347 31.43625 
L 88.6475 31.43625 
z
" style="fill:#ffffff;"/>
   </g>
   <g id="matplotlib.axis_1">
    <g id="xtick_1">
     <g id="line2d_1">
      <defs>
       <path d="M 0 0 
L 0 12 
" id="mcb91ad28e6" style="stroke:#262626;stroke-width:2.5;"/>
      </defs>
      <g>
       <use style="fill:#262626;stroke:#262626;stroke-width:2.5;" x="103.631311" xlink:href="#mcb91ad28e6" y="250.73625"/>
      </g>
     </g>
     <g id="text_1">
      <!-- 0 -->
      <g style="fill:#262626;" transform="translate(96.632561 282.952812)scale(0.22 -0.22)">
       <defs>
        <path d="M 31.78125 66.40625 
Q 24.171875 66.40625 20.328125 58.90625 
Q 16.5 51.421875 16.5 36.375 
Q 16.5 21.390625 20.328125 13.890625 
Q 24.171875 6.390625 31.78125 6.390625 
Q 39.453125 6.390625 43.28125 13.890625 
Q 47.125 21.390625 47.125 36.375 
Q 47.125 51.421875 43.28125 58.90625 
Q 39.453125 66.40625 31.78125 66.40625 
z
M 31.78125 74.21875 
Q 44.046875 74.21875 50.515625 64.515625 
Q 56.984375 54.828125 56.984375 36.375 
Q 56.984375 17.96875 50.515625 8.265625 
Q 44.046875 -1.421875 31.78125 -1.421875 
Q 19.53125 -1.421875 13.0625 8.265625 
Q 6.59375 17.96875 6.59375 36.375 
Q 6.59375 54.828125 13.0625 64.515625 
Q 19.53125 74.21875 31.78125 74.21875 
z
" id="DejaVuSans-48"/>
       </defs>
       <use xlink:href="#DejaVuSans-48"/>
      </g>
     </g>
    </g>
    <g id="xtick_2">
     <g id="line2d_2">
      <g>
       <use style="fill:#262626;stroke:#262626;stroke-width:2.5;" x="203.529297" xlink:href="#mcb91ad28e6" y="250.73625"/>
      </g>
     </g>
     <g id="text_2">
      <!-- 20 -->
      <g style="fill:#262626;" transform="translate(189.531797 282.952812)scale(0.22 -0.22)">
       <defs>
        <path d="M 19.1875 8.296875 
L 53.609375 8.296875 
L 53.609375 0 
L 7.328125 0 
L 7.328125 8.296875 
Q 12.9375 14.109375 22.625 23.890625 
Q 32.328125 33.6875 34.8125 36.53125 
Q 39.546875 41.84375 41.421875 45.53125 
Q 43.3125 49.21875 43.3125 52.78125 
Q 43.3125 58.59375 39.234375 62.25 
Q 35.15625 65.921875 28.609375 65.921875 
Q 23.96875 65.921875 18.8125 64.3125 
Q 13.671875 62.703125 7.8125 59.421875 
L 7.8125 69.390625 
Q 13.765625 71.78125 18.9375 73 
Q 24.125 74.21875 28.421875 74.21875 
Q 39.75 74.21875 46.484375 68.546875 
Q 53.21875 62.890625 53.21875 53.421875 
Q 53.21875 48.921875 51.53125 44.890625 
Q 49.859375 40.875 45.40625 35.40625 
Q 44.1875 33.984375 37.640625 27.21875 
Q 31.109375 20.453125 19.1875 8.296875 
z
" id="DejaVuSans-50"/>
       </defs>
       <use xlink:href="#DejaVuSans-50"/>
       <use x="63.623047" xlink:href="#DejaVuSans-48"/>
      </g>
     </g>
    </g>
    <g id="xtick_3">
     <g id="line2d_3">
      <g>
       <use style="fill:#262626;stroke:#262626;stroke-width:2.5;" x="303.427282" xlink:href="#mcb91ad28e6" y="250.73625"/>
      </g>
     </g>
     <g id="text_3">
      <!-- 40 -->
      <g style="fill:#262626;" transform="translate(289.429782 282.952812)scale(0.22 -0.22)">
       <defs>
        <path d="M 37.796875 64.3125 
L 12.890625 25.390625 
L 37.796875 25.390625 
z
M 35.203125 72.90625 
L 47.609375 72.90625 
L 47.609375 25.390625 
L 58.015625 25.390625 
L 58.015625 17.1875 
L 47.609375 17.1875 
L 47.609375 0 
L 37.796875 0 
L 37.796875 17.1875 
L 4.890625 17.1875 
L 4.890625 26.703125 
z
" id="DejaVuSans-52"/>
       </defs>
       <use xlink:href="#DejaVuSans-52"/>
       <use x="63.623047" xlink:href="#DejaVuSans-48"/>
      </g>
     </g>
    </g>
    <g id="xtick_4">
     <g id="line2d_4">
      <g>
       <use style="fill:#262626;stroke:#262626;stroke-width:2.5;" x="403.325268" xlink:href="#mcb91ad28e6" y="250.73625"/>
      </g>
     </g>
     <g id="text_4">
      <!-- 60 -->
      <g style="fill:#262626;" transform="translate(389.327768 282.952812)scale(0.22 -0.22)">
       <defs>
        <path d="M 33.015625 40.375 
Q 26.375 40.375 22.484375 35.828125 
Q 18.609375 31.296875 18.609375 23.390625 
Q 18.609375 15.53125 22.484375 10.953125 
Q 26.375 6.390625 33.015625 6.390625 
Q 39.65625 6.390625 43.53125 10.953125 
Q 47.40625 15.53125 47.40625 23.390625 
Q 47.40625 31.296875 43.53125 35.828125 
Q 39.65625 40.375 33.015625 40.375 
z
M 52.59375 71.296875 
L 52.59375 62.3125 
Q 48.875 64.0625 45.09375 64.984375 
Q 41.3125 65.921875 37.59375 65.921875 
Q 27.828125 65.921875 22.671875 59.328125 
Q 17.53125 52.734375 16.796875 39.40625 
Q 19.671875 43.65625 24.015625 45.921875 
Q 28.375 48.1875 33.59375 48.1875 
Q 44.578125 48.1875 50.953125 41.515625 
Q 57.328125 34.859375 57.328125 23.390625 
Q 57.328125 12.15625 50.6875 5.359375 
Q 44.046875 -1.421875 33.015625 -1.421875 
Q 20.359375 -1.421875 13.671875 8.265625 
Q 6.984375 17.96875 6.984375 36.375 
Q 6.984375 53.65625 15.1875 63.9375 
Q 23.390625 74.21875 37.203125 74.21875 
Q 40.921875 74.21875 44.703125 73.484375 
Q 48.484375 72.75 52.59375 71.296875 
z
" id="DejaVuSans-54"/>
       </defs>
       <use xlink:href="#DejaVuSans-54"/>
       <use x="63.623047" xlink:href="#DejaVuSans-48"/>
      </g>
     </g>
    </g>
    <g id="text_5">
     <!-- time -->
     <g style="fill:#262626;" transform="translate(226.358798 309.764375)scale(0.24 -0.24)">
      <defs>
       <path d="M 18.3125 70.21875 
L 18.3125 54.6875 
L 36.8125 54.6875 
L 36.8125 47.703125 
L 18.3125 47.703125 
L 18.3125 18.015625 
Q 18.3125 11.328125 20.140625 9.421875 
Q 21.96875 7.515625 27.59375 7.515625 
L 36.8125 7.515625 
L 36.8125 0 
L 27.59375 0 
Q 17.1875 0 13.234375 3.875 
Q 9.28125 7.765625 9.28125 18.015625 
L 9.28125 47.703125 
L 2.6875 47.703125 
L 2.6875 54.6875 
L 9.28125 54.6875 
L 9.28125 70.21875 
z
" id="DejaVuSans-116"/>
       <path d="M 9.421875 54.6875 
L 18.40625 54.6875 
L 18.40625 0 
L 9.421875 0 
z
M 9.421875 75.984375 
L 18.40625 75.984375 
L 18.40625 64.59375 
L 9.421875 64.59375 
z
" id="DejaVuSans-105"/>
       <path d="M 52 44.1875 
Q 55.375 50.25 60.0625 53.125 
Q 64.75 56 71.09375 56 
Q 79.640625 56 84.28125 50.015625 
Q 88.921875 44.046875 88.921875 33.015625 
L 88.921875 0 
L 79.890625 0 
L 79.890625 32.71875 
Q 79.890625 40.578125 77.09375 44.375 
Q 74.3125 48.1875 68.609375 48.1875 
Q 61.625 48.1875 57.5625 43.546875 
Q 53.515625 38.921875 53.515625 30.90625 
L 53.515625 0 
L 44.484375 0 
L 44.484375 32.71875 
Q 44.484375 40.625 41.703125 44.40625 
Q 38.921875 48.1875 33.109375 48.1875 
Q 26.21875 48.1875 22.15625 43.53125 
Q 18.109375 38.875 18.109375 30.90625 
L 18.109375 0 
L 9.078125 0 
L 9.078125 54.6875 
L 18.109375 54.6875 
L 18.109375 46.1875 
Q 21.1875 51.21875 25.484375 53.609375 
Q 29.78125 56 35.6875 56 
Q 41.65625 56 45.828125 52.96875 
Q 50 49.953125 52 44.1875 
z
" id="DejaVuSans-109"/>
       <path d="M 56.203125 29.59375 
L 56.203125 25.203125 
L 14.890625 25.203125 
Q 15.484375 15.921875 20.484375 11.0625 
Q 25.484375 6.203125 34.421875 6.203125 
Q 39.59375 6.203125 44.453125 7.46875 
Q 49.3125 8.734375 54.109375 11.28125 
L 54.109375 2.78125 
Q 49.265625 0.734375 44.1875 -0.34375 
Q 39.109375 -1.421875 33.890625 -1.421875 
Q 20.796875 -1.421875 13.15625 6.1875 
Q 5.515625 13.8125 5.515625 26.8125 
Q 5.515625 40.234375 12.765625 48.109375 
Q 20.015625 56 32.328125 56 
Q 43.359375 56 49.78125 48.890625 
Q 56.203125 41.796875 56.203125 29.59375 
z
M 47.21875 32.234375 
Q 47.125 39.59375 43.09375 43.984375 
Q 39.0625 48.390625 32.421875 48.390625 
Q 24.90625 48.390625 20.390625 44.140625 
Q 15.875 39.890625 15.1875 32.171875 
z
" id="DejaVuSans-101"/>
      </defs>
      <use xlink:href="#DejaVuSans-116"/>
      <use x="39.208984" xlink:href="#DejaVuSans-105"/>
      <use x="66.992188" xlink:href="#DejaVuSans-109"/>
      <use x="164.404297" xlink:href="#DejaVuSans-101"/>
     </g>
    </g>
   </g>
   <g id="matplotlib.axis_2">
    <g id="ytick_1">
     <g id="line2d_5">
      <defs>
       <path d="M 0 0 
L -12 0 
" id="m7617dd1697" style="stroke:#262626;stroke-width:2.5;"/>
      </defs>
      <g>
       <use style="fill:#262626;stroke:#262626;stroke-width:2.5;" x="88.6475" xlink:href="#m7617dd1697" y="250.73625"/>
      </g>
     </g>
     <g id="text_6">
      <!-- $\mathdefault{10^{0}}$ -->
      <g style="fill:#262626;" transform="translate(34.4275 259.094531)scale(0.22 -0.22)">
       <defs>
        <path d="M 12.40625 8.296875 
L 28.515625 8.296875 
L 28.515625 63.921875 
L 10.984375 60.40625 
L 10.984375 69.390625 
L 28.421875 72.90625 
L 38.28125 72.90625 
L 38.28125 8.296875 
L 54.390625 8.296875 
L 54.390625 0 
L 12.40625 0 
z
" id="DejaVuSans-49"/>
       </defs>
       <use transform="translate(0 0.765625)" xlink:href="#DejaVuSans-49"/>
       <use transform="translate(63.623047 0.765625)" xlink:href="#DejaVuSans-48"/>
       <use transform="translate(128.203125 39.046875)scale(0.7)" xlink:href="#DejaVuSans-48"/>
      </g>
     </g>
    </g>
    <g id="ytick_2">
     <g id="line2d_6">
      <g>
       <use style="fill:#262626;stroke:#262626;stroke-width:2.5;" x="88.6475" xlink:href="#m7617dd1697" y="164.203906"/>
      </g>
     </g>
     <g id="text_7">
      <!-- $\mathdefault{10^{2}}$ -->
      <g style="fill:#262626;" transform="translate(34.4275 172.562188)scale(0.22 -0.22)">
       <use transform="translate(0 0.765625)" xlink:href="#DejaVuSans-49"/>
       <use transform="translate(63.623047 0.765625)" xlink:href="#DejaVuSans-48"/>
       <use transform="translate(128.203125 39.046875)scale(0.7)" xlink:href="#DejaVuSans-50"/>
      </g>
     </g>
    </g>
    <g id="ytick_3">
     <g id="line2d_7">
      <g>
       <use style="fill:#262626;stroke:#262626;stroke-width:2.5;" x="88.6475" xlink:href="#m7617dd1697" y="77.671563"/>
      </g>
     </g>
     <g id="text_8">
      <!-- $\mathdefault{10^{4}}$ -->
      <g style="fill:#262626;" transform="translate(34.4275 86.029844)scale(0.22 -0.22)">
       <use transform="translate(0 0.684375)" xlink:href="#DejaVuSans-49"/>
       <use transform="translate(63.623047 0.684375)" xlink:href="#DejaVuSans-48"/>
       <use transform="translate(128.203125 38.965625)scale(0.7)" xlink:href="#DejaVuSans-52"/>
      </g>
     </g>
    </g>
    <g id="text_9">
     <!-- value -->
     <g style="fill:#262626;" transform="translate(25.43625 173.865)rotate(-90)scale(0.24 -0.24)">
      <defs>
       <path d="M 2.984375 54.6875 
L 12.5 54.6875 
L 29.59375 8.796875 
L 46.6875 54.6875 
L 56.203125 54.6875 
L 35.6875 0 
L 23.484375 0 
z
" id="DejaVuSans-118"/>
       <path d="M 34.28125 27.484375 
Q 23.390625 27.484375 19.1875 25 
Q 14.984375 22.515625 14.984375 16.5 
Q 14.984375 11.71875 18.140625 8.90625 
Q 21.296875 6.109375 26.703125 6.109375 
Q 34.1875 6.109375 38.703125 11.40625 
Q 43.21875 16.703125 43.21875 25.484375 
L 43.21875 27.484375 
z
M 52.203125 31.203125 
L 52.203125 0 
L 43.21875 0 
L 43.21875 8.296875 
Q 40.140625 3.328125 35.546875 0.953125 
Q 30.953125 -1.421875 24.3125 -1.421875 
Q 15.921875 -1.421875 10.953125 3.296875 
Q 6 8.015625 6 15.921875 
Q 6 25.140625 12.171875 29.828125 
Q 18.359375 34.515625 30.609375 34.515625 
L 43.21875 34.515625 
L 43.21875 35.40625 
Q 43.21875 41.609375 39.140625 45 
Q 35.0625 48.390625 27.6875 48.390625 
Q 23 48.390625 18.546875 47.265625 
Q 14.109375 46.140625 10.015625 43.890625 
L 10.015625 52.203125 
Q 14.9375 54.109375 19.578125 55.046875 
Q 24.21875 56 28.609375 56 
Q 40.484375 56 46.34375 49.84375 
Q 52.203125 43.703125 52.203125 31.203125 
z
" id="DejaVuSans-97"/>
       <path d="M 9.421875 75.984375 
L 18.40625 75.984375 
L 18.40625 0 
L 9.421875 0 
z
" id="DejaVuSans-108"/>
       <path d="M 8.5 21.578125 
L 8.5 54.6875 
L 17.484375 54.6875 
L 17.484375 21.921875 
Q 17.484375 14.15625 20.5 10.265625 
Q 23.53125 6.390625 29.59375 6.390625 
Q 36.859375 6.390625 41.078125 11.03125 
Q 45.3125 15.671875 45.3125 23.6875 
L 45.3125 54.6875 
L 54.296875 54.6875 
L 54.296875 0 
L 45.3125 0 
L 45.3125 8.40625 
Q 42.046875 3.421875 37.71875 1 
Q 33.40625 -1.421875 27.6875 -1.421875 
Q 18.265625 -1.421875 13.375 4.4375 
Q 8.5 10.296875 8.5 21.578125 
z
M 31.109375 56 
z
" id="DejaVuSans-117"/>
      </defs>
      <use xlink:href="#DejaVuSans-118"/>
      <use x="59.179688" xlink:href="#DejaVuSans-97"/>
      <use x="120.458984" xlink:href="#DejaVuSans-108"/>
      <use x="148.242188" xlink:href="#DejaVuSans-117"/>
      <use x="211.621094" xlink:href="#DejaVuSans-101"/>
     </g>
    </g>
   </g>
   <g id="line2d_8">
    <path clip-path="url(#p10948d70e6)" d="M 103.631311 177.228322 
L 107.494924 177.148586 
L 108.046751 176.899699 
L 108.498767 176.413775 
L 108.950782 175.544695 
L 109.451994 174.057544 
L 110.153074 171.139871 
L 111.40047 164.622342 
L 114.870621 146.140636 
L 124.985815 95.00605 
L 129.796146 71.277792 
L 129.957871 71.198116 
L 130.358671 71.485851 
L 155.966478 94.607542 
L 403.213992 317.835837 
L 403.213992 317.835837 
" style="fill:none;stroke:#4c72b0;stroke-linecap:round;stroke-width:3;"/>
   </g>
   <g id="line2d_9">
    <path clip-path="url(#p10948d70e6)" d="M 103.631311 177.228322 
L 107.494924 177.148586 
L 108.046751 176.899699 
L 108.498767 176.413775 
L 108.950782 175.544695 
L 109.451994 174.057544 
L 110.153074 171.139871 
L 111.40047 164.622342 
L 114.870621 146.140636 
L 124.985815 95.00605 
L 129.796146 71.277792 
L 129.957871 71.198116 
L 130.358671 71.485851 
L 158.631805 96.999413 
L 403.170516 317.782092 
L 403.170516 317.782092 
" style="fill:none;stroke:#dd8452;stroke-linecap:round;stroke-width:3;"/>
   </g>
   <g id="line2d_10">
    <path clip-path="url(#p10948d70e6)" d="M 103.631311 177.228322 
L 107.494924 177.148586 
L 108.046751 176.899699 
L 108.498767 176.413775 
L 108.950782 175.544695 
L 109.451994 174.057544 
L 110.153074 171.139871 
L 111.40047 164.622342 
L 114.870621 146.140636 
L 124.937812 95.243908 
L 129.864376 70.931713 
L 130.009653 70.865571 
L 130.430741 71.192114 
L 178.071384 114.152027 
L 403.181978 317.394201 
L 403.181978 317.394201 
" style="fill:none;stroke:#55a868;stroke-linecap:round;stroke-width:3;"/>
   </g>
   <g id="line2d_11">
    <path clip-path="url(#p10948d70e6)" d="M 103.631311 177.228322 
L 107.494924 177.148586 
L 108.046751 176.899699 
L 108.197423 176.77345 
L 108.475954 176.089527 
L 108.915806 175.285599 
L 109.416063 173.865535 
L 110.082972 171.192709 
L 111.193735 165.551027 
L 115.737607 141.566639 
L 129.935783 70.233259 
L 130.093316 70.042445 
L 130.343934 70.184082 
L 133.210744 72.762996 
L 175.450479 110.703243 
L 204.582168 136.908106 
L 402.87967 315.941702 
L 402.87967 315.941702 
" style="fill:none;stroke:#c44e52;stroke-linecap:round;stroke-width:3;"/>
   </g>
   <g id="line2d_12">
    <path clip-path="url(#p10948d70e6)" d="M 103.631311 177.228322 
L 105.945464 177.228245 
L 106.071458 176.856055 
L 107.551314 176.76422 
L 108.076721 176.51179 
L 108.220053 176.388777 
L 108.454908 175.767438 
L 108.855637 175.081128 
L 109.32079 173.860922 
L 109.987699 171.34171 
L 110.712085 167.64077 
L 112.979712 155.573522 
L 113.158672 154.51682 
L 117.523585 132.261269 
L 130.179538 68.971021 
L 130.32186 68.921733 
L 130.75229 69.259424 
L 178.39892 111.847854 
L 182.852398 115.618229 
L 188.095389 120.101093 
L 202.404731 133.007326 
L 403.199681 314.295704 
L 403.199681 314.295704 
" style="fill:none;stroke:#8172b3;stroke-linecap:round;stroke-width:3;"/>
   </g>
   <g id="line2d_13">
    <path clip-path="url(#p10948d70e6)" d="M 103.631311 177.228322 
L 104.792549 177.228322 
L 104.900778 176.856225 
L 105.909514 176.856166 
L 106.071458 176.491187 
L 107.074704 176.471789 
L 107.242137 176.099195 
L 107.865466 175.930389 
L 108.245383 175.659095 
L 108.433862 175.110473 
L 108.855637 174.420024 
L 109.32079 173.236184 
L 109.646633 171.854261 
L 110.349147 168.907137 
L 111.317335 163.842798 
L 119.11433 123.637197 
L 130.47343 66.963468 
L 130.676773 66.948065 
L 131.218887 67.405354 
L 161.476046 94.432789 
L 166.541764 98.788184 
L 169.120718 100.723738 
L 172.324 102.500264 
L 173.565841 102.880255 
L 174.665359 103.011514 
L 175.704708 102.924536 
L 176.694879 102.62452 
L 177.682393 102.095302 
L 178.6767 101.326752 
L 179.84729 100.115606 
L 181.20169 98.357184 
L 183.34542 95.461799 
L 183.883114 95.075851 
L 184.407319 95.000509 
L 184.850647 95.147633 
L 185.644368 95.689221 
L 188.058168 97.810043 
L 227.390868 133.316393 
L 403.211323 292.056507 
L 403.211323 292.056507 
" style="fill:none;stroke:#937860;stroke-linecap:round;stroke-width:3;"/>
   </g>
   <g id="line2d_14">
    <path clip-path="url(#p10948d70e6)" d="M 103.631311 177.228322 
L 104.162531 177.228322 
L 104.315439 176.856225 
L 104.754497 176.856225 
L 104.900778 176.491355 
L 105.343598 176.491354 
L 105.486118 176.133432 
L 105.928938 176.133369 
L 106.071458 175.782043 
L 106.514278 175.78039 
L 106.656798 175.433966 
L 107.099618 175.417168 
L 107.242137 175.066382 
L 107.684957 174.977271 
L 107.827477 174.593679 
L 108.270297 174.299639 
L 108.433862 173.809771 
L 108.855637 173.159133 
L 109.040248 172.472918 
L 109.440977 171.398838 
L 109.646633 170.460937 
L 110.104068 168.484303 
L 110.796267 165.176088 
L 111.782336 160.099538 
L 112.090253 158.384913 
L 129.684532 69.26278 
L 130.926569 63.620986 
L 131.098548 63.564342 
L 131.474639 63.84284 
L 140.366545 71.788077 
L 153.866629 83.712777 
L 156.793328 85.998706 
L 158.815173 87.327847 
L 160.365536 88.120882 
L 162.306166 88.692512 
L 163.392663 88.746446 
L 164.402745 88.590023 
L 165.390258 88.215585 
L 166.382499 87.607354 
L 167.440914 86.698584 
L 168.611594 85.399411 
L 170.072976 83.439746 
L 172.277987 80.493978 
L 173.071031 79.829467 
L 173.768181 79.535309 
L 174.535164 79.479127 
L 175.48693 79.663854 
L 176.994792 80.226433 
L 179.547858 81.433975 
L 180.999013 82.383806 
L 182.9188 83.936392 
L 188.28587 88.692608 
L 221.214331 118.414992 
L 403.028665 282.566702 
L 403.028665 282.566702 
" style="fill:none;stroke:#da8bc3;stroke-linecap:round;stroke-width:3;"/>
   </g>
   <g id="line2d_15"/>
   <g id="line2d_16"/>
   <g id="line2d_17"/>
   <g id="line2d_18"/>
   <g id="line2d_19"/>
   <g id="line2d_20"/>
   <g id="line2d_21"/>
   <g id="patch_3">
    <path d="M 88.6475 250.73625 
L 88.6475 31.43625 
" style="fill:none;stroke:#262626;stroke-linecap:square;stroke-linejoin:miter;stroke-width:2.5;"/>
   </g>
   <g id="patch_4">
    <path d="M 88.6475 250.73625 
L 418.291347 250.73625 
" style="fill:none;stroke:#262626;stroke-linecap:square;stroke-linejoin:miter;stroke-width:2.5;"/>
   </g>
   <g id="text_10">
    <!-- Timer_IL2 -->
    <g style="fill:#262626;" transform="translate(195.314423 25.43625)scale(0.24 -0.24)">
     <defs>
      <path d="M -0.296875 72.90625 
L 61.375 72.90625 
L 61.375 64.59375 
L 35.5 64.59375 
L 35.5 0 
L 25.59375 0 
L 25.59375 64.59375 
L -0.296875 64.59375 
z
" id="DejaVuSans-84"/>
      <path d="M 41.109375 46.296875 
Q 39.59375 47.171875 37.8125 47.578125 
Q 36.03125 48 33.890625 48 
Q 26.265625 48 22.1875 43.046875 
Q 18.109375 38.09375 18.109375 28.8125 
L 18.109375 0 
L 9.078125 0 
L 9.078125 54.6875 
L 18.109375 54.6875 
L 18.109375 46.1875 
Q 20.953125 51.171875 25.484375 53.578125 
Q 30.03125 56 36.53125 56 
Q 37.453125 56 38.578125 55.875 
Q 39.703125 55.765625 41.0625 55.515625 
z
" id="DejaVuSans-114"/>
      <path d="M 50.984375 -16.609375 
L 50.984375 -23.578125 
L -0.984375 -23.578125 
L -0.984375 -16.609375 
z
" id="DejaVuSans-95"/>
      <path d="M 9.8125 72.90625 
L 19.671875 72.90625 
L 19.671875 0 
L 9.8125 0 
z
" id="DejaVuSans-73"/>
      <path d="M 9.8125 72.90625 
L 19.671875 72.90625 
L 19.671875 8.296875 
L 55.171875 8.296875 
L 55.171875 0 
L 9.8125 0 
z
" id="DejaVuSans-76"/>
     </defs>
     <use xlink:href="#DejaVuSans-84"/>
     <use x="57.958984" xlink:href="#DejaVuSans-105"/>
     <use x="85.742188" xlink:href="#DejaVuSans-109"/>
     <use x="183.154297" xlink:href="#DejaVuSans-101"/>
     <use x="244.677734" xlink:href="#DejaVuSans-114"/>
     <use x="285.791016" xlink:href="#DejaVuSans-95"/>
     <use x="335.791016" xlink:href="#DejaVuSans-73"/>
     <use x="365.283203" xlink:href="#DejaVuSans-76"/>
     <use x="420.996094" xlink:href="#DejaVuSans-50"/>
    </g>
   </g>
  </g>
  <g id="axes_2">
   <g id="patch_5">
    <path d="M 457.159987 250.73625 
L 786.803834 250.73625 
L 786.803834 31.43625 
L 457.159987 31.43625 
z
" style="fill:#ffffff;"/>
   </g>
   <g id="matplotlib.axis_3">
    <g id="xtick_5">
     <g id="line2d_22">
      <g>
       <use style="fill:#262626;stroke:#262626;stroke-width:2.5;" x="472.143798" xlink:href="#mcb91ad28e6" y="250.73625"/>
      </g>
     </g>
     <g id="text_11">
      <!-- 0 -->
      <g style="fill:#262626;" transform="translate(465.145048 282.952812)scale(0.22 -0.22)">
       <use xlink:href="#DejaVuSans-48"/>
      </g>
     </g>
    </g>
    <g id="xtick_6">
     <g id="line2d_23">
      <g>
       <use style="fill:#262626;stroke:#262626;stroke-width:2.5;" x="572.041783" xlink:href="#mcb91ad28e6" y="250.73625"/>
      </g>
     </g>
     <g id="text_12">
      <!-- 20 -->
      <g style="fill:#262626;" transform="translate(558.044283 282.952812)scale(0.22 -0.22)">
       <use xlink:href="#DejaVuSans-50"/>
       <use x="63.623047" xlink:href="#DejaVuSans-48"/>
      </g>
     </g>
    </g>
    <g id="xtick_7">
     <g id="line2d_24">
      <g>
       <use style="fill:#262626;stroke:#262626;stroke-width:2.5;" x="671.939769" xlink:href="#mcb91ad28e6" y="250.73625"/>
      </g>
     </g>
     <g id="text_13">
      <!-- 40 -->
      <g style="fill:#262626;" transform="translate(657.942269 282.952812)scale(0.22 -0.22)">
       <use xlink:href="#DejaVuSans-52"/>
       <use x="63.623047" xlink:href="#DejaVuSans-48"/>
      </g>
     </g>
    </g>
    <g id="xtick_8">
     <g id="line2d_25">
      <g>
       <use style="fill:#262626;stroke:#262626;stroke-width:2.5;" x="771.837754" xlink:href="#mcb91ad28e6" y="250.73625"/>
      </g>
     </g>
     <g id="text_14">
      <!-- 60 -->
      <g style="fill:#262626;" transform="translate(757.840254 282.952812)scale(0.22 -0.22)">
       <use xlink:href="#DejaVuSans-54"/>
       <use x="63.623047" xlink:href="#DejaVuSans-48"/>
      </g>
     </g>
    </g>
    <g id="text_15">
     <!-- time -->
     <g style="fill:#262626;" transform="translate(594.871285 309.764375)scale(0.24 -0.24)">
      <use xlink:href="#DejaVuSans-116"/>
      <use x="39.208984" xlink:href="#DejaVuSans-105"/>
      <use x="66.992188" xlink:href="#DejaVuSans-109"/>
      <use x="164.404297" xlink:href="#DejaVuSans-101"/>
     </g>
    </g>
   </g>
   <g id="matplotlib.axis_4">
    <g id="ytick_4">
     <g id="line2d_26">
      <g>
       <use style="fill:#262626;stroke:#262626;stroke-width:2.5;" x="457.159987" xlink:href="#m7617dd1697" y="250.73625"/>
      </g>
     </g>
    </g>
    <g id="ytick_5">
     <g id="line2d_27">
      <g>
       <use style="fill:#262626;stroke:#262626;stroke-width:2.5;" x="457.159987" xlink:href="#m7617dd1697" y="164.203906"/>
      </g>
     </g>
    </g>
    <g id="ytick_6">
     <g id="line2d_28">
      <g>
       <use style="fill:#262626;stroke:#262626;stroke-width:2.5;" x="457.159987" xlink:href="#m7617dd1697" y="77.671563"/>
      </g>
     </g>
    </g>
   </g>
   <g id="line2d_29">
    <path clip-path="url(#pb468dcee64)" d="M 472.143798 177.228322 
L 476.007411 177.148586 
L 476.559238 176.899699 
L 477.011254 176.413775 
L 477.463269 175.544695 
L 477.964481 174.057544 
L 478.665561 171.139871 
L 479.912957 164.622342 
L 483.383108 146.140636 
L 493.498255 95.005109 
L 498.304699 71.216568 
L 498.465604 71.134361 
L 498.863729 71.418971 
L 523.386942 93.56143 
L 771.633436 317.691658 
L 771.633436 317.691658 
" style="fill:none;stroke:#4c72b0;stroke-linecap:round;stroke-width:3;"/>
   </g>
   <g id="line2d_30">
    <path clip-path="url(#pb468dcee64)" d="M 472.143798 177.228322 
L 476.007411 177.148586 
L 476.559238 176.899699 
L 477.011254 176.413775 
L 477.463269 175.544695 
L 477.964481 174.057544 
L 478.665561 171.139871 
L 479.912957 164.622342 
L 483.383108 146.140636 
L 493.498255 95.005109 
L 498.304699 71.216568 
L 498.465604 71.134361 
L 498.863729 71.418971 
L 526.126492 96.020365 
L 771.777971 317.807651 
L 771.777971 317.807651 
" style="fill:none;stroke:#dd8452;stroke-linecap:round;stroke-width:3;"/>
   </g>
   <g id="line2d_31">
    <path clip-path="url(#pb468dcee64)" d="M 472.143798 177.228322 
L 476.007411 177.148586 
L 476.559238 176.899699 
L 477.011254 176.413775 
L 477.463269 175.544695 
L 477.964481 174.057544 
L 478.665561 171.139871 
L 479.912957 164.622342 
L 483.383108 146.140636 
L 493.450268 95.242938 
L 498.357781 70.884459 
L 498.505345 70.78927 
L 498.841705 71.032164 
L 513.61174 84.359506 
L 771.694465 317.324314 
L 771.694465 317.324314 
" style="fill:none;stroke:#55a868;stroke-linecap:round;stroke-width:3;"/>
   </g>
   <g id="line2d_32">
    <path clip-path="url(#pb468dcee64)" d="M 472.143798 177.228322 
L 476.007411 177.148586 
L 476.559238 176.899699 
L 476.70991 176.77345 
L 476.98844 176.089527 
L 477.428293 175.285599 
L 477.928549 173.865535 
L 478.595459 171.192709 
L 479.706221 165.551027 
L 484.250094 141.566638 
L 498.467291 70.10927 
L 498.630929 69.969304 
L 498.96425 70.202592 
L 510.39882 80.505067 
L 547.14528 113.47088 
L 568.599246 132.767585 
L 771.392156 315.859866 
L 771.392156 315.859866 
" style="fill:none;stroke:#c44e52;stroke-linecap:round;stroke-width:3;"/>
   </g>
   <g id="line2d_33">
    <path clip-path="url(#pb468dcee64)" d="M 472.143798 177.228322 
L 474.45795 177.228245 
L 474.583945 176.856055 
L 476.0638 176.76422 
L 476.589208 176.51179 
L 476.73254 176.388777 
L 476.967395 175.767438 
L 477.368124 175.081128 
L 477.833277 173.860922 
L 478.500186 171.34171 
L 479.224571 167.64077 
L 481.492199 155.573522 
L 481.671159 154.51682 
L 486.036072 132.261268 
L 498.692024 68.882894 
L 498.834347 68.840004 
L 499.264776 69.180443 
L 538.423967 104.166975 
L 541.145243 106.318355 
L 542.926177 107.448599 
L 544.058239 107.932136 
L 545.207366 108.195692 
L 546.11378 108.157328 
L 547.327943 107.853839 
L 548.920754 107.488621 
L 549.92525 107.507952 
L 550.908811 107.775581 
L 551.994506 108.325656 
L 553.521106 109.415517 
L 555.730757 111.305321 
L 568.527622 122.845432 
L 771.820022 306.388653 
L 771.820022 306.388653 
" style="fill:none;stroke:#8172b3;stroke-linecap:round;stroke-width:3;"/>
   </g>
   <g id="line2d_34">
    <path clip-path="url(#pb468dcee64)" d="M 472.143798 177.228322 
L 473.305036 177.228322 
L 473.413265 176.856225 
L 474.422 176.856166 
L 474.583945 176.491187 
L 475.58719 176.471789 
L 475.754624 176.099195 
L 476.377952 175.930389 
L 476.75787 175.659095 
L 476.946349 175.110473 
L 477.368124 174.420024 
L 477.833277 173.236184 
L 478.15912 171.854261 
L 478.861634 168.907137 
L 479.829821 163.842798 
L 487.626817 123.637191 
L 498.986912 66.853011 
L 499.18926 66.848886 
L 499.791543 67.362413 
L 523.489778 88.516188 
L 526.536663 91.004229 
L 528.267769 92.169248 
L 529.876723 92.899206 
L 530.976046 93.123624 
L 532.044465 93.109661 
L 533.249231 92.866641 
L 538.303628 91.587289 
L 539.879291 91.547231 
L 543.85352 91.82341 
L 548.498622 92.232711 
L 549.525548 92.697323 
L 550.845947 93.571941 
L 552.981482 95.321898 
L 559.04557 100.741682 
L 771.452415 292.513343 
L 771.452415 292.513343 
" style="fill:none;stroke:#937860;stroke-linecap:round;stroke-width:3;"/>
   </g>
   <g id="line2d_35">
    <path clip-path="url(#pb468dcee64)" d="M 472.143798 177.228322 
L 472.675018 177.228322 
L 472.827925 176.856225 
L 473.266983 176.856225 
L 473.413265 176.491355 
L 473.856085 176.491354 
L 473.998605 176.133432 
L 474.441425 176.133369 
L 474.583945 175.782043 
L 475.026765 175.78039 
L 475.169284 175.433966 
L 475.612104 175.417168 
L 475.754624 175.066382 
L 476.197444 174.977271 
L 476.339964 174.593679 
L 476.782784 174.299639 
L 476.946349 173.809771 
L 477.368124 173.159133 
L 477.552735 172.472918 
L 477.953463 171.398838 
L 478.15912 170.460937 
L 478.616555 168.484303 
L 479.308754 165.176088 
L 480.294822 160.099538 
L 480.60274 158.384913 
L 499.114785 64.582788 
L 499.439055 63.467831 
L 499.611034 63.426119 
L 500.024395 63.743022 
L 515.243229 77.041337 
L 516.927891 78.15595 
L 518.244467 78.774425 
L 519.415147 79.087077 
L 520.623096 79.189059 
L 522.230036 79.104604 
L 526.225154 78.839092 
L 530.499333 78.854918 
L 542.340837 78.868024 
L 545.953304 78.867486 
L 547.965072 78.976364 
L 548.806271 79.292983 
L 549.961041 80.009547 
L 551.739137 81.431588 
L 556.213431 85.39053 
L 584.809228 111.19916 
L 771.618461 279.860533 
L 771.618461 279.860533 
" style="fill:none;stroke:#da8bc3;stroke-linecap:round;stroke-width:3;"/>
   </g>
   <g id="patch_6">
    <path d="M 457.159987 250.73625 
L 457.159987 31.43625 
" style="fill:none;stroke:#262626;stroke-linecap:square;stroke-linejoin:miter;stroke-width:2.5;"/>
   </g>
   <g id="patch_7">
    <path d="M 457.159987 250.73625 
L 786.803834 250.73625 
" style="fill:none;stroke:#262626;stroke-linecap:square;stroke-linejoin:miter;stroke-width:2.5;"/>
   </g>
   <g id="text_16">
    <!-- IL2 -->
    <g style="fill:#262626;" transform="translate(604.12066 25.43625)scale(0.24 -0.24)">
     <use xlink:href="#DejaVuSans-73"/>
     <use x="29.492188" xlink:href="#DejaVuSans-76"/>
     <use x="85.205078" xlink:href="#DejaVuSans-50"/>
    </g>
   </g>
  </g>
  <g id="axes_3">
   <g id="patch_8">
    <path d="M 825.672473 250.73625 
L 1155.31632 250.73625 
L 1155.31632 31.43625 
L 825.672473 31.43625 
z
" style="fill:#ffffff;"/>
   </g>
   <g id="matplotlib.axis_5">
    <g id="xtick_9">
     <g id="line2d_36">
      <g>
       <use style="fill:#262626;stroke:#262626;stroke-width:2.5;" x="840.656285" xlink:href="#mcb91ad28e6" y="250.73625"/>
      </g>
     </g>
     <g id="text_17">
      <!-- 0 -->
      <g style="fill:#262626;" transform="translate(833.657535 282.952812)scale(0.22 -0.22)">
       <use xlink:href="#DejaVuSans-48"/>
      </g>
     </g>
    </g>
    <g id="xtick_10">
     <g id="line2d_37">
      <g>
       <use style="fill:#262626;stroke:#262626;stroke-width:2.5;" x="940.55427" xlink:href="#mcb91ad28e6" y="250.73625"/>
      </g>
     </g>
     <g id="text_18">
      <!-- 20 -->
      <g style="fill:#262626;" transform="translate(926.55677 282.952812)scale(0.22 -0.22)">
       <use xlink:href="#DejaVuSans-50"/>
       <use x="63.623047" xlink:href="#DejaVuSans-48"/>
      </g>
     </g>
    </g>
    <g id="xtick_11">
     <g id="line2d_38">
      <g>
       <use style="fill:#262626;stroke:#262626;stroke-width:2.5;" x="1040.452256" xlink:href="#mcb91ad28e6" y="250.73625"/>
      </g>
     </g>
     <g id="text_19">
      <!-- 40 -->
      <g style="fill:#262626;" transform="translate(1026.454756 282.952812)scale(0.22 -0.22)">
       <use xlink:href="#DejaVuSans-52"/>
       <use x="63.623047" xlink:href="#DejaVuSans-48"/>
      </g>
     </g>
    </g>
    <g id="xtick_12">
     <g id="line2d_39">
      <g>
       <use style="fill:#262626;stroke:#262626;stroke-width:2.5;" x="1140.350241" xlink:href="#mcb91ad28e6" y="250.73625"/>
      </g>
     </g>
     <g id="text_20">
      <!-- 60 -->
      <g style="fill:#262626;" transform="translate(1126.352741 282.952812)scale(0.22 -0.22)">
       <use xlink:href="#DejaVuSans-54"/>
       <use x="63.623047" xlink:href="#DejaVuSans-48"/>
      </g>
     </g>
    </g>
    <g id="text_21">
     <!-- time -->
     <g style="fill:#262626;" transform="translate(963.383772 309.764375)scale(0.24 -0.24)">
      <use xlink:href="#DejaVuSans-116"/>
      <use x="39.208984" xlink:href="#DejaVuSans-105"/>
      <use x="66.992188" xlink:href="#DejaVuSans-109"/>
      <use x="164.404297" xlink:href="#DejaVuSans-101"/>
     </g>
    </g>
   </g>
   <g id="matplotlib.axis_6">
    <g id="ytick_7">
     <g id="line2d_40">
      <g>
       <use style="fill:#262626;stroke:#262626;stroke-width:2.5;" x="825.672473" xlink:href="#m7617dd1697" y="250.73625"/>
      </g>
     </g>
    </g>
    <g id="ytick_8">
     <g id="line2d_41">
      <g>
       <use style="fill:#262626;stroke:#262626;stroke-width:2.5;" x="825.672473" xlink:href="#m7617dd1697" y="164.203906"/>
      </g>
     </g>
    </g>
    <g id="ytick_9">
     <g id="line2d_42">
      <g>
       <use style="fill:#262626;stroke:#262626;stroke-width:2.5;" x="825.672473" xlink:href="#m7617dd1697" y="77.671563"/>
      </g>
     </g>
    </g>
   </g>
   <g id="line2d_43">
    <path clip-path="url(#p70a31e2b8a)" d="M 840.656285 177.228322 
L 844.519898 177.148586 
L 845.071725 176.899699 
L 845.52374 176.413775 
L 845.975756 175.544695 
L 846.476967 174.057544 
L 847.178047 171.139871 
L 848.425444 164.622342 
L 851.895595 146.140636 
L 862.010788 95.00605 
L 868.978312 60.360016 
L 870.397033 54.417515 
L 871.322675 51.484715 
L 872.039963 49.942197 
L 872.568887 49.230598 
L 873.13363 48.825037 
L 873.674899 48.712966 
L 874.284047 48.823533 
L 875.072526 49.209139 
L 876.294155 50.090369 
L 878.580856 52.054333 
L 891.763376 63.941162 
L 1140.00987 288.071386 
L 1140.00987 288.071386 
" style="fill:none;stroke:#4c72b0;stroke-linecap:round;stroke-width:3;"/>
   </g>
   <g id="line2d_44">
    <path clip-path="url(#p70a31e2b8a)" d="M 840.656285 177.228322 
L 844.519898 177.148586 
L 845.071725 176.899699 
L 845.52374 176.413775 
L 845.975756 175.544695 
L 846.476967 174.057544 
L 847.178047 171.139871 
L 848.425444 164.622342 
L 851.895595 146.140636 
L 862.010788 95.00605 
L 868.978312 60.360016 
L 870.397033 54.417516 
L 871.322675 51.484715 
L 872.039963 49.942197 
L 872.568887 49.230598 
L 873.13363 48.825037 
L 873.674899 48.712966 
L 874.284047 48.823533 
L 875.072526 49.209139 
L 876.294155 50.090369 
L 878.772017 52.22405 
L 903.749436 74.364125 
L 906.246791 76.167961 
L 911.422483 79.637905 
L 914.904888 82.694454 
L 955.72976 119.548792 
L 1140.041543 285.955331 
L 1140.041543 285.955331 
" style="fill:none;stroke:#dd8452;stroke-linecap:round;stroke-width:3;"/>
   </g>
   <g id="line2d_45">
    <path clip-path="url(#p70a31e2b8a)" d="M 840.656285 177.228322 
L 844.519898 177.148586 
L 845.071725 176.899699 
L 845.52374 176.413775 
L 845.975756 175.544695 
L 846.476967 174.057544 
L 847.178047 171.139871 
L 848.425444 164.622342 
L 851.895595 146.140636 
L 861.962786 95.243908 
L 868.945102 60.527102 
L 870.395158 54.438856 
L 871.233008 51.738674 
L 871.930334 50.147477 
L 872.615443 49.196838 
L 873.151442 48.828986 
L 873.711403 48.724066 
L 874.382681 48.868993 
L 875.202018 49.298158 
L 876.586036 50.331525 
L 879.888253 53.206672 
L 886.477969 58.926163 
L 896.533715 67.323114 
L 902.592196 72.564231 
L 905.504935 74.804866 
L 907.879159 76.34339 
L 910.224709 77.875522 
L 912.279197 79.535636 
L 920.941647 86.832757 
L 922.877866 88.159178 
L 924.376336 88.980843 
L 925.874806 89.577087 
L 928.372256 90.449519 
L 929.371235 91.022192 
L 931.096754 92.337352 
L 934.555881 95.38566 
L 984.983807 140.910933 
L 1140.325175 281.16143 
L 1140.325175 281.16143 
" style="fill:none;stroke:#55a868;stroke-linecap:round;stroke-width:3;"/>
   </g>
   <g id="line2d_46">
    <path clip-path="url(#p70a31e2b8a)" d="M 840.656285 177.228322 
L 844.519898 177.148586 
L 845.071725 176.899699 
L 845.222397 176.77345 
L 845.500927 176.089527 
L 845.94078 175.285599 
L 846.441036 173.865535 
L 847.107945 171.192709 
L 848.218708 165.551027 
L 852.762581 141.566639 
L 868.530132 62.312821 
L 870.160608 55.165965 
L 871.081568 51.996342 
L 871.765119 50.280029 
L 872.44568 49.167942 
L 873.03738 48.644336 
L 873.664875 48.446199 
L 874.237242 48.49719 
L 875.053925 48.811896 
L 876.294991 49.572754 
L 878.777349 51.429069 
L 886.946724 57.582677 
L 892.430368 61.486463 
L 897.390509 64.813896 
L 902.193566 67.83007 
L 906.816115 70.523553 
L 911.05898 72.799039 
L 914.226302 74.357685 
L 918.758834 76.427116 
L 923.502611 78.357339 
L 928.289589 80.077596 
L 935.043787 82.269137 
L 939.713671 83.863268 
L 942.18927 84.97083 
L 943.547764 85.841765 
L 945.406243 87.343685 
L 950.471798 91.869527 
L 1140.294103 263.250766 
L 1140.294103 263.250766 
" style="fill:none;stroke:#c44e52;stroke-linecap:round;stroke-width:3;"/>
   </g>
   <g id="line2d_47">
    <path clip-path="url(#p70a31e2b8a)" d="M 840.656285 177.228322 
L 842.970437 177.228245 
L 843.096431 176.856055 
L 844.576287 176.76422 
L 845.101694 176.51179 
L 845.245026 176.388777 
L 845.479882 175.767438 
L 845.88061 175.081128 
L 846.345763 173.860922 
L 847.012673 171.34171 
L 847.737058 167.64077 
L 850.004686 155.573522 
L 850.183645 154.51682 
L 854.548559 132.261269 
L 869.294201 58.512005 
L 870.547505 53.426527 
L 871.392224 50.815248 
L 872.047144 49.391869 
L 872.635955 48.567946 
L 873.162309 48.151965 
L 873.780712 47.965824 
L 874.4197 48.017794 
L 875.316733 48.344088 
L 876.779829 49.167674 
L 881.763392 52.40056 
L 887.17089 55.730151 
L 892.200203 58.569939 
L 897.079 61.073655 
L 901.863978 63.280612 
L 906.583966 65.215133 
L 911.341224 66.926314 
L 916.11812 68.415547 
L 921.215423 69.769795 
L 926.645897 70.977742 
L 933.63826 72.284127 
L 938.860191 73.321294 
L 941.228153 73.991834 
L 943.080292 74.741466 
L 944.509257 75.538597 
L 946.147161 76.728735 
L 948.882636 79.084969 
L 965.62776 94.191512 
L 1139.949744 251.578728 
L 1139.949744 251.578728 
" style="fill:none;stroke:#8172b3;stroke-linecap:round;stroke-width:3;"/>
   </g>
   <g id="line2d_48">
    <path clip-path="url(#p70a31e2b8a)" d="M 840.656285 177.228322 
L 841.817523 177.228322 
L 841.925752 176.856225 
L 842.934487 176.856166 
L 843.096431 176.491187 
L 844.099677 176.471789 
L 844.267111 176.099195 
L 844.890439 175.930389 
L 845.270357 175.659095 
L 845.458836 175.110473 
L 845.88061 174.420024 
L 846.345763 173.236184 
L 846.671607 171.854261 
L 847.374121 168.907137 
L 848.342308 163.842798 
L 856.139303 123.637197 
L 869.54587 56.819634 
L 870.716515 52.219299 
L 871.582373 49.676132 
L 872.272201 48.30095 
L 872.880684 47.548404 
L 873.480669 47.152761 
L 874.103793 47.009526 
L 874.905207 47.082115 
L 876.027112 47.438196 
L 878.348127 48.4673 
L 884.201525 51.065142 
L 888.91833 52.902462 
L 893.669222 54.518734 
L 898.561189 55.95075 
L 903.637899 57.207504 
L 908.999865 58.307203 
L 914.741453 59.260268 
L 921.034393 60.085046 
L 928.713653 60.854487 
L 938.363322 61.821275 
L 940.98994 62.320156 
L 942.923904 62.910913 
L 944.448266 63.604198 
L 945.804468 64.443254 
L 947.657468 65.889724 
L 951.468715 69.261862 
L 1025.829726 136.396622 
L 1140.212919 239.667889 
L 1140.212919 239.667889 
" style="fill:none;stroke:#937860;stroke-linecap:round;stroke-width:3;"/>
   </g>
   <g id="line2d_49">
    <path clip-path="url(#p70a31e2b8a)" d="M 840.656285 177.228322 
L 841.187504 177.228322 
L 841.340412 176.856225 
L 841.77947 176.856225 
L 841.925752 176.491355 
L 842.368572 176.491354 
L 842.511092 176.133432 
L 842.953912 176.133369 
L 843.096431 175.782043 
L 843.539251 175.78039 
L 843.681771 175.433966 
L 844.124591 175.417168 
L 844.267111 175.066382 
L 844.709931 174.977271 
L 844.852451 174.593679 
L 845.295271 174.299639 
L 845.458836 173.809771 
L 845.88061 173.159133 
L 846.065221 172.472918 
L 846.46595 171.398838 
L 846.671607 170.460937 
L 847.129042 168.484303 
L 847.821241 165.176088 
L 848.807309 160.099538 
L 849.115226 158.384913 
L 866.709506 69.262779 
L 869.533944 55.737533 
L 870.738711 50.948753 
L 871.57539 48.416474 
L 872.321328 46.838669 
L 872.969805 45.959588 
L 873.597236 45.455796 
L 874.284836 45.178041 
L 875.179175 45.074919 
L 876.523934 45.173579 
L 880.091704 45.747679 
L 886.369482 46.674567 
L 892.981621 47.426155 
L 900.438682 48.053819 
L 909.097304 48.565235 
L 927.243957 49.176012 
L 936.533334 49.5209 
L 939.875089 49.865497 
L 942.075516 50.309036 
L 943.580572 50.798147 
L 945.144181 51.548797 
L 946.551717 52.474483 
L 948.596095 54.13591 
L 953.905628 58.88559 
L 1139.907644 226.817952 
L 1139.907644 226.817952 
" style="fill:none;stroke:#da8bc3;stroke-linecap:round;stroke-width:3;"/>
   </g>
   <g id="patch_9">
    <path d="M 825.672473 250.73625 
L 825.672473 31.43625 
" style="fill:none;stroke:#262626;stroke-linecap:square;stroke-linejoin:miter;stroke-width:2.5;"/>
   </g>
   <g id="patch_10">
    <path d="M 825.672473 250.73625 
L 1155.31632 250.73625 
" style="fill:none;stroke:#262626;stroke-linecap:square;stroke-linejoin:miter;stroke-width:2.5;"/>
   </g>
   <g id="text_22">
    <!-- Timer -->
    <g style="fill:#262626;" transform="translate(956.200647 25.43625)scale(0.24 -0.24)">
     <use xlink:href="#DejaVuSans-84"/>
     <use x="57.958984" xlink:href="#DejaVuSans-105"/>
     <use x="85.742188" xlink:href="#DejaVuSans-109"/>
     <use x="183.154297" xlink:href="#DejaVuSans-101"/>
     <use x="244.677734" xlink:href="#DejaVuSans-114"/>
    </g>
   </g>
  </g>
  <g id="legend_1">
   <g id="text_23">
    <!-- name -->
    <g style="fill:#262626;" transform="translate(1072.75746 54.57875)scale(0.24 -0.24)">
     <defs>
      <path d="M 54.890625 33.015625 
L 54.890625 0 
L 45.90625 0 
L 45.90625 32.71875 
Q 45.90625 40.484375 42.875 44.328125 
Q 39.84375 48.1875 33.796875 48.1875 
Q 26.515625 48.1875 22.3125 43.546875 
Q 18.109375 38.921875 18.109375 30.90625 
L 18.109375 0 
L 9.078125 0 
L 9.078125 54.6875 
L 18.109375 54.6875 
L 18.109375 46.1875 
Q 21.34375 51.125 25.703125 53.5625 
Q 30.078125 56 35.796875 56 
Q 45.21875 56 50.046875 50.171875 
Q 54.890625 44.34375 54.890625 33.015625 
z
" id="DejaVuSans-110"/>
     </defs>
     <use xlink:href="#DejaVuSans-110"/>
     <use x="63.378906" xlink:href="#DejaVuSans-97"/>
     <use x="124.658203" xlink:href="#DejaVuSans-109"/>
     <use x="222.070312" xlink:href="#DejaVuSans-101"/>
    </g>
   </g>
   <g id="line2d_50">
    <path d="M 1054.99246 79.586562 
L 1098.99246 79.586562 
" style="fill:none;stroke:#4c72b0;stroke-linecap:round;stroke-width:3;"/>
   </g>
   <g id="line2d_51"/>
   <g id="text_24">
    <!-- 0 -->
    <g style="fill:#262626;" transform="translate(1116.59246 87.286562)scale(0.22 -0.22)">
     <use xlink:href="#DejaVuSans-48"/>
    </g>
   </g>
   <g id="line2d_52">
    <path d="M 1054.99246 111.878437 
L 1098.99246 111.878437 
" style="fill:none;stroke:#dd8452;stroke-linecap:round;stroke-width:3;"/>
   </g>
   <g id="line2d_53"/>
   <g id="text_25">
    <!-- 1 -->
    <g style="fill:#262626;" transform="translate(1116.59246 119.578437)scale(0.22 -0.22)">
     <use xlink:href="#DejaVuSans-49"/>
    </g>
   </g>
   <g id="line2d_54">
    <path d="M 1054.99246 144.170312 
L 1098.99246 144.170312 
" style="fill:none;stroke:#55a868;stroke-linecap:round;stroke-width:3;"/>
   </g>
   <g id="line2d_55"/>
   <g id="text_26">
    <!-- 3 -->
    <g style="fill:#262626;" transform="translate(1116.59246 151.870312)scale(0.22 -0.22)">
     <defs>
      <path d="M 40.578125 39.3125 
Q 47.65625 37.796875 51.625 33 
Q 55.609375 28.21875 55.609375 21.1875 
Q 55.609375 10.40625 48.1875 4.484375 
Q 40.765625 -1.421875 27.09375 -1.421875 
Q 22.515625 -1.421875 17.65625 -0.515625 
Q 12.796875 0.390625 7.625 2.203125 
L 7.625 11.71875 
Q 11.71875 9.328125 16.59375 8.109375 
Q 21.484375 6.890625 26.8125 6.890625 
Q 36.078125 6.890625 40.9375 10.546875 
Q 45.796875 14.203125 45.796875 21.1875 
Q 45.796875 27.640625 41.28125 31.265625 
Q 36.765625 34.90625 28.71875 34.90625 
L 20.21875 34.90625 
L 20.21875 43.015625 
L 29.109375 43.015625 
Q 36.375 43.015625 40.234375 45.921875 
Q 44.09375 48.828125 44.09375 54.296875 
Q 44.09375 59.90625 40.109375 62.90625 
Q 36.140625 65.921875 28.71875 65.921875 
Q 24.65625 65.921875 20.015625 65.03125 
Q 15.375 64.15625 9.8125 62.3125 
L 9.8125 71.09375 
Q 15.4375 72.65625 20.34375 73.4375 
Q 25.25 74.21875 29.59375 74.21875 
Q 40.828125 74.21875 47.359375 69.109375 
Q 53.90625 64.015625 53.90625 55.328125 
Q 53.90625 49.265625 50.4375 45.09375 
Q 46.96875 40.921875 40.578125 39.3125 
z
" id="DejaVuSans-51"/>
     </defs>
     <use xlink:href="#DejaVuSans-51"/>
    </g>
   </g>
   <g id="line2d_56">
    <path d="M 1054.99246 176.462187 
L 1098.99246 176.462187 
" style="fill:none;stroke:#c44e52;stroke-linecap:round;stroke-width:3;"/>
   </g>
   <g id="line2d_57"/>
   <g id="text_27">
    <!-- 15 -->
    <g style="fill:#262626;" transform="translate(1116.59246 184.162187)scale(0.22 -0.22)">
     <defs>
      <path d="M 10.796875 72.90625 
L 49.515625 72.90625 
L 49.515625 64.59375 
L 19.828125 64.59375 
L 19.828125 46.734375 
Q 21.96875 47.46875 24.109375 47.828125 
Q 26.265625 48.1875 28.421875 48.1875 
Q 40.625 48.1875 47.75 41.5 
Q 54.890625 34.8125 54.890625 23.390625 
Q 54.890625 11.625 47.5625 5.09375 
Q 40.234375 -1.421875 26.90625 -1.421875 
Q 22.3125 -1.421875 17.546875 -0.640625 
Q 12.796875 0.140625 7.71875 1.703125 
L 7.71875 11.625 
Q 12.109375 9.234375 16.796875 8.0625 
Q 21.484375 6.890625 26.703125 6.890625 
Q 35.15625 6.890625 40.078125 11.328125 
Q 45.015625 15.765625 45.015625 23.390625 
Q 45.015625 31 40.078125 35.4375 
Q 35.15625 39.890625 26.703125 39.890625 
Q 22.75 39.890625 18.8125 39.015625 
Q 14.890625 38.140625 10.796875 36.28125 
z
" id="DejaVuSans-53"/>
     </defs>
     <use xlink:href="#DejaVuSans-49"/>
     <use x="63.623047" xlink:href="#DejaVuSans-53"/>
    </g>
   </g>
   <g id="line2d_58">
    <path d="M 1054.99246 208.754062 
L 1098.99246 208.754062 
" style="fill:none;stroke:#8172b3;stroke-linecap:round;stroke-width:3;"/>
   </g>
   <g id="line2d_59"/>
   <g id="text_28">
    <!-- 31 -->
    <g style="fill:#262626;" transform="translate(1116.59246 216.454062)scale(0.22 -0.22)">
     <use xlink:href="#DejaVuSans-51"/>
     <use x="63.623047" xlink:href="#DejaVuSans-49"/>
    </g>
   </g>
   <g id="line2d_60">
    <path d="M 1054.99246 241.045937 
L 1098.99246 241.045937 
" style="fill:none;stroke:#937860;stroke-linecap:round;stroke-width:3;"/>
   </g>
   <g id="line2d_61"/>
   <g id="text_29">
    <!-- 63 -->
    <g style="fill:#262626;" transform="translate(1116.59246 248.745937)scale(0.22 -0.22)">
     <use xlink:href="#DejaVuSans-54"/>
     <use x="63.623047" xlink:href="#DejaVuSans-51"/>
    </g>
   </g>
   <g id="line2d_62">
    <path d="M 1054.99246 273.337812 
L 1098.99246 273.337812 
" style="fill:none;stroke:#da8bc3;stroke-linecap:round;stroke-width:3;"/>
   </g>
   <g id="line2d_63"/>
   <g id="text_30">
    <!-- 127 -->
    <g style="fill:#262626;" transform="translate(1116.59246 281.037812)scale(0.22 -0.22)">
     <defs>
      <path d="M 8.203125 72.90625 
L 55.078125 72.90625 
L 55.078125 68.703125 
L 28.609375 0 
L 18.3125 0 
L 43.21875 64.59375 
L 8.203125 64.59375 
z
" id="DejaVuSans-55"/>
     </defs>
     <use xlink:href="#DejaVuSans-49"/>
     <use x="63.623047" xlink:href="#DejaVuSans-50"/>
     <use x="127.246094" xlink:href="#DejaVuSans-55"/>
    </g>
   </g>
  </g>
 </g>
 <defs>
  <clipPath id="p10948d70e6">
   <rect height="219.3" width="329.643847" x="88.6475" y="31.43625"/>
  </clipPath>
  <clipPath id="pb468dcee64">
   <rect height="219.3" width="329.643847" x="457.159987" y="31.43625"/>
  </clipPath>
  <clipPath id="p70a31e2b8a">
   <rect height="219.3" width="329.643847" x="825.672473" y="31.43625"/>
  </clipPath>
 </defs>
</svg>
