<?xml version="1.0" encoding="utf-8" standalone="no"?>
<!DOCTYPE svg PUBLIC "-//W3C//DTD SVG 1.1//EN"
  "http://www.w3.org/Graphics/SVG/1.1/DTD/svg11.dtd">
<svg xmlns:xlink="http://www.w3.org/1999/xlink" width="1629.70917pt" height="329.46pt" viewBox="0 0 1629.70917 329.46" xmlns="http://www.w3.org/2000/svg" version="1.1">
 <metadata>
  <rdf:RDF xmlns:dc="http://purl.org/dc/elements/1.1/" xmlns:cc="http://creativecommons.org/ns#" xmlns:rdf="http://www.w3.org/1999/02/22-rdf-syntax-ns#">
   <cc:Work>
    <dc:type rdf:resource="http://purl.org/dc/dcmitype/StillImage"/>
    <dc:date>2022-04-16T11:57:45.059153</dc:date>
    <dc:format>image/svg+xml</dc:format>
    <dc:creator>
     <cc:Agent>
      <dc:title>Matplotlib v3.5.1, https://matplotlib.org/</dc:title>
     </cc:Agent>
    </dc:creator>
   </cc:Work>
  </rdf:RDF>
 </metadata>
 <defs>
  <style type="text/css">*{stroke-linejoin: round; stroke-linecap: butt}</style>
 </defs>
 <g id="figure_1">
  <g id="patch_1">
   <path d="M 0 329.46 
L 1629.70917 329.46 
L 1629.70917 0 
L 0 0 
z
" style="fill: #ffffff"/>
  </g>
  <g id="axes_1">
   <g id="patch_2">
    <path d="M 73.116875 253.47 
L 373.931064 253.47 
L 373.931064 30.67125 
L 73.116875 30.67125 
z
" style="fill: #ffffff"/>
   </g>
   <g id="matplotlib.axis_1">
    <g id="xtick_1">
     <g id="line2d_1">
      <defs>
       <path id="m0873623d12" d="M 0 0 
L 0 12 
" style="stroke: #262626; stroke-width: 2.5"/>
      </defs>
      <g>
       <use xlink:href="#m0873623d12" x="73.116875" y="253.47" style="fill: #262626; stroke: #262626; stroke-width: 2.5"/>
      </g>
     </g>
     <g id="text_1">
      <!-- $\mathdefault{10^{-1}}$ -->
      <g style="fill: #262626" transform="translate(51.336875 291.6575)scale(0.22 -0.22)">
       <defs>
        <path id="ArialMT-31" d="M 2384 0 
L 1822 0 
L 1822 3584 
Q 1619 3391 1289 3197 
Q 959 3003 697 2906 
L 697 3450 
Q 1169 3672 1522 3987 
Q 1875 4303 2022 4600 
L 2384 4600 
L 2384 0 
z
" transform="scale(0.015625)"/>
        <path id="ArialMT-30" d="M 266 2259 
Q 266 3072 433 3567 
Q 600 4063 929 4331 
Q 1259 4600 1759 4600 
Q 2128 4600 2406 4451 
Q 2684 4303 2865 4023 
Q 3047 3744 3150 3342 
Q 3253 2941 3253 2259 
Q 3253 1453 3087 958 
Q 2922 463 2592 192 
Q 2263 -78 1759 -78 
Q 1097 -78 719 397 
Q 266 969 266 2259 
z
M 844 2259 
Q 844 1131 1108 757 
Q 1372 384 1759 384 
Q 2147 384 2411 759 
Q 2675 1134 2675 2259 
Q 2675 3391 2411 3762 
Q 2147 4134 1753 4134 
Q 1366 4134 1134 3806 
Q 844 3388 844 2259 
z
" transform="scale(0.015625)"/>
        <path id="ArialMT-2212" d="M 3381 1997 
L 356 1997 
L 356 2522 
L 3381 2522 
L 3381 1997 
z
" transform="scale(0.015625)"/>
       </defs>
       <use xlink:href="#ArialMT-31" transform="translate(0 0.99375)"/>
       <use xlink:href="#ArialMT-30" transform="translate(55.615234 0.99375)"/>
       <use xlink:href="#ArialMT-2212" transform="translate(112.972813 70.6875)scale(0.7)"/>
       <use xlink:href="#ArialMT-31" transform="translate(153.851719 70.6875)scale(0.7)"/>
      </g>
     </g>
    </g>
    <g id="xtick_2">
     <g id="line2d_2">
      <g>
       <use xlink:href="#m0873623d12" x="223.52397" y="253.47" style="fill: #262626; stroke: #262626; stroke-width: 2.5"/>
      </g>
     </g>
     <g id="text_2">
      <!-- $\mathdefault{10^{0}}$ -->
      <g style="fill: #262626" transform="translate(206.25397 291.6575)scale(0.22 -0.22)">
       <use xlink:href="#ArialMT-31" transform="translate(0 0.99375)"/>
       <use xlink:href="#ArialMT-30" transform="translate(55.615234 0.99375)"/>
       <use xlink:href="#ArialMT-30" transform="translate(112.972813 70.6875)scale(0.7)"/>
      </g>
     </g>
    </g>
    <g id="xtick_3">
     <g id="line2d_3">
      <g>
       <use xlink:href="#m0873623d12" x="373.931064" y="253.47" style="fill: #262626; stroke: #262626; stroke-width: 2.5"/>
      </g>
     </g>
     <g id="text_3">
      <!-- $\mathdefault{10^{1}}$ -->
      <g style="fill: #262626" transform="translate(356.661064 291.6575)scale(0.22 -0.22)">
       <use xlink:href="#ArialMT-31" transform="translate(0 0.99375)"/>
       <use xlink:href="#ArialMT-30" transform="translate(55.615234 0.99375)"/>
       <use xlink:href="#ArialMT-31" transform="translate(112.972813 70.6875)scale(0.7)"/>
      </g>
     </g>
    </g>
    <g id="xtick_4">
     <g id="line2d_4">
      <defs>
       <path id="m48681a669f" d="M 0 0 
L 0 8 
" style="stroke: #262626; stroke-width: 2"/>
      </defs>
      <g>
       <use xlink:href="#m48681a669f" x="118.393922" y="253.47" style="fill: #262626; stroke: #262626; stroke-width: 2"/>
      </g>
     </g>
    </g>
    <g id="xtick_5">
     <g id="line2d_5">
      <g>
       <use xlink:href="#m48681a669f" x="144.879297" y="253.47" style="fill: #262626; stroke: #262626; stroke-width: 2"/>
      </g>
     </g>
    </g>
    <g id="xtick_6">
     <g id="line2d_6">
      <g>
       <use xlink:href="#m48681a669f" x="163.670969" y="253.47" style="fill: #262626; stroke: #262626; stroke-width: 2"/>
      </g>
     </g>
    </g>
    <g id="xtick_7">
     <g id="line2d_7">
      <g>
       <use xlink:href="#m48681a669f" x="178.246923" y="253.47" style="fill: #262626; stroke: #262626; stroke-width: 2"/>
      </g>
     </g>
    </g>
    <g id="xtick_8">
     <g id="line2d_8">
      <g>
       <use xlink:href="#m48681a669f" x="190.156344" y="253.47" style="fill: #262626; stroke: #262626; stroke-width: 2"/>
      </g>
     </g>
    </g>
    <g id="xtick_9">
     <g id="line2d_9">
      <g>
       <use xlink:href="#m48681a669f" x="200.225616" y="253.47" style="fill: #262626; stroke: #262626; stroke-width: 2"/>
      </g>
     </g>
    </g>
    <g id="xtick_10">
     <g id="line2d_10">
      <g>
       <use xlink:href="#m48681a669f" x="208.948016" y="253.47" style="fill: #262626; stroke: #262626; stroke-width: 2"/>
      </g>
     </g>
    </g>
    <g id="xtick_11">
     <g id="line2d_11">
      <g>
       <use xlink:href="#m48681a669f" x="216.641718" y="253.47" style="fill: #262626; stroke: #262626; stroke-width: 2"/>
      </g>
     </g>
    </g>
    <g id="xtick_12">
     <g id="line2d_12">
      <g>
       <use xlink:href="#m48681a669f" x="268.801017" y="253.47" style="fill: #262626; stroke: #262626; stroke-width: 2"/>
      </g>
     </g>
    </g>
    <g id="xtick_13">
     <g id="line2d_13">
      <g>
       <use xlink:href="#m48681a669f" x="295.286391" y="253.47" style="fill: #262626; stroke: #262626; stroke-width: 2"/>
      </g>
     </g>
    </g>
    <g id="xtick_14">
     <g id="line2d_14">
      <g>
       <use xlink:href="#m48681a669f" x="314.078064" y="253.47" style="fill: #262626; stroke: #262626; stroke-width: 2"/>
      </g>
     </g>
    </g>
    <g id="xtick_15">
     <g id="line2d_15">
      <g>
       <use xlink:href="#m48681a669f" x="328.654017" y="253.47" style="fill: #262626; stroke: #262626; stroke-width: 2"/>
      </g>
     </g>
    </g>
    <g id="xtick_16">
     <g id="line2d_16">
      <g>
       <use xlink:href="#m48681a669f" x="340.563438" y="253.47" style="fill: #262626; stroke: #262626; stroke-width: 2"/>
      </g>
     </g>
    </g>
    <g id="xtick_17">
     <g id="line2d_17">
      <g>
       <use xlink:href="#m48681a669f" x="350.63271" y="253.47" style="fill: #262626; stroke: #262626; stroke-width: 2"/>
      </g>
     </g>
    </g>
    <g id="xtick_18">
     <g id="line2d_18">
      <g>
       <use xlink:href="#m48681a669f" x="359.355111" y="253.47" style="fill: #262626; stroke: #262626; stroke-width: 2"/>
      </g>
     </g>
    </g>
    <g id="xtick_19">
     <g id="line2d_19">
      <g>
       <use xlink:href="#m48681a669f" x="367.048813" y="253.47" style="fill: #262626; stroke: #262626; stroke-width: 2"/>
      </g>
     </g>
    </g>
    <g id="text_4">
     <!-- divisions per day -->
     <g style="fill: #262626" transform="translate(134.15022 317.20875)scale(0.24 -0.24)">
      <defs>
       <path id="ArialMT-64" d="M 2575 0 
L 2575 419 
Q 2259 -75 1647 -75 
Q 1250 -75 917 144 
Q 584 363 401 755 
Q 219 1147 219 1656 
Q 219 2153 384 2558 
Q 550 2963 881 3178 
Q 1213 3394 1622 3394 
Q 1922 3394 2156 3267 
Q 2391 3141 2538 2938 
L 2538 4581 
L 3097 4581 
L 3097 0 
L 2575 0 
z
M 797 1656 
Q 797 1019 1065 703 
Q 1334 388 1700 388 
Q 2069 388 2326 689 
Q 2584 991 2584 1609 
Q 2584 2291 2321 2609 
Q 2059 2928 1675 2928 
Q 1300 2928 1048 2622 
Q 797 2316 797 1656 
z
" transform="scale(0.015625)"/>
       <path id="ArialMT-69" d="M 425 3934 
L 425 4581 
L 988 4581 
L 988 3934 
L 425 3934 
z
M 425 0 
L 425 3319 
L 988 3319 
L 988 0 
L 425 0 
z
" transform="scale(0.015625)"/>
       <path id="ArialMT-76" d="M 1344 0 
L 81 3319 
L 675 3319 
L 1388 1331 
Q 1503 1009 1600 663 
Q 1675 925 1809 1294 
L 2547 3319 
L 3125 3319 
L 1869 0 
L 1344 0 
z
" transform="scale(0.015625)"/>
       <path id="ArialMT-73" d="M 197 991 
L 753 1078 
Q 800 744 1014 566 
Q 1228 388 1613 388 
Q 2000 388 2187 545 
Q 2375 703 2375 916 
Q 2375 1106 2209 1216 
Q 2094 1291 1634 1406 
Q 1016 1563 777 1677 
Q 538 1791 414 1992 
Q 291 2194 291 2438 
Q 291 2659 392 2848 
Q 494 3038 669 3163 
Q 800 3259 1026 3326 
Q 1253 3394 1513 3394 
Q 1903 3394 2198 3281 
Q 2494 3169 2634 2976 
Q 2775 2784 2828 2463 
L 2278 2388 
Q 2241 2644 2061 2787 
Q 1881 2931 1553 2931 
Q 1166 2931 1000 2803 
Q 834 2675 834 2503 
Q 834 2394 903 2306 
Q 972 2216 1119 2156 
Q 1203 2125 1616 2013 
Q 2213 1853 2448 1751 
Q 2684 1650 2818 1456 
Q 2953 1263 2953 975 
Q 2953 694 2789 445 
Q 2625 197 2315 61 
Q 2006 -75 1616 -75 
Q 969 -75 630 194 
Q 291 463 197 991 
z
" transform="scale(0.015625)"/>
       <path id="ArialMT-6f" d="M 213 1659 
Q 213 2581 725 3025 
Q 1153 3394 1769 3394 
Q 2453 3394 2887 2945 
Q 3322 2497 3322 1706 
Q 3322 1066 3130 698 
Q 2938 331 2570 128 
Q 2203 -75 1769 -75 
Q 1072 -75 642 372 
Q 213 819 213 1659 
z
M 791 1659 
Q 791 1022 1069 705 
Q 1347 388 1769 388 
Q 2188 388 2466 706 
Q 2744 1025 2744 1678 
Q 2744 2294 2464 2611 
Q 2184 2928 1769 2928 
Q 1347 2928 1069 2612 
Q 791 2297 791 1659 
z
" transform="scale(0.015625)"/>
       <path id="ArialMT-6e" d="M 422 0 
L 422 3319 
L 928 3319 
L 928 2847 
Q 1294 3394 1984 3394 
Q 2284 3394 2536 3286 
Q 2788 3178 2913 3003 
Q 3038 2828 3088 2588 
Q 3119 2431 3119 2041 
L 3119 0 
L 2556 0 
L 2556 2019 
Q 2556 2363 2490 2533 
Q 2425 2703 2258 2804 
Q 2091 2906 1866 2906 
Q 1506 2906 1245 2678 
Q 984 2450 984 1813 
L 984 0 
L 422 0 
z
" transform="scale(0.015625)"/>
       <path id="ArialMT-20" transform="scale(0.015625)"/>
       <path id="ArialMT-70" d="M 422 -1272 
L 422 3319 
L 934 3319 
L 934 2888 
Q 1116 3141 1344 3267 
Q 1572 3394 1897 3394 
Q 2322 3394 2647 3175 
Q 2972 2956 3137 2557 
Q 3303 2159 3303 1684 
Q 3303 1175 3120 767 
Q 2938 359 2589 142 
Q 2241 -75 1856 -75 
Q 1575 -75 1351 44 
Q 1128 163 984 344 
L 984 -1272 
L 422 -1272 
z
M 931 1641 
Q 931 1000 1190 694 
Q 1450 388 1819 388 
Q 2194 388 2461 705 
Q 2728 1022 2728 1688 
Q 2728 2322 2467 2637 
Q 2206 2953 1844 2953 
Q 1484 2953 1207 2617 
Q 931 2281 931 1641 
z
" transform="scale(0.015625)"/>
       <path id="ArialMT-65" d="M 2694 1069 
L 3275 997 
Q 3138 488 2766 206 
Q 2394 -75 1816 -75 
Q 1088 -75 661 373 
Q 234 822 234 1631 
Q 234 2469 665 2931 
Q 1097 3394 1784 3394 
Q 2450 3394 2872 2941 
Q 3294 2488 3294 1666 
Q 3294 1616 3291 1516 
L 816 1516 
Q 847 969 1125 678 
Q 1403 388 1819 388 
Q 2128 388 2347 550 
Q 2566 713 2694 1069 
z
M 847 1978 
L 2700 1978 
Q 2663 2397 2488 2606 
Q 2219 2931 1791 2931 
Q 1403 2931 1139 2672 
Q 875 2413 847 1978 
z
" transform="scale(0.015625)"/>
       <path id="ArialMT-72" d="M 416 0 
L 416 3319 
L 922 3319 
L 922 2816 
Q 1116 3169 1280 3281 
Q 1444 3394 1641 3394 
Q 1925 3394 2219 3213 
L 2025 2691 
Q 1819 2813 1613 2813 
Q 1428 2813 1281 2702 
Q 1134 2591 1072 2394 
Q 978 2094 978 1738 
L 978 0 
L 416 0 
z
" transform="scale(0.015625)"/>
       <path id="ArialMT-61" d="M 2588 409 
Q 2275 144 1986 34 
Q 1697 -75 1366 -75 
Q 819 -75 525 192 
Q 231 459 231 875 
Q 231 1119 342 1320 
Q 453 1522 633 1644 
Q 813 1766 1038 1828 
Q 1203 1872 1538 1913 
Q 2219 1994 2541 2106 
Q 2544 2222 2544 2253 
Q 2544 2597 2384 2738 
Q 2169 2928 1744 2928 
Q 1347 2928 1158 2789 
Q 969 2650 878 2297 
L 328 2372 
Q 403 2725 575 2942 
Q 747 3159 1072 3276 
Q 1397 3394 1825 3394 
Q 2250 3394 2515 3294 
Q 2781 3194 2906 3042 
Q 3031 2891 3081 2659 
Q 3109 2516 3109 2141 
L 3109 1391 
Q 3109 606 3145 398 
Q 3181 191 3288 0 
L 2700 0 
Q 2613 175 2588 409 
z
M 2541 1666 
Q 2234 1541 1622 1453 
Q 1275 1403 1131 1340 
Q 988 1278 909 1158 
Q 831 1038 831 891 
Q 831 666 1001 516 
Q 1172 366 1500 366 
Q 1825 366 2078 508 
Q 2331 650 2450 897 
Q 2541 1088 2541 1459 
L 2541 1666 
z
" transform="scale(0.015625)"/>
       <path id="ArialMT-79" d="M 397 -1278 
L 334 -750 
Q 519 -800 656 -800 
Q 844 -800 956 -737 
Q 1069 -675 1141 -563 
Q 1194 -478 1313 -144 
Q 1328 -97 1363 -6 
L 103 3319 
L 709 3319 
L 1400 1397 
Q 1534 1031 1641 628 
Q 1738 1016 1872 1384 
L 2581 3319 
L 3144 3319 
L 1881 -56 
Q 1678 -603 1566 -809 
Q 1416 -1088 1222 -1217 
Q 1028 -1347 759 -1347 
Q 597 -1347 397 -1278 
z
" transform="scale(0.015625)"/>
      </defs>
      <use xlink:href="#ArialMT-64"/>
      <use xlink:href="#ArialMT-69" x="55.615234"/>
      <use xlink:href="#ArialMT-76" x="77.832031"/>
      <use xlink:href="#ArialMT-69" x="127.832031"/>
      <use xlink:href="#ArialMT-73" x="150.048828"/>
      <use xlink:href="#ArialMT-69" x="200.048828"/>
      <use xlink:href="#ArialMT-6f" x="222.265625"/>
      <use xlink:href="#ArialMT-6e" x="277.880859"/>
      <use xlink:href="#ArialMT-73" x="333.496094"/>
      <use xlink:href="#ArialMT-20" x="383.496094"/>
      <use xlink:href="#ArialMT-70" x="411.279297"/>
      <use xlink:href="#ArialMT-65" x="466.894531"/>
      <use xlink:href="#ArialMT-72" x="522.509766"/>
      <use xlink:href="#ArialMT-20" x="555.810547"/>
      <use xlink:href="#ArialMT-64" x="583.59375"/>
      <use xlink:href="#ArialMT-61" x="639.208984"/>
      <use xlink:href="#ArialMT-79" x="694.824219"/>
     </g>
    </g>
   </g>
   <g id="matplotlib.axis_2">
    <g id="ytick_1">
     <g id="line2d_20">
      <defs>
       <path id="mdadae58d17" d="M 0 0 
L -12 0 
" style="stroke: #262626; stroke-width: 2.5"/>
      </defs>
      <g>
       <use xlink:href="#mdadae58d17" x="73.116875" y="221.641607" style="fill: #262626; stroke: #262626; stroke-width: 2.5"/>
      </g>
     </g>
     <g id="text_5">
      <!-- 0 -->
      <g style="fill: #262626" transform="translate(45.382813 229.515201)scale(0.22 -0.22)">
       <use xlink:href="#ArialMT-30"/>
      </g>
     </g>
    </g>
    <g id="ytick_2">
     <g id="line2d_21">
      <g>
       <use xlink:href="#mdadae58d17" x="73.116875" y="157.984821" style="fill: #262626; stroke: #262626; stroke-width: 2.5"/>
      </g>
     </g>
     <g id="text_6">
      <!-- 10 -->
      <g style="fill: #262626" transform="translate(33.14875 165.858415)scale(0.22 -0.22)">
       <use xlink:href="#ArialMT-31"/>
       <use xlink:href="#ArialMT-30" x="55.615234"/>
      </g>
     </g>
    </g>
    <g id="ytick_3">
     <g id="line2d_22">
      <g>
       <use xlink:href="#mdadae58d17" x="73.116875" y="94.328036" style="fill: #262626; stroke: #262626; stroke-width: 2.5"/>
      </g>
     </g>
     <g id="text_7">
      <!-- 20 -->
      <g style="fill: #262626" transform="translate(33.14875 102.201629)scale(0.22 -0.22)">
       <defs>
        <path id="ArialMT-32" d="M 3222 541 
L 3222 0 
L 194 0 
Q 188 203 259 391 
Q 375 700 629 1000 
Q 884 1300 1366 1694 
Q 2113 2306 2375 2664 
Q 2638 3022 2638 3341 
Q 2638 3675 2398 3904 
Q 2159 4134 1775 4134 
Q 1369 4134 1125 3890 
Q 881 3647 878 3216 
L 300 3275 
Q 359 3922 746 4261 
Q 1134 4600 1788 4600 
Q 2447 4600 2831 4234 
Q 3216 3869 3216 3328 
Q 3216 3053 3103 2787 
Q 2991 2522 2730 2228 
Q 2469 1934 1863 1422 
Q 1356 997 1212 845 
Q 1069 694 975 541 
L 3222 541 
z
" transform="scale(0.015625)"/>
       </defs>
       <use xlink:href="#ArialMT-32"/>
       <use xlink:href="#ArialMT-30" x="55.615234"/>
      </g>
     </g>
    </g>
    <g id="ytick_4">
     <g id="line2d_23">
      <g>
       <use xlink:href="#mdadae58d17" x="73.116875" y="30.67125" style="fill: #262626; stroke: #262626; stroke-width: 2.5"/>
      </g>
     </g>
     <g id="text_8">
      <!-- 30 -->
      <g style="fill: #262626" transform="translate(33.14875 38.544844)scale(0.22 -0.22)">
       <defs>
        <path id="ArialMT-33" d="M 269 1209 
L 831 1284 
Q 928 806 1161 595 
Q 1394 384 1728 384 
Q 2125 384 2398 659 
Q 2672 934 2672 1341 
Q 2672 1728 2419 1979 
Q 2166 2231 1775 2231 
Q 1616 2231 1378 2169 
L 1441 2663 
Q 1497 2656 1531 2656 
Q 1891 2656 2178 2843 
Q 2466 3031 2466 3422 
Q 2466 3731 2256 3934 
Q 2047 4138 1716 4138 
Q 1388 4138 1169 3931 
Q 950 3725 888 3313 
L 325 3413 
Q 428 3978 793 4289 
Q 1159 4600 1703 4600 
Q 2078 4600 2393 4439 
Q 2709 4278 2876 4000 
Q 3044 3722 3044 3409 
Q 3044 3113 2884 2869 
Q 2725 2625 2413 2481 
Q 2819 2388 3044 2092 
Q 3269 1797 3269 1353 
Q 3269 753 2831 336 
Q 2394 -81 1725 -81 
Q 1122 -81 723 278 
Q 325 638 269 1209 
z
" transform="scale(0.015625)"/>
       </defs>
       <use xlink:href="#ArialMT-33"/>
       <use xlink:href="#ArialMT-30" x="55.615234"/>
      </g>
     </g>
    </g>
    <g id="text_9">
     <!-- effect size -->
     <g style="fill: #262626" transform="translate(24.37875 195.88125)rotate(-90)scale(0.24 -0.24)">
      <defs>
       <path id="ArialMT-66" d="M 556 0 
L 556 2881 
L 59 2881 
L 59 3319 
L 556 3319 
L 556 3672 
Q 556 4006 616 4169 
Q 697 4388 901 4523 
Q 1106 4659 1475 4659 
Q 1713 4659 2000 4603 
L 1916 4113 
Q 1741 4144 1584 4144 
Q 1328 4144 1222 4034 
Q 1116 3925 1116 3625 
L 1116 3319 
L 1763 3319 
L 1763 2881 
L 1116 2881 
L 1116 0 
L 556 0 
z
" transform="scale(0.015625)"/>
       <path id="ArialMT-63" d="M 2588 1216 
L 3141 1144 
Q 3050 572 2676 248 
Q 2303 -75 1759 -75 
Q 1078 -75 664 370 
Q 250 816 250 1647 
Q 250 2184 428 2587 
Q 606 2991 970 3192 
Q 1334 3394 1763 3394 
Q 2303 3394 2647 3120 
Q 2991 2847 3088 2344 
L 2541 2259 
Q 2463 2594 2264 2762 
Q 2066 2931 1784 2931 
Q 1359 2931 1093 2626 
Q 828 2322 828 1663 
Q 828 994 1084 691 
Q 1341 388 1753 388 
Q 2084 388 2306 591 
Q 2528 794 2588 1216 
z
" transform="scale(0.015625)"/>
       <path id="ArialMT-74" d="M 1650 503 
L 1731 6 
Q 1494 -44 1306 -44 
Q 1000 -44 831 53 
Q 663 150 594 308 
Q 525 466 525 972 
L 525 2881 
L 113 2881 
L 113 3319 
L 525 3319 
L 525 4141 
L 1084 4478 
L 1084 3319 
L 1650 3319 
L 1650 2881 
L 1084 2881 
L 1084 941 
Q 1084 700 1114 631 
Q 1144 563 1211 522 
Q 1278 481 1403 481 
Q 1497 481 1650 503 
z
" transform="scale(0.015625)"/>
       <path id="ArialMT-7a" d="M 125 0 
L 125 456 
L 2238 2881 
Q 1878 2863 1603 2863 
L 250 2863 
L 250 3319 
L 2963 3319 
L 2963 2947 
L 1166 841 
L 819 456 
Q 1197 484 1528 484 
L 3063 484 
L 3063 0 
L 125 0 
z
" transform="scale(0.015625)"/>
      </defs>
      <use xlink:href="#ArialMT-65"/>
      <use xlink:href="#ArialMT-66" x="55.615234"/>
      <use xlink:href="#ArialMT-66" x="81.648438"/>
      <use xlink:href="#ArialMT-65" x="109.431641"/>
      <use xlink:href="#ArialMT-63" x="165.046875"/>
      <use xlink:href="#ArialMT-74" x="215.046875"/>
      <use xlink:href="#ArialMT-20" x="242.830078"/>
      <use xlink:href="#ArialMT-73" x="270.613281"/>
      <use xlink:href="#ArialMT-69" x="320.613281"/>
      <use xlink:href="#ArialMT-7a" x="342.830078"/>
      <use xlink:href="#ArialMT-65" x="392.830078"/>
     </g>
    </g>
   </g>
   <g id="line2d_24">
    <path d="M 73.116875 221.641607 
L 83.489778 221.501993 
L 93.862681 221.339559 
L 104.235584 221.15065 
L 114.608487 220.930878 
L 122.900603 220.729346 
L 124.220264 220.694904 
L 124.98139 220.674724 
L 125.513791 220.66047 
L 126.782199 220.626041 
L 128.026446 220.591613 
L 129.247434 220.557182 
L 130.446017 220.522744 
L 131.623004 220.488296 
L 132.779157 220.453833 
L 133.915203 220.419351 
L 135.031828 220.384847 
L 135.354293 220.374767 
L 136.129685 220.350315 
L 137.209395 220.315751 
L 138.271548 220.281151 
L 139.316706 220.24651 
L 140.345404 220.211823 
L 141.358152 220.177085 
L 142.355439 220.142292 
L 143.337727 220.107438 
L 144.305463 220.072518 
L 145.259071 220.037527 
L 145.727196 220.020133 
L 146.198957 220.002458 
L 147.125511 219.967307 
L 148.039106 219.932068 
L 148.940099 219.896733 
L 149.828834 219.861299 
L 150.705638 219.825757 
L 151.57083 219.790101 
" clip-path="url(#p377d142063)" style="fill: none; stroke: #4c72b0; stroke-width: 5; stroke-linecap: round"/>
   </g>
   <g id="line2d_25">
    <path d="M 73.116875 221.641607 
L 83.489778 221.028275 
L 93.862681 220.24734 
L 104.235584 219.249634 
L 114.608487 217.970293 
L 122.900603 216.701029 
L 124.220264 216.475007 
L 124.98139 216.341394 
L 125.513791 216.246487 
L 126.782199 216.015476 
L 128.026446 215.781978 
L 129.247434 215.545995 
L 130.446017 215.309534 
L 131.623004 215.06853 
L 132.779157 214.825941 
L 133.915203 214.580998 
L 135.031828 214.328639 
L 135.354293 214.255548 
L 136.129685 214.077423 
L 137.209395 213.823704 
L 138.271548 213.567488 
L 139.316706 213.308263 
L 140.345404 213.045139 
L 141.358152 212.779145 
L 142.355439 212.510213 
L 143.337727 212.240543 
L 144.305463 211.970412 
L 145.259071 211.697426 
L 145.727196 211.560912 
L 146.198957 211.421651 
L 147.125511 211.141262 
L 148.039106 210.858282 
L 148.940099 210.57282 
L 149.828834 210.284884 
L 150.705638 209.994483 
L 151.57083 209.701627 
" clip-path="url(#p377d142063)" style="fill: none; stroke: #dd8452; stroke-width: 5; stroke-linecap: round"/>
   </g>
   <g id="line2d_26">
    <path d="M 73.116875 221.641607 
L 83.489778 221.64143 
L 93.862681 221.640978 
L 104.235584 221.639853 
L 114.608487 221.63714 
L 122.900603 221.632523 
L 124.220264 221.631461 
L 124.98139 221.630796 
L 125.513791 221.630307 
L 126.782199 221.629054 
L 128.026446 221.627697 
L 129.247434 221.62623 
L 130.446017 221.624647 
L 131.623004 221.622942 
L 132.779157 221.621108 
L 133.915203 221.619138 
L 135.031828 221.617025 
L 135.354293 221.61638 
L 136.129685 221.614762 
L 137.209395 221.612341 
L 138.271548 221.609754 
L 139.316706 221.606993 
L 140.345404 221.604049 
L 141.358152 221.600914 
L 142.355439 221.597577 
L 143.337727 221.594029 
L 144.305463 221.59026 
L 145.259071 221.586257 
L 145.727196 221.584181 
L 146.198957 221.58201 
L 147.125511 221.577506 
L 148.039106 221.572733 
L 148.940099 221.567675 
L 149.828834 221.562318 
L 150.705638 221.556647 
L 151.57083 221.550643 
" clip-path="url(#p377d142063)" style="fill: none; stroke: #55a868; stroke-width: 5; stroke-linecap: round"/>
   </g>
   <g id="line2d_27"/>
   <g id="line2d_28"/>
   <g id="line2d_29"/>
   <g id="patch_3">
    <path d="M 73.116875 253.47 
L 73.116875 30.67125 
" style="fill: none; stroke: #262626; stroke-width: 2.5; stroke-linejoin: miter; stroke-linecap: square"/>
   </g>
   <g id="patch_4">
    <path d="M 373.931064 253.47 
L 373.931064 30.67125 
" style="fill: none; stroke: #262626; stroke-width: 2.5; stroke-linejoin: miter; stroke-linecap: square"/>
   </g>
   <g id="patch_5">
    <path d="M 73.116875 253.47 
L 373.931064 253.47 
" style="fill: none; stroke: #262626; stroke-width: 2.5; stroke-linejoin: miter; stroke-linecap: square"/>
   </g>
   <g id="patch_6">
    <path d="M 73.116875 30.67125 
L 373.931064 30.67125 
" style="fill: none; stroke: #262626; stroke-width: 2.5; stroke-linejoin: miter; stroke-linecap: square"/>
   </g>
   <g id="text_10">
    <!-- Null -->
    <g style="fill: #262626" transform="translate(202.852095 24.67125)scale(0.24 -0.24)">
     <defs>
      <path id="ArialMT-4e" d="M 488 0 
L 488 4581 
L 1109 4581 
L 3516 984 
L 3516 4581 
L 4097 4581 
L 4097 0 
L 3475 0 
L 1069 3600 
L 1069 0 
L 488 0 
z
" transform="scale(0.015625)"/>
      <path id="ArialMT-75" d="M 2597 0 
L 2597 488 
Q 2209 -75 1544 -75 
Q 1250 -75 995 37 
Q 741 150 617 320 
Q 494 491 444 738 
Q 409 903 409 1263 
L 409 3319 
L 972 3319 
L 972 1478 
Q 972 1038 1006 884 
Q 1059 663 1231 536 
Q 1403 409 1656 409 
Q 1909 409 2131 539 
Q 2353 669 2445 892 
Q 2538 1116 2538 1541 
L 2538 3319 
L 3100 3319 
L 3100 0 
L 2597 0 
z
" transform="scale(0.015625)"/>
      <path id="ArialMT-6c" d="M 409 0 
L 409 4581 
L 972 4581 
L 972 0 
L 409 0 
z
" transform="scale(0.015625)"/>
     </defs>
     <use xlink:href="#ArialMT-4e"/>
     <use xlink:href="#ArialMT-75" x="72.216797"/>
     <use xlink:href="#ArialMT-6c" x="127.832031"/>
     <use xlink:href="#ArialMT-6c" x="150.048828"/>
    </g>
   </g>
   <g id="line2d_30">
    <path d="M 274.172889 253.47 
L 274.172889 30.67125 
" clip-path="url(#p377d142063)" style="fill: none; stroke-dasharray: 7.4,3.2; stroke-dashoffset: 0; stroke: #1a1a1a; stroke-width: 2"/>
   </g>
  </g>
  <g id="axes_2">
   <g id="patch_7">
    <path d="M 411.699044 253.47 
L 712.513233 253.47 
L 712.513233 30.67125 
L 411.699044 30.67125 
z
" style="fill: #ffffff"/>
   </g>
   <g id="matplotlib.axis_3">
    <g id="xtick_20">
     <g id="line2d_31">
      <g>
       <use xlink:href="#m0873623d12" x="411.699044" y="253.47" style="fill: #262626; stroke: #262626; stroke-width: 2.5"/>
      </g>
     </g>
     <g id="text_11">
      <!-- $\mathdefault{10^{-1}}$ -->
      <g style="fill: #262626" transform="translate(389.919044 291.6575)scale(0.22 -0.22)">
       <use xlink:href="#ArialMT-31" transform="translate(0 0.99375)"/>
       <use xlink:href="#ArialMT-30" transform="translate(55.615234 0.99375)"/>
       <use xlink:href="#ArialMT-2212" transform="translate(112.972813 70.6875)scale(0.7)"/>
       <use xlink:href="#ArialMT-31" transform="translate(153.851719 70.6875)scale(0.7)"/>
      </g>
     </g>
    </g>
    <g id="xtick_21">
     <g id="line2d_32">
      <g>
       <use xlink:href="#m0873623d12" x="562.106138" y="253.47" style="fill: #262626; stroke: #262626; stroke-width: 2.5"/>
      </g>
     </g>
     <g id="text_12">
      <!-- $\mathdefault{10^{0}}$ -->
      <g style="fill: #262626" transform="translate(544.836138 291.6575)scale(0.22 -0.22)">
       <use xlink:href="#ArialMT-31" transform="translate(0 0.99375)"/>
       <use xlink:href="#ArialMT-30" transform="translate(55.615234 0.99375)"/>
       <use xlink:href="#ArialMT-30" transform="translate(112.972813 70.6875)scale(0.7)"/>
      </g>
     </g>
    </g>
    <g id="xtick_22">
     <g id="line2d_33">
      <g>
       <use xlink:href="#m0873623d12" x="712.513233" y="253.47" style="fill: #262626; stroke: #262626; stroke-width: 2.5"/>
      </g>
     </g>
     <g id="text_13">
      <!-- $\mathdefault{10^{1}}$ -->
      <g style="fill: #262626" transform="translate(695.243233 291.6575)scale(0.22 -0.22)">
       <use xlink:href="#ArialMT-31" transform="translate(0 0.99375)"/>
       <use xlink:href="#ArialMT-30" transform="translate(55.615234 0.99375)"/>
       <use xlink:href="#ArialMT-31" transform="translate(112.972813 70.6875)scale(0.7)"/>
      </g>
     </g>
    </g>
    <g id="xtick_23">
     <g id="line2d_34">
      <g>
       <use xlink:href="#m48681a669f" x="456.976091" y="253.47" style="fill: #262626; stroke: #262626; stroke-width: 2"/>
      </g>
     </g>
    </g>
    <g id="xtick_24">
     <g id="line2d_35">
      <g>
       <use xlink:href="#m48681a669f" x="483.461465" y="253.47" style="fill: #262626; stroke: #262626; stroke-width: 2"/>
      </g>
     </g>
    </g>
    <g id="xtick_25">
     <g id="line2d_36">
      <g>
       <use xlink:href="#m48681a669f" x="502.253138" y="253.47" style="fill: #262626; stroke: #262626; stroke-width: 2"/>
      </g>
     </g>
    </g>
    <g id="xtick_26">
     <g id="line2d_37">
      <g>
       <use xlink:href="#m48681a669f" x="516.829091" y="253.47" style="fill: #262626; stroke: #262626; stroke-width: 2"/>
      </g>
     </g>
    </g>
    <g id="xtick_27">
     <g id="line2d_38">
      <g>
       <use xlink:href="#m48681a669f" x="528.738512" y="253.47" style="fill: #262626; stroke: #262626; stroke-width: 2"/>
      </g>
     </g>
    </g>
    <g id="xtick_28">
     <g id="line2d_39">
      <g>
       <use xlink:href="#m48681a669f" x="538.807784" y="253.47" style="fill: #262626; stroke: #262626; stroke-width: 2"/>
      </g>
     </g>
    </g>
    <g id="xtick_29">
     <g id="line2d_40">
      <g>
       <use xlink:href="#m48681a669f" x="547.530185" y="253.47" style="fill: #262626; stroke: #262626; stroke-width: 2"/>
      </g>
     </g>
    </g>
    <g id="xtick_30">
     <g id="line2d_41">
      <g>
       <use xlink:href="#m48681a669f" x="555.223887" y="253.47" style="fill: #262626; stroke: #262626; stroke-width: 2"/>
      </g>
     </g>
    </g>
    <g id="xtick_31">
     <g id="line2d_42">
      <g>
       <use xlink:href="#m48681a669f" x="607.383185" y="253.47" style="fill: #262626; stroke: #262626; stroke-width: 2"/>
      </g>
     </g>
    </g>
    <g id="xtick_32">
     <g id="line2d_43">
      <g>
       <use xlink:href="#m48681a669f" x="633.86856" y="253.47" style="fill: #262626; stroke: #262626; stroke-width: 2"/>
      </g>
     </g>
    </g>
    <g id="xtick_33">
     <g id="line2d_44">
      <g>
       <use xlink:href="#m48681a669f" x="652.660232" y="253.47" style="fill: #262626; stroke: #262626; stroke-width: 2"/>
      </g>
     </g>
    </g>
    <g id="xtick_34">
     <g id="line2d_45">
      <g>
       <use xlink:href="#m48681a669f" x="667.236186" y="253.47" style="fill: #262626; stroke: #262626; stroke-width: 2"/>
      </g>
     </g>
    </g>
    <g id="xtick_35">
     <g id="line2d_46">
      <g>
       <use xlink:href="#m48681a669f" x="679.145607" y="253.47" style="fill: #262626; stroke: #262626; stroke-width: 2"/>
      </g>
     </g>
    </g>
    <g id="xtick_36">
     <g id="line2d_47">
      <g>
       <use xlink:href="#m48681a669f" x="689.214879" y="253.47" style="fill: #262626; stroke: #262626; stroke-width: 2"/>
      </g>
     </g>
    </g>
    <g id="xtick_37">
     <g id="line2d_48">
      <g>
       <use xlink:href="#m48681a669f" x="697.937279" y="253.47" style="fill: #262626; stroke: #262626; stroke-width: 2"/>
      </g>
     </g>
    </g>
    <g id="xtick_38">
     <g id="line2d_49">
      <g>
       <use xlink:href="#m48681a669f" x="705.630981" y="253.47" style="fill: #262626; stroke: #262626; stroke-width: 2"/>
      </g>
     </g>
    </g>
    <g id="text_14">
     <!-- divisions per day -->
     <g style="fill: #262626" transform="translate(472.732388 317.20875)scale(0.24 -0.24)">
      <use xlink:href="#ArialMT-64"/>
      <use xlink:href="#ArialMT-69" x="55.615234"/>
      <use xlink:href="#ArialMT-76" x="77.832031"/>
      <use xlink:href="#ArialMT-69" x="127.832031"/>
      <use xlink:href="#ArialMT-73" x="150.048828"/>
      <use xlink:href="#ArialMT-69" x="200.048828"/>
      <use xlink:href="#ArialMT-6f" x="222.265625"/>
      <use xlink:href="#ArialMT-6e" x="277.880859"/>
      <use xlink:href="#ArialMT-73" x="333.496094"/>
      <use xlink:href="#ArialMT-20" x="383.496094"/>
      <use xlink:href="#ArialMT-70" x="411.279297"/>
      <use xlink:href="#ArialMT-65" x="466.894531"/>
      <use xlink:href="#ArialMT-72" x="522.509766"/>
      <use xlink:href="#ArialMT-20" x="555.810547"/>
      <use xlink:href="#ArialMT-64" x="583.59375"/>
      <use xlink:href="#ArialMT-61" x="639.208984"/>
      <use xlink:href="#ArialMT-79" x="694.824219"/>
     </g>
    </g>
   </g>
   <g id="matplotlib.axis_4">
    <g id="ytick_5">
     <g id="line2d_50">
      <g>
       <use xlink:href="#mdadae58d17" x="411.699044" y="221.641607" style="fill: #262626; stroke: #262626; stroke-width: 2.5"/>
      </g>
     </g>
    </g>
    <g id="ytick_6">
     <g id="line2d_51">
      <g>
       <use xlink:href="#mdadae58d17" x="411.699044" y="157.984821" style="fill: #262626; stroke: #262626; stroke-width: 2.5"/>
      </g>
     </g>
    </g>
    <g id="ytick_7">
     <g id="line2d_52">
      <g>
       <use xlink:href="#mdadae58d17" x="411.699044" y="94.328036" style="fill: #262626; stroke: #262626; stroke-width: 2.5"/>
      </g>
     </g>
    </g>
    <g id="ytick_8">
     <g id="line2d_53">
      <g>
       <use xlink:href="#mdadae58d17" x="411.699044" y="30.67125" style="fill: #262626; stroke: #262626; stroke-width: 2.5"/>
      </g>
     </g>
    </g>
   </g>
   <g id="line2d_54">
    <path d="M 411.699044 221.641607 
L 422.071947 221.501993 
L 432.44485 221.339559 
L 442.817753 221.15065 
L 453.190656 220.930878 
L 461.482772 220.729346 
L 462.802432 220.694904 
L 463.563559 220.674724 
L 464.095959 220.66047 
L 465.364368 220.626041 
L 466.608614 220.591613 
L 467.829602 220.557182 
L 469.028186 220.522744 
L 470.205172 220.488296 
L 471.361326 220.453833 
L 472.497371 220.419351 
L 473.613996 220.384847 
L 473.936462 220.374767 
L 474.711854 220.350315 
L 475.791564 220.315751 
L 476.853717 220.281151 
L 477.898875 220.24651 
L 478.927573 220.211823 
L 479.940321 220.177085 
L 480.937607 220.142292 
L 481.919896 220.107438 
L 482.887632 220.072518 
L 483.841239 220.037527 
L 484.309365 220.020133 
L 484.781126 220.002458 
L 485.70768 219.967307 
L 486.621275 219.932068 
L 487.522268 219.896733 
L 488.411002 219.861299 
L 489.287807 219.825757 
L 493.503526 157.127406 
L 494.314977 157.128054 
L 494.682268 157.132165 
L 495.116471 157.132167 
L 495.908251 157.12813 
L 496.690547 157.127237 
L 497.463585 157.141809 
L 498.227582 157.140728 
L 498.982746 157.151965 
L 499.72928 157.09565 
L 500.467377 157.154045 
L 501.197228 157.115688 
L 501.919014 157.11355 
L 502.632912 157.124334 
L 503.339091 157.103176 
L 504.037718 157.126255 
L 504.728952 157.101624 
L 505.055171 157.104639 
L 505.412947 157.122065 
L 506.089854 157.137362 
L 506.759819 157.138748 
L 515.428074 157.183473 
L 525.800977 157.148836 
L 536.17388 157.173837 
L 546.546784 157.151915 
L 556.919687 157.181074 
L 567.29259 157.145628 
L 577.665493 157.231362 
L 588.038396 157.704423 
L 598.411299 157.288449 
L 608.784202 157.804304 
L 619.157105 157.475472 
L 629.530008 158.011294 
L 639.902911 157.276845 
L 650.275814 158.165867 
L 660.648717 157.145808 
L 671.02162 158.860461 
L 681.394523 157.763455 
L 691.767427 157.67757 
L 702.14033 158.433252 
L 712.513233 158.912747 
" clip-path="url(#p939361f3a5)" style="fill: none; stroke: #4c72b0; stroke-width: 5; stroke-linecap: round"/>
   </g>
   <g id="line2d_55">
    <path d="M 411.699044 221.641607 
L 422.071947 220.908518 
L 432.44485 219.941214 
L 442.817753 218.647709 
L 453.190656 216.868656 
L 461.482772 214.894112 
L 462.802432 214.514337 
L 463.563559 214.285063 
L 464.095959 214.119942 
L 465.364368 213.709739 
L 466.608614 213.282383 
L 467.829602 212.836338 
L 469.028186 212.369861 
L 470.205172 211.880889 
L 471.361326 211.367085 
L 472.497371 210.825692 
L 473.613996 210.253452 
L 473.936462 210.080016 
L 474.711854 209.646515 
L 475.791564 209.000211 
L 476.853717 208.308869 
L 477.898875 207.565482 
L 478.927573 206.761261 
L 479.940321 205.884969 
L 480.937607 204.921928 
L 481.919896 203.852446 
L 482.887632 202.649275 
L 483.841239 201.273245 
L 484.309365 200.509095 
L 484.781126 199.665509 
L 485.70768 197.733426 
L 486.621275 195.325456 
L 487.522268 192.192829 
L 488.411002 187.957477 
L 489.287807 182.164346 
L 493.503526 134.420418 
L 494.314977 136.084643 
L 494.682268 136.746951 
L 495.116471 137.464392 
L 495.908251 138.629249 
L 496.690547 139.64159 
L 497.463585 140.54659 
L 498.227582 141.340216 
L 498.982746 142.06657 
L 499.72928 142.708009 
L 500.467377 143.308172 
L 501.197228 143.865843 
L 501.919014 144.367008 
L 502.632912 144.844795 
L 503.339091 145.258638 
L 504.037718 145.688399 
L 504.728952 146.045101 
L 505.055171 146.221385 
L 505.412947 146.424196 
L 506.089854 146.777648 
L 506.759819 147.0986 
L 515.428074 150.31199 
L 525.800977 152.698119 
L 536.17388 154.378232 
L 546.546784 155.564151 
L 556.919687 156.504505 
L 567.29259 157.162211 
L 577.665493 157.818649 
L 588.038396 158.776976 
L 598.411299 158.734732 
L 608.784202 159.557261 
L 619.157105 159.481822 
L 629.530008 160.227638 
L 639.902911 159.66535 
L 650.275814 160.705488 
L 660.648717 159.802811 
L 671.02162 161.628285 
L 681.394523 160.616031 
L 691.767427 160.60348 
L 702.14033 161.418822 
L 712.513233 161.942133 
" clip-path="url(#p939361f3a5)" style="fill: none; stroke: #dd8452; stroke-width: 5; stroke-linecap: round"/>
   </g>
   <g id="line2d_56">
    <path d="M 411.699044 219.594796 
L 422.071947 219.594619 
L 432.44485 219.594167 
L 442.817753 219.593043 
L 453.190656 219.59033 
L 461.482772 219.585712 
L 462.802432 219.584651 
L 463.563559 219.583986 
L 464.095959 219.583496 
L 465.364368 219.582243 
L 466.608614 219.580886 
L 467.829602 219.579419 
L 469.028186 219.577837 
L 470.205172 219.576131 
L 471.361326 219.574297 
L 472.497371 219.572327 
L 473.613996 219.570214 
L 473.936462 219.569569 
L 474.711854 219.567951 
L 475.791564 219.56553 
L 476.853717 219.562943 
L 477.898875 219.560182 
L 478.927573 219.557239 
L 479.940321 219.554103 
L 480.937607 219.550766 
L 481.919896 219.547218 
L 482.887632 219.543449 
L 483.841239 219.539446 
L 484.309365 219.53737 
L 484.781126 219.535199 
L 485.70768 219.530696 
L 486.621275 219.525922 
L 487.522268 219.520864 
L 488.411002 219.515507 
L 489.287807 219.509836 
L 493.503526 171.992234 
L 494.314977 173.767186 
L 494.682268 174.476426 
L 495.116471 175.253488 
L 495.908251 176.530466 
L 496.690547 177.650863 
L 497.463585 178.6504 
L 498.227582 179.54951 
L 498.982746 180.36952 
L 499.72928 181.120064 
L 500.467377 181.813369 
L 501.197228 182.461028 
L 501.919014 183.062434 
L 502.632912 183.62827 
L 503.339091 184.15643 
L 504.037718 184.661529 
L 504.728952 185.133399 
L 505.055171 185.351473 
L 505.412947 185.588007 
L 506.089854 186.02037 
L 506.759819 186.431166 
L 515.428074 190.779796 
L 525.800977 194.588666 
L 536.17388 197.62598 
L 546.546784 200.19237 
L 556.919687 202.452017 
L 567.29259 204.465885 
L 577.665493 206.336767 
L 588.038396 208.135841 
L 598.411299 209.678321 
L 608.784202 211.231363 
L 619.157105 212.581152 
L 629.530008 213.937111 
L 639.902911 215.060232 
L 650.275814 216.289029 
L 660.648717 217.22298 
L 671.02162 218.372693 
L 681.394523 219.172884 
L 691.767427 220.013871 
L 702.14033 220.866926 
L 712.513233 221.641607 
" clip-path="url(#p939361f3a5)" style="fill: none; stroke: #55a868; stroke-width: 5; stroke-linecap: round"/>
   </g>
   <g id="patch_8">
    <path d="M 411.699044 253.47 
L 411.699044 30.67125 
" style="fill: none; stroke: #262626; stroke-width: 2.5; stroke-linejoin: miter; stroke-linecap: square"/>
   </g>
   <g id="patch_9">
    <path d="M 712.513233 253.47 
L 712.513233 30.67125 
" style="fill: none; stroke: #262626; stroke-width: 2.5; stroke-linejoin: miter; stroke-linecap: square"/>
   </g>
   <g id="patch_10">
    <path d="M 411.699044 253.47 
L 712.513233 253.47 
" style="fill: none; stroke: #262626; stroke-width: 2.5; stroke-linejoin: miter; stroke-linecap: square"/>
   </g>
   <g id="patch_11">
    <path d="M 411.699044 30.67125 
L 712.513233 30.67125 
" style="fill: none; stroke: #262626; stroke-width: 2.5; stroke-linejoin: miter; stroke-linecap: square"/>
   </g>
   <g id="text_15">
    <!-- Carrying Capacity -->
    <g style="fill: #262626" transform="translate(466.743638 24.67125)scale(0.24 -0.24)">
     <defs>
      <path id="ArialMT-43" d="M 3763 1606 
L 4369 1453 
Q 4178 706 3683 314 
Q 3188 -78 2472 -78 
Q 1731 -78 1267 223 
Q 803 525 561 1097 
Q 319 1669 319 2325 
Q 319 3041 592 3573 
Q 866 4106 1370 4382 
Q 1875 4659 2481 4659 
Q 3169 4659 3637 4309 
Q 4106 3959 4291 3325 
L 3694 3184 
Q 3534 3684 3231 3912 
Q 2928 4141 2469 4141 
Q 1941 4141 1586 3887 
Q 1231 3634 1087 3207 
Q 944 2781 944 2328 
Q 944 1744 1114 1308 
Q 1284 872 1643 656 
Q 2003 441 2422 441 
Q 2931 441 3284 734 
Q 3638 1028 3763 1606 
z
" transform="scale(0.015625)"/>
      <path id="ArialMT-67" d="M 319 -275 
L 866 -356 
Q 900 -609 1056 -725 
Q 1266 -881 1628 -881 
Q 2019 -881 2231 -725 
Q 2444 -569 2519 -288 
Q 2563 -116 2559 434 
Q 2191 0 1641 0 
Q 956 0 581 494 
Q 206 988 206 1678 
Q 206 2153 378 2554 
Q 550 2956 876 3175 
Q 1203 3394 1644 3394 
Q 2231 3394 2613 2919 
L 2613 3319 
L 3131 3319 
L 3131 450 
Q 3131 -325 2973 -648 
Q 2816 -972 2473 -1159 
Q 2131 -1347 1631 -1347 
Q 1038 -1347 672 -1080 
Q 306 -813 319 -275 
z
M 784 1719 
Q 784 1066 1043 766 
Q 1303 466 1694 466 
Q 2081 466 2343 764 
Q 2606 1063 2606 1700 
Q 2606 2309 2336 2618 
Q 2066 2928 1684 2928 
Q 1309 2928 1046 2623 
Q 784 2319 784 1719 
z
" transform="scale(0.015625)"/>
     </defs>
     <use xlink:href="#ArialMT-43"/>
     <use xlink:href="#ArialMT-61" x="72.216797"/>
     <use xlink:href="#ArialMT-72" x="127.832031"/>
     <use xlink:href="#ArialMT-72" x="161.132812"/>
     <use xlink:href="#ArialMT-79" x="194.433594"/>
     <use xlink:href="#ArialMT-69" x="244.433594"/>
     <use xlink:href="#ArialMT-6e" x="266.650391"/>
     <use xlink:href="#ArialMT-67" x="322.265625"/>
     <use xlink:href="#ArialMT-20" x="377.880859"/>
     <use xlink:href="#ArialMT-43" x="405.664062"/>
     <use xlink:href="#ArialMT-61" x="477.880859"/>
     <use xlink:href="#ArialMT-70" x="533.496094"/>
     <use xlink:href="#ArialMT-61" x="589.111328"/>
     <use xlink:href="#ArialMT-63" x="644.726562"/>
     <use xlink:href="#ArialMT-69" x="694.726562"/>
     <use xlink:href="#ArialMT-74" x="716.943359"/>
     <use xlink:href="#ArialMT-79" x="744.726562"/>
    </g>
   </g>
   <g id="line2d_57">
    <path d="M 612.755058 253.47 
L 612.755058 30.67125 
" clip-path="url(#p939361f3a5)" style="fill: none; stroke-dasharray: 7.4,3.2; stroke-dashoffset: 0; stroke: #1a1a1a; stroke-width: 2"/>
   </g>
  </g>
  <g id="axes_3">
   <g id="patch_12">
    <path d="M 750.281212 253.47 
L 1051.095401 253.47 
L 1051.095401 30.67125 
L 750.281212 30.67125 
z
" style="fill: #ffffff"/>
   </g>
   <g id="matplotlib.axis_5">
    <g id="xtick_39">
     <g id="line2d_58">
      <g>
       <use xlink:href="#m0873623d12" x="750.281212" y="253.47" style="fill: #262626; stroke: #262626; stroke-width: 2.5"/>
      </g>
     </g>
     <g id="text_16">
      <!-- $\mathdefault{10^{-1}}$ -->
      <g style="fill: #262626" transform="translate(728.501212 291.6575)scale(0.22 -0.22)">
       <use xlink:href="#ArialMT-31" transform="translate(0 0.99375)"/>
       <use xlink:href="#ArialMT-30" transform="translate(55.615234 0.99375)"/>
       <use xlink:href="#ArialMT-2212" transform="translate(112.972813 70.6875)scale(0.7)"/>
       <use xlink:href="#ArialMT-31" transform="translate(153.851719 70.6875)scale(0.7)"/>
      </g>
     </g>
    </g>
    <g id="xtick_40">
     <g id="line2d_59">
      <g>
       <use xlink:href="#m0873623d12" x="900.688307" y="253.47" style="fill: #262626; stroke: #262626; stroke-width: 2.5"/>
      </g>
     </g>
     <g id="text_17">
      <!-- $\mathdefault{10^{0}}$ -->
      <g style="fill: #262626" transform="translate(883.418307 291.6575)scale(0.22 -0.22)">
       <use xlink:href="#ArialMT-31" transform="translate(0 0.99375)"/>
       <use xlink:href="#ArialMT-30" transform="translate(55.615234 0.99375)"/>
       <use xlink:href="#ArialMT-30" transform="translate(112.972813 70.6875)scale(0.7)"/>
      </g>
     </g>
    </g>
    <g id="xtick_41">
     <g id="line2d_60">
      <g>
       <use xlink:href="#m0873623d12" x="1051.095401" y="253.47" style="fill: #262626; stroke: #262626; stroke-width: 2.5"/>
      </g>
     </g>
     <g id="text_18">
      <!-- $\mathdefault{10^{1}}$ -->
      <g style="fill: #262626" transform="translate(1033.825401 291.6575)scale(0.22 -0.22)">
       <use xlink:href="#ArialMT-31" transform="translate(0 0.99375)"/>
       <use xlink:href="#ArialMT-30" transform="translate(55.615234 0.99375)"/>
       <use xlink:href="#ArialMT-31" transform="translate(112.972813 70.6875)scale(0.7)"/>
      </g>
     </g>
    </g>
    <g id="xtick_42">
     <g id="line2d_61">
      <g>
       <use xlink:href="#m48681a669f" x="795.558259" y="253.47" style="fill: #262626; stroke: #262626; stroke-width: 2"/>
      </g>
     </g>
    </g>
    <g id="xtick_43">
     <g id="line2d_62">
      <g>
       <use xlink:href="#m48681a669f" x="822.043634" y="253.47" style="fill: #262626; stroke: #262626; stroke-width: 2"/>
      </g>
     </g>
    </g>
    <g id="xtick_44">
     <g id="line2d_63">
      <g>
       <use xlink:href="#m48681a669f" x="840.835306" y="253.47" style="fill: #262626; stroke: #262626; stroke-width: 2"/>
      </g>
     </g>
    </g>
    <g id="xtick_45">
     <g id="line2d_64">
      <g>
       <use xlink:href="#m48681a669f" x="855.41126" y="253.47" style="fill: #262626; stroke: #262626; stroke-width: 2"/>
      </g>
     </g>
    </g>
    <g id="xtick_46">
     <g id="line2d_65">
      <g>
       <use xlink:href="#m48681a669f" x="867.320681" y="253.47" style="fill: #262626; stroke: #262626; stroke-width: 2"/>
      </g>
     </g>
    </g>
    <g id="xtick_47">
     <g id="line2d_66">
      <g>
       <use xlink:href="#m48681a669f" x="877.389953" y="253.47" style="fill: #262626; stroke: #262626; stroke-width: 2"/>
      </g>
     </g>
    </g>
    <g id="xtick_48">
     <g id="line2d_67">
      <g>
       <use xlink:href="#m48681a669f" x="886.112353" y="253.47" style="fill: #262626; stroke: #262626; stroke-width: 2"/>
      </g>
     </g>
    </g>
    <g id="xtick_49">
     <g id="line2d_68">
      <g>
       <use xlink:href="#m48681a669f" x="893.806056" y="253.47" style="fill: #262626; stroke: #262626; stroke-width: 2"/>
      </g>
     </g>
    </g>
    <g id="xtick_50">
     <g id="line2d_69">
      <g>
       <use xlink:href="#m48681a669f" x="945.965354" y="253.47" style="fill: #262626; stroke: #262626; stroke-width: 2"/>
      </g>
     </g>
    </g>
    <g id="xtick_51">
     <g id="line2d_70">
      <g>
       <use xlink:href="#m48681a669f" x="972.450728" y="253.47" style="fill: #262626; stroke: #262626; stroke-width: 2"/>
      </g>
     </g>
    </g>
    <g id="xtick_52">
     <g id="line2d_71">
      <g>
       <use xlink:href="#m48681a669f" x="991.242401" y="253.47" style="fill: #262626; stroke: #262626; stroke-width: 2"/>
      </g>
     </g>
    </g>
    <g id="xtick_53">
     <g id="line2d_72">
      <g>
       <use xlink:href="#m48681a669f" x="1005.818354" y="253.47" style="fill: #262626; stroke: #262626; stroke-width: 2"/>
      </g>
     </g>
    </g>
    <g id="xtick_54">
     <g id="line2d_73">
      <g>
       <use xlink:href="#m48681a669f" x="1017.727775" y="253.47" style="fill: #262626; stroke: #262626; stroke-width: 2"/>
      </g>
     </g>
    </g>
    <g id="xtick_55">
     <g id="line2d_74">
      <g>
       <use xlink:href="#m48681a669f" x="1027.797048" y="253.47" style="fill: #262626; stroke: #262626; stroke-width: 2"/>
      </g>
     </g>
    </g>
    <g id="xtick_56">
     <g id="line2d_75">
      <g>
       <use xlink:href="#m48681a669f" x="1036.519448" y="253.47" style="fill: #262626; stroke: #262626; stroke-width: 2"/>
      </g>
     </g>
    </g>
    <g id="xtick_57">
     <g id="line2d_76">
      <g>
       <use xlink:href="#m48681a669f" x="1044.21315" y="253.47" style="fill: #262626; stroke: #262626; stroke-width: 2"/>
      </g>
     </g>
    </g>
    <g id="text_19">
     <!-- divisions per day -->
     <g style="fill: #262626" transform="translate(811.314557 317.20875)scale(0.24 -0.24)">
      <use xlink:href="#ArialMT-64"/>
      <use xlink:href="#ArialMT-69" x="55.615234"/>
      <use xlink:href="#ArialMT-76" x="77.832031"/>
      <use xlink:href="#ArialMT-69" x="127.832031"/>
      <use xlink:href="#ArialMT-73" x="150.048828"/>
      <use xlink:href="#ArialMT-69" x="200.048828"/>
      <use xlink:href="#ArialMT-6f" x="222.265625"/>
      <use xlink:href="#ArialMT-6e" x="277.880859"/>
      <use xlink:href="#ArialMT-73" x="333.496094"/>
      <use xlink:href="#ArialMT-20" x="383.496094"/>
      <use xlink:href="#ArialMT-70" x="411.279297"/>
      <use xlink:href="#ArialMT-65" x="466.894531"/>
      <use xlink:href="#ArialMT-72" x="522.509766"/>
      <use xlink:href="#ArialMT-20" x="555.810547"/>
      <use xlink:href="#ArialMT-64" x="583.59375"/>
      <use xlink:href="#ArialMT-61" x="639.208984"/>
      <use xlink:href="#ArialMT-79" x="694.824219"/>
     </g>
    </g>
   </g>
   <g id="matplotlib.axis_6">
    <g id="ytick_9">
     <g id="line2d_77">
      <g>
       <use xlink:href="#mdadae58d17" x="750.281212" y="221.641607" style="fill: #262626; stroke: #262626; stroke-width: 2.5"/>
      </g>
     </g>
    </g>
    <g id="ytick_10">
     <g id="line2d_78">
      <g>
       <use xlink:href="#mdadae58d17" x="750.281212" y="157.984821" style="fill: #262626; stroke: #262626; stroke-width: 2.5"/>
      </g>
     </g>
    </g>
    <g id="ytick_11">
     <g id="line2d_79">
      <g>
       <use xlink:href="#mdadae58d17" x="750.281212" y="94.328036" style="fill: #262626; stroke: #262626; stroke-width: 2.5"/>
      </g>
     </g>
    </g>
    <g id="ytick_12">
     <g id="line2d_80">
      <g>
       <use xlink:href="#mdadae58d17" x="750.281212" y="30.67125" style="fill: #262626; stroke: #262626; stroke-width: 2.5"/>
      </g>
     </g>
    </g>
   </g>
   <g id="line2d_81">
    <path d="M 750.281212 221.641607 
L 760.654115 221.502024 
L 771.027018 221.339669 
L 781.399922 221.150953 
L 791.772825 220.931642 
L 800.064941 220.730882 
L 801.384601 220.696616 
L 802.145728 220.676546 
L 802.678128 220.662373 
L 803.946536 220.62815 
L 805.190783 220.593944 
L 806.411771 220.559753 
L 807.610355 220.525573 
L 808.787341 220.491402 
L 809.943495 220.457236 
L 811.07954 220.423071 
L 812.196165 220.388905 
L 812.518631 220.378929 
L 813.294022 220.354735 
L 814.373732 220.320556 
L 815.435885 220.286364 
L 816.481043 220.252158 
L 817.509741 220.217932 
L 818.52249 220.183683 
L 819.519776 220.149407 
L 820.502065 220.115099 
L 821.4698 220.080757 
L 822.423408 220.046374 
L 822.891534 220.029295 
L 823.363294 220.011948 
L 824.289849 219.977473 
L 825.203443 219.942946 
L 826.104437 219.908361 
L 826.993171 219.873713 
L 827.869976 219.838998 
L 828.735167 219.804211 
L 829.589048 219.769346 
L 830.431911 219.734398 
L 831.264036 219.699361 
L 832.085695 219.664231 
L 832.897146 217.980251 
L 833.264437 217.005752 
L 833.69864 215.795541 
L 834.490419 213.568692 
L 835.272716 211.46374 
L 836.045754 209.530369 
L 836.809751 207.771669 
L 837.564915 206.173939 
L 838.311448 204.719466 
L 839.049546 203.389812 
L 839.779397 202.168784 
L 840.501183 201.042393 
L 841.21508 199.998743 
L 841.92126 199.027767 
L 842.619887 198.120949 
L 843.31112 197.271064 
L 843.63734 196.884997 
L 843.995116 196.471954 
L 844.672023 195.71835 
L 845.341988 195.005713 
L 854.010243 187.836623 
L 864.383146 181.997791 
L 874.756049 177.57411 
L 885.128952 173.931416 
L 895.501855 170.774812 
L 905.874758 167.943051 
L 916.247661 165.33922 
L 926.620565 162.89761 
L 936.993468 160.574341 
L 947.366371 158.335117 
L 957.739274 156.169057 
L 968.112177 154.028618 
L 978.48508 151.924711 
L 988.857983 149.818157 
L 999.230886 147.70711 
L 1009.603789 145.602285 
L 1019.976692 143.484821 
L 1030.349595 141.35363 
L 1040.722498 139.224701 
L 1051.095401 137.112277 
" clip-path="url(#p3d44d69233)" style="fill: none; stroke: #4c72b0; stroke-width: 5; stroke-linecap: round"/>
   </g>
   <g id="line2d_82">
    <path d="M 750.281212 221.641607 
L 760.654115 220.965284 
L 771.027018 220.075498 
L 781.399922 218.893067 
L 791.772825 217.286113 
L 800.064941 215.536266 
L 801.384601 215.204485 
L 802.145728 215.005001 
L 802.678128 214.861725 
L 803.946536 214.507246 
L 805.190783 214.140222 
L 806.411771 213.759728 
L 807.610355 213.364732 
L 808.787341 212.954068 
L 809.943495 212.52642 
L 811.07954 212.080297 
L 812.196165 211.61401 
L 812.518631 211.473777 
L 813.294022 211.125574 
L 814.373732 210.612756 
L 815.435885 210.072943 
L 816.481043 209.503073 
L 817.509741 208.899571 
L 818.52249 208.25816 
L 819.519776 207.573732 
L 820.502065 206.840115 
L 821.4698 206.049772 
L 822.423408 205.19341 
L 822.891534 204.740442 
L 823.363294 204.259457 
L 824.289849 203.233408 
L 825.203443 202.097019 
L 826.104437 200.827583 
L 826.993171 199.397834 
L 827.869976 197.778072 
L 828.735167 195.943719 
L 829.589048 193.893151 
L 830.431911 191.676805 
L 831.264036 189.422325 
L 832.085695 187.311423 
L 832.897146 185.49383 
L 833.264437 184.776657 
L 833.69864 184.011123 
L 834.490419 182.815587 
L 835.272716 181.837327 
L 836.045754 181.019133 
L 836.809751 180.321518 
L 837.564915 179.716764 
L 838.311448 179.185631 
L 839.049546 178.713334 
L 839.779397 178.288979 
L 840.501183 177.90424 
L 841.21508 177.552658 
L 841.92126 177.229139 
L 842.619887 176.929619 
L 843.31112 176.650809 
L 843.63734 176.524669 
L 843.995116 176.390018 
L 844.672023 176.145024 
L 845.341988 175.913972 
L 854.010243 173.575606 
L 864.383146 171.535596 
L 874.756049 169.799273 
L 885.128952 168.176747 
L 895.501855 166.589309 
L 905.874758 165.002066 
L 916.247661 163.400645 
L 926.620565 161.777629 
L 936.993468 160.130593 
L 947.366371 158.455967 
L 957.739274 156.759477 
L 968.112177 155.019067 
L 978.48508 153.251905 
L 988.857983 151.434188 
L 999.230886 149.569539 
L 1009.603789 147.672303 
L 1019.976692 145.730984 
L 1030.349595 143.748403 
L 1040.722498 141.743381 
L 1051.095401 139.733668 
" clip-path="url(#p3d44d69233)" style="fill: none; stroke: #dd8452; stroke-width: 5; stroke-linecap: round"/>
   </g>
   <g id="line2d_83">
    <path d="M 750.281212 221.472395 
L 760.654115 221.472274 
L 771.027018 221.471961 
L 781.399922 221.471172 
L 791.772825 221.469235 
L 800.064941 221.465887 
L 801.384601 221.465111 
L 802.145728 221.464625 
L 802.678128 221.464266 
L 803.946536 221.463347 
L 805.190783 221.46235 
L 806.411771 221.46127 
L 807.610355 221.460102 
L 808.787341 221.458842 
L 809.943495 221.457484 
L 811.07954 221.456023 
L 812.196165 221.454454 
L 812.518631 221.453975 
L 813.294022 221.452771 
L 814.373732 221.450968 
L 815.435885 221.44904 
L 816.481043 221.446979 
L 817.509741 221.44478 
L 818.52249 221.442436 
L 819.519776 221.43994 
L 820.502065 221.437284 
L 821.4698 221.434461 
L 822.423408 221.431462 
L 822.891534 221.429906 
L 823.363294 221.428279 
L 824.289849 221.424904 
L 825.203443 221.421327 
L 826.104437 221.417538 
L 826.993171 221.413528 
L 827.869976 221.409285 
L 828.735167 221.404797 
L 829.589048 221.400053 
L 830.431911 221.39504 
L 831.264036 221.389744 
L 832.085695 221.384149 
L 832.897146 189.78388 
L 833.264437 188.869055 
L 833.69864 188.221295 
L 834.490419 187.733304 
L 835.272716 187.714889 
L 836.045754 187.91712 
L 836.809751 188.225524 
L 837.564915 188.583685 
L 838.311448 188.962395 
L 839.049546 189.345839 
L 839.779397 189.725533 
L 840.501183 190.096917 
L 841.21508 190.457645 
L 841.92126 190.806636 
L 842.619887 191.143545 
L 843.31112 191.468449 
L 843.63734 191.618857 
L 843.995116 191.78167 
L 844.672023 192.083659 
L 845.341988 192.374932 
L 854.010243 195.582355 
L 864.383146 198.518037 
L 874.756049 200.90377 
L 885.128952 202.954101 
L 895.501855 204.778421 
L 905.874758 206.439195 
L 916.247661 207.973702 
L 926.620565 209.408999 
L 936.993468 210.758612 
L 947.366371 212.03348 
L 957.739274 213.236611 
L 968.112177 214.382612 
L 978.48508 215.466652 
L 988.857983 216.497064 
L 999.230886 217.47358 
L 1009.603789 218.398197 
L 1019.976692 219.273935 
L 1030.349595 220.10467 
L 1040.722498 220.891167 
L 1051.095401 221.641607 
" clip-path="url(#p3d44d69233)" style="fill: none; stroke: #55a868; stroke-width: 5; stroke-linecap: round"/>
   </g>
   <g id="patch_13">
    <path d="M 750.281212 253.47 
L 750.281212 30.67125 
" style="fill: none; stroke: #262626; stroke-width: 2.5; stroke-linejoin: miter; stroke-linecap: square"/>
   </g>
   <g id="patch_14">
    <path d="M 1051.095401 253.47 
L 1051.095401 30.67125 
" style="fill: none; stroke: #262626; stroke-width: 2.5; stroke-linejoin: miter; stroke-linecap: square"/>
   </g>
   <g id="patch_15">
    <path d="M 750.281212 253.47 
L 1051.095401 253.47 
" style="fill: none; stroke: #262626; stroke-width: 2.5; stroke-linejoin: miter; stroke-linecap: square"/>
   </g>
   <g id="patch_16">
    <path d="M 750.281212 30.67125 
L 1051.095401 30.67125 
" style="fill: none; stroke: #262626; stroke-width: 2.5; stroke-linejoin: miter; stroke-linecap: square"/>
   </g>
   <g id="text_20">
    <!-- IL2 -->
    <g style="fill: #262626" transform="translate(884.008307 24.67125)scale(0.24 -0.24)">
     <defs>
      <path id="ArialMT-49" d="M 597 0 
L 597 4581 
L 1203 4581 
L 1203 0 
L 597 0 
z
" transform="scale(0.015625)"/>
      <path id="ArialMT-4c" d="M 469 0 
L 469 4581 
L 1075 4581 
L 1075 541 
L 3331 541 
L 3331 0 
L 469 0 
z
" transform="scale(0.015625)"/>
     </defs>
     <use xlink:href="#ArialMT-49"/>
     <use xlink:href="#ArialMT-4c" x="27.783203"/>
     <use xlink:href="#ArialMT-32" x="83.398438"/>
    </g>
   </g>
   <g id="line2d_84">
    <path d="M 951.337226 253.47 
L 951.337226 30.67125 
" clip-path="url(#p3d44d69233)" style="fill: none; stroke-dasharray: 7.4,3.2; stroke-dashoffset: 0; stroke: #1a1a1a; stroke-width: 2"/>
   </g>
  </g>
  <g id="axes_4">
   <g id="patch_17">
    <path d="M 1088.863381 253.47 
L 1389.67757 253.47 
L 1389.67757 30.67125 
L 1088.863381 30.67125 
z
" style="fill: #ffffff"/>
   </g>
   <g id="matplotlib.axis_7">
    <g id="xtick_58">
     <g id="line2d_85">
      <g>
       <use xlink:href="#m0873623d12" x="1088.863381" y="253.47" style="fill: #262626; stroke: #262626; stroke-width: 2.5"/>
      </g>
     </g>
     <g id="text_21">
      <!-- $\mathdefault{10^{-1}}$ -->
      <g style="fill: #262626" transform="translate(1067.083381 291.6575)scale(0.22 -0.22)">
       <use xlink:href="#ArialMT-31" transform="translate(0 0.99375)"/>
       <use xlink:href="#ArialMT-30" transform="translate(55.615234 0.99375)"/>
       <use xlink:href="#ArialMT-2212" transform="translate(112.972813 70.6875)scale(0.7)"/>
       <use xlink:href="#ArialMT-31" transform="translate(153.851719 70.6875)scale(0.7)"/>
      </g>
     </g>
    </g>
    <g id="xtick_59">
     <g id="line2d_86">
      <g>
       <use xlink:href="#m0873623d12" x="1239.270475" y="253.47" style="fill: #262626; stroke: #262626; stroke-width: 2.5"/>
      </g>
     </g>
     <g id="text_22">
      <!-- $\mathdefault{10^{0}}$ -->
      <g style="fill: #262626" transform="translate(1222.000475 291.6575)scale(0.22 -0.22)">
       <use xlink:href="#ArialMT-31" transform="translate(0 0.99375)"/>
       <use xlink:href="#ArialMT-30" transform="translate(55.615234 0.99375)"/>
       <use xlink:href="#ArialMT-30" transform="translate(112.972813 70.6875)scale(0.7)"/>
      </g>
     </g>
    </g>
    <g id="xtick_60">
     <g id="line2d_87">
      <g>
       <use xlink:href="#m0873623d12" x="1389.67757" y="253.47" style="fill: #262626; stroke: #262626; stroke-width: 2.5"/>
      </g>
     </g>
     <g id="text_23">
      <!-- $\mathdefault{10^{1}}$ -->
      <g style="fill: #262626" transform="translate(1372.40757 291.6575)scale(0.22 -0.22)">
       <use xlink:href="#ArialMT-31" transform="translate(0 0.99375)"/>
       <use xlink:href="#ArialMT-30" transform="translate(55.615234 0.99375)"/>
       <use xlink:href="#ArialMT-31" transform="translate(112.972813 70.6875)scale(0.7)"/>
      </g>
     </g>
    </g>
    <g id="xtick_61">
     <g id="line2d_88">
      <g>
       <use xlink:href="#m48681a669f" x="1134.140428" y="253.47" style="fill: #262626; stroke: #262626; stroke-width: 2"/>
      </g>
     </g>
    </g>
    <g id="xtick_62">
     <g id="line2d_89">
      <g>
       <use xlink:href="#m48681a669f" x="1160.625803" y="253.47" style="fill: #262626; stroke: #262626; stroke-width: 2"/>
      </g>
     </g>
    </g>
    <g id="xtick_63">
     <g id="line2d_90">
      <g>
       <use xlink:href="#m48681a669f" x="1179.417475" y="253.47" style="fill: #262626; stroke: #262626; stroke-width: 2"/>
      </g>
     </g>
    </g>
    <g id="xtick_64">
     <g id="line2d_91">
      <g>
       <use xlink:href="#m48681a669f" x="1193.993428" y="253.47" style="fill: #262626; stroke: #262626; stroke-width: 2"/>
      </g>
     </g>
    </g>
    <g id="xtick_65">
     <g id="line2d_92">
      <g>
       <use xlink:href="#m48681a669f" x="1205.90285" y="253.47" style="fill: #262626; stroke: #262626; stroke-width: 2"/>
      </g>
     </g>
    </g>
    <g id="xtick_66">
     <g id="line2d_93">
      <g>
       <use xlink:href="#m48681a669f" x="1215.972122" y="253.47" style="fill: #262626; stroke: #262626; stroke-width: 2"/>
      </g>
     </g>
    </g>
    <g id="xtick_67">
     <g id="line2d_94">
      <g>
       <use xlink:href="#m48681a669f" x="1224.694522" y="253.47" style="fill: #262626; stroke: #262626; stroke-width: 2"/>
      </g>
     </g>
    </g>
    <g id="xtick_68">
     <g id="line2d_95">
      <g>
       <use xlink:href="#m48681a669f" x="1232.388224" y="253.47" style="fill: #262626; stroke: #262626; stroke-width: 2"/>
      </g>
     </g>
    </g>
    <g id="xtick_69">
     <g id="line2d_96">
      <g>
       <use xlink:href="#m48681a669f" x="1284.547522" y="253.47" style="fill: #262626; stroke: #262626; stroke-width: 2"/>
      </g>
     </g>
    </g>
    <g id="xtick_70">
     <g id="line2d_97">
      <g>
       <use xlink:href="#m48681a669f" x="1311.032897" y="253.47" style="fill: #262626; stroke: #262626; stroke-width: 2"/>
      </g>
     </g>
    </g>
    <g id="xtick_71">
     <g id="line2d_98">
      <g>
       <use xlink:href="#m48681a669f" x="1329.82457" y="253.47" style="fill: #262626; stroke: #262626; stroke-width: 2"/>
      </g>
     </g>
    </g>
    <g id="xtick_72">
     <g id="line2d_99">
      <g>
       <use xlink:href="#m48681a669f" x="1344.400523" y="253.47" style="fill: #262626; stroke: #262626; stroke-width: 2"/>
      </g>
     </g>
    </g>
    <g id="xtick_73">
     <g id="line2d_100">
      <g>
       <use xlink:href="#m48681a669f" x="1356.309944" y="253.47" style="fill: #262626; stroke: #262626; stroke-width: 2"/>
      </g>
     </g>
    </g>
    <g id="xtick_74">
     <g id="line2d_101">
      <g>
       <use xlink:href="#m48681a669f" x="1366.379216" y="253.47" style="fill: #262626; stroke: #262626; stroke-width: 2"/>
      </g>
     </g>
    </g>
    <g id="xtick_75">
     <g id="line2d_102">
      <g>
       <use xlink:href="#m48681a669f" x="1375.101617" y="253.47" style="fill: #262626; stroke: #262626; stroke-width: 2"/>
      </g>
     </g>
    </g>
    <g id="xtick_76">
     <g id="line2d_103">
      <g>
       <use xlink:href="#m48681a669f" x="1382.795319" y="253.47" style="fill: #262626; stroke: #262626; stroke-width: 2"/>
      </g>
     </g>
    </g>
    <g id="text_24">
     <!-- divisions per day -->
     <g style="fill: #262626" transform="translate(1149.896725 317.20875)scale(0.24 -0.24)">
      <use xlink:href="#ArialMT-64"/>
      <use xlink:href="#ArialMT-69" x="55.615234"/>
      <use xlink:href="#ArialMT-76" x="77.832031"/>
      <use xlink:href="#ArialMT-69" x="127.832031"/>
      <use xlink:href="#ArialMT-73" x="150.048828"/>
      <use xlink:href="#ArialMT-69" x="200.048828"/>
      <use xlink:href="#ArialMT-6f" x="222.265625"/>
      <use xlink:href="#ArialMT-6e" x="277.880859"/>
      <use xlink:href="#ArialMT-73" x="333.496094"/>
      <use xlink:href="#ArialMT-20" x="383.496094"/>
      <use xlink:href="#ArialMT-70" x="411.279297"/>
      <use xlink:href="#ArialMT-65" x="466.894531"/>
      <use xlink:href="#ArialMT-72" x="522.509766"/>
      <use xlink:href="#ArialMT-20" x="555.810547"/>
      <use xlink:href="#ArialMT-64" x="583.59375"/>
      <use xlink:href="#ArialMT-61" x="639.208984"/>
      <use xlink:href="#ArialMT-79" x="694.824219"/>
     </g>
    </g>
   </g>
   <g id="matplotlib.axis_8">
    <g id="ytick_13">
     <g id="line2d_104">
      <g>
       <use xlink:href="#mdadae58d17" x="1088.863381" y="221.641607" style="fill: #262626; stroke: #262626; stroke-width: 2.5"/>
      </g>
     </g>
    </g>
    <g id="ytick_14">
     <g id="line2d_105">
      <g>
       <use xlink:href="#mdadae58d17" x="1088.863381" y="157.984821" style="fill: #262626; stroke: #262626; stroke-width: 2.5"/>
      </g>
     </g>
    </g>
    <g id="ytick_15">
     <g id="line2d_106">
      <g>
       <use xlink:href="#mdadae58d17" x="1088.863381" y="94.328036" style="fill: #262626; stroke: #262626; stroke-width: 2.5"/>
      </g>
     </g>
    </g>
    <g id="ytick_16">
     <g id="line2d_107">
      <g>
       <use xlink:href="#mdadae58d17" x="1088.863381" y="30.67125" style="fill: #262626; stroke: #262626; stroke-width: 2.5"/>
      </g>
     </g>
    </g>
   </g>
   <g id="line2d_108">
    <path d="M 1088.863381 221.641607 
L 1099.236284 221.501993 
L 1109.609187 221.339559 
L 1119.98209 221.15065 
L 1130.354993 220.930878 
L 1138.647109 220.729346 
L 1139.96677 220.694904 
L 1140.727896 220.674724 
L 1141.260297 220.66047 
L 1142.528705 220.626041 
L 1143.772951 220.591613 
L 1144.99394 220.557182 
L 1146.192523 220.522744 
L 1147.36951 220.488296 
L 1148.525663 220.453833 
L 1149.661709 220.419351 
L 1150.778334 220.384847 
L 1151.100799 220.374767 
L 1151.876191 220.350315 
L 1152.955901 220.315751 
L 1154.018054 220.281151 
L 1155.063212 220.24651 
L 1156.09191 220.211823 
L 1157.104658 220.177085 
L 1158.101944 220.142292 
L 1159.084233 220.107438 
L 1160.051969 220.072518 
L 1161.005577 220.037527 
L 1161.473702 220.020133 
L 1161.945463 220.002458 
L 1162.872017 219.967307 
L 1163.785612 219.932068 
L 1164.686605 219.896733 
L 1165.57534 219.861299 
L 1166.452144 219.825757 
L 1167.317336 219.790101 
L 1168.171217 219.754325 
L 1169.01408 219.718421 
L 1169.846205 219.682383 
L 1170.667863 219.646202 
L 1171.479314 219.609871 
L 1171.846606 219.593225 
L 1172.280809 219.573381 
L 1173.072588 219.440638 
L 1173.854884 219.303333 
L 1174.627923 219.165051 
L 1175.391919 219.025411 
L 1176.147083 218.885162 
L 1176.893617 218.743963 
L 1177.631715 218.601987 
L 1178.361566 218.459228 
L 1179.083352 218.315738 
L 1179.797249 218.171566 
L 1180.503429 218.026767 
L 1181.202055 217.881391 
L 1181.893289 217.736652 
L 1182.219509 217.667106 
L 1182.577284 217.59031 
L 1183.254192 217.443525 
L 1183.924156 217.296339 
L 1192.592412 215.226243 
L 1202.965315 212.33942 
L 1213.338218 208.949903 
L 1223.711121 204.963169 
L 1234.084024 200.296341 
L 1244.456927 194.836812 
L 1254.82983 188.441582 
L 1265.202733 180.978433 
L 1275.575636 172.280075 
L 1285.948539 162.094087 
L 1296.321442 150.214064 
L 1306.694345 136.33233 
L 1317.067249 120.075877 
L 1327.440152 101.074643 
L 1337.813055 78.81278 
L 1348.185958 52.676017 
L 1358.558861 21.883907 
L 1365.131411 -1 
" clip-path="url(#p25fda45122)" style="fill: none; stroke: #4c72b0; stroke-width: 5; stroke-linecap: round"/>
   </g>
   <g id="line2d_109">
    <path d="M 1088.863381 221.641607 
L 1099.236284 221.370698 
L 1109.609187 220.982468 
L 1119.98209 220.441829 
L 1130.354993 219.727375 
L 1138.647109 219.032951 
L 1139.96677 218.912889 
L 1140.727896 218.842487 
L 1141.260297 218.792743 
L 1142.528705 218.672582 
L 1143.772951 218.552462 
L 1144.99394 218.432426 
L 1146.192523 218.31264 
L 1147.36951 218.192842 
L 1148.525663 218.073187 
L 1149.661709 217.95368 
L 1150.778334 217.834239 
L 1151.100799 217.799416 
L 1151.876191 217.71502 
L 1152.955901 217.595915 
L 1154.018054 217.4769 
L 1155.063212 217.357951 
L 1156.09191 217.239038 
L 1157.104658 217.120132 
L 1158.101944 217.001201 
L 1159.084233 216.882213 
L 1160.051969 216.763135 
L 1161.005577 216.643939 
L 1161.473702 216.584733 
L 1161.945463 216.524595 
L 1162.872017 216.405076 
L 1163.785612 216.285355 
L 1164.686605 216.165408 
L 1165.57534 216.045215 
L 1166.452144 215.924758 
L 1167.317336 215.804019 
L 1168.171217 215.682986 
L 1169.01408 215.561649 
L 1169.846205 215.439998 
L 1170.667863 215.31803 
L 1171.479314 215.195552 
L 1171.846606 215.139599 
L 1172.280809 215.072959 
L 1173.072588 214.950052 
L 1173.854884 214.826849 
L 1174.627923 214.703228 
L 1175.391919 214.579512 
L 1176.147083 214.455335 
L 1176.893617 214.33084 
L 1177.631715 214.206077 
L 1178.361566 214.08104 
L 1179.083352 213.955737 
L 1179.797249 213.830179 
L 1180.503429 213.704376 
L 1181.202055 213.578337 
L 1181.893289 213.452724 
L 1182.219509 213.392594 
L 1182.577284 213.326246 
L 1183.254192 213.199563 
L 1183.924156 213.072682 
L 1192.592412 211.291871 
L 1202.965315 208.784435 
L 1213.338218 205.790775 
L 1223.711121 202.215855 
L 1234.084024 197.955363 
L 1244.456927 192.889952 
L 1254.82983 186.856022 
L 1265.202733 179.71657 
L 1275.575636 171.299036 
L 1285.948539 161.348614 
L 1296.321442 149.665799 
L 1306.694345 135.945336 
L 1317.067249 119.819696 
L 1327.440152 100.937395 
L 1337.813055 78.757991 
L 1348.185958 52.686888 
L 1358.558861 21.956008 
L 1365.162177 -1 
" clip-path="url(#p25fda45122)" style="fill: none; stroke: #dd8452; stroke-width: 5; stroke-linecap: round"/>
   </g>
   <g id="line2d_110">
    <path d="M 1088.863381 221.641607 
L 1099.236284 221.64143 
L 1109.609187 221.640978 
L 1119.98209 221.639853 
L 1130.354993 221.63714 
L 1138.647109 221.632523 
L 1139.96677 221.631461 
L 1140.727896 221.630796 
L 1141.260297 221.630307 
L 1142.528705 221.629054 
L 1143.772951 221.627697 
L 1144.99394 221.62623 
L 1146.192523 221.624647 
L 1147.36951 221.622942 
L 1148.525663 221.621108 
L 1149.661709 221.619138 
L 1150.778334 221.617025 
L 1151.100799 221.61638 
L 1151.876191 221.614762 
L 1152.955901 221.612341 
L 1154.018054 221.609754 
L 1155.063212 221.606993 
L 1156.09191 221.604049 
L 1157.104658 221.600914 
L 1158.101944 221.597577 
L 1159.084233 221.594029 
L 1160.051969 221.59026 
L 1161.005577 221.586257 
L 1161.473702 221.584181 
L 1161.945463 221.58201 
L 1162.872017 221.577506 
L 1163.785612 221.572733 
L 1164.686605 221.567675 
L 1165.57534 221.562318 
L 1166.452144 221.556647 
L 1167.317336 221.550644 
L 1168.171217 221.54429 
L 1169.01408 221.537566 
L 1169.846205 221.53045 
L 1170.667863 221.522919 
L 1171.479314 221.514947 
L 1171.846606 221.511152 
L 1172.280809 221.506506 
L 1173.072588 214.54684 
L 1173.854884 214.487894 
L 1174.627923 214.433616 
L 1175.391919 214.378779 
L 1176.147083 214.333998 
L 1176.893617 214.293673 
L 1177.631715 214.256798 
L 1178.361566 214.223203 
L 1179.083352 214.192516 
L 1179.797249 214.164387 
L 1180.503429 214.138507 
L 1181.202055 214.114613 
L 1181.893289 214.094594 
L 1182.219509 214.084501 
L 1182.577284 214.073764 
L 1183.254192 214.054336 
L 1183.924156 214.036166 
L 1192.592412 213.864354 
L 1202.965315 213.724834 
L 1213.338218 213.610267 
L 1223.711121 213.51329 
L 1234.084024 213.428534 
L 1244.456927 213.355184 
L 1254.82983 213.279616 
L 1265.202733 213.212692 
L 1275.575636 213.149284 
L 1285.948539 213.098592 
L 1296.321442 213.035363 
L 1306.694345 212.979094 
L 1317.067249 212.923885 
L 1327.440152 212.86739 
L 1337.813055 212.81664 
L 1348.185958 212.764509 
L 1358.558861 212.706216 
L 1368.931764 212.664042 
L 1379.304667 212.615573 
L 1389.67757 212.560478 
" clip-path="url(#p25fda45122)" style="fill: none; stroke: #55a868; stroke-width: 5; stroke-linecap: round"/>
   </g>
   <g id="patch_18">
    <path d="M 1088.863381 253.47 
L 1088.863381 30.67125 
" style="fill: none; stroke: #262626; stroke-width: 2.5; stroke-linejoin: miter; stroke-linecap: square"/>
   </g>
   <g id="patch_19">
    <path d="M 1389.67757 253.47 
L 1389.67757 30.67125 
" style="fill: none; stroke: #262626; stroke-width: 2.5; stroke-linejoin: miter; stroke-linecap: square"/>
   </g>
   <g id="patch_20">
    <path d="M 1088.863381 253.47 
L 1389.67757 253.47 
" style="fill: none; stroke: #262626; stroke-width: 2.5; stroke-linejoin: miter; stroke-linecap: square"/>
   </g>
   <g id="patch_21">
    <path d="M 1088.863381 30.67125 
L 1389.67757 30.67125 
" style="fill: none; stroke: #262626; stroke-width: 2.5; stroke-linejoin: miter; stroke-linecap: square"/>
   </g>
   <g id="text_25">
    <!-- Timer -->
    <g style="fill: #262626" transform="translate(1209.060475 24.67125)scale(0.24 -0.24)">
     <defs>
      <path id="ArialMT-54" d="M 1659 0 
L 1659 4041 
L 150 4041 
L 150 4581 
L 3781 4581 
L 3781 4041 
L 2266 4041 
L 2266 0 
L 1659 0 
z
" transform="scale(0.015625)"/>
      <path id="ArialMT-6d" d="M 422 0 
L 422 3319 
L 925 3319 
L 925 2853 
Q 1081 3097 1340 3245 
Q 1600 3394 1931 3394 
Q 2300 3394 2536 3241 
Q 2772 3088 2869 2813 
Q 3263 3394 3894 3394 
Q 4388 3394 4653 3120 
Q 4919 2847 4919 2278 
L 4919 0 
L 4359 0 
L 4359 2091 
Q 4359 2428 4304 2576 
Q 4250 2725 4106 2815 
Q 3963 2906 3769 2906 
Q 3419 2906 3187 2673 
Q 2956 2441 2956 1928 
L 2956 0 
L 2394 0 
L 2394 2156 
Q 2394 2531 2256 2718 
Q 2119 2906 1806 2906 
Q 1569 2906 1367 2781 
Q 1166 2656 1075 2415 
Q 984 2175 984 1722 
L 984 0 
L 422 0 
z
" transform="scale(0.015625)"/>
     </defs>
     <use xlink:href="#ArialMT-54"/>
     <use xlink:href="#ArialMT-69" x="57.333984"/>
     <use xlink:href="#ArialMT-6d" x="79.550781"/>
     <use xlink:href="#ArialMT-65" x="162.851562"/>
     <use xlink:href="#ArialMT-72" x="218.466797"/>
    </g>
   </g>
   <g id="line2d_111">
    <path d="M 1289.919395 253.47 
L 1289.919395 30.67125 
" clip-path="url(#p25fda45122)" style="fill: none; stroke-dasharray: 7.4,3.2; stroke-dashoffset: 0; stroke: #1a1a1a; stroke-width: 2"/>
   </g>
  </g>
  <g id="legend_1">
   <g id="text_26">
    <!-- readout -->
    <g style="fill: #262626" transform="translate(1464.430576 123.991875)scale(0.24 -0.24)">
     <use xlink:href="#ArialMT-72"/>
     <use xlink:href="#ArialMT-65" x="33.300781"/>
     <use xlink:href="#ArialMT-61" x="88.916016"/>
     <use xlink:href="#ArialMT-64" x="144.53125"/>
     <use xlink:href="#ArialMT-6f" x="200.146484"/>
     <use xlink:href="#ArialMT-75" x="255.761719"/>
     <use xlink:href="#ArialMT-74" x="311.376953"/>
    </g>
   </g>
   <g id="line2d_112">
    <path d="M 1400.341983 147.809063 
L 1422.341983 147.809063 
L 1444.341983 147.809063 
" style="fill: none; stroke: #4c72b0; stroke-width: 5; stroke-linecap: round"/>
   </g>
   <g id="text_27">
    <!-- Peak Height -->
    <g style="fill: #262626" transform="translate(1461.941982 155.509062)scale(0.22 -0.22)">
     <defs>
      <path id="ArialMT-50" d="M 494 0 
L 494 4581 
L 2222 4581 
Q 2678 4581 2919 4538 
Q 3256 4481 3484 4323 
Q 3713 4166 3852 3881 
Q 3991 3597 3991 3256 
Q 3991 2672 3619 2267 
Q 3247 1863 2275 1863 
L 1100 1863 
L 1100 0 
L 494 0 
z
M 1100 2403 
L 2284 2403 
Q 2872 2403 3119 2622 
Q 3366 2841 3366 3238 
Q 3366 3525 3220 3729 
Q 3075 3934 2838 4000 
Q 2684 4041 2272 4041 
L 1100 4041 
L 1100 2403 
z
" transform="scale(0.015625)"/>
      <path id="ArialMT-6b" d="M 425 0 
L 425 4581 
L 988 4581 
L 988 1969 
L 2319 3319 
L 3047 3319 
L 1778 2088 
L 3175 0 
L 2481 0 
L 1384 1697 
L 988 1316 
L 988 0 
L 425 0 
z
" transform="scale(0.015625)"/>
      <path id="ArialMT-48" d="M 513 0 
L 513 4581 
L 1119 4581 
L 1119 2700 
L 3500 2700 
L 3500 4581 
L 4106 4581 
L 4106 0 
L 3500 0 
L 3500 2159 
L 1119 2159 
L 1119 0 
L 513 0 
z
" transform="scale(0.015625)"/>
      <path id="ArialMT-68" d="M 422 0 
L 422 4581 
L 984 4581 
L 984 2938 
Q 1378 3394 1978 3394 
Q 2347 3394 2619 3248 
Q 2891 3103 3008 2847 
Q 3125 2591 3125 2103 
L 3125 0 
L 2563 0 
L 2563 2103 
Q 2563 2525 2380 2717 
Q 2197 2909 1863 2909 
Q 1613 2909 1392 2779 
Q 1172 2650 1078 2428 
Q 984 2206 984 1816 
L 984 0 
L 422 0 
z
" transform="scale(0.015625)"/>
     </defs>
     <use xlink:href="#ArialMT-50"/>
     <use xlink:href="#ArialMT-65" x="66.699219"/>
     <use xlink:href="#ArialMT-61" x="122.314453"/>
     <use xlink:href="#ArialMT-6b" x="177.929688"/>
     <use xlink:href="#ArialMT-20" x="227.929688"/>
     <use xlink:href="#ArialMT-48" x="255.712891"/>
     <use xlink:href="#ArialMT-65" x="327.929688"/>
     <use xlink:href="#ArialMT-69" x="383.544922"/>
     <use xlink:href="#ArialMT-67" x="405.761719"/>
     <use xlink:href="#ArialMT-68" x="461.376953"/>
     <use xlink:href="#ArialMT-74" x="516.992188"/>
    </g>
   </g>
   <g id="line2d_113">
    <path d="M 1400.341983 179.454688 
L 1422.341983 179.454688 
L 1444.341983 179.454688 
" style="fill: none; stroke: #dd8452; stroke-width: 5; stroke-linecap: round"/>
   </g>
   <g id="text_28">
    <!-- Response Size -->
    <g style="fill: #262626" transform="translate(1461.941982 187.154687)scale(0.22 -0.22)">
     <defs>
      <path id="ArialMT-52" d="M 503 0 
L 503 4581 
L 2534 4581 
Q 3147 4581 3465 4457 
Q 3784 4334 3975 4021 
Q 4166 3709 4166 3331 
Q 4166 2844 3850 2509 
Q 3534 2175 2875 2084 
Q 3116 1969 3241 1856 
Q 3506 1613 3744 1247 
L 4541 0 
L 3778 0 
L 3172 953 
Q 2906 1366 2734 1584 
Q 2563 1803 2427 1890 
Q 2291 1978 2150 2013 
Q 2047 2034 1813 2034 
L 1109 2034 
L 1109 0 
L 503 0 
z
M 1109 2559 
L 2413 2559 
Q 2828 2559 3062 2645 
Q 3297 2731 3419 2920 
Q 3541 3109 3541 3331 
Q 3541 3656 3305 3865 
Q 3069 4075 2559 4075 
L 1109 4075 
L 1109 2559 
z
" transform="scale(0.015625)"/>
      <path id="ArialMT-53" d="M 288 1472 
L 859 1522 
Q 900 1178 1048 958 
Q 1197 738 1509 602 
Q 1822 466 2213 466 
Q 2559 466 2825 569 
Q 3091 672 3220 851 
Q 3350 1031 3350 1244 
Q 3350 1459 3225 1620 
Q 3100 1781 2813 1891 
Q 2628 1963 1997 2114 
Q 1366 2266 1113 2400 
Q 784 2572 623 2826 
Q 463 3081 463 3397 
Q 463 3744 659 4045 
Q 856 4347 1234 4503 
Q 1613 4659 2075 4659 
Q 2584 4659 2973 4495 
Q 3363 4331 3572 4012 
Q 3781 3694 3797 3291 
L 3216 3247 
Q 3169 3681 2898 3903 
Q 2628 4125 2100 4125 
Q 1550 4125 1298 3923 
Q 1047 3722 1047 3438 
Q 1047 3191 1225 3031 
Q 1400 2872 2139 2705 
Q 2878 2538 3153 2413 
Q 3553 2228 3743 1945 
Q 3934 1663 3934 1294 
Q 3934 928 3725 604 
Q 3516 281 3123 101 
Q 2731 -78 2241 -78 
Q 1619 -78 1198 103 
Q 778 284 539 648 
Q 300 1013 288 1472 
z
" transform="scale(0.015625)"/>
     </defs>
     <use xlink:href="#ArialMT-52"/>
     <use xlink:href="#ArialMT-65" x="72.216797"/>
     <use xlink:href="#ArialMT-73" x="127.832031"/>
     <use xlink:href="#ArialMT-70" x="177.832031"/>
     <use xlink:href="#ArialMT-6f" x="233.447266"/>
     <use xlink:href="#ArialMT-6e" x="289.0625"/>
     <use xlink:href="#ArialMT-73" x="344.677734"/>
     <use xlink:href="#ArialMT-65" x="394.677734"/>
     <use xlink:href="#ArialMT-20" x="450.292969"/>
     <use xlink:href="#ArialMT-53" x="478.076172"/>
     <use xlink:href="#ArialMT-69" x="544.775391"/>
     <use xlink:href="#ArialMT-7a" x="566.992188"/>
     <use xlink:href="#ArialMT-65" x="616.992188"/>
    </g>
   </g>
   <g id="line2d_114">
    <path d="M 1400.341983 210.574375 
L 1422.341983 210.574375 
L 1444.341983 210.574375 
" style="fill: none; stroke: #55a868; stroke-width: 5; stroke-linecap: round"/>
   </g>
   <g id="text_29">
    <!-- Peak Time -->
    <g style="fill: #262626" transform="translate(1461.941982 218.274375)scale(0.22 -0.22)">
     <use xlink:href="#ArialMT-50"/>
     <use xlink:href="#ArialMT-65" x="66.699219"/>
     <use xlink:href="#ArialMT-61" x="122.314453"/>
     <use xlink:href="#ArialMT-6b" x="177.929688"/>
     <use xlink:href="#ArialMT-20" x="227.929688"/>
     <use xlink:href="#ArialMT-54" x="253.962891"/>
     <use xlink:href="#ArialMT-69" x="311.296875"/>
     <use xlink:href="#ArialMT-6d" x="333.513672"/>
     <use xlink:href="#ArialMT-65" x="416.814453"/>
    </g>
   </g>
  </g>
 </g>
 <defs>
  <clipPath id="p377d142063">
   <rect x="73.116875" y="30.67125" width="300.814189" height="222.79875"/>
  </clipPath>
  <clipPath id="p939361f3a5">
   <rect x="411.699044" y="30.67125" width="300.814189" height="222.79875"/>
  </clipPath>
  <clipPath id="p3d44d69233">
   <rect x="750.281212" y="30.67125" width="300.814189" height="222.79875"/>
  </clipPath>
  <clipPath id="p25fda45122">
   <rect x="1088.863381" y="30.67125" width="300.814189" height="222.79875"/>
  </clipPath>
 </defs>
</svg>
